G04 #@! TF.GenerationSoftware,KiCad,Pcbnew,(5.1.4-0-10_14)*
G04 #@! TF.CreationDate,2020-12-30T10:53:35-07:00*
G04 #@! TF.ProjectId,Motherboard,4d6f7468-6572-4626-9f61-72642e6b6963,rev?*
G04 #@! TF.SameCoordinates,Original*
G04 #@! TF.FileFunction,Legend,Top*
G04 #@! TF.FilePolarity,Positive*
%FSLAX46Y46*%
G04 Gerber Fmt 4.6, Leading zero omitted, Abs format (unit mm)*
G04 Created by KiCad (PCBNEW (5.1.4-0-10_14)) date 2020-12-30 10:53:35*
%MOMM*%
%LPD*%
G04 APERTURE LIST*
%ADD10C,0.120000*%
%ADD11C,0.100000*%
%ADD12C,0.150000*%
G04 APERTURE END LIST*
D10*
X92366267Y-61466000D02*
X92023733Y-61466000D01*
X92366267Y-62486000D02*
X92023733Y-62486000D01*
X66690000Y-46462767D02*
X66690000Y-46120233D01*
X67710000Y-46462767D02*
X67710000Y-46120233D01*
X70186733Y-49532000D02*
X70529267Y-49532000D01*
X70186733Y-48512000D02*
X70529267Y-48512000D01*
X83483267Y-46801500D02*
X83140733Y-46801500D01*
X83483267Y-45781500D02*
X83140733Y-45781500D01*
X56691500Y-89435000D02*
X54231500Y-89435000D01*
X54231500Y-89435000D02*
X54231500Y-90905000D01*
X54231500Y-90905000D02*
X56691500Y-90905000D01*
X81785000Y-78840000D02*
X84245000Y-78840000D01*
X81785000Y-77370000D02*
X81785000Y-78840000D01*
X84245000Y-77370000D02*
X81785000Y-77370000D01*
X84610000Y-28670000D02*
X84610000Y-30000000D01*
X83280000Y-28670000D02*
X84610000Y-28670000D01*
X82010000Y-28670000D02*
X82010000Y-31330000D01*
X82010000Y-31330000D02*
X76870000Y-31330000D01*
X82010000Y-28670000D02*
X76870000Y-28670000D01*
X76870000Y-28670000D02*
X76870000Y-31330000D01*
X63380000Y-28670000D02*
X63380000Y-31330000D01*
X68520000Y-28670000D02*
X63380000Y-28670000D01*
X68520000Y-31330000D02*
X63380000Y-31330000D01*
X68520000Y-28670000D02*
X68520000Y-31330000D01*
X69790000Y-28670000D02*
X71120000Y-28670000D01*
X71120000Y-28670000D02*
X71120000Y-30000000D01*
X53264000Y-37045000D02*
X54594000Y-37045000D01*
X53264000Y-38375000D02*
X53264000Y-37045000D01*
X55864000Y-37045000D02*
X58464000Y-37045000D01*
X55864000Y-39645000D02*
X55864000Y-37045000D01*
X53264000Y-39645000D02*
X55864000Y-39645000D01*
X58464000Y-37045000D02*
X58464000Y-87965000D01*
X53264000Y-39645000D02*
X53264000Y-87965000D01*
X53264000Y-87965000D02*
X58464000Y-87965000D01*
X101220000Y-96376000D02*
X101220000Y-95046000D01*
X102550000Y-96376000D02*
X101220000Y-96376000D01*
X103820000Y-96376000D02*
X103820000Y-93716000D01*
X103820000Y-93716000D02*
X108960000Y-93716000D01*
X103820000Y-96376000D02*
X108960000Y-96376000D01*
X108960000Y-96376000D02*
X108960000Y-93716000D01*
X73810000Y-96376000D02*
X73810000Y-93716000D01*
X68670000Y-96376000D02*
X73810000Y-96376000D01*
X68670000Y-93716000D02*
X73810000Y-93716000D01*
X68670000Y-96376000D02*
X68670000Y-93716000D01*
X67400000Y-96376000D02*
X66070000Y-96376000D01*
X66070000Y-96376000D02*
X66070000Y-95046000D01*
X118670000Y-86620000D02*
X121330000Y-86620000D01*
X118670000Y-81480000D02*
X118670000Y-86620000D01*
X121330000Y-81480000D02*
X121330000Y-86620000D01*
X118670000Y-81480000D02*
X121330000Y-81480000D01*
X118670000Y-80210000D02*
X118670000Y-78880000D01*
X118670000Y-78880000D02*
X120000000Y-78880000D01*
X118670000Y-65390000D02*
X120000000Y-65390000D01*
X118670000Y-66720000D02*
X118670000Y-65390000D01*
X118670000Y-67990000D02*
X121330000Y-67990000D01*
X121330000Y-67990000D02*
X121330000Y-73130000D01*
X118670000Y-67990000D02*
X118670000Y-73130000D01*
X118670000Y-73130000D02*
X121330000Y-73130000D01*
X118670000Y-59640000D02*
X121330000Y-59640000D01*
X118670000Y-54500000D02*
X118670000Y-59640000D01*
X121330000Y-54500000D02*
X121330000Y-59640000D01*
X118670000Y-54500000D02*
X121330000Y-54500000D01*
X118670000Y-53230000D02*
X118670000Y-51900000D01*
X118670000Y-51900000D02*
X120000000Y-51900000D01*
X118670000Y-46150000D02*
X121330000Y-46150000D01*
X118670000Y-41010000D02*
X118670000Y-46150000D01*
X121330000Y-41010000D02*
X121330000Y-46150000D01*
X118670000Y-41010000D02*
X121330000Y-41010000D01*
X118670000Y-39740000D02*
X118670000Y-38410000D01*
X118670000Y-38410000D02*
X120000000Y-38410000D01*
X111590000Y-28670000D02*
X111590000Y-30000000D01*
X110260000Y-28670000D02*
X111590000Y-28670000D01*
X108990000Y-28670000D02*
X108990000Y-31330000D01*
X108990000Y-31330000D02*
X103850000Y-31330000D01*
X108990000Y-28670000D02*
X103850000Y-28670000D01*
X103850000Y-28670000D02*
X103850000Y-31330000D01*
X98100000Y-28670000D02*
X98100000Y-30000000D01*
X96770000Y-28670000D02*
X98100000Y-28670000D01*
X95500000Y-28670000D02*
X95500000Y-31330000D01*
X95500000Y-31330000D02*
X90360000Y-31330000D01*
X95500000Y-28670000D02*
X90360000Y-28670000D01*
X90360000Y-28670000D02*
X90360000Y-31330000D01*
X116470000Y-85581267D02*
X116470000Y-85238733D01*
X117490000Y-85581267D02*
X117490000Y-85238733D01*
X116470000Y-80231267D02*
X116470000Y-79888733D01*
X117490000Y-80231267D02*
X117490000Y-79888733D01*
X117490000Y-72091267D02*
X117490000Y-71748733D01*
X116470000Y-72091267D02*
X116470000Y-71748733D01*
X116470000Y-66741267D02*
X116470000Y-66398733D01*
X117490000Y-66741267D02*
X117490000Y-66398733D01*
X70529267Y-44074000D02*
X70186733Y-44074000D01*
X70529267Y-43054000D02*
X70186733Y-43054000D01*
X72896000Y-46120233D02*
X72896000Y-46462767D01*
X73916000Y-46120233D02*
X73916000Y-46462767D01*
X117490000Y-58601267D02*
X117490000Y-58258733D01*
X116470000Y-58601267D02*
X116470000Y-58258733D01*
X116470000Y-53251267D02*
X116470000Y-52908733D01*
X117490000Y-53251267D02*
X117490000Y-52908733D01*
X117490000Y-45111267D02*
X117490000Y-44768733D01*
X116470000Y-45111267D02*
X116470000Y-44768733D01*
X117490000Y-39761267D02*
X117490000Y-39418733D01*
X116470000Y-39761267D02*
X116470000Y-39418733D01*
X104888733Y-32510000D02*
X105231267Y-32510000D01*
X104888733Y-33530000D02*
X105231267Y-33530000D01*
X110238733Y-32510000D02*
X110581267Y-32510000D01*
X110238733Y-33530000D02*
X110581267Y-33530000D01*
X91398733Y-32510000D02*
X91741267Y-32510000D01*
X91398733Y-33530000D02*
X91741267Y-33530000D01*
X96748733Y-33530000D02*
X97091267Y-33530000D01*
X96748733Y-32510000D02*
X97091267Y-32510000D01*
X83483267Y-44000000D02*
X83140733Y-44000000D01*
X83483267Y-45020000D02*
X83140733Y-45020000D01*
X83483267Y-47563000D02*
X83140733Y-47563000D01*
X83483267Y-48583000D02*
X83140733Y-48583000D01*
X90355267Y-78615000D02*
X90012733Y-78615000D01*
X90355267Y-77595000D02*
X90012733Y-77595000D01*
X94245000Y-60815000D02*
X97695000Y-60815000D01*
X94245000Y-60815000D02*
X92295000Y-60815000D01*
X94245000Y-50695000D02*
X96195000Y-50695000D01*
X94245000Y-50695000D02*
X92295000Y-50695000D01*
D11*
X68953000Y-45091500D02*
X68953000Y-44841500D01*
X71653000Y-44941500D02*
X71653000Y-45091500D01*
X71503000Y-44941500D02*
X71653000Y-44941500D01*
X71653000Y-47641500D02*
X71503000Y-47641500D01*
X71653000Y-47641500D02*
X71653000Y-47491500D01*
X68953000Y-47641500D02*
X68953000Y-47491500D01*
X68953000Y-47651500D02*
X69103000Y-47651500D01*
D10*
X87876000Y-48768000D02*
X87876000Y-46768000D01*
X85876000Y-48768000D02*
X87876000Y-48768000D01*
X81910000Y-81606000D02*
X83650000Y-81606000D01*
X81910000Y-83346000D02*
X81910000Y-81606000D01*
X91350000Y-81846000D02*
X91350000Y-83846000D01*
X88550000Y-81846000D02*
X91350000Y-81846000D01*
X82150000Y-81846000D02*
X84950000Y-81846000D01*
X82150000Y-96446000D02*
X82150000Y-81846000D01*
X91350000Y-96446000D02*
X82150000Y-96446000D01*
X91350000Y-87446000D02*
X91350000Y-96446000D01*
X90045000Y-59455267D02*
X90045000Y-59162733D01*
X89025000Y-59455267D02*
X89025000Y-59162733D01*
D12*
X92028333Y-63763142D02*
X91980714Y-63810761D01*
X91837857Y-63858380D01*
X91742619Y-63858380D01*
X91599761Y-63810761D01*
X91504523Y-63715523D01*
X91456904Y-63620285D01*
X91409285Y-63429809D01*
X91409285Y-63286952D01*
X91456904Y-63096476D01*
X91504523Y-63001238D01*
X91599761Y-62906000D01*
X91742619Y-62858380D01*
X91837857Y-62858380D01*
X91980714Y-62906000D01*
X92028333Y-62953619D01*
X92980714Y-63858380D02*
X92409285Y-63858380D01*
X92695000Y-63858380D02*
X92695000Y-62858380D01*
X92599761Y-63001238D01*
X92504523Y-63096476D01*
X92409285Y-63144095D01*
X66127142Y-46458166D02*
X66174761Y-46505785D01*
X66222380Y-46648642D01*
X66222380Y-46743880D01*
X66174761Y-46886738D01*
X66079523Y-46981976D01*
X65984285Y-47029595D01*
X65793809Y-47077214D01*
X65650952Y-47077214D01*
X65460476Y-47029595D01*
X65365238Y-46981976D01*
X65270000Y-46886738D01*
X65222380Y-46743880D01*
X65222380Y-46648642D01*
X65270000Y-46505785D01*
X65317619Y-46458166D01*
X65317619Y-46077214D02*
X65270000Y-46029595D01*
X65222380Y-45934357D01*
X65222380Y-45696261D01*
X65270000Y-45601023D01*
X65317619Y-45553404D01*
X65412857Y-45505785D01*
X65508095Y-45505785D01*
X65650952Y-45553404D01*
X66222380Y-46124833D01*
X66222380Y-45505785D01*
X70191333Y-50903142D02*
X70143714Y-50950761D01*
X70000857Y-50998380D01*
X69905619Y-50998380D01*
X69762761Y-50950761D01*
X69667523Y-50855523D01*
X69619904Y-50760285D01*
X69572285Y-50569809D01*
X69572285Y-50426952D01*
X69619904Y-50236476D01*
X69667523Y-50141238D01*
X69762761Y-50046000D01*
X69905619Y-49998380D01*
X70000857Y-49998380D01*
X70143714Y-50046000D01*
X70191333Y-50093619D01*
X70524666Y-49998380D02*
X71143714Y-49998380D01*
X70810380Y-50379333D01*
X70953238Y-50379333D01*
X71048476Y-50426952D01*
X71096095Y-50474571D01*
X71143714Y-50569809D01*
X71143714Y-50807904D01*
X71096095Y-50903142D01*
X71048476Y-50950761D01*
X70953238Y-50998380D01*
X70667523Y-50998380D01*
X70572285Y-50950761D01*
X70524666Y-50903142D01*
X80351333Y-46839142D02*
X80303714Y-46886761D01*
X80160857Y-46934380D01*
X80065619Y-46934380D01*
X79922761Y-46886761D01*
X79827523Y-46791523D01*
X79779904Y-46696285D01*
X79732285Y-46505809D01*
X79732285Y-46362952D01*
X79779904Y-46172476D01*
X79827523Y-46077238D01*
X79922761Y-45982000D01*
X80065619Y-45934380D01*
X80160857Y-45934380D01*
X80303714Y-45982000D01*
X80351333Y-46029619D01*
X81208476Y-46267714D02*
X81208476Y-46934380D01*
X80970380Y-45886761D02*
X80732285Y-46601047D01*
X81351333Y-46601047D01*
X52359404Y-90622380D02*
X52359404Y-89622380D01*
X52597500Y-89622380D01*
X52740357Y-89670000D01*
X52835595Y-89765238D01*
X52883214Y-89860476D01*
X52930833Y-90050952D01*
X52930833Y-90193809D01*
X52883214Y-90384285D01*
X52835595Y-90479523D01*
X52740357Y-90574761D01*
X52597500Y-90622380D01*
X52359404Y-90622380D01*
X53883214Y-90622380D02*
X53311785Y-90622380D01*
X53597500Y-90622380D02*
X53597500Y-89622380D01*
X53502261Y-89765238D01*
X53407023Y-89860476D01*
X53311785Y-89908095D01*
X82700904Y-77033380D02*
X82700904Y-76033380D01*
X82939000Y-76033380D01*
X83081857Y-76081000D01*
X83177095Y-76176238D01*
X83224714Y-76271476D01*
X83272333Y-76461952D01*
X83272333Y-76604809D01*
X83224714Y-76795285D01*
X83177095Y-76890523D01*
X83081857Y-76985761D01*
X82939000Y-77033380D01*
X82700904Y-77033380D01*
X83653285Y-76128619D02*
X83700904Y-76081000D01*
X83796142Y-76033380D01*
X84034238Y-76033380D01*
X84129476Y-76081000D01*
X84177095Y-76128619D01*
X84224714Y-76223857D01*
X84224714Y-76319095D01*
X84177095Y-76461952D01*
X83605666Y-77033380D01*
X84224714Y-77033380D01*
X75112380Y-30305333D02*
X75826666Y-30305333D01*
X75969523Y-30352952D01*
X76064761Y-30448190D01*
X76112380Y-30591047D01*
X76112380Y-30686285D01*
X76112380Y-29305333D02*
X76112380Y-29876761D01*
X76112380Y-29591047D02*
X75112380Y-29591047D01*
X75255238Y-29686285D01*
X75350476Y-29781523D01*
X75398095Y-29876761D01*
X61622380Y-30305333D02*
X62336666Y-30305333D01*
X62479523Y-30352952D01*
X62574761Y-30448190D01*
X62622380Y-30591047D01*
X62622380Y-30686285D01*
X61717619Y-29876761D02*
X61670000Y-29829142D01*
X61622380Y-29733904D01*
X61622380Y-29495809D01*
X61670000Y-29400571D01*
X61717619Y-29352952D01*
X61812857Y-29305333D01*
X61908095Y-29305333D01*
X62050952Y-29352952D01*
X62622380Y-29924380D01*
X62622380Y-29305333D01*
X55530666Y-35497380D02*
X55530666Y-36211666D01*
X55483047Y-36354523D01*
X55387809Y-36449761D01*
X55244952Y-36497380D01*
X55149714Y-36497380D01*
X55911619Y-35497380D02*
X56530666Y-35497380D01*
X56197333Y-35878333D01*
X56340190Y-35878333D01*
X56435428Y-35925952D01*
X56483047Y-35973571D01*
X56530666Y-36068809D01*
X56530666Y-36306904D01*
X56483047Y-36402142D01*
X56435428Y-36449761D01*
X56340190Y-36497380D01*
X56054476Y-36497380D01*
X55959238Y-36449761D01*
X55911619Y-36402142D01*
X99672380Y-95379333D02*
X100386666Y-95379333D01*
X100529523Y-95426952D01*
X100624761Y-95522190D01*
X100672380Y-95665047D01*
X100672380Y-95760285D01*
X100005714Y-94474571D02*
X100672380Y-94474571D01*
X99624761Y-94712666D02*
X100339047Y-94950761D01*
X100339047Y-94331714D01*
X64522380Y-95379333D02*
X65236666Y-95379333D01*
X65379523Y-95426952D01*
X65474761Y-95522190D01*
X65522380Y-95665047D01*
X65522380Y-95760285D01*
X64522380Y-94426952D02*
X64522380Y-94903142D01*
X64998571Y-94950761D01*
X64950952Y-94903142D01*
X64903333Y-94807904D01*
X64903333Y-94569809D01*
X64950952Y-94474571D01*
X64998571Y-94426952D01*
X65093809Y-94379333D01*
X65331904Y-94379333D01*
X65427142Y-94426952D01*
X65474761Y-94474571D01*
X65522380Y-94569809D01*
X65522380Y-94807904D01*
X65474761Y-94903142D01*
X65427142Y-94950761D01*
X119666666Y-77332380D02*
X119666666Y-78046666D01*
X119619047Y-78189523D01*
X119523809Y-78284761D01*
X119380952Y-78332380D01*
X119285714Y-78332380D01*
X120571428Y-77332380D02*
X120380952Y-77332380D01*
X120285714Y-77380000D01*
X120238095Y-77427619D01*
X120142857Y-77570476D01*
X120095238Y-77760952D01*
X120095238Y-78141904D01*
X120142857Y-78237142D01*
X120190476Y-78284761D01*
X120285714Y-78332380D01*
X120476190Y-78332380D01*
X120571428Y-78284761D01*
X120619047Y-78237142D01*
X120666666Y-78141904D01*
X120666666Y-77903809D01*
X120619047Y-77808571D01*
X120571428Y-77760952D01*
X120476190Y-77713333D01*
X120285714Y-77713333D01*
X120190476Y-77760952D01*
X120142857Y-77808571D01*
X120095238Y-77903809D01*
X119666666Y-63842380D02*
X119666666Y-64556666D01*
X119619047Y-64699523D01*
X119523809Y-64794761D01*
X119380952Y-64842380D01*
X119285714Y-64842380D01*
X120047619Y-63842380D02*
X120714285Y-63842380D01*
X120285714Y-64842380D01*
X119666666Y-50352380D02*
X119666666Y-51066666D01*
X119619047Y-51209523D01*
X119523809Y-51304761D01*
X119380952Y-51352380D01*
X119285714Y-51352380D01*
X120285714Y-50780952D02*
X120190476Y-50733333D01*
X120142857Y-50685714D01*
X120095238Y-50590476D01*
X120095238Y-50542857D01*
X120142857Y-50447619D01*
X120190476Y-50400000D01*
X120285714Y-50352380D01*
X120476190Y-50352380D01*
X120571428Y-50400000D01*
X120619047Y-50447619D01*
X120666666Y-50542857D01*
X120666666Y-50590476D01*
X120619047Y-50685714D01*
X120571428Y-50733333D01*
X120476190Y-50780952D01*
X120285714Y-50780952D01*
X120190476Y-50828571D01*
X120142857Y-50876190D01*
X120095238Y-50971428D01*
X120095238Y-51161904D01*
X120142857Y-51257142D01*
X120190476Y-51304761D01*
X120285714Y-51352380D01*
X120476190Y-51352380D01*
X120571428Y-51304761D01*
X120619047Y-51257142D01*
X120666666Y-51161904D01*
X120666666Y-50971428D01*
X120619047Y-50876190D01*
X120571428Y-50828571D01*
X120476190Y-50780952D01*
X119666666Y-36862380D02*
X119666666Y-37576666D01*
X119619047Y-37719523D01*
X119523809Y-37814761D01*
X119380952Y-37862380D01*
X119285714Y-37862380D01*
X120190476Y-37862380D02*
X120380952Y-37862380D01*
X120476190Y-37814761D01*
X120523809Y-37767142D01*
X120619047Y-37624285D01*
X120666666Y-37433809D01*
X120666666Y-37052857D01*
X120619047Y-36957619D01*
X120571428Y-36910000D01*
X120476190Y-36862380D01*
X120285714Y-36862380D01*
X120190476Y-36910000D01*
X120142857Y-36957619D01*
X120095238Y-37052857D01*
X120095238Y-37290952D01*
X120142857Y-37386190D01*
X120190476Y-37433809D01*
X120285714Y-37481428D01*
X120476190Y-37481428D01*
X120571428Y-37433809D01*
X120619047Y-37386190D01*
X120666666Y-37290952D01*
X102092380Y-30781523D02*
X102806666Y-30781523D01*
X102949523Y-30829142D01*
X103044761Y-30924380D01*
X103092380Y-31067238D01*
X103092380Y-31162476D01*
X103092380Y-29781523D02*
X103092380Y-30352952D01*
X103092380Y-30067238D02*
X102092380Y-30067238D01*
X102235238Y-30162476D01*
X102330476Y-30257714D01*
X102378095Y-30352952D01*
X102092380Y-29162476D02*
X102092380Y-29067238D01*
X102140000Y-28972000D01*
X102187619Y-28924380D01*
X102282857Y-28876761D01*
X102473333Y-28829142D01*
X102711428Y-28829142D01*
X102901904Y-28876761D01*
X102997142Y-28924380D01*
X103044761Y-28972000D01*
X103092380Y-29067238D01*
X103092380Y-29162476D01*
X103044761Y-29257714D01*
X102997142Y-29305333D01*
X102901904Y-29352952D01*
X102711428Y-29400571D01*
X102473333Y-29400571D01*
X102282857Y-29352952D01*
X102187619Y-29305333D01*
X102140000Y-29257714D01*
X102092380Y-29162476D01*
X88602380Y-30781523D02*
X89316666Y-30781523D01*
X89459523Y-30829142D01*
X89554761Y-30924380D01*
X89602380Y-31067238D01*
X89602380Y-31162476D01*
X89602380Y-29781523D02*
X89602380Y-30352952D01*
X89602380Y-30067238D02*
X88602380Y-30067238D01*
X88745238Y-30162476D01*
X88840476Y-30257714D01*
X88888095Y-30352952D01*
X89602380Y-28829142D02*
X89602380Y-29400571D01*
X89602380Y-29114857D02*
X88602380Y-29114857D01*
X88745238Y-29210095D01*
X88840476Y-29305333D01*
X88888095Y-29400571D01*
X115798380Y-85626666D02*
X115322190Y-85960000D01*
X115798380Y-86198095D02*
X114798380Y-86198095D01*
X114798380Y-85817142D01*
X114846000Y-85721904D01*
X114893619Y-85674285D01*
X114988857Y-85626666D01*
X115131714Y-85626666D01*
X115226952Y-85674285D01*
X115274571Y-85721904D01*
X115322190Y-85817142D01*
X115322190Y-86198095D01*
X114893619Y-85245714D02*
X114846000Y-85198095D01*
X114798380Y-85102857D01*
X114798380Y-84864761D01*
X114846000Y-84769523D01*
X114893619Y-84721904D01*
X114988857Y-84674285D01*
X115084095Y-84674285D01*
X115226952Y-84721904D01*
X115798380Y-85293333D01*
X115798380Y-84674285D01*
X115798380Y-80292666D02*
X115322190Y-80626000D01*
X115798380Y-80864095D02*
X114798380Y-80864095D01*
X114798380Y-80483142D01*
X114846000Y-80387904D01*
X114893619Y-80340285D01*
X114988857Y-80292666D01*
X115131714Y-80292666D01*
X115226952Y-80340285D01*
X115274571Y-80387904D01*
X115322190Y-80483142D01*
X115322190Y-80864095D01*
X114798380Y-79959333D02*
X114798380Y-79340285D01*
X115179333Y-79673619D01*
X115179333Y-79530761D01*
X115226952Y-79435523D01*
X115274571Y-79387904D01*
X115369809Y-79340285D01*
X115607904Y-79340285D01*
X115703142Y-79387904D01*
X115750761Y-79435523D01*
X115798380Y-79530761D01*
X115798380Y-79816476D01*
X115750761Y-79911714D01*
X115703142Y-79959333D01*
X115798380Y-72086666D02*
X115322190Y-72420000D01*
X115798380Y-72658095D02*
X114798380Y-72658095D01*
X114798380Y-72277142D01*
X114846000Y-72181904D01*
X114893619Y-72134285D01*
X114988857Y-72086666D01*
X115131714Y-72086666D01*
X115226952Y-72134285D01*
X115274571Y-72181904D01*
X115322190Y-72277142D01*
X115322190Y-72658095D01*
X115131714Y-71229523D02*
X115798380Y-71229523D01*
X114750761Y-71467619D02*
X115465047Y-71705714D01*
X115465047Y-71086666D01*
X115798380Y-66736666D02*
X115322190Y-67070000D01*
X115798380Y-67308095D02*
X114798380Y-67308095D01*
X114798380Y-66927142D01*
X114846000Y-66831904D01*
X114893619Y-66784285D01*
X114988857Y-66736666D01*
X115131714Y-66736666D01*
X115226952Y-66784285D01*
X115274571Y-66831904D01*
X115322190Y-66927142D01*
X115322190Y-67308095D01*
X114798380Y-65831904D02*
X114798380Y-66308095D01*
X115274571Y-66355714D01*
X115226952Y-66308095D01*
X115179333Y-66212857D01*
X115179333Y-65974761D01*
X115226952Y-65879523D01*
X115274571Y-65831904D01*
X115369809Y-65784285D01*
X115607904Y-65784285D01*
X115703142Y-65831904D01*
X115750761Y-65879523D01*
X115798380Y-65974761D01*
X115798380Y-66212857D01*
X115750761Y-66308095D01*
X115703142Y-66355714D01*
X70191333Y-42616380D02*
X69858000Y-42140190D01*
X69619904Y-42616380D02*
X69619904Y-41616380D01*
X70000857Y-41616380D01*
X70096095Y-41664000D01*
X70143714Y-41711619D01*
X70191333Y-41806857D01*
X70191333Y-41949714D01*
X70143714Y-42044952D01*
X70096095Y-42092571D01*
X70000857Y-42140190D01*
X69619904Y-42140190D01*
X71048476Y-41616380D02*
X70858000Y-41616380D01*
X70762761Y-41664000D01*
X70715142Y-41711619D01*
X70619904Y-41854476D01*
X70572285Y-42044952D01*
X70572285Y-42425904D01*
X70619904Y-42521142D01*
X70667523Y-42568761D01*
X70762761Y-42616380D01*
X70953238Y-42616380D01*
X71048476Y-42568761D01*
X71096095Y-42521142D01*
X71143714Y-42425904D01*
X71143714Y-42187809D01*
X71096095Y-42092571D01*
X71048476Y-42044952D01*
X70953238Y-41997333D01*
X70762761Y-41997333D01*
X70667523Y-42044952D01*
X70619904Y-42092571D01*
X70572285Y-42187809D01*
X75382380Y-46458166D02*
X74906190Y-46791500D01*
X75382380Y-47029595D02*
X74382380Y-47029595D01*
X74382380Y-46648642D01*
X74430000Y-46553404D01*
X74477619Y-46505785D01*
X74572857Y-46458166D01*
X74715714Y-46458166D01*
X74810952Y-46505785D01*
X74858571Y-46553404D01*
X74906190Y-46648642D01*
X74906190Y-47029595D01*
X74382380Y-46124833D02*
X74382380Y-45458166D01*
X75382380Y-45886738D01*
X115798380Y-58590666D02*
X115322190Y-58924000D01*
X115798380Y-59162095D02*
X114798380Y-59162095D01*
X114798380Y-58781142D01*
X114846000Y-58685904D01*
X114893619Y-58638285D01*
X114988857Y-58590666D01*
X115131714Y-58590666D01*
X115226952Y-58638285D01*
X115274571Y-58685904D01*
X115322190Y-58781142D01*
X115322190Y-59162095D01*
X115226952Y-58019238D02*
X115179333Y-58114476D01*
X115131714Y-58162095D01*
X115036476Y-58209714D01*
X114988857Y-58209714D01*
X114893619Y-58162095D01*
X114846000Y-58114476D01*
X114798380Y-58019238D01*
X114798380Y-57828761D01*
X114846000Y-57733523D01*
X114893619Y-57685904D01*
X114988857Y-57638285D01*
X115036476Y-57638285D01*
X115131714Y-57685904D01*
X115179333Y-57733523D01*
X115226952Y-57828761D01*
X115226952Y-58019238D01*
X115274571Y-58114476D01*
X115322190Y-58162095D01*
X115417428Y-58209714D01*
X115607904Y-58209714D01*
X115703142Y-58162095D01*
X115750761Y-58114476D01*
X115798380Y-58019238D01*
X115798380Y-57828761D01*
X115750761Y-57733523D01*
X115703142Y-57685904D01*
X115607904Y-57638285D01*
X115417428Y-57638285D01*
X115322190Y-57685904D01*
X115274571Y-57733523D01*
X115226952Y-57828761D01*
X115798380Y-53246666D02*
X115322190Y-53580000D01*
X115798380Y-53818095D02*
X114798380Y-53818095D01*
X114798380Y-53437142D01*
X114846000Y-53341904D01*
X114893619Y-53294285D01*
X114988857Y-53246666D01*
X115131714Y-53246666D01*
X115226952Y-53294285D01*
X115274571Y-53341904D01*
X115322190Y-53437142D01*
X115322190Y-53818095D01*
X115798380Y-52770476D02*
X115798380Y-52580000D01*
X115750761Y-52484761D01*
X115703142Y-52437142D01*
X115560285Y-52341904D01*
X115369809Y-52294285D01*
X114988857Y-52294285D01*
X114893619Y-52341904D01*
X114846000Y-52389523D01*
X114798380Y-52484761D01*
X114798380Y-52675238D01*
X114846000Y-52770476D01*
X114893619Y-52818095D01*
X114988857Y-52865714D01*
X115226952Y-52865714D01*
X115322190Y-52818095D01*
X115369809Y-52770476D01*
X115417428Y-52675238D01*
X115417428Y-52484761D01*
X115369809Y-52389523D01*
X115322190Y-52341904D01*
X115226952Y-52294285D01*
X115798380Y-45582857D02*
X115322190Y-45916190D01*
X115798380Y-46154285D02*
X114798380Y-46154285D01*
X114798380Y-45773333D01*
X114846000Y-45678095D01*
X114893619Y-45630476D01*
X114988857Y-45582857D01*
X115131714Y-45582857D01*
X115226952Y-45630476D01*
X115274571Y-45678095D01*
X115322190Y-45773333D01*
X115322190Y-46154285D01*
X115798380Y-44630476D02*
X115798380Y-45201904D01*
X115798380Y-44916190D02*
X114798380Y-44916190D01*
X114941238Y-45011428D01*
X115036476Y-45106666D01*
X115084095Y-45201904D01*
X114798380Y-44011428D02*
X114798380Y-43916190D01*
X114846000Y-43820952D01*
X114893619Y-43773333D01*
X114988857Y-43725714D01*
X115179333Y-43678095D01*
X115417428Y-43678095D01*
X115607904Y-43725714D01*
X115703142Y-43773333D01*
X115750761Y-43820952D01*
X115798380Y-43916190D01*
X115798380Y-44011428D01*
X115750761Y-44106666D01*
X115703142Y-44154285D01*
X115607904Y-44201904D01*
X115417428Y-44249523D01*
X115179333Y-44249523D01*
X114988857Y-44201904D01*
X114893619Y-44154285D01*
X114846000Y-44106666D01*
X114798380Y-44011428D01*
X115798380Y-40214857D02*
X115322190Y-40548190D01*
X115798380Y-40786285D02*
X114798380Y-40786285D01*
X114798380Y-40405333D01*
X114846000Y-40310095D01*
X114893619Y-40262476D01*
X114988857Y-40214857D01*
X115131714Y-40214857D01*
X115226952Y-40262476D01*
X115274571Y-40310095D01*
X115322190Y-40405333D01*
X115322190Y-40786285D01*
X115798380Y-39262476D02*
X115798380Y-39833904D01*
X115798380Y-39548190D02*
X114798380Y-39548190D01*
X114941238Y-39643428D01*
X115036476Y-39738666D01*
X115084095Y-39833904D01*
X115798380Y-38310095D02*
X115798380Y-38881523D01*
X115798380Y-38595809D02*
X114798380Y-38595809D01*
X114941238Y-38691047D01*
X115036476Y-38786285D01*
X115084095Y-38881523D01*
X104417142Y-34996380D02*
X104083809Y-34520190D01*
X103845714Y-34996380D02*
X103845714Y-33996380D01*
X104226666Y-33996380D01*
X104321904Y-34044000D01*
X104369523Y-34091619D01*
X104417142Y-34186857D01*
X104417142Y-34329714D01*
X104369523Y-34424952D01*
X104321904Y-34472571D01*
X104226666Y-34520190D01*
X103845714Y-34520190D01*
X105369523Y-34996380D02*
X104798095Y-34996380D01*
X105083809Y-34996380D02*
X105083809Y-33996380D01*
X104988571Y-34139238D01*
X104893333Y-34234476D01*
X104798095Y-34282095D01*
X105750476Y-34091619D02*
X105798095Y-34044000D01*
X105893333Y-33996380D01*
X106131428Y-33996380D01*
X106226666Y-34044000D01*
X106274285Y-34091619D01*
X106321904Y-34186857D01*
X106321904Y-34282095D01*
X106274285Y-34424952D01*
X105702857Y-34996380D01*
X106321904Y-34996380D01*
X109767142Y-34996380D02*
X109433809Y-34520190D01*
X109195714Y-34996380D02*
X109195714Y-33996380D01*
X109576666Y-33996380D01*
X109671904Y-34044000D01*
X109719523Y-34091619D01*
X109767142Y-34186857D01*
X109767142Y-34329714D01*
X109719523Y-34424952D01*
X109671904Y-34472571D01*
X109576666Y-34520190D01*
X109195714Y-34520190D01*
X110719523Y-34996380D02*
X110148095Y-34996380D01*
X110433809Y-34996380D02*
X110433809Y-33996380D01*
X110338571Y-34139238D01*
X110243333Y-34234476D01*
X110148095Y-34282095D01*
X111052857Y-33996380D02*
X111671904Y-33996380D01*
X111338571Y-34377333D01*
X111481428Y-34377333D01*
X111576666Y-34424952D01*
X111624285Y-34472571D01*
X111671904Y-34567809D01*
X111671904Y-34805904D01*
X111624285Y-34901142D01*
X111576666Y-34948761D01*
X111481428Y-34996380D01*
X111195714Y-34996380D01*
X111100476Y-34948761D01*
X111052857Y-34901142D01*
X90927142Y-34996380D02*
X90593809Y-34520190D01*
X90355714Y-34996380D02*
X90355714Y-33996380D01*
X90736666Y-33996380D01*
X90831904Y-34044000D01*
X90879523Y-34091619D01*
X90927142Y-34186857D01*
X90927142Y-34329714D01*
X90879523Y-34424952D01*
X90831904Y-34472571D01*
X90736666Y-34520190D01*
X90355714Y-34520190D01*
X91879523Y-34996380D02*
X91308095Y-34996380D01*
X91593809Y-34996380D02*
X91593809Y-33996380D01*
X91498571Y-34139238D01*
X91403333Y-34234476D01*
X91308095Y-34282095D01*
X92736666Y-34329714D02*
X92736666Y-34996380D01*
X92498571Y-33948761D02*
X92260476Y-34663047D01*
X92879523Y-34663047D01*
X96277142Y-34996380D02*
X95943809Y-34520190D01*
X95705714Y-34996380D02*
X95705714Y-33996380D01*
X96086666Y-33996380D01*
X96181904Y-34044000D01*
X96229523Y-34091619D01*
X96277142Y-34186857D01*
X96277142Y-34329714D01*
X96229523Y-34424952D01*
X96181904Y-34472571D01*
X96086666Y-34520190D01*
X95705714Y-34520190D01*
X97229523Y-34996380D02*
X96658095Y-34996380D01*
X96943809Y-34996380D02*
X96943809Y-33996380D01*
X96848571Y-34139238D01*
X96753333Y-34234476D01*
X96658095Y-34282095D01*
X98134285Y-33996380D02*
X97658095Y-33996380D01*
X97610476Y-34472571D01*
X97658095Y-34424952D01*
X97753333Y-34377333D01*
X97991428Y-34377333D01*
X98086666Y-34424952D01*
X98134285Y-34472571D01*
X98181904Y-34567809D01*
X98181904Y-34805904D01*
X98134285Y-34901142D01*
X98086666Y-34948761D01*
X97991428Y-34996380D01*
X97753333Y-34996380D01*
X97658095Y-34948761D01*
X97610476Y-34901142D01*
X79367142Y-45156380D02*
X79033809Y-44680190D01*
X78795714Y-45156380D02*
X78795714Y-44156380D01*
X79176666Y-44156380D01*
X79271904Y-44204000D01*
X79319523Y-44251619D01*
X79367142Y-44346857D01*
X79367142Y-44489714D01*
X79319523Y-44584952D01*
X79271904Y-44632571D01*
X79176666Y-44680190D01*
X78795714Y-44680190D01*
X80319523Y-45156380D02*
X79748095Y-45156380D01*
X80033809Y-45156380D02*
X80033809Y-44156380D01*
X79938571Y-44299238D01*
X79843333Y-44394476D01*
X79748095Y-44442095D01*
X81176666Y-44156380D02*
X80986190Y-44156380D01*
X80890952Y-44204000D01*
X80843333Y-44251619D01*
X80748095Y-44394476D01*
X80700476Y-44584952D01*
X80700476Y-44965904D01*
X80748095Y-45061142D01*
X80795714Y-45108761D01*
X80890952Y-45156380D01*
X81081428Y-45156380D01*
X81176666Y-45108761D01*
X81224285Y-45061142D01*
X81271904Y-44965904D01*
X81271904Y-44727809D01*
X81224285Y-44632571D01*
X81176666Y-44584952D01*
X81081428Y-44537333D01*
X80890952Y-44537333D01*
X80795714Y-44584952D01*
X80748095Y-44632571D01*
X80700476Y-44727809D01*
X79367142Y-48712380D02*
X79033809Y-48236190D01*
X78795714Y-48712380D02*
X78795714Y-47712380D01*
X79176666Y-47712380D01*
X79271904Y-47760000D01*
X79319523Y-47807619D01*
X79367142Y-47902857D01*
X79367142Y-48045714D01*
X79319523Y-48140952D01*
X79271904Y-48188571D01*
X79176666Y-48236190D01*
X78795714Y-48236190D01*
X80319523Y-48712380D02*
X79748095Y-48712380D01*
X80033809Y-48712380D02*
X80033809Y-47712380D01*
X79938571Y-47855238D01*
X79843333Y-47950476D01*
X79748095Y-47998095D01*
X80652857Y-47712380D02*
X81319523Y-47712380D01*
X80890952Y-48712380D01*
X89400142Y-77033380D02*
X89066809Y-76557190D01*
X88828714Y-77033380D02*
X88828714Y-76033380D01*
X89209666Y-76033380D01*
X89304904Y-76081000D01*
X89352523Y-76128619D01*
X89400142Y-76223857D01*
X89400142Y-76366714D01*
X89352523Y-76461952D01*
X89304904Y-76509571D01*
X89209666Y-76557190D01*
X88828714Y-76557190D01*
X90352523Y-77033380D02*
X89781095Y-77033380D01*
X90066809Y-77033380D02*
X90066809Y-76033380D01*
X89971571Y-76176238D01*
X89876333Y-76271476D01*
X89781095Y-76319095D01*
X90923952Y-76461952D02*
X90828714Y-76414333D01*
X90781095Y-76366714D01*
X90733476Y-76271476D01*
X90733476Y-76223857D01*
X90781095Y-76128619D01*
X90828714Y-76081000D01*
X90923952Y-76033380D01*
X91114428Y-76033380D01*
X91209666Y-76081000D01*
X91257285Y-76128619D01*
X91304904Y-76223857D01*
X91304904Y-76271476D01*
X91257285Y-76366714D01*
X91209666Y-76414333D01*
X91114428Y-76461952D01*
X90923952Y-76461952D01*
X90828714Y-76509571D01*
X90781095Y-76557190D01*
X90733476Y-76652428D01*
X90733476Y-76842904D01*
X90781095Y-76938142D01*
X90828714Y-76985761D01*
X90923952Y-77033380D01*
X91114428Y-77033380D01*
X91209666Y-76985761D01*
X91257285Y-76938142D01*
X91304904Y-76842904D01*
X91304904Y-76652428D01*
X91257285Y-76557190D01*
X91209666Y-76509571D01*
X91114428Y-76461952D01*
X93483095Y-48982380D02*
X93483095Y-49791904D01*
X93530714Y-49887142D01*
X93578333Y-49934761D01*
X93673571Y-49982380D01*
X93864047Y-49982380D01*
X93959285Y-49934761D01*
X94006904Y-49887142D01*
X94054523Y-49791904D01*
X94054523Y-48982380D01*
X95054523Y-49982380D02*
X94483095Y-49982380D01*
X94768809Y-49982380D02*
X94768809Y-48982380D01*
X94673571Y-49125238D01*
X94578333Y-49220476D01*
X94483095Y-49268095D01*
X72644095Y-48474380D02*
X72644095Y-49283904D01*
X72691714Y-49379142D01*
X72739333Y-49426761D01*
X72834571Y-49474380D01*
X73025047Y-49474380D01*
X73120285Y-49426761D01*
X73167904Y-49379142D01*
X73215523Y-49283904D01*
X73215523Y-48474380D01*
X73644095Y-48569619D02*
X73691714Y-48522000D01*
X73786952Y-48474380D01*
X74025047Y-48474380D01*
X74120285Y-48522000D01*
X74167904Y-48569619D01*
X74215523Y-48664857D01*
X74215523Y-48760095D01*
X74167904Y-48902952D01*
X73596476Y-49474380D01*
X74215523Y-49474380D01*
X88352380Y-46989904D02*
X89161904Y-46989904D01*
X89257142Y-46942285D01*
X89304761Y-46894666D01*
X89352380Y-46799428D01*
X89352380Y-46608952D01*
X89304761Y-46513714D01*
X89257142Y-46466095D01*
X89161904Y-46418476D01*
X88352380Y-46418476D01*
X88352380Y-46037523D02*
X88352380Y-45418476D01*
X88733333Y-45751809D01*
X88733333Y-45608952D01*
X88780952Y-45513714D01*
X88828571Y-45466095D01*
X88923809Y-45418476D01*
X89161904Y-45418476D01*
X89257142Y-45466095D01*
X89304761Y-45513714D01*
X89352380Y-45608952D01*
X89352380Y-45894666D01*
X89304761Y-45989904D01*
X89257142Y-46037523D01*
X91952380Y-91905523D02*
X92666666Y-91905523D01*
X92809523Y-91953142D01*
X92904761Y-92048380D01*
X92952380Y-92191238D01*
X92952380Y-92286476D01*
X92952380Y-90905523D02*
X92952380Y-91476952D01*
X92952380Y-91191238D02*
X91952380Y-91191238D01*
X92095238Y-91286476D01*
X92190476Y-91381714D01*
X92238095Y-91476952D01*
X92047619Y-90524571D02*
X92000000Y-90476952D01*
X91952380Y-90381714D01*
X91952380Y-90143619D01*
X92000000Y-90048380D01*
X92047619Y-90000761D01*
X92142857Y-89953142D01*
X92238095Y-89953142D01*
X92380952Y-90000761D01*
X92952380Y-90572190D01*
X92952380Y-89953142D01*
X88462142Y-59475666D02*
X88509761Y-59523285D01*
X88557380Y-59666142D01*
X88557380Y-59761380D01*
X88509761Y-59904238D01*
X88414523Y-59999476D01*
X88319285Y-60047095D01*
X88128809Y-60094714D01*
X87985952Y-60094714D01*
X87795476Y-60047095D01*
X87700238Y-59999476D01*
X87605000Y-59904238D01*
X87557380Y-59761380D01*
X87557380Y-59666142D01*
X87605000Y-59523285D01*
X87652619Y-59475666D01*
X87557380Y-58570904D02*
X87557380Y-59047095D01*
X88033571Y-59094714D01*
X87985952Y-59047095D01*
X87938333Y-58951857D01*
X87938333Y-58713761D01*
X87985952Y-58618523D01*
X88033571Y-58570904D01*
X88128809Y-58523285D01*
X88366904Y-58523285D01*
X88462142Y-58570904D01*
X88509761Y-58618523D01*
X88557380Y-58713761D01*
X88557380Y-58951857D01*
X88509761Y-59047095D01*
X88462142Y-59094714D01*
M02*
