G04 #@! TF.GenerationSoftware,KiCad,Pcbnew,5.1.9-73d0e3b20d~88~ubuntu20.04.1*
G04 #@! TF.CreationDate,2020-12-30T12:03:23-07:00*
G04 #@! TF.ProjectId,Motherboard,4d6f7468-6572-4626-9f61-72642e6b6963,rev?*
G04 #@! TF.SameCoordinates,Original*
G04 #@! TF.FileFunction,Paste,Top*
G04 #@! TF.FilePolarity,Positive*
%FSLAX46Y46*%
G04 Gerber Fmt 4.6, Leading zero omitted, Abs format (unit mm)*
G04 Created by KiCad (PCBNEW 5.1.9-73d0e3b20d~88~ubuntu20.04.1) date 2020-12-30 12:03:23*
%MOMM*%
%LPD*%
G01*
G04 APERTURE LIST*
%ADD10R,0.350000X0.500000*%
%ADD11R,1.600000X0.700000*%
G04 APERTURE END LIST*
G36*
G01*
X93595000Y-61738500D02*
X93595000Y-62213500D01*
G75*
G02*
X93357500Y-62451000I-237500J0D01*
G01*
X92782500Y-62451000D01*
G75*
G02*
X92545000Y-62213500I0J237500D01*
G01*
X92545000Y-61738500D01*
G75*
G02*
X92782500Y-61501000I237500J0D01*
G01*
X93357500Y-61501000D01*
G75*
G02*
X93595000Y-61738500I0J-237500D01*
G01*
G37*
G36*
G01*
X91845000Y-61738500D02*
X91845000Y-62213500D01*
G75*
G02*
X91607500Y-62451000I-237500J0D01*
G01*
X91032500Y-62451000D01*
G75*
G02*
X90795000Y-62213500I0J237500D01*
G01*
X90795000Y-61738500D01*
G75*
G02*
X91032500Y-61501000I237500J0D01*
G01*
X91607500Y-61501000D01*
G75*
G02*
X91845000Y-61738500I0J-237500D01*
G01*
G37*
G36*
G01*
X67437500Y-45941500D02*
X66962500Y-45941500D01*
G75*
G02*
X66725000Y-45704000I0J237500D01*
G01*
X66725000Y-45129000D01*
G75*
G02*
X66962500Y-44891500I237500J0D01*
G01*
X67437500Y-44891500D01*
G75*
G02*
X67675000Y-45129000I0J-237500D01*
G01*
X67675000Y-45704000D01*
G75*
G02*
X67437500Y-45941500I-237500J0D01*
G01*
G37*
G36*
G01*
X67437500Y-47691500D02*
X66962500Y-47691500D01*
G75*
G02*
X66725000Y-47454000I0J237500D01*
G01*
X66725000Y-46879000D01*
G75*
G02*
X66962500Y-46641500I237500J0D01*
G01*
X67437500Y-46641500D01*
G75*
G02*
X67675000Y-46879000I0J-237500D01*
G01*
X67675000Y-47454000D01*
G75*
G02*
X67437500Y-47691500I-237500J0D01*
G01*
G37*
G36*
G01*
X68958000Y-49259500D02*
X68958000Y-48784500D01*
G75*
G02*
X69195500Y-48547000I237500J0D01*
G01*
X69770500Y-48547000D01*
G75*
G02*
X70008000Y-48784500I0J-237500D01*
G01*
X70008000Y-49259500D01*
G75*
G02*
X69770500Y-49497000I-237500J0D01*
G01*
X69195500Y-49497000D01*
G75*
G02*
X68958000Y-49259500I0J237500D01*
G01*
G37*
G36*
G01*
X70708000Y-49259500D02*
X70708000Y-48784500D01*
G75*
G02*
X70945500Y-48547000I237500J0D01*
G01*
X71520500Y-48547000D01*
G75*
G02*
X71758000Y-48784500I0J-237500D01*
G01*
X71758000Y-49259500D01*
G75*
G02*
X71520500Y-49497000I-237500J0D01*
G01*
X70945500Y-49497000D01*
G75*
G02*
X70708000Y-49259500I0J237500D01*
G01*
G37*
G36*
G01*
X82962000Y-46054000D02*
X82962000Y-46529000D01*
G75*
G02*
X82724500Y-46766500I-237500J0D01*
G01*
X82149500Y-46766500D01*
G75*
G02*
X81912000Y-46529000I0J237500D01*
G01*
X81912000Y-46054000D01*
G75*
G02*
X82149500Y-45816500I237500J0D01*
G01*
X82724500Y-45816500D01*
G75*
G02*
X82962000Y-46054000I0J-237500D01*
G01*
G37*
G36*
G01*
X84712000Y-46054000D02*
X84712000Y-46529000D01*
G75*
G02*
X84474500Y-46766500I-237500J0D01*
G01*
X83899500Y-46766500D01*
G75*
G02*
X83662000Y-46529000I0J237500D01*
G01*
X83662000Y-46054000D01*
G75*
G02*
X83899500Y-45816500I237500J0D01*
G01*
X84474500Y-45816500D01*
G75*
G02*
X84712000Y-46054000I0J-237500D01*
G01*
G37*
G36*
G01*
X56241500Y-90915500D02*
X56241500Y-90440500D01*
G75*
G02*
X56479000Y-90203000I237500J0D01*
G01*
X57054000Y-90203000D01*
G75*
G02*
X57291500Y-90440500I0J-237500D01*
G01*
X57291500Y-90915500D01*
G75*
G02*
X57054000Y-91153000I-237500J0D01*
G01*
X56479000Y-91153000D01*
G75*
G02*
X56241500Y-90915500I0J237500D01*
G01*
G37*
G36*
G01*
X54491500Y-90915500D02*
X54491500Y-90440500D01*
G75*
G02*
X54729000Y-90203000I237500J0D01*
G01*
X55304000Y-90203000D01*
G75*
G02*
X55541500Y-90440500I0J-237500D01*
G01*
X55541500Y-90915500D01*
G75*
G02*
X55304000Y-91153000I-237500J0D01*
G01*
X54729000Y-91153000D01*
G75*
G02*
X54491500Y-90915500I0J237500D01*
G01*
G37*
G36*
G01*
X82045000Y-78342500D02*
X82045000Y-77867500D01*
G75*
G02*
X82282500Y-77630000I237500J0D01*
G01*
X82857500Y-77630000D01*
G75*
G02*
X83095000Y-77867500I0J-237500D01*
G01*
X83095000Y-78342500D01*
G75*
G02*
X82857500Y-78580000I-237500J0D01*
G01*
X82282500Y-78580000D01*
G75*
G02*
X82045000Y-78342500I0J237500D01*
G01*
G37*
G36*
G01*
X83795000Y-78342500D02*
X83795000Y-77867500D01*
G75*
G02*
X84032500Y-77630000I237500J0D01*
G01*
X84607500Y-77630000D01*
G75*
G02*
X84845000Y-77867500I0J-237500D01*
G01*
X84845000Y-78342500D01*
G75*
G02*
X84607500Y-78580000I-237500J0D01*
G01*
X84032500Y-78580000D01*
G75*
G02*
X83795000Y-78342500I0J237500D01*
G01*
G37*
G36*
G01*
X117217500Y-85060000D02*
X116742500Y-85060000D01*
G75*
G02*
X116505000Y-84822500I0J237500D01*
G01*
X116505000Y-84247500D01*
G75*
G02*
X116742500Y-84010000I237500J0D01*
G01*
X117217500Y-84010000D01*
G75*
G02*
X117455000Y-84247500I0J-237500D01*
G01*
X117455000Y-84822500D01*
G75*
G02*
X117217500Y-85060000I-237500J0D01*
G01*
G37*
G36*
G01*
X117217500Y-86810000D02*
X116742500Y-86810000D01*
G75*
G02*
X116505000Y-86572500I0J237500D01*
G01*
X116505000Y-85997500D01*
G75*
G02*
X116742500Y-85760000I237500J0D01*
G01*
X117217500Y-85760000D01*
G75*
G02*
X117455000Y-85997500I0J-237500D01*
G01*
X117455000Y-86572500D01*
G75*
G02*
X117217500Y-86810000I-237500J0D01*
G01*
G37*
G36*
G01*
X117217500Y-79710000D02*
X116742500Y-79710000D01*
G75*
G02*
X116505000Y-79472500I0J237500D01*
G01*
X116505000Y-78897500D01*
G75*
G02*
X116742500Y-78660000I237500J0D01*
G01*
X117217500Y-78660000D01*
G75*
G02*
X117455000Y-78897500I0J-237500D01*
G01*
X117455000Y-79472500D01*
G75*
G02*
X117217500Y-79710000I-237500J0D01*
G01*
G37*
G36*
G01*
X117217500Y-81460000D02*
X116742500Y-81460000D01*
G75*
G02*
X116505000Y-81222500I0J237500D01*
G01*
X116505000Y-80647500D01*
G75*
G02*
X116742500Y-80410000I237500J0D01*
G01*
X117217500Y-80410000D01*
G75*
G02*
X117455000Y-80647500I0J-237500D01*
G01*
X117455000Y-81222500D01*
G75*
G02*
X117217500Y-81460000I-237500J0D01*
G01*
G37*
G36*
G01*
X117217500Y-73320000D02*
X116742500Y-73320000D01*
G75*
G02*
X116505000Y-73082500I0J237500D01*
G01*
X116505000Y-72507500D01*
G75*
G02*
X116742500Y-72270000I237500J0D01*
G01*
X117217500Y-72270000D01*
G75*
G02*
X117455000Y-72507500I0J-237500D01*
G01*
X117455000Y-73082500D01*
G75*
G02*
X117217500Y-73320000I-237500J0D01*
G01*
G37*
G36*
G01*
X117217500Y-71570000D02*
X116742500Y-71570000D01*
G75*
G02*
X116505000Y-71332500I0J237500D01*
G01*
X116505000Y-70757500D01*
G75*
G02*
X116742500Y-70520000I237500J0D01*
G01*
X117217500Y-70520000D01*
G75*
G02*
X117455000Y-70757500I0J-237500D01*
G01*
X117455000Y-71332500D01*
G75*
G02*
X117217500Y-71570000I-237500J0D01*
G01*
G37*
G36*
G01*
X117217500Y-66220000D02*
X116742500Y-66220000D01*
G75*
G02*
X116505000Y-65982500I0J237500D01*
G01*
X116505000Y-65407500D01*
G75*
G02*
X116742500Y-65170000I237500J0D01*
G01*
X117217500Y-65170000D01*
G75*
G02*
X117455000Y-65407500I0J-237500D01*
G01*
X117455000Y-65982500D01*
G75*
G02*
X117217500Y-66220000I-237500J0D01*
G01*
G37*
G36*
G01*
X117217500Y-67970000D02*
X116742500Y-67970000D01*
G75*
G02*
X116505000Y-67732500I0J237500D01*
G01*
X116505000Y-67157500D01*
G75*
G02*
X116742500Y-66920000I237500J0D01*
G01*
X117217500Y-66920000D01*
G75*
G02*
X117455000Y-67157500I0J-237500D01*
G01*
X117455000Y-67732500D01*
G75*
G02*
X117217500Y-67970000I-237500J0D01*
G01*
G37*
G36*
G01*
X70008000Y-43326500D02*
X70008000Y-43801500D01*
G75*
G02*
X69770500Y-44039000I-237500J0D01*
G01*
X69195500Y-44039000D01*
G75*
G02*
X68958000Y-43801500I0J237500D01*
G01*
X68958000Y-43326500D01*
G75*
G02*
X69195500Y-43089000I237500J0D01*
G01*
X69770500Y-43089000D01*
G75*
G02*
X70008000Y-43326500I0J-237500D01*
G01*
G37*
G36*
G01*
X71758000Y-43326500D02*
X71758000Y-43801500D01*
G75*
G02*
X71520500Y-44039000I-237500J0D01*
G01*
X70945500Y-44039000D01*
G75*
G02*
X70708000Y-43801500I0J237500D01*
G01*
X70708000Y-43326500D01*
G75*
G02*
X70945500Y-43089000I237500J0D01*
G01*
X71520500Y-43089000D01*
G75*
G02*
X71758000Y-43326500I0J-237500D01*
G01*
G37*
G36*
G01*
X73168500Y-44891500D02*
X73643500Y-44891500D01*
G75*
G02*
X73881000Y-45129000I0J-237500D01*
G01*
X73881000Y-45704000D01*
G75*
G02*
X73643500Y-45941500I-237500J0D01*
G01*
X73168500Y-45941500D01*
G75*
G02*
X72931000Y-45704000I0J237500D01*
G01*
X72931000Y-45129000D01*
G75*
G02*
X73168500Y-44891500I237500J0D01*
G01*
G37*
G36*
G01*
X73168500Y-46641500D02*
X73643500Y-46641500D01*
G75*
G02*
X73881000Y-46879000I0J-237500D01*
G01*
X73881000Y-47454000D01*
G75*
G02*
X73643500Y-47691500I-237500J0D01*
G01*
X73168500Y-47691500D01*
G75*
G02*
X72931000Y-47454000I0J237500D01*
G01*
X72931000Y-46879000D01*
G75*
G02*
X73168500Y-46641500I237500J0D01*
G01*
G37*
G36*
G01*
X117217500Y-59830000D02*
X116742500Y-59830000D01*
G75*
G02*
X116505000Y-59592500I0J237500D01*
G01*
X116505000Y-59017500D01*
G75*
G02*
X116742500Y-58780000I237500J0D01*
G01*
X117217500Y-58780000D01*
G75*
G02*
X117455000Y-59017500I0J-237500D01*
G01*
X117455000Y-59592500D01*
G75*
G02*
X117217500Y-59830000I-237500J0D01*
G01*
G37*
G36*
G01*
X117217500Y-58080000D02*
X116742500Y-58080000D01*
G75*
G02*
X116505000Y-57842500I0J237500D01*
G01*
X116505000Y-57267500D01*
G75*
G02*
X116742500Y-57030000I237500J0D01*
G01*
X117217500Y-57030000D01*
G75*
G02*
X117455000Y-57267500I0J-237500D01*
G01*
X117455000Y-57842500D01*
G75*
G02*
X117217500Y-58080000I-237500J0D01*
G01*
G37*
G36*
G01*
X117217500Y-52730000D02*
X116742500Y-52730000D01*
G75*
G02*
X116505000Y-52492500I0J237500D01*
G01*
X116505000Y-51917500D01*
G75*
G02*
X116742500Y-51680000I237500J0D01*
G01*
X117217500Y-51680000D01*
G75*
G02*
X117455000Y-51917500I0J-237500D01*
G01*
X117455000Y-52492500D01*
G75*
G02*
X117217500Y-52730000I-237500J0D01*
G01*
G37*
G36*
G01*
X117217500Y-54480000D02*
X116742500Y-54480000D01*
G75*
G02*
X116505000Y-54242500I0J237500D01*
G01*
X116505000Y-53667500D01*
G75*
G02*
X116742500Y-53430000I237500J0D01*
G01*
X117217500Y-53430000D01*
G75*
G02*
X117455000Y-53667500I0J-237500D01*
G01*
X117455000Y-54242500D01*
G75*
G02*
X117217500Y-54480000I-237500J0D01*
G01*
G37*
G36*
G01*
X117217500Y-46340000D02*
X116742500Y-46340000D01*
G75*
G02*
X116505000Y-46102500I0J237500D01*
G01*
X116505000Y-45527500D01*
G75*
G02*
X116742500Y-45290000I237500J0D01*
G01*
X117217500Y-45290000D01*
G75*
G02*
X117455000Y-45527500I0J-237500D01*
G01*
X117455000Y-46102500D01*
G75*
G02*
X117217500Y-46340000I-237500J0D01*
G01*
G37*
G36*
G01*
X117217500Y-44590000D02*
X116742500Y-44590000D01*
G75*
G02*
X116505000Y-44352500I0J237500D01*
G01*
X116505000Y-43777500D01*
G75*
G02*
X116742500Y-43540000I237500J0D01*
G01*
X117217500Y-43540000D01*
G75*
G02*
X117455000Y-43777500I0J-237500D01*
G01*
X117455000Y-44352500D01*
G75*
G02*
X117217500Y-44590000I-237500J0D01*
G01*
G37*
G36*
G01*
X117217500Y-40990000D02*
X116742500Y-40990000D01*
G75*
G02*
X116505000Y-40752500I0J237500D01*
G01*
X116505000Y-40177500D01*
G75*
G02*
X116742500Y-39940000I237500J0D01*
G01*
X117217500Y-39940000D01*
G75*
G02*
X117455000Y-40177500I0J-237500D01*
G01*
X117455000Y-40752500D01*
G75*
G02*
X117217500Y-40990000I-237500J0D01*
G01*
G37*
G36*
G01*
X117217500Y-39240000D02*
X116742500Y-39240000D01*
G75*
G02*
X116505000Y-39002500I0J237500D01*
G01*
X116505000Y-38427500D01*
G75*
G02*
X116742500Y-38190000I237500J0D01*
G01*
X117217500Y-38190000D01*
G75*
G02*
X117455000Y-38427500I0J-237500D01*
G01*
X117455000Y-39002500D01*
G75*
G02*
X117217500Y-39240000I-237500J0D01*
G01*
G37*
G36*
G01*
X105410000Y-33257500D02*
X105410000Y-32782500D01*
G75*
G02*
X105647500Y-32545000I237500J0D01*
G01*
X106222500Y-32545000D01*
G75*
G02*
X106460000Y-32782500I0J-237500D01*
G01*
X106460000Y-33257500D01*
G75*
G02*
X106222500Y-33495000I-237500J0D01*
G01*
X105647500Y-33495000D01*
G75*
G02*
X105410000Y-33257500I0J237500D01*
G01*
G37*
G36*
G01*
X103660000Y-33257500D02*
X103660000Y-32782500D01*
G75*
G02*
X103897500Y-32545000I237500J0D01*
G01*
X104472500Y-32545000D01*
G75*
G02*
X104710000Y-32782500I0J-237500D01*
G01*
X104710000Y-33257500D01*
G75*
G02*
X104472500Y-33495000I-237500J0D01*
G01*
X103897500Y-33495000D01*
G75*
G02*
X103660000Y-33257500I0J237500D01*
G01*
G37*
G36*
G01*
X110760000Y-33257500D02*
X110760000Y-32782500D01*
G75*
G02*
X110997500Y-32545000I237500J0D01*
G01*
X111572500Y-32545000D01*
G75*
G02*
X111810000Y-32782500I0J-237500D01*
G01*
X111810000Y-33257500D01*
G75*
G02*
X111572500Y-33495000I-237500J0D01*
G01*
X110997500Y-33495000D01*
G75*
G02*
X110760000Y-33257500I0J237500D01*
G01*
G37*
G36*
G01*
X109010000Y-33257500D02*
X109010000Y-32782500D01*
G75*
G02*
X109247500Y-32545000I237500J0D01*
G01*
X109822500Y-32545000D01*
G75*
G02*
X110060000Y-32782500I0J-237500D01*
G01*
X110060000Y-33257500D01*
G75*
G02*
X109822500Y-33495000I-237500J0D01*
G01*
X109247500Y-33495000D01*
G75*
G02*
X109010000Y-33257500I0J237500D01*
G01*
G37*
G36*
G01*
X91920000Y-33257500D02*
X91920000Y-32782500D01*
G75*
G02*
X92157500Y-32545000I237500J0D01*
G01*
X92732500Y-32545000D01*
G75*
G02*
X92970000Y-32782500I0J-237500D01*
G01*
X92970000Y-33257500D01*
G75*
G02*
X92732500Y-33495000I-237500J0D01*
G01*
X92157500Y-33495000D01*
G75*
G02*
X91920000Y-33257500I0J237500D01*
G01*
G37*
G36*
G01*
X90170000Y-33257500D02*
X90170000Y-32782500D01*
G75*
G02*
X90407500Y-32545000I237500J0D01*
G01*
X90982500Y-32545000D01*
G75*
G02*
X91220000Y-32782500I0J-237500D01*
G01*
X91220000Y-33257500D01*
G75*
G02*
X90982500Y-33495000I-237500J0D01*
G01*
X90407500Y-33495000D01*
G75*
G02*
X90170000Y-33257500I0J237500D01*
G01*
G37*
G36*
G01*
X95520000Y-33257500D02*
X95520000Y-32782500D01*
G75*
G02*
X95757500Y-32545000I237500J0D01*
G01*
X96332500Y-32545000D01*
G75*
G02*
X96570000Y-32782500I0J-237500D01*
G01*
X96570000Y-33257500D01*
G75*
G02*
X96332500Y-33495000I-237500J0D01*
G01*
X95757500Y-33495000D01*
G75*
G02*
X95520000Y-33257500I0J237500D01*
G01*
G37*
G36*
G01*
X97270000Y-33257500D02*
X97270000Y-32782500D01*
G75*
G02*
X97507500Y-32545000I237500J0D01*
G01*
X98082500Y-32545000D01*
G75*
G02*
X98320000Y-32782500I0J-237500D01*
G01*
X98320000Y-33257500D01*
G75*
G02*
X98082500Y-33495000I-237500J0D01*
G01*
X97507500Y-33495000D01*
G75*
G02*
X97270000Y-33257500I0J237500D01*
G01*
G37*
G36*
G01*
X84712000Y-44272500D02*
X84712000Y-44747500D01*
G75*
G02*
X84474500Y-44985000I-237500J0D01*
G01*
X83899500Y-44985000D01*
G75*
G02*
X83662000Y-44747500I0J237500D01*
G01*
X83662000Y-44272500D01*
G75*
G02*
X83899500Y-44035000I237500J0D01*
G01*
X84474500Y-44035000D01*
G75*
G02*
X84712000Y-44272500I0J-237500D01*
G01*
G37*
G36*
G01*
X82962000Y-44272500D02*
X82962000Y-44747500D01*
G75*
G02*
X82724500Y-44985000I-237500J0D01*
G01*
X82149500Y-44985000D01*
G75*
G02*
X81912000Y-44747500I0J237500D01*
G01*
X81912000Y-44272500D01*
G75*
G02*
X82149500Y-44035000I237500J0D01*
G01*
X82724500Y-44035000D01*
G75*
G02*
X82962000Y-44272500I0J-237500D01*
G01*
G37*
G36*
G01*
X84712000Y-47835500D02*
X84712000Y-48310500D01*
G75*
G02*
X84474500Y-48548000I-237500J0D01*
G01*
X83899500Y-48548000D01*
G75*
G02*
X83662000Y-48310500I0J237500D01*
G01*
X83662000Y-47835500D01*
G75*
G02*
X83899500Y-47598000I237500J0D01*
G01*
X84474500Y-47598000D01*
G75*
G02*
X84712000Y-47835500I0J-237500D01*
G01*
G37*
G36*
G01*
X82962000Y-47835500D02*
X82962000Y-48310500D01*
G75*
G02*
X82724500Y-48548000I-237500J0D01*
G01*
X82149500Y-48548000D01*
G75*
G02*
X81912000Y-48310500I0J237500D01*
G01*
X81912000Y-47835500D01*
G75*
G02*
X82149500Y-47598000I237500J0D01*
G01*
X82724500Y-47598000D01*
G75*
G02*
X82962000Y-47835500I0J-237500D01*
G01*
G37*
G36*
G01*
X89834000Y-77867500D02*
X89834000Y-78342500D01*
G75*
G02*
X89596500Y-78580000I-237500J0D01*
G01*
X89021500Y-78580000D01*
G75*
G02*
X88784000Y-78342500I0J237500D01*
G01*
X88784000Y-77867500D01*
G75*
G02*
X89021500Y-77630000I237500J0D01*
G01*
X89596500Y-77630000D01*
G75*
G02*
X89834000Y-77867500I0J-237500D01*
G01*
G37*
G36*
G01*
X91584000Y-77867500D02*
X91584000Y-78342500D01*
G75*
G02*
X91346500Y-78580000I-237500J0D01*
G01*
X90771500Y-78580000D01*
G75*
G02*
X90534000Y-78342500I0J237500D01*
G01*
X90534000Y-77867500D01*
G75*
G02*
X90771500Y-77630000I237500J0D01*
G01*
X91346500Y-77630000D01*
G75*
G02*
X91584000Y-77867500I0J-237500D01*
G01*
G37*
G36*
G01*
X97695000Y-60050000D02*
X97695000Y-60350000D01*
G75*
G02*
X97545000Y-60500000I-150000J0D01*
G01*
X95895000Y-60500000D01*
G75*
G02*
X95745000Y-60350000I0J150000D01*
G01*
X95745000Y-60050000D01*
G75*
G02*
X95895000Y-59900000I150000J0D01*
G01*
X97545000Y-59900000D01*
G75*
G02*
X97695000Y-60050000I0J-150000D01*
G01*
G37*
G36*
G01*
X97695000Y-58780000D02*
X97695000Y-59080000D01*
G75*
G02*
X97545000Y-59230000I-150000J0D01*
G01*
X95895000Y-59230000D01*
G75*
G02*
X95745000Y-59080000I0J150000D01*
G01*
X95745000Y-58780000D01*
G75*
G02*
X95895000Y-58630000I150000J0D01*
G01*
X97545000Y-58630000D01*
G75*
G02*
X97695000Y-58780000I0J-150000D01*
G01*
G37*
G36*
G01*
X97695000Y-57510000D02*
X97695000Y-57810000D01*
G75*
G02*
X97545000Y-57960000I-150000J0D01*
G01*
X95895000Y-57960000D01*
G75*
G02*
X95745000Y-57810000I0J150000D01*
G01*
X95745000Y-57510000D01*
G75*
G02*
X95895000Y-57360000I150000J0D01*
G01*
X97545000Y-57360000D01*
G75*
G02*
X97695000Y-57510000I0J-150000D01*
G01*
G37*
G36*
G01*
X97695000Y-56240000D02*
X97695000Y-56540000D01*
G75*
G02*
X97545000Y-56690000I-150000J0D01*
G01*
X95895000Y-56690000D01*
G75*
G02*
X95745000Y-56540000I0J150000D01*
G01*
X95745000Y-56240000D01*
G75*
G02*
X95895000Y-56090000I150000J0D01*
G01*
X97545000Y-56090000D01*
G75*
G02*
X97695000Y-56240000I0J-150000D01*
G01*
G37*
G36*
G01*
X97695000Y-54970000D02*
X97695000Y-55270000D01*
G75*
G02*
X97545000Y-55420000I-150000J0D01*
G01*
X95895000Y-55420000D01*
G75*
G02*
X95745000Y-55270000I0J150000D01*
G01*
X95745000Y-54970000D01*
G75*
G02*
X95895000Y-54820000I150000J0D01*
G01*
X97545000Y-54820000D01*
G75*
G02*
X97695000Y-54970000I0J-150000D01*
G01*
G37*
G36*
G01*
X97695000Y-53700000D02*
X97695000Y-54000000D01*
G75*
G02*
X97545000Y-54150000I-150000J0D01*
G01*
X95895000Y-54150000D01*
G75*
G02*
X95745000Y-54000000I0J150000D01*
G01*
X95745000Y-53700000D01*
G75*
G02*
X95895000Y-53550000I150000J0D01*
G01*
X97545000Y-53550000D01*
G75*
G02*
X97695000Y-53700000I0J-150000D01*
G01*
G37*
G36*
G01*
X97695000Y-52430000D02*
X97695000Y-52730000D01*
G75*
G02*
X97545000Y-52880000I-150000J0D01*
G01*
X95895000Y-52880000D01*
G75*
G02*
X95745000Y-52730000I0J150000D01*
G01*
X95745000Y-52430000D01*
G75*
G02*
X95895000Y-52280000I150000J0D01*
G01*
X97545000Y-52280000D01*
G75*
G02*
X97695000Y-52430000I0J-150000D01*
G01*
G37*
G36*
G01*
X97695000Y-51160000D02*
X97695000Y-51460000D01*
G75*
G02*
X97545000Y-51610000I-150000J0D01*
G01*
X95895000Y-51610000D01*
G75*
G02*
X95745000Y-51460000I0J150000D01*
G01*
X95745000Y-51160000D01*
G75*
G02*
X95895000Y-51010000I150000J0D01*
G01*
X97545000Y-51010000D01*
G75*
G02*
X97695000Y-51160000I0J-150000D01*
G01*
G37*
G36*
G01*
X92745000Y-51160000D02*
X92745000Y-51460000D01*
G75*
G02*
X92595000Y-51610000I-150000J0D01*
G01*
X90945000Y-51610000D01*
G75*
G02*
X90795000Y-51460000I0J150000D01*
G01*
X90795000Y-51160000D01*
G75*
G02*
X90945000Y-51010000I150000J0D01*
G01*
X92595000Y-51010000D01*
G75*
G02*
X92745000Y-51160000I0J-150000D01*
G01*
G37*
G36*
G01*
X92745000Y-52430000D02*
X92745000Y-52730000D01*
G75*
G02*
X92595000Y-52880000I-150000J0D01*
G01*
X90945000Y-52880000D01*
G75*
G02*
X90795000Y-52730000I0J150000D01*
G01*
X90795000Y-52430000D01*
G75*
G02*
X90945000Y-52280000I150000J0D01*
G01*
X92595000Y-52280000D01*
G75*
G02*
X92745000Y-52430000I0J-150000D01*
G01*
G37*
G36*
G01*
X92745000Y-53700000D02*
X92745000Y-54000000D01*
G75*
G02*
X92595000Y-54150000I-150000J0D01*
G01*
X90945000Y-54150000D01*
G75*
G02*
X90795000Y-54000000I0J150000D01*
G01*
X90795000Y-53700000D01*
G75*
G02*
X90945000Y-53550000I150000J0D01*
G01*
X92595000Y-53550000D01*
G75*
G02*
X92745000Y-53700000I0J-150000D01*
G01*
G37*
G36*
G01*
X92745000Y-54970000D02*
X92745000Y-55270000D01*
G75*
G02*
X92595000Y-55420000I-150000J0D01*
G01*
X90945000Y-55420000D01*
G75*
G02*
X90795000Y-55270000I0J150000D01*
G01*
X90795000Y-54970000D01*
G75*
G02*
X90945000Y-54820000I150000J0D01*
G01*
X92595000Y-54820000D01*
G75*
G02*
X92745000Y-54970000I0J-150000D01*
G01*
G37*
G36*
G01*
X92745000Y-56240000D02*
X92745000Y-56540000D01*
G75*
G02*
X92595000Y-56690000I-150000J0D01*
G01*
X90945000Y-56690000D01*
G75*
G02*
X90795000Y-56540000I0J150000D01*
G01*
X90795000Y-56240000D01*
G75*
G02*
X90945000Y-56090000I150000J0D01*
G01*
X92595000Y-56090000D01*
G75*
G02*
X92745000Y-56240000I0J-150000D01*
G01*
G37*
G36*
G01*
X92745000Y-57510000D02*
X92745000Y-57810000D01*
G75*
G02*
X92595000Y-57960000I-150000J0D01*
G01*
X90945000Y-57960000D01*
G75*
G02*
X90795000Y-57810000I0J150000D01*
G01*
X90795000Y-57510000D01*
G75*
G02*
X90945000Y-57360000I150000J0D01*
G01*
X92595000Y-57360000D01*
G75*
G02*
X92745000Y-57510000I0J-150000D01*
G01*
G37*
G36*
G01*
X92745000Y-58780000D02*
X92745000Y-59080000D01*
G75*
G02*
X92595000Y-59230000I-150000J0D01*
G01*
X90945000Y-59230000D01*
G75*
G02*
X90795000Y-59080000I0J150000D01*
G01*
X90795000Y-58780000D01*
G75*
G02*
X90945000Y-58630000I150000J0D01*
G01*
X92595000Y-58630000D01*
G75*
G02*
X92745000Y-58780000I0J-150000D01*
G01*
G37*
G36*
G01*
X92745000Y-60050000D02*
X92745000Y-60350000D01*
G75*
G02*
X92595000Y-60500000I-150000J0D01*
G01*
X90945000Y-60500000D01*
G75*
G02*
X90795000Y-60350000I0J150000D01*
G01*
X90795000Y-60050000D01*
G75*
G02*
X90945000Y-59900000I150000J0D01*
G01*
X92595000Y-59900000D01*
G75*
G02*
X92745000Y-60050000I0J-150000D01*
G01*
G37*
D10*
X71278000Y-45266500D03*
X70628000Y-45266500D03*
X69978000Y-45266500D03*
X69328000Y-45266500D03*
X69328000Y-47316500D03*
X69978000Y-47316500D03*
X70628000Y-47316500D03*
X71278000Y-47316500D03*
D11*
X86860000Y-46863000D03*
X86860000Y-48133000D03*
X86860000Y-45593000D03*
X86860000Y-44323000D03*
G36*
G01*
X89772500Y-60709000D02*
X89297500Y-60709000D01*
G75*
G02*
X89060000Y-60471500I0J237500D01*
G01*
X89060000Y-59871500D01*
G75*
G02*
X89297500Y-59634000I237500J0D01*
G01*
X89772500Y-59634000D01*
G75*
G02*
X90010000Y-59871500I0J-237500D01*
G01*
X90010000Y-60471500D01*
G75*
G02*
X89772500Y-60709000I-237500J0D01*
G01*
G37*
G36*
G01*
X89772500Y-58984000D02*
X89297500Y-58984000D01*
G75*
G02*
X89060000Y-58746500I0J237500D01*
G01*
X89060000Y-58146500D01*
G75*
G02*
X89297500Y-57909000I237500J0D01*
G01*
X89772500Y-57909000D01*
G75*
G02*
X90010000Y-58146500I0J-237500D01*
G01*
X90010000Y-58746500D01*
G75*
G02*
X89772500Y-58984000I-237500J0D01*
G01*
G37*
M02*
