G04 #@! TF.GenerationSoftware,KiCad,Pcbnew,(5.1.4-0-10_14)*
G04 #@! TF.CreationDate,2020-12-30T10:53:35-07:00*
G04 #@! TF.ProjectId,Motherboard,4d6f7468-6572-4626-9f61-72642e6b6963,rev?*
G04 #@! TF.SameCoordinates,Original*
G04 #@! TF.FileFunction,Soldermask,Bot*
G04 #@! TF.FilePolarity,Negative*
%FSLAX46Y46*%
G04 Gerber Fmt 4.6, Leading zero omitted, Abs format (unit mm)*
G04 Created by KiCad (PCBNEW (5.1.4-0-10_14)) date 2020-12-30 10:53:35*
%MOMM*%
%LPD*%
G04 APERTURE LIST*
%ADD10C,0.100000*%
G04 APERTURE END LIST*
D10*
G36*
X120846189Y-92210483D02*
G01*
X120846192Y-92210484D01*
X120846191Y-92210484D01*
X121374139Y-92429167D01*
X121849280Y-92746646D01*
X122253354Y-93150720D01*
X122570833Y-93625861D01*
X122570834Y-93625863D01*
X122789517Y-94153811D01*
X122901000Y-94714275D01*
X122901000Y-95285725D01*
X122789517Y-95846189D01*
X122774500Y-95882443D01*
X122570833Y-96374139D01*
X122253354Y-96849280D01*
X121849280Y-97253354D01*
X121374139Y-97570833D01*
X121374138Y-97570834D01*
X121374137Y-97570834D01*
X120846189Y-97789517D01*
X120285725Y-97901000D01*
X119714275Y-97901000D01*
X119153811Y-97789517D01*
X118625863Y-97570834D01*
X118625862Y-97570834D01*
X118625861Y-97570833D01*
X118150720Y-97253354D01*
X117746646Y-96849280D01*
X117429167Y-96374139D01*
X117225500Y-95882443D01*
X117210483Y-95846189D01*
X117099000Y-95285725D01*
X117099000Y-94714275D01*
X117210483Y-94153811D01*
X117429166Y-93625863D01*
X117429167Y-93625861D01*
X117746646Y-93150720D01*
X118150720Y-92746646D01*
X118625861Y-92429167D01*
X119153809Y-92210484D01*
X119153808Y-92210484D01*
X119153811Y-92210483D01*
X119714275Y-92099000D01*
X120285725Y-92099000D01*
X120846189Y-92210483D01*
X120846189Y-92210483D01*
G37*
G36*
X55846189Y-92210483D02*
G01*
X55846192Y-92210484D01*
X55846191Y-92210484D01*
X56374139Y-92429167D01*
X56849280Y-92746646D01*
X57253354Y-93150720D01*
X57570833Y-93625861D01*
X57570834Y-93625863D01*
X57789517Y-94153811D01*
X57901000Y-94714275D01*
X57901000Y-95285725D01*
X57789517Y-95846189D01*
X57774500Y-95882443D01*
X57570833Y-96374139D01*
X57253354Y-96849280D01*
X56849280Y-97253354D01*
X56374139Y-97570833D01*
X56374138Y-97570834D01*
X56374137Y-97570834D01*
X55846189Y-97789517D01*
X55285725Y-97901000D01*
X54714275Y-97901000D01*
X54153811Y-97789517D01*
X53625863Y-97570834D01*
X53625862Y-97570834D01*
X53625861Y-97570833D01*
X53150720Y-97253354D01*
X52746646Y-96849280D01*
X52429167Y-96374139D01*
X52225500Y-95882443D01*
X52210483Y-95846189D01*
X52099000Y-95285725D01*
X52099000Y-94714275D01*
X52210483Y-94153811D01*
X52429166Y-93625863D01*
X52429167Y-93625861D01*
X52746646Y-93150720D01*
X53150720Y-92746646D01*
X53625861Y-92429167D01*
X54153809Y-92210484D01*
X54153808Y-92210484D01*
X54153811Y-92210483D01*
X54714275Y-92099000D01*
X55285725Y-92099000D01*
X55846189Y-92210483D01*
X55846189Y-92210483D01*
G37*
G36*
X107740443Y-94151519D02*
G01*
X107806627Y-94158037D01*
X107976466Y-94209557D01*
X108132991Y-94293222D01*
X108168729Y-94322552D01*
X108270186Y-94405814D01*
X108353448Y-94507271D01*
X108382778Y-94543009D01*
X108466443Y-94699534D01*
X108517963Y-94869373D01*
X108535359Y-95046000D01*
X108517963Y-95222627D01*
X108466443Y-95392466D01*
X108382778Y-95548991D01*
X108353448Y-95584729D01*
X108270186Y-95686186D01*
X108168729Y-95769448D01*
X108132991Y-95798778D01*
X107976466Y-95882443D01*
X107806627Y-95933963D01*
X107740443Y-95940481D01*
X107674260Y-95947000D01*
X107585740Y-95947000D01*
X107519557Y-95940481D01*
X107453373Y-95933963D01*
X107283534Y-95882443D01*
X107127009Y-95798778D01*
X107091271Y-95769448D01*
X106989814Y-95686186D01*
X106906552Y-95584729D01*
X106877222Y-95548991D01*
X106793557Y-95392466D01*
X106742037Y-95222627D01*
X106724641Y-95046000D01*
X106742037Y-94869373D01*
X106793557Y-94699534D01*
X106877222Y-94543009D01*
X106906552Y-94507271D01*
X106989814Y-94405814D01*
X107091271Y-94322552D01*
X107127009Y-94293222D01*
X107283534Y-94209557D01*
X107453373Y-94158037D01*
X107519557Y-94151519D01*
X107585740Y-94145000D01*
X107674260Y-94145000D01*
X107740443Y-94151519D01*
X107740443Y-94151519D01*
G37*
G36*
X105200443Y-94151519D02*
G01*
X105266627Y-94158037D01*
X105436466Y-94209557D01*
X105592991Y-94293222D01*
X105628729Y-94322552D01*
X105730186Y-94405814D01*
X105813448Y-94507271D01*
X105842778Y-94543009D01*
X105926443Y-94699534D01*
X105977963Y-94869373D01*
X105995359Y-95046000D01*
X105977963Y-95222627D01*
X105926443Y-95392466D01*
X105842778Y-95548991D01*
X105813448Y-95584729D01*
X105730186Y-95686186D01*
X105628729Y-95769448D01*
X105592991Y-95798778D01*
X105436466Y-95882443D01*
X105266627Y-95933963D01*
X105200443Y-95940481D01*
X105134260Y-95947000D01*
X105045740Y-95947000D01*
X104979557Y-95940481D01*
X104913373Y-95933963D01*
X104743534Y-95882443D01*
X104587009Y-95798778D01*
X104551271Y-95769448D01*
X104449814Y-95686186D01*
X104366552Y-95584729D01*
X104337222Y-95548991D01*
X104253557Y-95392466D01*
X104202037Y-95222627D01*
X104184641Y-95046000D01*
X104202037Y-94869373D01*
X104253557Y-94699534D01*
X104337222Y-94543009D01*
X104366552Y-94507271D01*
X104449814Y-94405814D01*
X104551271Y-94322552D01*
X104587009Y-94293222D01*
X104743534Y-94209557D01*
X104913373Y-94158037D01*
X104979557Y-94151519D01*
X105045740Y-94145000D01*
X105134260Y-94145000D01*
X105200443Y-94151519D01*
X105200443Y-94151519D01*
G37*
G36*
X103451000Y-95947000D02*
G01*
X101649000Y-95947000D01*
X101649000Y-94145000D01*
X103451000Y-94145000D01*
X103451000Y-95947000D01*
X103451000Y-95947000D01*
G37*
G36*
X72590443Y-94151519D02*
G01*
X72656627Y-94158037D01*
X72826466Y-94209557D01*
X72982991Y-94293222D01*
X73018729Y-94322552D01*
X73120186Y-94405814D01*
X73203448Y-94507271D01*
X73232778Y-94543009D01*
X73316443Y-94699534D01*
X73367963Y-94869373D01*
X73385359Y-95046000D01*
X73367963Y-95222627D01*
X73316443Y-95392466D01*
X73232778Y-95548991D01*
X73203448Y-95584729D01*
X73120186Y-95686186D01*
X73018729Y-95769448D01*
X72982991Y-95798778D01*
X72826466Y-95882443D01*
X72656627Y-95933963D01*
X72590443Y-95940481D01*
X72524260Y-95947000D01*
X72435740Y-95947000D01*
X72369557Y-95940481D01*
X72303373Y-95933963D01*
X72133534Y-95882443D01*
X71977009Y-95798778D01*
X71941271Y-95769448D01*
X71839814Y-95686186D01*
X71756552Y-95584729D01*
X71727222Y-95548991D01*
X71643557Y-95392466D01*
X71592037Y-95222627D01*
X71574641Y-95046000D01*
X71592037Y-94869373D01*
X71643557Y-94699534D01*
X71727222Y-94543009D01*
X71756552Y-94507271D01*
X71839814Y-94405814D01*
X71941271Y-94322552D01*
X71977009Y-94293222D01*
X72133534Y-94209557D01*
X72303373Y-94158037D01*
X72369557Y-94151519D01*
X72435740Y-94145000D01*
X72524260Y-94145000D01*
X72590443Y-94151519D01*
X72590443Y-94151519D01*
G37*
G36*
X70050443Y-94151519D02*
G01*
X70116627Y-94158037D01*
X70286466Y-94209557D01*
X70442991Y-94293222D01*
X70478729Y-94322552D01*
X70580186Y-94405814D01*
X70663448Y-94507271D01*
X70692778Y-94543009D01*
X70776443Y-94699534D01*
X70827963Y-94869373D01*
X70845359Y-95046000D01*
X70827963Y-95222627D01*
X70776443Y-95392466D01*
X70692778Y-95548991D01*
X70663448Y-95584729D01*
X70580186Y-95686186D01*
X70478729Y-95769448D01*
X70442991Y-95798778D01*
X70286466Y-95882443D01*
X70116627Y-95933963D01*
X70050443Y-95940481D01*
X69984260Y-95947000D01*
X69895740Y-95947000D01*
X69829557Y-95940481D01*
X69763373Y-95933963D01*
X69593534Y-95882443D01*
X69437009Y-95798778D01*
X69401271Y-95769448D01*
X69299814Y-95686186D01*
X69216552Y-95584729D01*
X69187222Y-95548991D01*
X69103557Y-95392466D01*
X69052037Y-95222627D01*
X69034641Y-95046000D01*
X69052037Y-94869373D01*
X69103557Y-94699534D01*
X69187222Y-94543009D01*
X69216552Y-94507271D01*
X69299814Y-94405814D01*
X69401271Y-94322552D01*
X69437009Y-94293222D01*
X69593534Y-94209557D01*
X69763373Y-94158037D01*
X69829557Y-94151519D01*
X69895740Y-94145000D01*
X69984260Y-94145000D01*
X70050443Y-94151519D01*
X70050443Y-94151519D01*
G37*
G36*
X68301000Y-95947000D02*
G01*
X66499000Y-95947000D01*
X66499000Y-94145000D01*
X68301000Y-94145000D01*
X68301000Y-95947000D01*
X68301000Y-95947000D01*
G37*
G36*
X87144072Y-87346918D02*
G01*
X87389939Y-87448759D01*
X87611212Y-87596610D01*
X87799390Y-87784788D01*
X87947241Y-88006061D01*
X88049082Y-88251928D01*
X88101000Y-88512938D01*
X88101000Y-88779062D01*
X88049082Y-89040072D01*
X87947241Y-89285939D01*
X87799390Y-89507212D01*
X87611212Y-89695390D01*
X87389939Y-89843241D01*
X87389938Y-89843242D01*
X87389937Y-89843242D01*
X87144072Y-89945082D01*
X86883063Y-89997000D01*
X86616937Y-89997000D01*
X86355928Y-89945082D01*
X86110063Y-89843242D01*
X86110062Y-89843242D01*
X86110061Y-89843241D01*
X85888788Y-89695390D01*
X85700610Y-89507212D01*
X85552759Y-89285939D01*
X85450918Y-89040072D01*
X85399000Y-88779062D01*
X85399000Y-88512938D01*
X85450918Y-88251928D01*
X85552759Y-88006061D01*
X85700610Y-87784788D01*
X85888788Y-87596610D01*
X86110061Y-87448759D01*
X86355928Y-87346918D01*
X86616937Y-87295000D01*
X86883063Y-87295000D01*
X87144072Y-87346918D01*
X87144072Y-87346918D01*
G37*
G36*
X57244442Y-85740518D02*
G01*
X57310627Y-85747037D01*
X57480466Y-85798557D01*
X57636991Y-85882222D01*
X57672729Y-85911552D01*
X57774186Y-85994814D01*
X57857448Y-86096271D01*
X57886778Y-86132009D01*
X57970443Y-86288534D01*
X58021963Y-86458373D01*
X58039359Y-86635000D01*
X58021963Y-86811627D01*
X57970443Y-86981466D01*
X57886778Y-87137991D01*
X57857448Y-87173729D01*
X57774186Y-87275186D01*
X57686779Y-87346918D01*
X57636991Y-87387778D01*
X57636989Y-87387779D01*
X57522905Y-87448759D01*
X57480466Y-87471443D01*
X57310627Y-87522963D01*
X57244443Y-87529481D01*
X57178260Y-87536000D01*
X57089740Y-87536000D01*
X57023557Y-87529481D01*
X56957373Y-87522963D01*
X56787534Y-87471443D01*
X56745096Y-87448759D01*
X56631011Y-87387779D01*
X56631009Y-87387778D01*
X56581221Y-87346918D01*
X56493814Y-87275186D01*
X56410552Y-87173729D01*
X56381222Y-87137991D01*
X56297557Y-86981466D01*
X56246037Y-86811627D01*
X56228641Y-86635000D01*
X56246037Y-86458373D01*
X56297557Y-86288534D01*
X56381222Y-86132009D01*
X56410552Y-86096271D01*
X56493814Y-85994814D01*
X56595271Y-85911552D01*
X56631009Y-85882222D01*
X56787534Y-85798557D01*
X56957373Y-85747037D01*
X57023558Y-85740518D01*
X57089740Y-85734000D01*
X57178260Y-85734000D01*
X57244442Y-85740518D01*
X57244442Y-85740518D01*
G37*
G36*
X54704442Y-85740518D02*
G01*
X54770627Y-85747037D01*
X54940466Y-85798557D01*
X55096991Y-85882222D01*
X55132729Y-85911552D01*
X55234186Y-85994814D01*
X55317448Y-86096271D01*
X55346778Y-86132009D01*
X55430443Y-86288534D01*
X55481963Y-86458373D01*
X55499359Y-86635000D01*
X55481963Y-86811627D01*
X55430443Y-86981466D01*
X55346778Y-87137991D01*
X55317448Y-87173729D01*
X55234186Y-87275186D01*
X55146779Y-87346918D01*
X55096991Y-87387778D01*
X55096989Y-87387779D01*
X54982905Y-87448759D01*
X54940466Y-87471443D01*
X54770627Y-87522963D01*
X54704443Y-87529481D01*
X54638260Y-87536000D01*
X54549740Y-87536000D01*
X54483557Y-87529481D01*
X54417373Y-87522963D01*
X54247534Y-87471443D01*
X54205096Y-87448759D01*
X54091011Y-87387779D01*
X54091009Y-87387778D01*
X54041221Y-87346918D01*
X53953814Y-87275186D01*
X53870552Y-87173729D01*
X53841222Y-87137991D01*
X53757557Y-86981466D01*
X53706037Y-86811627D01*
X53688641Y-86635000D01*
X53706037Y-86458373D01*
X53757557Y-86288534D01*
X53841222Y-86132009D01*
X53870552Y-86096271D01*
X53953814Y-85994814D01*
X54055271Y-85911552D01*
X54091009Y-85882222D01*
X54247534Y-85798557D01*
X54417373Y-85747037D01*
X54483558Y-85740518D01*
X54549740Y-85734000D01*
X54638260Y-85734000D01*
X54704442Y-85740518D01*
X54704442Y-85740518D01*
G37*
G36*
X91844072Y-84346918D02*
G01*
X91945668Y-84389000D01*
X92089939Y-84448759D01*
X92097121Y-84453558D01*
X92311211Y-84596609D01*
X92499391Y-84784789D01*
X92647242Y-85006063D01*
X92749082Y-85251928D01*
X92801000Y-85512937D01*
X92801000Y-85779063D01*
X92749082Y-86040072D01*
X92647242Y-86285937D01*
X92532024Y-86458373D01*
X92499390Y-86507212D01*
X92311212Y-86695390D01*
X92089939Y-86843241D01*
X92089938Y-86843242D01*
X92089937Y-86843242D01*
X91844072Y-86945082D01*
X91583063Y-86997000D01*
X91316937Y-86997000D01*
X91055928Y-86945082D01*
X90810063Y-86843242D01*
X90810062Y-86843242D01*
X90810061Y-86843241D01*
X90588788Y-86695390D01*
X90400610Y-86507212D01*
X90367977Y-86458373D01*
X90252758Y-86285937D01*
X90150918Y-86040072D01*
X90099000Y-85779063D01*
X90099000Y-85512937D01*
X90150918Y-85251928D01*
X90252758Y-85006063D01*
X90400609Y-84784789D01*
X90588789Y-84596609D01*
X90802879Y-84453558D01*
X90810061Y-84448759D01*
X90954333Y-84389000D01*
X91055928Y-84346918D01*
X91316937Y-84295000D01*
X91583063Y-84295000D01*
X91844072Y-84346918D01*
X91844072Y-84346918D01*
G37*
G36*
X120110442Y-84395518D02*
G01*
X120176627Y-84402037D01*
X120346466Y-84453557D01*
X120502991Y-84537222D01*
X120538729Y-84566552D01*
X120640186Y-84649814D01*
X120710247Y-84735185D01*
X120752778Y-84787009D01*
X120836443Y-84943534D01*
X120887963Y-85113373D01*
X120905359Y-85290000D01*
X120887963Y-85466627D01*
X120836443Y-85636466D01*
X120752778Y-85792991D01*
X120748210Y-85798557D01*
X120640186Y-85930186D01*
X120561435Y-85994814D01*
X120502991Y-86042778D01*
X120346466Y-86126443D01*
X120176627Y-86177963D01*
X120110442Y-86184482D01*
X120044260Y-86191000D01*
X119955740Y-86191000D01*
X119889558Y-86184482D01*
X119823373Y-86177963D01*
X119653534Y-86126443D01*
X119497009Y-86042778D01*
X119438565Y-85994814D01*
X119359814Y-85930186D01*
X119251790Y-85798557D01*
X119247222Y-85792991D01*
X119163557Y-85636466D01*
X119112037Y-85466627D01*
X119094641Y-85290000D01*
X119112037Y-85113373D01*
X119163557Y-84943534D01*
X119247222Y-84787009D01*
X119289753Y-84735185D01*
X119359814Y-84649814D01*
X119461271Y-84566552D01*
X119497009Y-84537222D01*
X119653534Y-84453557D01*
X119823373Y-84402037D01*
X119889558Y-84395518D01*
X119955740Y-84389000D01*
X120044260Y-84389000D01*
X120110442Y-84395518D01*
X120110442Y-84395518D01*
G37*
G36*
X54704443Y-83200519D02*
G01*
X54770627Y-83207037D01*
X54940466Y-83258557D01*
X55096991Y-83342222D01*
X55132729Y-83371552D01*
X55234186Y-83454814D01*
X55317448Y-83556271D01*
X55346778Y-83592009D01*
X55430443Y-83748534D01*
X55481963Y-83918373D01*
X55499359Y-84095000D01*
X55481963Y-84271627D01*
X55430443Y-84441466D01*
X55346778Y-84597991D01*
X55317448Y-84633729D01*
X55234186Y-84735186D01*
X55132729Y-84818448D01*
X55096991Y-84847778D01*
X54940466Y-84931443D01*
X54770627Y-84982963D01*
X54704443Y-84989481D01*
X54638260Y-84996000D01*
X54549740Y-84996000D01*
X54483557Y-84989481D01*
X54417373Y-84982963D01*
X54247534Y-84931443D01*
X54091009Y-84847778D01*
X54055271Y-84818448D01*
X53953814Y-84735186D01*
X53870552Y-84633729D01*
X53841222Y-84597991D01*
X53757557Y-84441466D01*
X53706037Y-84271627D01*
X53688641Y-84095000D01*
X53706037Y-83918373D01*
X53757557Y-83748534D01*
X53841222Y-83592009D01*
X53870552Y-83556271D01*
X53953814Y-83454814D01*
X54055271Y-83371552D01*
X54091009Y-83342222D01*
X54247534Y-83258557D01*
X54417373Y-83207037D01*
X54483557Y-83200519D01*
X54549740Y-83194000D01*
X54638260Y-83194000D01*
X54704443Y-83200519D01*
X54704443Y-83200519D01*
G37*
G36*
X57244443Y-83200519D02*
G01*
X57310627Y-83207037D01*
X57480466Y-83258557D01*
X57636991Y-83342222D01*
X57672729Y-83371552D01*
X57774186Y-83454814D01*
X57857448Y-83556271D01*
X57886778Y-83592009D01*
X57970443Y-83748534D01*
X58021963Y-83918373D01*
X58039359Y-84095000D01*
X58021963Y-84271627D01*
X57970443Y-84441466D01*
X57886778Y-84597991D01*
X57857448Y-84633729D01*
X57774186Y-84735186D01*
X57672729Y-84818448D01*
X57636991Y-84847778D01*
X57480466Y-84931443D01*
X57310627Y-84982963D01*
X57244443Y-84989481D01*
X57178260Y-84996000D01*
X57089740Y-84996000D01*
X57023557Y-84989481D01*
X56957373Y-84982963D01*
X56787534Y-84931443D01*
X56631009Y-84847778D01*
X56595271Y-84818448D01*
X56493814Y-84735186D01*
X56410552Y-84633729D01*
X56381222Y-84597991D01*
X56297557Y-84441466D01*
X56246037Y-84271627D01*
X56228641Y-84095000D01*
X56246037Y-83918373D01*
X56297557Y-83748534D01*
X56381222Y-83592009D01*
X56410552Y-83556271D01*
X56493814Y-83454814D01*
X56595271Y-83371552D01*
X56631009Y-83342222D01*
X56787534Y-83258557D01*
X56957373Y-83207037D01*
X57023557Y-83200519D01*
X57089740Y-83194000D01*
X57178260Y-83194000D01*
X57244443Y-83200519D01*
X57244443Y-83200519D01*
G37*
G36*
X88101000Y-83997000D02*
G01*
X85399000Y-83997000D01*
X85399000Y-81295000D01*
X88101000Y-81295000D01*
X88101000Y-83997000D01*
X88101000Y-83997000D01*
G37*
G36*
X120110443Y-81855519D02*
G01*
X120176627Y-81862037D01*
X120346466Y-81913557D01*
X120502991Y-81997222D01*
X120538729Y-82026552D01*
X120640186Y-82109814D01*
X120710247Y-82195185D01*
X120752778Y-82247009D01*
X120836443Y-82403534D01*
X120887963Y-82573373D01*
X120905359Y-82750000D01*
X120887963Y-82926627D01*
X120836443Y-83096466D01*
X120752778Y-83252991D01*
X120748210Y-83258557D01*
X120640186Y-83390186D01*
X120561435Y-83454814D01*
X120502991Y-83502778D01*
X120346466Y-83586443D01*
X120176627Y-83637963D01*
X120110442Y-83644482D01*
X120044260Y-83651000D01*
X119955740Y-83651000D01*
X119889558Y-83644482D01*
X119823373Y-83637963D01*
X119653534Y-83586443D01*
X119497009Y-83502778D01*
X119438565Y-83454814D01*
X119359814Y-83390186D01*
X119251790Y-83258557D01*
X119247222Y-83252991D01*
X119163557Y-83096466D01*
X119112037Y-82926627D01*
X119094641Y-82750000D01*
X119112037Y-82573373D01*
X119163557Y-82403534D01*
X119247222Y-82247009D01*
X119289753Y-82195185D01*
X119359814Y-82109814D01*
X119461271Y-82026552D01*
X119497009Y-81997222D01*
X119653534Y-81913557D01*
X119823373Y-81862037D01*
X119889557Y-81855519D01*
X119955740Y-81849000D01*
X120044260Y-81849000D01*
X120110443Y-81855519D01*
X120110443Y-81855519D01*
G37*
G36*
X54704443Y-80660519D02*
G01*
X54770627Y-80667037D01*
X54940466Y-80718557D01*
X55096991Y-80802222D01*
X55132729Y-80831552D01*
X55234186Y-80914814D01*
X55317448Y-81016271D01*
X55346778Y-81052009D01*
X55430443Y-81208534D01*
X55481963Y-81378373D01*
X55499359Y-81555000D01*
X55481963Y-81731627D01*
X55430443Y-81901466D01*
X55346778Y-82057991D01*
X55317448Y-82093729D01*
X55234186Y-82195186D01*
X55132729Y-82278448D01*
X55096991Y-82307778D01*
X54940466Y-82391443D01*
X54770627Y-82442963D01*
X54704442Y-82449482D01*
X54638260Y-82456000D01*
X54549740Y-82456000D01*
X54483558Y-82449482D01*
X54417373Y-82442963D01*
X54247534Y-82391443D01*
X54091009Y-82307778D01*
X54055271Y-82278448D01*
X53953814Y-82195186D01*
X53870552Y-82093729D01*
X53841222Y-82057991D01*
X53757557Y-81901466D01*
X53706037Y-81731627D01*
X53688641Y-81555000D01*
X53706037Y-81378373D01*
X53757557Y-81208534D01*
X53841222Y-81052009D01*
X53870552Y-81016271D01*
X53953814Y-80914814D01*
X54055271Y-80831552D01*
X54091009Y-80802222D01*
X54247534Y-80718557D01*
X54417373Y-80667037D01*
X54483557Y-80660519D01*
X54549740Y-80654000D01*
X54638260Y-80654000D01*
X54704443Y-80660519D01*
X54704443Y-80660519D01*
G37*
G36*
X57244443Y-80660519D02*
G01*
X57310627Y-80667037D01*
X57480466Y-80718557D01*
X57636991Y-80802222D01*
X57672729Y-80831552D01*
X57774186Y-80914814D01*
X57857448Y-81016271D01*
X57886778Y-81052009D01*
X57970443Y-81208534D01*
X58021963Y-81378373D01*
X58039359Y-81555000D01*
X58021963Y-81731627D01*
X57970443Y-81901466D01*
X57886778Y-82057991D01*
X57857448Y-82093729D01*
X57774186Y-82195186D01*
X57672729Y-82278448D01*
X57636991Y-82307778D01*
X57480466Y-82391443D01*
X57310627Y-82442963D01*
X57244442Y-82449482D01*
X57178260Y-82456000D01*
X57089740Y-82456000D01*
X57023558Y-82449482D01*
X56957373Y-82442963D01*
X56787534Y-82391443D01*
X56631009Y-82307778D01*
X56595271Y-82278448D01*
X56493814Y-82195186D01*
X56410552Y-82093729D01*
X56381222Y-82057991D01*
X56297557Y-81901466D01*
X56246037Y-81731627D01*
X56228641Y-81555000D01*
X56246037Y-81378373D01*
X56297557Y-81208534D01*
X56381222Y-81052009D01*
X56410552Y-81016271D01*
X56493814Y-80914814D01*
X56595271Y-80831552D01*
X56631009Y-80802222D01*
X56787534Y-80718557D01*
X56957373Y-80667037D01*
X57023557Y-80660519D01*
X57089740Y-80654000D01*
X57178260Y-80654000D01*
X57244443Y-80660519D01*
X57244443Y-80660519D01*
G37*
G36*
X120901000Y-81111000D02*
G01*
X119099000Y-81111000D01*
X119099000Y-79309000D01*
X120901000Y-79309000D01*
X120901000Y-81111000D01*
X120901000Y-81111000D01*
G37*
G36*
X57244442Y-78120518D02*
G01*
X57310627Y-78127037D01*
X57480466Y-78178557D01*
X57636991Y-78262222D01*
X57672729Y-78291552D01*
X57774186Y-78374814D01*
X57857448Y-78476271D01*
X57886778Y-78512009D01*
X57970443Y-78668534D01*
X58021963Y-78838373D01*
X58039359Y-79015000D01*
X58021963Y-79191627D01*
X57970443Y-79361466D01*
X57886778Y-79517991D01*
X57857448Y-79553729D01*
X57774186Y-79655186D01*
X57672729Y-79738448D01*
X57636991Y-79767778D01*
X57480466Y-79851443D01*
X57310627Y-79902963D01*
X57244442Y-79909482D01*
X57178260Y-79916000D01*
X57089740Y-79916000D01*
X57023558Y-79909482D01*
X56957373Y-79902963D01*
X56787534Y-79851443D01*
X56631009Y-79767778D01*
X56595271Y-79738448D01*
X56493814Y-79655186D01*
X56410552Y-79553729D01*
X56381222Y-79517991D01*
X56297557Y-79361466D01*
X56246037Y-79191627D01*
X56228641Y-79015000D01*
X56246037Y-78838373D01*
X56297557Y-78668534D01*
X56381222Y-78512009D01*
X56410552Y-78476271D01*
X56493814Y-78374814D01*
X56595271Y-78291552D01*
X56631009Y-78262222D01*
X56787534Y-78178557D01*
X56957373Y-78127037D01*
X57023558Y-78120518D01*
X57089740Y-78114000D01*
X57178260Y-78114000D01*
X57244442Y-78120518D01*
X57244442Y-78120518D01*
G37*
G36*
X54704442Y-78120518D02*
G01*
X54770627Y-78127037D01*
X54940466Y-78178557D01*
X55096991Y-78262222D01*
X55132729Y-78291552D01*
X55234186Y-78374814D01*
X55317448Y-78476271D01*
X55346778Y-78512009D01*
X55430443Y-78668534D01*
X55481963Y-78838373D01*
X55499359Y-79015000D01*
X55481963Y-79191627D01*
X55430443Y-79361466D01*
X55346778Y-79517991D01*
X55317448Y-79553729D01*
X55234186Y-79655186D01*
X55132729Y-79738448D01*
X55096991Y-79767778D01*
X54940466Y-79851443D01*
X54770627Y-79902963D01*
X54704442Y-79909482D01*
X54638260Y-79916000D01*
X54549740Y-79916000D01*
X54483558Y-79909482D01*
X54417373Y-79902963D01*
X54247534Y-79851443D01*
X54091009Y-79767778D01*
X54055271Y-79738448D01*
X53953814Y-79655186D01*
X53870552Y-79553729D01*
X53841222Y-79517991D01*
X53757557Y-79361466D01*
X53706037Y-79191627D01*
X53688641Y-79015000D01*
X53706037Y-78838373D01*
X53757557Y-78668534D01*
X53841222Y-78512009D01*
X53870552Y-78476271D01*
X53953814Y-78374814D01*
X54055271Y-78291552D01*
X54091009Y-78262222D01*
X54247534Y-78178557D01*
X54417373Y-78127037D01*
X54483558Y-78120518D01*
X54549740Y-78114000D01*
X54638260Y-78114000D01*
X54704442Y-78120518D01*
X54704442Y-78120518D01*
G37*
G36*
X54704442Y-75580518D02*
G01*
X54770627Y-75587037D01*
X54940466Y-75638557D01*
X55096991Y-75722222D01*
X55132729Y-75751552D01*
X55234186Y-75834814D01*
X55317448Y-75936271D01*
X55346778Y-75972009D01*
X55430443Y-76128534D01*
X55481963Y-76298373D01*
X55499359Y-76475000D01*
X55481963Y-76651627D01*
X55430443Y-76821466D01*
X55346778Y-76977991D01*
X55317448Y-77013729D01*
X55234186Y-77115186D01*
X55132729Y-77198448D01*
X55096991Y-77227778D01*
X54940466Y-77311443D01*
X54770627Y-77362963D01*
X54704442Y-77369482D01*
X54638260Y-77376000D01*
X54549740Y-77376000D01*
X54483558Y-77369482D01*
X54417373Y-77362963D01*
X54247534Y-77311443D01*
X54091009Y-77227778D01*
X54055271Y-77198448D01*
X53953814Y-77115186D01*
X53870552Y-77013729D01*
X53841222Y-76977991D01*
X53757557Y-76821466D01*
X53706037Y-76651627D01*
X53688641Y-76475000D01*
X53706037Y-76298373D01*
X53757557Y-76128534D01*
X53841222Y-75972009D01*
X53870552Y-75936271D01*
X53953814Y-75834814D01*
X54055271Y-75751552D01*
X54091009Y-75722222D01*
X54247534Y-75638557D01*
X54417373Y-75587037D01*
X54483558Y-75580518D01*
X54549740Y-75574000D01*
X54638260Y-75574000D01*
X54704442Y-75580518D01*
X54704442Y-75580518D01*
G37*
G36*
X57244442Y-75580518D02*
G01*
X57310627Y-75587037D01*
X57480466Y-75638557D01*
X57636991Y-75722222D01*
X57672729Y-75751552D01*
X57774186Y-75834814D01*
X57857448Y-75936271D01*
X57886778Y-75972009D01*
X57970443Y-76128534D01*
X58021963Y-76298373D01*
X58039359Y-76475000D01*
X58021963Y-76651627D01*
X57970443Y-76821466D01*
X57886778Y-76977991D01*
X57857448Y-77013729D01*
X57774186Y-77115186D01*
X57672729Y-77198448D01*
X57636991Y-77227778D01*
X57480466Y-77311443D01*
X57310627Y-77362963D01*
X57244442Y-77369482D01*
X57178260Y-77376000D01*
X57089740Y-77376000D01*
X57023558Y-77369482D01*
X56957373Y-77362963D01*
X56787534Y-77311443D01*
X56631009Y-77227778D01*
X56595271Y-77198448D01*
X56493814Y-77115186D01*
X56410552Y-77013729D01*
X56381222Y-76977991D01*
X56297557Y-76821466D01*
X56246037Y-76651627D01*
X56228641Y-76475000D01*
X56246037Y-76298373D01*
X56297557Y-76128534D01*
X56381222Y-75972009D01*
X56410552Y-75936271D01*
X56493814Y-75834814D01*
X56595271Y-75751552D01*
X56631009Y-75722222D01*
X56787534Y-75638557D01*
X56957373Y-75587037D01*
X57023558Y-75580518D01*
X57089740Y-75574000D01*
X57178260Y-75574000D01*
X57244442Y-75580518D01*
X57244442Y-75580518D01*
G37*
G36*
X57244443Y-73040519D02*
G01*
X57310627Y-73047037D01*
X57480466Y-73098557D01*
X57636991Y-73182222D01*
X57672729Y-73211552D01*
X57774186Y-73294814D01*
X57857448Y-73396271D01*
X57886778Y-73432009D01*
X57970443Y-73588534D01*
X58021963Y-73758373D01*
X58039359Y-73935000D01*
X58021963Y-74111627D01*
X57970443Y-74281466D01*
X57886778Y-74437991D01*
X57857448Y-74473729D01*
X57774186Y-74575186D01*
X57672729Y-74658448D01*
X57636991Y-74687778D01*
X57480466Y-74771443D01*
X57310627Y-74822963D01*
X57244442Y-74829482D01*
X57178260Y-74836000D01*
X57089740Y-74836000D01*
X57023558Y-74829482D01*
X56957373Y-74822963D01*
X56787534Y-74771443D01*
X56631009Y-74687778D01*
X56595271Y-74658448D01*
X56493814Y-74575186D01*
X56410552Y-74473729D01*
X56381222Y-74437991D01*
X56297557Y-74281466D01*
X56246037Y-74111627D01*
X56228641Y-73935000D01*
X56246037Y-73758373D01*
X56297557Y-73588534D01*
X56381222Y-73432009D01*
X56410552Y-73396271D01*
X56493814Y-73294814D01*
X56595271Y-73211552D01*
X56631009Y-73182222D01*
X56787534Y-73098557D01*
X56957373Y-73047037D01*
X57023557Y-73040519D01*
X57089740Y-73034000D01*
X57178260Y-73034000D01*
X57244443Y-73040519D01*
X57244443Y-73040519D01*
G37*
G36*
X54704443Y-73040519D02*
G01*
X54770627Y-73047037D01*
X54940466Y-73098557D01*
X55096991Y-73182222D01*
X55132729Y-73211552D01*
X55234186Y-73294814D01*
X55317448Y-73396271D01*
X55346778Y-73432009D01*
X55430443Y-73588534D01*
X55481963Y-73758373D01*
X55499359Y-73935000D01*
X55481963Y-74111627D01*
X55430443Y-74281466D01*
X55346778Y-74437991D01*
X55317448Y-74473729D01*
X55234186Y-74575186D01*
X55132729Y-74658448D01*
X55096991Y-74687778D01*
X54940466Y-74771443D01*
X54770627Y-74822963D01*
X54704442Y-74829482D01*
X54638260Y-74836000D01*
X54549740Y-74836000D01*
X54483558Y-74829482D01*
X54417373Y-74822963D01*
X54247534Y-74771443D01*
X54091009Y-74687778D01*
X54055271Y-74658448D01*
X53953814Y-74575186D01*
X53870552Y-74473729D01*
X53841222Y-74437991D01*
X53757557Y-74281466D01*
X53706037Y-74111627D01*
X53688641Y-73935000D01*
X53706037Y-73758373D01*
X53757557Y-73588534D01*
X53841222Y-73432009D01*
X53870552Y-73396271D01*
X53953814Y-73294814D01*
X54055271Y-73211552D01*
X54091009Y-73182222D01*
X54247534Y-73098557D01*
X54417373Y-73047037D01*
X54483557Y-73040519D01*
X54549740Y-73034000D01*
X54638260Y-73034000D01*
X54704443Y-73040519D01*
X54704443Y-73040519D01*
G37*
G36*
X120110443Y-70905519D02*
G01*
X120176627Y-70912037D01*
X120346466Y-70963557D01*
X120502991Y-71047222D01*
X120538729Y-71076552D01*
X120640186Y-71159814D01*
X120723448Y-71261271D01*
X120752778Y-71297009D01*
X120836443Y-71453534D01*
X120887963Y-71623373D01*
X120905359Y-71800000D01*
X120887963Y-71976627D01*
X120836443Y-72146466D01*
X120752778Y-72302991D01*
X120723448Y-72338729D01*
X120640186Y-72440186D01*
X120538729Y-72523448D01*
X120502991Y-72552778D01*
X120346466Y-72636443D01*
X120176627Y-72687963D01*
X120110443Y-72694481D01*
X120044260Y-72701000D01*
X119955740Y-72701000D01*
X119889557Y-72694481D01*
X119823373Y-72687963D01*
X119653534Y-72636443D01*
X119497009Y-72552778D01*
X119461271Y-72523448D01*
X119359814Y-72440186D01*
X119276552Y-72338729D01*
X119247222Y-72302991D01*
X119163557Y-72146466D01*
X119112037Y-71976627D01*
X119094641Y-71800000D01*
X119112037Y-71623373D01*
X119163557Y-71453534D01*
X119247222Y-71297009D01*
X119276552Y-71261271D01*
X119359814Y-71159814D01*
X119461271Y-71076552D01*
X119497009Y-71047222D01*
X119653534Y-70963557D01*
X119823373Y-70912037D01*
X119889557Y-70905519D01*
X119955740Y-70899000D01*
X120044260Y-70899000D01*
X120110443Y-70905519D01*
X120110443Y-70905519D01*
G37*
G36*
X54704442Y-70500518D02*
G01*
X54770627Y-70507037D01*
X54940466Y-70558557D01*
X55096991Y-70642222D01*
X55132729Y-70671552D01*
X55234186Y-70754814D01*
X55317448Y-70856271D01*
X55346778Y-70892009D01*
X55430443Y-71048534D01*
X55481963Y-71218373D01*
X55499359Y-71395000D01*
X55481963Y-71571627D01*
X55430443Y-71741466D01*
X55346778Y-71897991D01*
X55317448Y-71933729D01*
X55234186Y-72035186D01*
X55132729Y-72118448D01*
X55096991Y-72147778D01*
X54940466Y-72231443D01*
X54770627Y-72282963D01*
X54704443Y-72289481D01*
X54638260Y-72296000D01*
X54549740Y-72296000D01*
X54483557Y-72289481D01*
X54417373Y-72282963D01*
X54247534Y-72231443D01*
X54091009Y-72147778D01*
X54055271Y-72118448D01*
X53953814Y-72035186D01*
X53870552Y-71933729D01*
X53841222Y-71897991D01*
X53757557Y-71741466D01*
X53706037Y-71571627D01*
X53688641Y-71395000D01*
X53706037Y-71218373D01*
X53757557Y-71048534D01*
X53841222Y-70892009D01*
X53870552Y-70856271D01*
X53953814Y-70754814D01*
X54055271Y-70671552D01*
X54091009Y-70642222D01*
X54247534Y-70558557D01*
X54417373Y-70507037D01*
X54483558Y-70500518D01*
X54549740Y-70494000D01*
X54638260Y-70494000D01*
X54704442Y-70500518D01*
X54704442Y-70500518D01*
G37*
G36*
X57244442Y-70500518D02*
G01*
X57310627Y-70507037D01*
X57480466Y-70558557D01*
X57636991Y-70642222D01*
X57672729Y-70671552D01*
X57774186Y-70754814D01*
X57857448Y-70856271D01*
X57886778Y-70892009D01*
X57970443Y-71048534D01*
X58021963Y-71218373D01*
X58039359Y-71395000D01*
X58021963Y-71571627D01*
X57970443Y-71741466D01*
X57886778Y-71897991D01*
X57857448Y-71933729D01*
X57774186Y-72035186D01*
X57672729Y-72118448D01*
X57636991Y-72147778D01*
X57480466Y-72231443D01*
X57310627Y-72282963D01*
X57244443Y-72289481D01*
X57178260Y-72296000D01*
X57089740Y-72296000D01*
X57023557Y-72289481D01*
X56957373Y-72282963D01*
X56787534Y-72231443D01*
X56631009Y-72147778D01*
X56595271Y-72118448D01*
X56493814Y-72035186D01*
X56410552Y-71933729D01*
X56381222Y-71897991D01*
X56297557Y-71741466D01*
X56246037Y-71571627D01*
X56228641Y-71395000D01*
X56246037Y-71218373D01*
X56297557Y-71048534D01*
X56381222Y-70892009D01*
X56410552Y-70856271D01*
X56493814Y-70754814D01*
X56595271Y-70671552D01*
X56631009Y-70642222D01*
X56787534Y-70558557D01*
X56957373Y-70507037D01*
X57023558Y-70500518D01*
X57089740Y-70494000D01*
X57178260Y-70494000D01*
X57244442Y-70500518D01*
X57244442Y-70500518D01*
G37*
G36*
X120110443Y-68365519D02*
G01*
X120176627Y-68372037D01*
X120346466Y-68423557D01*
X120502991Y-68507222D01*
X120538729Y-68536552D01*
X120640186Y-68619814D01*
X120723448Y-68721271D01*
X120752778Y-68757009D01*
X120836443Y-68913534D01*
X120887963Y-69083373D01*
X120905359Y-69260000D01*
X120887963Y-69436627D01*
X120836443Y-69606466D01*
X120752778Y-69762991D01*
X120723448Y-69798729D01*
X120640186Y-69900186D01*
X120538729Y-69983448D01*
X120502991Y-70012778D01*
X120346466Y-70096443D01*
X120176627Y-70147963D01*
X120110442Y-70154482D01*
X120044260Y-70161000D01*
X119955740Y-70161000D01*
X119889558Y-70154482D01*
X119823373Y-70147963D01*
X119653534Y-70096443D01*
X119497009Y-70012778D01*
X119461271Y-69983448D01*
X119359814Y-69900186D01*
X119276552Y-69798729D01*
X119247222Y-69762991D01*
X119163557Y-69606466D01*
X119112037Y-69436627D01*
X119094641Y-69260000D01*
X119112037Y-69083373D01*
X119163557Y-68913534D01*
X119247222Y-68757009D01*
X119276552Y-68721271D01*
X119359814Y-68619814D01*
X119461271Y-68536552D01*
X119497009Y-68507222D01*
X119653534Y-68423557D01*
X119823373Y-68372037D01*
X119889557Y-68365519D01*
X119955740Y-68359000D01*
X120044260Y-68359000D01*
X120110443Y-68365519D01*
X120110443Y-68365519D01*
G37*
G36*
X54704442Y-67960518D02*
G01*
X54770627Y-67967037D01*
X54940466Y-68018557D01*
X55096991Y-68102222D01*
X55132729Y-68131552D01*
X55234186Y-68214814D01*
X55317448Y-68316271D01*
X55346778Y-68352009D01*
X55430443Y-68508534D01*
X55481963Y-68678373D01*
X55499359Y-68855000D01*
X55481963Y-69031627D01*
X55430443Y-69201466D01*
X55346778Y-69357991D01*
X55317448Y-69393729D01*
X55234186Y-69495186D01*
X55132729Y-69578448D01*
X55096991Y-69607778D01*
X54940466Y-69691443D01*
X54770627Y-69742963D01*
X54704442Y-69749482D01*
X54638260Y-69756000D01*
X54549740Y-69756000D01*
X54483558Y-69749482D01*
X54417373Y-69742963D01*
X54247534Y-69691443D01*
X54091009Y-69607778D01*
X54055271Y-69578448D01*
X53953814Y-69495186D01*
X53870552Y-69393729D01*
X53841222Y-69357991D01*
X53757557Y-69201466D01*
X53706037Y-69031627D01*
X53688641Y-68855000D01*
X53706037Y-68678373D01*
X53757557Y-68508534D01*
X53841222Y-68352009D01*
X53870552Y-68316271D01*
X53953814Y-68214814D01*
X54055271Y-68131552D01*
X54091009Y-68102222D01*
X54247534Y-68018557D01*
X54417373Y-67967037D01*
X54483558Y-67960518D01*
X54549740Y-67954000D01*
X54638260Y-67954000D01*
X54704442Y-67960518D01*
X54704442Y-67960518D01*
G37*
G36*
X57244442Y-67960518D02*
G01*
X57310627Y-67967037D01*
X57480466Y-68018557D01*
X57636991Y-68102222D01*
X57672729Y-68131552D01*
X57774186Y-68214814D01*
X57857448Y-68316271D01*
X57886778Y-68352009D01*
X57970443Y-68508534D01*
X58021963Y-68678373D01*
X58039359Y-68855000D01*
X58021963Y-69031627D01*
X57970443Y-69201466D01*
X57886778Y-69357991D01*
X57857448Y-69393729D01*
X57774186Y-69495186D01*
X57672729Y-69578448D01*
X57636991Y-69607778D01*
X57480466Y-69691443D01*
X57310627Y-69742963D01*
X57244442Y-69749482D01*
X57178260Y-69756000D01*
X57089740Y-69756000D01*
X57023558Y-69749482D01*
X56957373Y-69742963D01*
X56787534Y-69691443D01*
X56631009Y-69607778D01*
X56595271Y-69578448D01*
X56493814Y-69495186D01*
X56410552Y-69393729D01*
X56381222Y-69357991D01*
X56297557Y-69201466D01*
X56246037Y-69031627D01*
X56228641Y-68855000D01*
X56246037Y-68678373D01*
X56297557Y-68508534D01*
X56381222Y-68352009D01*
X56410552Y-68316271D01*
X56493814Y-68214814D01*
X56595271Y-68131552D01*
X56631009Y-68102222D01*
X56787534Y-68018557D01*
X56957373Y-67967037D01*
X57023558Y-67960518D01*
X57089740Y-67954000D01*
X57178260Y-67954000D01*
X57244442Y-67960518D01*
X57244442Y-67960518D01*
G37*
G36*
X120901000Y-67621000D02*
G01*
X119099000Y-67621000D01*
X119099000Y-65819000D01*
X120901000Y-65819000D01*
X120901000Y-67621000D01*
X120901000Y-67621000D01*
G37*
G36*
X54704442Y-65420518D02*
G01*
X54770627Y-65427037D01*
X54940466Y-65478557D01*
X55096991Y-65562222D01*
X55132729Y-65591552D01*
X55234186Y-65674814D01*
X55317448Y-65776271D01*
X55346778Y-65812009D01*
X55430443Y-65968534D01*
X55481963Y-66138373D01*
X55499359Y-66315000D01*
X55481963Y-66491627D01*
X55430443Y-66661466D01*
X55346778Y-66817991D01*
X55317448Y-66853729D01*
X55234186Y-66955186D01*
X55132729Y-67038448D01*
X55096991Y-67067778D01*
X54940466Y-67151443D01*
X54770627Y-67202963D01*
X54704442Y-67209482D01*
X54638260Y-67216000D01*
X54549740Y-67216000D01*
X54483558Y-67209482D01*
X54417373Y-67202963D01*
X54247534Y-67151443D01*
X54091009Y-67067778D01*
X54055271Y-67038448D01*
X53953814Y-66955186D01*
X53870552Y-66853729D01*
X53841222Y-66817991D01*
X53757557Y-66661466D01*
X53706037Y-66491627D01*
X53688641Y-66315000D01*
X53706037Y-66138373D01*
X53757557Y-65968534D01*
X53841222Y-65812009D01*
X53870552Y-65776271D01*
X53953814Y-65674814D01*
X54055271Y-65591552D01*
X54091009Y-65562222D01*
X54247534Y-65478557D01*
X54417373Y-65427037D01*
X54483558Y-65420518D01*
X54549740Y-65414000D01*
X54638260Y-65414000D01*
X54704442Y-65420518D01*
X54704442Y-65420518D01*
G37*
G36*
X57244442Y-65420518D02*
G01*
X57310627Y-65427037D01*
X57480466Y-65478557D01*
X57636991Y-65562222D01*
X57672729Y-65591552D01*
X57774186Y-65674814D01*
X57857448Y-65776271D01*
X57886778Y-65812009D01*
X57970443Y-65968534D01*
X58021963Y-66138373D01*
X58039359Y-66315000D01*
X58021963Y-66491627D01*
X57970443Y-66661466D01*
X57886778Y-66817991D01*
X57857448Y-66853729D01*
X57774186Y-66955186D01*
X57672729Y-67038448D01*
X57636991Y-67067778D01*
X57480466Y-67151443D01*
X57310627Y-67202963D01*
X57244442Y-67209482D01*
X57178260Y-67216000D01*
X57089740Y-67216000D01*
X57023558Y-67209482D01*
X56957373Y-67202963D01*
X56787534Y-67151443D01*
X56631009Y-67067778D01*
X56595271Y-67038448D01*
X56493814Y-66955186D01*
X56410552Y-66853729D01*
X56381222Y-66817991D01*
X56297557Y-66661466D01*
X56246037Y-66491627D01*
X56228641Y-66315000D01*
X56246037Y-66138373D01*
X56297557Y-65968534D01*
X56381222Y-65812009D01*
X56410552Y-65776271D01*
X56493814Y-65674814D01*
X56595271Y-65591552D01*
X56631009Y-65562222D01*
X56787534Y-65478557D01*
X56957373Y-65427037D01*
X57023558Y-65420518D01*
X57089740Y-65414000D01*
X57178260Y-65414000D01*
X57244442Y-65420518D01*
X57244442Y-65420518D01*
G37*
G36*
X57244443Y-62880519D02*
G01*
X57310627Y-62887037D01*
X57480466Y-62938557D01*
X57636991Y-63022222D01*
X57672729Y-63051552D01*
X57774186Y-63134814D01*
X57857448Y-63236271D01*
X57886778Y-63272009D01*
X57970443Y-63428534D01*
X58021963Y-63598373D01*
X58039359Y-63775000D01*
X58021963Y-63951627D01*
X57970443Y-64121466D01*
X57886778Y-64277991D01*
X57857448Y-64313729D01*
X57774186Y-64415186D01*
X57672729Y-64498448D01*
X57636991Y-64527778D01*
X57480466Y-64611443D01*
X57310627Y-64662963D01*
X57244443Y-64669481D01*
X57178260Y-64676000D01*
X57089740Y-64676000D01*
X57023557Y-64669481D01*
X56957373Y-64662963D01*
X56787534Y-64611443D01*
X56631009Y-64527778D01*
X56595271Y-64498448D01*
X56493814Y-64415186D01*
X56410552Y-64313729D01*
X56381222Y-64277991D01*
X56297557Y-64121466D01*
X56246037Y-63951627D01*
X56228641Y-63775000D01*
X56246037Y-63598373D01*
X56297557Y-63428534D01*
X56381222Y-63272009D01*
X56410552Y-63236271D01*
X56493814Y-63134814D01*
X56595271Y-63051552D01*
X56631009Y-63022222D01*
X56787534Y-62938557D01*
X56957373Y-62887037D01*
X57023557Y-62880519D01*
X57089740Y-62874000D01*
X57178260Y-62874000D01*
X57244443Y-62880519D01*
X57244443Y-62880519D01*
G37*
G36*
X54704443Y-62880519D02*
G01*
X54770627Y-62887037D01*
X54940466Y-62938557D01*
X55096991Y-63022222D01*
X55132729Y-63051552D01*
X55234186Y-63134814D01*
X55317448Y-63236271D01*
X55346778Y-63272009D01*
X55430443Y-63428534D01*
X55481963Y-63598373D01*
X55499359Y-63775000D01*
X55481963Y-63951627D01*
X55430443Y-64121466D01*
X55346778Y-64277991D01*
X55317448Y-64313729D01*
X55234186Y-64415186D01*
X55132729Y-64498448D01*
X55096991Y-64527778D01*
X54940466Y-64611443D01*
X54770627Y-64662963D01*
X54704443Y-64669481D01*
X54638260Y-64676000D01*
X54549740Y-64676000D01*
X54483557Y-64669481D01*
X54417373Y-64662963D01*
X54247534Y-64611443D01*
X54091009Y-64527778D01*
X54055271Y-64498448D01*
X53953814Y-64415186D01*
X53870552Y-64313729D01*
X53841222Y-64277991D01*
X53757557Y-64121466D01*
X53706037Y-63951627D01*
X53688641Y-63775000D01*
X53706037Y-63598373D01*
X53757557Y-63428534D01*
X53841222Y-63272009D01*
X53870552Y-63236271D01*
X53953814Y-63134814D01*
X54055271Y-63051552D01*
X54091009Y-63022222D01*
X54247534Y-62938557D01*
X54417373Y-62887037D01*
X54483557Y-62880519D01*
X54549740Y-62874000D01*
X54638260Y-62874000D01*
X54704443Y-62880519D01*
X54704443Y-62880519D01*
G37*
G36*
X57244442Y-60340518D02*
G01*
X57310627Y-60347037D01*
X57480466Y-60398557D01*
X57636991Y-60482222D01*
X57672729Y-60511552D01*
X57774186Y-60594814D01*
X57857448Y-60696271D01*
X57886778Y-60732009D01*
X57970443Y-60888534D01*
X58021963Y-61058373D01*
X58039359Y-61235000D01*
X58021963Y-61411627D01*
X57970443Y-61581466D01*
X57886778Y-61737991D01*
X57857448Y-61773729D01*
X57774186Y-61875186D01*
X57672729Y-61958448D01*
X57636991Y-61987778D01*
X57480466Y-62071443D01*
X57310627Y-62122963D01*
X57244443Y-62129481D01*
X57178260Y-62136000D01*
X57089740Y-62136000D01*
X57023557Y-62129481D01*
X56957373Y-62122963D01*
X56787534Y-62071443D01*
X56631009Y-61987778D01*
X56595271Y-61958448D01*
X56493814Y-61875186D01*
X56410552Y-61773729D01*
X56381222Y-61737991D01*
X56297557Y-61581466D01*
X56246037Y-61411627D01*
X56228641Y-61235000D01*
X56246037Y-61058373D01*
X56297557Y-60888534D01*
X56381222Y-60732009D01*
X56410552Y-60696271D01*
X56493814Y-60594814D01*
X56595271Y-60511552D01*
X56631009Y-60482222D01*
X56787534Y-60398557D01*
X56957373Y-60347037D01*
X57023558Y-60340518D01*
X57089740Y-60334000D01*
X57178260Y-60334000D01*
X57244442Y-60340518D01*
X57244442Y-60340518D01*
G37*
G36*
X54704442Y-60340518D02*
G01*
X54770627Y-60347037D01*
X54940466Y-60398557D01*
X55096991Y-60482222D01*
X55132729Y-60511552D01*
X55234186Y-60594814D01*
X55317448Y-60696271D01*
X55346778Y-60732009D01*
X55430443Y-60888534D01*
X55481963Y-61058373D01*
X55499359Y-61235000D01*
X55481963Y-61411627D01*
X55430443Y-61581466D01*
X55346778Y-61737991D01*
X55317448Y-61773729D01*
X55234186Y-61875186D01*
X55132729Y-61958448D01*
X55096991Y-61987778D01*
X54940466Y-62071443D01*
X54770627Y-62122963D01*
X54704443Y-62129481D01*
X54638260Y-62136000D01*
X54549740Y-62136000D01*
X54483557Y-62129481D01*
X54417373Y-62122963D01*
X54247534Y-62071443D01*
X54091009Y-61987778D01*
X54055271Y-61958448D01*
X53953814Y-61875186D01*
X53870552Y-61773729D01*
X53841222Y-61737991D01*
X53757557Y-61581466D01*
X53706037Y-61411627D01*
X53688641Y-61235000D01*
X53706037Y-61058373D01*
X53757557Y-60888534D01*
X53841222Y-60732009D01*
X53870552Y-60696271D01*
X53953814Y-60594814D01*
X54055271Y-60511552D01*
X54091009Y-60482222D01*
X54247534Y-60398557D01*
X54417373Y-60347037D01*
X54483558Y-60340518D01*
X54549740Y-60334000D01*
X54638260Y-60334000D01*
X54704442Y-60340518D01*
X54704442Y-60340518D01*
G37*
G36*
X57244443Y-57800519D02*
G01*
X57310627Y-57807037D01*
X57480466Y-57858557D01*
X57636991Y-57942222D01*
X57672729Y-57971552D01*
X57774186Y-58054814D01*
X57838658Y-58133375D01*
X57886778Y-58192009D01*
X57970443Y-58348534D01*
X58021963Y-58518373D01*
X58039359Y-58695000D01*
X58021963Y-58871627D01*
X57970443Y-59041466D01*
X57886778Y-59197991D01*
X57857448Y-59233729D01*
X57774186Y-59335186D01*
X57672729Y-59418448D01*
X57636991Y-59447778D01*
X57480466Y-59531443D01*
X57310627Y-59582963D01*
X57244442Y-59589482D01*
X57178260Y-59596000D01*
X57089740Y-59596000D01*
X57023558Y-59589482D01*
X56957373Y-59582963D01*
X56787534Y-59531443D01*
X56631009Y-59447778D01*
X56595271Y-59418448D01*
X56493814Y-59335186D01*
X56410552Y-59233729D01*
X56381222Y-59197991D01*
X56297557Y-59041466D01*
X56246037Y-58871627D01*
X56228641Y-58695000D01*
X56246037Y-58518373D01*
X56297557Y-58348534D01*
X56381222Y-58192009D01*
X56429342Y-58133375D01*
X56493814Y-58054814D01*
X56595271Y-57971552D01*
X56631009Y-57942222D01*
X56787534Y-57858557D01*
X56957373Y-57807037D01*
X57023557Y-57800519D01*
X57089740Y-57794000D01*
X57178260Y-57794000D01*
X57244443Y-57800519D01*
X57244443Y-57800519D01*
G37*
G36*
X54704443Y-57800519D02*
G01*
X54770627Y-57807037D01*
X54940466Y-57858557D01*
X55096991Y-57942222D01*
X55132729Y-57971552D01*
X55234186Y-58054814D01*
X55298658Y-58133375D01*
X55346778Y-58192009D01*
X55430443Y-58348534D01*
X55481963Y-58518373D01*
X55499359Y-58695000D01*
X55481963Y-58871627D01*
X55430443Y-59041466D01*
X55346778Y-59197991D01*
X55317448Y-59233729D01*
X55234186Y-59335186D01*
X55132729Y-59418448D01*
X55096991Y-59447778D01*
X54940466Y-59531443D01*
X54770627Y-59582963D01*
X54704442Y-59589482D01*
X54638260Y-59596000D01*
X54549740Y-59596000D01*
X54483558Y-59589482D01*
X54417373Y-59582963D01*
X54247534Y-59531443D01*
X54091009Y-59447778D01*
X54055271Y-59418448D01*
X53953814Y-59335186D01*
X53870552Y-59233729D01*
X53841222Y-59197991D01*
X53757557Y-59041466D01*
X53706037Y-58871627D01*
X53688641Y-58695000D01*
X53706037Y-58518373D01*
X53757557Y-58348534D01*
X53841222Y-58192009D01*
X53889342Y-58133375D01*
X53953814Y-58054814D01*
X54055271Y-57971552D01*
X54091009Y-57942222D01*
X54247534Y-57858557D01*
X54417373Y-57807037D01*
X54483557Y-57800519D01*
X54549740Y-57794000D01*
X54638260Y-57794000D01*
X54704443Y-57800519D01*
X54704443Y-57800519D01*
G37*
G36*
X120110442Y-57415518D02*
G01*
X120176627Y-57422037D01*
X120346466Y-57473557D01*
X120502991Y-57557222D01*
X120538729Y-57586552D01*
X120640186Y-57669814D01*
X120723448Y-57771271D01*
X120752778Y-57807009D01*
X120836443Y-57963534D01*
X120887963Y-58133373D01*
X120905359Y-58310000D01*
X120887963Y-58486627D01*
X120836443Y-58656466D01*
X120752778Y-58812991D01*
X120723448Y-58848729D01*
X120640186Y-58950186D01*
X120538729Y-59033448D01*
X120502991Y-59062778D01*
X120346466Y-59146443D01*
X120176627Y-59197963D01*
X120110442Y-59204482D01*
X120044260Y-59211000D01*
X119955740Y-59211000D01*
X119889558Y-59204482D01*
X119823373Y-59197963D01*
X119653534Y-59146443D01*
X119497009Y-59062778D01*
X119461271Y-59033448D01*
X119359814Y-58950186D01*
X119276552Y-58848729D01*
X119247222Y-58812991D01*
X119163557Y-58656466D01*
X119112037Y-58486627D01*
X119094641Y-58310000D01*
X119112037Y-58133373D01*
X119163557Y-57963534D01*
X119247222Y-57807009D01*
X119276552Y-57771271D01*
X119359814Y-57669814D01*
X119461271Y-57586552D01*
X119497009Y-57557222D01*
X119653534Y-57473557D01*
X119823373Y-57422037D01*
X119889558Y-57415518D01*
X119955740Y-57409000D01*
X120044260Y-57409000D01*
X120110442Y-57415518D01*
X120110442Y-57415518D01*
G37*
G36*
X54704443Y-55260519D02*
G01*
X54770627Y-55267037D01*
X54940466Y-55318557D01*
X55096991Y-55402222D01*
X55132729Y-55431552D01*
X55234186Y-55514814D01*
X55298658Y-55593375D01*
X55346778Y-55652009D01*
X55430443Y-55808534D01*
X55481963Y-55978373D01*
X55499359Y-56155000D01*
X55481963Y-56331627D01*
X55430443Y-56501466D01*
X55346778Y-56657991D01*
X55317448Y-56693729D01*
X55234186Y-56795186D01*
X55132729Y-56878448D01*
X55096991Y-56907778D01*
X54940466Y-56991443D01*
X54770627Y-57042963D01*
X54704442Y-57049482D01*
X54638260Y-57056000D01*
X54549740Y-57056000D01*
X54483558Y-57049482D01*
X54417373Y-57042963D01*
X54247534Y-56991443D01*
X54091009Y-56907778D01*
X54055271Y-56878448D01*
X53953814Y-56795186D01*
X53870552Y-56693729D01*
X53841222Y-56657991D01*
X53757557Y-56501466D01*
X53706037Y-56331627D01*
X53688641Y-56155000D01*
X53706037Y-55978373D01*
X53757557Y-55808534D01*
X53841222Y-55652009D01*
X53889342Y-55593375D01*
X53953814Y-55514814D01*
X54055271Y-55431552D01*
X54091009Y-55402222D01*
X54247534Y-55318557D01*
X54417373Y-55267037D01*
X54483557Y-55260519D01*
X54549740Y-55254000D01*
X54638260Y-55254000D01*
X54704443Y-55260519D01*
X54704443Y-55260519D01*
G37*
G36*
X57244443Y-55260519D02*
G01*
X57310627Y-55267037D01*
X57480466Y-55318557D01*
X57636991Y-55402222D01*
X57672729Y-55431552D01*
X57774186Y-55514814D01*
X57838658Y-55593375D01*
X57886778Y-55652009D01*
X57970443Y-55808534D01*
X58021963Y-55978373D01*
X58039359Y-56155000D01*
X58021963Y-56331627D01*
X57970443Y-56501466D01*
X57886778Y-56657991D01*
X57857448Y-56693729D01*
X57774186Y-56795186D01*
X57672729Y-56878448D01*
X57636991Y-56907778D01*
X57480466Y-56991443D01*
X57310627Y-57042963D01*
X57244442Y-57049482D01*
X57178260Y-57056000D01*
X57089740Y-57056000D01*
X57023558Y-57049482D01*
X56957373Y-57042963D01*
X56787534Y-56991443D01*
X56631009Y-56907778D01*
X56595271Y-56878448D01*
X56493814Y-56795186D01*
X56410552Y-56693729D01*
X56381222Y-56657991D01*
X56297557Y-56501466D01*
X56246037Y-56331627D01*
X56228641Y-56155000D01*
X56246037Y-55978373D01*
X56297557Y-55808534D01*
X56381222Y-55652009D01*
X56429342Y-55593375D01*
X56493814Y-55514814D01*
X56595271Y-55431552D01*
X56631009Y-55402222D01*
X56787534Y-55318557D01*
X56957373Y-55267037D01*
X57023557Y-55260519D01*
X57089740Y-55254000D01*
X57178260Y-55254000D01*
X57244443Y-55260519D01*
X57244443Y-55260519D01*
G37*
G36*
X120110443Y-54875519D02*
G01*
X120176627Y-54882037D01*
X120346466Y-54933557D01*
X120502991Y-55017222D01*
X120538729Y-55046552D01*
X120640186Y-55129814D01*
X120723448Y-55231271D01*
X120752778Y-55267009D01*
X120836443Y-55423534D01*
X120887963Y-55593373D01*
X120905359Y-55770000D01*
X120887963Y-55946627D01*
X120836443Y-56116466D01*
X120752778Y-56272991D01*
X120723448Y-56308729D01*
X120640186Y-56410186D01*
X120538729Y-56493448D01*
X120502991Y-56522778D01*
X120346466Y-56606443D01*
X120176627Y-56657963D01*
X120110443Y-56664481D01*
X120044260Y-56671000D01*
X119955740Y-56671000D01*
X119889557Y-56664481D01*
X119823373Y-56657963D01*
X119653534Y-56606443D01*
X119497009Y-56522778D01*
X119461271Y-56493448D01*
X119359814Y-56410186D01*
X119276552Y-56308729D01*
X119247222Y-56272991D01*
X119163557Y-56116466D01*
X119112037Y-55946627D01*
X119094641Y-55770000D01*
X119112037Y-55593373D01*
X119163557Y-55423534D01*
X119247222Y-55267009D01*
X119276552Y-55231271D01*
X119359814Y-55129814D01*
X119461271Y-55046552D01*
X119497009Y-55017222D01*
X119653534Y-54933557D01*
X119823373Y-54882037D01*
X119889557Y-54875519D01*
X119955740Y-54869000D01*
X120044260Y-54869000D01*
X120110443Y-54875519D01*
X120110443Y-54875519D01*
G37*
G36*
X57244442Y-52720518D02*
G01*
X57310627Y-52727037D01*
X57480466Y-52778557D01*
X57636991Y-52862222D01*
X57672729Y-52891552D01*
X57774186Y-52974814D01*
X57857448Y-53076271D01*
X57886778Y-53112009D01*
X57970443Y-53268534D01*
X58021963Y-53438373D01*
X58039359Y-53615000D01*
X58021963Y-53791627D01*
X57970443Y-53961466D01*
X57886778Y-54117991D01*
X57857448Y-54153729D01*
X57774186Y-54255186D01*
X57672729Y-54338448D01*
X57636991Y-54367778D01*
X57480466Y-54451443D01*
X57310627Y-54502963D01*
X57244443Y-54509481D01*
X57178260Y-54516000D01*
X57089740Y-54516000D01*
X57023557Y-54509481D01*
X56957373Y-54502963D01*
X56787534Y-54451443D01*
X56631009Y-54367778D01*
X56595271Y-54338448D01*
X56493814Y-54255186D01*
X56410552Y-54153729D01*
X56381222Y-54117991D01*
X56297557Y-53961466D01*
X56246037Y-53791627D01*
X56228641Y-53615000D01*
X56246037Y-53438373D01*
X56297557Y-53268534D01*
X56381222Y-53112009D01*
X56410552Y-53076271D01*
X56493814Y-52974814D01*
X56595271Y-52891552D01*
X56631009Y-52862222D01*
X56787534Y-52778557D01*
X56957373Y-52727037D01*
X57023558Y-52720518D01*
X57089740Y-52714000D01*
X57178260Y-52714000D01*
X57244442Y-52720518D01*
X57244442Y-52720518D01*
G37*
G36*
X54704442Y-52720518D02*
G01*
X54770627Y-52727037D01*
X54940466Y-52778557D01*
X55096991Y-52862222D01*
X55132729Y-52891552D01*
X55234186Y-52974814D01*
X55317448Y-53076271D01*
X55346778Y-53112009D01*
X55430443Y-53268534D01*
X55481963Y-53438373D01*
X55499359Y-53615000D01*
X55481963Y-53791627D01*
X55430443Y-53961466D01*
X55346778Y-54117991D01*
X55317448Y-54153729D01*
X55234186Y-54255186D01*
X55132729Y-54338448D01*
X55096991Y-54367778D01*
X54940466Y-54451443D01*
X54770627Y-54502963D01*
X54704443Y-54509481D01*
X54638260Y-54516000D01*
X54549740Y-54516000D01*
X54483557Y-54509481D01*
X54417373Y-54502963D01*
X54247534Y-54451443D01*
X54091009Y-54367778D01*
X54055271Y-54338448D01*
X53953814Y-54255186D01*
X53870552Y-54153729D01*
X53841222Y-54117991D01*
X53757557Y-53961466D01*
X53706037Y-53791627D01*
X53688641Y-53615000D01*
X53706037Y-53438373D01*
X53757557Y-53268534D01*
X53841222Y-53112009D01*
X53870552Y-53076271D01*
X53953814Y-52974814D01*
X54055271Y-52891552D01*
X54091009Y-52862222D01*
X54247534Y-52778557D01*
X54417373Y-52727037D01*
X54483558Y-52720518D01*
X54549740Y-52714000D01*
X54638260Y-52714000D01*
X54704442Y-52720518D01*
X54704442Y-52720518D01*
G37*
G36*
X120901000Y-54131000D02*
G01*
X119099000Y-54131000D01*
X119099000Y-52329000D01*
X120901000Y-52329000D01*
X120901000Y-54131000D01*
X120901000Y-54131000D01*
G37*
G36*
X54704443Y-50180519D02*
G01*
X54770627Y-50187037D01*
X54940466Y-50238557D01*
X55096991Y-50322222D01*
X55132729Y-50351552D01*
X55234186Y-50434814D01*
X55317448Y-50536271D01*
X55346778Y-50572009D01*
X55430443Y-50728534D01*
X55481963Y-50898373D01*
X55499359Y-51075000D01*
X55481963Y-51251627D01*
X55430443Y-51421466D01*
X55346778Y-51577991D01*
X55317448Y-51613729D01*
X55234186Y-51715186D01*
X55132729Y-51798448D01*
X55096991Y-51827778D01*
X54940466Y-51911443D01*
X54770627Y-51962963D01*
X54704442Y-51969482D01*
X54638260Y-51976000D01*
X54549740Y-51976000D01*
X54483558Y-51969482D01*
X54417373Y-51962963D01*
X54247534Y-51911443D01*
X54091009Y-51827778D01*
X54055271Y-51798448D01*
X53953814Y-51715186D01*
X53870552Y-51613729D01*
X53841222Y-51577991D01*
X53757557Y-51421466D01*
X53706037Y-51251627D01*
X53688641Y-51075000D01*
X53706037Y-50898373D01*
X53757557Y-50728534D01*
X53841222Y-50572009D01*
X53870552Y-50536271D01*
X53953814Y-50434814D01*
X54055271Y-50351552D01*
X54091009Y-50322222D01*
X54247534Y-50238557D01*
X54417373Y-50187037D01*
X54483557Y-50180519D01*
X54549740Y-50174000D01*
X54638260Y-50174000D01*
X54704443Y-50180519D01*
X54704443Y-50180519D01*
G37*
G36*
X57244443Y-50180519D02*
G01*
X57310627Y-50187037D01*
X57480466Y-50238557D01*
X57636991Y-50322222D01*
X57672729Y-50351552D01*
X57774186Y-50434814D01*
X57857448Y-50536271D01*
X57886778Y-50572009D01*
X57970443Y-50728534D01*
X58021963Y-50898373D01*
X58039359Y-51075000D01*
X58021963Y-51251627D01*
X57970443Y-51421466D01*
X57886778Y-51577991D01*
X57857448Y-51613729D01*
X57774186Y-51715186D01*
X57672729Y-51798448D01*
X57636991Y-51827778D01*
X57480466Y-51911443D01*
X57310627Y-51962963D01*
X57244442Y-51969482D01*
X57178260Y-51976000D01*
X57089740Y-51976000D01*
X57023558Y-51969482D01*
X56957373Y-51962963D01*
X56787534Y-51911443D01*
X56631009Y-51827778D01*
X56595271Y-51798448D01*
X56493814Y-51715186D01*
X56410552Y-51613729D01*
X56381222Y-51577991D01*
X56297557Y-51421466D01*
X56246037Y-51251627D01*
X56228641Y-51075000D01*
X56246037Y-50898373D01*
X56297557Y-50728534D01*
X56381222Y-50572009D01*
X56410552Y-50536271D01*
X56493814Y-50434814D01*
X56595271Y-50351552D01*
X56631009Y-50322222D01*
X56787534Y-50238557D01*
X56957373Y-50187037D01*
X57023557Y-50180519D01*
X57089740Y-50174000D01*
X57178260Y-50174000D01*
X57244443Y-50180519D01*
X57244443Y-50180519D01*
G37*
G36*
X54704442Y-47640518D02*
G01*
X54770627Y-47647037D01*
X54940466Y-47698557D01*
X55096991Y-47782222D01*
X55132729Y-47811552D01*
X55234186Y-47894814D01*
X55317448Y-47996271D01*
X55346778Y-48032009D01*
X55430443Y-48188534D01*
X55481963Y-48358373D01*
X55499359Y-48535000D01*
X55481963Y-48711627D01*
X55430443Y-48881466D01*
X55346778Y-49037991D01*
X55317448Y-49073729D01*
X55234186Y-49175186D01*
X55132729Y-49258448D01*
X55096991Y-49287778D01*
X54940466Y-49371443D01*
X54770627Y-49422963D01*
X54704442Y-49429482D01*
X54638260Y-49436000D01*
X54549740Y-49436000D01*
X54483558Y-49429482D01*
X54417373Y-49422963D01*
X54247534Y-49371443D01*
X54091009Y-49287778D01*
X54055271Y-49258448D01*
X53953814Y-49175186D01*
X53870552Y-49073729D01*
X53841222Y-49037991D01*
X53757557Y-48881466D01*
X53706037Y-48711627D01*
X53688641Y-48535000D01*
X53706037Y-48358373D01*
X53757557Y-48188534D01*
X53841222Y-48032009D01*
X53870552Y-47996271D01*
X53953814Y-47894814D01*
X54055271Y-47811552D01*
X54091009Y-47782222D01*
X54247534Y-47698557D01*
X54417373Y-47647037D01*
X54483558Y-47640518D01*
X54549740Y-47634000D01*
X54638260Y-47634000D01*
X54704442Y-47640518D01*
X54704442Y-47640518D01*
G37*
G36*
X57244442Y-47640518D02*
G01*
X57310627Y-47647037D01*
X57480466Y-47698557D01*
X57636991Y-47782222D01*
X57672729Y-47811552D01*
X57774186Y-47894814D01*
X57857448Y-47996271D01*
X57886778Y-48032009D01*
X57970443Y-48188534D01*
X58021963Y-48358373D01*
X58039359Y-48535000D01*
X58021963Y-48711627D01*
X57970443Y-48881466D01*
X57886778Y-49037991D01*
X57857448Y-49073729D01*
X57774186Y-49175186D01*
X57672729Y-49258448D01*
X57636991Y-49287778D01*
X57480466Y-49371443D01*
X57310627Y-49422963D01*
X57244442Y-49429482D01*
X57178260Y-49436000D01*
X57089740Y-49436000D01*
X57023558Y-49429482D01*
X56957373Y-49422963D01*
X56787534Y-49371443D01*
X56631009Y-49287778D01*
X56595271Y-49258448D01*
X56493814Y-49175186D01*
X56410552Y-49073729D01*
X56381222Y-49037991D01*
X56297557Y-48881466D01*
X56246037Y-48711627D01*
X56228641Y-48535000D01*
X56246037Y-48358373D01*
X56297557Y-48188534D01*
X56381222Y-48032009D01*
X56410552Y-47996271D01*
X56493814Y-47894814D01*
X56595271Y-47811552D01*
X56631009Y-47782222D01*
X56787534Y-47698557D01*
X56957373Y-47647037D01*
X57023558Y-47640518D01*
X57089740Y-47634000D01*
X57178260Y-47634000D01*
X57244442Y-47640518D01*
X57244442Y-47640518D01*
G37*
G36*
X54704443Y-45100519D02*
G01*
X54770627Y-45107037D01*
X54940466Y-45158557D01*
X55096991Y-45242222D01*
X55132729Y-45271552D01*
X55234186Y-45354814D01*
X55317448Y-45456271D01*
X55346778Y-45492009D01*
X55430443Y-45648534D01*
X55481963Y-45818373D01*
X55499359Y-45995000D01*
X55481963Y-46171627D01*
X55430443Y-46341466D01*
X55346778Y-46497991D01*
X55317448Y-46533729D01*
X55234186Y-46635186D01*
X55132729Y-46718448D01*
X55096991Y-46747778D01*
X54940466Y-46831443D01*
X54770627Y-46882963D01*
X54704443Y-46889481D01*
X54638260Y-46896000D01*
X54549740Y-46896000D01*
X54483557Y-46889481D01*
X54417373Y-46882963D01*
X54247534Y-46831443D01*
X54091009Y-46747778D01*
X54055271Y-46718448D01*
X53953814Y-46635186D01*
X53870552Y-46533729D01*
X53841222Y-46497991D01*
X53757557Y-46341466D01*
X53706037Y-46171627D01*
X53688641Y-45995000D01*
X53706037Y-45818373D01*
X53757557Y-45648534D01*
X53841222Y-45492009D01*
X53870552Y-45456271D01*
X53953814Y-45354814D01*
X54055271Y-45271552D01*
X54091009Y-45242222D01*
X54247534Y-45158557D01*
X54417373Y-45107037D01*
X54483557Y-45100519D01*
X54549740Y-45094000D01*
X54638260Y-45094000D01*
X54704443Y-45100519D01*
X54704443Y-45100519D01*
G37*
G36*
X57244443Y-45100519D02*
G01*
X57310627Y-45107037D01*
X57480466Y-45158557D01*
X57636991Y-45242222D01*
X57672729Y-45271552D01*
X57774186Y-45354814D01*
X57857448Y-45456271D01*
X57886778Y-45492009D01*
X57970443Y-45648534D01*
X58021963Y-45818373D01*
X58039359Y-45995000D01*
X58021963Y-46171627D01*
X57970443Y-46341466D01*
X57886778Y-46497991D01*
X57857448Y-46533729D01*
X57774186Y-46635186D01*
X57672729Y-46718448D01*
X57636991Y-46747778D01*
X57480466Y-46831443D01*
X57310627Y-46882963D01*
X57244443Y-46889481D01*
X57178260Y-46896000D01*
X57089740Y-46896000D01*
X57023557Y-46889481D01*
X56957373Y-46882963D01*
X56787534Y-46831443D01*
X56631009Y-46747778D01*
X56595271Y-46718448D01*
X56493814Y-46635186D01*
X56410552Y-46533729D01*
X56381222Y-46497991D01*
X56297557Y-46341466D01*
X56246037Y-46171627D01*
X56228641Y-45995000D01*
X56246037Y-45818373D01*
X56297557Y-45648534D01*
X56381222Y-45492009D01*
X56410552Y-45456271D01*
X56493814Y-45354814D01*
X56595271Y-45271552D01*
X56631009Y-45242222D01*
X56787534Y-45158557D01*
X56957373Y-45107037D01*
X57023557Y-45100519D01*
X57089740Y-45094000D01*
X57178260Y-45094000D01*
X57244443Y-45100519D01*
X57244443Y-45100519D01*
G37*
G36*
X120110443Y-43925519D02*
G01*
X120176627Y-43932037D01*
X120346466Y-43983557D01*
X120502991Y-44067222D01*
X120537064Y-44095185D01*
X120640186Y-44179814D01*
X120723448Y-44281271D01*
X120752778Y-44317009D01*
X120836443Y-44473534D01*
X120887963Y-44643373D01*
X120905359Y-44820000D01*
X120887963Y-44996627D01*
X120836443Y-45166466D01*
X120752778Y-45322991D01*
X120723448Y-45358729D01*
X120640186Y-45460186D01*
X120538729Y-45543448D01*
X120502991Y-45572778D01*
X120346466Y-45656443D01*
X120176627Y-45707963D01*
X120110442Y-45714482D01*
X120044260Y-45721000D01*
X119955740Y-45721000D01*
X119889557Y-45714481D01*
X119823373Y-45707963D01*
X119653534Y-45656443D01*
X119497009Y-45572778D01*
X119461271Y-45543448D01*
X119359814Y-45460186D01*
X119276552Y-45358729D01*
X119247222Y-45322991D01*
X119163557Y-45166466D01*
X119112037Y-44996627D01*
X119094641Y-44820000D01*
X119112037Y-44643373D01*
X119163557Y-44473534D01*
X119247222Y-44317009D01*
X119276552Y-44281271D01*
X119359814Y-44179814D01*
X119462936Y-44095185D01*
X119497009Y-44067222D01*
X119653534Y-43983557D01*
X119823373Y-43932037D01*
X119889558Y-43925518D01*
X119955740Y-43919000D01*
X120044260Y-43919000D01*
X120110443Y-43925519D01*
X120110443Y-43925519D01*
G37*
G36*
X57244442Y-42560518D02*
G01*
X57310627Y-42567037D01*
X57480466Y-42618557D01*
X57636991Y-42702222D01*
X57672729Y-42731552D01*
X57774186Y-42814814D01*
X57857448Y-42916271D01*
X57886778Y-42952009D01*
X57970443Y-43108534D01*
X58021963Y-43278373D01*
X58039359Y-43455000D01*
X58021963Y-43631627D01*
X57970443Y-43801466D01*
X57886778Y-43957991D01*
X57857448Y-43993729D01*
X57774186Y-44095186D01*
X57672729Y-44178448D01*
X57636991Y-44207778D01*
X57480466Y-44291443D01*
X57310627Y-44342963D01*
X57244442Y-44349482D01*
X57178260Y-44356000D01*
X57089740Y-44356000D01*
X57023558Y-44349482D01*
X56957373Y-44342963D01*
X56787534Y-44291443D01*
X56631009Y-44207778D01*
X56595271Y-44178448D01*
X56493814Y-44095186D01*
X56410552Y-43993729D01*
X56381222Y-43957991D01*
X56297557Y-43801466D01*
X56246037Y-43631627D01*
X56228641Y-43455000D01*
X56246037Y-43278373D01*
X56297557Y-43108534D01*
X56381222Y-42952009D01*
X56410552Y-42916271D01*
X56493814Y-42814814D01*
X56595271Y-42731552D01*
X56631009Y-42702222D01*
X56787534Y-42618557D01*
X56957373Y-42567037D01*
X57023558Y-42560518D01*
X57089740Y-42554000D01*
X57178260Y-42554000D01*
X57244442Y-42560518D01*
X57244442Y-42560518D01*
G37*
G36*
X54704442Y-42560518D02*
G01*
X54770627Y-42567037D01*
X54940466Y-42618557D01*
X55096991Y-42702222D01*
X55132729Y-42731552D01*
X55234186Y-42814814D01*
X55317448Y-42916271D01*
X55346778Y-42952009D01*
X55430443Y-43108534D01*
X55481963Y-43278373D01*
X55499359Y-43455000D01*
X55481963Y-43631627D01*
X55430443Y-43801466D01*
X55346778Y-43957991D01*
X55317448Y-43993729D01*
X55234186Y-44095186D01*
X55132729Y-44178448D01*
X55096991Y-44207778D01*
X54940466Y-44291443D01*
X54770627Y-44342963D01*
X54704442Y-44349482D01*
X54638260Y-44356000D01*
X54549740Y-44356000D01*
X54483558Y-44349482D01*
X54417373Y-44342963D01*
X54247534Y-44291443D01*
X54091009Y-44207778D01*
X54055271Y-44178448D01*
X53953814Y-44095186D01*
X53870552Y-43993729D01*
X53841222Y-43957991D01*
X53757557Y-43801466D01*
X53706037Y-43631627D01*
X53688641Y-43455000D01*
X53706037Y-43278373D01*
X53757557Y-43108534D01*
X53841222Y-42952009D01*
X53870552Y-42916271D01*
X53953814Y-42814814D01*
X54055271Y-42731552D01*
X54091009Y-42702222D01*
X54247534Y-42618557D01*
X54417373Y-42567037D01*
X54483558Y-42560518D01*
X54549740Y-42554000D01*
X54638260Y-42554000D01*
X54704442Y-42560518D01*
X54704442Y-42560518D01*
G37*
G36*
X120110443Y-41385519D02*
G01*
X120176627Y-41392037D01*
X120346466Y-41443557D01*
X120502991Y-41527222D01*
X120537064Y-41555185D01*
X120640186Y-41639814D01*
X120723448Y-41741271D01*
X120752778Y-41777009D01*
X120836443Y-41933534D01*
X120887963Y-42103373D01*
X120905359Y-42280000D01*
X120887963Y-42456627D01*
X120836443Y-42626466D01*
X120752778Y-42782991D01*
X120723448Y-42818729D01*
X120640186Y-42920186D01*
X120538729Y-43003448D01*
X120502991Y-43032778D01*
X120346466Y-43116443D01*
X120176627Y-43167963D01*
X120110442Y-43174482D01*
X120044260Y-43181000D01*
X119955740Y-43181000D01*
X119889557Y-43174481D01*
X119823373Y-43167963D01*
X119653534Y-43116443D01*
X119497009Y-43032778D01*
X119461271Y-43003448D01*
X119359814Y-42920186D01*
X119276552Y-42818729D01*
X119247222Y-42782991D01*
X119163557Y-42626466D01*
X119112037Y-42456627D01*
X119094641Y-42280000D01*
X119112037Y-42103373D01*
X119163557Y-41933534D01*
X119247222Y-41777009D01*
X119276552Y-41741271D01*
X119359814Y-41639814D01*
X119462936Y-41555185D01*
X119497009Y-41527222D01*
X119653534Y-41443557D01*
X119823373Y-41392037D01*
X119889557Y-41385519D01*
X119955740Y-41379000D01*
X120044260Y-41379000D01*
X120110443Y-41385519D01*
X120110443Y-41385519D01*
G37*
G36*
X54704442Y-40020518D02*
G01*
X54770627Y-40027037D01*
X54940466Y-40078557D01*
X55096991Y-40162222D01*
X55132729Y-40191552D01*
X55234186Y-40274814D01*
X55317448Y-40376271D01*
X55346778Y-40412009D01*
X55430443Y-40568534D01*
X55481963Y-40738373D01*
X55499359Y-40915000D01*
X55481963Y-41091627D01*
X55430443Y-41261466D01*
X55346778Y-41417991D01*
X55317448Y-41453729D01*
X55234186Y-41555186D01*
X55132729Y-41638448D01*
X55096991Y-41667778D01*
X54940466Y-41751443D01*
X54770627Y-41802963D01*
X54704443Y-41809481D01*
X54638260Y-41816000D01*
X54549740Y-41816000D01*
X54483557Y-41809481D01*
X54417373Y-41802963D01*
X54247534Y-41751443D01*
X54091009Y-41667778D01*
X54055271Y-41638448D01*
X53953814Y-41555186D01*
X53870552Y-41453729D01*
X53841222Y-41417991D01*
X53757557Y-41261466D01*
X53706037Y-41091627D01*
X53688641Y-40915000D01*
X53706037Y-40738373D01*
X53757557Y-40568534D01*
X53841222Y-40412009D01*
X53870552Y-40376271D01*
X53953814Y-40274814D01*
X54055271Y-40191552D01*
X54091009Y-40162222D01*
X54247534Y-40078557D01*
X54417373Y-40027037D01*
X54483558Y-40020518D01*
X54549740Y-40014000D01*
X54638260Y-40014000D01*
X54704442Y-40020518D01*
X54704442Y-40020518D01*
G37*
G36*
X57244442Y-40020518D02*
G01*
X57310627Y-40027037D01*
X57480466Y-40078557D01*
X57636991Y-40162222D01*
X57672729Y-40191552D01*
X57774186Y-40274814D01*
X57857448Y-40376271D01*
X57886778Y-40412009D01*
X57970443Y-40568534D01*
X58021963Y-40738373D01*
X58039359Y-40915000D01*
X58021963Y-41091627D01*
X57970443Y-41261466D01*
X57886778Y-41417991D01*
X57857448Y-41453729D01*
X57774186Y-41555186D01*
X57672729Y-41638448D01*
X57636991Y-41667778D01*
X57480466Y-41751443D01*
X57310627Y-41802963D01*
X57244443Y-41809481D01*
X57178260Y-41816000D01*
X57089740Y-41816000D01*
X57023557Y-41809481D01*
X56957373Y-41802963D01*
X56787534Y-41751443D01*
X56631009Y-41667778D01*
X56595271Y-41638448D01*
X56493814Y-41555186D01*
X56410552Y-41453729D01*
X56381222Y-41417991D01*
X56297557Y-41261466D01*
X56246037Y-41091627D01*
X56228641Y-40915000D01*
X56246037Y-40738373D01*
X56297557Y-40568534D01*
X56381222Y-40412009D01*
X56410552Y-40376271D01*
X56493814Y-40274814D01*
X56595271Y-40191552D01*
X56631009Y-40162222D01*
X56787534Y-40078557D01*
X56957373Y-40027037D01*
X57023558Y-40020518D01*
X57089740Y-40014000D01*
X57178260Y-40014000D01*
X57244442Y-40020518D01*
X57244442Y-40020518D01*
G37*
G36*
X120901000Y-40641000D02*
G01*
X119099000Y-40641000D01*
X119099000Y-38839000D01*
X120901000Y-38839000D01*
X120901000Y-40641000D01*
X120901000Y-40641000D01*
G37*
G36*
X57244442Y-37480518D02*
G01*
X57310627Y-37487037D01*
X57480466Y-37538557D01*
X57636991Y-37622222D01*
X57672729Y-37651552D01*
X57774186Y-37734814D01*
X57857448Y-37836271D01*
X57886778Y-37872009D01*
X57970443Y-38028534D01*
X58021963Y-38198373D01*
X58039359Y-38375000D01*
X58021963Y-38551627D01*
X57970443Y-38721466D01*
X57886778Y-38877991D01*
X57857448Y-38913729D01*
X57774186Y-39015186D01*
X57672729Y-39098448D01*
X57636991Y-39127778D01*
X57480466Y-39211443D01*
X57310627Y-39262963D01*
X57244442Y-39269482D01*
X57178260Y-39276000D01*
X57089740Y-39276000D01*
X57023558Y-39269482D01*
X56957373Y-39262963D01*
X56787534Y-39211443D01*
X56631009Y-39127778D01*
X56595271Y-39098448D01*
X56493814Y-39015186D01*
X56410552Y-38913729D01*
X56381222Y-38877991D01*
X56297557Y-38721466D01*
X56246037Y-38551627D01*
X56228641Y-38375000D01*
X56246037Y-38198373D01*
X56297557Y-38028534D01*
X56381222Y-37872009D01*
X56410552Y-37836271D01*
X56493814Y-37734814D01*
X56595271Y-37651552D01*
X56631009Y-37622222D01*
X56787534Y-37538557D01*
X56957373Y-37487037D01*
X57023558Y-37480518D01*
X57089740Y-37474000D01*
X57178260Y-37474000D01*
X57244442Y-37480518D01*
X57244442Y-37480518D01*
G37*
G36*
X55495000Y-39276000D02*
G01*
X53693000Y-39276000D01*
X53693000Y-37474000D01*
X55495000Y-37474000D01*
X55495000Y-39276000D01*
X55495000Y-39276000D01*
G37*
G36*
X55846189Y-27210483D02*
G01*
X55846192Y-27210484D01*
X55846191Y-27210484D01*
X56374139Y-27429167D01*
X56849280Y-27746646D01*
X57253354Y-28150720D01*
X57570833Y-28625861D01*
X57570834Y-28625863D01*
X57789517Y-29153811D01*
X57901000Y-29714275D01*
X57901000Y-30285725D01*
X57789517Y-30846189D01*
X57570834Y-31374137D01*
X57570833Y-31374139D01*
X57253354Y-31849280D01*
X56849280Y-32253354D01*
X56374139Y-32570833D01*
X56374138Y-32570834D01*
X56374137Y-32570834D01*
X55846189Y-32789517D01*
X55285725Y-32901000D01*
X54714275Y-32901000D01*
X54153811Y-32789517D01*
X53625863Y-32570834D01*
X53625862Y-32570834D01*
X53625861Y-32570833D01*
X53150720Y-32253354D01*
X52746646Y-31849280D01*
X52429167Y-31374139D01*
X52429166Y-31374137D01*
X52210483Y-30846189D01*
X52099000Y-30285725D01*
X52099000Y-29714275D01*
X52210483Y-29153811D01*
X52429166Y-28625863D01*
X52429167Y-28625861D01*
X52746646Y-28150720D01*
X53150720Y-27746646D01*
X53625861Y-27429167D01*
X54153809Y-27210484D01*
X54153808Y-27210484D01*
X54153811Y-27210483D01*
X54714275Y-27099000D01*
X55285725Y-27099000D01*
X55846189Y-27210483D01*
X55846189Y-27210483D01*
G37*
G36*
X120846189Y-27210483D02*
G01*
X120846192Y-27210484D01*
X120846191Y-27210484D01*
X121374139Y-27429167D01*
X121849280Y-27746646D01*
X122253354Y-28150720D01*
X122570833Y-28625861D01*
X122570834Y-28625863D01*
X122789517Y-29153811D01*
X122901000Y-29714275D01*
X122901000Y-30285725D01*
X122789517Y-30846189D01*
X122570834Y-31374137D01*
X122570833Y-31374139D01*
X122253354Y-31849280D01*
X121849280Y-32253354D01*
X121374139Y-32570833D01*
X121374138Y-32570834D01*
X121374137Y-32570834D01*
X120846189Y-32789517D01*
X120285725Y-32901000D01*
X119714275Y-32901000D01*
X119153811Y-32789517D01*
X118625863Y-32570834D01*
X118625862Y-32570834D01*
X118625861Y-32570833D01*
X118150720Y-32253354D01*
X117746646Y-31849280D01*
X117429167Y-31374139D01*
X117429166Y-31374137D01*
X117210483Y-30846189D01*
X117099000Y-30285725D01*
X117099000Y-29714275D01*
X117210483Y-29153811D01*
X117429166Y-28625863D01*
X117429167Y-28625861D01*
X117746646Y-28150720D01*
X118150720Y-27746646D01*
X118625861Y-27429167D01*
X119153809Y-27210484D01*
X119153808Y-27210484D01*
X119153811Y-27210483D01*
X119714275Y-27099000D01*
X120285725Y-27099000D01*
X120846189Y-27210483D01*
X120846189Y-27210483D01*
G37*
G36*
X78310442Y-29105518D02*
G01*
X78376627Y-29112037D01*
X78546466Y-29163557D01*
X78702991Y-29247222D01*
X78738729Y-29276552D01*
X78840186Y-29359814D01*
X78923448Y-29461271D01*
X78952778Y-29497009D01*
X79036443Y-29653534D01*
X79087963Y-29823373D01*
X79105359Y-30000000D01*
X79087963Y-30176627D01*
X79036443Y-30346466D01*
X78952778Y-30502991D01*
X78923448Y-30538729D01*
X78840186Y-30640186D01*
X78738729Y-30723448D01*
X78702991Y-30752778D01*
X78546466Y-30836443D01*
X78376627Y-30887963D01*
X78310442Y-30894482D01*
X78244260Y-30901000D01*
X78155740Y-30901000D01*
X78089558Y-30894482D01*
X78023373Y-30887963D01*
X77853534Y-30836443D01*
X77697009Y-30752778D01*
X77661271Y-30723448D01*
X77559814Y-30640186D01*
X77476552Y-30538729D01*
X77447222Y-30502991D01*
X77363557Y-30346466D01*
X77312037Y-30176627D01*
X77294641Y-30000000D01*
X77312037Y-29823373D01*
X77363557Y-29653534D01*
X77447222Y-29497009D01*
X77476552Y-29461271D01*
X77559814Y-29359814D01*
X77661271Y-29276552D01*
X77697009Y-29247222D01*
X77853534Y-29163557D01*
X78023373Y-29112037D01*
X78089558Y-29105518D01*
X78155740Y-29099000D01*
X78244260Y-29099000D01*
X78310442Y-29105518D01*
X78310442Y-29105518D01*
G37*
G36*
X80850442Y-29105518D02*
G01*
X80916627Y-29112037D01*
X81086466Y-29163557D01*
X81242991Y-29247222D01*
X81278729Y-29276552D01*
X81380186Y-29359814D01*
X81463448Y-29461271D01*
X81492778Y-29497009D01*
X81576443Y-29653534D01*
X81627963Y-29823373D01*
X81645359Y-30000000D01*
X81627963Y-30176627D01*
X81576443Y-30346466D01*
X81492778Y-30502991D01*
X81463448Y-30538729D01*
X81380186Y-30640186D01*
X81278729Y-30723448D01*
X81242991Y-30752778D01*
X81086466Y-30836443D01*
X80916627Y-30887963D01*
X80850442Y-30894482D01*
X80784260Y-30901000D01*
X80695740Y-30901000D01*
X80629558Y-30894482D01*
X80563373Y-30887963D01*
X80393534Y-30836443D01*
X80237009Y-30752778D01*
X80201271Y-30723448D01*
X80099814Y-30640186D01*
X80016552Y-30538729D01*
X79987222Y-30502991D01*
X79903557Y-30346466D01*
X79852037Y-30176627D01*
X79834641Y-30000000D01*
X79852037Y-29823373D01*
X79903557Y-29653534D01*
X79987222Y-29497009D01*
X80016552Y-29461271D01*
X80099814Y-29359814D01*
X80201271Y-29276552D01*
X80237009Y-29247222D01*
X80393534Y-29163557D01*
X80563373Y-29112037D01*
X80629558Y-29105518D01*
X80695740Y-29099000D01*
X80784260Y-29099000D01*
X80850442Y-29105518D01*
X80850442Y-29105518D01*
G37*
G36*
X84181000Y-30901000D02*
G01*
X82379000Y-30901000D01*
X82379000Y-29099000D01*
X84181000Y-29099000D01*
X84181000Y-30901000D01*
X84181000Y-30901000D01*
G37*
G36*
X64820442Y-29105518D02*
G01*
X64886627Y-29112037D01*
X65056466Y-29163557D01*
X65212991Y-29247222D01*
X65248729Y-29276552D01*
X65350186Y-29359814D01*
X65433448Y-29461271D01*
X65462778Y-29497009D01*
X65546443Y-29653534D01*
X65597963Y-29823373D01*
X65615359Y-30000000D01*
X65597963Y-30176627D01*
X65546443Y-30346466D01*
X65462778Y-30502991D01*
X65433448Y-30538729D01*
X65350186Y-30640186D01*
X65248729Y-30723448D01*
X65212991Y-30752778D01*
X65056466Y-30836443D01*
X64886627Y-30887963D01*
X64820442Y-30894482D01*
X64754260Y-30901000D01*
X64665740Y-30901000D01*
X64599558Y-30894482D01*
X64533373Y-30887963D01*
X64363534Y-30836443D01*
X64207009Y-30752778D01*
X64171271Y-30723448D01*
X64069814Y-30640186D01*
X63986552Y-30538729D01*
X63957222Y-30502991D01*
X63873557Y-30346466D01*
X63822037Y-30176627D01*
X63804641Y-30000000D01*
X63822037Y-29823373D01*
X63873557Y-29653534D01*
X63957222Y-29497009D01*
X63986552Y-29461271D01*
X64069814Y-29359814D01*
X64171271Y-29276552D01*
X64207009Y-29247222D01*
X64363534Y-29163557D01*
X64533373Y-29112037D01*
X64599558Y-29105518D01*
X64665740Y-29099000D01*
X64754260Y-29099000D01*
X64820442Y-29105518D01*
X64820442Y-29105518D01*
G37*
G36*
X67360442Y-29105518D02*
G01*
X67426627Y-29112037D01*
X67596466Y-29163557D01*
X67752991Y-29247222D01*
X67788729Y-29276552D01*
X67890186Y-29359814D01*
X67973448Y-29461271D01*
X68002778Y-29497009D01*
X68086443Y-29653534D01*
X68137963Y-29823373D01*
X68155359Y-30000000D01*
X68137963Y-30176627D01*
X68086443Y-30346466D01*
X68002778Y-30502991D01*
X67973448Y-30538729D01*
X67890186Y-30640186D01*
X67788729Y-30723448D01*
X67752991Y-30752778D01*
X67596466Y-30836443D01*
X67426627Y-30887963D01*
X67360442Y-30894482D01*
X67294260Y-30901000D01*
X67205740Y-30901000D01*
X67139558Y-30894482D01*
X67073373Y-30887963D01*
X66903534Y-30836443D01*
X66747009Y-30752778D01*
X66711271Y-30723448D01*
X66609814Y-30640186D01*
X66526552Y-30538729D01*
X66497222Y-30502991D01*
X66413557Y-30346466D01*
X66362037Y-30176627D01*
X66344641Y-30000000D01*
X66362037Y-29823373D01*
X66413557Y-29653534D01*
X66497222Y-29497009D01*
X66526552Y-29461271D01*
X66609814Y-29359814D01*
X66711271Y-29276552D01*
X66747009Y-29247222D01*
X66903534Y-29163557D01*
X67073373Y-29112037D01*
X67139558Y-29105518D01*
X67205740Y-29099000D01*
X67294260Y-29099000D01*
X67360442Y-29105518D01*
X67360442Y-29105518D01*
G37*
G36*
X70691000Y-30901000D02*
G01*
X68889000Y-30901000D01*
X68889000Y-29099000D01*
X70691000Y-29099000D01*
X70691000Y-30901000D01*
X70691000Y-30901000D01*
G37*
G36*
X91800442Y-29105518D02*
G01*
X91866627Y-29112037D01*
X92036466Y-29163557D01*
X92192991Y-29247222D01*
X92228729Y-29276552D01*
X92330186Y-29359814D01*
X92413448Y-29461271D01*
X92442778Y-29497009D01*
X92526443Y-29653534D01*
X92577963Y-29823373D01*
X92595359Y-30000000D01*
X92577963Y-30176627D01*
X92526443Y-30346466D01*
X92442778Y-30502991D01*
X92413448Y-30538729D01*
X92330186Y-30640186D01*
X92228729Y-30723448D01*
X92192991Y-30752778D01*
X92036466Y-30836443D01*
X91866627Y-30887963D01*
X91800442Y-30894482D01*
X91734260Y-30901000D01*
X91645740Y-30901000D01*
X91579558Y-30894482D01*
X91513373Y-30887963D01*
X91343534Y-30836443D01*
X91187009Y-30752778D01*
X91151271Y-30723448D01*
X91049814Y-30640186D01*
X90966552Y-30538729D01*
X90937222Y-30502991D01*
X90853557Y-30346466D01*
X90802037Y-30176627D01*
X90784641Y-30000000D01*
X90802037Y-29823373D01*
X90853557Y-29653534D01*
X90937222Y-29497009D01*
X90966552Y-29461271D01*
X91049814Y-29359814D01*
X91151271Y-29276552D01*
X91187009Y-29247222D01*
X91343534Y-29163557D01*
X91513373Y-29112037D01*
X91579558Y-29105518D01*
X91645740Y-29099000D01*
X91734260Y-29099000D01*
X91800442Y-29105518D01*
X91800442Y-29105518D01*
G37*
G36*
X97671000Y-30901000D02*
G01*
X95869000Y-30901000D01*
X95869000Y-29099000D01*
X97671000Y-29099000D01*
X97671000Y-30901000D01*
X97671000Y-30901000D01*
G37*
G36*
X105290442Y-29105518D02*
G01*
X105356627Y-29112037D01*
X105526466Y-29163557D01*
X105682991Y-29247222D01*
X105718729Y-29276552D01*
X105820186Y-29359814D01*
X105903448Y-29461271D01*
X105932778Y-29497009D01*
X106016443Y-29653534D01*
X106067963Y-29823373D01*
X106085359Y-30000000D01*
X106067963Y-30176627D01*
X106016443Y-30346466D01*
X105932778Y-30502991D01*
X105903448Y-30538729D01*
X105820186Y-30640186D01*
X105718729Y-30723448D01*
X105682991Y-30752778D01*
X105526466Y-30836443D01*
X105356627Y-30887963D01*
X105290442Y-30894482D01*
X105224260Y-30901000D01*
X105135740Y-30901000D01*
X105069558Y-30894482D01*
X105003373Y-30887963D01*
X104833534Y-30836443D01*
X104677009Y-30752778D01*
X104641271Y-30723448D01*
X104539814Y-30640186D01*
X104456552Y-30538729D01*
X104427222Y-30502991D01*
X104343557Y-30346466D01*
X104292037Y-30176627D01*
X104274641Y-30000000D01*
X104292037Y-29823373D01*
X104343557Y-29653534D01*
X104427222Y-29497009D01*
X104456552Y-29461271D01*
X104539814Y-29359814D01*
X104641271Y-29276552D01*
X104677009Y-29247222D01*
X104833534Y-29163557D01*
X105003373Y-29112037D01*
X105069558Y-29105518D01*
X105135740Y-29099000D01*
X105224260Y-29099000D01*
X105290442Y-29105518D01*
X105290442Y-29105518D01*
G37*
G36*
X107830442Y-29105518D02*
G01*
X107896627Y-29112037D01*
X108066466Y-29163557D01*
X108222991Y-29247222D01*
X108258729Y-29276552D01*
X108360186Y-29359814D01*
X108443448Y-29461271D01*
X108472778Y-29497009D01*
X108556443Y-29653534D01*
X108607963Y-29823373D01*
X108625359Y-30000000D01*
X108607963Y-30176627D01*
X108556443Y-30346466D01*
X108472778Y-30502991D01*
X108443448Y-30538729D01*
X108360186Y-30640186D01*
X108258729Y-30723448D01*
X108222991Y-30752778D01*
X108066466Y-30836443D01*
X107896627Y-30887963D01*
X107830442Y-30894482D01*
X107764260Y-30901000D01*
X107675740Y-30901000D01*
X107609558Y-30894482D01*
X107543373Y-30887963D01*
X107373534Y-30836443D01*
X107217009Y-30752778D01*
X107181271Y-30723448D01*
X107079814Y-30640186D01*
X106996552Y-30538729D01*
X106967222Y-30502991D01*
X106883557Y-30346466D01*
X106832037Y-30176627D01*
X106814641Y-30000000D01*
X106832037Y-29823373D01*
X106883557Y-29653534D01*
X106967222Y-29497009D01*
X106996552Y-29461271D01*
X107079814Y-29359814D01*
X107181271Y-29276552D01*
X107217009Y-29247222D01*
X107373534Y-29163557D01*
X107543373Y-29112037D01*
X107609558Y-29105518D01*
X107675740Y-29099000D01*
X107764260Y-29099000D01*
X107830442Y-29105518D01*
X107830442Y-29105518D01*
G37*
G36*
X111161000Y-30901000D02*
G01*
X109359000Y-30901000D01*
X109359000Y-29099000D01*
X111161000Y-29099000D01*
X111161000Y-30901000D01*
X111161000Y-30901000D01*
G37*
G36*
X94340442Y-29105518D02*
G01*
X94406627Y-29112037D01*
X94576466Y-29163557D01*
X94732991Y-29247222D01*
X94768729Y-29276552D01*
X94870186Y-29359814D01*
X94953448Y-29461271D01*
X94982778Y-29497009D01*
X95066443Y-29653534D01*
X95117963Y-29823373D01*
X95135359Y-30000000D01*
X95117963Y-30176627D01*
X95066443Y-30346466D01*
X94982778Y-30502991D01*
X94953448Y-30538729D01*
X94870186Y-30640186D01*
X94768729Y-30723448D01*
X94732991Y-30752778D01*
X94576466Y-30836443D01*
X94406627Y-30887963D01*
X94340442Y-30894482D01*
X94274260Y-30901000D01*
X94185740Y-30901000D01*
X94119558Y-30894482D01*
X94053373Y-30887963D01*
X93883534Y-30836443D01*
X93727009Y-30752778D01*
X93691271Y-30723448D01*
X93589814Y-30640186D01*
X93506552Y-30538729D01*
X93477222Y-30502991D01*
X93393557Y-30346466D01*
X93342037Y-30176627D01*
X93324641Y-30000000D01*
X93342037Y-29823373D01*
X93393557Y-29653534D01*
X93477222Y-29497009D01*
X93506552Y-29461271D01*
X93589814Y-29359814D01*
X93691271Y-29276552D01*
X93727009Y-29247222D01*
X93883534Y-29163557D01*
X94053373Y-29112037D01*
X94119558Y-29105518D01*
X94185740Y-29099000D01*
X94274260Y-29099000D01*
X94340442Y-29105518D01*
X94340442Y-29105518D01*
G37*
M02*
