M48
; DRILL file {KiCad (5.1.4-0-10_14)} date Wednesday, 30 December 2020 at 10:53:41
; FORMAT={-:-/ absolute / inch / decimal}
; #@! TF.CreationDate,2020-12-30T10:53:41-07:00
; #@! TF.GenerationSoftware,Kicad,Pcbnew,(5.1.4-0-10_14)
FMAT,2
INCH
T1C0.0157
T2C0.0394
T3C0.0630
T4C0.1260
%
G90
G05
T1
X2.445Y-1.61
X2.51Y-2.565
X2.815Y-2.31
X2.97Y-1.785
X3.04Y-1.965
X3.045Y-1.76
X3.215Y-2.47
X3.395Y-2.62
X3.51Y-1.735
T2
X2.5476Y-1.1811
X2.6476Y-1.1811
X2.7476Y-1.1811
X4.7244Y-2.6268
X4.7244Y-2.7268
X4.7244Y-2.8268
X4.0374Y-3.742
X4.1374Y-3.742
X4.2374Y-3.742
X2.6535Y-3.742
X2.7535Y-3.742
X2.8535Y-3.742
X3.6098Y-1.1811
X3.7098Y-1.1811
X3.8098Y-1.1811
X2.1494Y-1.5108
X2.1494Y-1.6108
X2.1494Y-1.7108
X2.1494Y-1.8108
X2.1494Y-1.9108
X2.1494Y-2.0108
X2.1494Y-2.1108
X2.1494Y-2.2108
X2.1494Y-2.3108
X2.1494Y-2.4108
X2.1494Y-2.5108
X2.1494Y-2.6108
X2.1494Y-2.7108
X2.1494Y-2.8108
X2.1494Y-2.9108
X2.1494Y-3.0108
X2.1494Y-3.1108
X2.1494Y-3.2108
X2.1494Y-3.3108
X2.1494Y-3.4108
X2.2494Y-1.5108
X2.2494Y-1.6108
X2.2494Y-1.7108
X2.2494Y-1.8108
X2.2494Y-1.9108
X2.2494Y-2.0108
X2.2494Y-2.1108
X2.2494Y-2.2108
X2.2494Y-2.3108
X2.2494Y-2.4108
X2.2494Y-2.5108
X2.2494Y-2.6108
X2.2494Y-2.7108
X2.2494Y-2.8108
X2.2494Y-2.9108
X2.2494Y-3.0108
X2.2494Y-3.1108
X2.2494Y-3.2108
X2.2494Y-3.3108
X2.2494Y-3.4108
X4.7244Y-2.0957
X4.7244Y-2.1957
X4.7244Y-2.2957
X4.7244Y-1.5646
X4.7244Y-1.6646
X4.7244Y-1.7646
X3.0787Y-1.1811
X3.1787Y-1.1811
X3.2787Y-1.1811
X4.7244Y-3.1579
X4.7244Y-3.2579
X4.7244Y-3.3579
X4.1409Y-1.1811
X4.2409Y-1.1811
X4.3409Y-1.1811
T3
X3.4154Y-3.2538
X3.4154Y-3.49
X3.6004Y-3.3719
T4
X4.7244Y-1.1811
X2.1654Y-3.7402
X4.7244Y-3.7402
X2.1654Y-1.1811
T0
M30
