G04 #@! TF.GenerationSoftware,KiCad,Pcbnew,(5.1.4-0-10_14)*
G04 #@! TF.CreationDate,2020-12-31T20:35:18-07:00*
G04 #@! TF.ProjectId,Motherboard,4d6f7468-6572-4626-9f61-72642e6b6963,rev?*
G04 #@! TF.SameCoordinates,Original*
G04 #@! TF.FileFunction,Paste,Top*
G04 #@! TF.FilePolarity,Positive*
%FSLAX46Y46*%
G04 Gerber Fmt 4.6, Leading zero omitted, Abs format (unit mm)*
G04 Created by KiCad (PCBNEW (5.1.4-0-10_14)) date 2020-12-31 20:35:18*
%MOMM*%
%LPD*%
G04 APERTURE LIST*
%ADD10C,0.100000*%
%ADD11C,0.950000*%
%ADD12C,0.600000*%
%ADD13R,0.350000X0.500000*%
%ADD14R,1.600000X0.700000*%
G04 APERTURE END LIST*
D10*
G36*
X93380779Y-61502144D02*
G01*
X93403834Y-61505563D01*
X93426443Y-61511227D01*
X93448387Y-61519079D01*
X93469457Y-61529044D01*
X93489448Y-61541026D01*
X93508168Y-61554910D01*
X93525438Y-61570562D01*
X93541090Y-61587832D01*
X93554974Y-61606552D01*
X93566956Y-61626543D01*
X93576921Y-61647613D01*
X93584773Y-61669557D01*
X93590437Y-61692166D01*
X93593856Y-61715221D01*
X93595000Y-61738500D01*
X93595000Y-62213500D01*
X93593856Y-62236779D01*
X93590437Y-62259834D01*
X93584773Y-62282443D01*
X93576921Y-62304387D01*
X93566956Y-62325457D01*
X93554974Y-62345448D01*
X93541090Y-62364168D01*
X93525438Y-62381438D01*
X93508168Y-62397090D01*
X93489448Y-62410974D01*
X93469457Y-62422956D01*
X93448387Y-62432921D01*
X93426443Y-62440773D01*
X93403834Y-62446437D01*
X93380779Y-62449856D01*
X93357500Y-62451000D01*
X92782500Y-62451000D01*
X92759221Y-62449856D01*
X92736166Y-62446437D01*
X92713557Y-62440773D01*
X92691613Y-62432921D01*
X92670543Y-62422956D01*
X92650552Y-62410974D01*
X92631832Y-62397090D01*
X92614562Y-62381438D01*
X92598910Y-62364168D01*
X92585026Y-62345448D01*
X92573044Y-62325457D01*
X92563079Y-62304387D01*
X92555227Y-62282443D01*
X92549563Y-62259834D01*
X92546144Y-62236779D01*
X92545000Y-62213500D01*
X92545000Y-61738500D01*
X92546144Y-61715221D01*
X92549563Y-61692166D01*
X92555227Y-61669557D01*
X92563079Y-61647613D01*
X92573044Y-61626543D01*
X92585026Y-61606552D01*
X92598910Y-61587832D01*
X92614562Y-61570562D01*
X92631832Y-61554910D01*
X92650552Y-61541026D01*
X92670543Y-61529044D01*
X92691613Y-61519079D01*
X92713557Y-61511227D01*
X92736166Y-61505563D01*
X92759221Y-61502144D01*
X92782500Y-61501000D01*
X93357500Y-61501000D01*
X93380779Y-61502144D01*
X93380779Y-61502144D01*
G37*
D11*
X93070000Y-61976000D03*
D10*
G36*
X91630779Y-61502144D02*
G01*
X91653834Y-61505563D01*
X91676443Y-61511227D01*
X91698387Y-61519079D01*
X91719457Y-61529044D01*
X91739448Y-61541026D01*
X91758168Y-61554910D01*
X91775438Y-61570562D01*
X91791090Y-61587832D01*
X91804974Y-61606552D01*
X91816956Y-61626543D01*
X91826921Y-61647613D01*
X91834773Y-61669557D01*
X91840437Y-61692166D01*
X91843856Y-61715221D01*
X91845000Y-61738500D01*
X91845000Y-62213500D01*
X91843856Y-62236779D01*
X91840437Y-62259834D01*
X91834773Y-62282443D01*
X91826921Y-62304387D01*
X91816956Y-62325457D01*
X91804974Y-62345448D01*
X91791090Y-62364168D01*
X91775438Y-62381438D01*
X91758168Y-62397090D01*
X91739448Y-62410974D01*
X91719457Y-62422956D01*
X91698387Y-62432921D01*
X91676443Y-62440773D01*
X91653834Y-62446437D01*
X91630779Y-62449856D01*
X91607500Y-62451000D01*
X91032500Y-62451000D01*
X91009221Y-62449856D01*
X90986166Y-62446437D01*
X90963557Y-62440773D01*
X90941613Y-62432921D01*
X90920543Y-62422956D01*
X90900552Y-62410974D01*
X90881832Y-62397090D01*
X90864562Y-62381438D01*
X90848910Y-62364168D01*
X90835026Y-62345448D01*
X90823044Y-62325457D01*
X90813079Y-62304387D01*
X90805227Y-62282443D01*
X90799563Y-62259834D01*
X90796144Y-62236779D01*
X90795000Y-62213500D01*
X90795000Y-61738500D01*
X90796144Y-61715221D01*
X90799563Y-61692166D01*
X90805227Y-61669557D01*
X90813079Y-61647613D01*
X90823044Y-61626543D01*
X90835026Y-61606552D01*
X90848910Y-61587832D01*
X90864562Y-61570562D01*
X90881832Y-61554910D01*
X90900552Y-61541026D01*
X90920543Y-61529044D01*
X90941613Y-61519079D01*
X90963557Y-61511227D01*
X90986166Y-61505563D01*
X91009221Y-61502144D01*
X91032500Y-61501000D01*
X91607500Y-61501000D01*
X91630779Y-61502144D01*
X91630779Y-61502144D01*
G37*
D11*
X91320000Y-61976000D03*
D10*
G36*
X67460779Y-44892644D02*
G01*
X67483834Y-44896063D01*
X67506443Y-44901727D01*
X67528387Y-44909579D01*
X67549457Y-44919544D01*
X67569448Y-44931526D01*
X67588168Y-44945410D01*
X67605438Y-44961062D01*
X67621090Y-44978332D01*
X67634974Y-44997052D01*
X67646956Y-45017043D01*
X67656921Y-45038113D01*
X67664773Y-45060057D01*
X67670437Y-45082666D01*
X67673856Y-45105721D01*
X67675000Y-45129000D01*
X67675000Y-45704000D01*
X67673856Y-45727279D01*
X67670437Y-45750334D01*
X67664773Y-45772943D01*
X67656921Y-45794887D01*
X67646956Y-45815957D01*
X67634974Y-45835948D01*
X67621090Y-45854668D01*
X67605438Y-45871938D01*
X67588168Y-45887590D01*
X67569448Y-45901474D01*
X67549457Y-45913456D01*
X67528387Y-45923421D01*
X67506443Y-45931273D01*
X67483834Y-45936937D01*
X67460779Y-45940356D01*
X67437500Y-45941500D01*
X66962500Y-45941500D01*
X66939221Y-45940356D01*
X66916166Y-45936937D01*
X66893557Y-45931273D01*
X66871613Y-45923421D01*
X66850543Y-45913456D01*
X66830552Y-45901474D01*
X66811832Y-45887590D01*
X66794562Y-45871938D01*
X66778910Y-45854668D01*
X66765026Y-45835948D01*
X66753044Y-45815957D01*
X66743079Y-45794887D01*
X66735227Y-45772943D01*
X66729563Y-45750334D01*
X66726144Y-45727279D01*
X66725000Y-45704000D01*
X66725000Y-45129000D01*
X66726144Y-45105721D01*
X66729563Y-45082666D01*
X66735227Y-45060057D01*
X66743079Y-45038113D01*
X66753044Y-45017043D01*
X66765026Y-44997052D01*
X66778910Y-44978332D01*
X66794562Y-44961062D01*
X66811832Y-44945410D01*
X66830552Y-44931526D01*
X66850543Y-44919544D01*
X66871613Y-44909579D01*
X66893557Y-44901727D01*
X66916166Y-44896063D01*
X66939221Y-44892644D01*
X66962500Y-44891500D01*
X67437500Y-44891500D01*
X67460779Y-44892644D01*
X67460779Y-44892644D01*
G37*
D11*
X67200000Y-45416500D03*
D10*
G36*
X67460779Y-46642644D02*
G01*
X67483834Y-46646063D01*
X67506443Y-46651727D01*
X67528387Y-46659579D01*
X67549457Y-46669544D01*
X67569448Y-46681526D01*
X67588168Y-46695410D01*
X67605438Y-46711062D01*
X67621090Y-46728332D01*
X67634974Y-46747052D01*
X67646956Y-46767043D01*
X67656921Y-46788113D01*
X67664773Y-46810057D01*
X67670437Y-46832666D01*
X67673856Y-46855721D01*
X67675000Y-46879000D01*
X67675000Y-47454000D01*
X67673856Y-47477279D01*
X67670437Y-47500334D01*
X67664773Y-47522943D01*
X67656921Y-47544887D01*
X67646956Y-47565957D01*
X67634974Y-47585948D01*
X67621090Y-47604668D01*
X67605438Y-47621938D01*
X67588168Y-47637590D01*
X67569448Y-47651474D01*
X67549457Y-47663456D01*
X67528387Y-47673421D01*
X67506443Y-47681273D01*
X67483834Y-47686937D01*
X67460779Y-47690356D01*
X67437500Y-47691500D01*
X66962500Y-47691500D01*
X66939221Y-47690356D01*
X66916166Y-47686937D01*
X66893557Y-47681273D01*
X66871613Y-47673421D01*
X66850543Y-47663456D01*
X66830552Y-47651474D01*
X66811832Y-47637590D01*
X66794562Y-47621938D01*
X66778910Y-47604668D01*
X66765026Y-47585948D01*
X66753044Y-47565957D01*
X66743079Y-47544887D01*
X66735227Y-47522943D01*
X66729563Y-47500334D01*
X66726144Y-47477279D01*
X66725000Y-47454000D01*
X66725000Y-46879000D01*
X66726144Y-46855721D01*
X66729563Y-46832666D01*
X66735227Y-46810057D01*
X66743079Y-46788113D01*
X66753044Y-46767043D01*
X66765026Y-46747052D01*
X66778910Y-46728332D01*
X66794562Y-46711062D01*
X66811832Y-46695410D01*
X66830552Y-46681526D01*
X66850543Y-46669544D01*
X66871613Y-46659579D01*
X66893557Y-46651727D01*
X66916166Y-46646063D01*
X66939221Y-46642644D01*
X66962500Y-46641500D01*
X67437500Y-46641500D01*
X67460779Y-46642644D01*
X67460779Y-46642644D01*
G37*
D11*
X67200000Y-47166500D03*
D10*
G36*
X69793779Y-48548144D02*
G01*
X69816834Y-48551563D01*
X69839443Y-48557227D01*
X69861387Y-48565079D01*
X69882457Y-48575044D01*
X69902448Y-48587026D01*
X69921168Y-48600910D01*
X69938438Y-48616562D01*
X69954090Y-48633832D01*
X69967974Y-48652552D01*
X69979956Y-48672543D01*
X69989921Y-48693613D01*
X69997773Y-48715557D01*
X70003437Y-48738166D01*
X70006856Y-48761221D01*
X70008000Y-48784500D01*
X70008000Y-49259500D01*
X70006856Y-49282779D01*
X70003437Y-49305834D01*
X69997773Y-49328443D01*
X69989921Y-49350387D01*
X69979956Y-49371457D01*
X69967974Y-49391448D01*
X69954090Y-49410168D01*
X69938438Y-49427438D01*
X69921168Y-49443090D01*
X69902448Y-49456974D01*
X69882457Y-49468956D01*
X69861387Y-49478921D01*
X69839443Y-49486773D01*
X69816834Y-49492437D01*
X69793779Y-49495856D01*
X69770500Y-49497000D01*
X69195500Y-49497000D01*
X69172221Y-49495856D01*
X69149166Y-49492437D01*
X69126557Y-49486773D01*
X69104613Y-49478921D01*
X69083543Y-49468956D01*
X69063552Y-49456974D01*
X69044832Y-49443090D01*
X69027562Y-49427438D01*
X69011910Y-49410168D01*
X68998026Y-49391448D01*
X68986044Y-49371457D01*
X68976079Y-49350387D01*
X68968227Y-49328443D01*
X68962563Y-49305834D01*
X68959144Y-49282779D01*
X68958000Y-49259500D01*
X68958000Y-48784500D01*
X68959144Y-48761221D01*
X68962563Y-48738166D01*
X68968227Y-48715557D01*
X68976079Y-48693613D01*
X68986044Y-48672543D01*
X68998026Y-48652552D01*
X69011910Y-48633832D01*
X69027562Y-48616562D01*
X69044832Y-48600910D01*
X69063552Y-48587026D01*
X69083543Y-48575044D01*
X69104613Y-48565079D01*
X69126557Y-48557227D01*
X69149166Y-48551563D01*
X69172221Y-48548144D01*
X69195500Y-48547000D01*
X69770500Y-48547000D01*
X69793779Y-48548144D01*
X69793779Y-48548144D01*
G37*
D11*
X69483000Y-49022000D03*
D10*
G36*
X71543779Y-48548144D02*
G01*
X71566834Y-48551563D01*
X71589443Y-48557227D01*
X71611387Y-48565079D01*
X71632457Y-48575044D01*
X71652448Y-48587026D01*
X71671168Y-48600910D01*
X71688438Y-48616562D01*
X71704090Y-48633832D01*
X71717974Y-48652552D01*
X71729956Y-48672543D01*
X71739921Y-48693613D01*
X71747773Y-48715557D01*
X71753437Y-48738166D01*
X71756856Y-48761221D01*
X71758000Y-48784500D01*
X71758000Y-49259500D01*
X71756856Y-49282779D01*
X71753437Y-49305834D01*
X71747773Y-49328443D01*
X71739921Y-49350387D01*
X71729956Y-49371457D01*
X71717974Y-49391448D01*
X71704090Y-49410168D01*
X71688438Y-49427438D01*
X71671168Y-49443090D01*
X71652448Y-49456974D01*
X71632457Y-49468956D01*
X71611387Y-49478921D01*
X71589443Y-49486773D01*
X71566834Y-49492437D01*
X71543779Y-49495856D01*
X71520500Y-49497000D01*
X70945500Y-49497000D01*
X70922221Y-49495856D01*
X70899166Y-49492437D01*
X70876557Y-49486773D01*
X70854613Y-49478921D01*
X70833543Y-49468956D01*
X70813552Y-49456974D01*
X70794832Y-49443090D01*
X70777562Y-49427438D01*
X70761910Y-49410168D01*
X70748026Y-49391448D01*
X70736044Y-49371457D01*
X70726079Y-49350387D01*
X70718227Y-49328443D01*
X70712563Y-49305834D01*
X70709144Y-49282779D01*
X70708000Y-49259500D01*
X70708000Y-48784500D01*
X70709144Y-48761221D01*
X70712563Y-48738166D01*
X70718227Y-48715557D01*
X70726079Y-48693613D01*
X70736044Y-48672543D01*
X70748026Y-48652552D01*
X70761910Y-48633832D01*
X70777562Y-48616562D01*
X70794832Y-48600910D01*
X70813552Y-48587026D01*
X70833543Y-48575044D01*
X70854613Y-48565079D01*
X70876557Y-48557227D01*
X70899166Y-48551563D01*
X70922221Y-48548144D01*
X70945500Y-48547000D01*
X71520500Y-48547000D01*
X71543779Y-48548144D01*
X71543779Y-48548144D01*
G37*
D11*
X71233000Y-49022000D03*
D10*
G36*
X82747779Y-45817644D02*
G01*
X82770834Y-45821063D01*
X82793443Y-45826727D01*
X82815387Y-45834579D01*
X82836457Y-45844544D01*
X82856448Y-45856526D01*
X82875168Y-45870410D01*
X82892438Y-45886062D01*
X82908090Y-45903332D01*
X82921974Y-45922052D01*
X82933956Y-45942043D01*
X82943921Y-45963113D01*
X82951773Y-45985057D01*
X82957437Y-46007666D01*
X82960856Y-46030721D01*
X82962000Y-46054000D01*
X82962000Y-46529000D01*
X82960856Y-46552279D01*
X82957437Y-46575334D01*
X82951773Y-46597943D01*
X82943921Y-46619887D01*
X82933956Y-46640957D01*
X82921974Y-46660948D01*
X82908090Y-46679668D01*
X82892438Y-46696938D01*
X82875168Y-46712590D01*
X82856448Y-46726474D01*
X82836457Y-46738456D01*
X82815387Y-46748421D01*
X82793443Y-46756273D01*
X82770834Y-46761937D01*
X82747779Y-46765356D01*
X82724500Y-46766500D01*
X82149500Y-46766500D01*
X82126221Y-46765356D01*
X82103166Y-46761937D01*
X82080557Y-46756273D01*
X82058613Y-46748421D01*
X82037543Y-46738456D01*
X82017552Y-46726474D01*
X81998832Y-46712590D01*
X81981562Y-46696938D01*
X81965910Y-46679668D01*
X81952026Y-46660948D01*
X81940044Y-46640957D01*
X81930079Y-46619887D01*
X81922227Y-46597943D01*
X81916563Y-46575334D01*
X81913144Y-46552279D01*
X81912000Y-46529000D01*
X81912000Y-46054000D01*
X81913144Y-46030721D01*
X81916563Y-46007666D01*
X81922227Y-45985057D01*
X81930079Y-45963113D01*
X81940044Y-45942043D01*
X81952026Y-45922052D01*
X81965910Y-45903332D01*
X81981562Y-45886062D01*
X81998832Y-45870410D01*
X82017552Y-45856526D01*
X82037543Y-45844544D01*
X82058613Y-45834579D01*
X82080557Y-45826727D01*
X82103166Y-45821063D01*
X82126221Y-45817644D01*
X82149500Y-45816500D01*
X82724500Y-45816500D01*
X82747779Y-45817644D01*
X82747779Y-45817644D01*
G37*
D11*
X82437000Y-46291500D03*
D10*
G36*
X84497779Y-45817644D02*
G01*
X84520834Y-45821063D01*
X84543443Y-45826727D01*
X84565387Y-45834579D01*
X84586457Y-45844544D01*
X84606448Y-45856526D01*
X84625168Y-45870410D01*
X84642438Y-45886062D01*
X84658090Y-45903332D01*
X84671974Y-45922052D01*
X84683956Y-45942043D01*
X84693921Y-45963113D01*
X84701773Y-45985057D01*
X84707437Y-46007666D01*
X84710856Y-46030721D01*
X84712000Y-46054000D01*
X84712000Y-46529000D01*
X84710856Y-46552279D01*
X84707437Y-46575334D01*
X84701773Y-46597943D01*
X84693921Y-46619887D01*
X84683956Y-46640957D01*
X84671974Y-46660948D01*
X84658090Y-46679668D01*
X84642438Y-46696938D01*
X84625168Y-46712590D01*
X84606448Y-46726474D01*
X84586457Y-46738456D01*
X84565387Y-46748421D01*
X84543443Y-46756273D01*
X84520834Y-46761937D01*
X84497779Y-46765356D01*
X84474500Y-46766500D01*
X83899500Y-46766500D01*
X83876221Y-46765356D01*
X83853166Y-46761937D01*
X83830557Y-46756273D01*
X83808613Y-46748421D01*
X83787543Y-46738456D01*
X83767552Y-46726474D01*
X83748832Y-46712590D01*
X83731562Y-46696938D01*
X83715910Y-46679668D01*
X83702026Y-46660948D01*
X83690044Y-46640957D01*
X83680079Y-46619887D01*
X83672227Y-46597943D01*
X83666563Y-46575334D01*
X83663144Y-46552279D01*
X83662000Y-46529000D01*
X83662000Y-46054000D01*
X83663144Y-46030721D01*
X83666563Y-46007666D01*
X83672227Y-45985057D01*
X83680079Y-45963113D01*
X83690044Y-45942043D01*
X83702026Y-45922052D01*
X83715910Y-45903332D01*
X83731562Y-45886062D01*
X83748832Y-45870410D01*
X83767552Y-45856526D01*
X83787543Y-45844544D01*
X83808613Y-45834579D01*
X83830557Y-45826727D01*
X83853166Y-45821063D01*
X83876221Y-45817644D01*
X83899500Y-45816500D01*
X84474500Y-45816500D01*
X84497779Y-45817644D01*
X84497779Y-45817644D01*
G37*
D11*
X84187000Y-46291500D03*
D10*
G36*
X57077279Y-90204144D02*
G01*
X57100334Y-90207563D01*
X57122943Y-90213227D01*
X57144887Y-90221079D01*
X57165957Y-90231044D01*
X57185948Y-90243026D01*
X57204668Y-90256910D01*
X57221938Y-90272562D01*
X57237590Y-90289832D01*
X57251474Y-90308552D01*
X57263456Y-90328543D01*
X57273421Y-90349613D01*
X57281273Y-90371557D01*
X57286937Y-90394166D01*
X57290356Y-90417221D01*
X57291500Y-90440500D01*
X57291500Y-90915500D01*
X57290356Y-90938779D01*
X57286937Y-90961834D01*
X57281273Y-90984443D01*
X57273421Y-91006387D01*
X57263456Y-91027457D01*
X57251474Y-91047448D01*
X57237590Y-91066168D01*
X57221938Y-91083438D01*
X57204668Y-91099090D01*
X57185948Y-91112974D01*
X57165957Y-91124956D01*
X57144887Y-91134921D01*
X57122943Y-91142773D01*
X57100334Y-91148437D01*
X57077279Y-91151856D01*
X57054000Y-91153000D01*
X56479000Y-91153000D01*
X56455721Y-91151856D01*
X56432666Y-91148437D01*
X56410057Y-91142773D01*
X56388113Y-91134921D01*
X56367043Y-91124956D01*
X56347052Y-91112974D01*
X56328332Y-91099090D01*
X56311062Y-91083438D01*
X56295410Y-91066168D01*
X56281526Y-91047448D01*
X56269544Y-91027457D01*
X56259579Y-91006387D01*
X56251727Y-90984443D01*
X56246063Y-90961834D01*
X56242644Y-90938779D01*
X56241500Y-90915500D01*
X56241500Y-90440500D01*
X56242644Y-90417221D01*
X56246063Y-90394166D01*
X56251727Y-90371557D01*
X56259579Y-90349613D01*
X56269544Y-90328543D01*
X56281526Y-90308552D01*
X56295410Y-90289832D01*
X56311062Y-90272562D01*
X56328332Y-90256910D01*
X56347052Y-90243026D01*
X56367043Y-90231044D01*
X56388113Y-90221079D01*
X56410057Y-90213227D01*
X56432666Y-90207563D01*
X56455721Y-90204144D01*
X56479000Y-90203000D01*
X57054000Y-90203000D01*
X57077279Y-90204144D01*
X57077279Y-90204144D01*
G37*
D11*
X56766500Y-90678000D03*
D10*
G36*
X55327279Y-90204144D02*
G01*
X55350334Y-90207563D01*
X55372943Y-90213227D01*
X55394887Y-90221079D01*
X55415957Y-90231044D01*
X55435948Y-90243026D01*
X55454668Y-90256910D01*
X55471938Y-90272562D01*
X55487590Y-90289832D01*
X55501474Y-90308552D01*
X55513456Y-90328543D01*
X55523421Y-90349613D01*
X55531273Y-90371557D01*
X55536937Y-90394166D01*
X55540356Y-90417221D01*
X55541500Y-90440500D01*
X55541500Y-90915500D01*
X55540356Y-90938779D01*
X55536937Y-90961834D01*
X55531273Y-90984443D01*
X55523421Y-91006387D01*
X55513456Y-91027457D01*
X55501474Y-91047448D01*
X55487590Y-91066168D01*
X55471938Y-91083438D01*
X55454668Y-91099090D01*
X55435948Y-91112974D01*
X55415957Y-91124956D01*
X55394887Y-91134921D01*
X55372943Y-91142773D01*
X55350334Y-91148437D01*
X55327279Y-91151856D01*
X55304000Y-91153000D01*
X54729000Y-91153000D01*
X54705721Y-91151856D01*
X54682666Y-91148437D01*
X54660057Y-91142773D01*
X54638113Y-91134921D01*
X54617043Y-91124956D01*
X54597052Y-91112974D01*
X54578332Y-91099090D01*
X54561062Y-91083438D01*
X54545410Y-91066168D01*
X54531526Y-91047448D01*
X54519544Y-91027457D01*
X54509579Y-91006387D01*
X54501727Y-90984443D01*
X54496063Y-90961834D01*
X54492644Y-90938779D01*
X54491500Y-90915500D01*
X54491500Y-90440500D01*
X54492644Y-90417221D01*
X54496063Y-90394166D01*
X54501727Y-90371557D01*
X54509579Y-90349613D01*
X54519544Y-90328543D01*
X54531526Y-90308552D01*
X54545410Y-90289832D01*
X54561062Y-90272562D01*
X54578332Y-90256910D01*
X54597052Y-90243026D01*
X54617043Y-90231044D01*
X54638113Y-90221079D01*
X54660057Y-90213227D01*
X54682666Y-90207563D01*
X54705721Y-90204144D01*
X54729000Y-90203000D01*
X55304000Y-90203000D01*
X55327279Y-90204144D01*
X55327279Y-90204144D01*
G37*
D11*
X55016500Y-90678000D03*
D10*
G36*
X82880779Y-77631144D02*
G01*
X82903834Y-77634563D01*
X82926443Y-77640227D01*
X82948387Y-77648079D01*
X82969457Y-77658044D01*
X82989448Y-77670026D01*
X83008168Y-77683910D01*
X83025438Y-77699562D01*
X83041090Y-77716832D01*
X83054974Y-77735552D01*
X83066956Y-77755543D01*
X83076921Y-77776613D01*
X83084773Y-77798557D01*
X83090437Y-77821166D01*
X83093856Y-77844221D01*
X83095000Y-77867500D01*
X83095000Y-78342500D01*
X83093856Y-78365779D01*
X83090437Y-78388834D01*
X83084773Y-78411443D01*
X83076921Y-78433387D01*
X83066956Y-78454457D01*
X83054974Y-78474448D01*
X83041090Y-78493168D01*
X83025438Y-78510438D01*
X83008168Y-78526090D01*
X82989448Y-78539974D01*
X82969457Y-78551956D01*
X82948387Y-78561921D01*
X82926443Y-78569773D01*
X82903834Y-78575437D01*
X82880779Y-78578856D01*
X82857500Y-78580000D01*
X82282500Y-78580000D01*
X82259221Y-78578856D01*
X82236166Y-78575437D01*
X82213557Y-78569773D01*
X82191613Y-78561921D01*
X82170543Y-78551956D01*
X82150552Y-78539974D01*
X82131832Y-78526090D01*
X82114562Y-78510438D01*
X82098910Y-78493168D01*
X82085026Y-78474448D01*
X82073044Y-78454457D01*
X82063079Y-78433387D01*
X82055227Y-78411443D01*
X82049563Y-78388834D01*
X82046144Y-78365779D01*
X82045000Y-78342500D01*
X82045000Y-77867500D01*
X82046144Y-77844221D01*
X82049563Y-77821166D01*
X82055227Y-77798557D01*
X82063079Y-77776613D01*
X82073044Y-77755543D01*
X82085026Y-77735552D01*
X82098910Y-77716832D01*
X82114562Y-77699562D01*
X82131832Y-77683910D01*
X82150552Y-77670026D01*
X82170543Y-77658044D01*
X82191613Y-77648079D01*
X82213557Y-77640227D01*
X82236166Y-77634563D01*
X82259221Y-77631144D01*
X82282500Y-77630000D01*
X82857500Y-77630000D01*
X82880779Y-77631144D01*
X82880779Y-77631144D01*
G37*
D11*
X82570000Y-78105000D03*
D10*
G36*
X84630779Y-77631144D02*
G01*
X84653834Y-77634563D01*
X84676443Y-77640227D01*
X84698387Y-77648079D01*
X84719457Y-77658044D01*
X84739448Y-77670026D01*
X84758168Y-77683910D01*
X84775438Y-77699562D01*
X84791090Y-77716832D01*
X84804974Y-77735552D01*
X84816956Y-77755543D01*
X84826921Y-77776613D01*
X84834773Y-77798557D01*
X84840437Y-77821166D01*
X84843856Y-77844221D01*
X84845000Y-77867500D01*
X84845000Y-78342500D01*
X84843856Y-78365779D01*
X84840437Y-78388834D01*
X84834773Y-78411443D01*
X84826921Y-78433387D01*
X84816956Y-78454457D01*
X84804974Y-78474448D01*
X84791090Y-78493168D01*
X84775438Y-78510438D01*
X84758168Y-78526090D01*
X84739448Y-78539974D01*
X84719457Y-78551956D01*
X84698387Y-78561921D01*
X84676443Y-78569773D01*
X84653834Y-78575437D01*
X84630779Y-78578856D01*
X84607500Y-78580000D01*
X84032500Y-78580000D01*
X84009221Y-78578856D01*
X83986166Y-78575437D01*
X83963557Y-78569773D01*
X83941613Y-78561921D01*
X83920543Y-78551956D01*
X83900552Y-78539974D01*
X83881832Y-78526090D01*
X83864562Y-78510438D01*
X83848910Y-78493168D01*
X83835026Y-78474448D01*
X83823044Y-78454457D01*
X83813079Y-78433387D01*
X83805227Y-78411443D01*
X83799563Y-78388834D01*
X83796144Y-78365779D01*
X83795000Y-78342500D01*
X83795000Y-77867500D01*
X83796144Y-77844221D01*
X83799563Y-77821166D01*
X83805227Y-77798557D01*
X83813079Y-77776613D01*
X83823044Y-77755543D01*
X83835026Y-77735552D01*
X83848910Y-77716832D01*
X83864562Y-77699562D01*
X83881832Y-77683910D01*
X83900552Y-77670026D01*
X83920543Y-77658044D01*
X83941613Y-77648079D01*
X83963557Y-77640227D01*
X83986166Y-77634563D01*
X84009221Y-77631144D01*
X84032500Y-77630000D01*
X84607500Y-77630000D01*
X84630779Y-77631144D01*
X84630779Y-77631144D01*
G37*
D11*
X84320000Y-78105000D03*
D10*
G36*
X117240779Y-84011144D02*
G01*
X117263834Y-84014563D01*
X117286443Y-84020227D01*
X117308387Y-84028079D01*
X117329457Y-84038044D01*
X117349448Y-84050026D01*
X117368168Y-84063910D01*
X117385438Y-84079562D01*
X117401090Y-84096832D01*
X117414974Y-84115552D01*
X117426956Y-84135543D01*
X117436921Y-84156613D01*
X117444773Y-84178557D01*
X117450437Y-84201166D01*
X117453856Y-84224221D01*
X117455000Y-84247500D01*
X117455000Y-84822500D01*
X117453856Y-84845779D01*
X117450437Y-84868834D01*
X117444773Y-84891443D01*
X117436921Y-84913387D01*
X117426956Y-84934457D01*
X117414974Y-84954448D01*
X117401090Y-84973168D01*
X117385438Y-84990438D01*
X117368168Y-85006090D01*
X117349448Y-85019974D01*
X117329457Y-85031956D01*
X117308387Y-85041921D01*
X117286443Y-85049773D01*
X117263834Y-85055437D01*
X117240779Y-85058856D01*
X117217500Y-85060000D01*
X116742500Y-85060000D01*
X116719221Y-85058856D01*
X116696166Y-85055437D01*
X116673557Y-85049773D01*
X116651613Y-85041921D01*
X116630543Y-85031956D01*
X116610552Y-85019974D01*
X116591832Y-85006090D01*
X116574562Y-84990438D01*
X116558910Y-84973168D01*
X116545026Y-84954448D01*
X116533044Y-84934457D01*
X116523079Y-84913387D01*
X116515227Y-84891443D01*
X116509563Y-84868834D01*
X116506144Y-84845779D01*
X116505000Y-84822500D01*
X116505000Y-84247500D01*
X116506144Y-84224221D01*
X116509563Y-84201166D01*
X116515227Y-84178557D01*
X116523079Y-84156613D01*
X116533044Y-84135543D01*
X116545026Y-84115552D01*
X116558910Y-84096832D01*
X116574562Y-84079562D01*
X116591832Y-84063910D01*
X116610552Y-84050026D01*
X116630543Y-84038044D01*
X116651613Y-84028079D01*
X116673557Y-84020227D01*
X116696166Y-84014563D01*
X116719221Y-84011144D01*
X116742500Y-84010000D01*
X117217500Y-84010000D01*
X117240779Y-84011144D01*
X117240779Y-84011144D01*
G37*
D11*
X116980000Y-84535000D03*
D10*
G36*
X117240779Y-85761144D02*
G01*
X117263834Y-85764563D01*
X117286443Y-85770227D01*
X117308387Y-85778079D01*
X117329457Y-85788044D01*
X117349448Y-85800026D01*
X117368168Y-85813910D01*
X117385438Y-85829562D01*
X117401090Y-85846832D01*
X117414974Y-85865552D01*
X117426956Y-85885543D01*
X117436921Y-85906613D01*
X117444773Y-85928557D01*
X117450437Y-85951166D01*
X117453856Y-85974221D01*
X117455000Y-85997500D01*
X117455000Y-86572500D01*
X117453856Y-86595779D01*
X117450437Y-86618834D01*
X117444773Y-86641443D01*
X117436921Y-86663387D01*
X117426956Y-86684457D01*
X117414974Y-86704448D01*
X117401090Y-86723168D01*
X117385438Y-86740438D01*
X117368168Y-86756090D01*
X117349448Y-86769974D01*
X117329457Y-86781956D01*
X117308387Y-86791921D01*
X117286443Y-86799773D01*
X117263834Y-86805437D01*
X117240779Y-86808856D01*
X117217500Y-86810000D01*
X116742500Y-86810000D01*
X116719221Y-86808856D01*
X116696166Y-86805437D01*
X116673557Y-86799773D01*
X116651613Y-86791921D01*
X116630543Y-86781956D01*
X116610552Y-86769974D01*
X116591832Y-86756090D01*
X116574562Y-86740438D01*
X116558910Y-86723168D01*
X116545026Y-86704448D01*
X116533044Y-86684457D01*
X116523079Y-86663387D01*
X116515227Y-86641443D01*
X116509563Y-86618834D01*
X116506144Y-86595779D01*
X116505000Y-86572500D01*
X116505000Y-85997500D01*
X116506144Y-85974221D01*
X116509563Y-85951166D01*
X116515227Y-85928557D01*
X116523079Y-85906613D01*
X116533044Y-85885543D01*
X116545026Y-85865552D01*
X116558910Y-85846832D01*
X116574562Y-85829562D01*
X116591832Y-85813910D01*
X116610552Y-85800026D01*
X116630543Y-85788044D01*
X116651613Y-85778079D01*
X116673557Y-85770227D01*
X116696166Y-85764563D01*
X116719221Y-85761144D01*
X116742500Y-85760000D01*
X117217500Y-85760000D01*
X117240779Y-85761144D01*
X117240779Y-85761144D01*
G37*
D11*
X116980000Y-86285000D03*
D10*
G36*
X117240779Y-78661144D02*
G01*
X117263834Y-78664563D01*
X117286443Y-78670227D01*
X117308387Y-78678079D01*
X117329457Y-78688044D01*
X117349448Y-78700026D01*
X117368168Y-78713910D01*
X117385438Y-78729562D01*
X117401090Y-78746832D01*
X117414974Y-78765552D01*
X117426956Y-78785543D01*
X117436921Y-78806613D01*
X117444773Y-78828557D01*
X117450437Y-78851166D01*
X117453856Y-78874221D01*
X117455000Y-78897500D01*
X117455000Y-79472500D01*
X117453856Y-79495779D01*
X117450437Y-79518834D01*
X117444773Y-79541443D01*
X117436921Y-79563387D01*
X117426956Y-79584457D01*
X117414974Y-79604448D01*
X117401090Y-79623168D01*
X117385438Y-79640438D01*
X117368168Y-79656090D01*
X117349448Y-79669974D01*
X117329457Y-79681956D01*
X117308387Y-79691921D01*
X117286443Y-79699773D01*
X117263834Y-79705437D01*
X117240779Y-79708856D01*
X117217500Y-79710000D01*
X116742500Y-79710000D01*
X116719221Y-79708856D01*
X116696166Y-79705437D01*
X116673557Y-79699773D01*
X116651613Y-79691921D01*
X116630543Y-79681956D01*
X116610552Y-79669974D01*
X116591832Y-79656090D01*
X116574562Y-79640438D01*
X116558910Y-79623168D01*
X116545026Y-79604448D01*
X116533044Y-79584457D01*
X116523079Y-79563387D01*
X116515227Y-79541443D01*
X116509563Y-79518834D01*
X116506144Y-79495779D01*
X116505000Y-79472500D01*
X116505000Y-78897500D01*
X116506144Y-78874221D01*
X116509563Y-78851166D01*
X116515227Y-78828557D01*
X116523079Y-78806613D01*
X116533044Y-78785543D01*
X116545026Y-78765552D01*
X116558910Y-78746832D01*
X116574562Y-78729562D01*
X116591832Y-78713910D01*
X116610552Y-78700026D01*
X116630543Y-78688044D01*
X116651613Y-78678079D01*
X116673557Y-78670227D01*
X116696166Y-78664563D01*
X116719221Y-78661144D01*
X116742500Y-78660000D01*
X117217500Y-78660000D01*
X117240779Y-78661144D01*
X117240779Y-78661144D01*
G37*
D11*
X116980000Y-79185000D03*
D10*
G36*
X117240779Y-80411144D02*
G01*
X117263834Y-80414563D01*
X117286443Y-80420227D01*
X117308387Y-80428079D01*
X117329457Y-80438044D01*
X117349448Y-80450026D01*
X117368168Y-80463910D01*
X117385438Y-80479562D01*
X117401090Y-80496832D01*
X117414974Y-80515552D01*
X117426956Y-80535543D01*
X117436921Y-80556613D01*
X117444773Y-80578557D01*
X117450437Y-80601166D01*
X117453856Y-80624221D01*
X117455000Y-80647500D01*
X117455000Y-81222500D01*
X117453856Y-81245779D01*
X117450437Y-81268834D01*
X117444773Y-81291443D01*
X117436921Y-81313387D01*
X117426956Y-81334457D01*
X117414974Y-81354448D01*
X117401090Y-81373168D01*
X117385438Y-81390438D01*
X117368168Y-81406090D01*
X117349448Y-81419974D01*
X117329457Y-81431956D01*
X117308387Y-81441921D01*
X117286443Y-81449773D01*
X117263834Y-81455437D01*
X117240779Y-81458856D01*
X117217500Y-81460000D01*
X116742500Y-81460000D01*
X116719221Y-81458856D01*
X116696166Y-81455437D01*
X116673557Y-81449773D01*
X116651613Y-81441921D01*
X116630543Y-81431956D01*
X116610552Y-81419974D01*
X116591832Y-81406090D01*
X116574562Y-81390438D01*
X116558910Y-81373168D01*
X116545026Y-81354448D01*
X116533044Y-81334457D01*
X116523079Y-81313387D01*
X116515227Y-81291443D01*
X116509563Y-81268834D01*
X116506144Y-81245779D01*
X116505000Y-81222500D01*
X116505000Y-80647500D01*
X116506144Y-80624221D01*
X116509563Y-80601166D01*
X116515227Y-80578557D01*
X116523079Y-80556613D01*
X116533044Y-80535543D01*
X116545026Y-80515552D01*
X116558910Y-80496832D01*
X116574562Y-80479562D01*
X116591832Y-80463910D01*
X116610552Y-80450026D01*
X116630543Y-80438044D01*
X116651613Y-80428079D01*
X116673557Y-80420227D01*
X116696166Y-80414563D01*
X116719221Y-80411144D01*
X116742500Y-80410000D01*
X117217500Y-80410000D01*
X117240779Y-80411144D01*
X117240779Y-80411144D01*
G37*
D11*
X116980000Y-80935000D03*
D10*
G36*
X117240779Y-72271144D02*
G01*
X117263834Y-72274563D01*
X117286443Y-72280227D01*
X117308387Y-72288079D01*
X117329457Y-72298044D01*
X117349448Y-72310026D01*
X117368168Y-72323910D01*
X117385438Y-72339562D01*
X117401090Y-72356832D01*
X117414974Y-72375552D01*
X117426956Y-72395543D01*
X117436921Y-72416613D01*
X117444773Y-72438557D01*
X117450437Y-72461166D01*
X117453856Y-72484221D01*
X117455000Y-72507500D01*
X117455000Y-73082500D01*
X117453856Y-73105779D01*
X117450437Y-73128834D01*
X117444773Y-73151443D01*
X117436921Y-73173387D01*
X117426956Y-73194457D01*
X117414974Y-73214448D01*
X117401090Y-73233168D01*
X117385438Y-73250438D01*
X117368168Y-73266090D01*
X117349448Y-73279974D01*
X117329457Y-73291956D01*
X117308387Y-73301921D01*
X117286443Y-73309773D01*
X117263834Y-73315437D01*
X117240779Y-73318856D01*
X117217500Y-73320000D01*
X116742500Y-73320000D01*
X116719221Y-73318856D01*
X116696166Y-73315437D01*
X116673557Y-73309773D01*
X116651613Y-73301921D01*
X116630543Y-73291956D01*
X116610552Y-73279974D01*
X116591832Y-73266090D01*
X116574562Y-73250438D01*
X116558910Y-73233168D01*
X116545026Y-73214448D01*
X116533044Y-73194457D01*
X116523079Y-73173387D01*
X116515227Y-73151443D01*
X116509563Y-73128834D01*
X116506144Y-73105779D01*
X116505000Y-73082500D01*
X116505000Y-72507500D01*
X116506144Y-72484221D01*
X116509563Y-72461166D01*
X116515227Y-72438557D01*
X116523079Y-72416613D01*
X116533044Y-72395543D01*
X116545026Y-72375552D01*
X116558910Y-72356832D01*
X116574562Y-72339562D01*
X116591832Y-72323910D01*
X116610552Y-72310026D01*
X116630543Y-72298044D01*
X116651613Y-72288079D01*
X116673557Y-72280227D01*
X116696166Y-72274563D01*
X116719221Y-72271144D01*
X116742500Y-72270000D01*
X117217500Y-72270000D01*
X117240779Y-72271144D01*
X117240779Y-72271144D01*
G37*
D11*
X116980000Y-72795000D03*
D10*
G36*
X117240779Y-70521144D02*
G01*
X117263834Y-70524563D01*
X117286443Y-70530227D01*
X117308387Y-70538079D01*
X117329457Y-70548044D01*
X117349448Y-70560026D01*
X117368168Y-70573910D01*
X117385438Y-70589562D01*
X117401090Y-70606832D01*
X117414974Y-70625552D01*
X117426956Y-70645543D01*
X117436921Y-70666613D01*
X117444773Y-70688557D01*
X117450437Y-70711166D01*
X117453856Y-70734221D01*
X117455000Y-70757500D01*
X117455000Y-71332500D01*
X117453856Y-71355779D01*
X117450437Y-71378834D01*
X117444773Y-71401443D01*
X117436921Y-71423387D01*
X117426956Y-71444457D01*
X117414974Y-71464448D01*
X117401090Y-71483168D01*
X117385438Y-71500438D01*
X117368168Y-71516090D01*
X117349448Y-71529974D01*
X117329457Y-71541956D01*
X117308387Y-71551921D01*
X117286443Y-71559773D01*
X117263834Y-71565437D01*
X117240779Y-71568856D01*
X117217500Y-71570000D01*
X116742500Y-71570000D01*
X116719221Y-71568856D01*
X116696166Y-71565437D01*
X116673557Y-71559773D01*
X116651613Y-71551921D01*
X116630543Y-71541956D01*
X116610552Y-71529974D01*
X116591832Y-71516090D01*
X116574562Y-71500438D01*
X116558910Y-71483168D01*
X116545026Y-71464448D01*
X116533044Y-71444457D01*
X116523079Y-71423387D01*
X116515227Y-71401443D01*
X116509563Y-71378834D01*
X116506144Y-71355779D01*
X116505000Y-71332500D01*
X116505000Y-70757500D01*
X116506144Y-70734221D01*
X116509563Y-70711166D01*
X116515227Y-70688557D01*
X116523079Y-70666613D01*
X116533044Y-70645543D01*
X116545026Y-70625552D01*
X116558910Y-70606832D01*
X116574562Y-70589562D01*
X116591832Y-70573910D01*
X116610552Y-70560026D01*
X116630543Y-70548044D01*
X116651613Y-70538079D01*
X116673557Y-70530227D01*
X116696166Y-70524563D01*
X116719221Y-70521144D01*
X116742500Y-70520000D01*
X117217500Y-70520000D01*
X117240779Y-70521144D01*
X117240779Y-70521144D01*
G37*
D11*
X116980000Y-71045000D03*
D10*
G36*
X117240779Y-65171144D02*
G01*
X117263834Y-65174563D01*
X117286443Y-65180227D01*
X117308387Y-65188079D01*
X117329457Y-65198044D01*
X117349448Y-65210026D01*
X117368168Y-65223910D01*
X117385438Y-65239562D01*
X117401090Y-65256832D01*
X117414974Y-65275552D01*
X117426956Y-65295543D01*
X117436921Y-65316613D01*
X117444773Y-65338557D01*
X117450437Y-65361166D01*
X117453856Y-65384221D01*
X117455000Y-65407500D01*
X117455000Y-65982500D01*
X117453856Y-66005779D01*
X117450437Y-66028834D01*
X117444773Y-66051443D01*
X117436921Y-66073387D01*
X117426956Y-66094457D01*
X117414974Y-66114448D01*
X117401090Y-66133168D01*
X117385438Y-66150438D01*
X117368168Y-66166090D01*
X117349448Y-66179974D01*
X117329457Y-66191956D01*
X117308387Y-66201921D01*
X117286443Y-66209773D01*
X117263834Y-66215437D01*
X117240779Y-66218856D01*
X117217500Y-66220000D01*
X116742500Y-66220000D01*
X116719221Y-66218856D01*
X116696166Y-66215437D01*
X116673557Y-66209773D01*
X116651613Y-66201921D01*
X116630543Y-66191956D01*
X116610552Y-66179974D01*
X116591832Y-66166090D01*
X116574562Y-66150438D01*
X116558910Y-66133168D01*
X116545026Y-66114448D01*
X116533044Y-66094457D01*
X116523079Y-66073387D01*
X116515227Y-66051443D01*
X116509563Y-66028834D01*
X116506144Y-66005779D01*
X116505000Y-65982500D01*
X116505000Y-65407500D01*
X116506144Y-65384221D01*
X116509563Y-65361166D01*
X116515227Y-65338557D01*
X116523079Y-65316613D01*
X116533044Y-65295543D01*
X116545026Y-65275552D01*
X116558910Y-65256832D01*
X116574562Y-65239562D01*
X116591832Y-65223910D01*
X116610552Y-65210026D01*
X116630543Y-65198044D01*
X116651613Y-65188079D01*
X116673557Y-65180227D01*
X116696166Y-65174563D01*
X116719221Y-65171144D01*
X116742500Y-65170000D01*
X117217500Y-65170000D01*
X117240779Y-65171144D01*
X117240779Y-65171144D01*
G37*
D11*
X116980000Y-65695000D03*
D10*
G36*
X117240779Y-66921144D02*
G01*
X117263834Y-66924563D01*
X117286443Y-66930227D01*
X117308387Y-66938079D01*
X117329457Y-66948044D01*
X117349448Y-66960026D01*
X117368168Y-66973910D01*
X117385438Y-66989562D01*
X117401090Y-67006832D01*
X117414974Y-67025552D01*
X117426956Y-67045543D01*
X117436921Y-67066613D01*
X117444773Y-67088557D01*
X117450437Y-67111166D01*
X117453856Y-67134221D01*
X117455000Y-67157500D01*
X117455000Y-67732500D01*
X117453856Y-67755779D01*
X117450437Y-67778834D01*
X117444773Y-67801443D01*
X117436921Y-67823387D01*
X117426956Y-67844457D01*
X117414974Y-67864448D01*
X117401090Y-67883168D01*
X117385438Y-67900438D01*
X117368168Y-67916090D01*
X117349448Y-67929974D01*
X117329457Y-67941956D01*
X117308387Y-67951921D01*
X117286443Y-67959773D01*
X117263834Y-67965437D01*
X117240779Y-67968856D01*
X117217500Y-67970000D01*
X116742500Y-67970000D01*
X116719221Y-67968856D01*
X116696166Y-67965437D01*
X116673557Y-67959773D01*
X116651613Y-67951921D01*
X116630543Y-67941956D01*
X116610552Y-67929974D01*
X116591832Y-67916090D01*
X116574562Y-67900438D01*
X116558910Y-67883168D01*
X116545026Y-67864448D01*
X116533044Y-67844457D01*
X116523079Y-67823387D01*
X116515227Y-67801443D01*
X116509563Y-67778834D01*
X116506144Y-67755779D01*
X116505000Y-67732500D01*
X116505000Y-67157500D01*
X116506144Y-67134221D01*
X116509563Y-67111166D01*
X116515227Y-67088557D01*
X116523079Y-67066613D01*
X116533044Y-67045543D01*
X116545026Y-67025552D01*
X116558910Y-67006832D01*
X116574562Y-66989562D01*
X116591832Y-66973910D01*
X116610552Y-66960026D01*
X116630543Y-66948044D01*
X116651613Y-66938079D01*
X116673557Y-66930227D01*
X116696166Y-66924563D01*
X116719221Y-66921144D01*
X116742500Y-66920000D01*
X117217500Y-66920000D01*
X117240779Y-66921144D01*
X117240779Y-66921144D01*
G37*
D11*
X116980000Y-67445000D03*
D10*
G36*
X69793779Y-43090144D02*
G01*
X69816834Y-43093563D01*
X69839443Y-43099227D01*
X69861387Y-43107079D01*
X69882457Y-43117044D01*
X69902448Y-43129026D01*
X69921168Y-43142910D01*
X69938438Y-43158562D01*
X69954090Y-43175832D01*
X69967974Y-43194552D01*
X69979956Y-43214543D01*
X69989921Y-43235613D01*
X69997773Y-43257557D01*
X70003437Y-43280166D01*
X70006856Y-43303221D01*
X70008000Y-43326500D01*
X70008000Y-43801500D01*
X70006856Y-43824779D01*
X70003437Y-43847834D01*
X69997773Y-43870443D01*
X69989921Y-43892387D01*
X69979956Y-43913457D01*
X69967974Y-43933448D01*
X69954090Y-43952168D01*
X69938438Y-43969438D01*
X69921168Y-43985090D01*
X69902448Y-43998974D01*
X69882457Y-44010956D01*
X69861387Y-44020921D01*
X69839443Y-44028773D01*
X69816834Y-44034437D01*
X69793779Y-44037856D01*
X69770500Y-44039000D01*
X69195500Y-44039000D01*
X69172221Y-44037856D01*
X69149166Y-44034437D01*
X69126557Y-44028773D01*
X69104613Y-44020921D01*
X69083543Y-44010956D01*
X69063552Y-43998974D01*
X69044832Y-43985090D01*
X69027562Y-43969438D01*
X69011910Y-43952168D01*
X68998026Y-43933448D01*
X68986044Y-43913457D01*
X68976079Y-43892387D01*
X68968227Y-43870443D01*
X68962563Y-43847834D01*
X68959144Y-43824779D01*
X68958000Y-43801500D01*
X68958000Y-43326500D01*
X68959144Y-43303221D01*
X68962563Y-43280166D01*
X68968227Y-43257557D01*
X68976079Y-43235613D01*
X68986044Y-43214543D01*
X68998026Y-43194552D01*
X69011910Y-43175832D01*
X69027562Y-43158562D01*
X69044832Y-43142910D01*
X69063552Y-43129026D01*
X69083543Y-43117044D01*
X69104613Y-43107079D01*
X69126557Y-43099227D01*
X69149166Y-43093563D01*
X69172221Y-43090144D01*
X69195500Y-43089000D01*
X69770500Y-43089000D01*
X69793779Y-43090144D01*
X69793779Y-43090144D01*
G37*
D11*
X69483000Y-43564000D03*
D10*
G36*
X71543779Y-43090144D02*
G01*
X71566834Y-43093563D01*
X71589443Y-43099227D01*
X71611387Y-43107079D01*
X71632457Y-43117044D01*
X71652448Y-43129026D01*
X71671168Y-43142910D01*
X71688438Y-43158562D01*
X71704090Y-43175832D01*
X71717974Y-43194552D01*
X71729956Y-43214543D01*
X71739921Y-43235613D01*
X71747773Y-43257557D01*
X71753437Y-43280166D01*
X71756856Y-43303221D01*
X71758000Y-43326500D01*
X71758000Y-43801500D01*
X71756856Y-43824779D01*
X71753437Y-43847834D01*
X71747773Y-43870443D01*
X71739921Y-43892387D01*
X71729956Y-43913457D01*
X71717974Y-43933448D01*
X71704090Y-43952168D01*
X71688438Y-43969438D01*
X71671168Y-43985090D01*
X71652448Y-43998974D01*
X71632457Y-44010956D01*
X71611387Y-44020921D01*
X71589443Y-44028773D01*
X71566834Y-44034437D01*
X71543779Y-44037856D01*
X71520500Y-44039000D01*
X70945500Y-44039000D01*
X70922221Y-44037856D01*
X70899166Y-44034437D01*
X70876557Y-44028773D01*
X70854613Y-44020921D01*
X70833543Y-44010956D01*
X70813552Y-43998974D01*
X70794832Y-43985090D01*
X70777562Y-43969438D01*
X70761910Y-43952168D01*
X70748026Y-43933448D01*
X70736044Y-43913457D01*
X70726079Y-43892387D01*
X70718227Y-43870443D01*
X70712563Y-43847834D01*
X70709144Y-43824779D01*
X70708000Y-43801500D01*
X70708000Y-43326500D01*
X70709144Y-43303221D01*
X70712563Y-43280166D01*
X70718227Y-43257557D01*
X70726079Y-43235613D01*
X70736044Y-43214543D01*
X70748026Y-43194552D01*
X70761910Y-43175832D01*
X70777562Y-43158562D01*
X70794832Y-43142910D01*
X70813552Y-43129026D01*
X70833543Y-43117044D01*
X70854613Y-43107079D01*
X70876557Y-43099227D01*
X70899166Y-43093563D01*
X70922221Y-43090144D01*
X70945500Y-43089000D01*
X71520500Y-43089000D01*
X71543779Y-43090144D01*
X71543779Y-43090144D01*
G37*
D11*
X71233000Y-43564000D03*
D10*
G36*
X73666779Y-44892644D02*
G01*
X73689834Y-44896063D01*
X73712443Y-44901727D01*
X73734387Y-44909579D01*
X73755457Y-44919544D01*
X73775448Y-44931526D01*
X73794168Y-44945410D01*
X73811438Y-44961062D01*
X73827090Y-44978332D01*
X73840974Y-44997052D01*
X73852956Y-45017043D01*
X73862921Y-45038113D01*
X73870773Y-45060057D01*
X73876437Y-45082666D01*
X73879856Y-45105721D01*
X73881000Y-45129000D01*
X73881000Y-45704000D01*
X73879856Y-45727279D01*
X73876437Y-45750334D01*
X73870773Y-45772943D01*
X73862921Y-45794887D01*
X73852956Y-45815957D01*
X73840974Y-45835948D01*
X73827090Y-45854668D01*
X73811438Y-45871938D01*
X73794168Y-45887590D01*
X73775448Y-45901474D01*
X73755457Y-45913456D01*
X73734387Y-45923421D01*
X73712443Y-45931273D01*
X73689834Y-45936937D01*
X73666779Y-45940356D01*
X73643500Y-45941500D01*
X73168500Y-45941500D01*
X73145221Y-45940356D01*
X73122166Y-45936937D01*
X73099557Y-45931273D01*
X73077613Y-45923421D01*
X73056543Y-45913456D01*
X73036552Y-45901474D01*
X73017832Y-45887590D01*
X73000562Y-45871938D01*
X72984910Y-45854668D01*
X72971026Y-45835948D01*
X72959044Y-45815957D01*
X72949079Y-45794887D01*
X72941227Y-45772943D01*
X72935563Y-45750334D01*
X72932144Y-45727279D01*
X72931000Y-45704000D01*
X72931000Y-45129000D01*
X72932144Y-45105721D01*
X72935563Y-45082666D01*
X72941227Y-45060057D01*
X72949079Y-45038113D01*
X72959044Y-45017043D01*
X72971026Y-44997052D01*
X72984910Y-44978332D01*
X73000562Y-44961062D01*
X73017832Y-44945410D01*
X73036552Y-44931526D01*
X73056543Y-44919544D01*
X73077613Y-44909579D01*
X73099557Y-44901727D01*
X73122166Y-44896063D01*
X73145221Y-44892644D01*
X73168500Y-44891500D01*
X73643500Y-44891500D01*
X73666779Y-44892644D01*
X73666779Y-44892644D01*
G37*
D11*
X73406000Y-45416500D03*
D10*
G36*
X73666779Y-46642644D02*
G01*
X73689834Y-46646063D01*
X73712443Y-46651727D01*
X73734387Y-46659579D01*
X73755457Y-46669544D01*
X73775448Y-46681526D01*
X73794168Y-46695410D01*
X73811438Y-46711062D01*
X73827090Y-46728332D01*
X73840974Y-46747052D01*
X73852956Y-46767043D01*
X73862921Y-46788113D01*
X73870773Y-46810057D01*
X73876437Y-46832666D01*
X73879856Y-46855721D01*
X73881000Y-46879000D01*
X73881000Y-47454000D01*
X73879856Y-47477279D01*
X73876437Y-47500334D01*
X73870773Y-47522943D01*
X73862921Y-47544887D01*
X73852956Y-47565957D01*
X73840974Y-47585948D01*
X73827090Y-47604668D01*
X73811438Y-47621938D01*
X73794168Y-47637590D01*
X73775448Y-47651474D01*
X73755457Y-47663456D01*
X73734387Y-47673421D01*
X73712443Y-47681273D01*
X73689834Y-47686937D01*
X73666779Y-47690356D01*
X73643500Y-47691500D01*
X73168500Y-47691500D01*
X73145221Y-47690356D01*
X73122166Y-47686937D01*
X73099557Y-47681273D01*
X73077613Y-47673421D01*
X73056543Y-47663456D01*
X73036552Y-47651474D01*
X73017832Y-47637590D01*
X73000562Y-47621938D01*
X72984910Y-47604668D01*
X72971026Y-47585948D01*
X72959044Y-47565957D01*
X72949079Y-47544887D01*
X72941227Y-47522943D01*
X72935563Y-47500334D01*
X72932144Y-47477279D01*
X72931000Y-47454000D01*
X72931000Y-46879000D01*
X72932144Y-46855721D01*
X72935563Y-46832666D01*
X72941227Y-46810057D01*
X72949079Y-46788113D01*
X72959044Y-46767043D01*
X72971026Y-46747052D01*
X72984910Y-46728332D01*
X73000562Y-46711062D01*
X73017832Y-46695410D01*
X73036552Y-46681526D01*
X73056543Y-46669544D01*
X73077613Y-46659579D01*
X73099557Y-46651727D01*
X73122166Y-46646063D01*
X73145221Y-46642644D01*
X73168500Y-46641500D01*
X73643500Y-46641500D01*
X73666779Y-46642644D01*
X73666779Y-46642644D01*
G37*
D11*
X73406000Y-47166500D03*
D10*
G36*
X117240779Y-58781144D02*
G01*
X117263834Y-58784563D01*
X117286443Y-58790227D01*
X117308387Y-58798079D01*
X117329457Y-58808044D01*
X117349448Y-58820026D01*
X117368168Y-58833910D01*
X117385438Y-58849562D01*
X117401090Y-58866832D01*
X117414974Y-58885552D01*
X117426956Y-58905543D01*
X117436921Y-58926613D01*
X117444773Y-58948557D01*
X117450437Y-58971166D01*
X117453856Y-58994221D01*
X117455000Y-59017500D01*
X117455000Y-59592500D01*
X117453856Y-59615779D01*
X117450437Y-59638834D01*
X117444773Y-59661443D01*
X117436921Y-59683387D01*
X117426956Y-59704457D01*
X117414974Y-59724448D01*
X117401090Y-59743168D01*
X117385438Y-59760438D01*
X117368168Y-59776090D01*
X117349448Y-59789974D01*
X117329457Y-59801956D01*
X117308387Y-59811921D01*
X117286443Y-59819773D01*
X117263834Y-59825437D01*
X117240779Y-59828856D01*
X117217500Y-59830000D01*
X116742500Y-59830000D01*
X116719221Y-59828856D01*
X116696166Y-59825437D01*
X116673557Y-59819773D01*
X116651613Y-59811921D01*
X116630543Y-59801956D01*
X116610552Y-59789974D01*
X116591832Y-59776090D01*
X116574562Y-59760438D01*
X116558910Y-59743168D01*
X116545026Y-59724448D01*
X116533044Y-59704457D01*
X116523079Y-59683387D01*
X116515227Y-59661443D01*
X116509563Y-59638834D01*
X116506144Y-59615779D01*
X116505000Y-59592500D01*
X116505000Y-59017500D01*
X116506144Y-58994221D01*
X116509563Y-58971166D01*
X116515227Y-58948557D01*
X116523079Y-58926613D01*
X116533044Y-58905543D01*
X116545026Y-58885552D01*
X116558910Y-58866832D01*
X116574562Y-58849562D01*
X116591832Y-58833910D01*
X116610552Y-58820026D01*
X116630543Y-58808044D01*
X116651613Y-58798079D01*
X116673557Y-58790227D01*
X116696166Y-58784563D01*
X116719221Y-58781144D01*
X116742500Y-58780000D01*
X117217500Y-58780000D01*
X117240779Y-58781144D01*
X117240779Y-58781144D01*
G37*
D11*
X116980000Y-59305000D03*
D10*
G36*
X117240779Y-57031144D02*
G01*
X117263834Y-57034563D01*
X117286443Y-57040227D01*
X117308387Y-57048079D01*
X117329457Y-57058044D01*
X117349448Y-57070026D01*
X117368168Y-57083910D01*
X117385438Y-57099562D01*
X117401090Y-57116832D01*
X117414974Y-57135552D01*
X117426956Y-57155543D01*
X117436921Y-57176613D01*
X117444773Y-57198557D01*
X117450437Y-57221166D01*
X117453856Y-57244221D01*
X117455000Y-57267500D01*
X117455000Y-57842500D01*
X117453856Y-57865779D01*
X117450437Y-57888834D01*
X117444773Y-57911443D01*
X117436921Y-57933387D01*
X117426956Y-57954457D01*
X117414974Y-57974448D01*
X117401090Y-57993168D01*
X117385438Y-58010438D01*
X117368168Y-58026090D01*
X117349448Y-58039974D01*
X117329457Y-58051956D01*
X117308387Y-58061921D01*
X117286443Y-58069773D01*
X117263834Y-58075437D01*
X117240779Y-58078856D01*
X117217500Y-58080000D01*
X116742500Y-58080000D01*
X116719221Y-58078856D01*
X116696166Y-58075437D01*
X116673557Y-58069773D01*
X116651613Y-58061921D01*
X116630543Y-58051956D01*
X116610552Y-58039974D01*
X116591832Y-58026090D01*
X116574562Y-58010438D01*
X116558910Y-57993168D01*
X116545026Y-57974448D01*
X116533044Y-57954457D01*
X116523079Y-57933387D01*
X116515227Y-57911443D01*
X116509563Y-57888834D01*
X116506144Y-57865779D01*
X116505000Y-57842500D01*
X116505000Y-57267500D01*
X116506144Y-57244221D01*
X116509563Y-57221166D01*
X116515227Y-57198557D01*
X116523079Y-57176613D01*
X116533044Y-57155543D01*
X116545026Y-57135552D01*
X116558910Y-57116832D01*
X116574562Y-57099562D01*
X116591832Y-57083910D01*
X116610552Y-57070026D01*
X116630543Y-57058044D01*
X116651613Y-57048079D01*
X116673557Y-57040227D01*
X116696166Y-57034563D01*
X116719221Y-57031144D01*
X116742500Y-57030000D01*
X117217500Y-57030000D01*
X117240779Y-57031144D01*
X117240779Y-57031144D01*
G37*
D11*
X116980000Y-57555000D03*
D10*
G36*
X117240779Y-51681144D02*
G01*
X117263834Y-51684563D01*
X117286443Y-51690227D01*
X117308387Y-51698079D01*
X117329457Y-51708044D01*
X117349448Y-51720026D01*
X117368168Y-51733910D01*
X117385438Y-51749562D01*
X117401090Y-51766832D01*
X117414974Y-51785552D01*
X117426956Y-51805543D01*
X117436921Y-51826613D01*
X117444773Y-51848557D01*
X117450437Y-51871166D01*
X117453856Y-51894221D01*
X117455000Y-51917500D01*
X117455000Y-52492500D01*
X117453856Y-52515779D01*
X117450437Y-52538834D01*
X117444773Y-52561443D01*
X117436921Y-52583387D01*
X117426956Y-52604457D01*
X117414974Y-52624448D01*
X117401090Y-52643168D01*
X117385438Y-52660438D01*
X117368168Y-52676090D01*
X117349448Y-52689974D01*
X117329457Y-52701956D01*
X117308387Y-52711921D01*
X117286443Y-52719773D01*
X117263834Y-52725437D01*
X117240779Y-52728856D01*
X117217500Y-52730000D01*
X116742500Y-52730000D01*
X116719221Y-52728856D01*
X116696166Y-52725437D01*
X116673557Y-52719773D01*
X116651613Y-52711921D01*
X116630543Y-52701956D01*
X116610552Y-52689974D01*
X116591832Y-52676090D01*
X116574562Y-52660438D01*
X116558910Y-52643168D01*
X116545026Y-52624448D01*
X116533044Y-52604457D01*
X116523079Y-52583387D01*
X116515227Y-52561443D01*
X116509563Y-52538834D01*
X116506144Y-52515779D01*
X116505000Y-52492500D01*
X116505000Y-51917500D01*
X116506144Y-51894221D01*
X116509563Y-51871166D01*
X116515227Y-51848557D01*
X116523079Y-51826613D01*
X116533044Y-51805543D01*
X116545026Y-51785552D01*
X116558910Y-51766832D01*
X116574562Y-51749562D01*
X116591832Y-51733910D01*
X116610552Y-51720026D01*
X116630543Y-51708044D01*
X116651613Y-51698079D01*
X116673557Y-51690227D01*
X116696166Y-51684563D01*
X116719221Y-51681144D01*
X116742500Y-51680000D01*
X117217500Y-51680000D01*
X117240779Y-51681144D01*
X117240779Y-51681144D01*
G37*
D11*
X116980000Y-52205000D03*
D10*
G36*
X117240779Y-53431144D02*
G01*
X117263834Y-53434563D01*
X117286443Y-53440227D01*
X117308387Y-53448079D01*
X117329457Y-53458044D01*
X117349448Y-53470026D01*
X117368168Y-53483910D01*
X117385438Y-53499562D01*
X117401090Y-53516832D01*
X117414974Y-53535552D01*
X117426956Y-53555543D01*
X117436921Y-53576613D01*
X117444773Y-53598557D01*
X117450437Y-53621166D01*
X117453856Y-53644221D01*
X117455000Y-53667500D01*
X117455000Y-54242500D01*
X117453856Y-54265779D01*
X117450437Y-54288834D01*
X117444773Y-54311443D01*
X117436921Y-54333387D01*
X117426956Y-54354457D01*
X117414974Y-54374448D01*
X117401090Y-54393168D01*
X117385438Y-54410438D01*
X117368168Y-54426090D01*
X117349448Y-54439974D01*
X117329457Y-54451956D01*
X117308387Y-54461921D01*
X117286443Y-54469773D01*
X117263834Y-54475437D01*
X117240779Y-54478856D01*
X117217500Y-54480000D01*
X116742500Y-54480000D01*
X116719221Y-54478856D01*
X116696166Y-54475437D01*
X116673557Y-54469773D01*
X116651613Y-54461921D01*
X116630543Y-54451956D01*
X116610552Y-54439974D01*
X116591832Y-54426090D01*
X116574562Y-54410438D01*
X116558910Y-54393168D01*
X116545026Y-54374448D01*
X116533044Y-54354457D01*
X116523079Y-54333387D01*
X116515227Y-54311443D01*
X116509563Y-54288834D01*
X116506144Y-54265779D01*
X116505000Y-54242500D01*
X116505000Y-53667500D01*
X116506144Y-53644221D01*
X116509563Y-53621166D01*
X116515227Y-53598557D01*
X116523079Y-53576613D01*
X116533044Y-53555543D01*
X116545026Y-53535552D01*
X116558910Y-53516832D01*
X116574562Y-53499562D01*
X116591832Y-53483910D01*
X116610552Y-53470026D01*
X116630543Y-53458044D01*
X116651613Y-53448079D01*
X116673557Y-53440227D01*
X116696166Y-53434563D01*
X116719221Y-53431144D01*
X116742500Y-53430000D01*
X117217500Y-53430000D01*
X117240779Y-53431144D01*
X117240779Y-53431144D01*
G37*
D11*
X116980000Y-53955000D03*
D10*
G36*
X117240779Y-45291144D02*
G01*
X117263834Y-45294563D01*
X117286443Y-45300227D01*
X117308387Y-45308079D01*
X117329457Y-45318044D01*
X117349448Y-45330026D01*
X117368168Y-45343910D01*
X117385438Y-45359562D01*
X117401090Y-45376832D01*
X117414974Y-45395552D01*
X117426956Y-45415543D01*
X117436921Y-45436613D01*
X117444773Y-45458557D01*
X117450437Y-45481166D01*
X117453856Y-45504221D01*
X117455000Y-45527500D01*
X117455000Y-46102500D01*
X117453856Y-46125779D01*
X117450437Y-46148834D01*
X117444773Y-46171443D01*
X117436921Y-46193387D01*
X117426956Y-46214457D01*
X117414974Y-46234448D01*
X117401090Y-46253168D01*
X117385438Y-46270438D01*
X117368168Y-46286090D01*
X117349448Y-46299974D01*
X117329457Y-46311956D01*
X117308387Y-46321921D01*
X117286443Y-46329773D01*
X117263834Y-46335437D01*
X117240779Y-46338856D01*
X117217500Y-46340000D01*
X116742500Y-46340000D01*
X116719221Y-46338856D01*
X116696166Y-46335437D01*
X116673557Y-46329773D01*
X116651613Y-46321921D01*
X116630543Y-46311956D01*
X116610552Y-46299974D01*
X116591832Y-46286090D01*
X116574562Y-46270438D01*
X116558910Y-46253168D01*
X116545026Y-46234448D01*
X116533044Y-46214457D01*
X116523079Y-46193387D01*
X116515227Y-46171443D01*
X116509563Y-46148834D01*
X116506144Y-46125779D01*
X116505000Y-46102500D01*
X116505000Y-45527500D01*
X116506144Y-45504221D01*
X116509563Y-45481166D01*
X116515227Y-45458557D01*
X116523079Y-45436613D01*
X116533044Y-45415543D01*
X116545026Y-45395552D01*
X116558910Y-45376832D01*
X116574562Y-45359562D01*
X116591832Y-45343910D01*
X116610552Y-45330026D01*
X116630543Y-45318044D01*
X116651613Y-45308079D01*
X116673557Y-45300227D01*
X116696166Y-45294563D01*
X116719221Y-45291144D01*
X116742500Y-45290000D01*
X117217500Y-45290000D01*
X117240779Y-45291144D01*
X117240779Y-45291144D01*
G37*
D11*
X116980000Y-45815000D03*
D10*
G36*
X117240779Y-43541144D02*
G01*
X117263834Y-43544563D01*
X117286443Y-43550227D01*
X117308387Y-43558079D01*
X117329457Y-43568044D01*
X117349448Y-43580026D01*
X117368168Y-43593910D01*
X117385438Y-43609562D01*
X117401090Y-43626832D01*
X117414974Y-43645552D01*
X117426956Y-43665543D01*
X117436921Y-43686613D01*
X117444773Y-43708557D01*
X117450437Y-43731166D01*
X117453856Y-43754221D01*
X117455000Y-43777500D01*
X117455000Y-44352500D01*
X117453856Y-44375779D01*
X117450437Y-44398834D01*
X117444773Y-44421443D01*
X117436921Y-44443387D01*
X117426956Y-44464457D01*
X117414974Y-44484448D01*
X117401090Y-44503168D01*
X117385438Y-44520438D01*
X117368168Y-44536090D01*
X117349448Y-44549974D01*
X117329457Y-44561956D01*
X117308387Y-44571921D01*
X117286443Y-44579773D01*
X117263834Y-44585437D01*
X117240779Y-44588856D01*
X117217500Y-44590000D01*
X116742500Y-44590000D01*
X116719221Y-44588856D01*
X116696166Y-44585437D01*
X116673557Y-44579773D01*
X116651613Y-44571921D01*
X116630543Y-44561956D01*
X116610552Y-44549974D01*
X116591832Y-44536090D01*
X116574562Y-44520438D01*
X116558910Y-44503168D01*
X116545026Y-44484448D01*
X116533044Y-44464457D01*
X116523079Y-44443387D01*
X116515227Y-44421443D01*
X116509563Y-44398834D01*
X116506144Y-44375779D01*
X116505000Y-44352500D01*
X116505000Y-43777500D01*
X116506144Y-43754221D01*
X116509563Y-43731166D01*
X116515227Y-43708557D01*
X116523079Y-43686613D01*
X116533044Y-43665543D01*
X116545026Y-43645552D01*
X116558910Y-43626832D01*
X116574562Y-43609562D01*
X116591832Y-43593910D01*
X116610552Y-43580026D01*
X116630543Y-43568044D01*
X116651613Y-43558079D01*
X116673557Y-43550227D01*
X116696166Y-43544563D01*
X116719221Y-43541144D01*
X116742500Y-43540000D01*
X117217500Y-43540000D01*
X117240779Y-43541144D01*
X117240779Y-43541144D01*
G37*
D11*
X116980000Y-44065000D03*
D10*
G36*
X117240779Y-39941144D02*
G01*
X117263834Y-39944563D01*
X117286443Y-39950227D01*
X117308387Y-39958079D01*
X117329457Y-39968044D01*
X117349448Y-39980026D01*
X117368168Y-39993910D01*
X117385438Y-40009562D01*
X117401090Y-40026832D01*
X117414974Y-40045552D01*
X117426956Y-40065543D01*
X117436921Y-40086613D01*
X117444773Y-40108557D01*
X117450437Y-40131166D01*
X117453856Y-40154221D01*
X117455000Y-40177500D01*
X117455000Y-40752500D01*
X117453856Y-40775779D01*
X117450437Y-40798834D01*
X117444773Y-40821443D01*
X117436921Y-40843387D01*
X117426956Y-40864457D01*
X117414974Y-40884448D01*
X117401090Y-40903168D01*
X117385438Y-40920438D01*
X117368168Y-40936090D01*
X117349448Y-40949974D01*
X117329457Y-40961956D01*
X117308387Y-40971921D01*
X117286443Y-40979773D01*
X117263834Y-40985437D01*
X117240779Y-40988856D01*
X117217500Y-40990000D01*
X116742500Y-40990000D01*
X116719221Y-40988856D01*
X116696166Y-40985437D01*
X116673557Y-40979773D01*
X116651613Y-40971921D01*
X116630543Y-40961956D01*
X116610552Y-40949974D01*
X116591832Y-40936090D01*
X116574562Y-40920438D01*
X116558910Y-40903168D01*
X116545026Y-40884448D01*
X116533044Y-40864457D01*
X116523079Y-40843387D01*
X116515227Y-40821443D01*
X116509563Y-40798834D01*
X116506144Y-40775779D01*
X116505000Y-40752500D01*
X116505000Y-40177500D01*
X116506144Y-40154221D01*
X116509563Y-40131166D01*
X116515227Y-40108557D01*
X116523079Y-40086613D01*
X116533044Y-40065543D01*
X116545026Y-40045552D01*
X116558910Y-40026832D01*
X116574562Y-40009562D01*
X116591832Y-39993910D01*
X116610552Y-39980026D01*
X116630543Y-39968044D01*
X116651613Y-39958079D01*
X116673557Y-39950227D01*
X116696166Y-39944563D01*
X116719221Y-39941144D01*
X116742500Y-39940000D01*
X117217500Y-39940000D01*
X117240779Y-39941144D01*
X117240779Y-39941144D01*
G37*
D11*
X116980000Y-40465000D03*
D10*
G36*
X117240779Y-38191144D02*
G01*
X117263834Y-38194563D01*
X117286443Y-38200227D01*
X117308387Y-38208079D01*
X117329457Y-38218044D01*
X117349448Y-38230026D01*
X117368168Y-38243910D01*
X117385438Y-38259562D01*
X117401090Y-38276832D01*
X117414974Y-38295552D01*
X117426956Y-38315543D01*
X117436921Y-38336613D01*
X117444773Y-38358557D01*
X117450437Y-38381166D01*
X117453856Y-38404221D01*
X117455000Y-38427500D01*
X117455000Y-39002500D01*
X117453856Y-39025779D01*
X117450437Y-39048834D01*
X117444773Y-39071443D01*
X117436921Y-39093387D01*
X117426956Y-39114457D01*
X117414974Y-39134448D01*
X117401090Y-39153168D01*
X117385438Y-39170438D01*
X117368168Y-39186090D01*
X117349448Y-39199974D01*
X117329457Y-39211956D01*
X117308387Y-39221921D01*
X117286443Y-39229773D01*
X117263834Y-39235437D01*
X117240779Y-39238856D01*
X117217500Y-39240000D01*
X116742500Y-39240000D01*
X116719221Y-39238856D01*
X116696166Y-39235437D01*
X116673557Y-39229773D01*
X116651613Y-39221921D01*
X116630543Y-39211956D01*
X116610552Y-39199974D01*
X116591832Y-39186090D01*
X116574562Y-39170438D01*
X116558910Y-39153168D01*
X116545026Y-39134448D01*
X116533044Y-39114457D01*
X116523079Y-39093387D01*
X116515227Y-39071443D01*
X116509563Y-39048834D01*
X116506144Y-39025779D01*
X116505000Y-39002500D01*
X116505000Y-38427500D01*
X116506144Y-38404221D01*
X116509563Y-38381166D01*
X116515227Y-38358557D01*
X116523079Y-38336613D01*
X116533044Y-38315543D01*
X116545026Y-38295552D01*
X116558910Y-38276832D01*
X116574562Y-38259562D01*
X116591832Y-38243910D01*
X116610552Y-38230026D01*
X116630543Y-38218044D01*
X116651613Y-38208079D01*
X116673557Y-38200227D01*
X116696166Y-38194563D01*
X116719221Y-38191144D01*
X116742500Y-38190000D01*
X117217500Y-38190000D01*
X117240779Y-38191144D01*
X117240779Y-38191144D01*
G37*
D11*
X116980000Y-38715000D03*
D10*
G36*
X106245779Y-32546144D02*
G01*
X106268834Y-32549563D01*
X106291443Y-32555227D01*
X106313387Y-32563079D01*
X106334457Y-32573044D01*
X106354448Y-32585026D01*
X106373168Y-32598910D01*
X106390438Y-32614562D01*
X106406090Y-32631832D01*
X106419974Y-32650552D01*
X106431956Y-32670543D01*
X106441921Y-32691613D01*
X106449773Y-32713557D01*
X106455437Y-32736166D01*
X106458856Y-32759221D01*
X106460000Y-32782500D01*
X106460000Y-33257500D01*
X106458856Y-33280779D01*
X106455437Y-33303834D01*
X106449773Y-33326443D01*
X106441921Y-33348387D01*
X106431956Y-33369457D01*
X106419974Y-33389448D01*
X106406090Y-33408168D01*
X106390438Y-33425438D01*
X106373168Y-33441090D01*
X106354448Y-33454974D01*
X106334457Y-33466956D01*
X106313387Y-33476921D01*
X106291443Y-33484773D01*
X106268834Y-33490437D01*
X106245779Y-33493856D01*
X106222500Y-33495000D01*
X105647500Y-33495000D01*
X105624221Y-33493856D01*
X105601166Y-33490437D01*
X105578557Y-33484773D01*
X105556613Y-33476921D01*
X105535543Y-33466956D01*
X105515552Y-33454974D01*
X105496832Y-33441090D01*
X105479562Y-33425438D01*
X105463910Y-33408168D01*
X105450026Y-33389448D01*
X105438044Y-33369457D01*
X105428079Y-33348387D01*
X105420227Y-33326443D01*
X105414563Y-33303834D01*
X105411144Y-33280779D01*
X105410000Y-33257500D01*
X105410000Y-32782500D01*
X105411144Y-32759221D01*
X105414563Y-32736166D01*
X105420227Y-32713557D01*
X105428079Y-32691613D01*
X105438044Y-32670543D01*
X105450026Y-32650552D01*
X105463910Y-32631832D01*
X105479562Y-32614562D01*
X105496832Y-32598910D01*
X105515552Y-32585026D01*
X105535543Y-32573044D01*
X105556613Y-32563079D01*
X105578557Y-32555227D01*
X105601166Y-32549563D01*
X105624221Y-32546144D01*
X105647500Y-32545000D01*
X106222500Y-32545000D01*
X106245779Y-32546144D01*
X106245779Y-32546144D01*
G37*
D11*
X105935000Y-33020000D03*
D10*
G36*
X104495779Y-32546144D02*
G01*
X104518834Y-32549563D01*
X104541443Y-32555227D01*
X104563387Y-32563079D01*
X104584457Y-32573044D01*
X104604448Y-32585026D01*
X104623168Y-32598910D01*
X104640438Y-32614562D01*
X104656090Y-32631832D01*
X104669974Y-32650552D01*
X104681956Y-32670543D01*
X104691921Y-32691613D01*
X104699773Y-32713557D01*
X104705437Y-32736166D01*
X104708856Y-32759221D01*
X104710000Y-32782500D01*
X104710000Y-33257500D01*
X104708856Y-33280779D01*
X104705437Y-33303834D01*
X104699773Y-33326443D01*
X104691921Y-33348387D01*
X104681956Y-33369457D01*
X104669974Y-33389448D01*
X104656090Y-33408168D01*
X104640438Y-33425438D01*
X104623168Y-33441090D01*
X104604448Y-33454974D01*
X104584457Y-33466956D01*
X104563387Y-33476921D01*
X104541443Y-33484773D01*
X104518834Y-33490437D01*
X104495779Y-33493856D01*
X104472500Y-33495000D01*
X103897500Y-33495000D01*
X103874221Y-33493856D01*
X103851166Y-33490437D01*
X103828557Y-33484773D01*
X103806613Y-33476921D01*
X103785543Y-33466956D01*
X103765552Y-33454974D01*
X103746832Y-33441090D01*
X103729562Y-33425438D01*
X103713910Y-33408168D01*
X103700026Y-33389448D01*
X103688044Y-33369457D01*
X103678079Y-33348387D01*
X103670227Y-33326443D01*
X103664563Y-33303834D01*
X103661144Y-33280779D01*
X103660000Y-33257500D01*
X103660000Y-32782500D01*
X103661144Y-32759221D01*
X103664563Y-32736166D01*
X103670227Y-32713557D01*
X103678079Y-32691613D01*
X103688044Y-32670543D01*
X103700026Y-32650552D01*
X103713910Y-32631832D01*
X103729562Y-32614562D01*
X103746832Y-32598910D01*
X103765552Y-32585026D01*
X103785543Y-32573044D01*
X103806613Y-32563079D01*
X103828557Y-32555227D01*
X103851166Y-32549563D01*
X103874221Y-32546144D01*
X103897500Y-32545000D01*
X104472500Y-32545000D01*
X104495779Y-32546144D01*
X104495779Y-32546144D01*
G37*
D11*
X104185000Y-33020000D03*
D10*
G36*
X111595779Y-32546144D02*
G01*
X111618834Y-32549563D01*
X111641443Y-32555227D01*
X111663387Y-32563079D01*
X111684457Y-32573044D01*
X111704448Y-32585026D01*
X111723168Y-32598910D01*
X111740438Y-32614562D01*
X111756090Y-32631832D01*
X111769974Y-32650552D01*
X111781956Y-32670543D01*
X111791921Y-32691613D01*
X111799773Y-32713557D01*
X111805437Y-32736166D01*
X111808856Y-32759221D01*
X111810000Y-32782500D01*
X111810000Y-33257500D01*
X111808856Y-33280779D01*
X111805437Y-33303834D01*
X111799773Y-33326443D01*
X111791921Y-33348387D01*
X111781956Y-33369457D01*
X111769974Y-33389448D01*
X111756090Y-33408168D01*
X111740438Y-33425438D01*
X111723168Y-33441090D01*
X111704448Y-33454974D01*
X111684457Y-33466956D01*
X111663387Y-33476921D01*
X111641443Y-33484773D01*
X111618834Y-33490437D01*
X111595779Y-33493856D01*
X111572500Y-33495000D01*
X110997500Y-33495000D01*
X110974221Y-33493856D01*
X110951166Y-33490437D01*
X110928557Y-33484773D01*
X110906613Y-33476921D01*
X110885543Y-33466956D01*
X110865552Y-33454974D01*
X110846832Y-33441090D01*
X110829562Y-33425438D01*
X110813910Y-33408168D01*
X110800026Y-33389448D01*
X110788044Y-33369457D01*
X110778079Y-33348387D01*
X110770227Y-33326443D01*
X110764563Y-33303834D01*
X110761144Y-33280779D01*
X110760000Y-33257500D01*
X110760000Y-32782500D01*
X110761144Y-32759221D01*
X110764563Y-32736166D01*
X110770227Y-32713557D01*
X110778079Y-32691613D01*
X110788044Y-32670543D01*
X110800026Y-32650552D01*
X110813910Y-32631832D01*
X110829562Y-32614562D01*
X110846832Y-32598910D01*
X110865552Y-32585026D01*
X110885543Y-32573044D01*
X110906613Y-32563079D01*
X110928557Y-32555227D01*
X110951166Y-32549563D01*
X110974221Y-32546144D01*
X110997500Y-32545000D01*
X111572500Y-32545000D01*
X111595779Y-32546144D01*
X111595779Y-32546144D01*
G37*
D11*
X111285000Y-33020000D03*
D10*
G36*
X109845779Y-32546144D02*
G01*
X109868834Y-32549563D01*
X109891443Y-32555227D01*
X109913387Y-32563079D01*
X109934457Y-32573044D01*
X109954448Y-32585026D01*
X109973168Y-32598910D01*
X109990438Y-32614562D01*
X110006090Y-32631832D01*
X110019974Y-32650552D01*
X110031956Y-32670543D01*
X110041921Y-32691613D01*
X110049773Y-32713557D01*
X110055437Y-32736166D01*
X110058856Y-32759221D01*
X110060000Y-32782500D01*
X110060000Y-33257500D01*
X110058856Y-33280779D01*
X110055437Y-33303834D01*
X110049773Y-33326443D01*
X110041921Y-33348387D01*
X110031956Y-33369457D01*
X110019974Y-33389448D01*
X110006090Y-33408168D01*
X109990438Y-33425438D01*
X109973168Y-33441090D01*
X109954448Y-33454974D01*
X109934457Y-33466956D01*
X109913387Y-33476921D01*
X109891443Y-33484773D01*
X109868834Y-33490437D01*
X109845779Y-33493856D01*
X109822500Y-33495000D01*
X109247500Y-33495000D01*
X109224221Y-33493856D01*
X109201166Y-33490437D01*
X109178557Y-33484773D01*
X109156613Y-33476921D01*
X109135543Y-33466956D01*
X109115552Y-33454974D01*
X109096832Y-33441090D01*
X109079562Y-33425438D01*
X109063910Y-33408168D01*
X109050026Y-33389448D01*
X109038044Y-33369457D01*
X109028079Y-33348387D01*
X109020227Y-33326443D01*
X109014563Y-33303834D01*
X109011144Y-33280779D01*
X109010000Y-33257500D01*
X109010000Y-32782500D01*
X109011144Y-32759221D01*
X109014563Y-32736166D01*
X109020227Y-32713557D01*
X109028079Y-32691613D01*
X109038044Y-32670543D01*
X109050026Y-32650552D01*
X109063910Y-32631832D01*
X109079562Y-32614562D01*
X109096832Y-32598910D01*
X109115552Y-32585026D01*
X109135543Y-32573044D01*
X109156613Y-32563079D01*
X109178557Y-32555227D01*
X109201166Y-32549563D01*
X109224221Y-32546144D01*
X109247500Y-32545000D01*
X109822500Y-32545000D01*
X109845779Y-32546144D01*
X109845779Y-32546144D01*
G37*
D11*
X109535000Y-33020000D03*
D10*
G36*
X92755779Y-32546144D02*
G01*
X92778834Y-32549563D01*
X92801443Y-32555227D01*
X92823387Y-32563079D01*
X92844457Y-32573044D01*
X92864448Y-32585026D01*
X92883168Y-32598910D01*
X92900438Y-32614562D01*
X92916090Y-32631832D01*
X92929974Y-32650552D01*
X92941956Y-32670543D01*
X92951921Y-32691613D01*
X92959773Y-32713557D01*
X92965437Y-32736166D01*
X92968856Y-32759221D01*
X92970000Y-32782500D01*
X92970000Y-33257500D01*
X92968856Y-33280779D01*
X92965437Y-33303834D01*
X92959773Y-33326443D01*
X92951921Y-33348387D01*
X92941956Y-33369457D01*
X92929974Y-33389448D01*
X92916090Y-33408168D01*
X92900438Y-33425438D01*
X92883168Y-33441090D01*
X92864448Y-33454974D01*
X92844457Y-33466956D01*
X92823387Y-33476921D01*
X92801443Y-33484773D01*
X92778834Y-33490437D01*
X92755779Y-33493856D01*
X92732500Y-33495000D01*
X92157500Y-33495000D01*
X92134221Y-33493856D01*
X92111166Y-33490437D01*
X92088557Y-33484773D01*
X92066613Y-33476921D01*
X92045543Y-33466956D01*
X92025552Y-33454974D01*
X92006832Y-33441090D01*
X91989562Y-33425438D01*
X91973910Y-33408168D01*
X91960026Y-33389448D01*
X91948044Y-33369457D01*
X91938079Y-33348387D01*
X91930227Y-33326443D01*
X91924563Y-33303834D01*
X91921144Y-33280779D01*
X91920000Y-33257500D01*
X91920000Y-32782500D01*
X91921144Y-32759221D01*
X91924563Y-32736166D01*
X91930227Y-32713557D01*
X91938079Y-32691613D01*
X91948044Y-32670543D01*
X91960026Y-32650552D01*
X91973910Y-32631832D01*
X91989562Y-32614562D01*
X92006832Y-32598910D01*
X92025552Y-32585026D01*
X92045543Y-32573044D01*
X92066613Y-32563079D01*
X92088557Y-32555227D01*
X92111166Y-32549563D01*
X92134221Y-32546144D01*
X92157500Y-32545000D01*
X92732500Y-32545000D01*
X92755779Y-32546144D01*
X92755779Y-32546144D01*
G37*
D11*
X92445000Y-33020000D03*
D10*
G36*
X91005779Y-32546144D02*
G01*
X91028834Y-32549563D01*
X91051443Y-32555227D01*
X91073387Y-32563079D01*
X91094457Y-32573044D01*
X91114448Y-32585026D01*
X91133168Y-32598910D01*
X91150438Y-32614562D01*
X91166090Y-32631832D01*
X91179974Y-32650552D01*
X91191956Y-32670543D01*
X91201921Y-32691613D01*
X91209773Y-32713557D01*
X91215437Y-32736166D01*
X91218856Y-32759221D01*
X91220000Y-32782500D01*
X91220000Y-33257500D01*
X91218856Y-33280779D01*
X91215437Y-33303834D01*
X91209773Y-33326443D01*
X91201921Y-33348387D01*
X91191956Y-33369457D01*
X91179974Y-33389448D01*
X91166090Y-33408168D01*
X91150438Y-33425438D01*
X91133168Y-33441090D01*
X91114448Y-33454974D01*
X91094457Y-33466956D01*
X91073387Y-33476921D01*
X91051443Y-33484773D01*
X91028834Y-33490437D01*
X91005779Y-33493856D01*
X90982500Y-33495000D01*
X90407500Y-33495000D01*
X90384221Y-33493856D01*
X90361166Y-33490437D01*
X90338557Y-33484773D01*
X90316613Y-33476921D01*
X90295543Y-33466956D01*
X90275552Y-33454974D01*
X90256832Y-33441090D01*
X90239562Y-33425438D01*
X90223910Y-33408168D01*
X90210026Y-33389448D01*
X90198044Y-33369457D01*
X90188079Y-33348387D01*
X90180227Y-33326443D01*
X90174563Y-33303834D01*
X90171144Y-33280779D01*
X90170000Y-33257500D01*
X90170000Y-32782500D01*
X90171144Y-32759221D01*
X90174563Y-32736166D01*
X90180227Y-32713557D01*
X90188079Y-32691613D01*
X90198044Y-32670543D01*
X90210026Y-32650552D01*
X90223910Y-32631832D01*
X90239562Y-32614562D01*
X90256832Y-32598910D01*
X90275552Y-32585026D01*
X90295543Y-32573044D01*
X90316613Y-32563079D01*
X90338557Y-32555227D01*
X90361166Y-32549563D01*
X90384221Y-32546144D01*
X90407500Y-32545000D01*
X90982500Y-32545000D01*
X91005779Y-32546144D01*
X91005779Y-32546144D01*
G37*
D11*
X90695000Y-33020000D03*
D10*
G36*
X96355779Y-32546144D02*
G01*
X96378834Y-32549563D01*
X96401443Y-32555227D01*
X96423387Y-32563079D01*
X96444457Y-32573044D01*
X96464448Y-32585026D01*
X96483168Y-32598910D01*
X96500438Y-32614562D01*
X96516090Y-32631832D01*
X96529974Y-32650552D01*
X96541956Y-32670543D01*
X96551921Y-32691613D01*
X96559773Y-32713557D01*
X96565437Y-32736166D01*
X96568856Y-32759221D01*
X96570000Y-32782500D01*
X96570000Y-33257500D01*
X96568856Y-33280779D01*
X96565437Y-33303834D01*
X96559773Y-33326443D01*
X96551921Y-33348387D01*
X96541956Y-33369457D01*
X96529974Y-33389448D01*
X96516090Y-33408168D01*
X96500438Y-33425438D01*
X96483168Y-33441090D01*
X96464448Y-33454974D01*
X96444457Y-33466956D01*
X96423387Y-33476921D01*
X96401443Y-33484773D01*
X96378834Y-33490437D01*
X96355779Y-33493856D01*
X96332500Y-33495000D01*
X95757500Y-33495000D01*
X95734221Y-33493856D01*
X95711166Y-33490437D01*
X95688557Y-33484773D01*
X95666613Y-33476921D01*
X95645543Y-33466956D01*
X95625552Y-33454974D01*
X95606832Y-33441090D01*
X95589562Y-33425438D01*
X95573910Y-33408168D01*
X95560026Y-33389448D01*
X95548044Y-33369457D01*
X95538079Y-33348387D01*
X95530227Y-33326443D01*
X95524563Y-33303834D01*
X95521144Y-33280779D01*
X95520000Y-33257500D01*
X95520000Y-32782500D01*
X95521144Y-32759221D01*
X95524563Y-32736166D01*
X95530227Y-32713557D01*
X95538079Y-32691613D01*
X95548044Y-32670543D01*
X95560026Y-32650552D01*
X95573910Y-32631832D01*
X95589562Y-32614562D01*
X95606832Y-32598910D01*
X95625552Y-32585026D01*
X95645543Y-32573044D01*
X95666613Y-32563079D01*
X95688557Y-32555227D01*
X95711166Y-32549563D01*
X95734221Y-32546144D01*
X95757500Y-32545000D01*
X96332500Y-32545000D01*
X96355779Y-32546144D01*
X96355779Y-32546144D01*
G37*
D11*
X96045000Y-33020000D03*
D10*
G36*
X98105779Y-32546144D02*
G01*
X98128834Y-32549563D01*
X98151443Y-32555227D01*
X98173387Y-32563079D01*
X98194457Y-32573044D01*
X98214448Y-32585026D01*
X98233168Y-32598910D01*
X98250438Y-32614562D01*
X98266090Y-32631832D01*
X98279974Y-32650552D01*
X98291956Y-32670543D01*
X98301921Y-32691613D01*
X98309773Y-32713557D01*
X98315437Y-32736166D01*
X98318856Y-32759221D01*
X98320000Y-32782500D01*
X98320000Y-33257500D01*
X98318856Y-33280779D01*
X98315437Y-33303834D01*
X98309773Y-33326443D01*
X98301921Y-33348387D01*
X98291956Y-33369457D01*
X98279974Y-33389448D01*
X98266090Y-33408168D01*
X98250438Y-33425438D01*
X98233168Y-33441090D01*
X98214448Y-33454974D01*
X98194457Y-33466956D01*
X98173387Y-33476921D01*
X98151443Y-33484773D01*
X98128834Y-33490437D01*
X98105779Y-33493856D01*
X98082500Y-33495000D01*
X97507500Y-33495000D01*
X97484221Y-33493856D01*
X97461166Y-33490437D01*
X97438557Y-33484773D01*
X97416613Y-33476921D01*
X97395543Y-33466956D01*
X97375552Y-33454974D01*
X97356832Y-33441090D01*
X97339562Y-33425438D01*
X97323910Y-33408168D01*
X97310026Y-33389448D01*
X97298044Y-33369457D01*
X97288079Y-33348387D01*
X97280227Y-33326443D01*
X97274563Y-33303834D01*
X97271144Y-33280779D01*
X97270000Y-33257500D01*
X97270000Y-32782500D01*
X97271144Y-32759221D01*
X97274563Y-32736166D01*
X97280227Y-32713557D01*
X97288079Y-32691613D01*
X97298044Y-32670543D01*
X97310026Y-32650552D01*
X97323910Y-32631832D01*
X97339562Y-32614562D01*
X97356832Y-32598910D01*
X97375552Y-32585026D01*
X97395543Y-32573044D01*
X97416613Y-32563079D01*
X97438557Y-32555227D01*
X97461166Y-32549563D01*
X97484221Y-32546144D01*
X97507500Y-32545000D01*
X98082500Y-32545000D01*
X98105779Y-32546144D01*
X98105779Y-32546144D01*
G37*
D11*
X97795000Y-33020000D03*
D10*
G36*
X84497779Y-44036144D02*
G01*
X84520834Y-44039563D01*
X84543443Y-44045227D01*
X84565387Y-44053079D01*
X84586457Y-44063044D01*
X84606448Y-44075026D01*
X84625168Y-44088910D01*
X84642438Y-44104562D01*
X84658090Y-44121832D01*
X84671974Y-44140552D01*
X84683956Y-44160543D01*
X84693921Y-44181613D01*
X84701773Y-44203557D01*
X84707437Y-44226166D01*
X84710856Y-44249221D01*
X84712000Y-44272500D01*
X84712000Y-44747500D01*
X84710856Y-44770779D01*
X84707437Y-44793834D01*
X84701773Y-44816443D01*
X84693921Y-44838387D01*
X84683956Y-44859457D01*
X84671974Y-44879448D01*
X84658090Y-44898168D01*
X84642438Y-44915438D01*
X84625168Y-44931090D01*
X84606448Y-44944974D01*
X84586457Y-44956956D01*
X84565387Y-44966921D01*
X84543443Y-44974773D01*
X84520834Y-44980437D01*
X84497779Y-44983856D01*
X84474500Y-44985000D01*
X83899500Y-44985000D01*
X83876221Y-44983856D01*
X83853166Y-44980437D01*
X83830557Y-44974773D01*
X83808613Y-44966921D01*
X83787543Y-44956956D01*
X83767552Y-44944974D01*
X83748832Y-44931090D01*
X83731562Y-44915438D01*
X83715910Y-44898168D01*
X83702026Y-44879448D01*
X83690044Y-44859457D01*
X83680079Y-44838387D01*
X83672227Y-44816443D01*
X83666563Y-44793834D01*
X83663144Y-44770779D01*
X83662000Y-44747500D01*
X83662000Y-44272500D01*
X83663144Y-44249221D01*
X83666563Y-44226166D01*
X83672227Y-44203557D01*
X83680079Y-44181613D01*
X83690044Y-44160543D01*
X83702026Y-44140552D01*
X83715910Y-44121832D01*
X83731562Y-44104562D01*
X83748832Y-44088910D01*
X83767552Y-44075026D01*
X83787543Y-44063044D01*
X83808613Y-44053079D01*
X83830557Y-44045227D01*
X83853166Y-44039563D01*
X83876221Y-44036144D01*
X83899500Y-44035000D01*
X84474500Y-44035000D01*
X84497779Y-44036144D01*
X84497779Y-44036144D01*
G37*
D11*
X84187000Y-44510000D03*
D10*
G36*
X82747779Y-44036144D02*
G01*
X82770834Y-44039563D01*
X82793443Y-44045227D01*
X82815387Y-44053079D01*
X82836457Y-44063044D01*
X82856448Y-44075026D01*
X82875168Y-44088910D01*
X82892438Y-44104562D01*
X82908090Y-44121832D01*
X82921974Y-44140552D01*
X82933956Y-44160543D01*
X82943921Y-44181613D01*
X82951773Y-44203557D01*
X82957437Y-44226166D01*
X82960856Y-44249221D01*
X82962000Y-44272500D01*
X82962000Y-44747500D01*
X82960856Y-44770779D01*
X82957437Y-44793834D01*
X82951773Y-44816443D01*
X82943921Y-44838387D01*
X82933956Y-44859457D01*
X82921974Y-44879448D01*
X82908090Y-44898168D01*
X82892438Y-44915438D01*
X82875168Y-44931090D01*
X82856448Y-44944974D01*
X82836457Y-44956956D01*
X82815387Y-44966921D01*
X82793443Y-44974773D01*
X82770834Y-44980437D01*
X82747779Y-44983856D01*
X82724500Y-44985000D01*
X82149500Y-44985000D01*
X82126221Y-44983856D01*
X82103166Y-44980437D01*
X82080557Y-44974773D01*
X82058613Y-44966921D01*
X82037543Y-44956956D01*
X82017552Y-44944974D01*
X81998832Y-44931090D01*
X81981562Y-44915438D01*
X81965910Y-44898168D01*
X81952026Y-44879448D01*
X81940044Y-44859457D01*
X81930079Y-44838387D01*
X81922227Y-44816443D01*
X81916563Y-44793834D01*
X81913144Y-44770779D01*
X81912000Y-44747500D01*
X81912000Y-44272500D01*
X81913144Y-44249221D01*
X81916563Y-44226166D01*
X81922227Y-44203557D01*
X81930079Y-44181613D01*
X81940044Y-44160543D01*
X81952026Y-44140552D01*
X81965910Y-44121832D01*
X81981562Y-44104562D01*
X81998832Y-44088910D01*
X82017552Y-44075026D01*
X82037543Y-44063044D01*
X82058613Y-44053079D01*
X82080557Y-44045227D01*
X82103166Y-44039563D01*
X82126221Y-44036144D01*
X82149500Y-44035000D01*
X82724500Y-44035000D01*
X82747779Y-44036144D01*
X82747779Y-44036144D01*
G37*
D11*
X82437000Y-44510000D03*
D10*
G36*
X84497779Y-47599144D02*
G01*
X84520834Y-47602563D01*
X84543443Y-47608227D01*
X84565387Y-47616079D01*
X84586457Y-47626044D01*
X84606448Y-47638026D01*
X84625168Y-47651910D01*
X84642438Y-47667562D01*
X84658090Y-47684832D01*
X84671974Y-47703552D01*
X84683956Y-47723543D01*
X84693921Y-47744613D01*
X84701773Y-47766557D01*
X84707437Y-47789166D01*
X84710856Y-47812221D01*
X84712000Y-47835500D01*
X84712000Y-48310500D01*
X84710856Y-48333779D01*
X84707437Y-48356834D01*
X84701773Y-48379443D01*
X84693921Y-48401387D01*
X84683956Y-48422457D01*
X84671974Y-48442448D01*
X84658090Y-48461168D01*
X84642438Y-48478438D01*
X84625168Y-48494090D01*
X84606448Y-48507974D01*
X84586457Y-48519956D01*
X84565387Y-48529921D01*
X84543443Y-48537773D01*
X84520834Y-48543437D01*
X84497779Y-48546856D01*
X84474500Y-48548000D01*
X83899500Y-48548000D01*
X83876221Y-48546856D01*
X83853166Y-48543437D01*
X83830557Y-48537773D01*
X83808613Y-48529921D01*
X83787543Y-48519956D01*
X83767552Y-48507974D01*
X83748832Y-48494090D01*
X83731562Y-48478438D01*
X83715910Y-48461168D01*
X83702026Y-48442448D01*
X83690044Y-48422457D01*
X83680079Y-48401387D01*
X83672227Y-48379443D01*
X83666563Y-48356834D01*
X83663144Y-48333779D01*
X83662000Y-48310500D01*
X83662000Y-47835500D01*
X83663144Y-47812221D01*
X83666563Y-47789166D01*
X83672227Y-47766557D01*
X83680079Y-47744613D01*
X83690044Y-47723543D01*
X83702026Y-47703552D01*
X83715910Y-47684832D01*
X83731562Y-47667562D01*
X83748832Y-47651910D01*
X83767552Y-47638026D01*
X83787543Y-47626044D01*
X83808613Y-47616079D01*
X83830557Y-47608227D01*
X83853166Y-47602563D01*
X83876221Y-47599144D01*
X83899500Y-47598000D01*
X84474500Y-47598000D01*
X84497779Y-47599144D01*
X84497779Y-47599144D01*
G37*
D11*
X84187000Y-48073000D03*
D10*
G36*
X82747779Y-47599144D02*
G01*
X82770834Y-47602563D01*
X82793443Y-47608227D01*
X82815387Y-47616079D01*
X82836457Y-47626044D01*
X82856448Y-47638026D01*
X82875168Y-47651910D01*
X82892438Y-47667562D01*
X82908090Y-47684832D01*
X82921974Y-47703552D01*
X82933956Y-47723543D01*
X82943921Y-47744613D01*
X82951773Y-47766557D01*
X82957437Y-47789166D01*
X82960856Y-47812221D01*
X82962000Y-47835500D01*
X82962000Y-48310500D01*
X82960856Y-48333779D01*
X82957437Y-48356834D01*
X82951773Y-48379443D01*
X82943921Y-48401387D01*
X82933956Y-48422457D01*
X82921974Y-48442448D01*
X82908090Y-48461168D01*
X82892438Y-48478438D01*
X82875168Y-48494090D01*
X82856448Y-48507974D01*
X82836457Y-48519956D01*
X82815387Y-48529921D01*
X82793443Y-48537773D01*
X82770834Y-48543437D01*
X82747779Y-48546856D01*
X82724500Y-48548000D01*
X82149500Y-48548000D01*
X82126221Y-48546856D01*
X82103166Y-48543437D01*
X82080557Y-48537773D01*
X82058613Y-48529921D01*
X82037543Y-48519956D01*
X82017552Y-48507974D01*
X81998832Y-48494090D01*
X81981562Y-48478438D01*
X81965910Y-48461168D01*
X81952026Y-48442448D01*
X81940044Y-48422457D01*
X81930079Y-48401387D01*
X81922227Y-48379443D01*
X81916563Y-48356834D01*
X81913144Y-48333779D01*
X81912000Y-48310500D01*
X81912000Y-47835500D01*
X81913144Y-47812221D01*
X81916563Y-47789166D01*
X81922227Y-47766557D01*
X81930079Y-47744613D01*
X81940044Y-47723543D01*
X81952026Y-47703552D01*
X81965910Y-47684832D01*
X81981562Y-47667562D01*
X81998832Y-47651910D01*
X82017552Y-47638026D01*
X82037543Y-47626044D01*
X82058613Y-47616079D01*
X82080557Y-47608227D01*
X82103166Y-47602563D01*
X82126221Y-47599144D01*
X82149500Y-47598000D01*
X82724500Y-47598000D01*
X82747779Y-47599144D01*
X82747779Y-47599144D01*
G37*
D11*
X82437000Y-48073000D03*
D10*
G36*
X89619779Y-77631144D02*
G01*
X89642834Y-77634563D01*
X89665443Y-77640227D01*
X89687387Y-77648079D01*
X89708457Y-77658044D01*
X89728448Y-77670026D01*
X89747168Y-77683910D01*
X89764438Y-77699562D01*
X89780090Y-77716832D01*
X89793974Y-77735552D01*
X89805956Y-77755543D01*
X89815921Y-77776613D01*
X89823773Y-77798557D01*
X89829437Y-77821166D01*
X89832856Y-77844221D01*
X89834000Y-77867500D01*
X89834000Y-78342500D01*
X89832856Y-78365779D01*
X89829437Y-78388834D01*
X89823773Y-78411443D01*
X89815921Y-78433387D01*
X89805956Y-78454457D01*
X89793974Y-78474448D01*
X89780090Y-78493168D01*
X89764438Y-78510438D01*
X89747168Y-78526090D01*
X89728448Y-78539974D01*
X89708457Y-78551956D01*
X89687387Y-78561921D01*
X89665443Y-78569773D01*
X89642834Y-78575437D01*
X89619779Y-78578856D01*
X89596500Y-78580000D01*
X89021500Y-78580000D01*
X88998221Y-78578856D01*
X88975166Y-78575437D01*
X88952557Y-78569773D01*
X88930613Y-78561921D01*
X88909543Y-78551956D01*
X88889552Y-78539974D01*
X88870832Y-78526090D01*
X88853562Y-78510438D01*
X88837910Y-78493168D01*
X88824026Y-78474448D01*
X88812044Y-78454457D01*
X88802079Y-78433387D01*
X88794227Y-78411443D01*
X88788563Y-78388834D01*
X88785144Y-78365779D01*
X88784000Y-78342500D01*
X88784000Y-77867500D01*
X88785144Y-77844221D01*
X88788563Y-77821166D01*
X88794227Y-77798557D01*
X88802079Y-77776613D01*
X88812044Y-77755543D01*
X88824026Y-77735552D01*
X88837910Y-77716832D01*
X88853562Y-77699562D01*
X88870832Y-77683910D01*
X88889552Y-77670026D01*
X88909543Y-77658044D01*
X88930613Y-77648079D01*
X88952557Y-77640227D01*
X88975166Y-77634563D01*
X88998221Y-77631144D01*
X89021500Y-77630000D01*
X89596500Y-77630000D01*
X89619779Y-77631144D01*
X89619779Y-77631144D01*
G37*
D11*
X89309000Y-78105000D03*
D10*
G36*
X91369779Y-77631144D02*
G01*
X91392834Y-77634563D01*
X91415443Y-77640227D01*
X91437387Y-77648079D01*
X91458457Y-77658044D01*
X91478448Y-77670026D01*
X91497168Y-77683910D01*
X91514438Y-77699562D01*
X91530090Y-77716832D01*
X91543974Y-77735552D01*
X91555956Y-77755543D01*
X91565921Y-77776613D01*
X91573773Y-77798557D01*
X91579437Y-77821166D01*
X91582856Y-77844221D01*
X91584000Y-77867500D01*
X91584000Y-78342500D01*
X91582856Y-78365779D01*
X91579437Y-78388834D01*
X91573773Y-78411443D01*
X91565921Y-78433387D01*
X91555956Y-78454457D01*
X91543974Y-78474448D01*
X91530090Y-78493168D01*
X91514438Y-78510438D01*
X91497168Y-78526090D01*
X91478448Y-78539974D01*
X91458457Y-78551956D01*
X91437387Y-78561921D01*
X91415443Y-78569773D01*
X91392834Y-78575437D01*
X91369779Y-78578856D01*
X91346500Y-78580000D01*
X90771500Y-78580000D01*
X90748221Y-78578856D01*
X90725166Y-78575437D01*
X90702557Y-78569773D01*
X90680613Y-78561921D01*
X90659543Y-78551956D01*
X90639552Y-78539974D01*
X90620832Y-78526090D01*
X90603562Y-78510438D01*
X90587910Y-78493168D01*
X90574026Y-78474448D01*
X90562044Y-78454457D01*
X90552079Y-78433387D01*
X90544227Y-78411443D01*
X90538563Y-78388834D01*
X90535144Y-78365779D01*
X90534000Y-78342500D01*
X90534000Y-77867500D01*
X90535144Y-77844221D01*
X90538563Y-77821166D01*
X90544227Y-77798557D01*
X90552079Y-77776613D01*
X90562044Y-77755543D01*
X90574026Y-77735552D01*
X90587910Y-77716832D01*
X90603562Y-77699562D01*
X90620832Y-77683910D01*
X90639552Y-77670026D01*
X90659543Y-77658044D01*
X90680613Y-77648079D01*
X90702557Y-77640227D01*
X90725166Y-77634563D01*
X90748221Y-77631144D01*
X90771500Y-77630000D01*
X91346500Y-77630000D01*
X91369779Y-77631144D01*
X91369779Y-77631144D01*
G37*
D11*
X91059000Y-78105000D03*
D10*
G36*
X97559703Y-59900722D02*
G01*
X97574264Y-59902882D01*
X97588543Y-59906459D01*
X97602403Y-59911418D01*
X97615710Y-59917712D01*
X97628336Y-59925280D01*
X97640159Y-59934048D01*
X97651066Y-59943934D01*
X97660952Y-59954841D01*
X97669720Y-59966664D01*
X97677288Y-59979290D01*
X97683582Y-59992597D01*
X97688541Y-60006457D01*
X97692118Y-60020736D01*
X97694278Y-60035297D01*
X97695000Y-60050000D01*
X97695000Y-60350000D01*
X97694278Y-60364703D01*
X97692118Y-60379264D01*
X97688541Y-60393543D01*
X97683582Y-60407403D01*
X97677288Y-60420710D01*
X97669720Y-60433336D01*
X97660952Y-60445159D01*
X97651066Y-60456066D01*
X97640159Y-60465952D01*
X97628336Y-60474720D01*
X97615710Y-60482288D01*
X97602403Y-60488582D01*
X97588543Y-60493541D01*
X97574264Y-60497118D01*
X97559703Y-60499278D01*
X97545000Y-60500000D01*
X95895000Y-60500000D01*
X95880297Y-60499278D01*
X95865736Y-60497118D01*
X95851457Y-60493541D01*
X95837597Y-60488582D01*
X95824290Y-60482288D01*
X95811664Y-60474720D01*
X95799841Y-60465952D01*
X95788934Y-60456066D01*
X95779048Y-60445159D01*
X95770280Y-60433336D01*
X95762712Y-60420710D01*
X95756418Y-60407403D01*
X95751459Y-60393543D01*
X95747882Y-60379264D01*
X95745722Y-60364703D01*
X95745000Y-60350000D01*
X95745000Y-60050000D01*
X95745722Y-60035297D01*
X95747882Y-60020736D01*
X95751459Y-60006457D01*
X95756418Y-59992597D01*
X95762712Y-59979290D01*
X95770280Y-59966664D01*
X95779048Y-59954841D01*
X95788934Y-59943934D01*
X95799841Y-59934048D01*
X95811664Y-59925280D01*
X95824290Y-59917712D01*
X95837597Y-59911418D01*
X95851457Y-59906459D01*
X95865736Y-59902882D01*
X95880297Y-59900722D01*
X95895000Y-59900000D01*
X97545000Y-59900000D01*
X97559703Y-59900722D01*
X97559703Y-59900722D01*
G37*
D12*
X96720000Y-60200000D03*
D10*
G36*
X97559703Y-58630722D02*
G01*
X97574264Y-58632882D01*
X97588543Y-58636459D01*
X97602403Y-58641418D01*
X97615710Y-58647712D01*
X97628336Y-58655280D01*
X97640159Y-58664048D01*
X97651066Y-58673934D01*
X97660952Y-58684841D01*
X97669720Y-58696664D01*
X97677288Y-58709290D01*
X97683582Y-58722597D01*
X97688541Y-58736457D01*
X97692118Y-58750736D01*
X97694278Y-58765297D01*
X97695000Y-58780000D01*
X97695000Y-59080000D01*
X97694278Y-59094703D01*
X97692118Y-59109264D01*
X97688541Y-59123543D01*
X97683582Y-59137403D01*
X97677288Y-59150710D01*
X97669720Y-59163336D01*
X97660952Y-59175159D01*
X97651066Y-59186066D01*
X97640159Y-59195952D01*
X97628336Y-59204720D01*
X97615710Y-59212288D01*
X97602403Y-59218582D01*
X97588543Y-59223541D01*
X97574264Y-59227118D01*
X97559703Y-59229278D01*
X97545000Y-59230000D01*
X95895000Y-59230000D01*
X95880297Y-59229278D01*
X95865736Y-59227118D01*
X95851457Y-59223541D01*
X95837597Y-59218582D01*
X95824290Y-59212288D01*
X95811664Y-59204720D01*
X95799841Y-59195952D01*
X95788934Y-59186066D01*
X95779048Y-59175159D01*
X95770280Y-59163336D01*
X95762712Y-59150710D01*
X95756418Y-59137403D01*
X95751459Y-59123543D01*
X95747882Y-59109264D01*
X95745722Y-59094703D01*
X95745000Y-59080000D01*
X95745000Y-58780000D01*
X95745722Y-58765297D01*
X95747882Y-58750736D01*
X95751459Y-58736457D01*
X95756418Y-58722597D01*
X95762712Y-58709290D01*
X95770280Y-58696664D01*
X95779048Y-58684841D01*
X95788934Y-58673934D01*
X95799841Y-58664048D01*
X95811664Y-58655280D01*
X95824290Y-58647712D01*
X95837597Y-58641418D01*
X95851457Y-58636459D01*
X95865736Y-58632882D01*
X95880297Y-58630722D01*
X95895000Y-58630000D01*
X97545000Y-58630000D01*
X97559703Y-58630722D01*
X97559703Y-58630722D01*
G37*
D12*
X96720000Y-58930000D03*
D10*
G36*
X97559703Y-57360722D02*
G01*
X97574264Y-57362882D01*
X97588543Y-57366459D01*
X97602403Y-57371418D01*
X97615710Y-57377712D01*
X97628336Y-57385280D01*
X97640159Y-57394048D01*
X97651066Y-57403934D01*
X97660952Y-57414841D01*
X97669720Y-57426664D01*
X97677288Y-57439290D01*
X97683582Y-57452597D01*
X97688541Y-57466457D01*
X97692118Y-57480736D01*
X97694278Y-57495297D01*
X97695000Y-57510000D01*
X97695000Y-57810000D01*
X97694278Y-57824703D01*
X97692118Y-57839264D01*
X97688541Y-57853543D01*
X97683582Y-57867403D01*
X97677288Y-57880710D01*
X97669720Y-57893336D01*
X97660952Y-57905159D01*
X97651066Y-57916066D01*
X97640159Y-57925952D01*
X97628336Y-57934720D01*
X97615710Y-57942288D01*
X97602403Y-57948582D01*
X97588543Y-57953541D01*
X97574264Y-57957118D01*
X97559703Y-57959278D01*
X97545000Y-57960000D01*
X95895000Y-57960000D01*
X95880297Y-57959278D01*
X95865736Y-57957118D01*
X95851457Y-57953541D01*
X95837597Y-57948582D01*
X95824290Y-57942288D01*
X95811664Y-57934720D01*
X95799841Y-57925952D01*
X95788934Y-57916066D01*
X95779048Y-57905159D01*
X95770280Y-57893336D01*
X95762712Y-57880710D01*
X95756418Y-57867403D01*
X95751459Y-57853543D01*
X95747882Y-57839264D01*
X95745722Y-57824703D01*
X95745000Y-57810000D01*
X95745000Y-57510000D01*
X95745722Y-57495297D01*
X95747882Y-57480736D01*
X95751459Y-57466457D01*
X95756418Y-57452597D01*
X95762712Y-57439290D01*
X95770280Y-57426664D01*
X95779048Y-57414841D01*
X95788934Y-57403934D01*
X95799841Y-57394048D01*
X95811664Y-57385280D01*
X95824290Y-57377712D01*
X95837597Y-57371418D01*
X95851457Y-57366459D01*
X95865736Y-57362882D01*
X95880297Y-57360722D01*
X95895000Y-57360000D01*
X97545000Y-57360000D01*
X97559703Y-57360722D01*
X97559703Y-57360722D01*
G37*
D12*
X96720000Y-57660000D03*
D10*
G36*
X97559703Y-56090722D02*
G01*
X97574264Y-56092882D01*
X97588543Y-56096459D01*
X97602403Y-56101418D01*
X97615710Y-56107712D01*
X97628336Y-56115280D01*
X97640159Y-56124048D01*
X97651066Y-56133934D01*
X97660952Y-56144841D01*
X97669720Y-56156664D01*
X97677288Y-56169290D01*
X97683582Y-56182597D01*
X97688541Y-56196457D01*
X97692118Y-56210736D01*
X97694278Y-56225297D01*
X97695000Y-56240000D01*
X97695000Y-56540000D01*
X97694278Y-56554703D01*
X97692118Y-56569264D01*
X97688541Y-56583543D01*
X97683582Y-56597403D01*
X97677288Y-56610710D01*
X97669720Y-56623336D01*
X97660952Y-56635159D01*
X97651066Y-56646066D01*
X97640159Y-56655952D01*
X97628336Y-56664720D01*
X97615710Y-56672288D01*
X97602403Y-56678582D01*
X97588543Y-56683541D01*
X97574264Y-56687118D01*
X97559703Y-56689278D01*
X97545000Y-56690000D01*
X95895000Y-56690000D01*
X95880297Y-56689278D01*
X95865736Y-56687118D01*
X95851457Y-56683541D01*
X95837597Y-56678582D01*
X95824290Y-56672288D01*
X95811664Y-56664720D01*
X95799841Y-56655952D01*
X95788934Y-56646066D01*
X95779048Y-56635159D01*
X95770280Y-56623336D01*
X95762712Y-56610710D01*
X95756418Y-56597403D01*
X95751459Y-56583543D01*
X95747882Y-56569264D01*
X95745722Y-56554703D01*
X95745000Y-56540000D01*
X95745000Y-56240000D01*
X95745722Y-56225297D01*
X95747882Y-56210736D01*
X95751459Y-56196457D01*
X95756418Y-56182597D01*
X95762712Y-56169290D01*
X95770280Y-56156664D01*
X95779048Y-56144841D01*
X95788934Y-56133934D01*
X95799841Y-56124048D01*
X95811664Y-56115280D01*
X95824290Y-56107712D01*
X95837597Y-56101418D01*
X95851457Y-56096459D01*
X95865736Y-56092882D01*
X95880297Y-56090722D01*
X95895000Y-56090000D01*
X97545000Y-56090000D01*
X97559703Y-56090722D01*
X97559703Y-56090722D01*
G37*
D12*
X96720000Y-56390000D03*
D10*
G36*
X97559703Y-54820722D02*
G01*
X97574264Y-54822882D01*
X97588543Y-54826459D01*
X97602403Y-54831418D01*
X97615710Y-54837712D01*
X97628336Y-54845280D01*
X97640159Y-54854048D01*
X97651066Y-54863934D01*
X97660952Y-54874841D01*
X97669720Y-54886664D01*
X97677288Y-54899290D01*
X97683582Y-54912597D01*
X97688541Y-54926457D01*
X97692118Y-54940736D01*
X97694278Y-54955297D01*
X97695000Y-54970000D01*
X97695000Y-55270000D01*
X97694278Y-55284703D01*
X97692118Y-55299264D01*
X97688541Y-55313543D01*
X97683582Y-55327403D01*
X97677288Y-55340710D01*
X97669720Y-55353336D01*
X97660952Y-55365159D01*
X97651066Y-55376066D01*
X97640159Y-55385952D01*
X97628336Y-55394720D01*
X97615710Y-55402288D01*
X97602403Y-55408582D01*
X97588543Y-55413541D01*
X97574264Y-55417118D01*
X97559703Y-55419278D01*
X97545000Y-55420000D01*
X95895000Y-55420000D01*
X95880297Y-55419278D01*
X95865736Y-55417118D01*
X95851457Y-55413541D01*
X95837597Y-55408582D01*
X95824290Y-55402288D01*
X95811664Y-55394720D01*
X95799841Y-55385952D01*
X95788934Y-55376066D01*
X95779048Y-55365159D01*
X95770280Y-55353336D01*
X95762712Y-55340710D01*
X95756418Y-55327403D01*
X95751459Y-55313543D01*
X95747882Y-55299264D01*
X95745722Y-55284703D01*
X95745000Y-55270000D01*
X95745000Y-54970000D01*
X95745722Y-54955297D01*
X95747882Y-54940736D01*
X95751459Y-54926457D01*
X95756418Y-54912597D01*
X95762712Y-54899290D01*
X95770280Y-54886664D01*
X95779048Y-54874841D01*
X95788934Y-54863934D01*
X95799841Y-54854048D01*
X95811664Y-54845280D01*
X95824290Y-54837712D01*
X95837597Y-54831418D01*
X95851457Y-54826459D01*
X95865736Y-54822882D01*
X95880297Y-54820722D01*
X95895000Y-54820000D01*
X97545000Y-54820000D01*
X97559703Y-54820722D01*
X97559703Y-54820722D01*
G37*
D12*
X96720000Y-55120000D03*
D10*
G36*
X97559703Y-53550722D02*
G01*
X97574264Y-53552882D01*
X97588543Y-53556459D01*
X97602403Y-53561418D01*
X97615710Y-53567712D01*
X97628336Y-53575280D01*
X97640159Y-53584048D01*
X97651066Y-53593934D01*
X97660952Y-53604841D01*
X97669720Y-53616664D01*
X97677288Y-53629290D01*
X97683582Y-53642597D01*
X97688541Y-53656457D01*
X97692118Y-53670736D01*
X97694278Y-53685297D01*
X97695000Y-53700000D01*
X97695000Y-54000000D01*
X97694278Y-54014703D01*
X97692118Y-54029264D01*
X97688541Y-54043543D01*
X97683582Y-54057403D01*
X97677288Y-54070710D01*
X97669720Y-54083336D01*
X97660952Y-54095159D01*
X97651066Y-54106066D01*
X97640159Y-54115952D01*
X97628336Y-54124720D01*
X97615710Y-54132288D01*
X97602403Y-54138582D01*
X97588543Y-54143541D01*
X97574264Y-54147118D01*
X97559703Y-54149278D01*
X97545000Y-54150000D01*
X95895000Y-54150000D01*
X95880297Y-54149278D01*
X95865736Y-54147118D01*
X95851457Y-54143541D01*
X95837597Y-54138582D01*
X95824290Y-54132288D01*
X95811664Y-54124720D01*
X95799841Y-54115952D01*
X95788934Y-54106066D01*
X95779048Y-54095159D01*
X95770280Y-54083336D01*
X95762712Y-54070710D01*
X95756418Y-54057403D01*
X95751459Y-54043543D01*
X95747882Y-54029264D01*
X95745722Y-54014703D01*
X95745000Y-54000000D01*
X95745000Y-53700000D01*
X95745722Y-53685297D01*
X95747882Y-53670736D01*
X95751459Y-53656457D01*
X95756418Y-53642597D01*
X95762712Y-53629290D01*
X95770280Y-53616664D01*
X95779048Y-53604841D01*
X95788934Y-53593934D01*
X95799841Y-53584048D01*
X95811664Y-53575280D01*
X95824290Y-53567712D01*
X95837597Y-53561418D01*
X95851457Y-53556459D01*
X95865736Y-53552882D01*
X95880297Y-53550722D01*
X95895000Y-53550000D01*
X97545000Y-53550000D01*
X97559703Y-53550722D01*
X97559703Y-53550722D01*
G37*
D12*
X96720000Y-53850000D03*
D10*
G36*
X97559703Y-52280722D02*
G01*
X97574264Y-52282882D01*
X97588543Y-52286459D01*
X97602403Y-52291418D01*
X97615710Y-52297712D01*
X97628336Y-52305280D01*
X97640159Y-52314048D01*
X97651066Y-52323934D01*
X97660952Y-52334841D01*
X97669720Y-52346664D01*
X97677288Y-52359290D01*
X97683582Y-52372597D01*
X97688541Y-52386457D01*
X97692118Y-52400736D01*
X97694278Y-52415297D01*
X97695000Y-52430000D01*
X97695000Y-52730000D01*
X97694278Y-52744703D01*
X97692118Y-52759264D01*
X97688541Y-52773543D01*
X97683582Y-52787403D01*
X97677288Y-52800710D01*
X97669720Y-52813336D01*
X97660952Y-52825159D01*
X97651066Y-52836066D01*
X97640159Y-52845952D01*
X97628336Y-52854720D01*
X97615710Y-52862288D01*
X97602403Y-52868582D01*
X97588543Y-52873541D01*
X97574264Y-52877118D01*
X97559703Y-52879278D01*
X97545000Y-52880000D01*
X95895000Y-52880000D01*
X95880297Y-52879278D01*
X95865736Y-52877118D01*
X95851457Y-52873541D01*
X95837597Y-52868582D01*
X95824290Y-52862288D01*
X95811664Y-52854720D01*
X95799841Y-52845952D01*
X95788934Y-52836066D01*
X95779048Y-52825159D01*
X95770280Y-52813336D01*
X95762712Y-52800710D01*
X95756418Y-52787403D01*
X95751459Y-52773543D01*
X95747882Y-52759264D01*
X95745722Y-52744703D01*
X95745000Y-52730000D01*
X95745000Y-52430000D01*
X95745722Y-52415297D01*
X95747882Y-52400736D01*
X95751459Y-52386457D01*
X95756418Y-52372597D01*
X95762712Y-52359290D01*
X95770280Y-52346664D01*
X95779048Y-52334841D01*
X95788934Y-52323934D01*
X95799841Y-52314048D01*
X95811664Y-52305280D01*
X95824290Y-52297712D01*
X95837597Y-52291418D01*
X95851457Y-52286459D01*
X95865736Y-52282882D01*
X95880297Y-52280722D01*
X95895000Y-52280000D01*
X97545000Y-52280000D01*
X97559703Y-52280722D01*
X97559703Y-52280722D01*
G37*
D12*
X96720000Y-52580000D03*
D10*
G36*
X97559703Y-51010722D02*
G01*
X97574264Y-51012882D01*
X97588543Y-51016459D01*
X97602403Y-51021418D01*
X97615710Y-51027712D01*
X97628336Y-51035280D01*
X97640159Y-51044048D01*
X97651066Y-51053934D01*
X97660952Y-51064841D01*
X97669720Y-51076664D01*
X97677288Y-51089290D01*
X97683582Y-51102597D01*
X97688541Y-51116457D01*
X97692118Y-51130736D01*
X97694278Y-51145297D01*
X97695000Y-51160000D01*
X97695000Y-51460000D01*
X97694278Y-51474703D01*
X97692118Y-51489264D01*
X97688541Y-51503543D01*
X97683582Y-51517403D01*
X97677288Y-51530710D01*
X97669720Y-51543336D01*
X97660952Y-51555159D01*
X97651066Y-51566066D01*
X97640159Y-51575952D01*
X97628336Y-51584720D01*
X97615710Y-51592288D01*
X97602403Y-51598582D01*
X97588543Y-51603541D01*
X97574264Y-51607118D01*
X97559703Y-51609278D01*
X97545000Y-51610000D01*
X95895000Y-51610000D01*
X95880297Y-51609278D01*
X95865736Y-51607118D01*
X95851457Y-51603541D01*
X95837597Y-51598582D01*
X95824290Y-51592288D01*
X95811664Y-51584720D01*
X95799841Y-51575952D01*
X95788934Y-51566066D01*
X95779048Y-51555159D01*
X95770280Y-51543336D01*
X95762712Y-51530710D01*
X95756418Y-51517403D01*
X95751459Y-51503543D01*
X95747882Y-51489264D01*
X95745722Y-51474703D01*
X95745000Y-51460000D01*
X95745000Y-51160000D01*
X95745722Y-51145297D01*
X95747882Y-51130736D01*
X95751459Y-51116457D01*
X95756418Y-51102597D01*
X95762712Y-51089290D01*
X95770280Y-51076664D01*
X95779048Y-51064841D01*
X95788934Y-51053934D01*
X95799841Y-51044048D01*
X95811664Y-51035280D01*
X95824290Y-51027712D01*
X95837597Y-51021418D01*
X95851457Y-51016459D01*
X95865736Y-51012882D01*
X95880297Y-51010722D01*
X95895000Y-51010000D01*
X97545000Y-51010000D01*
X97559703Y-51010722D01*
X97559703Y-51010722D01*
G37*
D12*
X96720000Y-51310000D03*
D10*
G36*
X92609703Y-51010722D02*
G01*
X92624264Y-51012882D01*
X92638543Y-51016459D01*
X92652403Y-51021418D01*
X92665710Y-51027712D01*
X92678336Y-51035280D01*
X92690159Y-51044048D01*
X92701066Y-51053934D01*
X92710952Y-51064841D01*
X92719720Y-51076664D01*
X92727288Y-51089290D01*
X92733582Y-51102597D01*
X92738541Y-51116457D01*
X92742118Y-51130736D01*
X92744278Y-51145297D01*
X92745000Y-51160000D01*
X92745000Y-51460000D01*
X92744278Y-51474703D01*
X92742118Y-51489264D01*
X92738541Y-51503543D01*
X92733582Y-51517403D01*
X92727288Y-51530710D01*
X92719720Y-51543336D01*
X92710952Y-51555159D01*
X92701066Y-51566066D01*
X92690159Y-51575952D01*
X92678336Y-51584720D01*
X92665710Y-51592288D01*
X92652403Y-51598582D01*
X92638543Y-51603541D01*
X92624264Y-51607118D01*
X92609703Y-51609278D01*
X92595000Y-51610000D01*
X90945000Y-51610000D01*
X90930297Y-51609278D01*
X90915736Y-51607118D01*
X90901457Y-51603541D01*
X90887597Y-51598582D01*
X90874290Y-51592288D01*
X90861664Y-51584720D01*
X90849841Y-51575952D01*
X90838934Y-51566066D01*
X90829048Y-51555159D01*
X90820280Y-51543336D01*
X90812712Y-51530710D01*
X90806418Y-51517403D01*
X90801459Y-51503543D01*
X90797882Y-51489264D01*
X90795722Y-51474703D01*
X90795000Y-51460000D01*
X90795000Y-51160000D01*
X90795722Y-51145297D01*
X90797882Y-51130736D01*
X90801459Y-51116457D01*
X90806418Y-51102597D01*
X90812712Y-51089290D01*
X90820280Y-51076664D01*
X90829048Y-51064841D01*
X90838934Y-51053934D01*
X90849841Y-51044048D01*
X90861664Y-51035280D01*
X90874290Y-51027712D01*
X90887597Y-51021418D01*
X90901457Y-51016459D01*
X90915736Y-51012882D01*
X90930297Y-51010722D01*
X90945000Y-51010000D01*
X92595000Y-51010000D01*
X92609703Y-51010722D01*
X92609703Y-51010722D01*
G37*
D12*
X91770000Y-51310000D03*
D10*
G36*
X92609703Y-52280722D02*
G01*
X92624264Y-52282882D01*
X92638543Y-52286459D01*
X92652403Y-52291418D01*
X92665710Y-52297712D01*
X92678336Y-52305280D01*
X92690159Y-52314048D01*
X92701066Y-52323934D01*
X92710952Y-52334841D01*
X92719720Y-52346664D01*
X92727288Y-52359290D01*
X92733582Y-52372597D01*
X92738541Y-52386457D01*
X92742118Y-52400736D01*
X92744278Y-52415297D01*
X92745000Y-52430000D01*
X92745000Y-52730000D01*
X92744278Y-52744703D01*
X92742118Y-52759264D01*
X92738541Y-52773543D01*
X92733582Y-52787403D01*
X92727288Y-52800710D01*
X92719720Y-52813336D01*
X92710952Y-52825159D01*
X92701066Y-52836066D01*
X92690159Y-52845952D01*
X92678336Y-52854720D01*
X92665710Y-52862288D01*
X92652403Y-52868582D01*
X92638543Y-52873541D01*
X92624264Y-52877118D01*
X92609703Y-52879278D01*
X92595000Y-52880000D01*
X90945000Y-52880000D01*
X90930297Y-52879278D01*
X90915736Y-52877118D01*
X90901457Y-52873541D01*
X90887597Y-52868582D01*
X90874290Y-52862288D01*
X90861664Y-52854720D01*
X90849841Y-52845952D01*
X90838934Y-52836066D01*
X90829048Y-52825159D01*
X90820280Y-52813336D01*
X90812712Y-52800710D01*
X90806418Y-52787403D01*
X90801459Y-52773543D01*
X90797882Y-52759264D01*
X90795722Y-52744703D01*
X90795000Y-52730000D01*
X90795000Y-52430000D01*
X90795722Y-52415297D01*
X90797882Y-52400736D01*
X90801459Y-52386457D01*
X90806418Y-52372597D01*
X90812712Y-52359290D01*
X90820280Y-52346664D01*
X90829048Y-52334841D01*
X90838934Y-52323934D01*
X90849841Y-52314048D01*
X90861664Y-52305280D01*
X90874290Y-52297712D01*
X90887597Y-52291418D01*
X90901457Y-52286459D01*
X90915736Y-52282882D01*
X90930297Y-52280722D01*
X90945000Y-52280000D01*
X92595000Y-52280000D01*
X92609703Y-52280722D01*
X92609703Y-52280722D01*
G37*
D12*
X91770000Y-52580000D03*
D10*
G36*
X92609703Y-53550722D02*
G01*
X92624264Y-53552882D01*
X92638543Y-53556459D01*
X92652403Y-53561418D01*
X92665710Y-53567712D01*
X92678336Y-53575280D01*
X92690159Y-53584048D01*
X92701066Y-53593934D01*
X92710952Y-53604841D01*
X92719720Y-53616664D01*
X92727288Y-53629290D01*
X92733582Y-53642597D01*
X92738541Y-53656457D01*
X92742118Y-53670736D01*
X92744278Y-53685297D01*
X92745000Y-53700000D01*
X92745000Y-54000000D01*
X92744278Y-54014703D01*
X92742118Y-54029264D01*
X92738541Y-54043543D01*
X92733582Y-54057403D01*
X92727288Y-54070710D01*
X92719720Y-54083336D01*
X92710952Y-54095159D01*
X92701066Y-54106066D01*
X92690159Y-54115952D01*
X92678336Y-54124720D01*
X92665710Y-54132288D01*
X92652403Y-54138582D01*
X92638543Y-54143541D01*
X92624264Y-54147118D01*
X92609703Y-54149278D01*
X92595000Y-54150000D01*
X90945000Y-54150000D01*
X90930297Y-54149278D01*
X90915736Y-54147118D01*
X90901457Y-54143541D01*
X90887597Y-54138582D01*
X90874290Y-54132288D01*
X90861664Y-54124720D01*
X90849841Y-54115952D01*
X90838934Y-54106066D01*
X90829048Y-54095159D01*
X90820280Y-54083336D01*
X90812712Y-54070710D01*
X90806418Y-54057403D01*
X90801459Y-54043543D01*
X90797882Y-54029264D01*
X90795722Y-54014703D01*
X90795000Y-54000000D01*
X90795000Y-53700000D01*
X90795722Y-53685297D01*
X90797882Y-53670736D01*
X90801459Y-53656457D01*
X90806418Y-53642597D01*
X90812712Y-53629290D01*
X90820280Y-53616664D01*
X90829048Y-53604841D01*
X90838934Y-53593934D01*
X90849841Y-53584048D01*
X90861664Y-53575280D01*
X90874290Y-53567712D01*
X90887597Y-53561418D01*
X90901457Y-53556459D01*
X90915736Y-53552882D01*
X90930297Y-53550722D01*
X90945000Y-53550000D01*
X92595000Y-53550000D01*
X92609703Y-53550722D01*
X92609703Y-53550722D01*
G37*
D12*
X91770000Y-53850000D03*
D10*
G36*
X92609703Y-54820722D02*
G01*
X92624264Y-54822882D01*
X92638543Y-54826459D01*
X92652403Y-54831418D01*
X92665710Y-54837712D01*
X92678336Y-54845280D01*
X92690159Y-54854048D01*
X92701066Y-54863934D01*
X92710952Y-54874841D01*
X92719720Y-54886664D01*
X92727288Y-54899290D01*
X92733582Y-54912597D01*
X92738541Y-54926457D01*
X92742118Y-54940736D01*
X92744278Y-54955297D01*
X92745000Y-54970000D01*
X92745000Y-55270000D01*
X92744278Y-55284703D01*
X92742118Y-55299264D01*
X92738541Y-55313543D01*
X92733582Y-55327403D01*
X92727288Y-55340710D01*
X92719720Y-55353336D01*
X92710952Y-55365159D01*
X92701066Y-55376066D01*
X92690159Y-55385952D01*
X92678336Y-55394720D01*
X92665710Y-55402288D01*
X92652403Y-55408582D01*
X92638543Y-55413541D01*
X92624264Y-55417118D01*
X92609703Y-55419278D01*
X92595000Y-55420000D01*
X90945000Y-55420000D01*
X90930297Y-55419278D01*
X90915736Y-55417118D01*
X90901457Y-55413541D01*
X90887597Y-55408582D01*
X90874290Y-55402288D01*
X90861664Y-55394720D01*
X90849841Y-55385952D01*
X90838934Y-55376066D01*
X90829048Y-55365159D01*
X90820280Y-55353336D01*
X90812712Y-55340710D01*
X90806418Y-55327403D01*
X90801459Y-55313543D01*
X90797882Y-55299264D01*
X90795722Y-55284703D01*
X90795000Y-55270000D01*
X90795000Y-54970000D01*
X90795722Y-54955297D01*
X90797882Y-54940736D01*
X90801459Y-54926457D01*
X90806418Y-54912597D01*
X90812712Y-54899290D01*
X90820280Y-54886664D01*
X90829048Y-54874841D01*
X90838934Y-54863934D01*
X90849841Y-54854048D01*
X90861664Y-54845280D01*
X90874290Y-54837712D01*
X90887597Y-54831418D01*
X90901457Y-54826459D01*
X90915736Y-54822882D01*
X90930297Y-54820722D01*
X90945000Y-54820000D01*
X92595000Y-54820000D01*
X92609703Y-54820722D01*
X92609703Y-54820722D01*
G37*
D12*
X91770000Y-55120000D03*
D10*
G36*
X92609703Y-56090722D02*
G01*
X92624264Y-56092882D01*
X92638543Y-56096459D01*
X92652403Y-56101418D01*
X92665710Y-56107712D01*
X92678336Y-56115280D01*
X92690159Y-56124048D01*
X92701066Y-56133934D01*
X92710952Y-56144841D01*
X92719720Y-56156664D01*
X92727288Y-56169290D01*
X92733582Y-56182597D01*
X92738541Y-56196457D01*
X92742118Y-56210736D01*
X92744278Y-56225297D01*
X92745000Y-56240000D01*
X92745000Y-56540000D01*
X92744278Y-56554703D01*
X92742118Y-56569264D01*
X92738541Y-56583543D01*
X92733582Y-56597403D01*
X92727288Y-56610710D01*
X92719720Y-56623336D01*
X92710952Y-56635159D01*
X92701066Y-56646066D01*
X92690159Y-56655952D01*
X92678336Y-56664720D01*
X92665710Y-56672288D01*
X92652403Y-56678582D01*
X92638543Y-56683541D01*
X92624264Y-56687118D01*
X92609703Y-56689278D01*
X92595000Y-56690000D01*
X90945000Y-56690000D01*
X90930297Y-56689278D01*
X90915736Y-56687118D01*
X90901457Y-56683541D01*
X90887597Y-56678582D01*
X90874290Y-56672288D01*
X90861664Y-56664720D01*
X90849841Y-56655952D01*
X90838934Y-56646066D01*
X90829048Y-56635159D01*
X90820280Y-56623336D01*
X90812712Y-56610710D01*
X90806418Y-56597403D01*
X90801459Y-56583543D01*
X90797882Y-56569264D01*
X90795722Y-56554703D01*
X90795000Y-56540000D01*
X90795000Y-56240000D01*
X90795722Y-56225297D01*
X90797882Y-56210736D01*
X90801459Y-56196457D01*
X90806418Y-56182597D01*
X90812712Y-56169290D01*
X90820280Y-56156664D01*
X90829048Y-56144841D01*
X90838934Y-56133934D01*
X90849841Y-56124048D01*
X90861664Y-56115280D01*
X90874290Y-56107712D01*
X90887597Y-56101418D01*
X90901457Y-56096459D01*
X90915736Y-56092882D01*
X90930297Y-56090722D01*
X90945000Y-56090000D01*
X92595000Y-56090000D01*
X92609703Y-56090722D01*
X92609703Y-56090722D01*
G37*
D12*
X91770000Y-56390000D03*
D10*
G36*
X92609703Y-57360722D02*
G01*
X92624264Y-57362882D01*
X92638543Y-57366459D01*
X92652403Y-57371418D01*
X92665710Y-57377712D01*
X92678336Y-57385280D01*
X92690159Y-57394048D01*
X92701066Y-57403934D01*
X92710952Y-57414841D01*
X92719720Y-57426664D01*
X92727288Y-57439290D01*
X92733582Y-57452597D01*
X92738541Y-57466457D01*
X92742118Y-57480736D01*
X92744278Y-57495297D01*
X92745000Y-57510000D01*
X92745000Y-57810000D01*
X92744278Y-57824703D01*
X92742118Y-57839264D01*
X92738541Y-57853543D01*
X92733582Y-57867403D01*
X92727288Y-57880710D01*
X92719720Y-57893336D01*
X92710952Y-57905159D01*
X92701066Y-57916066D01*
X92690159Y-57925952D01*
X92678336Y-57934720D01*
X92665710Y-57942288D01*
X92652403Y-57948582D01*
X92638543Y-57953541D01*
X92624264Y-57957118D01*
X92609703Y-57959278D01*
X92595000Y-57960000D01*
X90945000Y-57960000D01*
X90930297Y-57959278D01*
X90915736Y-57957118D01*
X90901457Y-57953541D01*
X90887597Y-57948582D01*
X90874290Y-57942288D01*
X90861664Y-57934720D01*
X90849841Y-57925952D01*
X90838934Y-57916066D01*
X90829048Y-57905159D01*
X90820280Y-57893336D01*
X90812712Y-57880710D01*
X90806418Y-57867403D01*
X90801459Y-57853543D01*
X90797882Y-57839264D01*
X90795722Y-57824703D01*
X90795000Y-57810000D01*
X90795000Y-57510000D01*
X90795722Y-57495297D01*
X90797882Y-57480736D01*
X90801459Y-57466457D01*
X90806418Y-57452597D01*
X90812712Y-57439290D01*
X90820280Y-57426664D01*
X90829048Y-57414841D01*
X90838934Y-57403934D01*
X90849841Y-57394048D01*
X90861664Y-57385280D01*
X90874290Y-57377712D01*
X90887597Y-57371418D01*
X90901457Y-57366459D01*
X90915736Y-57362882D01*
X90930297Y-57360722D01*
X90945000Y-57360000D01*
X92595000Y-57360000D01*
X92609703Y-57360722D01*
X92609703Y-57360722D01*
G37*
D12*
X91770000Y-57660000D03*
D10*
G36*
X92609703Y-58630722D02*
G01*
X92624264Y-58632882D01*
X92638543Y-58636459D01*
X92652403Y-58641418D01*
X92665710Y-58647712D01*
X92678336Y-58655280D01*
X92690159Y-58664048D01*
X92701066Y-58673934D01*
X92710952Y-58684841D01*
X92719720Y-58696664D01*
X92727288Y-58709290D01*
X92733582Y-58722597D01*
X92738541Y-58736457D01*
X92742118Y-58750736D01*
X92744278Y-58765297D01*
X92745000Y-58780000D01*
X92745000Y-59080000D01*
X92744278Y-59094703D01*
X92742118Y-59109264D01*
X92738541Y-59123543D01*
X92733582Y-59137403D01*
X92727288Y-59150710D01*
X92719720Y-59163336D01*
X92710952Y-59175159D01*
X92701066Y-59186066D01*
X92690159Y-59195952D01*
X92678336Y-59204720D01*
X92665710Y-59212288D01*
X92652403Y-59218582D01*
X92638543Y-59223541D01*
X92624264Y-59227118D01*
X92609703Y-59229278D01*
X92595000Y-59230000D01*
X90945000Y-59230000D01*
X90930297Y-59229278D01*
X90915736Y-59227118D01*
X90901457Y-59223541D01*
X90887597Y-59218582D01*
X90874290Y-59212288D01*
X90861664Y-59204720D01*
X90849841Y-59195952D01*
X90838934Y-59186066D01*
X90829048Y-59175159D01*
X90820280Y-59163336D01*
X90812712Y-59150710D01*
X90806418Y-59137403D01*
X90801459Y-59123543D01*
X90797882Y-59109264D01*
X90795722Y-59094703D01*
X90795000Y-59080000D01*
X90795000Y-58780000D01*
X90795722Y-58765297D01*
X90797882Y-58750736D01*
X90801459Y-58736457D01*
X90806418Y-58722597D01*
X90812712Y-58709290D01*
X90820280Y-58696664D01*
X90829048Y-58684841D01*
X90838934Y-58673934D01*
X90849841Y-58664048D01*
X90861664Y-58655280D01*
X90874290Y-58647712D01*
X90887597Y-58641418D01*
X90901457Y-58636459D01*
X90915736Y-58632882D01*
X90930297Y-58630722D01*
X90945000Y-58630000D01*
X92595000Y-58630000D01*
X92609703Y-58630722D01*
X92609703Y-58630722D01*
G37*
D12*
X91770000Y-58930000D03*
D10*
G36*
X92609703Y-59900722D02*
G01*
X92624264Y-59902882D01*
X92638543Y-59906459D01*
X92652403Y-59911418D01*
X92665710Y-59917712D01*
X92678336Y-59925280D01*
X92690159Y-59934048D01*
X92701066Y-59943934D01*
X92710952Y-59954841D01*
X92719720Y-59966664D01*
X92727288Y-59979290D01*
X92733582Y-59992597D01*
X92738541Y-60006457D01*
X92742118Y-60020736D01*
X92744278Y-60035297D01*
X92745000Y-60050000D01*
X92745000Y-60350000D01*
X92744278Y-60364703D01*
X92742118Y-60379264D01*
X92738541Y-60393543D01*
X92733582Y-60407403D01*
X92727288Y-60420710D01*
X92719720Y-60433336D01*
X92710952Y-60445159D01*
X92701066Y-60456066D01*
X92690159Y-60465952D01*
X92678336Y-60474720D01*
X92665710Y-60482288D01*
X92652403Y-60488582D01*
X92638543Y-60493541D01*
X92624264Y-60497118D01*
X92609703Y-60499278D01*
X92595000Y-60500000D01*
X90945000Y-60500000D01*
X90930297Y-60499278D01*
X90915736Y-60497118D01*
X90901457Y-60493541D01*
X90887597Y-60488582D01*
X90874290Y-60482288D01*
X90861664Y-60474720D01*
X90849841Y-60465952D01*
X90838934Y-60456066D01*
X90829048Y-60445159D01*
X90820280Y-60433336D01*
X90812712Y-60420710D01*
X90806418Y-60407403D01*
X90801459Y-60393543D01*
X90797882Y-60379264D01*
X90795722Y-60364703D01*
X90795000Y-60350000D01*
X90795000Y-60050000D01*
X90795722Y-60035297D01*
X90797882Y-60020736D01*
X90801459Y-60006457D01*
X90806418Y-59992597D01*
X90812712Y-59979290D01*
X90820280Y-59966664D01*
X90829048Y-59954841D01*
X90838934Y-59943934D01*
X90849841Y-59934048D01*
X90861664Y-59925280D01*
X90874290Y-59917712D01*
X90887597Y-59911418D01*
X90901457Y-59906459D01*
X90915736Y-59902882D01*
X90930297Y-59900722D01*
X90945000Y-59900000D01*
X92595000Y-59900000D01*
X92609703Y-59900722D01*
X92609703Y-59900722D01*
G37*
D12*
X91770000Y-60200000D03*
D13*
X71278000Y-45266500D03*
X70628000Y-45266500D03*
X69978000Y-45266500D03*
X69328000Y-45266500D03*
X69328000Y-47316500D03*
X69978000Y-47316500D03*
X70628000Y-47316500D03*
X71278000Y-47316500D03*
D14*
X86860000Y-46863000D03*
X86860000Y-48133000D03*
X86860000Y-45593000D03*
X86860000Y-44323000D03*
D10*
G36*
X89795779Y-59635144D02*
G01*
X89818834Y-59638563D01*
X89841443Y-59644227D01*
X89863387Y-59652079D01*
X89884457Y-59662044D01*
X89904448Y-59674026D01*
X89923168Y-59687910D01*
X89940438Y-59703562D01*
X89956090Y-59720832D01*
X89969974Y-59739552D01*
X89981956Y-59759543D01*
X89991921Y-59780613D01*
X89999773Y-59802557D01*
X90005437Y-59825166D01*
X90008856Y-59848221D01*
X90010000Y-59871500D01*
X90010000Y-60471500D01*
X90008856Y-60494779D01*
X90005437Y-60517834D01*
X89999773Y-60540443D01*
X89991921Y-60562387D01*
X89981956Y-60583457D01*
X89969974Y-60603448D01*
X89956090Y-60622168D01*
X89940438Y-60639438D01*
X89923168Y-60655090D01*
X89904448Y-60668974D01*
X89884457Y-60680956D01*
X89863387Y-60690921D01*
X89841443Y-60698773D01*
X89818834Y-60704437D01*
X89795779Y-60707856D01*
X89772500Y-60709000D01*
X89297500Y-60709000D01*
X89274221Y-60707856D01*
X89251166Y-60704437D01*
X89228557Y-60698773D01*
X89206613Y-60690921D01*
X89185543Y-60680956D01*
X89165552Y-60668974D01*
X89146832Y-60655090D01*
X89129562Y-60639438D01*
X89113910Y-60622168D01*
X89100026Y-60603448D01*
X89088044Y-60583457D01*
X89078079Y-60562387D01*
X89070227Y-60540443D01*
X89064563Y-60517834D01*
X89061144Y-60494779D01*
X89060000Y-60471500D01*
X89060000Y-59871500D01*
X89061144Y-59848221D01*
X89064563Y-59825166D01*
X89070227Y-59802557D01*
X89078079Y-59780613D01*
X89088044Y-59759543D01*
X89100026Y-59739552D01*
X89113910Y-59720832D01*
X89129562Y-59703562D01*
X89146832Y-59687910D01*
X89165552Y-59674026D01*
X89185543Y-59662044D01*
X89206613Y-59652079D01*
X89228557Y-59644227D01*
X89251166Y-59638563D01*
X89274221Y-59635144D01*
X89297500Y-59634000D01*
X89772500Y-59634000D01*
X89795779Y-59635144D01*
X89795779Y-59635144D01*
G37*
D11*
X89535000Y-60171500D03*
D10*
G36*
X89795779Y-57910144D02*
G01*
X89818834Y-57913563D01*
X89841443Y-57919227D01*
X89863387Y-57927079D01*
X89884457Y-57937044D01*
X89904448Y-57949026D01*
X89923168Y-57962910D01*
X89940438Y-57978562D01*
X89956090Y-57995832D01*
X89969974Y-58014552D01*
X89981956Y-58034543D01*
X89991921Y-58055613D01*
X89999773Y-58077557D01*
X90005437Y-58100166D01*
X90008856Y-58123221D01*
X90010000Y-58146500D01*
X90010000Y-58746500D01*
X90008856Y-58769779D01*
X90005437Y-58792834D01*
X89999773Y-58815443D01*
X89991921Y-58837387D01*
X89981956Y-58858457D01*
X89969974Y-58878448D01*
X89956090Y-58897168D01*
X89940438Y-58914438D01*
X89923168Y-58930090D01*
X89904448Y-58943974D01*
X89884457Y-58955956D01*
X89863387Y-58965921D01*
X89841443Y-58973773D01*
X89818834Y-58979437D01*
X89795779Y-58982856D01*
X89772500Y-58984000D01*
X89297500Y-58984000D01*
X89274221Y-58982856D01*
X89251166Y-58979437D01*
X89228557Y-58973773D01*
X89206613Y-58965921D01*
X89185543Y-58955956D01*
X89165552Y-58943974D01*
X89146832Y-58930090D01*
X89129562Y-58914438D01*
X89113910Y-58897168D01*
X89100026Y-58878448D01*
X89088044Y-58858457D01*
X89078079Y-58837387D01*
X89070227Y-58815443D01*
X89064563Y-58792834D01*
X89061144Y-58769779D01*
X89060000Y-58746500D01*
X89060000Y-58146500D01*
X89061144Y-58123221D01*
X89064563Y-58100166D01*
X89070227Y-58077557D01*
X89078079Y-58055613D01*
X89088044Y-58034543D01*
X89100026Y-58014552D01*
X89113910Y-57995832D01*
X89129562Y-57978562D01*
X89146832Y-57962910D01*
X89165552Y-57949026D01*
X89185543Y-57937044D01*
X89206613Y-57927079D01*
X89228557Y-57919227D01*
X89251166Y-57913563D01*
X89274221Y-57910144D01*
X89297500Y-57909000D01*
X89772500Y-57909000D01*
X89795779Y-57910144D01*
X89795779Y-57910144D01*
G37*
D11*
X89535000Y-58446500D03*
M02*
