G04 #@! TF.GenerationSoftware,KiCad,Pcbnew,(5.1.4-0-10_14)*
G04 #@! TF.CreationDate,2020-12-31T20:35:18-07:00*
G04 #@! TF.ProjectId,Motherboard,4d6f7468-6572-4626-9f61-72642e6b6963,rev?*
G04 #@! TF.SameCoordinates,Original*
G04 #@! TF.FileFunction,Soldermask,Top*
G04 #@! TF.FilePolarity,Negative*
%FSLAX46Y46*%
G04 Gerber Fmt 4.6, Leading zero omitted, Abs format (unit mm)*
G04 Created by KiCad (PCBNEW (5.1.4-0-10_14)) date 2020-12-31 20:35:18*
%MOMM*%
%LPD*%
G04 APERTURE LIST*
%ADD10C,0.100000*%
G04 APERTURE END LIST*
D10*
G36*
X120846189Y-92210483D02*
G01*
X120846192Y-92210484D01*
X120846191Y-92210484D01*
X121374139Y-92429167D01*
X121849280Y-92746646D01*
X122253354Y-93150720D01*
X122570833Y-93625861D01*
X122570834Y-93625863D01*
X122789517Y-94153811D01*
X122901000Y-94714275D01*
X122901000Y-95285725D01*
X122789517Y-95846189D01*
X122774500Y-95882443D01*
X122570833Y-96374139D01*
X122253354Y-96849280D01*
X121849280Y-97253354D01*
X121374139Y-97570833D01*
X121374138Y-97570834D01*
X121374137Y-97570834D01*
X120846189Y-97789517D01*
X120285725Y-97901000D01*
X119714275Y-97901000D01*
X119153811Y-97789517D01*
X118625863Y-97570834D01*
X118625862Y-97570834D01*
X118625861Y-97570833D01*
X118150720Y-97253354D01*
X117746646Y-96849280D01*
X117429167Y-96374139D01*
X117225500Y-95882443D01*
X117210483Y-95846189D01*
X117099000Y-95285725D01*
X117099000Y-94714275D01*
X117210483Y-94153811D01*
X117429166Y-93625863D01*
X117429167Y-93625861D01*
X117746646Y-93150720D01*
X118150720Y-92746646D01*
X118625861Y-92429167D01*
X119153809Y-92210484D01*
X119153808Y-92210484D01*
X119153811Y-92210483D01*
X119714275Y-92099000D01*
X120285725Y-92099000D01*
X120846189Y-92210483D01*
X120846189Y-92210483D01*
G37*
G36*
X55846189Y-92210483D02*
G01*
X55846192Y-92210484D01*
X55846191Y-92210484D01*
X56374139Y-92429167D01*
X56849280Y-92746646D01*
X57253354Y-93150720D01*
X57570833Y-93625861D01*
X57570834Y-93625863D01*
X57789517Y-94153811D01*
X57901000Y-94714275D01*
X57901000Y-95285725D01*
X57789517Y-95846189D01*
X57774500Y-95882443D01*
X57570833Y-96374139D01*
X57253354Y-96849280D01*
X56849280Y-97253354D01*
X56374139Y-97570833D01*
X56374138Y-97570834D01*
X56374137Y-97570834D01*
X55846189Y-97789517D01*
X55285725Y-97901000D01*
X54714275Y-97901000D01*
X54153811Y-97789517D01*
X53625863Y-97570834D01*
X53625862Y-97570834D01*
X53625861Y-97570833D01*
X53150720Y-97253354D01*
X52746646Y-96849280D01*
X52429167Y-96374139D01*
X52225500Y-95882443D01*
X52210483Y-95846189D01*
X52099000Y-95285725D01*
X52099000Y-94714275D01*
X52210483Y-94153811D01*
X52429166Y-93625863D01*
X52429167Y-93625861D01*
X52746646Y-93150720D01*
X53150720Y-92746646D01*
X53625861Y-92429167D01*
X54153809Y-92210484D01*
X54153808Y-92210484D01*
X54153811Y-92210483D01*
X54714275Y-92099000D01*
X55285725Y-92099000D01*
X55846189Y-92210483D01*
X55846189Y-92210483D01*
G37*
G36*
X107740443Y-94151519D02*
G01*
X107806627Y-94158037D01*
X107976466Y-94209557D01*
X108132991Y-94293222D01*
X108168729Y-94322552D01*
X108270186Y-94405814D01*
X108353448Y-94507271D01*
X108382778Y-94543009D01*
X108466443Y-94699534D01*
X108517963Y-94869373D01*
X108535359Y-95046000D01*
X108517963Y-95222627D01*
X108466443Y-95392466D01*
X108382778Y-95548991D01*
X108353448Y-95584729D01*
X108270186Y-95686186D01*
X108168729Y-95769448D01*
X108132991Y-95798778D01*
X107976466Y-95882443D01*
X107806627Y-95933963D01*
X107740443Y-95940481D01*
X107674260Y-95947000D01*
X107585740Y-95947000D01*
X107519557Y-95940481D01*
X107453373Y-95933963D01*
X107283534Y-95882443D01*
X107127009Y-95798778D01*
X107091271Y-95769448D01*
X106989814Y-95686186D01*
X106906552Y-95584729D01*
X106877222Y-95548991D01*
X106793557Y-95392466D01*
X106742037Y-95222627D01*
X106724641Y-95046000D01*
X106742037Y-94869373D01*
X106793557Y-94699534D01*
X106877222Y-94543009D01*
X106906552Y-94507271D01*
X106989814Y-94405814D01*
X107091271Y-94322552D01*
X107127009Y-94293222D01*
X107283534Y-94209557D01*
X107453373Y-94158037D01*
X107519557Y-94151519D01*
X107585740Y-94145000D01*
X107674260Y-94145000D01*
X107740443Y-94151519D01*
X107740443Y-94151519D01*
G37*
G36*
X105200443Y-94151519D02*
G01*
X105266627Y-94158037D01*
X105436466Y-94209557D01*
X105592991Y-94293222D01*
X105628729Y-94322552D01*
X105730186Y-94405814D01*
X105813448Y-94507271D01*
X105842778Y-94543009D01*
X105926443Y-94699534D01*
X105977963Y-94869373D01*
X105995359Y-95046000D01*
X105977963Y-95222627D01*
X105926443Y-95392466D01*
X105842778Y-95548991D01*
X105813448Y-95584729D01*
X105730186Y-95686186D01*
X105628729Y-95769448D01*
X105592991Y-95798778D01*
X105436466Y-95882443D01*
X105266627Y-95933963D01*
X105200443Y-95940481D01*
X105134260Y-95947000D01*
X105045740Y-95947000D01*
X104979557Y-95940481D01*
X104913373Y-95933963D01*
X104743534Y-95882443D01*
X104587009Y-95798778D01*
X104551271Y-95769448D01*
X104449814Y-95686186D01*
X104366552Y-95584729D01*
X104337222Y-95548991D01*
X104253557Y-95392466D01*
X104202037Y-95222627D01*
X104184641Y-95046000D01*
X104202037Y-94869373D01*
X104253557Y-94699534D01*
X104337222Y-94543009D01*
X104366552Y-94507271D01*
X104449814Y-94405814D01*
X104551271Y-94322552D01*
X104587009Y-94293222D01*
X104743534Y-94209557D01*
X104913373Y-94158037D01*
X104979557Y-94151519D01*
X105045740Y-94145000D01*
X105134260Y-94145000D01*
X105200443Y-94151519D01*
X105200443Y-94151519D01*
G37*
G36*
X103451000Y-95947000D02*
G01*
X101649000Y-95947000D01*
X101649000Y-94145000D01*
X103451000Y-94145000D01*
X103451000Y-95947000D01*
X103451000Y-95947000D01*
G37*
G36*
X72590443Y-94151519D02*
G01*
X72656627Y-94158037D01*
X72826466Y-94209557D01*
X72982991Y-94293222D01*
X73018729Y-94322552D01*
X73120186Y-94405814D01*
X73203448Y-94507271D01*
X73232778Y-94543009D01*
X73316443Y-94699534D01*
X73367963Y-94869373D01*
X73385359Y-95046000D01*
X73367963Y-95222627D01*
X73316443Y-95392466D01*
X73232778Y-95548991D01*
X73203448Y-95584729D01*
X73120186Y-95686186D01*
X73018729Y-95769448D01*
X72982991Y-95798778D01*
X72826466Y-95882443D01*
X72656627Y-95933963D01*
X72590443Y-95940481D01*
X72524260Y-95947000D01*
X72435740Y-95947000D01*
X72369557Y-95940481D01*
X72303373Y-95933963D01*
X72133534Y-95882443D01*
X71977009Y-95798778D01*
X71941271Y-95769448D01*
X71839814Y-95686186D01*
X71756552Y-95584729D01*
X71727222Y-95548991D01*
X71643557Y-95392466D01*
X71592037Y-95222627D01*
X71574641Y-95046000D01*
X71592037Y-94869373D01*
X71643557Y-94699534D01*
X71727222Y-94543009D01*
X71756552Y-94507271D01*
X71839814Y-94405814D01*
X71941271Y-94322552D01*
X71977009Y-94293222D01*
X72133534Y-94209557D01*
X72303373Y-94158037D01*
X72369557Y-94151519D01*
X72435740Y-94145000D01*
X72524260Y-94145000D01*
X72590443Y-94151519D01*
X72590443Y-94151519D01*
G37*
G36*
X70050443Y-94151519D02*
G01*
X70116627Y-94158037D01*
X70286466Y-94209557D01*
X70442991Y-94293222D01*
X70478729Y-94322552D01*
X70580186Y-94405814D01*
X70663448Y-94507271D01*
X70692778Y-94543009D01*
X70776443Y-94699534D01*
X70827963Y-94869373D01*
X70845359Y-95046000D01*
X70827963Y-95222627D01*
X70776443Y-95392466D01*
X70692778Y-95548991D01*
X70663448Y-95584729D01*
X70580186Y-95686186D01*
X70478729Y-95769448D01*
X70442991Y-95798778D01*
X70286466Y-95882443D01*
X70116627Y-95933963D01*
X70050443Y-95940481D01*
X69984260Y-95947000D01*
X69895740Y-95947000D01*
X69829557Y-95940481D01*
X69763373Y-95933963D01*
X69593534Y-95882443D01*
X69437009Y-95798778D01*
X69401271Y-95769448D01*
X69299814Y-95686186D01*
X69216552Y-95584729D01*
X69187222Y-95548991D01*
X69103557Y-95392466D01*
X69052037Y-95222627D01*
X69034641Y-95046000D01*
X69052037Y-94869373D01*
X69103557Y-94699534D01*
X69187222Y-94543009D01*
X69216552Y-94507271D01*
X69299814Y-94405814D01*
X69401271Y-94322552D01*
X69437009Y-94293222D01*
X69593534Y-94209557D01*
X69763373Y-94158037D01*
X69829557Y-94151519D01*
X69895740Y-94145000D01*
X69984260Y-94145000D01*
X70050443Y-94151519D01*
X70050443Y-94151519D01*
G37*
G36*
X68301000Y-95947000D02*
G01*
X66499000Y-95947000D01*
X66499000Y-94145000D01*
X68301000Y-94145000D01*
X68301000Y-95947000D01*
X68301000Y-95947000D01*
G37*
G36*
X57180999Y-90156445D02*
G01*
X57218495Y-90167820D01*
X57253054Y-90186292D01*
X57283347Y-90211153D01*
X57308208Y-90241446D01*
X57326680Y-90276005D01*
X57338055Y-90313501D01*
X57342500Y-90358638D01*
X57342500Y-90997362D01*
X57338055Y-91042499D01*
X57326680Y-91079995D01*
X57308208Y-91114554D01*
X57283347Y-91144847D01*
X57253054Y-91169708D01*
X57218495Y-91188180D01*
X57180999Y-91199555D01*
X57135862Y-91204000D01*
X56397138Y-91204000D01*
X56352001Y-91199555D01*
X56314505Y-91188180D01*
X56279946Y-91169708D01*
X56249653Y-91144847D01*
X56224792Y-91114554D01*
X56206320Y-91079995D01*
X56194945Y-91042499D01*
X56190500Y-90997362D01*
X56190500Y-90358638D01*
X56194945Y-90313501D01*
X56206320Y-90276005D01*
X56224792Y-90241446D01*
X56249653Y-90211153D01*
X56279946Y-90186292D01*
X56314505Y-90167820D01*
X56352001Y-90156445D01*
X56397138Y-90152000D01*
X57135862Y-90152000D01*
X57180999Y-90156445D01*
X57180999Y-90156445D01*
G37*
G36*
X55430999Y-90156445D02*
G01*
X55468495Y-90167820D01*
X55503054Y-90186292D01*
X55533347Y-90211153D01*
X55558208Y-90241446D01*
X55576680Y-90276005D01*
X55588055Y-90313501D01*
X55592500Y-90358638D01*
X55592500Y-90997362D01*
X55588055Y-91042499D01*
X55576680Y-91079995D01*
X55558208Y-91114554D01*
X55533347Y-91144847D01*
X55503054Y-91169708D01*
X55468495Y-91188180D01*
X55430999Y-91199555D01*
X55385862Y-91204000D01*
X54647138Y-91204000D01*
X54602001Y-91199555D01*
X54564505Y-91188180D01*
X54529946Y-91169708D01*
X54499653Y-91144847D01*
X54474792Y-91114554D01*
X54456320Y-91079995D01*
X54444945Y-91042499D01*
X54440500Y-90997362D01*
X54440500Y-90358638D01*
X54444945Y-90313501D01*
X54456320Y-90276005D01*
X54474792Y-90241446D01*
X54499653Y-90211153D01*
X54529946Y-90186292D01*
X54564505Y-90167820D01*
X54602001Y-90156445D01*
X54647138Y-90152000D01*
X55385862Y-90152000D01*
X55430999Y-90156445D01*
X55430999Y-90156445D01*
G37*
G36*
X87144072Y-87346918D02*
G01*
X87389939Y-87448759D01*
X87611212Y-87596610D01*
X87799390Y-87784788D01*
X87947241Y-88006061D01*
X88049082Y-88251928D01*
X88101000Y-88512938D01*
X88101000Y-88779062D01*
X88049082Y-89040072D01*
X87947241Y-89285939D01*
X87799390Y-89507212D01*
X87611212Y-89695390D01*
X87389939Y-89843241D01*
X87389938Y-89843242D01*
X87389937Y-89843242D01*
X87144072Y-89945082D01*
X86883063Y-89997000D01*
X86616937Y-89997000D01*
X86355928Y-89945082D01*
X86110063Y-89843242D01*
X86110062Y-89843242D01*
X86110061Y-89843241D01*
X85888788Y-89695390D01*
X85700610Y-89507212D01*
X85552759Y-89285939D01*
X85450918Y-89040072D01*
X85399000Y-88779062D01*
X85399000Y-88512938D01*
X85450918Y-88251928D01*
X85552759Y-88006061D01*
X85700610Y-87784788D01*
X85888788Y-87596610D01*
X86110061Y-87448759D01*
X86355928Y-87346918D01*
X86616937Y-87295000D01*
X86883063Y-87295000D01*
X87144072Y-87346918D01*
X87144072Y-87346918D01*
G37*
G36*
X54704442Y-85740518D02*
G01*
X54770627Y-85747037D01*
X54940466Y-85798557D01*
X55096991Y-85882222D01*
X55132729Y-85911552D01*
X55234186Y-85994814D01*
X55317448Y-86096271D01*
X55346778Y-86132009D01*
X55430443Y-86288534D01*
X55481963Y-86458373D01*
X55499359Y-86635000D01*
X55481963Y-86811627D01*
X55430443Y-86981466D01*
X55346778Y-87137991D01*
X55317448Y-87173729D01*
X55234186Y-87275186D01*
X55146779Y-87346918D01*
X55096991Y-87387778D01*
X55096989Y-87387779D01*
X54982905Y-87448759D01*
X54940466Y-87471443D01*
X54770627Y-87522963D01*
X54704443Y-87529481D01*
X54638260Y-87536000D01*
X54549740Y-87536000D01*
X54483557Y-87529481D01*
X54417373Y-87522963D01*
X54247534Y-87471443D01*
X54205096Y-87448759D01*
X54091011Y-87387779D01*
X54091009Y-87387778D01*
X54041221Y-87346918D01*
X53953814Y-87275186D01*
X53870552Y-87173729D01*
X53841222Y-87137991D01*
X53757557Y-86981466D01*
X53706037Y-86811627D01*
X53688641Y-86635000D01*
X53706037Y-86458373D01*
X53757557Y-86288534D01*
X53841222Y-86132009D01*
X53870552Y-86096271D01*
X53953814Y-85994814D01*
X54055271Y-85911552D01*
X54091009Y-85882222D01*
X54247534Y-85798557D01*
X54417373Y-85747037D01*
X54483558Y-85740518D01*
X54549740Y-85734000D01*
X54638260Y-85734000D01*
X54704442Y-85740518D01*
X54704442Y-85740518D01*
G37*
G36*
X57244442Y-85740518D02*
G01*
X57310627Y-85747037D01*
X57480466Y-85798557D01*
X57636991Y-85882222D01*
X57672729Y-85911552D01*
X57774186Y-85994814D01*
X57857448Y-86096271D01*
X57886778Y-86132009D01*
X57970443Y-86288534D01*
X58021963Y-86458373D01*
X58039359Y-86635000D01*
X58021963Y-86811627D01*
X57970443Y-86981466D01*
X57886778Y-87137991D01*
X57857448Y-87173729D01*
X57774186Y-87275186D01*
X57686779Y-87346918D01*
X57636991Y-87387778D01*
X57636989Y-87387779D01*
X57522905Y-87448759D01*
X57480466Y-87471443D01*
X57310627Y-87522963D01*
X57244443Y-87529481D01*
X57178260Y-87536000D01*
X57089740Y-87536000D01*
X57023557Y-87529481D01*
X56957373Y-87522963D01*
X56787534Y-87471443D01*
X56745096Y-87448759D01*
X56631011Y-87387779D01*
X56631009Y-87387778D01*
X56581221Y-87346918D01*
X56493814Y-87275186D01*
X56410552Y-87173729D01*
X56381222Y-87137991D01*
X56297557Y-86981466D01*
X56246037Y-86811627D01*
X56228641Y-86635000D01*
X56246037Y-86458373D01*
X56297557Y-86288534D01*
X56381222Y-86132009D01*
X56410552Y-86096271D01*
X56493814Y-85994814D01*
X56595271Y-85911552D01*
X56631009Y-85882222D01*
X56787534Y-85798557D01*
X56957373Y-85747037D01*
X57023558Y-85740518D01*
X57089740Y-85734000D01*
X57178260Y-85734000D01*
X57244442Y-85740518D01*
X57244442Y-85740518D01*
G37*
G36*
X91844072Y-84346918D02*
G01*
X91945668Y-84389000D01*
X92089939Y-84448759D01*
X92097121Y-84453558D01*
X92311211Y-84596609D01*
X92499391Y-84784789D01*
X92647242Y-85006063D01*
X92749082Y-85251928D01*
X92801000Y-85512937D01*
X92801000Y-85779063D01*
X92749082Y-86040072D01*
X92647242Y-86285937D01*
X92499391Y-86507211D01*
X92311211Y-86695391D01*
X92201328Y-86768813D01*
X92089939Y-86843241D01*
X92089938Y-86843242D01*
X92089937Y-86843242D01*
X91844072Y-86945082D01*
X91583063Y-86997000D01*
X91316937Y-86997000D01*
X91055928Y-86945082D01*
X90810063Y-86843242D01*
X90810062Y-86843242D01*
X90810061Y-86843241D01*
X90698672Y-86768813D01*
X90588789Y-86695391D01*
X90400609Y-86507211D01*
X90252758Y-86285937D01*
X90150918Y-86040072D01*
X90099000Y-85779063D01*
X90099000Y-85512937D01*
X90150918Y-85251928D01*
X90252758Y-85006063D01*
X90400609Y-84784789D01*
X90588789Y-84596609D01*
X90802879Y-84453558D01*
X90810061Y-84448759D01*
X90954333Y-84389000D01*
X91055928Y-84346918D01*
X91316937Y-84295000D01*
X91583063Y-84295000D01*
X91844072Y-84346918D01*
X91844072Y-84346918D01*
G37*
G36*
X117344499Y-85713445D02*
G01*
X117381995Y-85724820D01*
X117416554Y-85743292D01*
X117446847Y-85768153D01*
X117471708Y-85798446D01*
X117490180Y-85833005D01*
X117501555Y-85870501D01*
X117506000Y-85915638D01*
X117506000Y-86654362D01*
X117501555Y-86699499D01*
X117490180Y-86736995D01*
X117471708Y-86771554D01*
X117446847Y-86801847D01*
X117416554Y-86826708D01*
X117381995Y-86845180D01*
X117344499Y-86856555D01*
X117299362Y-86861000D01*
X116660638Y-86861000D01*
X116615501Y-86856555D01*
X116578005Y-86845180D01*
X116543446Y-86826708D01*
X116513153Y-86801847D01*
X116488292Y-86771554D01*
X116469820Y-86736995D01*
X116458445Y-86699499D01*
X116454000Y-86654362D01*
X116454000Y-85915638D01*
X116458445Y-85870501D01*
X116469820Y-85833005D01*
X116488292Y-85798446D01*
X116513153Y-85768153D01*
X116543446Y-85743292D01*
X116578005Y-85724820D01*
X116615501Y-85713445D01*
X116660638Y-85709000D01*
X117299362Y-85709000D01*
X117344499Y-85713445D01*
X117344499Y-85713445D01*
G37*
G36*
X120110442Y-84395518D02*
G01*
X120176627Y-84402037D01*
X120346466Y-84453557D01*
X120502991Y-84537222D01*
X120538729Y-84566552D01*
X120640186Y-84649814D01*
X120710247Y-84735185D01*
X120752778Y-84787009D01*
X120836443Y-84943534D01*
X120887963Y-85113373D01*
X120905359Y-85290000D01*
X120887963Y-85466627D01*
X120836443Y-85636466D01*
X120752778Y-85792991D01*
X120748301Y-85798446D01*
X120640186Y-85930186D01*
X120561435Y-85994814D01*
X120502991Y-86042778D01*
X120346466Y-86126443D01*
X120176627Y-86177963D01*
X120110442Y-86184482D01*
X120044260Y-86191000D01*
X119955740Y-86191000D01*
X119889558Y-86184482D01*
X119823373Y-86177963D01*
X119653534Y-86126443D01*
X119497009Y-86042778D01*
X119438565Y-85994814D01*
X119359814Y-85930186D01*
X119251699Y-85798446D01*
X119247222Y-85792991D01*
X119163557Y-85636466D01*
X119112037Y-85466627D01*
X119094641Y-85290000D01*
X119112037Y-85113373D01*
X119163557Y-84943534D01*
X119247222Y-84787009D01*
X119289753Y-84735185D01*
X119359814Y-84649814D01*
X119461271Y-84566552D01*
X119497009Y-84537222D01*
X119653534Y-84453557D01*
X119823373Y-84402037D01*
X119889558Y-84395518D01*
X119955740Y-84389000D01*
X120044260Y-84389000D01*
X120110442Y-84395518D01*
X120110442Y-84395518D01*
G37*
G36*
X117344499Y-83963445D02*
G01*
X117381995Y-83974820D01*
X117416554Y-83993292D01*
X117446847Y-84018153D01*
X117471708Y-84048446D01*
X117490180Y-84083005D01*
X117501555Y-84120501D01*
X117506000Y-84165638D01*
X117506000Y-84904362D01*
X117501555Y-84949499D01*
X117490180Y-84986995D01*
X117471708Y-85021554D01*
X117446847Y-85051847D01*
X117416554Y-85076708D01*
X117381995Y-85095180D01*
X117344499Y-85106555D01*
X117299362Y-85111000D01*
X116660638Y-85111000D01*
X116615501Y-85106555D01*
X116578005Y-85095180D01*
X116543446Y-85076708D01*
X116513153Y-85051847D01*
X116488292Y-85021554D01*
X116469820Y-84986995D01*
X116458445Y-84949499D01*
X116454000Y-84904362D01*
X116454000Y-84165638D01*
X116458445Y-84120501D01*
X116469820Y-84083005D01*
X116488292Y-84048446D01*
X116513153Y-84018153D01*
X116543446Y-83993292D01*
X116578005Y-83974820D01*
X116615501Y-83963445D01*
X116660638Y-83959000D01*
X117299362Y-83959000D01*
X117344499Y-83963445D01*
X117344499Y-83963445D01*
G37*
G36*
X57244443Y-83200519D02*
G01*
X57310627Y-83207037D01*
X57480466Y-83258557D01*
X57636991Y-83342222D01*
X57672729Y-83371552D01*
X57774186Y-83454814D01*
X57857448Y-83556271D01*
X57886778Y-83592009D01*
X57970443Y-83748534D01*
X58021963Y-83918373D01*
X58039359Y-84095000D01*
X58021963Y-84271627D01*
X57970443Y-84441466D01*
X57886778Y-84597991D01*
X57857448Y-84633729D01*
X57774186Y-84735186D01*
X57672729Y-84818448D01*
X57636991Y-84847778D01*
X57480466Y-84931443D01*
X57310627Y-84982963D01*
X57244443Y-84989481D01*
X57178260Y-84996000D01*
X57089740Y-84996000D01*
X57023557Y-84989481D01*
X56957373Y-84982963D01*
X56787534Y-84931443D01*
X56631009Y-84847778D01*
X56595271Y-84818448D01*
X56493814Y-84735186D01*
X56410552Y-84633729D01*
X56381222Y-84597991D01*
X56297557Y-84441466D01*
X56246037Y-84271627D01*
X56228641Y-84095000D01*
X56246037Y-83918373D01*
X56297557Y-83748534D01*
X56381222Y-83592009D01*
X56410552Y-83556271D01*
X56493814Y-83454814D01*
X56595271Y-83371552D01*
X56631009Y-83342222D01*
X56787534Y-83258557D01*
X56957373Y-83207037D01*
X57023557Y-83200519D01*
X57089740Y-83194000D01*
X57178260Y-83194000D01*
X57244443Y-83200519D01*
X57244443Y-83200519D01*
G37*
G36*
X54704443Y-83200519D02*
G01*
X54770627Y-83207037D01*
X54940466Y-83258557D01*
X55096991Y-83342222D01*
X55132729Y-83371552D01*
X55234186Y-83454814D01*
X55317448Y-83556271D01*
X55346778Y-83592009D01*
X55430443Y-83748534D01*
X55481963Y-83918373D01*
X55499359Y-84095000D01*
X55481963Y-84271627D01*
X55430443Y-84441466D01*
X55346778Y-84597991D01*
X55317448Y-84633729D01*
X55234186Y-84735186D01*
X55132729Y-84818448D01*
X55096991Y-84847778D01*
X54940466Y-84931443D01*
X54770627Y-84982963D01*
X54704443Y-84989481D01*
X54638260Y-84996000D01*
X54549740Y-84996000D01*
X54483557Y-84989481D01*
X54417373Y-84982963D01*
X54247534Y-84931443D01*
X54091009Y-84847778D01*
X54055271Y-84818448D01*
X53953814Y-84735186D01*
X53870552Y-84633729D01*
X53841222Y-84597991D01*
X53757557Y-84441466D01*
X53706037Y-84271627D01*
X53688641Y-84095000D01*
X53706037Y-83918373D01*
X53757557Y-83748534D01*
X53841222Y-83592009D01*
X53870552Y-83556271D01*
X53953814Y-83454814D01*
X54055271Y-83371552D01*
X54091009Y-83342222D01*
X54247534Y-83258557D01*
X54417373Y-83207037D01*
X54483557Y-83200519D01*
X54549740Y-83194000D01*
X54638260Y-83194000D01*
X54704443Y-83200519D01*
X54704443Y-83200519D01*
G37*
G36*
X88101000Y-83997000D02*
G01*
X85399000Y-83997000D01*
X85399000Y-81295000D01*
X88101000Y-81295000D01*
X88101000Y-83997000D01*
X88101000Y-83997000D01*
G37*
G36*
X120110443Y-81855519D02*
G01*
X120176627Y-81862037D01*
X120346466Y-81913557D01*
X120502991Y-81997222D01*
X120538729Y-82026552D01*
X120640186Y-82109814D01*
X120710247Y-82195185D01*
X120752778Y-82247009D01*
X120836443Y-82403534D01*
X120887963Y-82573373D01*
X120905359Y-82750000D01*
X120887963Y-82926627D01*
X120836443Y-83096466D01*
X120752778Y-83252991D01*
X120748210Y-83258557D01*
X120640186Y-83390186D01*
X120561435Y-83454814D01*
X120502991Y-83502778D01*
X120346466Y-83586443D01*
X120176627Y-83637963D01*
X120110442Y-83644482D01*
X120044260Y-83651000D01*
X119955740Y-83651000D01*
X119889558Y-83644482D01*
X119823373Y-83637963D01*
X119653534Y-83586443D01*
X119497009Y-83502778D01*
X119438565Y-83454814D01*
X119359814Y-83390186D01*
X119251790Y-83258557D01*
X119247222Y-83252991D01*
X119163557Y-83096466D01*
X119112037Y-82926627D01*
X119094641Y-82750000D01*
X119112037Y-82573373D01*
X119163557Y-82403534D01*
X119247222Y-82247009D01*
X119289753Y-82195185D01*
X119359814Y-82109814D01*
X119461271Y-82026552D01*
X119497009Y-81997222D01*
X119653534Y-81913557D01*
X119823373Y-81862037D01*
X119889557Y-81855519D01*
X119955740Y-81849000D01*
X120044260Y-81849000D01*
X120110443Y-81855519D01*
X120110443Y-81855519D01*
G37*
G36*
X54704443Y-80660519D02*
G01*
X54770627Y-80667037D01*
X54940466Y-80718557D01*
X55096991Y-80802222D01*
X55132729Y-80831552D01*
X55234186Y-80914814D01*
X55317448Y-81016271D01*
X55346778Y-81052009D01*
X55430443Y-81208534D01*
X55481963Y-81378373D01*
X55499359Y-81555000D01*
X55481963Y-81731627D01*
X55430443Y-81901466D01*
X55346778Y-82057991D01*
X55317448Y-82093729D01*
X55234186Y-82195186D01*
X55132729Y-82278448D01*
X55096991Y-82307778D01*
X54940466Y-82391443D01*
X54770627Y-82442963D01*
X54704442Y-82449482D01*
X54638260Y-82456000D01*
X54549740Y-82456000D01*
X54483558Y-82449482D01*
X54417373Y-82442963D01*
X54247534Y-82391443D01*
X54091009Y-82307778D01*
X54055271Y-82278448D01*
X53953814Y-82195186D01*
X53870552Y-82093729D01*
X53841222Y-82057991D01*
X53757557Y-81901466D01*
X53706037Y-81731627D01*
X53688641Y-81555000D01*
X53706037Y-81378373D01*
X53757557Y-81208534D01*
X53841222Y-81052009D01*
X53870552Y-81016271D01*
X53953814Y-80914814D01*
X54055271Y-80831552D01*
X54091009Y-80802222D01*
X54247534Y-80718557D01*
X54417373Y-80667037D01*
X54483557Y-80660519D01*
X54549740Y-80654000D01*
X54638260Y-80654000D01*
X54704443Y-80660519D01*
X54704443Y-80660519D01*
G37*
G36*
X57244443Y-80660519D02*
G01*
X57310627Y-80667037D01*
X57480466Y-80718557D01*
X57636991Y-80802222D01*
X57672729Y-80831552D01*
X57774186Y-80914814D01*
X57857448Y-81016271D01*
X57886778Y-81052009D01*
X57970443Y-81208534D01*
X58021963Y-81378373D01*
X58039359Y-81555000D01*
X58021963Y-81731627D01*
X57970443Y-81901466D01*
X57886778Y-82057991D01*
X57857448Y-82093729D01*
X57774186Y-82195186D01*
X57672729Y-82278448D01*
X57636991Y-82307778D01*
X57480466Y-82391443D01*
X57310627Y-82442963D01*
X57244442Y-82449482D01*
X57178260Y-82456000D01*
X57089740Y-82456000D01*
X57023558Y-82449482D01*
X56957373Y-82442963D01*
X56787534Y-82391443D01*
X56631009Y-82307778D01*
X56595271Y-82278448D01*
X56493814Y-82195186D01*
X56410552Y-82093729D01*
X56381222Y-82057991D01*
X56297557Y-81901466D01*
X56246037Y-81731627D01*
X56228641Y-81555000D01*
X56246037Y-81378373D01*
X56297557Y-81208534D01*
X56381222Y-81052009D01*
X56410552Y-81016271D01*
X56493814Y-80914814D01*
X56595271Y-80831552D01*
X56631009Y-80802222D01*
X56787534Y-80718557D01*
X56957373Y-80667037D01*
X57023557Y-80660519D01*
X57089740Y-80654000D01*
X57178260Y-80654000D01*
X57244443Y-80660519D01*
X57244443Y-80660519D01*
G37*
G36*
X117344499Y-80363445D02*
G01*
X117381995Y-80374820D01*
X117416554Y-80393292D01*
X117446847Y-80418153D01*
X117471708Y-80448446D01*
X117490180Y-80483005D01*
X117501555Y-80520501D01*
X117506000Y-80565638D01*
X117506000Y-81304362D01*
X117501555Y-81349499D01*
X117490180Y-81386995D01*
X117471708Y-81421554D01*
X117446847Y-81451847D01*
X117416554Y-81476708D01*
X117381995Y-81495180D01*
X117344499Y-81506555D01*
X117299362Y-81511000D01*
X116660638Y-81511000D01*
X116615501Y-81506555D01*
X116578005Y-81495180D01*
X116543446Y-81476708D01*
X116513153Y-81451847D01*
X116488292Y-81421554D01*
X116469820Y-81386995D01*
X116458445Y-81349499D01*
X116454000Y-81304362D01*
X116454000Y-80565638D01*
X116458445Y-80520501D01*
X116469820Y-80483005D01*
X116488292Y-80448446D01*
X116513153Y-80418153D01*
X116543446Y-80393292D01*
X116578005Y-80374820D01*
X116615501Y-80363445D01*
X116660638Y-80359000D01*
X117299362Y-80359000D01*
X117344499Y-80363445D01*
X117344499Y-80363445D01*
G37*
G36*
X120901000Y-81111000D02*
G01*
X119099000Y-81111000D01*
X119099000Y-79309000D01*
X120901000Y-79309000D01*
X120901000Y-81111000D01*
X120901000Y-81111000D01*
G37*
G36*
X57244442Y-78120518D02*
G01*
X57310627Y-78127037D01*
X57480466Y-78178557D01*
X57636991Y-78262222D01*
X57672729Y-78291552D01*
X57774186Y-78374814D01*
X57851191Y-78468646D01*
X57886778Y-78512009D01*
X57886779Y-78512011D01*
X57962313Y-78653323D01*
X57970443Y-78668534D01*
X58021963Y-78838373D01*
X58039359Y-79015000D01*
X58021963Y-79191627D01*
X57970443Y-79361466D01*
X57886778Y-79517991D01*
X57861076Y-79549309D01*
X57774186Y-79655186D01*
X57687035Y-79726708D01*
X57636991Y-79767778D01*
X57480466Y-79851443D01*
X57310627Y-79902963D01*
X57244442Y-79909482D01*
X57178260Y-79916000D01*
X57089740Y-79916000D01*
X57023558Y-79909482D01*
X56957373Y-79902963D01*
X56787534Y-79851443D01*
X56631009Y-79767778D01*
X56580965Y-79726708D01*
X56493814Y-79655186D01*
X56406924Y-79549309D01*
X56381222Y-79517991D01*
X56297557Y-79361466D01*
X56246037Y-79191627D01*
X56228641Y-79015000D01*
X56246037Y-78838373D01*
X56297557Y-78668534D01*
X56305688Y-78653323D01*
X56381221Y-78512011D01*
X56381222Y-78512009D01*
X56416809Y-78468646D01*
X56493814Y-78374814D01*
X56595271Y-78291552D01*
X56631009Y-78262222D01*
X56787534Y-78178557D01*
X56957373Y-78127037D01*
X57023558Y-78120518D01*
X57089740Y-78114000D01*
X57178260Y-78114000D01*
X57244442Y-78120518D01*
X57244442Y-78120518D01*
G37*
G36*
X54704442Y-78120518D02*
G01*
X54770627Y-78127037D01*
X54940466Y-78178557D01*
X55096991Y-78262222D01*
X55132729Y-78291552D01*
X55234186Y-78374814D01*
X55311191Y-78468646D01*
X55346778Y-78512009D01*
X55346779Y-78512011D01*
X55422313Y-78653323D01*
X55430443Y-78668534D01*
X55481963Y-78838373D01*
X55499359Y-79015000D01*
X55481963Y-79191627D01*
X55430443Y-79361466D01*
X55346778Y-79517991D01*
X55321076Y-79549309D01*
X55234186Y-79655186D01*
X55147035Y-79726708D01*
X55096991Y-79767778D01*
X54940466Y-79851443D01*
X54770627Y-79902963D01*
X54704442Y-79909482D01*
X54638260Y-79916000D01*
X54549740Y-79916000D01*
X54483558Y-79909482D01*
X54417373Y-79902963D01*
X54247534Y-79851443D01*
X54091009Y-79767778D01*
X54040965Y-79726708D01*
X53953814Y-79655186D01*
X53866924Y-79549309D01*
X53841222Y-79517991D01*
X53757557Y-79361466D01*
X53706037Y-79191627D01*
X53688641Y-79015000D01*
X53706037Y-78838373D01*
X53757557Y-78668534D01*
X53765688Y-78653323D01*
X53841221Y-78512011D01*
X53841222Y-78512009D01*
X53876809Y-78468646D01*
X53953814Y-78374814D01*
X54055271Y-78291552D01*
X54091009Y-78262222D01*
X54247534Y-78178557D01*
X54417373Y-78127037D01*
X54483558Y-78120518D01*
X54549740Y-78114000D01*
X54638260Y-78114000D01*
X54704442Y-78120518D01*
X54704442Y-78120518D01*
G37*
G36*
X117344499Y-78613445D02*
G01*
X117381995Y-78624820D01*
X117416554Y-78643292D01*
X117446847Y-78668153D01*
X117471708Y-78698446D01*
X117490180Y-78733005D01*
X117501555Y-78770501D01*
X117506000Y-78815638D01*
X117506000Y-79554362D01*
X117501555Y-79599499D01*
X117490180Y-79636995D01*
X117471708Y-79671554D01*
X117446847Y-79701847D01*
X117416554Y-79726708D01*
X117381995Y-79745180D01*
X117344499Y-79756555D01*
X117299362Y-79761000D01*
X116660638Y-79761000D01*
X116615501Y-79756555D01*
X116578005Y-79745180D01*
X116543446Y-79726708D01*
X116513153Y-79701847D01*
X116488292Y-79671554D01*
X116469820Y-79636995D01*
X116458445Y-79599499D01*
X116454000Y-79554362D01*
X116454000Y-78815638D01*
X116458445Y-78770501D01*
X116469820Y-78733005D01*
X116488292Y-78698446D01*
X116513153Y-78668153D01*
X116543446Y-78643292D01*
X116578005Y-78624820D01*
X116615501Y-78613445D01*
X116660638Y-78609000D01*
X117299362Y-78609000D01*
X117344499Y-78613445D01*
X117344499Y-78613445D01*
G37*
G36*
X91473499Y-77583445D02*
G01*
X91510995Y-77594820D01*
X91545554Y-77613292D01*
X91575847Y-77638153D01*
X91600708Y-77668446D01*
X91619180Y-77703005D01*
X91630555Y-77740501D01*
X91635000Y-77785638D01*
X91635000Y-78424362D01*
X91630555Y-78469499D01*
X91619180Y-78506995D01*
X91600708Y-78541554D01*
X91575847Y-78571847D01*
X91545554Y-78596708D01*
X91510995Y-78615180D01*
X91473499Y-78626555D01*
X91428362Y-78631000D01*
X90689638Y-78631000D01*
X90644501Y-78626555D01*
X90607005Y-78615180D01*
X90572446Y-78596708D01*
X90542153Y-78571847D01*
X90517292Y-78541554D01*
X90498820Y-78506995D01*
X90487445Y-78469499D01*
X90483000Y-78424362D01*
X90483000Y-77785638D01*
X90487445Y-77740501D01*
X90498820Y-77703005D01*
X90517292Y-77668446D01*
X90542153Y-77638153D01*
X90572446Y-77613292D01*
X90607005Y-77594820D01*
X90644501Y-77583445D01*
X90689638Y-77579000D01*
X91428362Y-77579000D01*
X91473499Y-77583445D01*
X91473499Y-77583445D01*
G37*
G36*
X89723499Y-77583445D02*
G01*
X89760995Y-77594820D01*
X89795554Y-77613292D01*
X89825847Y-77638153D01*
X89850708Y-77668446D01*
X89869180Y-77703005D01*
X89880555Y-77740501D01*
X89885000Y-77785638D01*
X89885000Y-78424362D01*
X89880555Y-78469499D01*
X89869180Y-78506995D01*
X89850708Y-78541554D01*
X89825847Y-78571847D01*
X89795554Y-78596708D01*
X89760995Y-78615180D01*
X89723499Y-78626555D01*
X89678362Y-78631000D01*
X88939638Y-78631000D01*
X88894501Y-78626555D01*
X88857005Y-78615180D01*
X88822446Y-78596708D01*
X88792153Y-78571847D01*
X88767292Y-78541554D01*
X88748820Y-78506995D01*
X88737445Y-78469499D01*
X88733000Y-78424362D01*
X88733000Y-77785638D01*
X88737445Y-77740501D01*
X88748820Y-77703005D01*
X88767292Y-77668446D01*
X88792153Y-77638153D01*
X88822446Y-77613292D01*
X88857005Y-77594820D01*
X88894501Y-77583445D01*
X88939638Y-77579000D01*
X89678362Y-77579000D01*
X89723499Y-77583445D01*
X89723499Y-77583445D01*
G37*
G36*
X84734499Y-77583445D02*
G01*
X84771995Y-77594820D01*
X84806554Y-77613292D01*
X84836847Y-77638153D01*
X84861708Y-77668446D01*
X84880180Y-77703005D01*
X84891555Y-77740501D01*
X84896000Y-77785638D01*
X84896000Y-78424362D01*
X84891555Y-78469499D01*
X84880180Y-78506995D01*
X84861708Y-78541554D01*
X84836847Y-78571847D01*
X84806554Y-78596708D01*
X84771995Y-78615180D01*
X84734499Y-78626555D01*
X84689362Y-78631000D01*
X83950638Y-78631000D01*
X83905501Y-78626555D01*
X83868005Y-78615180D01*
X83833446Y-78596708D01*
X83803153Y-78571847D01*
X83778292Y-78541554D01*
X83759820Y-78506995D01*
X83748445Y-78469499D01*
X83744000Y-78424362D01*
X83744000Y-77785638D01*
X83748445Y-77740501D01*
X83759820Y-77703005D01*
X83778292Y-77668446D01*
X83803153Y-77638153D01*
X83833446Y-77613292D01*
X83868005Y-77594820D01*
X83905501Y-77583445D01*
X83950638Y-77579000D01*
X84689362Y-77579000D01*
X84734499Y-77583445D01*
X84734499Y-77583445D01*
G37*
G36*
X82984499Y-77583445D02*
G01*
X83021995Y-77594820D01*
X83056554Y-77613292D01*
X83086847Y-77638153D01*
X83111708Y-77668446D01*
X83130180Y-77703005D01*
X83141555Y-77740501D01*
X83146000Y-77785638D01*
X83146000Y-78424362D01*
X83141555Y-78469499D01*
X83130180Y-78506995D01*
X83111708Y-78541554D01*
X83086847Y-78571847D01*
X83056554Y-78596708D01*
X83021995Y-78615180D01*
X82984499Y-78626555D01*
X82939362Y-78631000D01*
X82200638Y-78631000D01*
X82155501Y-78626555D01*
X82118005Y-78615180D01*
X82083446Y-78596708D01*
X82053153Y-78571847D01*
X82028292Y-78541554D01*
X82009820Y-78506995D01*
X81998445Y-78469499D01*
X81994000Y-78424362D01*
X81994000Y-77785638D01*
X81998445Y-77740501D01*
X82009820Y-77703005D01*
X82028292Y-77668446D01*
X82053153Y-77638153D01*
X82083446Y-77613292D01*
X82118005Y-77594820D01*
X82155501Y-77583445D01*
X82200638Y-77579000D01*
X82939362Y-77579000D01*
X82984499Y-77583445D01*
X82984499Y-77583445D01*
G37*
G36*
X57244442Y-75580518D02*
G01*
X57310627Y-75587037D01*
X57480466Y-75638557D01*
X57636991Y-75722222D01*
X57672729Y-75751552D01*
X57774186Y-75834814D01*
X57857448Y-75936271D01*
X57886778Y-75972009D01*
X57970443Y-76128534D01*
X58021963Y-76298373D01*
X58039359Y-76475000D01*
X58021963Y-76651627D01*
X57970443Y-76821466D01*
X57886778Y-76977991D01*
X57857448Y-77013729D01*
X57774186Y-77115186D01*
X57672729Y-77198448D01*
X57636991Y-77227778D01*
X57480466Y-77311443D01*
X57310627Y-77362963D01*
X57244442Y-77369482D01*
X57178260Y-77376000D01*
X57089740Y-77376000D01*
X57023558Y-77369482D01*
X56957373Y-77362963D01*
X56787534Y-77311443D01*
X56631009Y-77227778D01*
X56595271Y-77198448D01*
X56493814Y-77115186D01*
X56410552Y-77013729D01*
X56381222Y-76977991D01*
X56297557Y-76821466D01*
X56246037Y-76651627D01*
X56228641Y-76475000D01*
X56246037Y-76298373D01*
X56297557Y-76128534D01*
X56381222Y-75972009D01*
X56410552Y-75936271D01*
X56493814Y-75834814D01*
X56595271Y-75751552D01*
X56631009Y-75722222D01*
X56787534Y-75638557D01*
X56957373Y-75587037D01*
X57023558Y-75580518D01*
X57089740Y-75574000D01*
X57178260Y-75574000D01*
X57244442Y-75580518D01*
X57244442Y-75580518D01*
G37*
G36*
X54704442Y-75580518D02*
G01*
X54770627Y-75587037D01*
X54940466Y-75638557D01*
X55096991Y-75722222D01*
X55132729Y-75751552D01*
X55234186Y-75834814D01*
X55317448Y-75936271D01*
X55346778Y-75972009D01*
X55430443Y-76128534D01*
X55481963Y-76298373D01*
X55499359Y-76475000D01*
X55481963Y-76651627D01*
X55430443Y-76821466D01*
X55346778Y-76977991D01*
X55317448Y-77013729D01*
X55234186Y-77115186D01*
X55132729Y-77198448D01*
X55096991Y-77227778D01*
X54940466Y-77311443D01*
X54770627Y-77362963D01*
X54704442Y-77369482D01*
X54638260Y-77376000D01*
X54549740Y-77376000D01*
X54483558Y-77369482D01*
X54417373Y-77362963D01*
X54247534Y-77311443D01*
X54091009Y-77227778D01*
X54055271Y-77198448D01*
X53953814Y-77115186D01*
X53870552Y-77013729D01*
X53841222Y-76977991D01*
X53757557Y-76821466D01*
X53706037Y-76651627D01*
X53688641Y-76475000D01*
X53706037Y-76298373D01*
X53757557Y-76128534D01*
X53841222Y-75972009D01*
X53870552Y-75936271D01*
X53953814Y-75834814D01*
X54055271Y-75751552D01*
X54091009Y-75722222D01*
X54247534Y-75638557D01*
X54417373Y-75587037D01*
X54483558Y-75580518D01*
X54549740Y-75574000D01*
X54638260Y-75574000D01*
X54704442Y-75580518D01*
X54704442Y-75580518D01*
G37*
G36*
X54704443Y-73040519D02*
G01*
X54770627Y-73047037D01*
X54940466Y-73098557D01*
X54940468Y-73098558D01*
X55018728Y-73140389D01*
X55096991Y-73182222D01*
X55130228Y-73209499D01*
X55234186Y-73294814D01*
X55283726Y-73355180D01*
X55346778Y-73432009D01*
X55430443Y-73588534D01*
X55481963Y-73758373D01*
X55499359Y-73935000D01*
X55481963Y-74111627D01*
X55430443Y-74281466D01*
X55346778Y-74437991D01*
X55317448Y-74473729D01*
X55234186Y-74575186D01*
X55132729Y-74658448D01*
X55096991Y-74687778D01*
X54940466Y-74771443D01*
X54770627Y-74822963D01*
X54704442Y-74829482D01*
X54638260Y-74836000D01*
X54549740Y-74836000D01*
X54483558Y-74829482D01*
X54417373Y-74822963D01*
X54247534Y-74771443D01*
X54091009Y-74687778D01*
X54055271Y-74658448D01*
X53953814Y-74575186D01*
X53870552Y-74473729D01*
X53841222Y-74437991D01*
X53757557Y-74281466D01*
X53706037Y-74111627D01*
X53688641Y-73935000D01*
X53706037Y-73758373D01*
X53757557Y-73588534D01*
X53841222Y-73432009D01*
X53904274Y-73355180D01*
X53953814Y-73294814D01*
X54057772Y-73209499D01*
X54091009Y-73182222D01*
X54169272Y-73140389D01*
X54247532Y-73098558D01*
X54247534Y-73098557D01*
X54417373Y-73047037D01*
X54483557Y-73040519D01*
X54549740Y-73034000D01*
X54638260Y-73034000D01*
X54704443Y-73040519D01*
X54704443Y-73040519D01*
G37*
G36*
X57244443Y-73040519D02*
G01*
X57310627Y-73047037D01*
X57480466Y-73098557D01*
X57480468Y-73098558D01*
X57558728Y-73140389D01*
X57636991Y-73182222D01*
X57670228Y-73209499D01*
X57774186Y-73294814D01*
X57823726Y-73355180D01*
X57886778Y-73432009D01*
X57970443Y-73588534D01*
X58021963Y-73758373D01*
X58039359Y-73935000D01*
X58021963Y-74111627D01*
X57970443Y-74281466D01*
X57886778Y-74437991D01*
X57857448Y-74473729D01*
X57774186Y-74575186D01*
X57672729Y-74658448D01*
X57636991Y-74687778D01*
X57480466Y-74771443D01*
X57310627Y-74822963D01*
X57244442Y-74829482D01*
X57178260Y-74836000D01*
X57089740Y-74836000D01*
X57023558Y-74829482D01*
X56957373Y-74822963D01*
X56787534Y-74771443D01*
X56631009Y-74687778D01*
X56595271Y-74658448D01*
X56493814Y-74575186D01*
X56410552Y-74473729D01*
X56381222Y-74437991D01*
X56297557Y-74281466D01*
X56246037Y-74111627D01*
X56228641Y-73935000D01*
X56246037Y-73758373D01*
X56297557Y-73588534D01*
X56381222Y-73432009D01*
X56444274Y-73355180D01*
X56493814Y-73294814D01*
X56597772Y-73209499D01*
X56631009Y-73182222D01*
X56709272Y-73140389D01*
X56787532Y-73098558D01*
X56787534Y-73098557D01*
X56957373Y-73047037D01*
X57023557Y-73040519D01*
X57089740Y-73034000D01*
X57178260Y-73034000D01*
X57244443Y-73040519D01*
X57244443Y-73040519D01*
G37*
G36*
X117344499Y-72223445D02*
G01*
X117381995Y-72234820D01*
X117416554Y-72253292D01*
X117446847Y-72278153D01*
X117471708Y-72308446D01*
X117490180Y-72343005D01*
X117501555Y-72380501D01*
X117506000Y-72425638D01*
X117506000Y-73164362D01*
X117501555Y-73209499D01*
X117490180Y-73246995D01*
X117471708Y-73281554D01*
X117446847Y-73311847D01*
X117416554Y-73336708D01*
X117381995Y-73355180D01*
X117344499Y-73366555D01*
X117299362Y-73371000D01*
X116660638Y-73371000D01*
X116615501Y-73366555D01*
X116578005Y-73355180D01*
X116543446Y-73336708D01*
X116513153Y-73311847D01*
X116488292Y-73281554D01*
X116469820Y-73246995D01*
X116458445Y-73209499D01*
X116454000Y-73164362D01*
X116454000Y-72425638D01*
X116458445Y-72380501D01*
X116469820Y-72343005D01*
X116488292Y-72308446D01*
X116513153Y-72278153D01*
X116543446Y-72253292D01*
X116578005Y-72234820D01*
X116615501Y-72223445D01*
X116660638Y-72219000D01*
X117299362Y-72219000D01*
X117344499Y-72223445D01*
X117344499Y-72223445D01*
G37*
G36*
X120110443Y-70905519D02*
G01*
X120176627Y-70912037D01*
X120346466Y-70963557D01*
X120502991Y-71047222D01*
X120538729Y-71076552D01*
X120640186Y-71159814D01*
X120723448Y-71261271D01*
X120752778Y-71297009D01*
X120836443Y-71453534D01*
X120887963Y-71623373D01*
X120905359Y-71800000D01*
X120887963Y-71976627D01*
X120836443Y-72146466D01*
X120752778Y-72302991D01*
X120748301Y-72308446D01*
X120640186Y-72440186D01*
X120538729Y-72523448D01*
X120502991Y-72552778D01*
X120346466Y-72636443D01*
X120176627Y-72687963D01*
X120110443Y-72694481D01*
X120044260Y-72701000D01*
X119955740Y-72701000D01*
X119889557Y-72694481D01*
X119823373Y-72687963D01*
X119653534Y-72636443D01*
X119497009Y-72552778D01*
X119461271Y-72523448D01*
X119359814Y-72440186D01*
X119251699Y-72308446D01*
X119247222Y-72302991D01*
X119163557Y-72146466D01*
X119112037Y-71976627D01*
X119094641Y-71800000D01*
X119112037Y-71623373D01*
X119163557Y-71453534D01*
X119247222Y-71297009D01*
X119276552Y-71261271D01*
X119359814Y-71159814D01*
X119461271Y-71076552D01*
X119497009Y-71047222D01*
X119653534Y-70963557D01*
X119823373Y-70912037D01*
X119889557Y-70905519D01*
X119955740Y-70899000D01*
X120044260Y-70899000D01*
X120110443Y-70905519D01*
X120110443Y-70905519D01*
G37*
G36*
X54704442Y-70500518D02*
G01*
X54770627Y-70507037D01*
X54940466Y-70558557D01*
X55096991Y-70642222D01*
X55132729Y-70671552D01*
X55234186Y-70754814D01*
X55317448Y-70856271D01*
X55346778Y-70892009D01*
X55430443Y-71048534D01*
X55481963Y-71218373D01*
X55499359Y-71395000D01*
X55481963Y-71571627D01*
X55430443Y-71741466D01*
X55346778Y-71897991D01*
X55317448Y-71933729D01*
X55234186Y-72035186D01*
X55132729Y-72118448D01*
X55096991Y-72147778D01*
X54940466Y-72231443D01*
X54770627Y-72282963D01*
X54704443Y-72289481D01*
X54638260Y-72296000D01*
X54549740Y-72296000D01*
X54483557Y-72289481D01*
X54417373Y-72282963D01*
X54247534Y-72231443D01*
X54091009Y-72147778D01*
X54055271Y-72118448D01*
X53953814Y-72035186D01*
X53870552Y-71933729D01*
X53841222Y-71897991D01*
X53757557Y-71741466D01*
X53706037Y-71571627D01*
X53688641Y-71395000D01*
X53706037Y-71218373D01*
X53757557Y-71048534D01*
X53841222Y-70892009D01*
X53870552Y-70856271D01*
X53953814Y-70754814D01*
X54055271Y-70671552D01*
X54091009Y-70642222D01*
X54247534Y-70558557D01*
X54417373Y-70507037D01*
X54483558Y-70500518D01*
X54549740Y-70494000D01*
X54638260Y-70494000D01*
X54704442Y-70500518D01*
X54704442Y-70500518D01*
G37*
G36*
X57244442Y-70500518D02*
G01*
X57310627Y-70507037D01*
X57480466Y-70558557D01*
X57636991Y-70642222D01*
X57672729Y-70671552D01*
X57774186Y-70754814D01*
X57857448Y-70856271D01*
X57886778Y-70892009D01*
X57970443Y-71048534D01*
X58021963Y-71218373D01*
X58039359Y-71395000D01*
X58021963Y-71571627D01*
X57970443Y-71741466D01*
X57886778Y-71897991D01*
X57857448Y-71933729D01*
X57774186Y-72035186D01*
X57672729Y-72118448D01*
X57636991Y-72147778D01*
X57480466Y-72231443D01*
X57310627Y-72282963D01*
X57244443Y-72289481D01*
X57178260Y-72296000D01*
X57089740Y-72296000D01*
X57023557Y-72289481D01*
X56957373Y-72282963D01*
X56787534Y-72231443D01*
X56631009Y-72147778D01*
X56595271Y-72118448D01*
X56493814Y-72035186D01*
X56410552Y-71933729D01*
X56381222Y-71897991D01*
X56297557Y-71741466D01*
X56246037Y-71571627D01*
X56228641Y-71395000D01*
X56246037Y-71218373D01*
X56297557Y-71048534D01*
X56381222Y-70892009D01*
X56410552Y-70856271D01*
X56493814Y-70754814D01*
X56595271Y-70671552D01*
X56631009Y-70642222D01*
X56787534Y-70558557D01*
X56957373Y-70507037D01*
X57023558Y-70500518D01*
X57089740Y-70494000D01*
X57178260Y-70494000D01*
X57244442Y-70500518D01*
X57244442Y-70500518D01*
G37*
G36*
X117344499Y-70473445D02*
G01*
X117381995Y-70484820D01*
X117416554Y-70503292D01*
X117446847Y-70528153D01*
X117471708Y-70558446D01*
X117490180Y-70593005D01*
X117501555Y-70630501D01*
X117506000Y-70675638D01*
X117506000Y-71414362D01*
X117501555Y-71459499D01*
X117490180Y-71496995D01*
X117471708Y-71531554D01*
X117446847Y-71561847D01*
X117416554Y-71586708D01*
X117381995Y-71605180D01*
X117344499Y-71616555D01*
X117299362Y-71621000D01*
X116660638Y-71621000D01*
X116615501Y-71616555D01*
X116578005Y-71605180D01*
X116543446Y-71586708D01*
X116513153Y-71561847D01*
X116488292Y-71531554D01*
X116469820Y-71496995D01*
X116458445Y-71459499D01*
X116454000Y-71414362D01*
X116454000Y-70675638D01*
X116458445Y-70630501D01*
X116469820Y-70593005D01*
X116488292Y-70558446D01*
X116513153Y-70528153D01*
X116543446Y-70503292D01*
X116578005Y-70484820D01*
X116615501Y-70473445D01*
X116660638Y-70469000D01*
X117299362Y-70469000D01*
X117344499Y-70473445D01*
X117344499Y-70473445D01*
G37*
G36*
X120110443Y-68365519D02*
G01*
X120176627Y-68372037D01*
X120346466Y-68423557D01*
X120502991Y-68507222D01*
X120538729Y-68536552D01*
X120640186Y-68619814D01*
X120723448Y-68721271D01*
X120752778Y-68757009D01*
X120836443Y-68913534D01*
X120887963Y-69083373D01*
X120905359Y-69260000D01*
X120887963Y-69436627D01*
X120836443Y-69606466D01*
X120752778Y-69762991D01*
X120723448Y-69798729D01*
X120640186Y-69900186D01*
X120538729Y-69983448D01*
X120502991Y-70012778D01*
X120346466Y-70096443D01*
X120176627Y-70147963D01*
X120110442Y-70154482D01*
X120044260Y-70161000D01*
X119955740Y-70161000D01*
X119889558Y-70154482D01*
X119823373Y-70147963D01*
X119653534Y-70096443D01*
X119497009Y-70012778D01*
X119461271Y-69983448D01*
X119359814Y-69900186D01*
X119276552Y-69798729D01*
X119247222Y-69762991D01*
X119163557Y-69606466D01*
X119112037Y-69436627D01*
X119094641Y-69260000D01*
X119112037Y-69083373D01*
X119163557Y-68913534D01*
X119247222Y-68757009D01*
X119276552Y-68721271D01*
X119359814Y-68619814D01*
X119461271Y-68536552D01*
X119497009Y-68507222D01*
X119653534Y-68423557D01*
X119823373Y-68372037D01*
X119889557Y-68365519D01*
X119955740Y-68359000D01*
X120044260Y-68359000D01*
X120110443Y-68365519D01*
X120110443Y-68365519D01*
G37*
G36*
X54704442Y-67960518D02*
G01*
X54770627Y-67967037D01*
X54940466Y-68018557D01*
X54940468Y-68018558D01*
X55018728Y-68060389D01*
X55096991Y-68102222D01*
X55132729Y-68131552D01*
X55234186Y-68214814D01*
X55317448Y-68316271D01*
X55346778Y-68352009D01*
X55430443Y-68508534D01*
X55481963Y-68678373D01*
X55499359Y-68855000D01*
X55481963Y-69031627D01*
X55430443Y-69201466D01*
X55346778Y-69357991D01*
X55317448Y-69393729D01*
X55234186Y-69495186D01*
X55132729Y-69578448D01*
X55096991Y-69607778D01*
X54940466Y-69691443D01*
X54770627Y-69742963D01*
X54704442Y-69749482D01*
X54638260Y-69756000D01*
X54549740Y-69756000D01*
X54483558Y-69749482D01*
X54417373Y-69742963D01*
X54247534Y-69691443D01*
X54091009Y-69607778D01*
X54055271Y-69578448D01*
X53953814Y-69495186D01*
X53870552Y-69393729D01*
X53841222Y-69357991D01*
X53757557Y-69201466D01*
X53706037Y-69031627D01*
X53688641Y-68855000D01*
X53706037Y-68678373D01*
X53757557Y-68508534D01*
X53841222Y-68352009D01*
X53870552Y-68316271D01*
X53953814Y-68214814D01*
X54055271Y-68131552D01*
X54091009Y-68102222D01*
X54169272Y-68060389D01*
X54247532Y-68018558D01*
X54247534Y-68018557D01*
X54417373Y-67967037D01*
X54483558Y-67960518D01*
X54549740Y-67954000D01*
X54638260Y-67954000D01*
X54704442Y-67960518D01*
X54704442Y-67960518D01*
G37*
G36*
X57244442Y-67960518D02*
G01*
X57310627Y-67967037D01*
X57480466Y-68018557D01*
X57480468Y-68018558D01*
X57558728Y-68060389D01*
X57636991Y-68102222D01*
X57672729Y-68131552D01*
X57774186Y-68214814D01*
X57857448Y-68316271D01*
X57886778Y-68352009D01*
X57970443Y-68508534D01*
X58021963Y-68678373D01*
X58039359Y-68855000D01*
X58021963Y-69031627D01*
X57970443Y-69201466D01*
X57886778Y-69357991D01*
X57857448Y-69393729D01*
X57774186Y-69495186D01*
X57672729Y-69578448D01*
X57636991Y-69607778D01*
X57480466Y-69691443D01*
X57310627Y-69742963D01*
X57244442Y-69749482D01*
X57178260Y-69756000D01*
X57089740Y-69756000D01*
X57023558Y-69749482D01*
X56957373Y-69742963D01*
X56787534Y-69691443D01*
X56631009Y-69607778D01*
X56595271Y-69578448D01*
X56493814Y-69495186D01*
X56410552Y-69393729D01*
X56381222Y-69357991D01*
X56297557Y-69201466D01*
X56246037Y-69031627D01*
X56228641Y-68855000D01*
X56246037Y-68678373D01*
X56297557Y-68508534D01*
X56381222Y-68352009D01*
X56410552Y-68316271D01*
X56493814Y-68214814D01*
X56595271Y-68131552D01*
X56631009Y-68102222D01*
X56709272Y-68060389D01*
X56787532Y-68018558D01*
X56787534Y-68018557D01*
X56957373Y-67967037D01*
X57023558Y-67960518D01*
X57089740Y-67954000D01*
X57178260Y-67954000D01*
X57244442Y-67960518D01*
X57244442Y-67960518D01*
G37*
G36*
X117344499Y-66873445D02*
G01*
X117381995Y-66884820D01*
X117416554Y-66903292D01*
X117446847Y-66928153D01*
X117471708Y-66958446D01*
X117490180Y-66993005D01*
X117501555Y-67030501D01*
X117506000Y-67075638D01*
X117506000Y-67814362D01*
X117501555Y-67859499D01*
X117490180Y-67896995D01*
X117471708Y-67931554D01*
X117446847Y-67961847D01*
X117416554Y-67986708D01*
X117381995Y-68005180D01*
X117344499Y-68016555D01*
X117299362Y-68021000D01*
X116660638Y-68021000D01*
X116615501Y-68016555D01*
X116578005Y-68005180D01*
X116543446Y-67986708D01*
X116513153Y-67961847D01*
X116488292Y-67931554D01*
X116469820Y-67896995D01*
X116458445Y-67859499D01*
X116454000Y-67814362D01*
X116454000Y-67075638D01*
X116458445Y-67030501D01*
X116469820Y-66993005D01*
X116488292Y-66958446D01*
X116513153Y-66928153D01*
X116543446Y-66903292D01*
X116578005Y-66884820D01*
X116615501Y-66873445D01*
X116660638Y-66869000D01*
X117299362Y-66869000D01*
X117344499Y-66873445D01*
X117344499Y-66873445D01*
G37*
G36*
X120901000Y-67621000D02*
G01*
X119099000Y-67621000D01*
X119099000Y-65819000D01*
X120901000Y-65819000D01*
X120901000Y-67621000D01*
X120901000Y-67621000D01*
G37*
G36*
X57244442Y-65420518D02*
G01*
X57310627Y-65427037D01*
X57480466Y-65478557D01*
X57636991Y-65562222D01*
X57672729Y-65591552D01*
X57774186Y-65674814D01*
X57857448Y-65776271D01*
X57886778Y-65812009D01*
X57970443Y-65968534D01*
X58021963Y-66138373D01*
X58039359Y-66315000D01*
X58021963Y-66491627D01*
X57970443Y-66661466D01*
X57886778Y-66817991D01*
X57857448Y-66853729D01*
X57774186Y-66955186D01*
X57672729Y-67038448D01*
X57636991Y-67067778D01*
X57480466Y-67151443D01*
X57310627Y-67202963D01*
X57244442Y-67209482D01*
X57178260Y-67216000D01*
X57089740Y-67216000D01*
X57023558Y-67209482D01*
X56957373Y-67202963D01*
X56787534Y-67151443D01*
X56631009Y-67067778D01*
X56595271Y-67038448D01*
X56493814Y-66955186D01*
X56410552Y-66853729D01*
X56381222Y-66817991D01*
X56297557Y-66661466D01*
X56246037Y-66491627D01*
X56228641Y-66315000D01*
X56246037Y-66138373D01*
X56297557Y-65968534D01*
X56381222Y-65812009D01*
X56410552Y-65776271D01*
X56493814Y-65674814D01*
X56595271Y-65591552D01*
X56631009Y-65562222D01*
X56787534Y-65478557D01*
X56957373Y-65427037D01*
X57023558Y-65420518D01*
X57089740Y-65414000D01*
X57178260Y-65414000D01*
X57244442Y-65420518D01*
X57244442Y-65420518D01*
G37*
G36*
X54704442Y-65420518D02*
G01*
X54770627Y-65427037D01*
X54940466Y-65478557D01*
X55096991Y-65562222D01*
X55132729Y-65591552D01*
X55234186Y-65674814D01*
X55317448Y-65776271D01*
X55346778Y-65812009D01*
X55430443Y-65968534D01*
X55481963Y-66138373D01*
X55499359Y-66315000D01*
X55481963Y-66491627D01*
X55430443Y-66661466D01*
X55346778Y-66817991D01*
X55317448Y-66853729D01*
X55234186Y-66955186D01*
X55132729Y-67038448D01*
X55096991Y-67067778D01*
X54940466Y-67151443D01*
X54770627Y-67202963D01*
X54704442Y-67209482D01*
X54638260Y-67216000D01*
X54549740Y-67216000D01*
X54483558Y-67209482D01*
X54417373Y-67202963D01*
X54247534Y-67151443D01*
X54091009Y-67067778D01*
X54055271Y-67038448D01*
X53953814Y-66955186D01*
X53870552Y-66853729D01*
X53841222Y-66817991D01*
X53757557Y-66661466D01*
X53706037Y-66491627D01*
X53688641Y-66315000D01*
X53706037Y-66138373D01*
X53757557Y-65968534D01*
X53841222Y-65812009D01*
X53870552Y-65776271D01*
X53953814Y-65674814D01*
X54055271Y-65591552D01*
X54091009Y-65562222D01*
X54247534Y-65478557D01*
X54417373Y-65427037D01*
X54483558Y-65420518D01*
X54549740Y-65414000D01*
X54638260Y-65414000D01*
X54704442Y-65420518D01*
X54704442Y-65420518D01*
G37*
G36*
X117344499Y-65123445D02*
G01*
X117381995Y-65134820D01*
X117416554Y-65153292D01*
X117446847Y-65178153D01*
X117471708Y-65208446D01*
X117490180Y-65243005D01*
X117501555Y-65280501D01*
X117506000Y-65325638D01*
X117506000Y-66064362D01*
X117501555Y-66109499D01*
X117490180Y-66146995D01*
X117471708Y-66181554D01*
X117446847Y-66211847D01*
X117416554Y-66236708D01*
X117381995Y-66255180D01*
X117344499Y-66266555D01*
X117299362Y-66271000D01*
X116660638Y-66271000D01*
X116615501Y-66266555D01*
X116578005Y-66255180D01*
X116543446Y-66236708D01*
X116513153Y-66211847D01*
X116488292Y-66181554D01*
X116469820Y-66146995D01*
X116458445Y-66109499D01*
X116454000Y-66064362D01*
X116454000Y-65325638D01*
X116458445Y-65280501D01*
X116469820Y-65243005D01*
X116488292Y-65208446D01*
X116513153Y-65178153D01*
X116543446Y-65153292D01*
X116578005Y-65134820D01*
X116615501Y-65123445D01*
X116660638Y-65119000D01*
X117299362Y-65119000D01*
X117344499Y-65123445D01*
X117344499Y-65123445D01*
G37*
G36*
X57244443Y-62880519D02*
G01*
X57310627Y-62887037D01*
X57480466Y-62938557D01*
X57636991Y-63022222D01*
X57672729Y-63051552D01*
X57774186Y-63134814D01*
X57857448Y-63236271D01*
X57886778Y-63272009D01*
X57970443Y-63428534D01*
X58021963Y-63598373D01*
X58039359Y-63775000D01*
X58021963Y-63951627D01*
X57970443Y-64121466D01*
X57886778Y-64277991D01*
X57857448Y-64313729D01*
X57774186Y-64415186D01*
X57672729Y-64498448D01*
X57636991Y-64527778D01*
X57480466Y-64611443D01*
X57310627Y-64662963D01*
X57244443Y-64669481D01*
X57178260Y-64676000D01*
X57089740Y-64676000D01*
X57023557Y-64669481D01*
X56957373Y-64662963D01*
X56787534Y-64611443D01*
X56631009Y-64527778D01*
X56595271Y-64498448D01*
X56493814Y-64415186D01*
X56410552Y-64313729D01*
X56381222Y-64277991D01*
X56297557Y-64121466D01*
X56246037Y-63951627D01*
X56228641Y-63775000D01*
X56246037Y-63598373D01*
X56297557Y-63428534D01*
X56381222Y-63272009D01*
X56410552Y-63236271D01*
X56493814Y-63134814D01*
X56595271Y-63051552D01*
X56631009Y-63022222D01*
X56787534Y-62938557D01*
X56957373Y-62887037D01*
X57023557Y-62880519D01*
X57089740Y-62874000D01*
X57178260Y-62874000D01*
X57244443Y-62880519D01*
X57244443Y-62880519D01*
G37*
G36*
X54704443Y-62880519D02*
G01*
X54770627Y-62887037D01*
X54940466Y-62938557D01*
X55096991Y-63022222D01*
X55132729Y-63051552D01*
X55234186Y-63134814D01*
X55317448Y-63236271D01*
X55346778Y-63272009D01*
X55430443Y-63428534D01*
X55481963Y-63598373D01*
X55499359Y-63775000D01*
X55481963Y-63951627D01*
X55430443Y-64121466D01*
X55346778Y-64277991D01*
X55317448Y-64313729D01*
X55234186Y-64415186D01*
X55132729Y-64498448D01*
X55096991Y-64527778D01*
X54940466Y-64611443D01*
X54770627Y-64662963D01*
X54704443Y-64669481D01*
X54638260Y-64676000D01*
X54549740Y-64676000D01*
X54483557Y-64669481D01*
X54417373Y-64662963D01*
X54247534Y-64611443D01*
X54091009Y-64527778D01*
X54055271Y-64498448D01*
X53953814Y-64415186D01*
X53870552Y-64313729D01*
X53841222Y-64277991D01*
X53757557Y-64121466D01*
X53706037Y-63951627D01*
X53688641Y-63775000D01*
X53706037Y-63598373D01*
X53757557Y-63428534D01*
X53841222Y-63272009D01*
X53870552Y-63236271D01*
X53953814Y-63134814D01*
X54055271Y-63051552D01*
X54091009Y-63022222D01*
X54247534Y-62938557D01*
X54417373Y-62887037D01*
X54483557Y-62880519D01*
X54549740Y-62874000D01*
X54638260Y-62874000D01*
X54704443Y-62880519D01*
X54704443Y-62880519D01*
G37*
G36*
X93484499Y-61454445D02*
G01*
X93521995Y-61465820D01*
X93556554Y-61484292D01*
X93586847Y-61509153D01*
X93611708Y-61539446D01*
X93630180Y-61574005D01*
X93641555Y-61611501D01*
X93646000Y-61656638D01*
X93646000Y-62295362D01*
X93641555Y-62340499D01*
X93630180Y-62377995D01*
X93611708Y-62412554D01*
X93586847Y-62442847D01*
X93556554Y-62467708D01*
X93521995Y-62486180D01*
X93484499Y-62497555D01*
X93439362Y-62502000D01*
X92700638Y-62502000D01*
X92655501Y-62497555D01*
X92618005Y-62486180D01*
X92583446Y-62467708D01*
X92553153Y-62442847D01*
X92528292Y-62412554D01*
X92509820Y-62377995D01*
X92498445Y-62340499D01*
X92494000Y-62295362D01*
X92494000Y-61656638D01*
X92498445Y-61611501D01*
X92509820Y-61574005D01*
X92528292Y-61539446D01*
X92553153Y-61509153D01*
X92583446Y-61484292D01*
X92618005Y-61465820D01*
X92655501Y-61454445D01*
X92700638Y-61450000D01*
X93439362Y-61450000D01*
X93484499Y-61454445D01*
X93484499Y-61454445D01*
G37*
G36*
X91734499Y-61454445D02*
G01*
X91771995Y-61465820D01*
X91806554Y-61484292D01*
X91836847Y-61509153D01*
X91861708Y-61539446D01*
X91880180Y-61574005D01*
X91891555Y-61611501D01*
X91896000Y-61656638D01*
X91896000Y-62295362D01*
X91891555Y-62340499D01*
X91880180Y-62377995D01*
X91861708Y-62412554D01*
X91836847Y-62442847D01*
X91806554Y-62467708D01*
X91771995Y-62486180D01*
X91734499Y-62497555D01*
X91689362Y-62502000D01*
X90950638Y-62502000D01*
X90905501Y-62497555D01*
X90868005Y-62486180D01*
X90833446Y-62467708D01*
X90803153Y-62442847D01*
X90778292Y-62412554D01*
X90759820Y-62377995D01*
X90748445Y-62340499D01*
X90744000Y-62295362D01*
X90744000Y-61656638D01*
X90748445Y-61611501D01*
X90759820Y-61574005D01*
X90778292Y-61539446D01*
X90803153Y-61509153D01*
X90833446Y-61484292D01*
X90868005Y-61465820D01*
X90905501Y-61454445D01*
X90950638Y-61450000D01*
X91689362Y-61450000D01*
X91734499Y-61454445D01*
X91734499Y-61454445D01*
G37*
G36*
X57244442Y-60340518D02*
G01*
X57310627Y-60347037D01*
X57480466Y-60398557D01*
X57636991Y-60482222D01*
X57672729Y-60511552D01*
X57774186Y-60594814D01*
X57836343Y-60670554D01*
X57886778Y-60732009D01*
X57970443Y-60888534D01*
X58021963Y-61058373D01*
X58039359Y-61235000D01*
X58021963Y-61411627D01*
X57970443Y-61581466D01*
X57886778Y-61737991D01*
X57857448Y-61773729D01*
X57774186Y-61875186D01*
X57672729Y-61958448D01*
X57636991Y-61987778D01*
X57480466Y-62071443D01*
X57310627Y-62122963D01*
X57244443Y-62129481D01*
X57178260Y-62136000D01*
X57089740Y-62136000D01*
X57023557Y-62129481D01*
X56957373Y-62122963D01*
X56787534Y-62071443D01*
X56631009Y-61987778D01*
X56595271Y-61958448D01*
X56493814Y-61875186D01*
X56410552Y-61773729D01*
X56381222Y-61737991D01*
X56297557Y-61581466D01*
X56246037Y-61411627D01*
X56228641Y-61235000D01*
X56246037Y-61058373D01*
X56297557Y-60888534D01*
X56381222Y-60732009D01*
X56431657Y-60670554D01*
X56493814Y-60594814D01*
X56595271Y-60511552D01*
X56631009Y-60482222D01*
X56787534Y-60398557D01*
X56957373Y-60347037D01*
X57023558Y-60340518D01*
X57089740Y-60334000D01*
X57178260Y-60334000D01*
X57244442Y-60340518D01*
X57244442Y-60340518D01*
G37*
G36*
X54704442Y-60340518D02*
G01*
X54770627Y-60347037D01*
X54940466Y-60398557D01*
X55096991Y-60482222D01*
X55132729Y-60511552D01*
X55234186Y-60594814D01*
X55296343Y-60670554D01*
X55346778Y-60732009D01*
X55430443Y-60888534D01*
X55481963Y-61058373D01*
X55499359Y-61235000D01*
X55481963Y-61411627D01*
X55430443Y-61581466D01*
X55346778Y-61737991D01*
X55317448Y-61773729D01*
X55234186Y-61875186D01*
X55132729Y-61958448D01*
X55096991Y-61987778D01*
X54940466Y-62071443D01*
X54770627Y-62122963D01*
X54704443Y-62129481D01*
X54638260Y-62136000D01*
X54549740Y-62136000D01*
X54483557Y-62129481D01*
X54417373Y-62122963D01*
X54247534Y-62071443D01*
X54091009Y-61987778D01*
X54055271Y-61958448D01*
X53953814Y-61875186D01*
X53870552Y-61773729D01*
X53841222Y-61737991D01*
X53757557Y-61581466D01*
X53706037Y-61411627D01*
X53688641Y-61235000D01*
X53706037Y-61058373D01*
X53757557Y-60888534D01*
X53841222Y-60732009D01*
X53891657Y-60670554D01*
X53953814Y-60594814D01*
X54055271Y-60511552D01*
X54091009Y-60482222D01*
X54247534Y-60398557D01*
X54417373Y-60347037D01*
X54483558Y-60340518D01*
X54549740Y-60334000D01*
X54638260Y-60334000D01*
X54704442Y-60340518D01*
X54704442Y-60340518D01*
G37*
G36*
X89899499Y-59587445D02*
G01*
X89936995Y-59598820D01*
X89971554Y-59617292D01*
X90001847Y-59642153D01*
X90026708Y-59672446D01*
X90045180Y-59707005D01*
X90056555Y-59744501D01*
X90061000Y-59789638D01*
X90061000Y-60553362D01*
X90056555Y-60598499D01*
X90045180Y-60635995D01*
X90026708Y-60670554D01*
X90001847Y-60700847D01*
X89971554Y-60725708D01*
X89936995Y-60744180D01*
X89899499Y-60755555D01*
X89854362Y-60760000D01*
X89215638Y-60760000D01*
X89170501Y-60755555D01*
X89133005Y-60744180D01*
X89098446Y-60725708D01*
X89068153Y-60700847D01*
X89043292Y-60670554D01*
X89024820Y-60635995D01*
X89013445Y-60598499D01*
X89009000Y-60553362D01*
X89009000Y-59789638D01*
X89013445Y-59744501D01*
X89024820Y-59707005D01*
X89043292Y-59672446D01*
X89068153Y-59642153D01*
X89098446Y-59617292D01*
X89133005Y-59598820D01*
X89170501Y-59587445D01*
X89215638Y-59583000D01*
X89854362Y-59583000D01*
X89899499Y-59587445D01*
X89899499Y-59587445D01*
G37*
G36*
X97654928Y-59851764D02*
G01*
X97676009Y-59858160D01*
X97695445Y-59868548D01*
X97712476Y-59882524D01*
X97726452Y-59899555D01*
X97736840Y-59918991D01*
X97743236Y-59940072D01*
X97746000Y-59968140D01*
X97746000Y-60431860D01*
X97743236Y-60459928D01*
X97736840Y-60481009D01*
X97726452Y-60500445D01*
X97712476Y-60517476D01*
X97695445Y-60531452D01*
X97676009Y-60541840D01*
X97654928Y-60548236D01*
X97626860Y-60551000D01*
X95813140Y-60551000D01*
X95785072Y-60548236D01*
X95763991Y-60541840D01*
X95744555Y-60531452D01*
X95727524Y-60517476D01*
X95713548Y-60500445D01*
X95703160Y-60481009D01*
X95696764Y-60459928D01*
X95694000Y-60431860D01*
X95694000Y-59968140D01*
X95696764Y-59940072D01*
X95703160Y-59918991D01*
X95713548Y-59899555D01*
X95727524Y-59882524D01*
X95744555Y-59868548D01*
X95763991Y-59858160D01*
X95785072Y-59851764D01*
X95813140Y-59849000D01*
X97626860Y-59849000D01*
X97654928Y-59851764D01*
X97654928Y-59851764D01*
G37*
G36*
X92704928Y-59851764D02*
G01*
X92726009Y-59858160D01*
X92745445Y-59868548D01*
X92762476Y-59882524D01*
X92776452Y-59899555D01*
X92786840Y-59918991D01*
X92793236Y-59940072D01*
X92796000Y-59968140D01*
X92796000Y-60431860D01*
X92793236Y-60459928D01*
X92786840Y-60481009D01*
X92776452Y-60500445D01*
X92762476Y-60517476D01*
X92745445Y-60531452D01*
X92726009Y-60541840D01*
X92704928Y-60548236D01*
X92676860Y-60551000D01*
X90863140Y-60551000D01*
X90835072Y-60548236D01*
X90813991Y-60541840D01*
X90794555Y-60531452D01*
X90777524Y-60517476D01*
X90763548Y-60500445D01*
X90753160Y-60481009D01*
X90746764Y-60459928D01*
X90744000Y-60431860D01*
X90744000Y-59968140D01*
X90746764Y-59940072D01*
X90753160Y-59918991D01*
X90763548Y-59899555D01*
X90777524Y-59882524D01*
X90794555Y-59868548D01*
X90813991Y-59858160D01*
X90835072Y-59851764D01*
X90863140Y-59849000D01*
X92676860Y-59849000D01*
X92704928Y-59851764D01*
X92704928Y-59851764D01*
G37*
G36*
X117344499Y-58733445D02*
G01*
X117381995Y-58744820D01*
X117416554Y-58763292D01*
X117446847Y-58788153D01*
X117471708Y-58818446D01*
X117490180Y-58853005D01*
X117501555Y-58890501D01*
X117506000Y-58935638D01*
X117506000Y-59674362D01*
X117501555Y-59719499D01*
X117490180Y-59756995D01*
X117471708Y-59791554D01*
X117446847Y-59821847D01*
X117416554Y-59846708D01*
X117381995Y-59865180D01*
X117344499Y-59876555D01*
X117299362Y-59881000D01*
X116660638Y-59881000D01*
X116615501Y-59876555D01*
X116578005Y-59865180D01*
X116543446Y-59846708D01*
X116513153Y-59821847D01*
X116488292Y-59791554D01*
X116469820Y-59756995D01*
X116458445Y-59719499D01*
X116454000Y-59674362D01*
X116454000Y-58935638D01*
X116458445Y-58890501D01*
X116469820Y-58853005D01*
X116488292Y-58818446D01*
X116513153Y-58788153D01*
X116543446Y-58763292D01*
X116578005Y-58744820D01*
X116615501Y-58733445D01*
X116660638Y-58729000D01*
X117299362Y-58729000D01*
X117344499Y-58733445D01*
X117344499Y-58733445D01*
G37*
G36*
X54704443Y-57800519D02*
G01*
X54770627Y-57807037D01*
X54940466Y-57858557D01*
X54940468Y-57858558D01*
X55002771Y-57891860D01*
X55096991Y-57942222D01*
X55130228Y-57969499D01*
X55234186Y-58054814D01*
X55298658Y-58133375D01*
X55346778Y-58192009D01*
X55430443Y-58348534D01*
X55481963Y-58518373D01*
X55499359Y-58695000D01*
X55481963Y-58871627D01*
X55430443Y-59041466D01*
X55346778Y-59197991D01*
X55317448Y-59233729D01*
X55234186Y-59335186D01*
X55132729Y-59418448D01*
X55096991Y-59447778D01*
X54940466Y-59531443D01*
X54770627Y-59582963D01*
X54704442Y-59589482D01*
X54638260Y-59596000D01*
X54549740Y-59596000D01*
X54483558Y-59589482D01*
X54417373Y-59582963D01*
X54247534Y-59531443D01*
X54091009Y-59447778D01*
X54055271Y-59418448D01*
X53953814Y-59335186D01*
X53870552Y-59233729D01*
X53841222Y-59197991D01*
X53757557Y-59041466D01*
X53706037Y-58871627D01*
X53688641Y-58695000D01*
X53706037Y-58518373D01*
X53757557Y-58348534D01*
X53841222Y-58192009D01*
X53889342Y-58133375D01*
X53953814Y-58054814D01*
X54057772Y-57969499D01*
X54091009Y-57942222D01*
X54185229Y-57891860D01*
X54247532Y-57858558D01*
X54247534Y-57858557D01*
X54417373Y-57807037D01*
X54483557Y-57800519D01*
X54549740Y-57794000D01*
X54638260Y-57794000D01*
X54704443Y-57800519D01*
X54704443Y-57800519D01*
G37*
G36*
X57244443Y-57800519D02*
G01*
X57310627Y-57807037D01*
X57480466Y-57858557D01*
X57480468Y-57858558D01*
X57542771Y-57891860D01*
X57636991Y-57942222D01*
X57670228Y-57969499D01*
X57774186Y-58054814D01*
X57838658Y-58133375D01*
X57886778Y-58192009D01*
X57970443Y-58348534D01*
X58021963Y-58518373D01*
X58039359Y-58695000D01*
X58021963Y-58871627D01*
X57970443Y-59041466D01*
X57886778Y-59197991D01*
X57857448Y-59233729D01*
X57774186Y-59335186D01*
X57672729Y-59418448D01*
X57636991Y-59447778D01*
X57480466Y-59531443D01*
X57310627Y-59582963D01*
X57244442Y-59589482D01*
X57178260Y-59596000D01*
X57089740Y-59596000D01*
X57023558Y-59589482D01*
X56957373Y-59582963D01*
X56787534Y-59531443D01*
X56631009Y-59447778D01*
X56595271Y-59418448D01*
X56493814Y-59335186D01*
X56410552Y-59233729D01*
X56381222Y-59197991D01*
X56297557Y-59041466D01*
X56246037Y-58871627D01*
X56228641Y-58695000D01*
X56246037Y-58518373D01*
X56297557Y-58348534D01*
X56381222Y-58192009D01*
X56429342Y-58133375D01*
X56493814Y-58054814D01*
X56597772Y-57969499D01*
X56631009Y-57942222D01*
X56725229Y-57891860D01*
X56787532Y-57858558D01*
X56787534Y-57858557D01*
X56957373Y-57807037D01*
X57023557Y-57800519D01*
X57089740Y-57794000D01*
X57178260Y-57794000D01*
X57244443Y-57800519D01*
X57244443Y-57800519D01*
G37*
G36*
X97654928Y-58581764D02*
G01*
X97676009Y-58588160D01*
X97695445Y-58598548D01*
X97712476Y-58612524D01*
X97726452Y-58629555D01*
X97736840Y-58648991D01*
X97743236Y-58670072D01*
X97746000Y-58698140D01*
X97746000Y-59161860D01*
X97743236Y-59189928D01*
X97736840Y-59211009D01*
X97726452Y-59230445D01*
X97712476Y-59247476D01*
X97695445Y-59261452D01*
X97676009Y-59271840D01*
X97654928Y-59278236D01*
X97626860Y-59281000D01*
X95813140Y-59281000D01*
X95785072Y-59278236D01*
X95763991Y-59271840D01*
X95744555Y-59261452D01*
X95727524Y-59247476D01*
X95713548Y-59230445D01*
X95703160Y-59211009D01*
X95696764Y-59189928D01*
X95694000Y-59161860D01*
X95694000Y-58698140D01*
X95696764Y-58670072D01*
X95703160Y-58648991D01*
X95713548Y-58629555D01*
X95727524Y-58612524D01*
X95744555Y-58598548D01*
X95763991Y-58588160D01*
X95785072Y-58581764D01*
X95813140Y-58579000D01*
X97626860Y-58579000D01*
X97654928Y-58581764D01*
X97654928Y-58581764D01*
G37*
G36*
X92704928Y-58581764D02*
G01*
X92726009Y-58588160D01*
X92745445Y-58598548D01*
X92762476Y-58612524D01*
X92776452Y-58629555D01*
X92786840Y-58648991D01*
X92793236Y-58670072D01*
X92796000Y-58698140D01*
X92796000Y-59161860D01*
X92793236Y-59189928D01*
X92786840Y-59211009D01*
X92776452Y-59230445D01*
X92762476Y-59247476D01*
X92745445Y-59261452D01*
X92726009Y-59271840D01*
X92704928Y-59278236D01*
X92676860Y-59281000D01*
X90863140Y-59281000D01*
X90835072Y-59278236D01*
X90813991Y-59271840D01*
X90794555Y-59261452D01*
X90777524Y-59247476D01*
X90763548Y-59230445D01*
X90753160Y-59211009D01*
X90746764Y-59189928D01*
X90744000Y-59161860D01*
X90744000Y-58698140D01*
X90746764Y-58670072D01*
X90753160Y-58648991D01*
X90763548Y-58629555D01*
X90777524Y-58612524D01*
X90794555Y-58598548D01*
X90813991Y-58588160D01*
X90835072Y-58581764D01*
X90863140Y-58579000D01*
X92676860Y-58579000D01*
X92704928Y-58581764D01*
X92704928Y-58581764D01*
G37*
G36*
X120110442Y-57415518D02*
G01*
X120176627Y-57422037D01*
X120346466Y-57473557D01*
X120502991Y-57557222D01*
X120538729Y-57586552D01*
X120640186Y-57669814D01*
X120723448Y-57771271D01*
X120752778Y-57807009D01*
X120836443Y-57963534D01*
X120887963Y-58133373D01*
X120905359Y-58310000D01*
X120887963Y-58486627D01*
X120836443Y-58656466D01*
X120752778Y-58812991D01*
X120748301Y-58818446D01*
X120640186Y-58950186D01*
X120542255Y-59030555D01*
X120502991Y-59062778D01*
X120346466Y-59146443D01*
X120176627Y-59197963D01*
X120125454Y-59203003D01*
X120044260Y-59211000D01*
X119955740Y-59211000D01*
X119874546Y-59203003D01*
X119823373Y-59197963D01*
X119653534Y-59146443D01*
X119497009Y-59062778D01*
X119457745Y-59030555D01*
X119359814Y-58950186D01*
X119251699Y-58818446D01*
X119247222Y-58812991D01*
X119163557Y-58656466D01*
X119112037Y-58486627D01*
X119094641Y-58310000D01*
X119112037Y-58133373D01*
X119163557Y-57963534D01*
X119247222Y-57807009D01*
X119276552Y-57771271D01*
X119359814Y-57669814D01*
X119461271Y-57586552D01*
X119497009Y-57557222D01*
X119653534Y-57473557D01*
X119823373Y-57422037D01*
X119889558Y-57415518D01*
X119955740Y-57409000D01*
X120044260Y-57409000D01*
X120110442Y-57415518D01*
X120110442Y-57415518D01*
G37*
G36*
X89899499Y-57862445D02*
G01*
X89936995Y-57873820D01*
X89971554Y-57892292D01*
X90001847Y-57917153D01*
X90026708Y-57947446D01*
X90045180Y-57982005D01*
X90056555Y-58019501D01*
X90061000Y-58064638D01*
X90061000Y-58828362D01*
X90056555Y-58873499D01*
X90045180Y-58910995D01*
X90026708Y-58945554D01*
X90001847Y-58975847D01*
X89971554Y-59000708D01*
X89936995Y-59019180D01*
X89899499Y-59030555D01*
X89854362Y-59035000D01*
X89215638Y-59035000D01*
X89170501Y-59030555D01*
X89133005Y-59019180D01*
X89098446Y-59000708D01*
X89068153Y-58975847D01*
X89043292Y-58945554D01*
X89024820Y-58910995D01*
X89013445Y-58873499D01*
X89009000Y-58828362D01*
X89009000Y-58064638D01*
X89013445Y-58019501D01*
X89024820Y-57982005D01*
X89043292Y-57947446D01*
X89068153Y-57917153D01*
X89098446Y-57892292D01*
X89133005Y-57873820D01*
X89170501Y-57862445D01*
X89215638Y-57858000D01*
X89854362Y-57858000D01*
X89899499Y-57862445D01*
X89899499Y-57862445D01*
G37*
G36*
X117344499Y-56983445D02*
G01*
X117381995Y-56994820D01*
X117416554Y-57013292D01*
X117446847Y-57038153D01*
X117471708Y-57068446D01*
X117490180Y-57103005D01*
X117501555Y-57140501D01*
X117506000Y-57185638D01*
X117506000Y-57924362D01*
X117501555Y-57969499D01*
X117490180Y-58006995D01*
X117471708Y-58041554D01*
X117446847Y-58071847D01*
X117416554Y-58096708D01*
X117381995Y-58115180D01*
X117344499Y-58126555D01*
X117299362Y-58131000D01*
X116660638Y-58131000D01*
X116615501Y-58126555D01*
X116578005Y-58115180D01*
X116543446Y-58096708D01*
X116513153Y-58071847D01*
X116488292Y-58041554D01*
X116469820Y-58006995D01*
X116458445Y-57969499D01*
X116454000Y-57924362D01*
X116454000Y-57185638D01*
X116458445Y-57140501D01*
X116469820Y-57103005D01*
X116488292Y-57068446D01*
X116513153Y-57038153D01*
X116543446Y-57013292D01*
X116578005Y-56994820D01*
X116615501Y-56983445D01*
X116660638Y-56979000D01*
X117299362Y-56979000D01*
X117344499Y-56983445D01*
X117344499Y-56983445D01*
G37*
G36*
X97654928Y-57311764D02*
G01*
X97676009Y-57318160D01*
X97695445Y-57328548D01*
X97712476Y-57342524D01*
X97726452Y-57359555D01*
X97736840Y-57378991D01*
X97743236Y-57400072D01*
X97746000Y-57428140D01*
X97746000Y-57891860D01*
X97743236Y-57919928D01*
X97736840Y-57941009D01*
X97726452Y-57960445D01*
X97712476Y-57977476D01*
X97695445Y-57991452D01*
X97676009Y-58001840D01*
X97654928Y-58008236D01*
X97626860Y-58011000D01*
X95813140Y-58011000D01*
X95785072Y-58008236D01*
X95763991Y-58001840D01*
X95744555Y-57991452D01*
X95727524Y-57977476D01*
X95713548Y-57960445D01*
X95703160Y-57941009D01*
X95696764Y-57919928D01*
X95694000Y-57891860D01*
X95694000Y-57428140D01*
X95696764Y-57400072D01*
X95703160Y-57378991D01*
X95713548Y-57359555D01*
X95727524Y-57342524D01*
X95744555Y-57328548D01*
X95763991Y-57318160D01*
X95785072Y-57311764D01*
X95813140Y-57309000D01*
X97626860Y-57309000D01*
X97654928Y-57311764D01*
X97654928Y-57311764D01*
G37*
G36*
X92704928Y-57311764D02*
G01*
X92726009Y-57318160D01*
X92745445Y-57328548D01*
X92762476Y-57342524D01*
X92776452Y-57359555D01*
X92786840Y-57378991D01*
X92793236Y-57400072D01*
X92796000Y-57428140D01*
X92796000Y-57891860D01*
X92793236Y-57919928D01*
X92786840Y-57941009D01*
X92776452Y-57960445D01*
X92762476Y-57977476D01*
X92745445Y-57991452D01*
X92726009Y-58001840D01*
X92704928Y-58008236D01*
X92676860Y-58011000D01*
X90863140Y-58011000D01*
X90835072Y-58008236D01*
X90813991Y-58001840D01*
X90794555Y-57991452D01*
X90777524Y-57977476D01*
X90763548Y-57960445D01*
X90753160Y-57941009D01*
X90746764Y-57919928D01*
X90744000Y-57891860D01*
X90744000Y-57428140D01*
X90746764Y-57400072D01*
X90753160Y-57378991D01*
X90763548Y-57359555D01*
X90777524Y-57342524D01*
X90794555Y-57328548D01*
X90813991Y-57318160D01*
X90835072Y-57311764D01*
X90863140Y-57309000D01*
X92676860Y-57309000D01*
X92704928Y-57311764D01*
X92704928Y-57311764D01*
G37*
G36*
X57244443Y-55260519D02*
G01*
X57310627Y-55267037D01*
X57480466Y-55318557D01*
X57636991Y-55402222D01*
X57672729Y-55431552D01*
X57774186Y-55514814D01*
X57838658Y-55593375D01*
X57886778Y-55652009D01*
X57970443Y-55808534D01*
X58021963Y-55978373D01*
X58039359Y-56155000D01*
X58021963Y-56331627D01*
X57970443Y-56501466D01*
X57886778Y-56657991D01*
X57857448Y-56693729D01*
X57774186Y-56795186D01*
X57672729Y-56878448D01*
X57636991Y-56907778D01*
X57480466Y-56991443D01*
X57310627Y-57042963D01*
X57244442Y-57049482D01*
X57178260Y-57056000D01*
X57089740Y-57056000D01*
X57023558Y-57049482D01*
X56957373Y-57042963D01*
X56787534Y-56991443D01*
X56631009Y-56907778D01*
X56595271Y-56878448D01*
X56493814Y-56795186D01*
X56410552Y-56693729D01*
X56381222Y-56657991D01*
X56297557Y-56501466D01*
X56246037Y-56331627D01*
X56228641Y-56155000D01*
X56246037Y-55978373D01*
X56297557Y-55808534D01*
X56381222Y-55652009D01*
X56429342Y-55593375D01*
X56493814Y-55514814D01*
X56595271Y-55431552D01*
X56631009Y-55402222D01*
X56787534Y-55318557D01*
X56957373Y-55267037D01*
X57023557Y-55260519D01*
X57089740Y-55254000D01*
X57178260Y-55254000D01*
X57244443Y-55260519D01*
X57244443Y-55260519D01*
G37*
G36*
X54704443Y-55260519D02*
G01*
X54770627Y-55267037D01*
X54940466Y-55318557D01*
X55096991Y-55402222D01*
X55132729Y-55431552D01*
X55234186Y-55514814D01*
X55298658Y-55593375D01*
X55346778Y-55652009D01*
X55430443Y-55808534D01*
X55481963Y-55978373D01*
X55499359Y-56155000D01*
X55481963Y-56331627D01*
X55430443Y-56501466D01*
X55346778Y-56657991D01*
X55317448Y-56693729D01*
X55234186Y-56795186D01*
X55132729Y-56878448D01*
X55096991Y-56907778D01*
X54940466Y-56991443D01*
X54770627Y-57042963D01*
X54704442Y-57049482D01*
X54638260Y-57056000D01*
X54549740Y-57056000D01*
X54483558Y-57049482D01*
X54417373Y-57042963D01*
X54247534Y-56991443D01*
X54091009Y-56907778D01*
X54055271Y-56878448D01*
X53953814Y-56795186D01*
X53870552Y-56693729D01*
X53841222Y-56657991D01*
X53757557Y-56501466D01*
X53706037Y-56331627D01*
X53688641Y-56155000D01*
X53706037Y-55978373D01*
X53757557Y-55808534D01*
X53841222Y-55652009D01*
X53889342Y-55593375D01*
X53953814Y-55514814D01*
X54055271Y-55431552D01*
X54091009Y-55402222D01*
X54247534Y-55318557D01*
X54417373Y-55267037D01*
X54483557Y-55260519D01*
X54549740Y-55254000D01*
X54638260Y-55254000D01*
X54704443Y-55260519D01*
X54704443Y-55260519D01*
G37*
G36*
X92704928Y-56041764D02*
G01*
X92726009Y-56048160D01*
X92745445Y-56058548D01*
X92762476Y-56072524D01*
X92776452Y-56089555D01*
X92786840Y-56108991D01*
X92793236Y-56130072D01*
X92796000Y-56158140D01*
X92796000Y-56621860D01*
X92793236Y-56649928D01*
X92786840Y-56671009D01*
X92776452Y-56690445D01*
X92762476Y-56707476D01*
X92745445Y-56721452D01*
X92726009Y-56731840D01*
X92704928Y-56738236D01*
X92676860Y-56741000D01*
X90863140Y-56741000D01*
X90835072Y-56738236D01*
X90813991Y-56731840D01*
X90794555Y-56721452D01*
X90777524Y-56707476D01*
X90763548Y-56690445D01*
X90753160Y-56671009D01*
X90746764Y-56649928D01*
X90744000Y-56621860D01*
X90744000Y-56158140D01*
X90746764Y-56130072D01*
X90753160Y-56108991D01*
X90763548Y-56089555D01*
X90777524Y-56072524D01*
X90794555Y-56058548D01*
X90813991Y-56048160D01*
X90835072Y-56041764D01*
X90863140Y-56039000D01*
X92676860Y-56039000D01*
X92704928Y-56041764D01*
X92704928Y-56041764D01*
G37*
G36*
X97654928Y-56041764D02*
G01*
X97676009Y-56048160D01*
X97695445Y-56058548D01*
X97712476Y-56072524D01*
X97726452Y-56089555D01*
X97736840Y-56108991D01*
X97743236Y-56130072D01*
X97746000Y-56158140D01*
X97746000Y-56621860D01*
X97743236Y-56649928D01*
X97736840Y-56671009D01*
X97726452Y-56690445D01*
X97712476Y-56707476D01*
X97695445Y-56721452D01*
X97676009Y-56731840D01*
X97654928Y-56738236D01*
X97626860Y-56741000D01*
X95813140Y-56741000D01*
X95785072Y-56738236D01*
X95763991Y-56731840D01*
X95744555Y-56721452D01*
X95727524Y-56707476D01*
X95713548Y-56690445D01*
X95703160Y-56671009D01*
X95696764Y-56649928D01*
X95694000Y-56621860D01*
X95694000Y-56158140D01*
X95696764Y-56130072D01*
X95703160Y-56108991D01*
X95713548Y-56089555D01*
X95727524Y-56072524D01*
X95744555Y-56058548D01*
X95763991Y-56048160D01*
X95785072Y-56041764D01*
X95813140Y-56039000D01*
X97626860Y-56039000D01*
X97654928Y-56041764D01*
X97654928Y-56041764D01*
G37*
G36*
X120110443Y-54875519D02*
G01*
X120176627Y-54882037D01*
X120346466Y-54933557D01*
X120502991Y-55017222D01*
X120538729Y-55046552D01*
X120640186Y-55129814D01*
X120723448Y-55231271D01*
X120752778Y-55267009D01*
X120836443Y-55423534D01*
X120887963Y-55593373D01*
X120905359Y-55770000D01*
X120887963Y-55946627D01*
X120836443Y-56116466D01*
X120752778Y-56272991D01*
X120723448Y-56308729D01*
X120640186Y-56410186D01*
X120538729Y-56493448D01*
X120502991Y-56522778D01*
X120346466Y-56606443D01*
X120176627Y-56657963D01*
X120125454Y-56663003D01*
X120044260Y-56671000D01*
X119955740Y-56671000D01*
X119874546Y-56663003D01*
X119823373Y-56657963D01*
X119653534Y-56606443D01*
X119497009Y-56522778D01*
X119461271Y-56493448D01*
X119359814Y-56410186D01*
X119276552Y-56308729D01*
X119247222Y-56272991D01*
X119163557Y-56116466D01*
X119112037Y-55946627D01*
X119094641Y-55770000D01*
X119112037Y-55593373D01*
X119163557Y-55423534D01*
X119247222Y-55267009D01*
X119276552Y-55231271D01*
X119359814Y-55129814D01*
X119461271Y-55046552D01*
X119497009Y-55017222D01*
X119653534Y-54933557D01*
X119823373Y-54882037D01*
X119889557Y-54875519D01*
X119955740Y-54869000D01*
X120044260Y-54869000D01*
X120110443Y-54875519D01*
X120110443Y-54875519D01*
G37*
G36*
X97654928Y-54771764D02*
G01*
X97676009Y-54778160D01*
X97695445Y-54788548D01*
X97712476Y-54802524D01*
X97726452Y-54819555D01*
X97736840Y-54838991D01*
X97743236Y-54860072D01*
X97746000Y-54888140D01*
X97746000Y-55351860D01*
X97743236Y-55379928D01*
X97736840Y-55401009D01*
X97726452Y-55420445D01*
X97712476Y-55437476D01*
X97695445Y-55451452D01*
X97676009Y-55461840D01*
X97654928Y-55468236D01*
X97626860Y-55471000D01*
X95813140Y-55471000D01*
X95785072Y-55468236D01*
X95763991Y-55461840D01*
X95744555Y-55451452D01*
X95727524Y-55437476D01*
X95713548Y-55420445D01*
X95703160Y-55401009D01*
X95696764Y-55379928D01*
X95694000Y-55351860D01*
X95694000Y-54888140D01*
X95696764Y-54860072D01*
X95703160Y-54838991D01*
X95713548Y-54819555D01*
X95727524Y-54802524D01*
X95744555Y-54788548D01*
X95763991Y-54778160D01*
X95785072Y-54771764D01*
X95813140Y-54769000D01*
X97626860Y-54769000D01*
X97654928Y-54771764D01*
X97654928Y-54771764D01*
G37*
G36*
X92704928Y-54771764D02*
G01*
X92726009Y-54778160D01*
X92745445Y-54788548D01*
X92762476Y-54802524D01*
X92776452Y-54819555D01*
X92786840Y-54838991D01*
X92793236Y-54860072D01*
X92796000Y-54888140D01*
X92796000Y-55351860D01*
X92793236Y-55379928D01*
X92786840Y-55401009D01*
X92776452Y-55420445D01*
X92762476Y-55437476D01*
X92745445Y-55451452D01*
X92726009Y-55461840D01*
X92704928Y-55468236D01*
X92676860Y-55471000D01*
X90863140Y-55471000D01*
X90835072Y-55468236D01*
X90813991Y-55461840D01*
X90794555Y-55451452D01*
X90777524Y-55437476D01*
X90763548Y-55420445D01*
X90753160Y-55401009D01*
X90746764Y-55379928D01*
X90744000Y-55351860D01*
X90744000Y-54888140D01*
X90746764Y-54860072D01*
X90753160Y-54838991D01*
X90763548Y-54819555D01*
X90777524Y-54802524D01*
X90794555Y-54788548D01*
X90813991Y-54778160D01*
X90835072Y-54771764D01*
X90863140Y-54769000D01*
X92676860Y-54769000D01*
X92704928Y-54771764D01*
X92704928Y-54771764D01*
G37*
G36*
X117344499Y-53383445D02*
G01*
X117381995Y-53394820D01*
X117416554Y-53413292D01*
X117446847Y-53438153D01*
X117471708Y-53468446D01*
X117490180Y-53503005D01*
X117501555Y-53540501D01*
X117506000Y-53585638D01*
X117506000Y-54324362D01*
X117501555Y-54369499D01*
X117490180Y-54406995D01*
X117471708Y-54441554D01*
X117446847Y-54471847D01*
X117416554Y-54496708D01*
X117381995Y-54515180D01*
X117344499Y-54526555D01*
X117299362Y-54531000D01*
X116660638Y-54531000D01*
X116615501Y-54526555D01*
X116578005Y-54515180D01*
X116543446Y-54496708D01*
X116513153Y-54471847D01*
X116488292Y-54441554D01*
X116469820Y-54406995D01*
X116458445Y-54369499D01*
X116454000Y-54324362D01*
X116454000Y-53585638D01*
X116458445Y-53540501D01*
X116469820Y-53503005D01*
X116488292Y-53468446D01*
X116513153Y-53438153D01*
X116543446Y-53413292D01*
X116578005Y-53394820D01*
X116615501Y-53383445D01*
X116660638Y-53379000D01*
X117299362Y-53379000D01*
X117344499Y-53383445D01*
X117344499Y-53383445D01*
G37*
G36*
X54704442Y-52720518D02*
G01*
X54770627Y-52727037D01*
X54940466Y-52778557D01*
X54940468Y-52778558D01*
X54961384Y-52789738D01*
X55096991Y-52862222D01*
X55132729Y-52891552D01*
X55234186Y-52974814D01*
X55317448Y-53076271D01*
X55346778Y-53112009D01*
X55430443Y-53268534D01*
X55481963Y-53438373D01*
X55499359Y-53615000D01*
X55481963Y-53791627D01*
X55430443Y-53961466D01*
X55346778Y-54117991D01*
X55317448Y-54153729D01*
X55234186Y-54255186D01*
X55132729Y-54338448D01*
X55096991Y-54367778D01*
X54940466Y-54451443D01*
X54770627Y-54502963D01*
X54704443Y-54509481D01*
X54638260Y-54516000D01*
X54549740Y-54516000D01*
X54483557Y-54509481D01*
X54417373Y-54502963D01*
X54247534Y-54451443D01*
X54091009Y-54367778D01*
X54055271Y-54338448D01*
X53953814Y-54255186D01*
X53870552Y-54153729D01*
X53841222Y-54117991D01*
X53757557Y-53961466D01*
X53706037Y-53791627D01*
X53688641Y-53615000D01*
X53706037Y-53438373D01*
X53757557Y-53268534D01*
X53841222Y-53112009D01*
X53870552Y-53076271D01*
X53953814Y-52974814D01*
X54055271Y-52891552D01*
X54091009Y-52862222D01*
X54226616Y-52789738D01*
X54247532Y-52778558D01*
X54247534Y-52778557D01*
X54417373Y-52727037D01*
X54483558Y-52720518D01*
X54549740Y-52714000D01*
X54638260Y-52714000D01*
X54704442Y-52720518D01*
X54704442Y-52720518D01*
G37*
G36*
X57244442Y-52720518D02*
G01*
X57310627Y-52727037D01*
X57480466Y-52778557D01*
X57480468Y-52778558D01*
X57501384Y-52789738D01*
X57636991Y-52862222D01*
X57672729Y-52891552D01*
X57774186Y-52974814D01*
X57857448Y-53076271D01*
X57886778Y-53112009D01*
X57970443Y-53268534D01*
X58021963Y-53438373D01*
X58039359Y-53615000D01*
X58021963Y-53791627D01*
X57970443Y-53961466D01*
X57886778Y-54117991D01*
X57857448Y-54153729D01*
X57774186Y-54255186D01*
X57672729Y-54338448D01*
X57636991Y-54367778D01*
X57480466Y-54451443D01*
X57310627Y-54502963D01*
X57244443Y-54509481D01*
X57178260Y-54516000D01*
X57089740Y-54516000D01*
X57023557Y-54509481D01*
X56957373Y-54502963D01*
X56787534Y-54451443D01*
X56631009Y-54367778D01*
X56595271Y-54338448D01*
X56493814Y-54255186D01*
X56410552Y-54153729D01*
X56381222Y-54117991D01*
X56297557Y-53961466D01*
X56246037Y-53791627D01*
X56228641Y-53615000D01*
X56246037Y-53438373D01*
X56297557Y-53268534D01*
X56381222Y-53112009D01*
X56410552Y-53076271D01*
X56493814Y-52974814D01*
X56595271Y-52891552D01*
X56631009Y-52862222D01*
X56766616Y-52789738D01*
X56787532Y-52778558D01*
X56787534Y-52778557D01*
X56957373Y-52727037D01*
X57023558Y-52720518D01*
X57089740Y-52714000D01*
X57178260Y-52714000D01*
X57244442Y-52720518D01*
X57244442Y-52720518D01*
G37*
G36*
X92704928Y-53501764D02*
G01*
X92726009Y-53508160D01*
X92745445Y-53518548D01*
X92762476Y-53532524D01*
X92776452Y-53549555D01*
X92786840Y-53568991D01*
X92793236Y-53590072D01*
X92796000Y-53618140D01*
X92796000Y-54081860D01*
X92793236Y-54109928D01*
X92786840Y-54131009D01*
X92776452Y-54150445D01*
X92762476Y-54167476D01*
X92745445Y-54181452D01*
X92726009Y-54191840D01*
X92704928Y-54198236D01*
X92676860Y-54201000D01*
X90863140Y-54201000D01*
X90835072Y-54198236D01*
X90813991Y-54191840D01*
X90794555Y-54181452D01*
X90777524Y-54167476D01*
X90763548Y-54150445D01*
X90753160Y-54131009D01*
X90746764Y-54109928D01*
X90744000Y-54081860D01*
X90744000Y-53618140D01*
X90746764Y-53590072D01*
X90753160Y-53568991D01*
X90763548Y-53549555D01*
X90777524Y-53532524D01*
X90794555Y-53518548D01*
X90813991Y-53508160D01*
X90835072Y-53501764D01*
X90863140Y-53499000D01*
X92676860Y-53499000D01*
X92704928Y-53501764D01*
X92704928Y-53501764D01*
G37*
G36*
X97654928Y-53501764D02*
G01*
X97676009Y-53508160D01*
X97695445Y-53518548D01*
X97712476Y-53532524D01*
X97726452Y-53549555D01*
X97736840Y-53568991D01*
X97743236Y-53590072D01*
X97746000Y-53618140D01*
X97746000Y-54081860D01*
X97743236Y-54109928D01*
X97736840Y-54131009D01*
X97726452Y-54150445D01*
X97712476Y-54167476D01*
X97695445Y-54181452D01*
X97676009Y-54191840D01*
X97654928Y-54198236D01*
X97626860Y-54201000D01*
X95813140Y-54201000D01*
X95785072Y-54198236D01*
X95763991Y-54191840D01*
X95744555Y-54181452D01*
X95727524Y-54167476D01*
X95713548Y-54150445D01*
X95703160Y-54131009D01*
X95696764Y-54109928D01*
X95694000Y-54081860D01*
X95694000Y-53618140D01*
X95696764Y-53590072D01*
X95703160Y-53568991D01*
X95713548Y-53549555D01*
X95727524Y-53532524D01*
X95744555Y-53518548D01*
X95763991Y-53508160D01*
X95785072Y-53501764D01*
X95813140Y-53499000D01*
X97626860Y-53499000D01*
X97654928Y-53501764D01*
X97654928Y-53501764D01*
G37*
G36*
X120901000Y-54131000D02*
G01*
X119099000Y-54131000D01*
X119099000Y-52329000D01*
X120901000Y-52329000D01*
X120901000Y-54131000D01*
X120901000Y-54131000D01*
G37*
G36*
X92704928Y-52231764D02*
G01*
X92726009Y-52238160D01*
X92745445Y-52248548D01*
X92762476Y-52262524D01*
X92776452Y-52279555D01*
X92786840Y-52298991D01*
X92793236Y-52320072D01*
X92796000Y-52348140D01*
X92796000Y-52811860D01*
X92793236Y-52839928D01*
X92786840Y-52861009D01*
X92776452Y-52880445D01*
X92762476Y-52897476D01*
X92745445Y-52911452D01*
X92726009Y-52921840D01*
X92704928Y-52928236D01*
X92676860Y-52931000D01*
X90863140Y-52931000D01*
X90835072Y-52928236D01*
X90813991Y-52921840D01*
X90794555Y-52911452D01*
X90777524Y-52897476D01*
X90763548Y-52880445D01*
X90753160Y-52861009D01*
X90746764Y-52839928D01*
X90744000Y-52811860D01*
X90744000Y-52348140D01*
X90746764Y-52320072D01*
X90753160Y-52298991D01*
X90763548Y-52279555D01*
X90777524Y-52262524D01*
X90794555Y-52248548D01*
X90813991Y-52238160D01*
X90835072Y-52231764D01*
X90863140Y-52229000D01*
X92676860Y-52229000D01*
X92704928Y-52231764D01*
X92704928Y-52231764D01*
G37*
G36*
X97654928Y-52231764D02*
G01*
X97676009Y-52238160D01*
X97695445Y-52248548D01*
X97712476Y-52262524D01*
X97726452Y-52279555D01*
X97736840Y-52298991D01*
X97743236Y-52320072D01*
X97746000Y-52348140D01*
X97746000Y-52811860D01*
X97743236Y-52839928D01*
X97736840Y-52861009D01*
X97726452Y-52880445D01*
X97712476Y-52897476D01*
X97695445Y-52911452D01*
X97676009Y-52921840D01*
X97654928Y-52928236D01*
X97626860Y-52931000D01*
X95813140Y-52931000D01*
X95785072Y-52928236D01*
X95763991Y-52921840D01*
X95744555Y-52911452D01*
X95727524Y-52897476D01*
X95713548Y-52880445D01*
X95703160Y-52861009D01*
X95696764Y-52839928D01*
X95694000Y-52811860D01*
X95694000Y-52348140D01*
X95696764Y-52320072D01*
X95703160Y-52298991D01*
X95713548Y-52279555D01*
X95727524Y-52262524D01*
X95744555Y-52248548D01*
X95763991Y-52238160D01*
X95785072Y-52231764D01*
X95813140Y-52229000D01*
X97626860Y-52229000D01*
X97654928Y-52231764D01*
X97654928Y-52231764D01*
G37*
G36*
X117344499Y-51633445D02*
G01*
X117381995Y-51644820D01*
X117416554Y-51663292D01*
X117446847Y-51688153D01*
X117471708Y-51718446D01*
X117490180Y-51753005D01*
X117501555Y-51790501D01*
X117506000Y-51835638D01*
X117506000Y-52574362D01*
X117501555Y-52619499D01*
X117490180Y-52656995D01*
X117471708Y-52691554D01*
X117446847Y-52721847D01*
X117416554Y-52746708D01*
X117381995Y-52765180D01*
X117344499Y-52776555D01*
X117299362Y-52781000D01*
X116660638Y-52781000D01*
X116615501Y-52776555D01*
X116578005Y-52765180D01*
X116543446Y-52746708D01*
X116513153Y-52721847D01*
X116488292Y-52691554D01*
X116469820Y-52656995D01*
X116458445Y-52619499D01*
X116454000Y-52574362D01*
X116454000Y-51835638D01*
X116458445Y-51790501D01*
X116469820Y-51753005D01*
X116488292Y-51718446D01*
X116513153Y-51688153D01*
X116543446Y-51663292D01*
X116578005Y-51644820D01*
X116615501Y-51633445D01*
X116660638Y-51629000D01*
X117299362Y-51629000D01*
X117344499Y-51633445D01*
X117344499Y-51633445D01*
G37*
G36*
X57244443Y-50180519D02*
G01*
X57310627Y-50187037D01*
X57480466Y-50238557D01*
X57636991Y-50322222D01*
X57672729Y-50351552D01*
X57774186Y-50434814D01*
X57857448Y-50536271D01*
X57886778Y-50572009D01*
X57970443Y-50728534D01*
X58021963Y-50898373D01*
X58039359Y-51075000D01*
X58021963Y-51251627D01*
X57970443Y-51421466D01*
X57886778Y-51577991D01*
X57857448Y-51613729D01*
X57774186Y-51715186D01*
X57672729Y-51798448D01*
X57636991Y-51827778D01*
X57480466Y-51911443D01*
X57310627Y-51962963D01*
X57244442Y-51969482D01*
X57178260Y-51976000D01*
X57089740Y-51976000D01*
X57023558Y-51969482D01*
X56957373Y-51962963D01*
X56787534Y-51911443D01*
X56631009Y-51827778D01*
X56595271Y-51798448D01*
X56493814Y-51715186D01*
X56410552Y-51613729D01*
X56381222Y-51577991D01*
X56297557Y-51421466D01*
X56246037Y-51251627D01*
X56228641Y-51075000D01*
X56246037Y-50898373D01*
X56297557Y-50728534D01*
X56381222Y-50572009D01*
X56410552Y-50536271D01*
X56493814Y-50434814D01*
X56595271Y-50351552D01*
X56631009Y-50322222D01*
X56787534Y-50238557D01*
X56957373Y-50187037D01*
X57023557Y-50180519D01*
X57089740Y-50174000D01*
X57178260Y-50174000D01*
X57244443Y-50180519D01*
X57244443Y-50180519D01*
G37*
G36*
X54704443Y-50180519D02*
G01*
X54770627Y-50187037D01*
X54940466Y-50238557D01*
X55096991Y-50322222D01*
X55132729Y-50351552D01*
X55234186Y-50434814D01*
X55317448Y-50536271D01*
X55346778Y-50572009D01*
X55430443Y-50728534D01*
X55481963Y-50898373D01*
X55499359Y-51075000D01*
X55481963Y-51251627D01*
X55430443Y-51421466D01*
X55346778Y-51577991D01*
X55317448Y-51613729D01*
X55234186Y-51715186D01*
X55132729Y-51798448D01*
X55096991Y-51827778D01*
X54940466Y-51911443D01*
X54770627Y-51962963D01*
X54704442Y-51969482D01*
X54638260Y-51976000D01*
X54549740Y-51976000D01*
X54483558Y-51969482D01*
X54417373Y-51962963D01*
X54247534Y-51911443D01*
X54091009Y-51827778D01*
X54055271Y-51798448D01*
X53953814Y-51715186D01*
X53870552Y-51613729D01*
X53841222Y-51577991D01*
X53757557Y-51421466D01*
X53706037Y-51251627D01*
X53688641Y-51075000D01*
X53706037Y-50898373D01*
X53757557Y-50728534D01*
X53841222Y-50572009D01*
X53870552Y-50536271D01*
X53953814Y-50434814D01*
X54055271Y-50351552D01*
X54091009Y-50322222D01*
X54247534Y-50238557D01*
X54417373Y-50187037D01*
X54483557Y-50180519D01*
X54549740Y-50174000D01*
X54638260Y-50174000D01*
X54704443Y-50180519D01*
X54704443Y-50180519D01*
G37*
G36*
X92704928Y-50961764D02*
G01*
X92726009Y-50968160D01*
X92745445Y-50978548D01*
X92762476Y-50992524D01*
X92776452Y-51009555D01*
X92786840Y-51028991D01*
X92793236Y-51050072D01*
X92796000Y-51078140D01*
X92796000Y-51541860D01*
X92793236Y-51569928D01*
X92786840Y-51591009D01*
X92776452Y-51610445D01*
X92762476Y-51627476D01*
X92745445Y-51641452D01*
X92726009Y-51651840D01*
X92704928Y-51658236D01*
X92676860Y-51661000D01*
X90863140Y-51661000D01*
X90835072Y-51658236D01*
X90813991Y-51651840D01*
X90794555Y-51641452D01*
X90777524Y-51627476D01*
X90763548Y-51610445D01*
X90753160Y-51591009D01*
X90746764Y-51569928D01*
X90744000Y-51541860D01*
X90744000Y-51078140D01*
X90746764Y-51050072D01*
X90753160Y-51028991D01*
X90763548Y-51009555D01*
X90777524Y-50992524D01*
X90794555Y-50978548D01*
X90813991Y-50968160D01*
X90835072Y-50961764D01*
X90863140Y-50959000D01*
X92676860Y-50959000D01*
X92704928Y-50961764D01*
X92704928Y-50961764D01*
G37*
G36*
X97654928Y-50961764D02*
G01*
X97676009Y-50968160D01*
X97695445Y-50978548D01*
X97712476Y-50992524D01*
X97726452Y-51009555D01*
X97736840Y-51028991D01*
X97743236Y-51050072D01*
X97746000Y-51078140D01*
X97746000Y-51541860D01*
X97743236Y-51569928D01*
X97736840Y-51591009D01*
X97726452Y-51610445D01*
X97712476Y-51627476D01*
X97695445Y-51641452D01*
X97676009Y-51651840D01*
X97654928Y-51658236D01*
X97626860Y-51661000D01*
X95813140Y-51661000D01*
X95785072Y-51658236D01*
X95763991Y-51651840D01*
X95744555Y-51641452D01*
X95727524Y-51627476D01*
X95713548Y-51610445D01*
X95703160Y-51591009D01*
X95696764Y-51569928D01*
X95694000Y-51541860D01*
X95694000Y-51078140D01*
X95696764Y-51050072D01*
X95703160Y-51028991D01*
X95713548Y-51009555D01*
X95727524Y-50992524D01*
X95744555Y-50978548D01*
X95763991Y-50968160D01*
X95785072Y-50961764D01*
X95813140Y-50959000D01*
X97626860Y-50959000D01*
X97654928Y-50961764D01*
X97654928Y-50961764D01*
G37*
G36*
X71647499Y-48500445D02*
G01*
X71684995Y-48511820D01*
X71719554Y-48530292D01*
X71749847Y-48555153D01*
X71774708Y-48585446D01*
X71793180Y-48620005D01*
X71804555Y-48657501D01*
X71809000Y-48702638D01*
X71809000Y-49341362D01*
X71804555Y-49386499D01*
X71793180Y-49423995D01*
X71774708Y-49458554D01*
X71749847Y-49488847D01*
X71719554Y-49513708D01*
X71684995Y-49532180D01*
X71647499Y-49543555D01*
X71602362Y-49548000D01*
X70863638Y-49548000D01*
X70818501Y-49543555D01*
X70781005Y-49532180D01*
X70746446Y-49513708D01*
X70716153Y-49488847D01*
X70691292Y-49458554D01*
X70672820Y-49423995D01*
X70661445Y-49386499D01*
X70657000Y-49341362D01*
X70657000Y-48702638D01*
X70661445Y-48657501D01*
X70672820Y-48620005D01*
X70691292Y-48585446D01*
X70716153Y-48555153D01*
X70746446Y-48530292D01*
X70781005Y-48511820D01*
X70818501Y-48500445D01*
X70863638Y-48496000D01*
X71602362Y-48496000D01*
X71647499Y-48500445D01*
X71647499Y-48500445D01*
G37*
G36*
X69897499Y-48500445D02*
G01*
X69934995Y-48511820D01*
X69969554Y-48530292D01*
X69999847Y-48555153D01*
X70024708Y-48585446D01*
X70043180Y-48620005D01*
X70054555Y-48657501D01*
X70059000Y-48702638D01*
X70059000Y-49341362D01*
X70054555Y-49386499D01*
X70043180Y-49423995D01*
X70024708Y-49458554D01*
X69999847Y-49488847D01*
X69969554Y-49513708D01*
X69934995Y-49532180D01*
X69897499Y-49543555D01*
X69852362Y-49548000D01*
X69113638Y-49548000D01*
X69068501Y-49543555D01*
X69031005Y-49532180D01*
X68996446Y-49513708D01*
X68966153Y-49488847D01*
X68941292Y-49458554D01*
X68922820Y-49423995D01*
X68911445Y-49386499D01*
X68907000Y-49341362D01*
X68907000Y-48702638D01*
X68911445Y-48657501D01*
X68922820Y-48620005D01*
X68941292Y-48585446D01*
X68966153Y-48555153D01*
X68996446Y-48530292D01*
X69031005Y-48511820D01*
X69068501Y-48500445D01*
X69113638Y-48496000D01*
X69852362Y-48496000D01*
X69897499Y-48500445D01*
X69897499Y-48500445D01*
G37*
G36*
X57244442Y-47640518D02*
G01*
X57310627Y-47647037D01*
X57480466Y-47698557D01*
X57636991Y-47782222D01*
X57670838Y-47810000D01*
X57774186Y-47894814D01*
X57857448Y-47996271D01*
X57886778Y-48032009D01*
X57970443Y-48188534D01*
X58021963Y-48358373D01*
X58039359Y-48535000D01*
X58021963Y-48711627D01*
X57970443Y-48881466D01*
X57886778Y-49037991D01*
X57857448Y-49073729D01*
X57774186Y-49175186D01*
X57672729Y-49258448D01*
X57636991Y-49287778D01*
X57480466Y-49371443D01*
X57310627Y-49422963D01*
X57244442Y-49429482D01*
X57178260Y-49436000D01*
X57089740Y-49436000D01*
X57023558Y-49429482D01*
X56957373Y-49422963D01*
X56787534Y-49371443D01*
X56631009Y-49287778D01*
X56595271Y-49258448D01*
X56493814Y-49175186D01*
X56410552Y-49073729D01*
X56381222Y-49037991D01*
X56297557Y-48881466D01*
X56246037Y-48711627D01*
X56228641Y-48535000D01*
X56246037Y-48358373D01*
X56297557Y-48188534D01*
X56381222Y-48032009D01*
X56410552Y-47996271D01*
X56493814Y-47894814D01*
X56597162Y-47810000D01*
X56631009Y-47782222D01*
X56787534Y-47698557D01*
X56957373Y-47647037D01*
X57023558Y-47640518D01*
X57089740Y-47634000D01*
X57178260Y-47634000D01*
X57244442Y-47640518D01*
X57244442Y-47640518D01*
G37*
G36*
X54704442Y-47640518D02*
G01*
X54770627Y-47647037D01*
X54940466Y-47698557D01*
X55096991Y-47782222D01*
X55130838Y-47810000D01*
X55234186Y-47894814D01*
X55317448Y-47996271D01*
X55346778Y-48032009D01*
X55430443Y-48188534D01*
X55481963Y-48358373D01*
X55499359Y-48535000D01*
X55481963Y-48711627D01*
X55430443Y-48881466D01*
X55346778Y-49037991D01*
X55317448Y-49073729D01*
X55234186Y-49175186D01*
X55132729Y-49258448D01*
X55096991Y-49287778D01*
X54940466Y-49371443D01*
X54770627Y-49422963D01*
X54704442Y-49429482D01*
X54638260Y-49436000D01*
X54549740Y-49436000D01*
X54483558Y-49429482D01*
X54417373Y-49422963D01*
X54247534Y-49371443D01*
X54091009Y-49287778D01*
X54055271Y-49258448D01*
X53953814Y-49175186D01*
X53870552Y-49073729D01*
X53841222Y-49037991D01*
X53757557Y-48881466D01*
X53706037Y-48711627D01*
X53688641Y-48535000D01*
X53706037Y-48358373D01*
X53757557Y-48188534D01*
X53841222Y-48032009D01*
X53870552Y-47996271D01*
X53953814Y-47894814D01*
X54057162Y-47810000D01*
X54091009Y-47782222D01*
X54247534Y-47698557D01*
X54417373Y-47647037D01*
X54483558Y-47640518D01*
X54549740Y-47634000D01*
X54638260Y-47634000D01*
X54704442Y-47640518D01*
X54704442Y-47640518D01*
G37*
G36*
X84601499Y-47551445D02*
G01*
X84638995Y-47562820D01*
X84673554Y-47581292D01*
X84703847Y-47606153D01*
X84728708Y-47636446D01*
X84747180Y-47671005D01*
X84758555Y-47708501D01*
X84763000Y-47753638D01*
X84763000Y-48392362D01*
X84758555Y-48437499D01*
X84747180Y-48474995D01*
X84728708Y-48509554D01*
X84703847Y-48539847D01*
X84673554Y-48564708D01*
X84638995Y-48583180D01*
X84601499Y-48594555D01*
X84556362Y-48599000D01*
X83817638Y-48599000D01*
X83772501Y-48594555D01*
X83735005Y-48583180D01*
X83700446Y-48564708D01*
X83670153Y-48539847D01*
X83645292Y-48509554D01*
X83626820Y-48474995D01*
X83615445Y-48437499D01*
X83611000Y-48392362D01*
X83611000Y-47753638D01*
X83615445Y-47708501D01*
X83626820Y-47671005D01*
X83645292Y-47636446D01*
X83670153Y-47606153D01*
X83700446Y-47581292D01*
X83735005Y-47562820D01*
X83772501Y-47551445D01*
X83817638Y-47547000D01*
X84556362Y-47547000D01*
X84601499Y-47551445D01*
X84601499Y-47551445D01*
G37*
G36*
X82851499Y-47551445D02*
G01*
X82888995Y-47562820D01*
X82923554Y-47581292D01*
X82953847Y-47606153D01*
X82978708Y-47636446D01*
X82997180Y-47671005D01*
X83008555Y-47708501D01*
X83013000Y-47753638D01*
X83013000Y-48392362D01*
X83008555Y-48437499D01*
X82997180Y-48474995D01*
X82978708Y-48509554D01*
X82953847Y-48539847D01*
X82923554Y-48564708D01*
X82888995Y-48583180D01*
X82851499Y-48594555D01*
X82806362Y-48599000D01*
X82067638Y-48599000D01*
X82022501Y-48594555D01*
X81985005Y-48583180D01*
X81950446Y-48564708D01*
X81920153Y-48539847D01*
X81895292Y-48509554D01*
X81876820Y-48474995D01*
X81865445Y-48437499D01*
X81861000Y-48392362D01*
X81861000Y-47753638D01*
X81865445Y-47708501D01*
X81876820Y-47671005D01*
X81895292Y-47636446D01*
X81920153Y-47606153D01*
X81950446Y-47581292D01*
X81985005Y-47562820D01*
X82022501Y-47551445D01*
X82067638Y-47547000D01*
X82806362Y-47547000D01*
X82851499Y-47551445D01*
X82851499Y-47551445D01*
G37*
G36*
X87711000Y-48534000D02*
G01*
X86009000Y-48534000D01*
X86009000Y-47732000D01*
X87711000Y-47732000D01*
X87711000Y-48534000D01*
X87711000Y-48534000D01*
G37*
G36*
X67564499Y-46594945D02*
G01*
X67601995Y-46606320D01*
X67636554Y-46624792D01*
X67666847Y-46649653D01*
X67691708Y-46679946D01*
X67710180Y-46714505D01*
X67721555Y-46752001D01*
X67726000Y-46797138D01*
X67726000Y-47535862D01*
X67721555Y-47580999D01*
X67710180Y-47618495D01*
X67691708Y-47653054D01*
X67666847Y-47683347D01*
X67636554Y-47708208D01*
X67601995Y-47726680D01*
X67564499Y-47738055D01*
X67519362Y-47742500D01*
X66880638Y-47742500D01*
X66835501Y-47738055D01*
X66798005Y-47726680D01*
X66763446Y-47708208D01*
X66733153Y-47683347D01*
X66708292Y-47653054D01*
X66689820Y-47618495D01*
X66678445Y-47580999D01*
X66674000Y-47535862D01*
X66674000Y-46797138D01*
X66678445Y-46752001D01*
X66689820Y-46714505D01*
X66708292Y-46679946D01*
X66733153Y-46649653D01*
X66763446Y-46624792D01*
X66798005Y-46606320D01*
X66835501Y-46594945D01*
X66880638Y-46590500D01*
X67519362Y-46590500D01*
X67564499Y-46594945D01*
X67564499Y-46594945D01*
G37*
G36*
X73770499Y-46594945D02*
G01*
X73807995Y-46606320D01*
X73842554Y-46624792D01*
X73872847Y-46649653D01*
X73897708Y-46679946D01*
X73916180Y-46714505D01*
X73927555Y-46752001D01*
X73932000Y-46797138D01*
X73932000Y-47535862D01*
X73927555Y-47580999D01*
X73916180Y-47618495D01*
X73897708Y-47653054D01*
X73872847Y-47683347D01*
X73842554Y-47708208D01*
X73807995Y-47726680D01*
X73770499Y-47738055D01*
X73725362Y-47742500D01*
X73086638Y-47742500D01*
X73041501Y-47738055D01*
X73004005Y-47726680D01*
X72969446Y-47708208D01*
X72939153Y-47683347D01*
X72914292Y-47653054D01*
X72895820Y-47618495D01*
X72884445Y-47580999D01*
X72880000Y-47535862D01*
X72880000Y-46797138D01*
X72884445Y-46752001D01*
X72895820Y-46714505D01*
X72914292Y-46679946D01*
X72939153Y-46649653D01*
X72969446Y-46624792D01*
X73004005Y-46606320D01*
X73041501Y-46594945D01*
X73086638Y-46590500D01*
X73725362Y-46590500D01*
X73770499Y-46594945D01*
X73770499Y-46594945D01*
G37*
G36*
X71504000Y-47617500D02*
G01*
X69102000Y-47617500D01*
X69102000Y-47015500D01*
X71504000Y-47015500D01*
X71504000Y-47617500D01*
X71504000Y-47617500D01*
G37*
G36*
X87711000Y-47264000D02*
G01*
X86009000Y-47264000D01*
X86009000Y-46462000D01*
X87711000Y-46462000D01*
X87711000Y-47264000D01*
X87711000Y-47264000D01*
G37*
G36*
X54704443Y-45100519D02*
G01*
X54770627Y-45107037D01*
X54940466Y-45158557D01*
X55096991Y-45242222D01*
X55117459Y-45259020D01*
X55234186Y-45354814D01*
X55308722Y-45445638D01*
X55346778Y-45492009D01*
X55430443Y-45648534D01*
X55481963Y-45818373D01*
X55499359Y-45995000D01*
X55481963Y-46171627D01*
X55430443Y-46341466D01*
X55346778Y-46497991D01*
X55317448Y-46533729D01*
X55234186Y-46635186D01*
X55163135Y-46693495D01*
X55096991Y-46747778D01*
X54940466Y-46831443D01*
X54770627Y-46882963D01*
X54704443Y-46889481D01*
X54638260Y-46896000D01*
X54549740Y-46896000D01*
X54483557Y-46889481D01*
X54417373Y-46882963D01*
X54247534Y-46831443D01*
X54091009Y-46747778D01*
X54024865Y-46693495D01*
X53953814Y-46635186D01*
X53870552Y-46533729D01*
X53841222Y-46497991D01*
X53757557Y-46341466D01*
X53706037Y-46171627D01*
X53688641Y-45995000D01*
X53706037Y-45818373D01*
X53757557Y-45648534D01*
X53841222Y-45492009D01*
X53879278Y-45445638D01*
X53953814Y-45354814D01*
X54070541Y-45259020D01*
X54091009Y-45242222D01*
X54247534Y-45158557D01*
X54417373Y-45107037D01*
X54483557Y-45100519D01*
X54549740Y-45094000D01*
X54638260Y-45094000D01*
X54704443Y-45100519D01*
X54704443Y-45100519D01*
G37*
G36*
X57244443Y-45100519D02*
G01*
X57310627Y-45107037D01*
X57480466Y-45158557D01*
X57636991Y-45242222D01*
X57657459Y-45259020D01*
X57774186Y-45354814D01*
X57848722Y-45445638D01*
X57886778Y-45492009D01*
X57970443Y-45648534D01*
X58021963Y-45818373D01*
X58039359Y-45995000D01*
X58021963Y-46171627D01*
X57970443Y-46341466D01*
X57886778Y-46497991D01*
X57857448Y-46533729D01*
X57774186Y-46635186D01*
X57703135Y-46693495D01*
X57636991Y-46747778D01*
X57480466Y-46831443D01*
X57310627Y-46882963D01*
X57244443Y-46889481D01*
X57178260Y-46896000D01*
X57089740Y-46896000D01*
X57023557Y-46889481D01*
X56957373Y-46882963D01*
X56787534Y-46831443D01*
X56631009Y-46747778D01*
X56564865Y-46693495D01*
X56493814Y-46635186D01*
X56410552Y-46533729D01*
X56381222Y-46497991D01*
X56297557Y-46341466D01*
X56246037Y-46171627D01*
X56228641Y-45995000D01*
X56246037Y-45818373D01*
X56297557Y-45648534D01*
X56381222Y-45492009D01*
X56419278Y-45445638D01*
X56493814Y-45354814D01*
X56610541Y-45259020D01*
X56631009Y-45242222D01*
X56787534Y-45158557D01*
X56957373Y-45107037D01*
X57023557Y-45100519D01*
X57089740Y-45094000D01*
X57178260Y-45094000D01*
X57244443Y-45100519D01*
X57244443Y-45100519D01*
G37*
G36*
X82851499Y-45769945D02*
G01*
X82888995Y-45781320D01*
X82923554Y-45799792D01*
X82953847Y-45824653D01*
X82978708Y-45854946D01*
X82997180Y-45889505D01*
X83008555Y-45927001D01*
X83013000Y-45972138D01*
X83013000Y-46610862D01*
X83008555Y-46655999D01*
X82997180Y-46693495D01*
X82978708Y-46728054D01*
X82953847Y-46758347D01*
X82923554Y-46783208D01*
X82888995Y-46801680D01*
X82851499Y-46813055D01*
X82806362Y-46817500D01*
X82067638Y-46817500D01*
X82022501Y-46813055D01*
X81985005Y-46801680D01*
X81950446Y-46783208D01*
X81920153Y-46758347D01*
X81895292Y-46728054D01*
X81876820Y-46693495D01*
X81865445Y-46655999D01*
X81861000Y-46610862D01*
X81861000Y-45972138D01*
X81865445Y-45927001D01*
X81876820Y-45889505D01*
X81895292Y-45854946D01*
X81920153Y-45824653D01*
X81950446Y-45799792D01*
X81985005Y-45781320D01*
X82022501Y-45769945D01*
X82067638Y-45765500D01*
X82806362Y-45765500D01*
X82851499Y-45769945D01*
X82851499Y-45769945D01*
G37*
G36*
X84601499Y-45769945D02*
G01*
X84638995Y-45781320D01*
X84673554Y-45799792D01*
X84703847Y-45824653D01*
X84728708Y-45854946D01*
X84747180Y-45889505D01*
X84758555Y-45927001D01*
X84763000Y-45972138D01*
X84763000Y-46610862D01*
X84758555Y-46655999D01*
X84747180Y-46693495D01*
X84728708Y-46728054D01*
X84703847Y-46758347D01*
X84673554Y-46783208D01*
X84638995Y-46801680D01*
X84601499Y-46813055D01*
X84556362Y-46817500D01*
X83817638Y-46817500D01*
X83772501Y-46813055D01*
X83735005Y-46801680D01*
X83700446Y-46783208D01*
X83670153Y-46758347D01*
X83645292Y-46728054D01*
X83626820Y-46693495D01*
X83615445Y-46655999D01*
X83611000Y-46610862D01*
X83611000Y-45972138D01*
X83615445Y-45927001D01*
X83626820Y-45889505D01*
X83645292Y-45854946D01*
X83670153Y-45824653D01*
X83700446Y-45799792D01*
X83735005Y-45781320D01*
X83772501Y-45769945D01*
X83817638Y-45765500D01*
X84556362Y-45765500D01*
X84601499Y-45769945D01*
X84601499Y-45769945D01*
G37*
G36*
X117344499Y-45243445D02*
G01*
X117381995Y-45254820D01*
X117416554Y-45273292D01*
X117446847Y-45298153D01*
X117471708Y-45328446D01*
X117490180Y-45363005D01*
X117501555Y-45400501D01*
X117506000Y-45445638D01*
X117506000Y-46184362D01*
X117501555Y-46229499D01*
X117490180Y-46266995D01*
X117471708Y-46301554D01*
X117446847Y-46331847D01*
X117416554Y-46356708D01*
X117381995Y-46375180D01*
X117344499Y-46386555D01*
X117299362Y-46391000D01*
X116660638Y-46391000D01*
X116615501Y-46386555D01*
X116578005Y-46375180D01*
X116543446Y-46356708D01*
X116513153Y-46331847D01*
X116488292Y-46301554D01*
X116469820Y-46266995D01*
X116458445Y-46229499D01*
X116454000Y-46184362D01*
X116454000Y-45445638D01*
X116458445Y-45400501D01*
X116469820Y-45363005D01*
X116488292Y-45328446D01*
X116513153Y-45298153D01*
X116543446Y-45273292D01*
X116578005Y-45254820D01*
X116615501Y-45243445D01*
X116660638Y-45239000D01*
X117299362Y-45239000D01*
X117344499Y-45243445D01*
X117344499Y-45243445D01*
G37*
G36*
X87711000Y-45994000D02*
G01*
X86009000Y-45994000D01*
X86009000Y-45192000D01*
X87711000Y-45192000D01*
X87711000Y-45994000D01*
X87711000Y-45994000D01*
G37*
G36*
X67564499Y-44844945D02*
G01*
X67601995Y-44856320D01*
X67636554Y-44874792D01*
X67666847Y-44899653D01*
X67691708Y-44929946D01*
X67710180Y-44964505D01*
X67721555Y-45002001D01*
X67726000Y-45047138D01*
X67726000Y-45785862D01*
X67721555Y-45830999D01*
X67710180Y-45868495D01*
X67691708Y-45903054D01*
X67666847Y-45933347D01*
X67636554Y-45958208D01*
X67601995Y-45976680D01*
X67564499Y-45988055D01*
X67519362Y-45992500D01*
X66880638Y-45992500D01*
X66835501Y-45988055D01*
X66798005Y-45976680D01*
X66763446Y-45958208D01*
X66733153Y-45933347D01*
X66708292Y-45903054D01*
X66689820Y-45868495D01*
X66678445Y-45830999D01*
X66674000Y-45785862D01*
X66674000Y-45047138D01*
X66678445Y-45002001D01*
X66689820Y-44964505D01*
X66708292Y-44929946D01*
X66733153Y-44899653D01*
X66763446Y-44874792D01*
X66798005Y-44856320D01*
X66835501Y-44844945D01*
X66880638Y-44840500D01*
X67519362Y-44840500D01*
X67564499Y-44844945D01*
X67564499Y-44844945D01*
G37*
G36*
X73770499Y-44844945D02*
G01*
X73807995Y-44856320D01*
X73842554Y-44874792D01*
X73872847Y-44899653D01*
X73897708Y-44929946D01*
X73916180Y-44964505D01*
X73927555Y-45002001D01*
X73932000Y-45047138D01*
X73932000Y-45785862D01*
X73927555Y-45830999D01*
X73916180Y-45868495D01*
X73897708Y-45903054D01*
X73872847Y-45933347D01*
X73842554Y-45958208D01*
X73807995Y-45976680D01*
X73770499Y-45988055D01*
X73725362Y-45992500D01*
X73086638Y-45992500D01*
X73041501Y-45988055D01*
X73004005Y-45976680D01*
X72969446Y-45958208D01*
X72939153Y-45933347D01*
X72914292Y-45903054D01*
X72895820Y-45868495D01*
X72884445Y-45830999D01*
X72880000Y-45785862D01*
X72880000Y-45047138D01*
X72884445Y-45002001D01*
X72895820Y-44964505D01*
X72914292Y-44929946D01*
X72939153Y-44899653D01*
X72969446Y-44874792D01*
X73004005Y-44856320D01*
X73041501Y-44844945D01*
X73086638Y-44840500D01*
X73725362Y-44840500D01*
X73770499Y-44844945D01*
X73770499Y-44844945D01*
G37*
G36*
X120110443Y-43925519D02*
G01*
X120176627Y-43932037D01*
X120346466Y-43983557D01*
X120502991Y-44067222D01*
X120530746Y-44090000D01*
X120640186Y-44179814D01*
X120695323Y-44247000D01*
X120752778Y-44317009D01*
X120836443Y-44473534D01*
X120887963Y-44643373D01*
X120905359Y-44820000D01*
X120887963Y-44996627D01*
X120836443Y-45166466D01*
X120752778Y-45322991D01*
X120725782Y-45355885D01*
X120640186Y-45460186D01*
X120538729Y-45543448D01*
X120502991Y-45572778D01*
X120346466Y-45656443D01*
X120176627Y-45707963D01*
X120110442Y-45714482D01*
X120044260Y-45721000D01*
X119955740Y-45721000D01*
X119889557Y-45714481D01*
X119823373Y-45707963D01*
X119653534Y-45656443D01*
X119497009Y-45572778D01*
X119461271Y-45543448D01*
X119359814Y-45460186D01*
X119274218Y-45355885D01*
X119247222Y-45322991D01*
X119163557Y-45166466D01*
X119112037Y-44996627D01*
X119094641Y-44820000D01*
X119112037Y-44643373D01*
X119163557Y-44473534D01*
X119247222Y-44317009D01*
X119304677Y-44247000D01*
X119359814Y-44179814D01*
X119469254Y-44090000D01*
X119497009Y-44067222D01*
X119653534Y-43983557D01*
X119823373Y-43932037D01*
X119889558Y-43925518D01*
X119955740Y-43919000D01*
X120044260Y-43919000D01*
X120110443Y-43925519D01*
X120110443Y-43925519D01*
G37*
G36*
X71504000Y-45567500D02*
G01*
X69102000Y-45567500D01*
X69102000Y-44965500D01*
X71504000Y-44965500D01*
X71504000Y-45567500D01*
X71504000Y-45567500D01*
G37*
G36*
X84601499Y-43988445D02*
G01*
X84638995Y-43999820D01*
X84673554Y-44018292D01*
X84703847Y-44043153D01*
X84728708Y-44073446D01*
X84747180Y-44108005D01*
X84758555Y-44145501D01*
X84763000Y-44190638D01*
X84763000Y-44829362D01*
X84758555Y-44874499D01*
X84747180Y-44911995D01*
X84728708Y-44946554D01*
X84703847Y-44976847D01*
X84673554Y-45001708D01*
X84638995Y-45020180D01*
X84601499Y-45031555D01*
X84556362Y-45036000D01*
X83817638Y-45036000D01*
X83772501Y-45031555D01*
X83735005Y-45020180D01*
X83700446Y-45001708D01*
X83670153Y-44976847D01*
X83645292Y-44946554D01*
X83626820Y-44911995D01*
X83615445Y-44874499D01*
X83611000Y-44829362D01*
X83611000Y-44190638D01*
X83615445Y-44145501D01*
X83626820Y-44108005D01*
X83645292Y-44073446D01*
X83670153Y-44043153D01*
X83700446Y-44018292D01*
X83735005Y-43999820D01*
X83772501Y-43988445D01*
X83817638Y-43984000D01*
X84556362Y-43984000D01*
X84601499Y-43988445D01*
X84601499Y-43988445D01*
G37*
G36*
X82851499Y-43988445D02*
G01*
X82888995Y-43999820D01*
X82923554Y-44018292D01*
X82953847Y-44043153D01*
X82978708Y-44073446D01*
X82997180Y-44108005D01*
X83008555Y-44145501D01*
X83013000Y-44190638D01*
X83013000Y-44829362D01*
X83008555Y-44874499D01*
X82997180Y-44911995D01*
X82978708Y-44946554D01*
X82953847Y-44976847D01*
X82923554Y-45001708D01*
X82888995Y-45020180D01*
X82851499Y-45031555D01*
X82806362Y-45036000D01*
X82067638Y-45036000D01*
X82022501Y-45031555D01*
X81985005Y-45020180D01*
X81950446Y-45001708D01*
X81920153Y-44976847D01*
X81895292Y-44946554D01*
X81876820Y-44911995D01*
X81865445Y-44874499D01*
X81861000Y-44829362D01*
X81861000Y-44190638D01*
X81865445Y-44145501D01*
X81876820Y-44108005D01*
X81895292Y-44073446D01*
X81920153Y-44043153D01*
X81950446Y-44018292D01*
X81985005Y-43999820D01*
X82022501Y-43988445D01*
X82067638Y-43984000D01*
X82806362Y-43984000D01*
X82851499Y-43988445D01*
X82851499Y-43988445D01*
G37*
G36*
X87711000Y-44724000D02*
G01*
X86009000Y-44724000D01*
X86009000Y-43922000D01*
X87711000Y-43922000D01*
X87711000Y-44724000D01*
X87711000Y-44724000D01*
G37*
G36*
X117344499Y-43493445D02*
G01*
X117381995Y-43504820D01*
X117416554Y-43523292D01*
X117446847Y-43548153D01*
X117471708Y-43578446D01*
X117490180Y-43613005D01*
X117501555Y-43650501D01*
X117506000Y-43695638D01*
X117506000Y-44434362D01*
X117501555Y-44479499D01*
X117490180Y-44516995D01*
X117471708Y-44551554D01*
X117446847Y-44581847D01*
X117416554Y-44606708D01*
X117381995Y-44625180D01*
X117344499Y-44636555D01*
X117299362Y-44641000D01*
X116660638Y-44641000D01*
X116615501Y-44636555D01*
X116578005Y-44625180D01*
X116543446Y-44606708D01*
X116513153Y-44581847D01*
X116488292Y-44551554D01*
X116469820Y-44516995D01*
X116458445Y-44479499D01*
X116454000Y-44434362D01*
X116454000Y-43695638D01*
X116458445Y-43650501D01*
X116469820Y-43613005D01*
X116488292Y-43578446D01*
X116513153Y-43548153D01*
X116543446Y-43523292D01*
X116578005Y-43504820D01*
X116615501Y-43493445D01*
X116660638Y-43489000D01*
X117299362Y-43489000D01*
X117344499Y-43493445D01*
X117344499Y-43493445D01*
G37*
G36*
X57244442Y-42560518D02*
G01*
X57310627Y-42567037D01*
X57480466Y-42618557D01*
X57636991Y-42702222D01*
X57672729Y-42731552D01*
X57774186Y-42814814D01*
X57857448Y-42916271D01*
X57886778Y-42952009D01*
X57886779Y-42952011D01*
X57943443Y-43058020D01*
X57970443Y-43108534D01*
X58021963Y-43278373D01*
X58039359Y-43455000D01*
X58021963Y-43631627D01*
X57970443Y-43801466D01*
X57886778Y-43957991D01*
X57865433Y-43984000D01*
X57774186Y-44095186D01*
X57672729Y-44178448D01*
X57636991Y-44207778D01*
X57480466Y-44291443D01*
X57310627Y-44342963D01*
X57244442Y-44349482D01*
X57178260Y-44356000D01*
X57089740Y-44356000D01*
X57023558Y-44349482D01*
X56957373Y-44342963D01*
X56787534Y-44291443D01*
X56631009Y-44207778D01*
X56595271Y-44178448D01*
X56493814Y-44095186D01*
X56402567Y-43984000D01*
X56381222Y-43957991D01*
X56297557Y-43801466D01*
X56246037Y-43631627D01*
X56228641Y-43455000D01*
X56246037Y-43278373D01*
X56297557Y-43108534D01*
X56324558Y-43058020D01*
X56381221Y-42952011D01*
X56381222Y-42952009D01*
X56410552Y-42916271D01*
X56493814Y-42814814D01*
X56595271Y-42731552D01*
X56631009Y-42702222D01*
X56787534Y-42618557D01*
X56957373Y-42567037D01*
X57023558Y-42560518D01*
X57089740Y-42554000D01*
X57178260Y-42554000D01*
X57244442Y-42560518D01*
X57244442Y-42560518D01*
G37*
G36*
X54704442Y-42560518D02*
G01*
X54770627Y-42567037D01*
X54940466Y-42618557D01*
X55096991Y-42702222D01*
X55132729Y-42731552D01*
X55234186Y-42814814D01*
X55317448Y-42916271D01*
X55346778Y-42952009D01*
X55346779Y-42952011D01*
X55403443Y-43058020D01*
X55430443Y-43108534D01*
X55481963Y-43278373D01*
X55499359Y-43455000D01*
X55481963Y-43631627D01*
X55430443Y-43801466D01*
X55346778Y-43957991D01*
X55325433Y-43984000D01*
X55234186Y-44095186D01*
X55132729Y-44178448D01*
X55096991Y-44207778D01*
X54940466Y-44291443D01*
X54770627Y-44342963D01*
X54704442Y-44349482D01*
X54638260Y-44356000D01*
X54549740Y-44356000D01*
X54483558Y-44349482D01*
X54417373Y-44342963D01*
X54247534Y-44291443D01*
X54091009Y-44207778D01*
X54055271Y-44178448D01*
X53953814Y-44095186D01*
X53862567Y-43984000D01*
X53841222Y-43957991D01*
X53757557Y-43801466D01*
X53706037Y-43631627D01*
X53688641Y-43455000D01*
X53706037Y-43278373D01*
X53757557Y-43108534D01*
X53784558Y-43058020D01*
X53841221Y-42952011D01*
X53841222Y-42952009D01*
X53870552Y-42916271D01*
X53953814Y-42814814D01*
X54055271Y-42731552D01*
X54091009Y-42702222D01*
X54247534Y-42618557D01*
X54417373Y-42567037D01*
X54483558Y-42560518D01*
X54549740Y-42554000D01*
X54638260Y-42554000D01*
X54704442Y-42560518D01*
X54704442Y-42560518D01*
G37*
G36*
X69897499Y-43042445D02*
G01*
X69934995Y-43053820D01*
X69969554Y-43072292D01*
X69999847Y-43097153D01*
X70024708Y-43127446D01*
X70043180Y-43162005D01*
X70054555Y-43199501D01*
X70059000Y-43244638D01*
X70059000Y-43883362D01*
X70054555Y-43928499D01*
X70043180Y-43965995D01*
X70024708Y-44000554D01*
X69999847Y-44030847D01*
X69969554Y-44055708D01*
X69934995Y-44074180D01*
X69897499Y-44085555D01*
X69852362Y-44090000D01*
X69113638Y-44090000D01*
X69068501Y-44085555D01*
X69031005Y-44074180D01*
X68996446Y-44055708D01*
X68966153Y-44030847D01*
X68941292Y-44000554D01*
X68922820Y-43965995D01*
X68911445Y-43928499D01*
X68907000Y-43883362D01*
X68907000Y-43244638D01*
X68911445Y-43199501D01*
X68922820Y-43162005D01*
X68941292Y-43127446D01*
X68966153Y-43097153D01*
X68996446Y-43072292D01*
X69031005Y-43053820D01*
X69068501Y-43042445D01*
X69113638Y-43038000D01*
X69852362Y-43038000D01*
X69897499Y-43042445D01*
X69897499Y-43042445D01*
G37*
G36*
X71647499Y-43042445D02*
G01*
X71684995Y-43053820D01*
X71719554Y-43072292D01*
X71749847Y-43097153D01*
X71774708Y-43127446D01*
X71793180Y-43162005D01*
X71804555Y-43199501D01*
X71809000Y-43244638D01*
X71809000Y-43883362D01*
X71804555Y-43928499D01*
X71793180Y-43965995D01*
X71774708Y-44000554D01*
X71749847Y-44030847D01*
X71719554Y-44055708D01*
X71684995Y-44074180D01*
X71647499Y-44085555D01*
X71602362Y-44090000D01*
X70863638Y-44090000D01*
X70818501Y-44085555D01*
X70781005Y-44074180D01*
X70746446Y-44055708D01*
X70716153Y-44030847D01*
X70691292Y-44000554D01*
X70672820Y-43965995D01*
X70661445Y-43928499D01*
X70657000Y-43883362D01*
X70657000Y-43244638D01*
X70661445Y-43199501D01*
X70672820Y-43162005D01*
X70691292Y-43127446D01*
X70716153Y-43097153D01*
X70746446Y-43072292D01*
X70781005Y-43053820D01*
X70818501Y-43042445D01*
X70863638Y-43038000D01*
X71602362Y-43038000D01*
X71647499Y-43042445D01*
X71647499Y-43042445D01*
G37*
G36*
X120110443Y-41385519D02*
G01*
X120176627Y-41392037D01*
X120346466Y-41443557D01*
X120502991Y-41527222D01*
X120537064Y-41555185D01*
X120640186Y-41639814D01*
X120723448Y-41741271D01*
X120752778Y-41777009D01*
X120836443Y-41933534D01*
X120887963Y-42103373D01*
X120905359Y-42280000D01*
X120887963Y-42456627D01*
X120836443Y-42626466D01*
X120752778Y-42782991D01*
X120723448Y-42818729D01*
X120640186Y-42920186D01*
X120538729Y-43003448D01*
X120502991Y-43032778D01*
X120346466Y-43116443D01*
X120176627Y-43167963D01*
X120110442Y-43174482D01*
X120044260Y-43181000D01*
X119955740Y-43181000D01*
X119889557Y-43174481D01*
X119823373Y-43167963D01*
X119653534Y-43116443D01*
X119497009Y-43032778D01*
X119461271Y-43003448D01*
X119359814Y-42920186D01*
X119276552Y-42818729D01*
X119247222Y-42782991D01*
X119163557Y-42626466D01*
X119112037Y-42456627D01*
X119094641Y-42280000D01*
X119112037Y-42103373D01*
X119163557Y-41933534D01*
X119247222Y-41777009D01*
X119276552Y-41741271D01*
X119359814Y-41639814D01*
X119462936Y-41555185D01*
X119497009Y-41527222D01*
X119653534Y-41443557D01*
X119823373Y-41392037D01*
X119889557Y-41385519D01*
X119955740Y-41379000D01*
X120044260Y-41379000D01*
X120110443Y-41385519D01*
X120110443Y-41385519D01*
G37*
G36*
X54704442Y-40020518D02*
G01*
X54770627Y-40027037D01*
X54940466Y-40078557D01*
X54940468Y-40078558D01*
X55018729Y-40120390D01*
X55096991Y-40162222D01*
X55132729Y-40191552D01*
X55234186Y-40274814D01*
X55317448Y-40376271D01*
X55346778Y-40412009D01*
X55430443Y-40568534D01*
X55481963Y-40738373D01*
X55499359Y-40915000D01*
X55481963Y-41091627D01*
X55430443Y-41261466D01*
X55346778Y-41417991D01*
X55317448Y-41453729D01*
X55234186Y-41555186D01*
X55132729Y-41638448D01*
X55096991Y-41667778D01*
X54940466Y-41751443D01*
X54770627Y-41802963D01*
X54704443Y-41809481D01*
X54638260Y-41816000D01*
X54549740Y-41816000D01*
X54483557Y-41809481D01*
X54417373Y-41802963D01*
X54247534Y-41751443D01*
X54091009Y-41667778D01*
X54055271Y-41638448D01*
X53953814Y-41555186D01*
X53870552Y-41453729D01*
X53841222Y-41417991D01*
X53757557Y-41261466D01*
X53706037Y-41091627D01*
X53688641Y-40915000D01*
X53706037Y-40738373D01*
X53757557Y-40568534D01*
X53841222Y-40412009D01*
X53870552Y-40376271D01*
X53953814Y-40274814D01*
X54055271Y-40191552D01*
X54091009Y-40162222D01*
X54169271Y-40120390D01*
X54247532Y-40078558D01*
X54247534Y-40078557D01*
X54417373Y-40027037D01*
X54483558Y-40020518D01*
X54549740Y-40014000D01*
X54638260Y-40014000D01*
X54704442Y-40020518D01*
X54704442Y-40020518D01*
G37*
G36*
X57244442Y-40020518D02*
G01*
X57310627Y-40027037D01*
X57480466Y-40078557D01*
X57480468Y-40078558D01*
X57558729Y-40120390D01*
X57636991Y-40162222D01*
X57672729Y-40191552D01*
X57774186Y-40274814D01*
X57857448Y-40376271D01*
X57886778Y-40412009D01*
X57970443Y-40568534D01*
X58021963Y-40738373D01*
X58039359Y-40915000D01*
X58021963Y-41091627D01*
X57970443Y-41261466D01*
X57886778Y-41417991D01*
X57857448Y-41453729D01*
X57774186Y-41555186D01*
X57672729Y-41638448D01*
X57636991Y-41667778D01*
X57480466Y-41751443D01*
X57310627Y-41802963D01*
X57244443Y-41809481D01*
X57178260Y-41816000D01*
X57089740Y-41816000D01*
X57023557Y-41809481D01*
X56957373Y-41802963D01*
X56787534Y-41751443D01*
X56631009Y-41667778D01*
X56595271Y-41638448D01*
X56493814Y-41555186D01*
X56410552Y-41453729D01*
X56381222Y-41417991D01*
X56297557Y-41261466D01*
X56246037Y-41091627D01*
X56228641Y-40915000D01*
X56246037Y-40738373D01*
X56297557Y-40568534D01*
X56381222Y-40412009D01*
X56410552Y-40376271D01*
X56493814Y-40274814D01*
X56595271Y-40191552D01*
X56631009Y-40162222D01*
X56709271Y-40120390D01*
X56787532Y-40078558D01*
X56787534Y-40078557D01*
X56957373Y-40027037D01*
X57023558Y-40020518D01*
X57089740Y-40014000D01*
X57178260Y-40014000D01*
X57244442Y-40020518D01*
X57244442Y-40020518D01*
G37*
G36*
X117344499Y-39893445D02*
G01*
X117381995Y-39904820D01*
X117416554Y-39923292D01*
X117446847Y-39948153D01*
X117471708Y-39978446D01*
X117490180Y-40013005D01*
X117501555Y-40050501D01*
X117506000Y-40095638D01*
X117506000Y-40834362D01*
X117501555Y-40879499D01*
X117490180Y-40916995D01*
X117471708Y-40951554D01*
X117446847Y-40981847D01*
X117416554Y-41006708D01*
X117381995Y-41025180D01*
X117344499Y-41036555D01*
X117299362Y-41041000D01*
X116660638Y-41041000D01*
X116615501Y-41036555D01*
X116578005Y-41025180D01*
X116543446Y-41006708D01*
X116513153Y-40981847D01*
X116488292Y-40951554D01*
X116469820Y-40916995D01*
X116458445Y-40879499D01*
X116454000Y-40834362D01*
X116454000Y-40095638D01*
X116458445Y-40050501D01*
X116469820Y-40013005D01*
X116488292Y-39978446D01*
X116513153Y-39948153D01*
X116543446Y-39923292D01*
X116578005Y-39904820D01*
X116615501Y-39893445D01*
X116660638Y-39889000D01*
X117299362Y-39889000D01*
X117344499Y-39893445D01*
X117344499Y-39893445D01*
G37*
G36*
X120901000Y-40641000D02*
G01*
X119099000Y-40641000D01*
X119099000Y-38839000D01*
X120901000Y-38839000D01*
X120901000Y-40641000D01*
X120901000Y-40641000D01*
G37*
G36*
X117344499Y-38143445D02*
G01*
X117381995Y-38154820D01*
X117416554Y-38173292D01*
X117446847Y-38198153D01*
X117471708Y-38228446D01*
X117490180Y-38263005D01*
X117501555Y-38300501D01*
X117506000Y-38345638D01*
X117506000Y-39084362D01*
X117501555Y-39129499D01*
X117490180Y-39166995D01*
X117471708Y-39201554D01*
X117446847Y-39231847D01*
X117416554Y-39256708D01*
X117381995Y-39275180D01*
X117344499Y-39286555D01*
X117299362Y-39291000D01*
X116660638Y-39291000D01*
X116615501Y-39286555D01*
X116578005Y-39275180D01*
X116543446Y-39256708D01*
X116513153Y-39231847D01*
X116488292Y-39201554D01*
X116469820Y-39166995D01*
X116458445Y-39129499D01*
X116454000Y-39084362D01*
X116454000Y-38345638D01*
X116458445Y-38300501D01*
X116469820Y-38263005D01*
X116488292Y-38228446D01*
X116513153Y-38198153D01*
X116543446Y-38173292D01*
X116578005Y-38154820D01*
X116615501Y-38143445D01*
X116660638Y-38139000D01*
X117299362Y-38139000D01*
X117344499Y-38143445D01*
X117344499Y-38143445D01*
G37*
G36*
X57244442Y-37480518D02*
G01*
X57310627Y-37487037D01*
X57480466Y-37538557D01*
X57636991Y-37622222D01*
X57672729Y-37651552D01*
X57774186Y-37734814D01*
X57857448Y-37836271D01*
X57886778Y-37872009D01*
X57970443Y-38028534D01*
X58021963Y-38198373D01*
X58039359Y-38375000D01*
X58021963Y-38551627D01*
X57970443Y-38721466D01*
X57886778Y-38877991D01*
X57857448Y-38913729D01*
X57774186Y-39015186D01*
X57672729Y-39098448D01*
X57636991Y-39127778D01*
X57480466Y-39211443D01*
X57310627Y-39262963D01*
X57244442Y-39269482D01*
X57178260Y-39276000D01*
X57089740Y-39276000D01*
X57023558Y-39269482D01*
X56957373Y-39262963D01*
X56787534Y-39211443D01*
X56631009Y-39127778D01*
X56595271Y-39098448D01*
X56493814Y-39015186D01*
X56410552Y-38913729D01*
X56381222Y-38877991D01*
X56297557Y-38721466D01*
X56246037Y-38551627D01*
X56228641Y-38375000D01*
X56246037Y-38198373D01*
X56297557Y-38028534D01*
X56381222Y-37872009D01*
X56410552Y-37836271D01*
X56493814Y-37734814D01*
X56595271Y-37651552D01*
X56631009Y-37622222D01*
X56787534Y-37538557D01*
X56957373Y-37487037D01*
X57023558Y-37480518D01*
X57089740Y-37474000D01*
X57178260Y-37474000D01*
X57244442Y-37480518D01*
X57244442Y-37480518D01*
G37*
G36*
X55495000Y-39276000D02*
G01*
X53693000Y-39276000D01*
X53693000Y-37474000D01*
X55495000Y-37474000D01*
X55495000Y-39276000D01*
X55495000Y-39276000D01*
G37*
G36*
X109949499Y-32498445D02*
G01*
X109986995Y-32509820D01*
X110021554Y-32528292D01*
X110051847Y-32553153D01*
X110076708Y-32583446D01*
X110095180Y-32618005D01*
X110106555Y-32655501D01*
X110111000Y-32700638D01*
X110111000Y-33339362D01*
X110106555Y-33384499D01*
X110095180Y-33421995D01*
X110076708Y-33456554D01*
X110051847Y-33486847D01*
X110021554Y-33511708D01*
X109986995Y-33530180D01*
X109949499Y-33541555D01*
X109904362Y-33546000D01*
X109165638Y-33546000D01*
X109120501Y-33541555D01*
X109083005Y-33530180D01*
X109048446Y-33511708D01*
X109018153Y-33486847D01*
X108993292Y-33456554D01*
X108974820Y-33421995D01*
X108963445Y-33384499D01*
X108959000Y-33339362D01*
X108959000Y-32700638D01*
X108963445Y-32655501D01*
X108974820Y-32618005D01*
X108993292Y-32583446D01*
X109018153Y-32553153D01*
X109048446Y-32528292D01*
X109083005Y-32509820D01*
X109120501Y-32498445D01*
X109165638Y-32494000D01*
X109904362Y-32494000D01*
X109949499Y-32498445D01*
X109949499Y-32498445D01*
G37*
G36*
X92859499Y-32498445D02*
G01*
X92896995Y-32509820D01*
X92931554Y-32528292D01*
X92961847Y-32553153D01*
X92986708Y-32583446D01*
X93005180Y-32618005D01*
X93016555Y-32655501D01*
X93021000Y-32700638D01*
X93021000Y-33339362D01*
X93016555Y-33384499D01*
X93005180Y-33421995D01*
X92986708Y-33456554D01*
X92961847Y-33486847D01*
X92931554Y-33511708D01*
X92896995Y-33530180D01*
X92859499Y-33541555D01*
X92814362Y-33546000D01*
X92075638Y-33546000D01*
X92030501Y-33541555D01*
X91993005Y-33530180D01*
X91958446Y-33511708D01*
X91928153Y-33486847D01*
X91903292Y-33456554D01*
X91884820Y-33421995D01*
X91873445Y-33384499D01*
X91869000Y-33339362D01*
X91869000Y-32700638D01*
X91873445Y-32655501D01*
X91884820Y-32618005D01*
X91903292Y-32583446D01*
X91928153Y-32553153D01*
X91958446Y-32528292D01*
X91993005Y-32509820D01*
X92030501Y-32498445D01*
X92075638Y-32494000D01*
X92814362Y-32494000D01*
X92859499Y-32498445D01*
X92859499Y-32498445D01*
G37*
G36*
X91109499Y-32498445D02*
G01*
X91146995Y-32509820D01*
X91181554Y-32528292D01*
X91211847Y-32553153D01*
X91236708Y-32583446D01*
X91255180Y-32618005D01*
X91266555Y-32655501D01*
X91271000Y-32700638D01*
X91271000Y-33339362D01*
X91266555Y-33384499D01*
X91255180Y-33421995D01*
X91236708Y-33456554D01*
X91211847Y-33486847D01*
X91181554Y-33511708D01*
X91146995Y-33530180D01*
X91109499Y-33541555D01*
X91064362Y-33546000D01*
X90325638Y-33546000D01*
X90280501Y-33541555D01*
X90243005Y-33530180D01*
X90208446Y-33511708D01*
X90178153Y-33486847D01*
X90153292Y-33456554D01*
X90134820Y-33421995D01*
X90123445Y-33384499D01*
X90119000Y-33339362D01*
X90119000Y-32700638D01*
X90123445Y-32655501D01*
X90134820Y-32618005D01*
X90153292Y-32583446D01*
X90178153Y-32553153D01*
X90208446Y-32528292D01*
X90243005Y-32509820D01*
X90280501Y-32498445D01*
X90325638Y-32494000D01*
X91064362Y-32494000D01*
X91109499Y-32498445D01*
X91109499Y-32498445D01*
G37*
G36*
X96459499Y-32498445D02*
G01*
X96496995Y-32509820D01*
X96531554Y-32528292D01*
X96561847Y-32553153D01*
X96586708Y-32583446D01*
X96605180Y-32618005D01*
X96616555Y-32655501D01*
X96621000Y-32700638D01*
X96621000Y-33339362D01*
X96616555Y-33384499D01*
X96605180Y-33421995D01*
X96586708Y-33456554D01*
X96561847Y-33486847D01*
X96531554Y-33511708D01*
X96496995Y-33530180D01*
X96459499Y-33541555D01*
X96414362Y-33546000D01*
X95675638Y-33546000D01*
X95630501Y-33541555D01*
X95593005Y-33530180D01*
X95558446Y-33511708D01*
X95528153Y-33486847D01*
X95503292Y-33456554D01*
X95484820Y-33421995D01*
X95473445Y-33384499D01*
X95469000Y-33339362D01*
X95469000Y-32700638D01*
X95473445Y-32655501D01*
X95484820Y-32618005D01*
X95503292Y-32583446D01*
X95528153Y-32553153D01*
X95558446Y-32528292D01*
X95593005Y-32509820D01*
X95630501Y-32498445D01*
X95675638Y-32494000D01*
X96414362Y-32494000D01*
X96459499Y-32498445D01*
X96459499Y-32498445D01*
G37*
G36*
X98209499Y-32498445D02*
G01*
X98246995Y-32509820D01*
X98281554Y-32528292D01*
X98311847Y-32553153D01*
X98336708Y-32583446D01*
X98355180Y-32618005D01*
X98366555Y-32655501D01*
X98371000Y-32700638D01*
X98371000Y-33339362D01*
X98366555Y-33384499D01*
X98355180Y-33421995D01*
X98336708Y-33456554D01*
X98311847Y-33486847D01*
X98281554Y-33511708D01*
X98246995Y-33530180D01*
X98209499Y-33541555D01*
X98164362Y-33546000D01*
X97425638Y-33546000D01*
X97380501Y-33541555D01*
X97343005Y-33530180D01*
X97308446Y-33511708D01*
X97278153Y-33486847D01*
X97253292Y-33456554D01*
X97234820Y-33421995D01*
X97223445Y-33384499D01*
X97219000Y-33339362D01*
X97219000Y-32700638D01*
X97223445Y-32655501D01*
X97234820Y-32618005D01*
X97253292Y-32583446D01*
X97278153Y-32553153D01*
X97308446Y-32528292D01*
X97343005Y-32509820D01*
X97380501Y-32498445D01*
X97425638Y-32494000D01*
X98164362Y-32494000D01*
X98209499Y-32498445D01*
X98209499Y-32498445D01*
G37*
G36*
X111699499Y-32498445D02*
G01*
X111736995Y-32509820D01*
X111771554Y-32528292D01*
X111801847Y-32553153D01*
X111826708Y-32583446D01*
X111845180Y-32618005D01*
X111856555Y-32655501D01*
X111861000Y-32700638D01*
X111861000Y-33339362D01*
X111856555Y-33384499D01*
X111845180Y-33421995D01*
X111826708Y-33456554D01*
X111801847Y-33486847D01*
X111771554Y-33511708D01*
X111736995Y-33530180D01*
X111699499Y-33541555D01*
X111654362Y-33546000D01*
X110915638Y-33546000D01*
X110870501Y-33541555D01*
X110833005Y-33530180D01*
X110798446Y-33511708D01*
X110768153Y-33486847D01*
X110743292Y-33456554D01*
X110724820Y-33421995D01*
X110713445Y-33384499D01*
X110709000Y-33339362D01*
X110709000Y-32700638D01*
X110713445Y-32655501D01*
X110724820Y-32618005D01*
X110743292Y-32583446D01*
X110768153Y-32553153D01*
X110798446Y-32528292D01*
X110833005Y-32509820D01*
X110870501Y-32498445D01*
X110915638Y-32494000D01*
X111654362Y-32494000D01*
X111699499Y-32498445D01*
X111699499Y-32498445D01*
G37*
G36*
X104599499Y-32498445D02*
G01*
X104636995Y-32509820D01*
X104671554Y-32528292D01*
X104701847Y-32553153D01*
X104726708Y-32583446D01*
X104745180Y-32618005D01*
X104756555Y-32655501D01*
X104761000Y-32700638D01*
X104761000Y-33339362D01*
X104756555Y-33384499D01*
X104745180Y-33421995D01*
X104726708Y-33456554D01*
X104701847Y-33486847D01*
X104671554Y-33511708D01*
X104636995Y-33530180D01*
X104599499Y-33541555D01*
X104554362Y-33546000D01*
X103815638Y-33546000D01*
X103770501Y-33541555D01*
X103733005Y-33530180D01*
X103698446Y-33511708D01*
X103668153Y-33486847D01*
X103643292Y-33456554D01*
X103624820Y-33421995D01*
X103613445Y-33384499D01*
X103609000Y-33339362D01*
X103609000Y-32700638D01*
X103613445Y-32655501D01*
X103624820Y-32618005D01*
X103643292Y-32583446D01*
X103668153Y-32553153D01*
X103698446Y-32528292D01*
X103733005Y-32509820D01*
X103770501Y-32498445D01*
X103815638Y-32494000D01*
X104554362Y-32494000D01*
X104599499Y-32498445D01*
X104599499Y-32498445D01*
G37*
G36*
X106349499Y-32498445D02*
G01*
X106386995Y-32509820D01*
X106421554Y-32528292D01*
X106451847Y-32553153D01*
X106476708Y-32583446D01*
X106495180Y-32618005D01*
X106506555Y-32655501D01*
X106511000Y-32700638D01*
X106511000Y-33339362D01*
X106506555Y-33384499D01*
X106495180Y-33421995D01*
X106476708Y-33456554D01*
X106451847Y-33486847D01*
X106421554Y-33511708D01*
X106386995Y-33530180D01*
X106349499Y-33541555D01*
X106304362Y-33546000D01*
X105565638Y-33546000D01*
X105520501Y-33541555D01*
X105483005Y-33530180D01*
X105448446Y-33511708D01*
X105418153Y-33486847D01*
X105393292Y-33456554D01*
X105374820Y-33421995D01*
X105363445Y-33384499D01*
X105359000Y-33339362D01*
X105359000Y-32700638D01*
X105363445Y-32655501D01*
X105374820Y-32618005D01*
X105393292Y-32583446D01*
X105418153Y-32553153D01*
X105448446Y-32528292D01*
X105483005Y-32509820D01*
X105520501Y-32498445D01*
X105565638Y-32494000D01*
X106304362Y-32494000D01*
X106349499Y-32498445D01*
X106349499Y-32498445D01*
G37*
G36*
X120846189Y-27210483D02*
G01*
X120846192Y-27210484D01*
X120846191Y-27210484D01*
X121374139Y-27429167D01*
X121849280Y-27746646D01*
X122253354Y-28150720D01*
X122570833Y-28625861D01*
X122570834Y-28625863D01*
X122789517Y-29153811D01*
X122901000Y-29714275D01*
X122901000Y-30285725D01*
X122789517Y-30846189D01*
X122570834Y-31374137D01*
X122570833Y-31374139D01*
X122253354Y-31849280D01*
X121849280Y-32253354D01*
X121374139Y-32570833D01*
X121374138Y-32570834D01*
X121374137Y-32570834D01*
X120846189Y-32789517D01*
X120285725Y-32901000D01*
X119714275Y-32901000D01*
X119153811Y-32789517D01*
X118625863Y-32570834D01*
X118625862Y-32570834D01*
X118625861Y-32570833D01*
X118150720Y-32253354D01*
X117746646Y-31849280D01*
X117429167Y-31374139D01*
X117429166Y-31374137D01*
X117210483Y-30846189D01*
X117099000Y-30285725D01*
X117099000Y-29714275D01*
X117210483Y-29153811D01*
X117429166Y-28625863D01*
X117429167Y-28625861D01*
X117746646Y-28150720D01*
X118150720Y-27746646D01*
X118625861Y-27429167D01*
X119153809Y-27210484D01*
X119153808Y-27210484D01*
X119153811Y-27210483D01*
X119714275Y-27099000D01*
X120285725Y-27099000D01*
X120846189Y-27210483D01*
X120846189Y-27210483D01*
G37*
G36*
X55846189Y-27210483D02*
G01*
X55846192Y-27210484D01*
X55846191Y-27210484D01*
X56374139Y-27429167D01*
X56849280Y-27746646D01*
X57253354Y-28150720D01*
X57570833Y-28625861D01*
X57570834Y-28625863D01*
X57789517Y-29153811D01*
X57901000Y-29714275D01*
X57901000Y-30285725D01*
X57789517Y-30846189D01*
X57570834Y-31374137D01*
X57570833Y-31374139D01*
X57253354Y-31849280D01*
X56849280Y-32253354D01*
X56374139Y-32570833D01*
X56374138Y-32570834D01*
X56374137Y-32570834D01*
X55846189Y-32789517D01*
X55285725Y-32901000D01*
X54714275Y-32901000D01*
X54153811Y-32789517D01*
X53625863Y-32570834D01*
X53625862Y-32570834D01*
X53625861Y-32570833D01*
X53150720Y-32253354D01*
X52746646Y-31849280D01*
X52429167Y-31374139D01*
X52429166Y-31374137D01*
X52210483Y-30846189D01*
X52099000Y-30285725D01*
X52099000Y-29714275D01*
X52210483Y-29153811D01*
X52429166Y-28625863D01*
X52429167Y-28625861D01*
X52746646Y-28150720D01*
X53150720Y-27746646D01*
X53625861Y-27429167D01*
X54153809Y-27210484D01*
X54153808Y-27210484D01*
X54153811Y-27210483D01*
X54714275Y-27099000D01*
X55285725Y-27099000D01*
X55846189Y-27210483D01*
X55846189Y-27210483D01*
G37*
G36*
X70691000Y-30901000D02*
G01*
X68889000Y-30901000D01*
X68889000Y-29099000D01*
X70691000Y-29099000D01*
X70691000Y-30901000D01*
X70691000Y-30901000D01*
G37*
G36*
X78310442Y-29105518D02*
G01*
X78376627Y-29112037D01*
X78546466Y-29163557D01*
X78702991Y-29247222D01*
X78738729Y-29276552D01*
X78840186Y-29359814D01*
X78923448Y-29461271D01*
X78952778Y-29497009D01*
X79036443Y-29653534D01*
X79087963Y-29823373D01*
X79105359Y-30000000D01*
X79087963Y-30176627D01*
X79036443Y-30346466D01*
X78952778Y-30502991D01*
X78923448Y-30538729D01*
X78840186Y-30640186D01*
X78738729Y-30723448D01*
X78702991Y-30752778D01*
X78546466Y-30836443D01*
X78376627Y-30887963D01*
X78310442Y-30894482D01*
X78244260Y-30901000D01*
X78155740Y-30901000D01*
X78089558Y-30894482D01*
X78023373Y-30887963D01*
X77853534Y-30836443D01*
X77697009Y-30752778D01*
X77661271Y-30723448D01*
X77559814Y-30640186D01*
X77476552Y-30538729D01*
X77447222Y-30502991D01*
X77363557Y-30346466D01*
X77312037Y-30176627D01*
X77294641Y-30000000D01*
X77312037Y-29823373D01*
X77363557Y-29653534D01*
X77447222Y-29497009D01*
X77476552Y-29461271D01*
X77559814Y-29359814D01*
X77661271Y-29276552D01*
X77697009Y-29247222D01*
X77853534Y-29163557D01*
X78023373Y-29112037D01*
X78089558Y-29105518D01*
X78155740Y-29099000D01*
X78244260Y-29099000D01*
X78310442Y-29105518D01*
X78310442Y-29105518D01*
G37*
G36*
X80850442Y-29105518D02*
G01*
X80916627Y-29112037D01*
X81086466Y-29163557D01*
X81242991Y-29247222D01*
X81278729Y-29276552D01*
X81380186Y-29359814D01*
X81463448Y-29461271D01*
X81492778Y-29497009D01*
X81576443Y-29653534D01*
X81627963Y-29823373D01*
X81645359Y-30000000D01*
X81627963Y-30176627D01*
X81576443Y-30346466D01*
X81492778Y-30502991D01*
X81463448Y-30538729D01*
X81380186Y-30640186D01*
X81278729Y-30723448D01*
X81242991Y-30752778D01*
X81086466Y-30836443D01*
X80916627Y-30887963D01*
X80850442Y-30894482D01*
X80784260Y-30901000D01*
X80695740Y-30901000D01*
X80629558Y-30894482D01*
X80563373Y-30887963D01*
X80393534Y-30836443D01*
X80237009Y-30752778D01*
X80201271Y-30723448D01*
X80099814Y-30640186D01*
X80016552Y-30538729D01*
X79987222Y-30502991D01*
X79903557Y-30346466D01*
X79852037Y-30176627D01*
X79834641Y-30000000D01*
X79852037Y-29823373D01*
X79903557Y-29653534D01*
X79987222Y-29497009D01*
X80016552Y-29461271D01*
X80099814Y-29359814D01*
X80201271Y-29276552D01*
X80237009Y-29247222D01*
X80393534Y-29163557D01*
X80563373Y-29112037D01*
X80629558Y-29105518D01*
X80695740Y-29099000D01*
X80784260Y-29099000D01*
X80850442Y-29105518D01*
X80850442Y-29105518D01*
G37*
G36*
X84181000Y-30901000D02*
G01*
X82379000Y-30901000D01*
X82379000Y-29099000D01*
X84181000Y-29099000D01*
X84181000Y-30901000D01*
X84181000Y-30901000D01*
G37*
G36*
X91800442Y-29105518D02*
G01*
X91866627Y-29112037D01*
X92036466Y-29163557D01*
X92192991Y-29247222D01*
X92228729Y-29276552D01*
X92330186Y-29359814D01*
X92413448Y-29461271D01*
X92442778Y-29497009D01*
X92526443Y-29653534D01*
X92577963Y-29823373D01*
X92595359Y-30000000D01*
X92577963Y-30176627D01*
X92526443Y-30346466D01*
X92442778Y-30502991D01*
X92413448Y-30538729D01*
X92330186Y-30640186D01*
X92228729Y-30723448D01*
X92192991Y-30752778D01*
X92036466Y-30836443D01*
X91866627Y-30887963D01*
X91800442Y-30894482D01*
X91734260Y-30901000D01*
X91645740Y-30901000D01*
X91579558Y-30894482D01*
X91513373Y-30887963D01*
X91343534Y-30836443D01*
X91187009Y-30752778D01*
X91151271Y-30723448D01*
X91049814Y-30640186D01*
X90966552Y-30538729D01*
X90937222Y-30502991D01*
X90853557Y-30346466D01*
X90802037Y-30176627D01*
X90784641Y-30000000D01*
X90802037Y-29823373D01*
X90853557Y-29653534D01*
X90937222Y-29497009D01*
X90966552Y-29461271D01*
X91049814Y-29359814D01*
X91151271Y-29276552D01*
X91187009Y-29247222D01*
X91343534Y-29163557D01*
X91513373Y-29112037D01*
X91579558Y-29105518D01*
X91645740Y-29099000D01*
X91734260Y-29099000D01*
X91800442Y-29105518D01*
X91800442Y-29105518D01*
G37*
G36*
X67360442Y-29105518D02*
G01*
X67426627Y-29112037D01*
X67596466Y-29163557D01*
X67752991Y-29247222D01*
X67788729Y-29276552D01*
X67890186Y-29359814D01*
X67973448Y-29461271D01*
X68002778Y-29497009D01*
X68086443Y-29653534D01*
X68137963Y-29823373D01*
X68155359Y-30000000D01*
X68137963Y-30176627D01*
X68086443Y-30346466D01*
X68002778Y-30502991D01*
X67973448Y-30538729D01*
X67890186Y-30640186D01*
X67788729Y-30723448D01*
X67752991Y-30752778D01*
X67596466Y-30836443D01*
X67426627Y-30887963D01*
X67360442Y-30894482D01*
X67294260Y-30901000D01*
X67205740Y-30901000D01*
X67139558Y-30894482D01*
X67073373Y-30887963D01*
X66903534Y-30836443D01*
X66747009Y-30752778D01*
X66711271Y-30723448D01*
X66609814Y-30640186D01*
X66526552Y-30538729D01*
X66497222Y-30502991D01*
X66413557Y-30346466D01*
X66362037Y-30176627D01*
X66344641Y-30000000D01*
X66362037Y-29823373D01*
X66413557Y-29653534D01*
X66497222Y-29497009D01*
X66526552Y-29461271D01*
X66609814Y-29359814D01*
X66711271Y-29276552D01*
X66747009Y-29247222D01*
X66903534Y-29163557D01*
X67073373Y-29112037D01*
X67139558Y-29105518D01*
X67205740Y-29099000D01*
X67294260Y-29099000D01*
X67360442Y-29105518D01*
X67360442Y-29105518D01*
G37*
G36*
X97671000Y-30901000D02*
G01*
X95869000Y-30901000D01*
X95869000Y-29099000D01*
X97671000Y-29099000D01*
X97671000Y-30901000D01*
X97671000Y-30901000D01*
G37*
G36*
X105290442Y-29105518D02*
G01*
X105356627Y-29112037D01*
X105526466Y-29163557D01*
X105682991Y-29247222D01*
X105718729Y-29276552D01*
X105820186Y-29359814D01*
X105903448Y-29461271D01*
X105932778Y-29497009D01*
X106016443Y-29653534D01*
X106067963Y-29823373D01*
X106085359Y-30000000D01*
X106067963Y-30176627D01*
X106016443Y-30346466D01*
X105932778Y-30502991D01*
X105903448Y-30538729D01*
X105820186Y-30640186D01*
X105718729Y-30723448D01*
X105682991Y-30752778D01*
X105526466Y-30836443D01*
X105356627Y-30887963D01*
X105290442Y-30894482D01*
X105224260Y-30901000D01*
X105135740Y-30901000D01*
X105069558Y-30894482D01*
X105003373Y-30887963D01*
X104833534Y-30836443D01*
X104677009Y-30752778D01*
X104641271Y-30723448D01*
X104539814Y-30640186D01*
X104456552Y-30538729D01*
X104427222Y-30502991D01*
X104343557Y-30346466D01*
X104292037Y-30176627D01*
X104274641Y-30000000D01*
X104292037Y-29823373D01*
X104343557Y-29653534D01*
X104427222Y-29497009D01*
X104456552Y-29461271D01*
X104539814Y-29359814D01*
X104641271Y-29276552D01*
X104677009Y-29247222D01*
X104833534Y-29163557D01*
X105003373Y-29112037D01*
X105069558Y-29105518D01*
X105135740Y-29099000D01*
X105224260Y-29099000D01*
X105290442Y-29105518D01*
X105290442Y-29105518D01*
G37*
G36*
X107830442Y-29105518D02*
G01*
X107896627Y-29112037D01*
X108066466Y-29163557D01*
X108222991Y-29247222D01*
X108258729Y-29276552D01*
X108360186Y-29359814D01*
X108443448Y-29461271D01*
X108472778Y-29497009D01*
X108556443Y-29653534D01*
X108607963Y-29823373D01*
X108625359Y-30000000D01*
X108607963Y-30176627D01*
X108556443Y-30346466D01*
X108472778Y-30502991D01*
X108443448Y-30538729D01*
X108360186Y-30640186D01*
X108258729Y-30723448D01*
X108222991Y-30752778D01*
X108066466Y-30836443D01*
X107896627Y-30887963D01*
X107830442Y-30894482D01*
X107764260Y-30901000D01*
X107675740Y-30901000D01*
X107609558Y-30894482D01*
X107543373Y-30887963D01*
X107373534Y-30836443D01*
X107217009Y-30752778D01*
X107181271Y-30723448D01*
X107079814Y-30640186D01*
X106996552Y-30538729D01*
X106967222Y-30502991D01*
X106883557Y-30346466D01*
X106832037Y-30176627D01*
X106814641Y-30000000D01*
X106832037Y-29823373D01*
X106883557Y-29653534D01*
X106967222Y-29497009D01*
X106996552Y-29461271D01*
X107079814Y-29359814D01*
X107181271Y-29276552D01*
X107217009Y-29247222D01*
X107373534Y-29163557D01*
X107543373Y-29112037D01*
X107609558Y-29105518D01*
X107675740Y-29099000D01*
X107764260Y-29099000D01*
X107830442Y-29105518D01*
X107830442Y-29105518D01*
G37*
G36*
X111161000Y-30901000D02*
G01*
X109359000Y-30901000D01*
X109359000Y-29099000D01*
X111161000Y-29099000D01*
X111161000Y-30901000D01*
X111161000Y-30901000D01*
G37*
G36*
X64820442Y-29105518D02*
G01*
X64886627Y-29112037D01*
X65056466Y-29163557D01*
X65212991Y-29247222D01*
X65248729Y-29276552D01*
X65350186Y-29359814D01*
X65433448Y-29461271D01*
X65462778Y-29497009D01*
X65546443Y-29653534D01*
X65597963Y-29823373D01*
X65615359Y-30000000D01*
X65597963Y-30176627D01*
X65546443Y-30346466D01*
X65462778Y-30502991D01*
X65433448Y-30538729D01*
X65350186Y-30640186D01*
X65248729Y-30723448D01*
X65212991Y-30752778D01*
X65056466Y-30836443D01*
X64886627Y-30887963D01*
X64820442Y-30894482D01*
X64754260Y-30901000D01*
X64665740Y-30901000D01*
X64599558Y-30894482D01*
X64533373Y-30887963D01*
X64363534Y-30836443D01*
X64207009Y-30752778D01*
X64171271Y-30723448D01*
X64069814Y-30640186D01*
X63986552Y-30538729D01*
X63957222Y-30502991D01*
X63873557Y-30346466D01*
X63822037Y-30176627D01*
X63804641Y-30000000D01*
X63822037Y-29823373D01*
X63873557Y-29653534D01*
X63957222Y-29497009D01*
X63986552Y-29461271D01*
X64069814Y-29359814D01*
X64171271Y-29276552D01*
X64207009Y-29247222D01*
X64363534Y-29163557D01*
X64533373Y-29112037D01*
X64599558Y-29105518D01*
X64665740Y-29099000D01*
X64754260Y-29099000D01*
X64820442Y-29105518D01*
X64820442Y-29105518D01*
G37*
G36*
X94340442Y-29105518D02*
G01*
X94406627Y-29112037D01*
X94576466Y-29163557D01*
X94732991Y-29247222D01*
X94768729Y-29276552D01*
X94870186Y-29359814D01*
X94953448Y-29461271D01*
X94982778Y-29497009D01*
X95066443Y-29653534D01*
X95117963Y-29823373D01*
X95135359Y-30000000D01*
X95117963Y-30176627D01*
X95066443Y-30346466D01*
X94982778Y-30502991D01*
X94953448Y-30538729D01*
X94870186Y-30640186D01*
X94768729Y-30723448D01*
X94732991Y-30752778D01*
X94576466Y-30836443D01*
X94406627Y-30887963D01*
X94340442Y-30894482D01*
X94274260Y-30901000D01*
X94185740Y-30901000D01*
X94119558Y-30894482D01*
X94053373Y-30887963D01*
X93883534Y-30836443D01*
X93727009Y-30752778D01*
X93691271Y-30723448D01*
X93589814Y-30640186D01*
X93506552Y-30538729D01*
X93477222Y-30502991D01*
X93393557Y-30346466D01*
X93342037Y-30176627D01*
X93324641Y-30000000D01*
X93342037Y-29823373D01*
X93393557Y-29653534D01*
X93477222Y-29497009D01*
X93506552Y-29461271D01*
X93589814Y-29359814D01*
X93691271Y-29276552D01*
X93727009Y-29247222D01*
X93883534Y-29163557D01*
X94053373Y-29112037D01*
X94119558Y-29105518D01*
X94185740Y-29099000D01*
X94274260Y-29099000D01*
X94340442Y-29105518D01*
X94340442Y-29105518D01*
G37*
M02*
