G04 #@! TF.GenerationSoftware,KiCad,Pcbnew,5.1.9-73d0e3b20d~88~ubuntu20.04.1*
G04 #@! TF.CreationDate,2020-12-30T12:03:23-07:00*
G04 #@! TF.ProjectId,Motherboard,4d6f7468-6572-4626-9f61-72642e6b6963,rev?*
G04 #@! TF.SameCoordinates,Original*
G04 #@! TF.FileFunction,Soldermask,Top*
G04 #@! TF.FilePolarity,Negative*
%FSLAX46Y46*%
G04 Gerber Fmt 4.6, Leading zero omitted, Abs format (unit mm)*
G04 Created by KiCad (PCBNEW 5.1.9-73d0e3b20d~88~ubuntu20.04.1) date 2020-12-30 12:03:23*
%MOMM*%
%LPD*%
G01*
G04 APERTURE LIST*
%ADD10C,5.802000*%
%ADD11O,1.802000X1.802000*%
%ADD12C,2.702000*%
%ADD13C,0.100000*%
G04 APERTURE END LIST*
G36*
G01*
X93646000Y-61713000D02*
X93646000Y-62239000D01*
G75*
G02*
X93383000Y-62502000I-263000J0D01*
G01*
X92757000Y-62502000D01*
G75*
G02*
X92494000Y-62239000I0J263000D01*
G01*
X92494000Y-61713000D01*
G75*
G02*
X92757000Y-61450000I263000J0D01*
G01*
X93383000Y-61450000D01*
G75*
G02*
X93646000Y-61713000I0J-263000D01*
G01*
G37*
G36*
G01*
X91896000Y-61713000D02*
X91896000Y-62239000D01*
G75*
G02*
X91633000Y-62502000I-263000J0D01*
G01*
X91007000Y-62502000D01*
G75*
G02*
X90744000Y-62239000I0J263000D01*
G01*
X90744000Y-61713000D01*
G75*
G02*
X91007000Y-61450000I263000J0D01*
G01*
X91633000Y-61450000D01*
G75*
G02*
X91896000Y-61713000I0J-263000D01*
G01*
G37*
G36*
G01*
X67463000Y-45992500D02*
X66937000Y-45992500D01*
G75*
G02*
X66674000Y-45729500I0J263000D01*
G01*
X66674000Y-45103500D01*
G75*
G02*
X66937000Y-44840500I263000J0D01*
G01*
X67463000Y-44840500D01*
G75*
G02*
X67726000Y-45103500I0J-263000D01*
G01*
X67726000Y-45729500D01*
G75*
G02*
X67463000Y-45992500I-263000J0D01*
G01*
G37*
G36*
G01*
X67463000Y-47742500D02*
X66937000Y-47742500D01*
G75*
G02*
X66674000Y-47479500I0J263000D01*
G01*
X66674000Y-46853500D01*
G75*
G02*
X66937000Y-46590500I263000J0D01*
G01*
X67463000Y-46590500D01*
G75*
G02*
X67726000Y-46853500I0J-263000D01*
G01*
X67726000Y-47479500D01*
G75*
G02*
X67463000Y-47742500I-263000J0D01*
G01*
G37*
G36*
G01*
X68907000Y-49285000D02*
X68907000Y-48759000D01*
G75*
G02*
X69170000Y-48496000I263000J0D01*
G01*
X69796000Y-48496000D01*
G75*
G02*
X70059000Y-48759000I0J-263000D01*
G01*
X70059000Y-49285000D01*
G75*
G02*
X69796000Y-49548000I-263000J0D01*
G01*
X69170000Y-49548000D01*
G75*
G02*
X68907000Y-49285000I0J263000D01*
G01*
G37*
G36*
G01*
X70657000Y-49285000D02*
X70657000Y-48759000D01*
G75*
G02*
X70920000Y-48496000I263000J0D01*
G01*
X71546000Y-48496000D01*
G75*
G02*
X71809000Y-48759000I0J-263000D01*
G01*
X71809000Y-49285000D01*
G75*
G02*
X71546000Y-49548000I-263000J0D01*
G01*
X70920000Y-49548000D01*
G75*
G02*
X70657000Y-49285000I0J263000D01*
G01*
G37*
G36*
G01*
X83013000Y-46028500D02*
X83013000Y-46554500D01*
G75*
G02*
X82750000Y-46817500I-263000J0D01*
G01*
X82124000Y-46817500D01*
G75*
G02*
X81861000Y-46554500I0J263000D01*
G01*
X81861000Y-46028500D01*
G75*
G02*
X82124000Y-45765500I263000J0D01*
G01*
X82750000Y-45765500D01*
G75*
G02*
X83013000Y-46028500I0J-263000D01*
G01*
G37*
G36*
G01*
X84763000Y-46028500D02*
X84763000Y-46554500D01*
G75*
G02*
X84500000Y-46817500I-263000J0D01*
G01*
X83874000Y-46817500D01*
G75*
G02*
X83611000Y-46554500I0J263000D01*
G01*
X83611000Y-46028500D01*
G75*
G02*
X83874000Y-45765500I263000J0D01*
G01*
X84500000Y-45765500D01*
G75*
G02*
X84763000Y-46028500I0J-263000D01*
G01*
G37*
G36*
G01*
X56190500Y-90941000D02*
X56190500Y-90415000D01*
G75*
G02*
X56453500Y-90152000I263000J0D01*
G01*
X57079500Y-90152000D01*
G75*
G02*
X57342500Y-90415000I0J-263000D01*
G01*
X57342500Y-90941000D01*
G75*
G02*
X57079500Y-91204000I-263000J0D01*
G01*
X56453500Y-91204000D01*
G75*
G02*
X56190500Y-90941000I0J263000D01*
G01*
G37*
G36*
G01*
X54440500Y-90941000D02*
X54440500Y-90415000D01*
G75*
G02*
X54703500Y-90152000I263000J0D01*
G01*
X55329500Y-90152000D01*
G75*
G02*
X55592500Y-90415000I0J-263000D01*
G01*
X55592500Y-90941000D01*
G75*
G02*
X55329500Y-91204000I-263000J0D01*
G01*
X54703500Y-91204000D01*
G75*
G02*
X54440500Y-90941000I0J263000D01*
G01*
G37*
G36*
G01*
X81994000Y-78368000D02*
X81994000Y-77842000D01*
G75*
G02*
X82257000Y-77579000I263000J0D01*
G01*
X82883000Y-77579000D01*
G75*
G02*
X83146000Y-77842000I0J-263000D01*
G01*
X83146000Y-78368000D01*
G75*
G02*
X82883000Y-78631000I-263000J0D01*
G01*
X82257000Y-78631000D01*
G75*
G02*
X81994000Y-78368000I0J263000D01*
G01*
G37*
G36*
G01*
X83744000Y-78368000D02*
X83744000Y-77842000D01*
G75*
G02*
X84007000Y-77579000I263000J0D01*
G01*
X84633000Y-77579000D01*
G75*
G02*
X84896000Y-77842000I0J-263000D01*
G01*
X84896000Y-78368000D01*
G75*
G02*
X84633000Y-78631000I-263000J0D01*
G01*
X84007000Y-78631000D01*
G75*
G02*
X83744000Y-78368000I0J263000D01*
G01*
G37*
D10*
X55000000Y-30000000D03*
X120000000Y-30000000D03*
X55000000Y-95000000D03*
X120000000Y-95000000D03*
G36*
G01*
X82430000Y-29099000D02*
X84130000Y-29099000D01*
G75*
G02*
X84181000Y-29150000I0J-51000D01*
G01*
X84181000Y-30850000D01*
G75*
G02*
X84130000Y-30901000I-51000J0D01*
G01*
X82430000Y-30901000D01*
G75*
G02*
X82379000Y-30850000I0J51000D01*
G01*
X82379000Y-29150000D01*
G75*
G02*
X82430000Y-29099000I51000J0D01*
G01*
G37*
D11*
X80740000Y-30000000D03*
X78200000Y-30000000D03*
X64710000Y-30000000D03*
X67250000Y-30000000D03*
G36*
G01*
X68940000Y-29099000D02*
X70640000Y-29099000D01*
G75*
G02*
X70691000Y-29150000I0J-51000D01*
G01*
X70691000Y-30850000D01*
G75*
G02*
X70640000Y-30901000I-51000J0D01*
G01*
X68940000Y-30901000D01*
G75*
G02*
X68889000Y-30850000I0J51000D01*
G01*
X68889000Y-29150000D01*
G75*
G02*
X68940000Y-29099000I51000J0D01*
G01*
G37*
G36*
G01*
X53693000Y-39225000D02*
X53693000Y-37525000D01*
G75*
G02*
X53744000Y-37474000I51000J0D01*
G01*
X55444000Y-37474000D01*
G75*
G02*
X55495000Y-37525000I0J-51000D01*
G01*
X55495000Y-39225000D01*
G75*
G02*
X55444000Y-39276000I-51000J0D01*
G01*
X53744000Y-39276000D01*
G75*
G02*
X53693000Y-39225000I0J51000D01*
G01*
G37*
X57134000Y-38375000D03*
X54594000Y-40915000D03*
X57134000Y-40915000D03*
X54594000Y-43455000D03*
X57134000Y-43455000D03*
X54594000Y-45995000D03*
X57134000Y-45995000D03*
X54594000Y-48535000D03*
X57134000Y-48535000D03*
X54594000Y-51075000D03*
X57134000Y-51075000D03*
X54594000Y-53615000D03*
X57134000Y-53615000D03*
X54594000Y-56155000D03*
X57134000Y-56155000D03*
X54594000Y-58695000D03*
X57134000Y-58695000D03*
X54594000Y-61235000D03*
X57134000Y-61235000D03*
X54594000Y-63775000D03*
X57134000Y-63775000D03*
X54594000Y-66315000D03*
X57134000Y-66315000D03*
X54594000Y-68855000D03*
X57134000Y-68855000D03*
X54594000Y-71395000D03*
X57134000Y-71395000D03*
X54594000Y-73935000D03*
X57134000Y-73935000D03*
X54594000Y-76475000D03*
X57134000Y-76475000D03*
X54594000Y-79015000D03*
X57134000Y-79015000D03*
X54594000Y-81555000D03*
X57134000Y-81555000D03*
X54594000Y-84095000D03*
X57134000Y-84095000D03*
X54594000Y-86635000D03*
X57134000Y-86635000D03*
G36*
G01*
X103400000Y-95947000D02*
X101700000Y-95947000D01*
G75*
G02*
X101649000Y-95896000I0J51000D01*
G01*
X101649000Y-94196000D01*
G75*
G02*
X101700000Y-94145000I51000J0D01*
G01*
X103400000Y-94145000D01*
G75*
G02*
X103451000Y-94196000I0J-51000D01*
G01*
X103451000Y-95896000D01*
G75*
G02*
X103400000Y-95947000I-51000J0D01*
G01*
G37*
X105090000Y-95046000D03*
X107630000Y-95046000D03*
X72480000Y-95046000D03*
X69940000Y-95046000D03*
G36*
G01*
X68250000Y-95947000D02*
X66550000Y-95947000D01*
G75*
G02*
X66499000Y-95896000I0J51000D01*
G01*
X66499000Y-94196000D01*
G75*
G02*
X66550000Y-94145000I51000J0D01*
G01*
X68250000Y-94145000D01*
G75*
G02*
X68301000Y-94196000I0J-51000D01*
G01*
X68301000Y-95896000D01*
G75*
G02*
X68250000Y-95947000I-51000J0D01*
G01*
G37*
X120000000Y-85290000D03*
X120000000Y-82750000D03*
G36*
G01*
X119099000Y-81060000D02*
X119099000Y-79360000D01*
G75*
G02*
X119150000Y-79309000I51000J0D01*
G01*
X120850000Y-79309000D01*
G75*
G02*
X120901000Y-79360000I0J-51000D01*
G01*
X120901000Y-81060000D01*
G75*
G02*
X120850000Y-81111000I-51000J0D01*
G01*
X119150000Y-81111000D01*
G75*
G02*
X119099000Y-81060000I0J51000D01*
G01*
G37*
G36*
G01*
X119099000Y-67570000D02*
X119099000Y-65870000D01*
G75*
G02*
X119150000Y-65819000I51000J0D01*
G01*
X120850000Y-65819000D01*
G75*
G02*
X120901000Y-65870000I0J-51000D01*
G01*
X120901000Y-67570000D01*
G75*
G02*
X120850000Y-67621000I-51000J0D01*
G01*
X119150000Y-67621000D01*
G75*
G02*
X119099000Y-67570000I0J51000D01*
G01*
G37*
X120000000Y-69260000D03*
X120000000Y-71800000D03*
X120000000Y-58310000D03*
X120000000Y-55770000D03*
G36*
G01*
X119099000Y-54080000D02*
X119099000Y-52380000D01*
G75*
G02*
X119150000Y-52329000I51000J0D01*
G01*
X120850000Y-52329000D01*
G75*
G02*
X120901000Y-52380000I0J-51000D01*
G01*
X120901000Y-54080000D01*
G75*
G02*
X120850000Y-54131000I-51000J0D01*
G01*
X119150000Y-54131000D01*
G75*
G02*
X119099000Y-54080000I0J51000D01*
G01*
G37*
X120000000Y-44820000D03*
X120000000Y-42280000D03*
G36*
G01*
X119099000Y-40590000D02*
X119099000Y-38890000D01*
G75*
G02*
X119150000Y-38839000I51000J0D01*
G01*
X120850000Y-38839000D01*
G75*
G02*
X120901000Y-38890000I0J-51000D01*
G01*
X120901000Y-40590000D01*
G75*
G02*
X120850000Y-40641000I-51000J0D01*
G01*
X119150000Y-40641000D01*
G75*
G02*
X119099000Y-40590000I0J51000D01*
G01*
G37*
G36*
G01*
X109410000Y-29099000D02*
X111110000Y-29099000D01*
G75*
G02*
X111161000Y-29150000I0J-51000D01*
G01*
X111161000Y-30850000D01*
G75*
G02*
X111110000Y-30901000I-51000J0D01*
G01*
X109410000Y-30901000D01*
G75*
G02*
X109359000Y-30850000I0J51000D01*
G01*
X109359000Y-29150000D01*
G75*
G02*
X109410000Y-29099000I51000J0D01*
G01*
G37*
X107720000Y-30000000D03*
X105180000Y-30000000D03*
G36*
G01*
X95920000Y-29099000D02*
X97620000Y-29099000D01*
G75*
G02*
X97671000Y-29150000I0J-51000D01*
G01*
X97671000Y-30850000D01*
G75*
G02*
X97620000Y-30901000I-51000J0D01*
G01*
X95920000Y-30901000D01*
G75*
G02*
X95869000Y-30850000I0J51000D01*
G01*
X95869000Y-29150000D01*
G75*
G02*
X95920000Y-29099000I51000J0D01*
G01*
G37*
X94230000Y-30000000D03*
X91690000Y-30000000D03*
G36*
G01*
X117243000Y-85111000D02*
X116717000Y-85111000D01*
G75*
G02*
X116454000Y-84848000I0J263000D01*
G01*
X116454000Y-84222000D01*
G75*
G02*
X116717000Y-83959000I263000J0D01*
G01*
X117243000Y-83959000D01*
G75*
G02*
X117506000Y-84222000I0J-263000D01*
G01*
X117506000Y-84848000D01*
G75*
G02*
X117243000Y-85111000I-263000J0D01*
G01*
G37*
G36*
G01*
X117243000Y-86861000D02*
X116717000Y-86861000D01*
G75*
G02*
X116454000Y-86598000I0J263000D01*
G01*
X116454000Y-85972000D01*
G75*
G02*
X116717000Y-85709000I263000J0D01*
G01*
X117243000Y-85709000D01*
G75*
G02*
X117506000Y-85972000I0J-263000D01*
G01*
X117506000Y-86598000D01*
G75*
G02*
X117243000Y-86861000I-263000J0D01*
G01*
G37*
G36*
G01*
X117243000Y-79761000D02*
X116717000Y-79761000D01*
G75*
G02*
X116454000Y-79498000I0J263000D01*
G01*
X116454000Y-78872000D01*
G75*
G02*
X116717000Y-78609000I263000J0D01*
G01*
X117243000Y-78609000D01*
G75*
G02*
X117506000Y-78872000I0J-263000D01*
G01*
X117506000Y-79498000D01*
G75*
G02*
X117243000Y-79761000I-263000J0D01*
G01*
G37*
G36*
G01*
X117243000Y-81511000D02*
X116717000Y-81511000D01*
G75*
G02*
X116454000Y-81248000I0J263000D01*
G01*
X116454000Y-80622000D01*
G75*
G02*
X116717000Y-80359000I263000J0D01*
G01*
X117243000Y-80359000D01*
G75*
G02*
X117506000Y-80622000I0J-263000D01*
G01*
X117506000Y-81248000D01*
G75*
G02*
X117243000Y-81511000I-263000J0D01*
G01*
G37*
G36*
G01*
X117243000Y-73371000D02*
X116717000Y-73371000D01*
G75*
G02*
X116454000Y-73108000I0J263000D01*
G01*
X116454000Y-72482000D01*
G75*
G02*
X116717000Y-72219000I263000J0D01*
G01*
X117243000Y-72219000D01*
G75*
G02*
X117506000Y-72482000I0J-263000D01*
G01*
X117506000Y-73108000D01*
G75*
G02*
X117243000Y-73371000I-263000J0D01*
G01*
G37*
G36*
G01*
X117243000Y-71621000D02*
X116717000Y-71621000D01*
G75*
G02*
X116454000Y-71358000I0J263000D01*
G01*
X116454000Y-70732000D01*
G75*
G02*
X116717000Y-70469000I263000J0D01*
G01*
X117243000Y-70469000D01*
G75*
G02*
X117506000Y-70732000I0J-263000D01*
G01*
X117506000Y-71358000D01*
G75*
G02*
X117243000Y-71621000I-263000J0D01*
G01*
G37*
G36*
G01*
X117243000Y-66271000D02*
X116717000Y-66271000D01*
G75*
G02*
X116454000Y-66008000I0J263000D01*
G01*
X116454000Y-65382000D01*
G75*
G02*
X116717000Y-65119000I263000J0D01*
G01*
X117243000Y-65119000D01*
G75*
G02*
X117506000Y-65382000I0J-263000D01*
G01*
X117506000Y-66008000D01*
G75*
G02*
X117243000Y-66271000I-263000J0D01*
G01*
G37*
G36*
G01*
X117243000Y-68021000D02*
X116717000Y-68021000D01*
G75*
G02*
X116454000Y-67758000I0J263000D01*
G01*
X116454000Y-67132000D01*
G75*
G02*
X116717000Y-66869000I263000J0D01*
G01*
X117243000Y-66869000D01*
G75*
G02*
X117506000Y-67132000I0J-263000D01*
G01*
X117506000Y-67758000D01*
G75*
G02*
X117243000Y-68021000I-263000J0D01*
G01*
G37*
G36*
G01*
X70059000Y-43301000D02*
X70059000Y-43827000D01*
G75*
G02*
X69796000Y-44090000I-263000J0D01*
G01*
X69170000Y-44090000D01*
G75*
G02*
X68907000Y-43827000I0J263000D01*
G01*
X68907000Y-43301000D01*
G75*
G02*
X69170000Y-43038000I263000J0D01*
G01*
X69796000Y-43038000D01*
G75*
G02*
X70059000Y-43301000I0J-263000D01*
G01*
G37*
G36*
G01*
X71809000Y-43301000D02*
X71809000Y-43827000D01*
G75*
G02*
X71546000Y-44090000I-263000J0D01*
G01*
X70920000Y-44090000D01*
G75*
G02*
X70657000Y-43827000I0J263000D01*
G01*
X70657000Y-43301000D01*
G75*
G02*
X70920000Y-43038000I263000J0D01*
G01*
X71546000Y-43038000D01*
G75*
G02*
X71809000Y-43301000I0J-263000D01*
G01*
G37*
G36*
G01*
X73143000Y-44840500D02*
X73669000Y-44840500D01*
G75*
G02*
X73932000Y-45103500I0J-263000D01*
G01*
X73932000Y-45729500D01*
G75*
G02*
X73669000Y-45992500I-263000J0D01*
G01*
X73143000Y-45992500D01*
G75*
G02*
X72880000Y-45729500I0J263000D01*
G01*
X72880000Y-45103500D01*
G75*
G02*
X73143000Y-44840500I263000J0D01*
G01*
G37*
G36*
G01*
X73143000Y-46590500D02*
X73669000Y-46590500D01*
G75*
G02*
X73932000Y-46853500I0J-263000D01*
G01*
X73932000Y-47479500D01*
G75*
G02*
X73669000Y-47742500I-263000J0D01*
G01*
X73143000Y-47742500D01*
G75*
G02*
X72880000Y-47479500I0J263000D01*
G01*
X72880000Y-46853500D01*
G75*
G02*
X73143000Y-46590500I263000J0D01*
G01*
G37*
G36*
G01*
X117243000Y-59881000D02*
X116717000Y-59881000D01*
G75*
G02*
X116454000Y-59618000I0J263000D01*
G01*
X116454000Y-58992000D01*
G75*
G02*
X116717000Y-58729000I263000J0D01*
G01*
X117243000Y-58729000D01*
G75*
G02*
X117506000Y-58992000I0J-263000D01*
G01*
X117506000Y-59618000D01*
G75*
G02*
X117243000Y-59881000I-263000J0D01*
G01*
G37*
G36*
G01*
X117243000Y-58131000D02*
X116717000Y-58131000D01*
G75*
G02*
X116454000Y-57868000I0J263000D01*
G01*
X116454000Y-57242000D01*
G75*
G02*
X116717000Y-56979000I263000J0D01*
G01*
X117243000Y-56979000D01*
G75*
G02*
X117506000Y-57242000I0J-263000D01*
G01*
X117506000Y-57868000D01*
G75*
G02*
X117243000Y-58131000I-263000J0D01*
G01*
G37*
G36*
G01*
X117243000Y-52781000D02*
X116717000Y-52781000D01*
G75*
G02*
X116454000Y-52518000I0J263000D01*
G01*
X116454000Y-51892000D01*
G75*
G02*
X116717000Y-51629000I263000J0D01*
G01*
X117243000Y-51629000D01*
G75*
G02*
X117506000Y-51892000I0J-263000D01*
G01*
X117506000Y-52518000D01*
G75*
G02*
X117243000Y-52781000I-263000J0D01*
G01*
G37*
G36*
G01*
X117243000Y-54531000D02*
X116717000Y-54531000D01*
G75*
G02*
X116454000Y-54268000I0J263000D01*
G01*
X116454000Y-53642000D01*
G75*
G02*
X116717000Y-53379000I263000J0D01*
G01*
X117243000Y-53379000D01*
G75*
G02*
X117506000Y-53642000I0J-263000D01*
G01*
X117506000Y-54268000D01*
G75*
G02*
X117243000Y-54531000I-263000J0D01*
G01*
G37*
G36*
G01*
X117243000Y-46391000D02*
X116717000Y-46391000D01*
G75*
G02*
X116454000Y-46128000I0J263000D01*
G01*
X116454000Y-45502000D01*
G75*
G02*
X116717000Y-45239000I263000J0D01*
G01*
X117243000Y-45239000D01*
G75*
G02*
X117506000Y-45502000I0J-263000D01*
G01*
X117506000Y-46128000D01*
G75*
G02*
X117243000Y-46391000I-263000J0D01*
G01*
G37*
G36*
G01*
X117243000Y-44641000D02*
X116717000Y-44641000D01*
G75*
G02*
X116454000Y-44378000I0J263000D01*
G01*
X116454000Y-43752000D01*
G75*
G02*
X116717000Y-43489000I263000J0D01*
G01*
X117243000Y-43489000D01*
G75*
G02*
X117506000Y-43752000I0J-263000D01*
G01*
X117506000Y-44378000D01*
G75*
G02*
X117243000Y-44641000I-263000J0D01*
G01*
G37*
G36*
G01*
X117243000Y-41041000D02*
X116717000Y-41041000D01*
G75*
G02*
X116454000Y-40778000I0J263000D01*
G01*
X116454000Y-40152000D01*
G75*
G02*
X116717000Y-39889000I263000J0D01*
G01*
X117243000Y-39889000D01*
G75*
G02*
X117506000Y-40152000I0J-263000D01*
G01*
X117506000Y-40778000D01*
G75*
G02*
X117243000Y-41041000I-263000J0D01*
G01*
G37*
G36*
G01*
X117243000Y-39291000D02*
X116717000Y-39291000D01*
G75*
G02*
X116454000Y-39028000I0J263000D01*
G01*
X116454000Y-38402000D01*
G75*
G02*
X116717000Y-38139000I263000J0D01*
G01*
X117243000Y-38139000D01*
G75*
G02*
X117506000Y-38402000I0J-263000D01*
G01*
X117506000Y-39028000D01*
G75*
G02*
X117243000Y-39291000I-263000J0D01*
G01*
G37*
G36*
G01*
X105359000Y-33283000D02*
X105359000Y-32757000D01*
G75*
G02*
X105622000Y-32494000I263000J0D01*
G01*
X106248000Y-32494000D01*
G75*
G02*
X106511000Y-32757000I0J-263000D01*
G01*
X106511000Y-33283000D01*
G75*
G02*
X106248000Y-33546000I-263000J0D01*
G01*
X105622000Y-33546000D01*
G75*
G02*
X105359000Y-33283000I0J263000D01*
G01*
G37*
G36*
G01*
X103609000Y-33283000D02*
X103609000Y-32757000D01*
G75*
G02*
X103872000Y-32494000I263000J0D01*
G01*
X104498000Y-32494000D01*
G75*
G02*
X104761000Y-32757000I0J-263000D01*
G01*
X104761000Y-33283000D01*
G75*
G02*
X104498000Y-33546000I-263000J0D01*
G01*
X103872000Y-33546000D01*
G75*
G02*
X103609000Y-33283000I0J263000D01*
G01*
G37*
G36*
G01*
X110709000Y-33283000D02*
X110709000Y-32757000D01*
G75*
G02*
X110972000Y-32494000I263000J0D01*
G01*
X111598000Y-32494000D01*
G75*
G02*
X111861000Y-32757000I0J-263000D01*
G01*
X111861000Y-33283000D01*
G75*
G02*
X111598000Y-33546000I-263000J0D01*
G01*
X110972000Y-33546000D01*
G75*
G02*
X110709000Y-33283000I0J263000D01*
G01*
G37*
G36*
G01*
X108959000Y-33283000D02*
X108959000Y-32757000D01*
G75*
G02*
X109222000Y-32494000I263000J0D01*
G01*
X109848000Y-32494000D01*
G75*
G02*
X110111000Y-32757000I0J-263000D01*
G01*
X110111000Y-33283000D01*
G75*
G02*
X109848000Y-33546000I-263000J0D01*
G01*
X109222000Y-33546000D01*
G75*
G02*
X108959000Y-33283000I0J263000D01*
G01*
G37*
G36*
G01*
X91869000Y-33283000D02*
X91869000Y-32757000D01*
G75*
G02*
X92132000Y-32494000I263000J0D01*
G01*
X92758000Y-32494000D01*
G75*
G02*
X93021000Y-32757000I0J-263000D01*
G01*
X93021000Y-33283000D01*
G75*
G02*
X92758000Y-33546000I-263000J0D01*
G01*
X92132000Y-33546000D01*
G75*
G02*
X91869000Y-33283000I0J263000D01*
G01*
G37*
G36*
G01*
X90119000Y-33283000D02*
X90119000Y-32757000D01*
G75*
G02*
X90382000Y-32494000I263000J0D01*
G01*
X91008000Y-32494000D01*
G75*
G02*
X91271000Y-32757000I0J-263000D01*
G01*
X91271000Y-33283000D01*
G75*
G02*
X91008000Y-33546000I-263000J0D01*
G01*
X90382000Y-33546000D01*
G75*
G02*
X90119000Y-33283000I0J263000D01*
G01*
G37*
G36*
G01*
X95469000Y-33283000D02*
X95469000Y-32757000D01*
G75*
G02*
X95732000Y-32494000I263000J0D01*
G01*
X96358000Y-32494000D01*
G75*
G02*
X96621000Y-32757000I0J-263000D01*
G01*
X96621000Y-33283000D01*
G75*
G02*
X96358000Y-33546000I-263000J0D01*
G01*
X95732000Y-33546000D01*
G75*
G02*
X95469000Y-33283000I0J263000D01*
G01*
G37*
G36*
G01*
X97219000Y-33283000D02*
X97219000Y-32757000D01*
G75*
G02*
X97482000Y-32494000I263000J0D01*
G01*
X98108000Y-32494000D01*
G75*
G02*
X98371000Y-32757000I0J-263000D01*
G01*
X98371000Y-33283000D01*
G75*
G02*
X98108000Y-33546000I-263000J0D01*
G01*
X97482000Y-33546000D01*
G75*
G02*
X97219000Y-33283000I0J263000D01*
G01*
G37*
G36*
G01*
X84763000Y-44247000D02*
X84763000Y-44773000D01*
G75*
G02*
X84500000Y-45036000I-263000J0D01*
G01*
X83874000Y-45036000D01*
G75*
G02*
X83611000Y-44773000I0J263000D01*
G01*
X83611000Y-44247000D01*
G75*
G02*
X83874000Y-43984000I263000J0D01*
G01*
X84500000Y-43984000D01*
G75*
G02*
X84763000Y-44247000I0J-263000D01*
G01*
G37*
G36*
G01*
X83013000Y-44247000D02*
X83013000Y-44773000D01*
G75*
G02*
X82750000Y-45036000I-263000J0D01*
G01*
X82124000Y-45036000D01*
G75*
G02*
X81861000Y-44773000I0J263000D01*
G01*
X81861000Y-44247000D01*
G75*
G02*
X82124000Y-43984000I263000J0D01*
G01*
X82750000Y-43984000D01*
G75*
G02*
X83013000Y-44247000I0J-263000D01*
G01*
G37*
G36*
G01*
X84763000Y-47810000D02*
X84763000Y-48336000D01*
G75*
G02*
X84500000Y-48599000I-263000J0D01*
G01*
X83874000Y-48599000D01*
G75*
G02*
X83611000Y-48336000I0J263000D01*
G01*
X83611000Y-47810000D01*
G75*
G02*
X83874000Y-47547000I263000J0D01*
G01*
X84500000Y-47547000D01*
G75*
G02*
X84763000Y-47810000I0J-263000D01*
G01*
G37*
G36*
G01*
X83013000Y-47810000D02*
X83013000Y-48336000D01*
G75*
G02*
X82750000Y-48599000I-263000J0D01*
G01*
X82124000Y-48599000D01*
G75*
G02*
X81861000Y-48336000I0J263000D01*
G01*
X81861000Y-47810000D01*
G75*
G02*
X82124000Y-47547000I263000J0D01*
G01*
X82750000Y-47547000D01*
G75*
G02*
X83013000Y-47810000I0J-263000D01*
G01*
G37*
G36*
G01*
X89885000Y-77842000D02*
X89885000Y-78368000D01*
G75*
G02*
X89622000Y-78631000I-263000J0D01*
G01*
X88996000Y-78631000D01*
G75*
G02*
X88733000Y-78368000I0J263000D01*
G01*
X88733000Y-77842000D01*
G75*
G02*
X88996000Y-77579000I263000J0D01*
G01*
X89622000Y-77579000D01*
G75*
G02*
X89885000Y-77842000I0J-263000D01*
G01*
G37*
G36*
G01*
X91635000Y-77842000D02*
X91635000Y-78368000D01*
G75*
G02*
X91372000Y-78631000I-263000J0D01*
G01*
X90746000Y-78631000D01*
G75*
G02*
X90483000Y-78368000I0J263000D01*
G01*
X90483000Y-77842000D01*
G75*
G02*
X90746000Y-77579000I263000J0D01*
G01*
X91372000Y-77579000D01*
G75*
G02*
X91635000Y-77842000I0J-263000D01*
G01*
G37*
G36*
G01*
X97746000Y-60024500D02*
X97746000Y-60375500D01*
G75*
G02*
X97570500Y-60551000I-175500J0D01*
G01*
X95869500Y-60551000D01*
G75*
G02*
X95694000Y-60375500I0J175500D01*
G01*
X95694000Y-60024500D01*
G75*
G02*
X95869500Y-59849000I175500J0D01*
G01*
X97570500Y-59849000D01*
G75*
G02*
X97746000Y-60024500I0J-175500D01*
G01*
G37*
G36*
G01*
X97746000Y-58754500D02*
X97746000Y-59105500D01*
G75*
G02*
X97570500Y-59281000I-175500J0D01*
G01*
X95869500Y-59281000D01*
G75*
G02*
X95694000Y-59105500I0J175500D01*
G01*
X95694000Y-58754500D01*
G75*
G02*
X95869500Y-58579000I175500J0D01*
G01*
X97570500Y-58579000D01*
G75*
G02*
X97746000Y-58754500I0J-175500D01*
G01*
G37*
G36*
G01*
X97746000Y-57484500D02*
X97746000Y-57835500D01*
G75*
G02*
X97570500Y-58011000I-175500J0D01*
G01*
X95869500Y-58011000D01*
G75*
G02*
X95694000Y-57835500I0J175500D01*
G01*
X95694000Y-57484500D01*
G75*
G02*
X95869500Y-57309000I175500J0D01*
G01*
X97570500Y-57309000D01*
G75*
G02*
X97746000Y-57484500I0J-175500D01*
G01*
G37*
G36*
G01*
X97746000Y-56214500D02*
X97746000Y-56565500D01*
G75*
G02*
X97570500Y-56741000I-175500J0D01*
G01*
X95869500Y-56741000D01*
G75*
G02*
X95694000Y-56565500I0J175500D01*
G01*
X95694000Y-56214500D01*
G75*
G02*
X95869500Y-56039000I175500J0D01*
G01*
X97570500Y-56039000D01*
G75*
G02*
X97746000Y-56214500I0J-175500D01*
G01*
G37*
G36*
G01*
X97746000Y-54944500D02*
X97746000Y-55295500D01*
G75*
G02*
X97570500Y-55471000I-175500J0D01*
G01*
X95869500Y-55471000D01*
G75*
G02*
X95694000Y-55295500I0J175500D01*
G01*
X95694000Y-54944500D01*
G75*
G02*
X95869500Y-54769000I175500J0D01*
G01*
X97570500Y-54769000D01*
G75*
G02*
X97746000Y-54944500I0J-175500D01*
G01*
G37*
G36*
G01*
X97746000Y-53674500D02*
X97746000Y-54025500D01*
G75*
G02*
X97570500Y-54201000I-175500J0D01*
G01*
X95869500Y-54201000D01*
G75*
G02*
X95694000Y-54025500I0J175500D01*
G01*
X95694000Y-53674500D01*
G75*
G02*
X95869500Y-53499000I175500J0D01*
G01*
X97570500Y-53499000D01*
G75*
G02*
X97746000Y-53674500I0J-175500D01*
G01*
G37*
G36*
G01*
X97746000Y-52404500D02*
X97746000Y-52755500D01*
G75*
G02*
X97570500Y-52931000I-175500J0D01*
G01*
X95869500Y-52931000D01*
G75*
G02*
X95694000Y-52755500I0J175500D01*
G01*
X95694000Y-52404500D01*
G75*
G02*
X95869500Y-52229000I175500J0D01*
G01*
X97570500Y-52229000D01*
G75*
G02*
X97746000Y-52404500I0J-175500D01*
G01*
G37*
G36*
G01*
X97746000Y-51134500D02*
X97746000Y-51485500D01*
G75*
G02*
X97570500Y-51661000I-175500J0D01*
G01*
X95869500Y-51661000D01*
G75*
G02*
X95694000Y-51485500I0J175500D01*
G01*
X95694000Y-51134500D01*
G75*
G02*
X95869500Y-50959000I175500J0D01*
G01*
X97570500Y-50959000D01*
G75*
G02*
X97746000Y-51134500I0J-175500D01*
G01*
G37*
G36*
G01*
X92796000Y-51134500D02*
X92796000Y-51485500D01*
G75*
G02*
X92620500Y-51661000I-175500J0D01*
G01*
X90919500Y-51661000D01*
G75*
G02*
X90744000Y-51485500I0J175500D01*
G01*
X90744000Y-51134500D01*
G75*
G02*
X90919500Y-50959000I175500J0D01*
G01*
X92620500Y-50959000D01*
G75*
G02*
X92796000Y-51134500I0J-175500D01*
G01*
G37*
G36*
G01*
X92796000Y-52404500D02*
X92796000Y-52755500D01*
G75*
G02*
X92620500Y-52931000I-175500J0D01*
G01*
X90919500Y-52931000D01*
G75*
G02*
X90744000Y-52755500I0J175500D01*
G01*
X90744000Y-52404500D01*
G75*
G02*
X90919500Y-52229000I175500J0D01*
G01*
X92620500Y-52229000D01*
G75*
G02*
X92796000Y-52404500I0J-175500D01*
G01*
G37*
G36*
G01*
X92796000Y-53674500D02*
X92796000Y-54025500D01*
G75*
G02*
X92620500Y-54201000I-175500J0D01*
G01*
X90919500Y-54201000D01*
G75*
G02*
X90744000Y-54025500I0J175500D01*
G01*
X90744000Y-53674500D01*
G75*
G02*
X90919500Y-53499000I175500J0D01*
G01*
X92620500Y-53499000D01*
G75*
G02*
X92796000Y-53674500I0J-175500D01*
G01*
G37*
G36*
G01*
X92796000Y-54944500D02*
X92796000Y-55295500D01*
G75*
G02*
X92620500Y-55471000I-175500J0D01*
G01*
X90919500Y-55471000D01*
G75*
G02*
X90744000Y-55295500I0J175500D01*
G01*
X90744000Y-54944500D01*
G75*
G02*
X90919500Y-54769000I175500J0D01*
G01*
X92620500Y-54769000D01*
G75*
G02*
X92796000Y-54944500I0J-175500D01*
G01*
G37*
G36*
G01*
X92796000Y-56214500D02*
X92796000Y-56565500D01*
G75*
G02*
X92620500Y-56741000I-175500J0D01*
G01*
X90919500Y-56741000D01*
G75*
G02*
X90744000Y-56565500I0J175500D01*
G01*
X90744000Y-56214500D01*
G75*
G02*
X90919500Y-56039000I175500J0D01*
G01*
X92620500Y-56039000D01*
G75*
G02*
X92796000Y-56214500I0J-175500D01*
G01*
G37*
G36*
G01*
X92796000Y-57484500D02*
X92796000Y-57835500D01*
G75*
G02*
X92620500Y-58011000I-175500J0D01*
G01*
X90919500Y-58011000D01*
G75*
G02*
X90744000Y-57835500I0J175500D01*
G01*
X90744000Y-57484500D01*
G75*
G02*
X90919500Y-57309000I175500J0D01*
G01*
X92620500Y-57309000D01*
G75*
G02*
X92796000Y-57484500I0J-175500D01*
G01*
G37*
G36*
G01*
X92796000Y-58754500D02*
X92796000Y-59105500D01*
G75*
G02*
X92620500Y-59281000I-175500J0D01*
G01*
X90919500Y-59281000D01*
G75*
G02*
X90744000Y-59105500I0J175500D01*
G01*
X90744000Y-58754500D01*
G75*
G02*
X90919500Y-58579000I175500J0D01*
G01*
X92620500Y-58579000D01*
G75*
G02*
X92796000Y-58754500I0J-175500D01*
G01*
G37*
G36*
G01*
X92796000Y-60024500D02*
X92796000Y-60375500D01*
G75*
G02*
X92620500Y-60551000I-175500J0D01*
G01*
X90919500Y-60551000D01*
G75*
G02*
X90744000Y-60375500I0J175500D01*
G01*
X90744000Y-60024500D01*
G75*
G02*
X90919500Y-59849000I175500J0D01*
G01*
X92620500Y-59849000D01*
G75*
G02*
X92796000Y-60024500I0J-175500D01*
G01*
G37*
G36*
G01*
X71453000Y-45567500D02*
X71103000Y-45567500D01*
G75*
G02*
X71052000Y-45516500I0J51000D01*
G01*
X71052000Y-45016500D01*
G75*
G02*
X71103000Y-44965500I51000J0D01*
G01*
X71453000Y-44965500D01*
G75*
G02*
X71504000Y-45016500I0J-51000D01*
G01*
X71504000Y-45516500D01*
G75*
G02*
X71453000Y-45567500I-51000J0D01*
G01*
G37*
G36*
G01*
X70803000Y-45567500D02*
X70453000Y-45567500D01*
G75*
G02*
X70402000Y-45516500I0J51000D01*
G01*
X70402000Y-45016500D01*
G75*
G02*
X70453000Y-44965500I51000J0D01*
G01*
X70803000Y-44965500D01*
G75*
G02*
X70854000Y-45016500I0J-51000D01*
G01*
X70854000Y-45516500D01*
G75*
G02*
X70803000Y-45567500I-51000J0D01*
G01*
G37*
G36*
G01*
X70153000Y-45567500D02*
X69803000Y-45567500D01*
G75*
G02*
X69752000Y-45516500I0J51000D01*
G01*
X69752000Y-45016500D01*
G75*
G02*
X69803000Y-44965500I51000J0D01*
G01*
X70153000Y-44965500D01*
G75*
G02*
X70204000Y-45016500I0J-51000D01*
G01*
X70204000Y-45516500D01*
G75*
G02*
X70153000Y-45567500I-51000J0D01*
G01*
G37*
G36*
G01*
X69503000Y-45567500D02*
X69153000Y-45567500D01*
G75*
G02*
X69102000Y-45516500I0J51000D01*
G01*
X69102000Y-45016500D01*
G75*
G02*
X69153000Y-44965500I51000J0D01*
G01*
X69503000Y-44965500D01*
G75*
G02*
X69554000Y-45016500I0J-51000D01*
G01*
X69554000Y-45516500D01*
G75*
G02*
X69503000Y-45567500I-51000J0D01*
G01*
G37*
G36*
G01*
X69503000Y-47617500D02*
X69153000Y-47617500D01*
G75*
G02*
X69102000Y-47566500I0J51000D01*
G01*
X69102000Y-47066500D01*
G75*
G02*
X69153000Y-47015500I51000J0D01*
G01*
X69503000Y-47015500D01*
G75*
G02*
X69554000Y-47066500I0J-51000D01*
G01*
X69554000Y-47566500D01*
G75*
G02*
X69503000Y-47617500I-51000J0D01*
G01*
G37*
G36*
G01*
X70153000Y-47617500D02*
X69803000Y-47617500D01*
G75*
G02*
X69752000Y-47566500I0J51000D01*
G01*
X69752000Y-47066500D01*
G75*
G02*
X69803000Y-47015500I51000J0D01*
G01*
X70153000Y-47015500D01*
G75*
G02*
X70204000Y-47066500I0J-51000D01*
G01*
X70204000Y-47566500D01*
G75*
G02*
X70153000Y-47617500I-51000J0D01*
G01*
G37*
G36*
G01*
X70803000Y-47617500D02*
X70453000Y-47617500D01*
G75*
G02*
X70402000Y-47566500I0J51000D01*
G01*
X70402000Y-47066500D01*
G75*
G02*
X70453000Y-47015500I51000J0D01*
G01*
X70803000Y-47015500D01*
G75*
G02*
X70854000Y-47066500I0J-51000D01*
G01*
X70854000Y-47566500D01*
G75*
G02*
X70803000Y-47617500I-51000J0D01*
G01*
G37*
G36*
G01*
X71453000Y-47617500D02*
X71103000Y-47617500D01*
G75*
G02*
X71052000Y-47566500I0J51000D01*
G01*
X71052000Y-47066500D01*
G75*
G02*
X71103000Y-47015500I51000J0D01*
G01*
X71453000Y-47015500D01*
G75*
G02*
X71504000Y-47066500I0J-51000D01*
G01*
X71504000Y-47566500D01*
G75*
G02*
X71453000Y-47617500I-51000J0D01*
G01*
G37*
G36*
G01*
X87660001Y-47264000D02*
X86059999Y-47264000D01*
G75*
G02*
X86009000Y-47213001I0J50999D01*
G01*
X86009000Y-46512999D01*
G75*
G02*
X86059999Y-46462000I50999J0D01*
G01*
X87660001Y-46462000D01*
G75*
G02*
X87711000Y-46512999I0J-50999D01*
G01*
X87711000Y-47213001D01*
G75*
G02*
X87660001Y-47264000I-50999J0D01*
G01*
G37*
G36*
G01*
X87660001Y-48534000D02*
X86059999Y-48534000D01*
G75*
G02*
X86009000Y-48483001I0J50999D01*
G01*
X86009000Y-47782999D01*
G75*
G02*
X86059999Y-47732000I50999J0D01*
G01*
X87660001Y-47732000D01*
G75*
G02*
X87711000Y-47782999I0J-50999D01*
G01*
X87711000Y-48483001D01*
G75*
G02*
X87660001Y-48534000I-50999J0D01*
G01*
G37*
G36*
G01*
X87660001Y-45994000D02*
X86059999Y-45994000D01*
G75*
G02*
X86009000Y-45943001I0J50999D01*
G01*
X86009000Y-45242999D01*
G75*
G02*
X86059999Y-45192000I50999J0D01*
G01*
X87660001Y-45192000D01*
G75*
G02*
X87711000Y-45242999I0J-50999D01*
G01*
X87711000Y-45943001D01*
G75*
G02*
X87660001Y-45994000I-50999J0D01*
G01*
G37*
G36*
G01*
X87660001Y-44724000D02*
X86059999Y-44724000D01*
G75*
G02*
X86009000Y-44673001I0J50999D01*
G01*
X86009000Y-43972999D01*
G75*
G02*
X86059999Y-43922000I50999J0D01*
G01*
X87660001Y-43922000D01*
G75*
G02*
X87711000Y-43972999I0J-50999D01*
G01*
X87711000Y-44673001D01*
G75*
G02*
X87660001Y-44724000I-50999J0D01*
G01*
G37*
G36*
G01*
X85399000Y-83946000D02*
X85399000Y-81346000D01*
G75*
G02*
X85450000Y-81295000I51000J0D01*
G01*
X88050000Y-81295000D01*
G75*
G02*
X88101000Y-81346000I0J-51000D01*
G01*
X88101000Y-83946000D01*
G75*
G02*
X88050000Y-83997000I-51000J0D01*
G01*
X85450000Y-83997000D01*
G75*
G02*
X85399000Y-83946000I0J51000D01*
G01*
G37*
D12*
X86750000Y-88646000D03*
X91450000Y-85646000D03*
G36*
G01*
X89798000Y-60760000D02*
X89272000Y-60760000D01*
G75*
G02*
X89009000Y-60497000I0J263000D01*
G01*
X89009000Y-59846000D01*
G75*
G02*
X89272000Y-59583000I263000J0D01*
G01*
X89798000Y-59583000D01*
G75*
G02*
X90061000Y-59846000I0J-263000D01*
G01*
X90061000Y-60497000D01*
G75*
G02*
X89798000Y-60760000I-263000J0D01*
G01*
G37*
G36*
G01*
X89798000Y-59035000D02*
X89272000Y-59035000D01*
G75*
G02*
X89009000Y-58772000I0J263000D01*
G01*
X89009000Y-58121000D01*
G75*
G02*
X89272000Y-57858000I263000J0D01*
G01*
X89798000Y-57858000D01*
G75*
G02*
X90061000Y-58121000I0J-263000D01*
G01*
X90061000Y-58772000D01*
G75*
G02*
X89798000Y-59035000I-263000J0D01*
G01*
G37*
D13*
G36*
X71053732Y-47014500D02*
G01*
X71054000Y-47015500D01*
X71054000Y-47617500D01*
X71053000Y-47619232D01*
X71052000Y-47619500D01*
X70854000Y-47619500D01*
X70852268Y-47618500D01*
X70852000Y-47617500D01*
X70852000Y-47015500D01*
X70853000Y-47013768D01*
X70854000Y-47013500D01*
X71052000Y-47013500D01*
X71053732Y-47014500D01*
G37*
G36*
X70403732Y-47014500D02*
G01*
X70404000Y-47015500D01*
X70404000Y-47617500D01*
X70403000Y-47619232D01*
X70402000Y-47619500D01*
X70204000Y-47619500D01*
X70202268Y-47618500D01*
X70202000Y-47617500D01*
X70202000Y-47015500D01*
X70203000Y-47013768D01*
X70204000Y-47013500D01*
X70402000Y-47013500D01*
X70403732Y-47014500D01*
G37*
G36*
X69753732Y-47014500D02*
G01*
X69754000Y-47015500D01*
X69754000Y-47617500D01*
X69753000Y-47619232D01*
X69752000Y-47619500D01*
X69554000Y-47619500D01*
X69552268Y-47618500D01*
X69552000Y-47617500D01*
X69552000Y-47015500D01*
X69553000Y-47013768D01*
X69554000Y-47013500D01*
X69752000Y-47013500D01*
X69753732Y-47014500D01*
G37*
G36*
X69753732Y-44964500D02*
G01*
X69754000Y-44965500D01*
X69754000Y-45567500D01*
X69753000Y-45569232D01*
X69752000Y-45569500D01*
X69554000Y-45569500D01*
X69552268Y-45568500D01*
X69552000Y-45567500D01*
X69552000Y-44965500D01*
X69553000Y-44963768D01*
X69554000Y-44963500D01*
X69752000Y-44963500D01*
X69753732Y-44964500D01*
G37*
G36*
X70403732Y-44964500D02*
G01*
X70404000Y-44965500D01*
X70404000Y-45567500D01*
X70403000Y-45569232D01*
X70402000Y-45569500D01*
X70204000Y-45569500D01*
X70202268Y-45568500D01*
X70202000Y-45567500D01*
X70202000Y-44965500D01*
X70203000Y-44963768D01*
X70204000Y-44963500D01*
X70402000Y-44963500D01*
X70403732Y-44964500D01*
G37*
G36*
X71053732Y-44964500D02*
G01*
X71054000Y-44965500D01*
X71054000Y-45567500D01*
X71053000Y-45569232D01*
X71052000Y-45569500D01*
X70854000Y-45569500D01*
X70852268Y-45568500D01*
X70852000Y-45567500D01*
X70852000Y-44965500D01*
X70853000Y-44963768D01*
X70854000Y-44963500D01*
X71052000Y-44963500D01*
X71053732Y-44964500D01*
G37*
M02*
