G04 #@! TF.GenerationSoftware,KiCad,Pcbnew,5.1.9-73d0e3b20d~88~ubuntu20.04.1*
G04 #@! TF.CreationDate,2020-12-30T12:03:23-07:00*
G04 #@! TF.ProjectId,Motherboard,4d6f7468-6572-4626-9f61-72642e6b6963,rev?*
G04 #@! TF.SameCoordinates,Original*
G04 #@! TF.FileFunction,Soldermask,Bot*
G04 #@! TF.FilePolarity,Negative*
%FSLAX46Y46*%
G04 Gerber Fmt 4.6, Leading zero omitted, Abs format (unit mm)*
G04 Created by KiCad (PCBNEW 5.1.9-73d0e3b20d~88~ubuntu20.04.1) date 2020-12-30 12:03:23*
%MOMM*%
%LPD*%
G01*
G04 APERTURE LIST*
%ADD10C,5.802000*%
%ADD11O,1.802000X1.802000*%
%ADD12C,2.702000*%
G04 APERTURE END LIST*
D10*
X55000000Y-30000000D03*
X120000000Y-30000000D03*
X55000000Y-95000000D03*
X120000000Y-95000000D03*
G36*
G01*
X82430000Y-29099000D02*
X84130000Y-29099000D01*
G75*
G02*
X84181000Y-29150000I0J-51000D01*
G01*
X84181000Y-30850000D01*
G75*
G02*
X84130000Y-30901000I-51000J0D01*
G01*
X82430000Y-30901000D01*
G75*
G02*
X82379000Y-30850000I0J51000D01*
G01*
X82379000Y-29150000D01*
G75*
G02*
X82430000Y-29099000I51000J0D01*
G01*
G37*
D11*
X80740000Y-30000000D03*
X78200000Y-30000000D03*
X64710000Y-30000000D03*
X67250000Y-30000000D03*
G36*
G01*
X68940000Y-29099000D02*
X70640000Y-29099000D01*
G75*
G02*
X70691000Y-29150000I0J-51000D01*
G01*
X70691000Y-30850000D01*
G75*
G02*
X70640000Y-30901000I-51000J0D01*
G01*
X68940000Y-30901000D01*
G75*
G02*
X68889000Y-30850000I0J51000D01*
G01*
X68889000Y-29150000D01*
G75*
G02*
X68940000Y-29099000I51000J0D01*
G01*
G37*
G36*
G01*
X53693000Y-39225000D02*
X53693000Y-37525000D01*
G75*
G02*
X53744000Y-37474000I51000J0D01*
G01*
X55444000Y-37474000D01*
G75*
G02*
X55495000Y-37525000I0J-51000D01*
G01*
X55495000Y-39225000D01*
G75*
G02*
X55444000Y-39276000I-51000J0D01*
G01*
X53744000Y-39276000D01*
G75*
G02*
X53693000Y-39225000I0J51000D01*
G01*
G37*
X57134000Y-38375000D03*
X54594000Y-40915000D03*
X57134000Y-40915000D03*
X54594000Y-43455000D03*
X57134000Y-43455000D03*
X54594000Y-45995000D03*
X57134000Y-45995000D03*
X54594000Y-48535000D03*
X57134000Y-48535000D03*
X54594000Y-51075000D03*
X57134000Y-51075000D03*
X54594000Y-53615000D03*
X57134000Y-53615000D03*
X54594000Y-56155000D03*
X57134000Y-56155000D03*
X54594000Y-58695000D03*
X57134000Y-58695000D03*
X54594000Y-61235000D03*
X57134000Y-61235000D03*
X54594000Y-63775000D03*
X57134000Y-63775000D03*
X54594000Y-66315000D03*
X57134000Y-66315000D03*
X54594000Y-68855000D03*
X57134000Y-68855000D03*
X54594000Y-71395000D03*
X57134000Y-71395000D03*
X54594000Y-73935000D03*
X57134000Y-73935000D03*
X54594000Y-76475000D03*
X57134000Y-76475000D03*
X54594000Y-79015000D03*
X57134000Y-79015000D03*
X54594000Y-81555000D03*
X57134000Y-81555000D03*
X54594000Y-84095000D03*
X57134000Y-84095000D03*
X54594000Y-86635000D03*
X57134000Y-86635000D03*
G36*
G01*
X103400000Y-95947000D02*
X101700000Y-95947000D01*
G75*
G02*
X101649000Y-95896000I0J51000D01*
G01*
X101649000Y-94196000D01*
G75*
G02*
X101700000Y-94145000I51000J0D01*
G01*
X103400000Y-94145000D01*
G75*
G02*
X103451000Y-94196000I0J-51000D01*
G01*
X103451000Y-95896000D01*
G75*
G02*
X103400000Y-95947000I-51000J0D01*
G01*
G37*
X105090000Y-95046000D03*
X107630000Y-95046000D03*
X72480000Y-95046000D03*
X69940000Y-95046000D03*
G36*
G01*
X68250000Y-95947000D02*
X66550000Y-95947000D01*
G75*
G02*
X66499000Y-95896000I0J51000D01*
G01*
X66499000Y-94196000D01*
G75*
G02*
X66550000Y-94145000I51000J0D01*
G01*
X68250000Y-94145000D01*
G75*
G02*
X68301000Y-94196000I0J-51000D01*
G01*
X68301000Y-95896000D01*
G75*
G02*
X68250000Y-95947000I-51000J0D01*
G01*
G37*
X120000000Y-85290000D03*
X120000000Y-82750000D03*
G36*
G01*
X119099000Y-81060000D02*
X119099000Y-79360000D01*
G75*
G02*
X119150000Y-79309000I51000J0D01*
G01*
X120850000Y-79309000D01*
G75*
G02*
X120901000Y-79360000I0J-51000D01*
G01*
X120901000Y-81060000D01*
G75*
G02*
X120850000Y-81111000I-51000J0D01*
G01*
X119150000Y-81111000D01*
G75*
G02*
X119099000Y-81060000I0J51000D01*
G01*
G37*
G36*
G01*
X119099000Y-67570000D02*
X119099000Y-65870000D01*
G75*
G02*
X119150000Y-65819000I51000J0D01*
G01*
X120850000Y-65819000D01*
G75*
G02*
X120901000Y-65870000I0J-51000D01*
G01*
X120901000Y-67570000D01*
G75*
G02*
X120850000Y-67621000I-51000J0D01*
G01*
X119150000Y-67621000D01*
G75*
G02*
X119099000Y-67570000I0J51000D01*
G01*
G37*
X120000000Y-69260000D03*
X120000000Y-71800000D03*
X120000000Y-58310000D03*
X120000000Y-55770000D03*
G36*
G01*
X119099000Y-54080000D02*
X119099000Y-52380000D01*
G75*
G02*
X119150000Y-52329000I51000J0D01*
G01*
X120850000Y-52329000D01*
G75*
G02*
X120901000Y-52380000I0J-51000D01*
G01*
X120901000Y-54080000D01*
G75*
G02*
X120850000Y-54131000I-51000J0D01*
G01*
X119150000Y-54131000D01*
G75*
G02*
X119099000Y-54080000I0J51000D01*
G01*
G37*
X120000000Y-44820000D03*
X120000000Y-42280000D03*
G36*
G01*
X119099000Y-40590000D02*
X119099000Y-38890000D01*
G75*
G02*
X119150000Y-38839000I51000J0D01*
G01*
X120850000Y-38839000D01*
G75*
G02*
X120901000Y-38890000I0J-51000D01*
G01*
X120901000Y-40590000D01*
G75*
G02*
X120850000Y-40641000I-51000J0D01*
G01*
X119150000Y-40641000D01*
G75*
G02*
X119099000Y-40590000I0J51000D01*
G01*
G37*
G36*
G01*
X109410000Y-29099000D02*
X111110000Y-29099000D01*
G75*
G02*
X111161000Y-29150000I0J-51000D01*
G01*
X111161000Y-30850000D01*
G75*
G02*
X111110000Y-30901000I-51000J0D01*
G01*
X109410000Y-30901000D01*
G75*
G02*
X109359000Y-30850000I0J51000D01*
G01*
X109359000Y-29150000D01*
G75*
G02*
X109410000Y-29099000I51000J0D01*
G01*
G37*
X107720000Y-30000000D03*
X105180000Y-30000000D03*
G36*
G01*
X95920000Y-29099000D02*
X97620000Y-29099000D01*
G75*
G02*
X97671000Y-29150000I0J-51000D01*
G01*
X97671000Y-30850000D01*
G75*
G02*
X97620000Y-30901000I-51000J0D01*
G01*
X95920000Y-30901000D01*
G75*
G02*
X95869000Y-30850000I0J51000D01*
G01*
X95869000Y-29150000D01*
G75*
G02*
X95920000Y-29099000I51000J0D01*
G01*
G37*
X94230000Y-30000000D03*
X91690000Y-30000000D03*
G36*
G01*
X85399000Y-83946000D02*
X85399000Y-81346000D01*
G75*
G02*
X85450000Y-81295000I51000J0D01*
G01*
X88050000Y-81295000D01*
G75*
G02*
X88101000Y-81346000I0J-51000D01*
G01*
X88101000Y-83946000D01*
G75*
G02*
X88050000Y-83997000I-51000J0D01*
G01*
X85450000Y-83997000D01*
G75*
G02*
X85399000Y-83946000I0J51000D01*
G01*
G37*
D12*
X86750000Y-88646000D03*
X91450000Y-85646000D03*
M02*
