G04 #@! TF.GenerationSoftware,KiCad,Pcbnew,5.1.9-73d0e3b20d~88~ubuntu20.04.1*
G04 #@! TF.CreationDate,2020-12-30T12:03:23-07:00*
G04 #@! TF.ProjectId,Motherboard,4d6f7468-6572-4626-9f61-72642e6b6963,rev?*
G04 #@! TF.SameCoordinates,Original*
G04 #@! TF.FileFunction,Copper,L2,Bot*
G04 #@! TF.FilePolarity,Positive*
%FSLAX46Y46*%
G04 Gerber Fmt 4.6, Leading zero omitted, Abs format (unit mm)*
G04 Created by KiCad (PCBNEW 5.1.9-73d0e3b20d~88~ubuntu20.04.1) date 2020-12-30 12:03:23*
%MOMM*%
%LPD*%
G01*
G04 APERTURE LIST*
G04 #@! TA.AperFunction,ComponentPad*
%ADD10C,5.700000*%
G04 #@! TD*
G04 #@! TA.AperFunction,ComponentPad*
%ADD11R,1.700000X1.700000*%
G04 #@! TD*
G04 #@! TA.AperFunction,ComponentPad*
%ADD12O,1.700000X1.700000*%
G04 #@! TD*
G04 #@! TA.AperFunction,ComponentPad*
%ADD13R,2.600000X2.600000*%
G04 #@! TD*
G04 #@! TA.AperFunction,ComponentPad*
%ADD14C,2.600000*%
G04 #@! TD*
G04 #@! TA.AperFunction,ViaPad*
%ADD15C,0.800000*%
G04 #@! TD*
G04 #@! TA.AperFunction,Conductor*
%ADD16C,0.254000*%
G04 #@! TD*
G04 #@! TA.AperFunction,Conductor*
%ADD17C,1.524000*%
G04 #@! TD*
G04 #@! TA.AperFunction,Conductor*
%ADD18C,0.100000*%
G04 #@! TD*
G04 APERTURE END LIST*
D10*
X55000000Y-30000000D03*
X120000000Y-30000000D03*
X55000000Y-95000000D03*
X120000000Y-95000000D03*
D11*
X83280000Y-30000000D03*
D12*
X80740000Y-30000000D03*
X78200000Y-30000000D03*
X64710000Y-30000000D03*
X67250000Y-30000000D03*
D11*
X69790000Y-30000000D03*
X54594000Y-38375000D03*
D12*
X57134000Y-38375000D03*
X54594000Y-40915000D03*
X57134000Y-40915000D03*
X54594000Y-43455000D03*
X57134000Y-43455000D03*
X54594000Y-45995000D03*
X57134000Y-45995000D03*
X54594000Y-48535000D03*
X57134000Y-48535000D03*
X54594000Y-51075000D03*
X57134000Y-51075000D03*
X54594000Y-53615000D03*
X57134000Y-53615000D03*
X54594000Y-56155000D03*
X57134000Y-56155000D03*
X54594000Y-58695000D03*
X57134000Y-58695000D03*
X54594000Y-61235000D03*
X57134000Y-61235000D03*
X54594000Y-63775000D03*
X57134000Y-63775000D03*
X54594000Y-66315000D03*
X57134000Y-66315000D03*
X54594000Y-68855000D03*
X57134000Y-68855000D03*
X54594000Y-71395000D03*
X57134000Y-71395000D03*
X54594000Y-73935000D03*
X57134000Y-73935000D03*
X54594000Y-76475000D03*
X57134000Y-76475000D03*
X54594000Y-79015000D03*
X57134000Y-79015000D03*
X54594000Y-81555000D03*
X57134000Y-81555000D03*
X54594000Y-84095000D03*
X57134000Y-84095000D03*
X54594000Y-86635000D03*
X57134000Y-86635000D03*
D11*
X102550000Y-95046000D03*
D12*
X105090000Y-95046000D03*
X107630000Y-95046000D03*
X72480000Y-95046000D03*
X69940000Y-95046000D03*
D11*
X67400000Y-95046000D03*
D12*
X120000000Y-85290000D03*
X120000000Y-82750000D03*
D11*
X120000000Y-80210000D03*
X120000000Y-66720000D03*
D12*
X120000000Y-69260000D03*
X120000000Y-71800000D03*
X120000000Y-58310000D03*
X120000000Y-55770000D03*
D11*
X120000000Y-53230000D03*
D12*
X120000000Y-44820000D03*
X120000000Y-42280000D03*
D11*
X120000000Y-39740000D03*
X110260000Y-30000000D03*
D12*
X107720000Y-30000000D03*
X105180000Y-30000000D03*
D11*
X96770000Y-30000000D03*
D12*
X94230000Y-30000000D03*
X91690000Y-30000000D03*
D13*
X86750000Y-82646000D03*
D14*
X86750000Y-88646000D03*
X91450000Y-85646000D03*
D15*
X77216000Y-49911000D03*
X89154000Y-44069000D03*
X75438000Y-45339000D03*
X62103000Y-40894000D03*
X63754000Y-65151000D03*
X71501000Y-58674000D03*
X86233000Y-66548000D03*
X81661000Y-62738000D03*
X77343000Y-44704000D03*
D16*
X53490000Y-38375000D02*
X52451000Y-39414000D01*
X54594000Y-38375000D02*
X53490000Y-38375000D01*
X52451000Y-56552000D02*
X54594000Y-58695000D01*
X52451000Y-39414000D02*
X52451000Y-56552000D01*
X54594000Y-37271000D02*
X55289000Y-36576000D01*
X54594000Y-38375000D02*
X54594000Y-37271000D01*
X55289000Y-36576000D02*
X63500000Y-36576000D01*
X63500000Y-36576000D02*
X69215000Y-36576000D01*
X69215000Y-36576000D02*
X77343000Y-44704000D01*
X77343000Y-44704000D02*
X77343000Y-44704000D01*
D17*
X70789999Y-94196001D02*
X69940000Y-95046000D01*
X70789999Y-93974319D02*
X70789999Y-94196001D01*
X82118318Y-82646000D02*
X70789999Y-93974319D01*
X86750000Y-82646000D02*
X82118318Y-82646000D01*
X105090000Y-93843919D02*
X105090000Y-95046000D01*
X86750000Y-82646000D02*
X93892081Y-82646000D01*
X93892081Y-82646000D02*
X101000040Y-89753960D01*
X101000040Y-89753960D02*
X120050040Y-89753960D01*
X101000040Y-89753960D02*
X105090000Y-93843919D01*
X120050040Y-89753960D02*
X122936000Y-86868000D01*
X121202081Y-82750000D02*
X120000000Y-82750000D01*
X122936000Y-84483919D02*
X121202081Y-82750000D01*
X122936000Y-86868000D02*
X122936000Y-84483919D01*
X122936000Y-70993919D02*
X122936000Y-71374000D01*
X120000000Y-69260000D02*
X121202081Y-69260000D01*
X121202081Y-69260000D02*
X122936000Y-70993919D01*
X122936000Y-86868000D02*
X122936000Y-71374000D01*
X122936000Y-57503919D02*
X122936000Y-59309000D01*
X121202081Y-55770000D02*
X122936000Y-57503919D01*
X120000000Y-55770000D02*
X121202081Y-55770000D01*
X122936000Y-71374000D02*
X122936000Y-59309000D01*
X122936000Y-44013919D02*
X122936000Y-46101000D01*
X121202081Y-42280000D02*
X122936000Y-44013919D01*
X120000000Y-42280000D02*
X121202081Y-42280000D01*
X122936000Y-59309000D02*
X122936000Y-46101000D01*
X122936000Y-46101000D02*
X122936000Y-43180000D01*
X122936000Y-43180000D02*
X122936000Y-38862000D01*
X122936000Y-38862000D02*
X111125000Y-27051000D01*
X67250000Y-28797919D02*
X67250000Y-30000000D01*
X68996919Y-27051000D02*
X67250000Y-28797919D01*
X82486919Y-27051000D02*
X85725000Y-27051000D01*
X80740000Y-30000000D02*
X80740000Y-28797919D01*
X80740000Y-28797919D02*
X82486919Y-27051000D01*
X85725000Y-27051000D02*
X68996919Y-27051000D01*
X95976919Y-27051000D02*
X98552000Y-27051000D01*
X94230000Y-30000000D02*
X94230000Y-28797919D01*
X98552000Y-27051000D02*
X85725000Y-27051000D01*
X94230000Y-28797919D02*
X95976919Y-27051000D01*
X111125000Y-27051000D02*
X98552000Y-27051000D01*
X109466919Y-27051000D02*
X111125000Y-27051000D01*
X107720000Y-28797919D02*
X109466919Y-27051000D01*
X107720000Y-30000000D02*
X107720000Y-28797919D01*
D16*
X57134000Y-38375000D02*
X57134000Y-40915000D01*
X124594001Y-99594000D02*
X50406000Y-99594000D01*
X50406000Y-94681774D01*
X51769000Y-94681774D01*
X51769000Y-95318226D01*
X51893166Y-95942448D01*
X52136725Y-96530452D01*
X52490319Y-97059642D01*
X52940358Y-97509681D01*
X53469548Y-97863275D01*
X54057552Y-98106834D01*
X54681774Y-98231000D01*
X55318226Y-98231000D01*
X55942448Y-98106834D01*
X56530452Y-97863275D01*
X57059642Y-97509681D01*
X57509681Y-97059642D01*
X57863275Y-96530452D01*
X58106834Y-95942448D01*
X58116073Y-95896000D01*
X65911928Y-95896000D01*
X65924188Y-96020482D01*
X65960498Y-96140180D01*
X66019463Y-96250494D01*
X66098815Y-96347185D01*
X66195506Y-96426537D01*
X66305820Y-96485502D01*
X66425518Y-96521812D01*
X66550000Y-96534072D01*
X67114250Y-96531000D01*
X67273000Y-96372250D01*
X67273000Y-95173000D01*
X66073750Y-95173000D01*
X65915000Y-95331750D01*
X65911928Y-95896000D01*
X58116073Y-95896000D01*
X58231000Y-95318226D01*
X58231000Y-94681774D01*
X58134374Y-94196000D01*
X65911928Y-94196000D01*
X65915000Y-94760250D01*
X66073750Y-94919000D01*
X67273000Y-94919000D01*
X67273000Y-93719750D01*
X67114250Y-93561000D01*
X66550000Y-93557928D01*
X66425518Y-93570188D01*
X66305820Y-93606498D01*
X66195506Y-93665463D01*
X66098815Y-93744815D01*
X66019463Y-93841506D01*
X65960498Y-93951820D01*
X65924188Y-94071518D01*
X65911928Y-94196000D01*
X58134374Y-94196000D01*
X58106834Y-94057552D01*
X57863275Y-93469548D01*
X57509681Y-92940358D01*
X57059642Y-92490319D01*
X56530452Y-92136725D01*
X55942448Y-91893166D01*
X55318226Y-91769000D01*
X54681774Y-91769000D01*
X54057552Y-91893166D01*
X53469548Y-92136725D01*
X52940358Y-92490319D01*
X52490319Y-92940358D01*
X52136725Y-93469548D01*
X51893166Y-94057552D01*
X51769000Y-94681774D01*
X50406000Y-94681774D01*
X50406000Y-86991890D01*
X53152524Y-86991890D01*
X53197175Y-87139099D01*
X53322359Y-87401920D01*
X53496412Y-87635269D01*
X53712645Y-87830178D01*
X53962748Y-87979157D01*
X54237109Y-88076481D01*
X54467000Y-87955814D01*
X54467000Y-86762000D01*
X53273845Y-86762000D01*
X53152524Y-86991890D01*
X50406000Y-86991890D01*
X50406000Y-86278110D01*
X53152524Y-86278110D01*
X53273845Y-86508000D01*
X54467000Y-86508000D01*
X54467000Y-86488000D01*
X54721000Y-86488000D01*
X54721000Y-86508000D01*
X54741000Y-86508000D01*
X54741000Y-86762000D01*
X54721000Y-86762000D01*
X54721000Y-87955814D01*
X54950891Y-88076481D01*
X55225252Y-87979157D01*
X55475355Y-87830178D01*
X55691588Y-87635269D01*
X55865641Y-87401920D01*
X55990825Y-87139099D01*
X55999091Y-87111846D01*
X56043102Y-87218097D01*
X56177820Y-87419717D01*
X56349283Y-87591180D01*
X56550903Y-87725898D01*
X56774931Y-87818693D01*
X57012757Y-87866000D01*
X57255243Y-87866000D01*
X57493069Y-87818693D01*
X57717097Y-87725898D01*
X57918717Y-87591180D01*
X58090180Y-87419717D01*
X58224898Y-87218097D01*
X58317693Y-86994069D01*
X58365000Y-86756243D01*
X58365000Y-86513757D01*
X58317693Y-86275931D01*
X58224898Y-86051903D01*
X58090180Y-85850283D01*
X57918717Y-85678820D01*
X57717097Y-85544102D01*
X57493069Y-85451307D01*
X57255243Y-85404000D01*
X57012757Y-85404000D01*
X56774931Y-85451307D01*
X56550903Y-85544102D01*
X56349283Y-85678820D01*
X56177820Y-85850283D01*
X56043102Y-86051903D01*
X55999091Y-86158154D01*
X55990825Y-86130901D01*
X55865641Y-85868080D01*
X55691588Y-85634731D01*
X55475355Y-85439822D01*
X55225252Y-85290843D01*
X55062832Y-85233228D01*
X55177097Y-85185898D01*
X55378717Y-85051180D01*
X55550180Y-84879717D01*
X55684898Y-84678097D01*
X55777693Y-84454069D01*
X55825000Y-84216243D01*
X55825000Y-83973757D01*
X55903000Y-83973757D01*
X55903000Y-84216243D01*
X55950307Y-84454069D01*
X56043102Y-84678097D01*
X56177820Y-84879717D01*
X56349283Y-85051180D01*
X56550903Y-85185898D01*
X56774931Y-85278693D01*
X57012757Y-85326000D01*
X57255243Y-85326000D01*
X57493069Y-85278693D01*
X57717097Y-85185898D01*
X57918717Y-85051180D01*
X58090180Y-84879717D01*
X58224898Y-84678097D01*
X58317693Y-84454069D01*
X58365000Y-84216243D01*
X58365000Y-83973757D01*
X58317693Y-83735931D01*
X58224898Y-83511903D01*
X58090180Y-83310283D01*
X57918717Y-83138820D01*
X57717097Y-83004102D01*
X57493069Y-82911307D01*
X57255243Y-82864000D01*
X57012757Y-82864000D01*
X56774931Y-82911307D01*
X56550903Y-83004102D01*
X56349283Y-83138820D01*
X56177820Y-83310283D01*
X56043102Y-83511903D01*
X55950307Y-83735931D01*
X55903000Y-83973757D01*
X55825000Y-83973757D01*
X55777693Y-83735931D01*
X55684898Y-83511903D01*
X55550180Y-83310283D01*
X55378717Y-83138820D01*
X55177097Y-83004102D01*
X54953069Y-82911307D01*
X54715243Y-82864000D01*
X54472757Y-82864000D01*
X54234931Y-82911307D01*
X54010903Y-83004102D01*
X53809283Y-83138820D01*
X53637820Y-83310283D01*
X53503102Y-83511903D01*
X53410307Y-83735931D01*
X53363000Y-83973757D01*
X53363000Y-84216243D01*
X53410307Y-84454069D01*
X53503102Y-84678097D01*
X53637820Y-84879717D01*
X53809283Y-85051180D01*
X54010903Y-85185898D01*
X54125168Y-85233228D01*
X53962748Y-85290843D01*
X53712645Y-85439822D01*
X53496412Y-85634731D01*
X53322359Y-85868080D01*
X53197175Y-86130901D01*
X53152524Y-86278110D01*
X50406000Y-86278110D01*
X50406000Y-81433757D01*
X53363000Y-81433757D01*
X53363000Y-81676243D01*
X53410307Y-81914069D01*
X53503102Y-82138097D01*
X53637820Y-82339717D01*
X53809283Y-82511180D01*
X54010903Y-82645898D01*
X54234931Y-82738693D01*
X54472757Y-82786000D01*
X54715243Y-82786000D01*
X54953069Y-82738693D01*
X55177097Y-82645898D01*
X55378717Y-82511180D01*
X55550180Y-82339717D01*
X55684898Y-82138097D01*
X55777693Y-81914069D01*
X55825000Y-81676243D01*
X55825000Y-81433757D01*
X55777693Y-81195931D01*
X55684898Y-80971903D01*
X55550180Y-80770283D01*
X55378717Y-80598820D01*
X55177097Y-80464102D01*
X54953069Y-80371307D01*
X54715243Y-80324000D01*
X54472757Y-80324000D01*
X54234931Y-80371307D01*
X54010903Y-80464102D01*
X53809283Y-80598820D01*
X53637820Y-80770283D01*
X53503102Y-80971903D01*
X53410307Y-81195931D01*
X53363000Y-81433757D01*
X50406000Y-81433757D01*
X50406000Y-76353757D01*
X53363000Y-76353757D01*
X53363000Y-76596243D01*
X53410307Y-76834069D01*
X53503102Y-77058097D01*
X53637820Y-77259717D01*
X53809283Y-77431180D01*
X54010903Y-77565898D01*
X54234931Y-77658693D01*
X54472757Y-77706000D01*
X54715243Y-77706000D01*
X54953069Y-77658693D01*
X55177097Y-77565898D01*
X55378717Y-77431180D01*
X55550180Y-77259717D01*
X55684898Y-77058097D01*
X55777693Y-76834069D01*
X55825000Y-76596243D01*
X55825000Y-76353757D01*
X55777693Y-76115931D01*
X55684898Y-75891903D01*
X55550180Y-75690283D01*
X55378717Y-75518820D01*
X55177097Y-75384102D01*
X54953069Y-75291307D01*
X54715243Y-75244000D01*
X54472757Y-75244000D01*
X54234931Y-75291307D01*
X54010903Y-75384102D01*
X53809283Y-75518820D01*
X53637820Y-75690283D01*
X53503102Y-75891903D01*
X53410307Y-76115931D01*
X53363000Y-76353757D01*
X50406000Y-76353757D01*
X50406000Y-73813757D01*
X53363000Y-73813757D01*
X53363000Y-74056243D01*
X53410307Y-74294069D01*
X53503102Y-74518097D01*
X53637820Y-74719717D01*
X53809283Y-74891180D01*
X54010903Y-75025898D01*
X54234931Y-75118693D01*
X54472757Y-75166000D01*
X54715243Y-75166000D01*
X54953069Y-75118693D01*
X55177097Y-75025898D01*
X55378717Y-74891180D01*
X55550180Y-74719717D01*
X55684898Y-74518097D01*
X55728909Y-74411846D01*
X55737175Y-74439099D01*
X55862359Y-74701920D01*
X56036412Y-74935269D01*
X56252645Y-75130178D01*
X56502748Y-75279157D01*
X56665168Y-75336772D01*
X56550903Y-75384102D01*
X56349283Y-75518820D01*
X56177820Y-75690283D01*
X56043102Y-75891903D01*
X55950307Y-76115931D01*
X55903000Y-76353757D01*
X55903000Y-76596243D01*
X55950307Y-76834069D01*
X56043102Y-77058097D01*
X56177820Y-77259717D01*
X56349283Y-77431180D01*
X56550903Y-77565898D01*
X56665168Y-77613228D01*
X56502748Y-77670843D01*
X56252645Y-77819822D01*
X56036412Y-78014731D01*
X55862359Y-78248080D01*
X55737175Y-78510901D01*
X55728909Y-78538154D01*
X55684898Y-78431903D01*
X55550180Y-78230283D01*
X55378717Y-78058820D01*
X55177097Y-77924102D01*
X54953069Y-77831307D01*
X54715243Y-77784000D01*
X54472757Y-77784000D01*
X54234931Y-77831307D01*
X54010903Y-77924102D01*
X53809283Y-78058820D01*
X53637820Y-78230283D01*
X53503102Y-78431903D01*
X53410307Y-78655931D01*
X53363000Y-78893757D01*
X53363000Y-79136243D01*
X53410307Y-79374069D01*
X53503102Y-79598097D01*
X53637820Y-79799717D01*
X53809283Y-79971180D01*
X54010903Y-80105898D01*
X54234931Y-80198693D01*
X54472757Y-80246000D01*
X54715243Y-80246000D01*
X54953069Y-80198693D01*
X55177097Y-80105898D01*
X55378717Y-79971180D01*
X55550180Y-79799717D01*
X55684898Y-79598097D01*
X55728909Y-79491846D01*
X55737175Y-79519099D01*
X55862359Y-79781920D01*
X56036412Y-80015269D01*
X56252645Y-80210178D01*
X56502748Y-80359157D01*
X56665168Y-80416772D01*
X56550903Y-80464102D01*
X56349283Y-80598820D01*
X56177820Y-80770283D01*
X56043102Y-80971903D01*
X55950307Y-81195931D01*
X55903000Y-81433757D01*
X55903000Y-81676243D01*
X55950307Y-81914069D01*
X56043102Y-82138097D01*
X56177820Y-82339717D01*
X56349283Y-82511180D01*
X56550903Y-82645898D01*
X56774931Y-82738693D01*
X57012757Y-82786000D01*
X57255243Y-82786000D01*
X57493069Y-82738693D01*
X57717097Y-82645898D01*
X57918717Y-82511180D01*
X58090180Y-82339717D01*
X58224898Y-82138097D01*
X58317693Y-81914069D01*
X58365000Y-81676243D01*
X58365000Y-81433757D01*
X58317693Y-81195931D01*
X58224898Y-80971903D01*
X58090180Y-80770283D01*
X57918717Y-80598820D01*
X57717097Y-80464102D01*
X57602832Y-80416772D01*
X57765252Y-80359157D01*
X58015355Y-80210178D01*
X58231588Y-80015269D01*
X58405641Y-79781920D01*
X58530825Y-79519099D01*
X58575476Y-79371890D01*
X58569202Y-79360000D01*
X118511928Y-79360000D01*
X118515000Y-79924250D01*
X118673750Y-80083000D01*
X119873000Y-80083000D01*
X119873000Y-78883750D01*
X120127000Y-78883750D01*
X120127000Y-80083000D01*
X121326250Y-80083000D01*
X121485000Y-79924250D01*
X121488072Y-79360000D01*
X121475812Y-79235518D01*
X121439502Y-79115820D01*
X121380537Y-79005506D01*
X121301185Y-78908815D01*
X121204494Y-78829463D01*
X121094180Y-78770498D01*
X120974482Y-78734188D01*
X120850000Y-78721928D01*
X120285750Y-78725000D01*
X120127000Y-78883750D01*
X119873000Y-78883750D01*
X119714250Y-78725000D01*
X119150000Y-78721928D01*
X119025518Y-78734188D01*
X118905820Y-78770498D01*
X118795506Y-78829463D01*
X118698815Y-78908815D01*
X118619463Y-79005506D01*
X118560498Y-79115820D01*
X118524188Y-79235518D01*
X118511928Y-79360000D01*
X58569202Y-79360000D01*
X58454155Y-79142000D01*
X57261000Y-79142000D01*
X57261000Y-79162000D01*
X57007000Y-79162000D01*
X57007000Y-79142000D01*
X56987000Y-79142000D01*
X56987000Y-78888000D01*
X57007000Y-78888000D01*
X57007000Y-78868000D01*
X57261000Y-78868000D01*
X57261000Y-78888000D01*
X58454155Y-78888000D01*
X58575476Y-78658110D01*
X58530825Y-78510901D01*
X58405641Y-78248080D01*
X58231588Y-78014731D01*
X58015355Y-77819822D01*
X57765252Y-77670843D01*
X57602832Y-77613228D01*
X57717097Y-77565898D01*
X57918717Y-77431180D01*
X58090180Y-77259717D01*
X58224898Y-77058097D01*
X58317693Y-76834069D01*
X58365000Y-76596243D01*
X58365000Y-76353757D01*
X58317693Y-76115931D01*
X58224898Y-75891903D01*
X58090180Y-75690283D01*
X57918717Y-75518820D01*
X57717097Y-75384102D01*
X57602832Y-75336772D01*
X57765252Y-75279157D01*
X58015355Y-75130178D01*
X58231588Y-74935269D01*
X58405641Y-74701920D01*
X58530825Y-74439099D01*
X58575476Y-74291890D01*
X58454155Y-74062000D01*
X57261000Y-74062000D01*
X57261000Y-74082000D01*
X57007000Y-74082000D01*
X57007000Y-74062000D01*
X56987000Y-74062000D01*
X56987000Y-73808000D01*
X57007000Y-73808000D01*
X57007000Y-73788000D01*
X57261000Y-73788000D01*
X57261000Y-73808000D01*
X58454155Y-73808000D01*
X58575476Y-73578110D01*
X58530825Y-73430901D01*
X58405641Y-73168080D01*
X58231588Y-72934731D01*
X58015355Y-72739822D01*
X57765252Y-72590843D01*
X57602832Y-72533228D01*
X57717097Y-72485898D01*
X57918717Y-72351180D01*
X58090180Y-72179717D01*
X58224898Y-71978097D01*
X58317693Y-71754069D01*
X58332673Y-71678757D01*
X118769000Y-71678757D01*
X118769000Y-71921243D01*
X118816307Y-72159069D01*
X118909102Y-72383097D01*
X119043820Y-72584717D01*
X119215283Y-72756180D01*
X119416903Y-72890898D01*
X119640931Y-72983693D01*
X119878757Y-73031000D01*
X120121243Y-73031000D01*
X120359069Y-72983693D01*
X120583097Y-72890898D01*
X120784717Y-72756180D01*
X120956180Y-72584717D01*
X121090898Y-72383097D01*
X121183693Y-72159069D01*
X121231000Y-71921243D01*
X121231000Y-71678757D01*
X121183693Y-71440931D01*
X121090898Y-71216903D01*
X120956180Y-71015283D01*
X120784717Y-70843820D01*
X120583097Y-70709102D01*
X120359069Y-70616307D01*
X120121243Y-70569000D01*
X119878757Y-70569000D01*
X119640931Y-70616307D01*
X119416903Y-70709102D01*
X119215283Y-70843820D01*
X119043820Y-71015283D01*
X118909102Y-71216903D01*
X118816307Y-71440931D01*
X118769000Y-71678757D01*
X58332673Y-71678757D01*
X58365000Y-71516243D01*
X58365000Y-71273757D01*
X58317693Y-71035931D01*
X58224898Y-70811903D01*
X58090180Y-70610283D01*
X57918717Y-70438820D01*
X57717097Y-70304102D01*
X57493069Y-70211307D01*
X57255243Y-70164000D01*
X57012757Y-70164000D01*
X56774931Y-70211307D01*
X56550903Y-70304102D01*
X56349283Y-70438820D01*
X56177820Y-70610283D01*
X56043102Y-70811903D01*
X55950307Y-71035931D01*
X55903000Y-71273757D01*
X55903000Y-71516243D01*
X55950307Y-71754069D01*
X56043102Y-71978097D01*
X56177820Y-72179717D01*
X56349283Y-72351180D01*
X56550903Y-72485898D01*
X56665168Y-72533228D01*
X56502748Y-72590843D01*
X56252645Y-72739822D01*
X56036412Y-72934731D01*
X55862359Y-73168080D01*
X55737175Y-73430901D01*
X55728909Y-73458154D01*
X55684898Y-73351903D01*
X55550180Y-73150283D01*
X55378717Y-72978820D01*
X55177097Y-72844102D01*
X54953069Y-72751307D01*
X54715243Y-72704000D01*
X54472757Y-72704000D01*
X54234931Y-72751307D01*
X54010903Y-72844102D01*
X53809283Y-72978820D01*
X53637820Y-73150283D01*
X53503102Y-73351903D01*
X53410307Y-73575931D01*
X53363000Y-73813757D01*
X50406000Y-73813757D01*
X50406000Y-68498110D01*
X53152524Y-68498110D01*
X53273845Y-68728000D01*
X54467000Y-68728000D01*
X54467000Y-68708000D01*
X54721000Y-68708000D01*
X54721000Y-68728000D01*
X54741000Y-68728000D01*
X54741000Y-68982000D01*
X54721000Y-68982000D01*
X54721000Y-69002000D01*
X54467000Y-69002000D01*
X54467000Y-68982000D01*
X53273845Y-68982000D01*
X53152524Y-69211890D01*
X53197175Y-69359099D01*
X53322359Y-69621920D01*
X53496412Y-69855269D01*
X53712645Y-70050178D01*
X53962748Y-70199157D01*
X54125168Y-70256772D01*
X54010903Y-70304102D01*
X53809283Y-70438820D01*
X53637820Y-70610283D01*
X53503102Y-70811903D01*
X53410307Y-71035931D01*
X53363000Y-71273757D01*
X53363000Y-71516243D01*
X53410307Y-71754069D01*
X53503102Y-71978097D01*
X53637820Y-72179717D01*
X53809283Y-72351180D01*
X54010903Y-72485898D01*
X54234931Y-72578693D01*
X54472757Y-72626000D01*
X54715243Y-72626000D01*
X54953069Y-72578693D01*
X55177097Y-72485898D01*
X55378717Y-72351180D01*
X55550180Y-72179717D01*
X55684898Y-71978097D01*
X55777693Y-71754069D01*
X55825000Y-71516243D01*
X55825000Y-71273757D01*
X55777693Y-71035931D01*
X55684898Y-70811903D01*
X55550180Y-70610283D01*
X55378717Y-70438820D01*
X55177097Y-70304102D01*
X55062832Y-70256772D01*
X55225252Y-70199157D01*
X55475355Y-70050178D01*
X55691588Y-69855269D01*
X55865641Y-69621920D01*
X55990825Y-69359099D01*
X55999091Y-69331846D01*
X56043102Y-69438097D01*
X56177820Y-69639717D01*
X56349283Y-69811180D01*
X56550903Y-69945898D01*
X56774931Y-70038693D01*
X57012757Y-70086000D01*
X57255243Y-70086000D01*
X57493069Y-70038693D01*
X57717097Y-69945898D01*
X57918717Y-69811180D01*
X58090180Y-69639717D01*
X58224898Y-69438097D01*
X58317693Y-69214069D01*
X58365000Y-68976243D01*
X58365000Y-68733757D01*
X58317693Y-68495931D01*
X58224898Y-68271903D01*
X58090180Y-68070283D01*
X57918717Y-67898820D01*
X57717097Y-67764102D01*
X57493069Y-67671307D01*
X57255243Y-67624000D01*
X57012757Y-67624000D01*
X56774931Y-67671307D01*
X56550903Y-67764102D01*
X56349283Y-67898820D01*
X56177820Y-68070283D01*
X56043102Y-68271903D01*
X55999091Y-68378154D01*
X55990825Y-68350901D01*
X55865641Y-68088080D01*
X55691588Y-67854731D01*
X55475355Y-67659822D01*
X55225252Y-67510843D01*
X55062832Y-67453228D01*
X55177097Y-67405898D01*
X55378717Y-67271180D01*
X55550180Y-67099717D01*
X55684898Y-66898097D01*
X55777693Y-66674069D01*
X55825000Y-66436243D01*
X55825000Y-66193757D01*
X55903000Y-66193757D01*
X55903000Y-66436243D01*
X55950307Y-66674069D01*
X56043102Y-66898097D01*
X56177820Y-67099717D01*
X56349283Y-67271180D01*
X56550903Y-67405898D01*
X56774931Y-67498693D01*
X57012757Y-67546000D01*
X57255243Y-67546000D01*
X57493069Y-67498693D01*
X57717097Y-67405898D01*
X57918717Y-67271180D01*
X58090180Y-67099717D01*
X58224898Y-66898097D01*
X58317693Y-66674069D01*
X58365000Y-66436243D01*
X58365000Y-66193757D01*
X58317693Y-65955931D01*
X58282100Y-65870000D01*
X118511928Y-65870000D01*
X118515000Y-66434250D01*
X118673750Y-66593000D01*
X119873000Y-66593000D01*
X119873000Y-65393750D01*
X120127000Y-65393750D01*
X120127000Y-66593000D01*
X121326250Y-66593000D01*
X121485000Y-66434250D01*
X121488072Y-65870000D01*
X121475812Y-65745518D01*
X121439502Y-65625820D01*
X121380537Y-65515506D01*
X121301185Y-65418815D01*
X121204494Y-65339463D01*
X121094180Y-65280498D01*
X120974482Y-65244188D01*
X120850000Y-65231928D01*
X120285750Y-65235000D01*
X120127000Y-65393750D01*
X119873000Y-65393750D01*
X119714250Y-65235000D01*
X119150000Y-65231928D01*
X119025518Y-65244188D01*
X118905820Y-65280498D01*
X118795506Y-65339463D01*
X118698815Y-65418815D01*
X118619463Y-65515506D01*
X118560498Y-65625820D01*
X118524188Y-65745518D01*
X118511928Y-65870000D01*
X58282100Y-65870000D01*
X58224898Y-65731903D01*
X58090180Y-65530283D01*
X57918717Y-65358820D01*
X57717097Y-65224102D01*
X57493069Y-65131307D01*
X57255243Y-65084000D01*
X57012757Y-65084000D01*
X56774931Y-65131307D01*
X56550903Y-65224102D01*
X56349283Y-65358820D01*
X56177820Y-65530283D01*
X56043102Y-65731903D01*
X55950307Y-65955931D01*
X55903000Y-66193757D01*
X55825000Y-66193757D01*
X55777693Y-65955931D01*
X55684898Y-65731903D01*
X55550180Y-65530283D01*
X55378717Y-65358820D01*
X55177097Y-65224102D01*
X54953069Y-65131307D01*
X54715243Y-65084000D01*
X54472757Y-65084000D01*
X54234931Y-65131307D01*
X54010903Y-65224102D01*
X53809283Y-65358820D01*
X53637820Y-65530283D01*
X53503102Y-65731903D01*
X53410307Y-65955931D01*
X53363000Y-66193757D01*
X53363000Y-66436243D01*
X53410307Y-66674069D01*
X53503102Y-66898097D01*
X53637820Y-67099717D01*
X53809283Y-67271180D01*
X54010903Y-67405898D01*
X54125168Y-67453228D01*
X53962748Y-67510843D01*
X53712645Y-67659822D01*
X53496412Y-67854731D01*
X53322359Y-68088080D01*
X53197175Y-68350901D01*
X53152524Y-68498110D01*
X50406000Y-68498110D01*
X50406000Y-63653757D01*
X53363000Y-63653757D01*
X53363000Y-63896243D01*
X53410307Y-64134069D01*
X53503102Y-64358097D01*
X53637820Y-64559717D01*
X53809283Y-64731180D01*
X54010903Y-64865898D01*
X54234931Y-64958693D01*
X54472757Y-65006000D01*
X54715243Y-65006000D01*
X54953069Y-64958693D01*
X55177097Y-64865898D01*
X55378717Y-64731180D01*
X55550180Y-64559717D01*
X55684898Y-64358097D01*
X55777693Y-64134069D01*
X55825000Y-63896243D01*
X55825000Y-63653757D01*
X55777693Y-63415931D01*
X55684898Y-63191903D01*
X55550180Y-62990283D01*
X55378717Y-62818820D01*
X55177097Y-62684102D01*
X54953069Y-62591307D01*
X54715243Y-62544000D01*
X54472757Y-62544000D01*
X54234931Y-62591307D01*
X54010903Y-62684102D01*
X53809283Y-62818820D01*
X53637820Y-62990283D01*
X53503102Y-63191903D01*
X53410307Y-63415931D01*
X53363000Y-63653757D01*
X50406000Y-63653757D01*
X50406000Y-61113757D01*
X53363000Y-61113757D01*
X53363000Y-61356243D01*
X53410307Y-61594069D01*
X53503102Y-61818097D01*
X53637820Y-62019717D01*
X53809283Y-62191180D01*
X54010903Y-62325898D01*
X54234931Y-62418693D01*
X54472757Y-62466000D01*
X54715243Y-62466000D01*
X54953069Y-62418693D01*
X55177097Y-62325898D01*
X55378717Y-62191180D01*
X55550180Y-62019717D01*
X55684898Y-61818097D01*
X55728909Y-61711846D01*
X55737175Y-61739099D01*
X55862359Y-62001920D01*
X56036412Y-62235269D01*
X56252645Y-62430178D01*
X56502748Y-62579157D01*
X56665168Y-62636772D01*
X56550903Y-62684102D01*
X56349283Y-62818820D01*
X56177820Y-62990283D01*
X56043102Y-63191903D01*
X55950307Y-63415931D01*
X55903000Y-63653757D01*
X55903000Y-63896243D01*
X55950307Y-64134069D01*
X56043102Y-64358097D01*
X56177820Y-64559717D01*
X56349283Y-64731180D01*
X56550903Y-64865898D01*
X56774931Y-64958693D01*
X57012757Y-65006000D01*
X57255243Y-65006000D01*
X57493069Y-64958693D01*
X57717097Y-64865898D01*
X57918717Y-64731180D01*
X58090180Y-64559717D01*
X58224898Y-64358097D01*
X58317693Y-64134069D01*
X58365000Y-63896243D01*
X58365000Y-63653757D01*
X58317693Y-63415931D01*
X58224898Y-63191903D01*
X58090180Y-62990283D01*
X57918717Y-62818820D01*
X57717097Y-62684102D01*
X57602832Y-62636772D01*
X57765252Y-62579157D01*
X58015355Y-62430178D01*
X58231588Y-62235269D01*
X58405641Y-62001920D01*
X58530825Y-61739099D01*
X58575476Y-61591890D01*
X58454155Y-61362000D01*
X57261000Y-61362000D01*
X57261000Y-61382000D01*
X57007000Y-61382000D01*
X57007000Y-61362000D01*
X56987000Y-61362000D01*
X56987000Y-61108000D01*
X57007000Y-61108000D01*
X57007000Y-61088000D01*
X57261000Y-61088000D01*
X57261000Y-61108000D01*
X58454155Y-61108000D01*
X58575476Y-60878110D01*
X58530825Y-60730901D01*
X58405641Y-60468080D01*
X58231588Y-60234731D01*
X58015355Y-60039822D01*
X57765252Y-59890843D01*
X57602832Y-59833228D01*
X57717097Y-59785898D01*
X57918717Y-59651180D01*
X58090180Y-59479717D01*
X58224898Y-59278097D01*
X58317693Y-59054069D01*
X58365000Y-58816243D01*
X58365000Y-58573757D01*
X58317693Y-58335931D01*
X58256732Y-58188757D01*
X118769000Y-58188757D01*
X118769000Y-58431243D01*
X118816307Y-58669069D01*
X118909102Y-58893097D01*
X119043820Y-59094717D01*
X119215283Y-59266180D01*
X119416903Y-59400898D01*
X119640931Y-59493693D01*
X119878757Y-59541000D01*
X120121243Y-59541000D01*
X120359069Y-59493693D01*
X120583097Y-59400898D01*
X120784717Y-59266180D01*
X120956180Y-59094717D01*
X121090898Y-58893097D01*
X121183693Y-58669069D01*
X121231000Y-58431243D01*
X121231000Y-58188757D01*
X121183693Y-57950931D01*
X121090898Y-57726903D01*
X120956180Y-57525283D01*
X120784717Y-57353820D01*
X120583097Y-57219102D01*
X120359069Y-57126307D01*
X120121243Y-57079000D01*
X119878757Y-57079000D01*
X119640931Y-57126307D01*
X119416903Y-57219102D01*
X119215283Y-57353820D01*
X119043820Y-57525283D01*
X118909102Y-57726903D01*
X118816307Y-57950931D01*
X118769000Y-58188757D01*
X58256732Y-58188757D01*
X58224898Y-58111903D01*
X58090180Y-57910283D01*
X57918717Y-57738820D01*
X57717097Y-57604102D01*
X57493069Y-57511307D01*
X57255243Y-57464000D01*
X57012757Y-57464000D01*
X56774931Y-57511307D01*
X56550903Y-57604102D01*
X56349283Y-57738820D01*
X56177820Y-57910283D01*
X56043102Y-58111903D01*
X55950307Y-58335931D01*
X55903000Y-58573757D01*
X55903000Y-58816243D01*
X55950307Y-59054069D01*
X56043102Y-59278097D01*
X56177820Y-59479717D01*
X56349283Y-59651180D01*
X56550903Y-59785898D01*
X56665168Y-59833228D01*
X56502748Y-59890843D01*
X56252645Y-60039822D01*
X56036412Y-60234731D01*
X55862359Y-60468080D01*
X55737175Y-60730901D01*
X55728909Y-60758154D01*
X55684898Y-60651903D01*
X55550180Y-60450283D01*
X55378717Y-60278820D01*
X55177097Y-60144102D01*
X54953069Y-60051307D01*
X54715243Y-60004000D01*
X54472757Y-60004000D01*
X54234931Y-60051307D01*
X54010903Y-60144102D01*
X53809283Y-60278820D01*
X53637820Y-60450283D01*
X53503102Y-60651903D01*
X53410307Y-60875931D01*
X53363000Y-61113757D01*
X50406000Y-61113757D01*
X50406000Y-39414000D01*
X51940543Y-39414000D01*
X51943000Y-39438944D01*
X51943001Y-56527046D01*
X51940543Y-56552000D01*
X51950352Y-56651584D01*
X51979400Y-56747343D01*
X52026571Y-56835595D01*
X52074150Y-56893570D01*
X52090053Y-56912948D01*
X52109430Y-56928850D01*
X53441413Y-58260833D01*
X53410307Y-58335931D01*
X53363000Y-58573757D01*
X53363000Y-58816243D01*
X53410307Y-59054069D01*
X53503102Y-59278097D01*
X53637820Y-59479717D01*
X53809283Y-59651180D01*
X54010903Y-59785898D01*
X54234931Y-59878693D01*
X54472757Y-59926000D01*
X54715243Y-59926000D01*
X54953069Y-59878693D01*
X55177097Y-59785898D01*
X55378717Y-59651180D01*
X55550180Y-59479717D01*
X55684898Y-59278097D01*
X55777693Y-59054069D01*
X55825000Y-58816243D01*
X55825000Y-58573757D01*
X55777693Y-58335931D01*
X55684898Y-58111903D01*
X55550180Y-57910283D01*
X55378717Y-57738820D01*
X55177097Y-57604102D01*
X54953069Y-57511307D01*
X54715243Y-57464000D01*
X54472757Y-57464000D01*
X54234931Y-57511307D01*
X54159833Y-57542413D01*
X52959000Y-56341580D01*
X52959000Y-56033757D01*
X53363000Y-56033757D01*
X53363000Y-56276243D01*
X53410307Y-56514069D01*
X53503102Y-56738097D01*
X53637820Y-56939717D01*
X53809283Y-57111180D01*
X54010903Y-57245898D01*
X54234931Y-57338693D01*
X54472757Y-57386000D01*
X54715243Y-57386000D01*
X54953069Y-57338693D01*
X55177097Y-57245898D01*
X55378717Y-57111180D01*
X55550180Y-56939717D01*
X55684898Y-56738097D01*
X55777693Y-56514069D01*
X55825000Y-56276243D01*
X55825000Y-56033757D01*
X55777693Y-55795931D01*
X55684898Y-55571903D01*
X55550180Y-55370283D01*
X55378717Y-55198820D01*
X55177097Y-55064102D01*
X54953069Y-54971307D01*
X54715243Y-54924000D01*
X54472757Y-54924000D01*
X54234931Y-54971307D01*
X54010903Y-55064102D01*
X53809283Y-55198820D01*
X53637820Y-55370283D01*
X53503102Y-55571903D01*
X53410307Y-55795931D01*
X53363000Y-56033757D01*
X52959000Y-56033757D01*
X52959000Y-53493757D01*
X53363000Y-53493757D01*
X53363000Y-53736243D01*
X53410307Y-53974069D01*
X53503102Y-54198097D01*
X53637820Y-54399717D01*
X53809283Y-54571180D01*
X54010903Y-54705898D01*
X54234931Y-54798693D01*
X54472757Y-54846000D01*
X54715243Y-54846000D01*
X54953069Y-54798693D01*
X55177097Y-54705898D01*
X55378717Y-54571180D01*
X55550180Y-54399717D01*
X55684898Y-54198097D01*
X55728909Y-54091846D01*
X55737175Y-54119099D01*
X55862359Y-54381920D01*
X56036412Y-54615269D01*
X56252645Y-54810178D01*
X56502748Y-54959157D01*
X56665168Y-55016772D01*
X56550903Y-55064102D01*
X56349283Y-55198820D01*
X56177820Y-55370283D01*
X56043102Y-55571903D01*
X55950307Y-55795931D01*
X55903000Y-56033757D01*
X55903000Y-56276243D01*
X55950307Y-56514069D01*
X56043102Y-56738097D01*
X56177820Y-56939717D01*
X56349283Y-57111180D01*
X56550903Y-57245898D01*
X56774931Y-57338693D01*
X57012757Y-57386000D01*
X57255243Y-57386000D01*
X57493069Y-57338693D01*
X57717097Y-57245898D01*
X57918717Y-57111180D01*
X58090180Y-56939717D01*
X58224898Y-56738097D01*
X58317693Y-56514069D01*
X58365000Y-56276243D01*
X58365000Y-56033757D01*
X58317693Y-55795931D01*
X58224898Y-55571903D01*
X58090180Y-55370283D01*
X57918717Y-55198820D01*
X57717097Y-55064102D01*
X57602832Y-55016772D01*
X57765252Y-54959157D01*
X58015355Y-54810178D01*
X58231588Y-54615269D01*
X58405641Y-54381920D01*
X58530825Y-54119099D01*
X58575476Y-53971890D01*
X58454155Y-53742000D01*
X57261000Y-53742000D01*
X57261000Y-53762000D01*
X57007000Y-53762000D01*
X57007000Y-53742000D01*
X56987000Y-53742000D01*
X56987000Y-53488000D01*
X57007000Y-53488000D01*
X57007000Y-53468000D01*
X57261000Y-53468000D01*
X57261000Y-53488000D01*
X58454155Y-53488000D01*
X58575476Y-53258110D01*
X58530825Y-53110901D01*
X58405641Y-52848080D01*
X58231588Y-52614731D01*
X58015355Y-52419822D01*
X57948503Y-52380000D01*
X118511928Y-52380000D01*
X118515000Y-52944250D01*
X118673750Y-53103000D01*
X119873000Y-53103000D01*
X119873000Y-51903750D01*
X120127000Y-51903750D01*
X120127000Y-53103000D01*
X121326250Y-53103000D01*
X121485000Y-52944250D01*
X121488072Y-52380000D01*
X121475812Y-52255518D01*
X121439502Y-52135820D01*
X121380537Y-52025506D01*
X121301185Y-51928815D01*
X121204494Y-51849463D01*
X121094180Y-51790498D01*
X120974482Y-51754188D01*
X120850000Y-51741928D01*
X120285750Y-51745000D01*
X120127000Y-51903750D01*
X119873000Y-51903750D01*
X119714250Y-51745000D01*
X119150000Y-51741928D01*
X119025518Y-51754188D01*
X118905820Y-51790498D01*
X118795506Y-51849463D01*
X118698815Y-51928815D01*
X118619463Y-52025506D01*
X118560498Y-52135820D01*
X118524188Y-52255518D01*
X118511928Y-52380000D01*
X57948503Y-52380000D01*
X57765252Y-52270843D01*
X57602832Y-52213228D01*
X57717097Y-52165898D01*
X57918717Y-52031180D01*
X58090180Y-51859717D01*
X58224898Y-51658097D01*
X58317693Y-51434069D01*
X58365000Y-51196243D01*
X58365000Y-50953757D01*
X58317693Y-50715931D01*
X58224898Y-50491903D01*
X58090180Y-50290283D01*
X57918717Y-50118820D01*
X57717097Y-49984102D01*
X57493069Y-49891307D01*
X57255243Y-49844000D01*
X57012757Y-49844000D01*
X56774931Y-49891307D01*
X56550903Y-49984102D01*
X56349283Y-50118820D01*
X56177820Y-50290283D01*
X56043102Y-50491903D01*
X55950307Y-50715931D01*
X55903000Y-50953757D01*
X55903000Y-51196243D01*
X55950307Y-51434069D01*
X56043102Y-51658097D01*
X56177820Y-51859717D01*
X56349283Y-52031180D01*
X56550903Y-52165898D01*
X56665168Y-52213228D01*
X56502748Y-52270843D01*
X56252645Y-52419822D01*
X56036412Y-52614731D01*
X55862359Y-52848080D01*
X55737175Y-53110901D01*
X55728909Y-53138154D01*
X55684898Y-53031903D01*
X55550180Y-52830283D01*
X55378717Y-52658820D01*
X55177097Y-52524102D01*
X54953069Y-52431307D01*
X54715243Y-52384000D01*
X54472757Y-52384000D01*
X54234931Y-52431307D01*
X54010903Y-52524102D01*
X53809283Y-52658820D01*
X53637820Y-52830283D01*
X53503102Y-53031903D01*
X53410307Y-53255931D01*
X53363000Y-53493757D01*
X52959000Y-53493757D01*
X52959000Y-48178110D01*
X53152524Y-48178110D01*
X53273845Y-48408000D01*
X54467000Y-48408000D01*
X54467000Y-48388000D01*
X54721000Y-48388000D01*
X54721000Y-48408000D01*
X54741000Y-48408000D01*
X54741000Y-48662000D01*
X54721000Y-48662000D01*
X54721000Y-48682000D01*
X54467000Y-48682000D01*
X54467000Y-48662000D01*
X53273845Y-48662000D01*
X53152524Y-48891890D01*
X53197175Y-49039099D01*
X53322359Y-49301920D01*
X53496412Y-49535269D01*
X53712645Y-49730178D01*
X53962748Y-49879157D01*
X54125168Y-49936772D01*
X54010903Y-49984102D01*
X53809283Y-50118820D01*
X53637820Y-50290283D01*
X53503102Y-50491903D01*
X53410307Y-50715931D01*
X53363000Y-50953757D01*
X53363000Y-51196243D01*
X53410307Y-51434069D01*
X53503102Y-51658097D01*
X53637820Y-51859717D01*
X53809283Y-52031180D01*
X54010903Y-52165898D01*
X54234931Y-52258693D01*
X54472757Y-52306000D01*
X54715243Y-52306000D01*
X54953069Y-52258693D01*
X55177097Y-52165898D01*
X55378717Y-52031180D01*
X55550180Y-51859717D01*
X55684898Y-51658097D01*
X55777693Y-51434069D01*
X55825000Y-51196243D01*
X55825000Y-50953757D01*
X55777693Y-50715931D01*
X55684898Y-50491903D01*
X55550180Y-50290283D01*
X55378717Y-50118820D01*
X55177097Y-49984102D01*
X55062832Y-49936772D01*
X55225252Y-49879157D01*
X55475355Y-49730178D01*
X55691588Y-49535269D01*
X55865641Y-49301920D01*
X55990825Y-49039099D01*
X55999091Y-49011846D01*
X56043102Y-49118097D01*
X56177820Y-49319717D01*
X56349283Y-49491180D01*
X56550903Y-49625898D01*
X56774931Y-49718693D01*
X57012757Y-49766000D01*
X57255243Y-49766000D01*
X57493069Y-49718693D01*
X57717097Y-49625898D01*
X57918717Y-49491180D01*
X58090180Y-49319717D01*
X58224898Y-49118097D01*
X58317693Y-48894069D01*
X58365000Y-48656243D01*
X58365000Y-48413757D01*
X58317693Y-48175931D01*
X58224898Y-47951903D01*
X58090180Y-47750283D01*
X57918717Y-47578820D01*
X57717097Y-47444102D01*
X57493069Y-47351307D01*
X57255243Y-47304000D01*
X57012757Y-47304000D01*
X56774931Y-47351307D01*
X56550903Y-47444102D01*
X56349283Y-47578820D01*
X56177820Y-47750283D01*
X56043102Y-47951903D01*
X55999091Y-48058154D01*
X55990825Y-48030901D01*
X55865641Y-47768080D01*
X55691588Y-47534731D01*
X55475355Y-47339822D01*
X55225252Y-47190843D01*
X55062832Y-47133228D01*
X55177097Y-47085898D01*
X55378717Y-46951180D01*
X55550180Y-46779717D01*
X55684898Y-46578097D01*
X55777693Y-46354069D01*
X55825000Y-46116243D01*
X55825000Y-45873757D01*
X55777693Y-45635931D01*
X55684898Y-45411903D01*
X55550180Y-45210283D01*
X55378717Y-45038820D01*
X55177097Y-44904102D01*
X54953069Y-44811307D01*
X54715243Y-44764000D01*
X54472757Y-44764000D01*
X54234931Y-44811307D01*
X54010903Y-44904102D01*
X53809283Y-45038820D01*
X53637820Y-45210283D01*
X53503102Y-45411903D01*
X53410307Y-45635931D01*
X53363000Y-45873757D01*
X53363000Y-46116243D01*
X53410307Y-46354069D01*
X53503102Y-46578097D01*
X53637820Y-46779717D01*
X53809283Y-46951180D01*
X54010903Y-47085898D01*
X54125168Y-47133228D01*
X53962748Y-47190843D01*
X53712645Y-47339822D01*
X53496412Y-47534731D01*
X53322359Y-47768080D01*
X53197175Y-48030901D01*
X53152524Y-48178110D01*
X52959000Y-48178110D01*
X52959000Y-43333757D01*
X53363000Y-43333757D01*
X53363000Y-43576243D01*
X53410307Y-43814069D01*
X53503102Y-44038097D01*
X53637820Y-44239717D01*
X53809283Y-44411180D01*
X54010903Y-44545898D01*
X54234931Y-44638693D01*
X54472757Y-44686000D01*
X54715243Y-44686000D01*
X54953069Y-44638693D01*
X55177097Y-44545898D01*
X55378717Y-44411180D01*
X55550180Y-44239717D01*
X55684898Y-44038097D01*
X55728909Y-43931846D01*
X55737175Y-43959099D01*
X55862359Y-44221920D01*
X56036412Y-44455269D01*
X56252645Y-44650178D01*
X56502748Y-44799157D01*
X56665168Y-44856772D01*
X56550903Y-44904102D01*
X56349283Y-45038820D01*
X56177820Y-45210283D01*
X56043102Y-45411903D01*
X55950307Y-45635931D01*
X55903000Y-45873757D01*
X55903000Y-46116243D01*
X55950307Y-46354069D01*
X56043102Y-46578097D01*
X56177820Y-46779717D01*
X56349283Y-46951180D01*
X56550903Y-47085898D01*
X56774931Y-47178693D01*
X57012757Y-47226000D01*
X57255243Y-47226000D01*
X57493069Y-47178693D01*
X57717097Y-47085898D01*
X57918717Y-46951180D01*
X58090180Y-46779717D01*
X58224898Y-46578097D01*
X58317693Y-46354069D01*
X58365000Y-46116243D01*
X58365000Y-45873757D01*
X58317693Y-45635931D01*
X58224898Y-45411903D01*
X58090180Y-45210283D01*
X57918717Y-45038820D01*
X57717097Y-44904102D01*
X57602832Y-44856772D01*
X57765252Y-44799157D01*
X58015355Y-44650178D01*
X58231588Y-44455269D01*
X58405641Y-44221920D01*
X58530825Y-43959099D01*
X58575476Y-43811890D01*
X58454155Y-43582000D01*
X57261000Y-43582000D01*
X57261000Y-43602000D01*
X57007000Y-43602000D01*
X57007000Y-43582000D01*
X56987000Y-43582000D01*
X56987000Y-43328000D01*
X57007000Y-43328000D01*
X57007000Y-43308000D01*
X57261000Y-43308000D01*
X57261000Y-43328000D01*
X58454155Y-43328000D01*
X58575476Y-43098110D01*
X58530825Y-42950901D01*
X58405641Y-42688080D01*
X58231588Y-42454731D01*
X58015355Y-42259822D01*
X57765252Y-42110843D01*
X57602832Y-42053228D01*
X57717097Y-42005898D01*
X57918717Y-41871180D01*
X58090180Y-41699717D01*
X58224898Y-41498097D01*
X58317693Y-41274069D01*
X58365000Y-41036243D01*
X58365000Y-40793757D01*
X58317693Y-40555931D01*
X58224898Y-40331903D01*
X58090180Y-40130283D01*
X57918717Y-39958820D01*
X57717097Y-39824102D01*
X57642000Y-39792996D01*
X57642000Y-39497004D01*
X57717097Y-39465898D01*
X57918717Y-39331180D01*
X58090180Y-39159717D01*
X58224898Y-38958097D01*
X58317693Y-38734069D01*
X58365000Y-38496243D01*
X58365000Y-38253757D01*
X58317693Y-38015931D01*
X58224898Y-37791903D01*
X58090180Y-37590283D01*
X57918717Y-37418820D01*
X57717097Y-37284102D01*
X57493069Y-37191307D01*
X57255243Y-37144000D01*
X57012757Y-37144000D01*
X56774931Y-37191307D01*
X56550903Y-37284102D01*
X56349283Y-37418820D01*
X56177820Y-37590283D01*
X56043102Y-37791903D01*
X55950307Y-38015931D01*
X55903000Y-38253757D01*
X55903000Y-38496243D01*
X55950307Y-38734069D01*
X56043102Y-38958097D01*
X56177820Y-39159717D01*
X56349283Y-39331180D01*
X56550903Y-39465898D01*
X56626000Y-39497004D01*
X56626001Y-39792996D01*
X56550903Y-39824102D01*
X56349283Y-39958820D01*
X56177820Y-40130283D01*
X56043102Y-40331903D01*
X55950307Y-40555931D01*
X55903000Y-40793757D01*
X55903000Y-41036243D01*
X55950307Y-41274069D01*
X56043102Y-41498097D01*
X56177820Y-41699717D01*
X56349283Y-41871180D01*
X56550903Y-42005898D01*
X56665168Y-42053228D01*
X56502748Y-42110843D01*
X56252645Y-42259822D01*
X56036412Y-42454731D01*
X55862359Y-42688080D01*
X55737175Y-42950901D01*
X55728909Y-42978154D01*
X55684898Y-42871903D01*
X55550180Y-42670283D01*
X55378717Y-42498820D01*
X55177097Y-42364102D01*
X54953069Y-42271307D01*
X54715243Y-42224000D01*
X54472757Y-42224000D01*
X54234931Y-42271307D01*
X54010903Y-42364102D01*
X53809283Y-42498820D01*
X53637820Y-42670283D01*
X53503102Y-42871903D01*
X53410307Y-43095931D01*
X53363000Y-43333757D01*
X52959000Y-43333757D01*
X52959000Y-40793757D01*
X53363000Y-40793757D01*
X53363000Y-41036243D01*
X53410307Y-41274069D01*
X53503102Y-41498097D01*
X53637820Y-41699717D01*
X53809283Y-41871180D01*
X54010903Y-42005898D01*
X54234931Y-42098693D01*
X54472757Y-42146000D01*
X54715243Y-42146000D01*
X54953069Y-42098693D01*
X55177097Y-42005898D01*
X55378717Y-41871180D01*
X55550180Y-41699717D01*
X55684898Y-41498097D01*
X55777693Y-41274069D01*
X55825000Y-41036243D01*
X55825000Y-40793757D01*
X55777693Y-40555931D01*
X55684898Y-40331903D01*
X55550180Y-40130283D01*
X55378717Y-39958820D01*
X55177097Y-39824102D01*
X54953069Y-39731307D01*
X54715243Y-39684000D01*
X54472757Y-39684000D01*
X54234931Y-39731307D01*
X54010903Y-39824102D01*
X53809283Y-39958820D01*
X53637820Y-40130283D01*
X53503102Y-40331903D01*
X53410307Y-40555931D01*
X53363000Y-40793757D01*
X52959000Y-40793757D01*
X52959000Y-39624420D01*
X53361157Y-39222263D01*
X53361157Y-39225000D01*
X53368513Y-39299689D01*
X53390299Y-39371508D01*
X53425678Y-39437696D01*
X53473289Y-39495711D01*
X53531304Y-39543322D01*
X53597492Y-39578701D01*
X53669311Y-39600487D01*
X53744000Y-39607843D01*
X55444000Y-39607843D01*
X55518689Y-39600487D01*
X55590508Y-39578701D01*
X55656696Y-39543322D01*
X55714711Y-39495711D01*
X55762322Y-39437696D01*
X55797701Y-39371508D01*
X55819487Y-39299689D01*
X55826843Y-39225000D01*
X55826843Y-37525000D01*
X55819487Y-37450311D01*
X55797701Y-37378492D01*
X55762322Y-37312304D01*
X55714711Y-37254289D01*
X55656696Y-37206678D01*
X55590508Y-37171299D01*
X55518689Y-37149513D01*
X55444000Y-37142157D01*
X55441264Y-37142157D01*
X55499421Y-37084000D01*
X69004580Y-37084000D01*
X76562000Y-44641420D01*
X76562000Y-44780922D01*
X76592013Y-44931809D01*
X76650887Y-45073942D01*
X76736358Y-45201859D01*
X76845141Y-45310642D01*
X76973058Y-45396113D01*
X77115191Y-45454987D01*
X77266078Y-45485000D01*
X77419922Y-45485000D01*
X77570809Y-45454987D01*
X77712942Y-45396113D01*
X77840859Y-45310642D01*
X77949642Y-45201859D01*
X78035113Y-45073942D01*
X78093987Y-44931809D01*
X78124000Y-44780922D01*
X78124000Y-44698757D01*
X118769000Y-44698757D01*
X118769000Y-44941243D01*
X118816307Y-45179069D01*
X118909102Y-45403097D01*
X119043820Y-45604717D01*
X119215283Y-45776180D01*
X119416903Y-45910898D01*
X119640931Y-46003693D01*
X119878757Y-46051000D01*
X120121243Y-46051000D01*
X120359069Y-46003693D01*
X120583097Y-45910898D01*
X120784717Y-45776180D01*
X120956180Y-45604717D01*
X121090898Y-45403097D01*
X121183693Y-45179069D01*
X121231000Y-44941243D01*
X121231000Y-44698757D01*
X121183693Y-44460931D01*
X121090898Y-44236903D01*
X120956180Y-44035283D01*
X120784717Y-43863820D01*
X120583097Y-43729102D01*
X120359069Y-43636307D01*
X120121243Y-43589000D01*
X119878757Y-43589000D01*
X119640931Y-43636307D01*
X119416903Y-43729102D01*
X119215283Y-43863820D01*
X119043820Y-44035283D01*
X118909102Y-44236903D01*
X118816307Y-44460931D01*
X118769000Y-44698757D01*
X78124000Y-44698757D01*
X78124000Y-44627078D01*
X78093987Y-44476191D01*
X78035113Y-44334058D01*
X77949642Y-44206141D01*
X77840859Y-44097358D01*
X77712942Y-44011887D01*
X77570809Y-43953013D01*
X77419922Y-43923000D01*
X77280420Y-43923000D01*
X72247420Y-38890000D01*
X118511928Y-38890000D01*
X118515000Y-39454250D01*
X118673750Y-39613000D01*
X119873000Y-39613000D01*
X119873000Y-38413750D01*
X119714250Y-38255000D01*
X119150000Y-38251928D01*
X119025518Y-38264188D01*
X118905820Y-38300498D01*
X118795506Y-38359463D01*
X118698815Y-38438815D01*
X118619463Y-38535506D01*
X118560498Y-38645820D01*
X118524188Y-38765518D01*
X118511928Y-38890000D01*
X72247420Y-38890000D01*
X69591855Y-36234435D01*
X69575948Y-36215052D01*
X69498595Y-36151571D01*
X69410343Y-36104399D01*
X69314585Y-36075351D01*
X69239947Y-36068000D01*
X69239944Y-36068000D01*
X69215000Y-36065543D01*
X69190056Y-36068000D01*
X55313943Y-36068000D01*
X55288999Y-36065543D01*
X55264055Y-36068000D01*
X55264053Y-36068000D01*
X55189415Y-36075351D01*
X55093657Y-36104399D01*
X55093655Y-36104400D01*
X55005404Y-36151571D01*
X54950810Y-36196376D01*
X54928052Y-36215052D01*
X54912149Y-36234430D01*
X54252430Y-36894150D01*
X54233053Y-36910052D01*
X54217151Y-36929429D01*
X54217150Y-36929430D01*
X54169571Y-36987405D01*
X54162610Y-37000429D01*
X54122400Y-37075657D01*
X54102227Y-37142157D01*
X53744000Y-37142157D01*
X53669311Y-37149513D01*
X53597492Y-37171299D01*
X53531304Y-37206678D01*
X53473289Y-37254289D01*
X53425678Y-37312304D01*
X53390299Y-37378492D01*
X53368513Y-37450311D01*
X53361157Y-37525000D01*
X53361157Y-37883226D01*
X53294657Y-37903399D01*
X53206405Y-37950571D01*
X53129052Y-38014052D01*
X53113145Y-38033435D01*
X52109435Y-39037145D01*
X52090052Y-39053052D01*
X52026571Y-39130405D01*
X51979399Y-39218658D01*
X51950351Y-39314416D01*
X51944728Y-39371508D01*
X51940543Y-39414000D01*
X50406000Y-39414000D01*
X50406000Y-29681774D01*
X51769000Y-29681774D01*
X51769000Y-30318226D01*
X51893166Y-30942448D01*
X52136725Y-31530452D01*
X52490319Y-32059642D01*
X52940358Y-32509681D01*
X53469548Y-32863275D01*
X54057552Y-33106834D01*
X54681774Y-33231000D01*
X55318226Y-33231000D01*
X55942448Y-33106834D01*
X56530452Y-32863275D01*
X57059642Y-32509681D01*
X57509681Y-32059642D01*
X57863275Y-31530452D01*
X58106834Y-30942448D01*
X58231000Y-30318226D01*
X58231000Y-29878757D01*
X63479000Y-29878757D01*
X63479000Y-30121243D01*
X63526307Y-30359069D01*
X63619102Y-30583097D01*
X63753820Y-30784717D01*
X63925283Y-30956180D01*
X64126903Y-31090898D01*
X64350931Y-31183693D01*
X64588757Y-31231000D01*
X64831243Y-31231000D01*
X65069069Y-31183693D01*
X65293097Y-31090898D01*
X65494717Y-30956180D01*
X65666180Y-30784717D01*
X65800898Y-30583097D01*
X65893693Y-30359069D01*
X65941000Y-30121243D01*
X65941000Y-29878757D01*
X66019000Y-29878757D01*
X66019000Y-30121243D01*
X66066307Y-30359069D01*
X66159102Y-30583097D01*
X66293820Y-30784717D01*
X66465283Y-30956180D01*
X66666903Y-31090898D01*
X66890931Y-31183693D01*
X67128757Y-31231000D01*
X67371243Y-31231000D01*
X67609069Y-31183693D01*
X67833097Y-31090898D01*
X68034717Y-30956180D01*
X68206180Y-30784717D01*
X68303073Y-30639706D01*
X68301928Y-30850000D01*
X68314188Y-30974482D01*
X68350498Y-31094180D01*
X68409463Y-31204494D01*
X68488815Y-31301185D01*
X68585506Y-31380537D01*
X68695820Y-31439502D01*
X68815518Y-31475812D01*
X68940000Y-31488072D01*
X69504250Y-31485000D01*
X69663000Y-31326250D01*
X69663000Y-30127000D01*
X69917000Y-30127000D01*
X69917000Y-31326250D01*
X70075750Y-31485000D01*
X70640000Y-31488072D01*
X70764482Y-31475812D01*
X70884180Y-31439502D01*
X70994494Y-31380537D01*
X71091185Y-31301185D01*
X71170537Y-31204494D01*
X71229502Y-31094180D01*
X71265812Y-30974482D01*
X71278072Y-30850000D01*
X71275000Y-30285750D01*
X71116250Y-30127000D01*
X69917000Y-30127000D01*
X69663000Y-30127000D01*
X69643000Y-30127000D01*
X69643000Y-29878757D01*
X76969000Y-29878757D01*
X76969000Y-30121243D01*
X77016307Y-30359069D01*
X77109102Y-30583097D01*
X77243820Y-30784717D01*
X77415283Y-30956180D01*
X77616903Y-31090898D01*
X77840931Y-31183693D01*
X78078757Y-31231000D01*
X78321243Y-31231000D01*
X78559069Y-31183693D01*
X78783097Y-31090898D01*
X78984717Y-30956180D01*
X79156180Y-30784717D01*
X79290898Y-30583097D01*
X79383693Y-30359069D01*
X79431000Y-30121243D01*
X79431000Y-29878757D01*
X79383693Y-29640931D01*
X79290898Y-29416903D01*
X79156180Y-29215283D01*
X78984717Y-29043820D01*
X78783097Y-28909102D01*
X78559069Y-28816307D01*
X78321243Y-28769000D01*
X78078757Y-28769000D01*
X77840931Y-28816307D01*
X77616903Y-28909102D01*
X77415283Y-29043820D01*
X77243820Y-29215283D01*
X77109102Y-29416903D01*
X77016307Y-29640931D01*
X76969000Y-29878757D01*
X69643000Y-29878757D01*
X69643000Y-29873000D01*
X69663000Y-29873000D01*
X69663000Y-28673750D01*
X69917000Y-28673750D01*
X69917000Y-29873000D01*
X71116250Y-29873000D01*
X71275000Y-29714250D01*
X71278072Y-29150000D01*
X71265812Y-29025518D01*
X71229502Y-28905820D01*
X71170537Y-28795506D01*
X71091185Y-28698815D01*
X70994494Y-28619463D01*
X70884180Y-28560498D01*
X70764482Y-28524188D01*
X70640000Y-28511928D01*
X70075750Y-28515000D01*
X69917000Y-28673750D01*
X69663000Y-28673750D01*
X69504250Y-28515000D01*
X69151286Y-28513078D01*
X69470365Y-28194000D01*
X79766769Y-28194000D01*
X79678897Y-28358396D01*
X79613539Y-28573852D01*
X79597000Y-28741773D01*
X79597000Y-28741780D01*
X79591471Y-28797919D01*
X79597000Y-28854058D01*
X79597000Y-29542689D01*
X79556307Y-29640931D01*
X79509000Y-29878757D01*
X79509000Y-30121243D01*
X79556307Y-30359069D01*
X79649102Y-30583097D01*
X79783820Y-30784717D01*
X79955283Y-30956180D01*
X80156903Y-31090898D01*
X80380931Y-31183693D01*
X80618757Y-31231000D01*
X80861243Y-31231000D01*
X81099069Y-31183693D01*
X81323097Y-31090898D01*
X81524717Y-30956180D01*
X81696180Y-30784717D01*
X81793073Y-30639706D01*
X81791928Y-30850000D01*
X81804188Y-30974482D01*
X81840498Y-31094180D01*
X81899463Y-31204494D01*
X81978815Y-31301185D01*
X82075506Y-31380537D01*
X82185820Y-31439502D01*
X82305518Y-31475812D01*
X82430000Y-31488072D01*
X82994250Y-31485000D01*
X83153000Y-31326250D01*
X83153000Y-30127000D01*
X83407000Y-30127000D01*
X83407000Y-31326250D01*
X83565750Y-31485000D01*
X84130000Y-31488072D01*
X84254482Y-31475812D01*
X84374180Y-31439502D01*
X84484494Y-31380537D01*
X84581185Y-31301185D01*
X84660537Y-31204494D01*
X84719502Y-31094180D01*
X84755812Y-30974482D01*
X84768072Y-30850000D01*
X84765000Y-30285750D01*
X84606250Y-30127000D01*
X83407000Y-30127000D01*
X83153000Y-30127000D01*
X83133000Y-30127000D01*
X83133000Y-29878757D01*
X90459000Y-29878757D01*
X90459000Y-30121243D01*
X90506307Y-30359069D01*
X90599102Y-30583097D01*
X90733820Y-30784717D01*
X90905283Y-30956180D01*
X91106903Y-31090898D01*
X91330931Y-31183693D01*
X91568757Y-31231000D01*
X91811243Y-31231000D01*
X92049069Y-31183693D01*
X92273097Y-31090898D01*
X92474717Y-30956180D01*
X92646180Y-30784717D01*
X92780898Y-30583097D01*
X92873693Y-30359069D01*
X92921000Y-30121243D01*
X92921000Y-29878757D01*
X92873693Y-29640931D01*
X92780898Y-29416903D01*
X92646180Y-29215283D01*
X92474717Y-29043820D01*
X92273097Y-28909102D01*
X92049069Y-28816307D01*
X91811243Y-28769000D01*
X91568757Y-28769000D01*
X91330931Y-28816307D01*
X91106903Y-28909102D01*
X90905283Y-29043820D01*
X90733820Y-29215283D01*
X90599102Y-29416903D01*
X90506307Y-29640931D01*
X90459000Y-29878757D01*
X83133000Y-29878757D01*
X83133000Y-29873000D01*
X83153000Y-29873000D01*
X83153000Y-28673750D01*
X83407000Y-28673750D01*
X83407000Y-29873000D01*
X84606250Y-29873000D01*
X84765000Y-29714250D01*
X84768072Y-29150000D01*
X84755812Y-29025518D01*
X84719502Y-28905820D01*
X84660537Y-28795506D01*
X84581185Y-28698815D01*
X84484494Y-28619463D01*
X84374180Y-28560498D01*
X84254482Y-28524188D01*
X84130000Y-28511928D01*
X83565750Y-28515000D01*
X83407000Y-28673750D01*
X83153000Y-28673750D01*
X82994250Y-28515000D01*
X82641286Y-28513078D01*
X82960365Y-28194000D01*
X93256769Y-28194000D01*
X93168897Y-28358396D01*
X93103539Y-28573852D01*
X93087000Y-28741773D01*
X93087000Y-28741780D01*
X93081471Y-28797919D01*
X93087000Y-28854058D01*
X93087000Y-29542689D01*
X93046307Y-29640931D01*
X92999000Y-29878757D01*
X92999000Y-30121243D01*
X93046307Y-30359069D01*
X93139102Y-30583097D01*
X93273820Y-30784717D01*
X93445283Y-30956180D01*
X93646903Y-31090898D01*
X93870931Y-31183693D01*
X94108757Y-31231000D01*
X94351243Y-31231000D01*
X94589069Y-31183693D01*
X94813097Y-31090898D01*
X95014717Y-30956180D01*
X95186180Y-30784717D01*
X95283073Y-30639706D01*
X95281928Y-30850000D01*
X95294188Y-30974482D01*
X95330498Y-31094180D01*
X95389463Y-31204494D01*
X95468815Y-31301185D01*
X95565506Y-31380537D01*
X95675820Y-31439502D01*
X95795518Y-31475812D01*
X95920000Y-31488072D01*
X96484250Y-31485000D01*
X96643000Y-31326250D01*
X96643000Y-30127000D01*
X96897000Y-30127000D01*
X96897000Y-31326250D01*
X97055750Y-31485000D01*
X97620000Y-31488072D01*
X97744482Y-31475812D01*
X97864180Y-31439502D01*
X97974494Y-31380537D01*
X98071185Y-31301185D01*
X98150537Y-31204494D01*
X98209502Y-31094180D01*
X98245812Y-30974482D01*
X98258072Y-30850000D01*
X98255000Y-30285750D01*
X98096250Y-30127000D01*
X96897000Y-30127000D01*
X96643000Y-30127000D01*
X96623000Y-30127000D01*
X96623000Y-29878757D01*
X103949000Y-29878757D01*
X103949000Y-30121243D01*
X103996307Y-30359069D01*
X104089102Y-30583097D01*
X104223820Y-30784717D01*
X104395283Y-30956180D01*
X104596903Y-31090898D01*
X104820931Y-31183693D01*
X105058757Y-31231000D01*
X105301243Y-31231000D01*
X105539069Y-31183693D01*
X105763097Y-31090898D01*
X105964717Y-30956180D01*
X106136180Y-30784717D01*
X106270898Y-30583097D01*
X106363693Y-30359069D01*
X106411000Y-30121243D01*
X106411000Y-29878757D01*
X106363693Y-29640931D01*
X106270898Y-29416903D01*
X106136180Y-29215283D01*
X105964717Y-29043820D01*
X105763097Y-28909102D01*
X105539069Y-28816307D01*
X105301243Y-28769000D01*
X105058757Y-28769000D01*
X104820931Y-28816307D01*
X104596903Y-28909102D01*
X104395283Y-29043820D01*
X104223820Y-29215283D01*
X104089102Y-29416903D01*
X103996307Y-29640931D01*
X103949000Y-29878757D01*
X96623000Y-29878757D01*
X96623000Y-29873000D01*
X96643000Y-29873000D01*
X96643000Y-28673750D01*
X96897000Y-28673750D01*
X96897000Y-29873000D01*
X98096250Y-29873000D01*
X98255000Y-29714250D01*
X98258072Y-29150000D01*
X98245812Y-29025518D01*
X98209502Y-28905820D01*
X98150537Y-28795506D01*
X98071185Y-28698815D01*
X97974494Y-28619463D01*
X97864180Y-28560498D01*
X97744482Y-28524188D01*
X97620000Y-28511928D01*
X97055750Y-28515000D01*
X96897000Y-28673750D01*
X96643000Y-28673750D01*
X96484250Y-28515000D01*
X96131286Y-28513078D01*
X96450365Y-28194000D01*
X106746769Y-28194000D01*
X106658897Y-28358396D01*
X106593539Y-28573852D01*
X106577000Y-28741773D01*
X106577000Y-28741780D01*
X106571471Y-28797919D01*
X106577000Y-28854058D01*
X106577000Y-29542689D01*
X106536307Y-29640931D01*
X106489000Y-29878757D01*
X106489000Y-30121243D01*
X106536307Y-30359069D01*
X106629102Y-30583097D01*
X106763820Y-30784717D01*
X106935283Y-30956180D01*
X107136903Y-31090898D01*
X107360931Y-31183693D01*
X107598757Y-31231000D01*
X107841243Y-31231000D01*
X108079069Y-31183693D01*
X108303097Y-31090898D01*
X108504717Y-30956180D01*
X108676180Y-30784717D01*
X108773073Y-30639706D01*
X108771928Y-30850000D01*
X108784188Y-30974482D01*
X108820498Y-31094180D01*
X108879463Y-31204494D01*
X108958815Y-31301185D01*
X109055506Y-31380537D01*
X109165820Y-31439502D01*
X109285518Y-31475812D01*
X109410000Y-31488072D01*
X109974250Y-31485000D01*
X110133000Y-31326250D01*
X110133000Y-30127000D01*
X110387000Y-30127000D01*
X110387000Y-31326250D01*
X110545750Y-31485000D01*
X111110000Y-31488072D01*
X111234482Y-31475812D01*
X111354180Y-31439502D01*
X111464494Y-31380537D01*
X111561185Y-31301185D01*
X111640537Y-31204494D01*
X111699502Y-31094180D01*
X111735812Y-30974482D01*
X111748072Y-30850000D01*
X111745000Y-30285750D01*
X111586250Y-30127000D01*
X110387000Y-30127000D01*
X110133000Y-30127000D01*
X110113000Y-30127000D01*
X110113000Y-29873000D01*
X110133000Y-29873000D01*
X110133000Y-28673750D01*
X109974250Y-28515000D01*
X109621286Y-28513078D01*
X109940365Y-28194000D01*
X110651555Y-28194000D01*
X110970244Y-28512689D01*
X110545750Y-28515000D01*
X110387000Y-28673750D01*
X110387000Y-29873000D01*
X111586250Y-29873000D01*
X111745000Y-29714250D01*
X111747311Y-29289756D01*
X120710243Y-38252689D01*
X120285750Y-38255000D01*
X120127000Y-38413750D01*
X120127000Y-39613000D01*
X121326250Y-39613000D01*
X121485000Y-39454250D01*
X121487311Y-39029757D01*
X121793001Y-39335447D01*
X121793000Y-41299820D01*
X121641604Y-41218897D01*
X121426148Y-41153539D01*
X121258227Y-41137000D01*
X121258220Y-41137000D01*
X121202081Y-41131471D01*
X121179963Y-41133649D01*
X121204494Y-41120537D01*
X121301185Y-41041185D01*
X121380537Y-40944494D01*
X121439502Y-40834180D01*
X121475812Y-40714482D01*
X121488072Y-40590000D01*
X121485000Y-40025750D01*
X121326250Y-39867000D01*
X120127000Y-39867000D01*
X120127000Y-39887000D01*
X119873000Y-39887000D01*
X119873000Y-39867000D01*
X118673750Y-39867000D01*
X118515000Y-40025750D01*
X118511928Y-40590000D01*
X118524188Y-40714482D01*
X118560498Y-40834180D01*
X118619463Y-40944494D01*
X118698815Y-41041185D01*
X118795506Y-41120537D01*
X118905820Y-41179502D01*
X119025518Y-41215812D01*
X119150000Y-41228072D01*
X119360294Y-41226927D01*
X119215283Y-41323820D01*
X119043820Y-41495283D01*
X118909102Y-41696903D01*
X118816307Y-41920931D01*
X118769000Y-42158757D01*
X118769000Y-42401243D01*
X118816307Y-42639069D01*
X118909102Y-42863097D01*
X119043820Y-43064717D01*
X119215283Y-43236180D01*
X119416903Y-43370898D01*
X119640931Y-43463693D01*
X119878757Y-43511000D01*
X120121243Y-43511000D01*
X120359069Y-43463693D01*
X120457311Y-43423000D01*
X120728636Y-43423000D01*
X121793000Y-44487365D01*
X121793000Y-46157145D01*
X121793001Y-46157155D01*
X121793000Y-54789819D01*
X121641604Y-54708897D01*
X121426148Y-54643539D01*
X121258227Y-54627000D01*
X121258220Y-54627000D01*
X121202081Y-54621471D01*
X121179963Y-54623649D01*
X121204494Y-54610537D01*
X121301185Y-54531185D01*
X121380537Y-54434494D01*
X121439502Y-54324180D01*
X121475812Y-54204482D01*
X121488072Y-54080000D01*
X121485000Y-53515750D01*
X121326250Y-53357000D01*
X120127000Y-53357000D01*
X120127000Y-53377000D01*
X119873000Y-53377000D01*
X119873000Y-53357000D01*
X118673750Y-53357000D01*
X118515000Y-53515750D01*
X118511928Y-54080000D01*
X118524188Y-54204482D01*
X118560498Y-54324180D01*
X118619463Y-54434494D01*
X118698815Y-54531185D01*
X118795506Y-54610537D01*
X118905820Y-54669502D01*
X119025518Y-54705812D01*
X119150000Y-54718072D01*
X119360294Y-54716927D01*
X119215283Y-54813820D01*
X119043820Y-54985283D01*
X118909102Y-55186903D01*
X118816307Y-55410931D01*
X118769000Y-55648757D01*
X118769000Y-55891243D01*
X118816307Y-56129069D01*
X118909102Y-56353097D01*
X119043820Y-56554717D01*
X119215283Y-56726180D01*
X119416903Y-56860898D01*
X119640931Y-56953693D01*
X119878757Y-57001000D01*
X120121243Y-57001000D01*
X120359069Y-56953693D01*
X120457311Y-56913000D01*
X120728636Y-56913000D01*
X121793000Y-57977365D01*
X121793000Y-59365145D01*
X121793001Y-59365155D01*
X121793000Y-68279819D01*
X121641604Y-68198897D01*
X121426148Y-68133539D01*
X121258227Y-68117000D01*
X121258220Y-68117000D01*
X121202081Y-68111471D01*
X121179963Y-68113649D01*
X121204494Y-68100537D01*
X121301185Y-68021185D01*
X121380537Y-67924494D01*
X121439502Y-67814180D01*
X121475812Y-67694482D01*
X121488072Y-67570000D01*
X121485000Y-67005750D01*
X121326250Y-66847000D01*
X120127000Y-66847000D01*
X120127000Y-66867000D01*
X119873000Y-66867000D01*
X119873000Y-66847000D01*
X118673750Y-66847000D01*
X118515000Y-67005750D01*
X118511928Y-67570000D01*
X118524188Y-67694482D01*
X118560498Y-67814180D01*
X118619463Y-67924494D01*
X118698815Y-68021185D01*
X118795506Y-68100537D01*
X118905820Y-68159502D01*
X119025518Y-68195812D01*
X119150000Y-68208072D01*
X119360294Y-68206927D01*
X119215283Y-68303820D01*
X119043820Y-68475283D01*
X118909102Y-68676903D01*
X118816307Y-68900931D01*
X118769000Y-69138757D01*
X118769000Y-69381243D01*
X118816307Y-69619069D01*
X118909102Y-69843097D01*
X119043820Y-70044717D01*
X119215283Y-70216180D01*
X119416903Y-70350898D01*
X119640931Y-70443693D01*
X119878757Y-70491000D01*
X120121243Y-70491000D01*
X120359069Y-70443693D01*
X120457311Y-70403000D01*
X120728636Y-70403000D01*
X121793001Y-71467366D01*
X121793000Y-81769819D01*
X121641604Y-81688897D01*
X121426148Y-81623539D01*
X121258227Y-81607000D01*
X121258220Y-81607000D01*
X121202081Y-81601471D01*
X121179963Y-81603649D01*
X121204494Y-81590537D01*
X121301185Y-81511185D01*
X121380537Y-81414494D01*
X121439502Y-81304180D01*
X121475812Y-81184482D01*
X121488072Y-81060000D01*
X121485000Y-80495750D01*
X121326250Y-80337000D01*
X120127000Y-80337000D01*
X120127000Y-80357000D01*
X119873000Y-80357000D01*
X119873000Y-80337000D01*
X118673750Y-80337000D01*
X118515000Y-80495750D01*
X118511928Y-81060000D01*
X118524188Y-81184482D01*
X118560498Y-81304180D01*
X118619463Y-81414494D01*
X118698815Y-81511185D01*
X118795506Y-81590537D01*
X118905820Y-81649502D01*
X119025518Y-81685812D01*
X119150000Y-81698072D01*
X119360294Y-81696927D01*
X119215283Y-81793820D01*
X119043820Y-81965283D01*
X118909102Y-82166903D01*
X118816307Y-82390931D01*
X118769000Y-82628757D01*
X118769000Y-82871243D01*
X118816307Y-83109069D01*
X118909102Y-83333097D01*
X119043820Y-83534717D01*
X119215283Y-83706180D01*
X119416903Y-83840898D01*
X119640931Y-83933693D01*
X119878757Y-83981000D01*
X120121243Y-83981000D01*
X120359069Y-83933693D01*
X120457311Y-83893000D01*
X120728636Y-83893000D01*
X121793000Y-84957365D01*
X121793000Y-86394554D01*
X119576595Y-88610960D01*
X101473486Y-88610960D01*
X98031283Y-85168757D01*
X118769000Y-85168757D01*
X118769000Y-85411243D01*
X118816307Y-85649069D01*
X118909102Y-85873097D01*
X119043820Y-86074717D01*
X119215283Y-86246180D01*
X119416903Y-86380898D01*
X119640931Y-86473693D01*
X119878757Y-86521000D01*
X120121243Y-86521000D01*
X120359069Y-86473693D01*
X120583097Y-86380898D01*
X120784717Y-86246180D01*
X120956180Y-86074717D01*
X121090898Y-85873097D01*
X121183693Y-85649069D01*
X121231000Y-85411243D01*
X121231000Y-85168757D01*
X121183693Y-84930931D01*
X121090898Y-84706903D01*
X120956180Y-84505283D01*
X120784717Y-84333820D01*
X120583097Y-84199102D01*
X120359069Y-84106307D01*
X120121243Y-84059000D01*
X119878757Y-84059000D01*
X119640931Y-84106307D01*
X119416903Y-84199102D01*
X119215283Y-84333820D01*
X119043820Y-84505283D01*
X118909102Y-84706903D01*
X118816307Y-84930931D01*
X118769000Y-85168757D01*
X98031283Y-85168757D01*
X94740009Y-81877483D01*
X94704214Y-81833867D01*
X94530170Y-81691032D01*
X94331604Y-81584897D01*
X94116148Y-81519539D01*
X93948227Y-81503000D01*
X93948220Y-81503000D01*
X93892081Y-81497471D01*
X93835942Y-81503000D01*
X88432843Y-81503000D01*
X88432843Y-81346000D01*
X88425487Y-81271311D01*
X88403701Y-81199492D01*
X88368322Y-81133304D01*
X88320711Y-81075289D01*
X88262696Y-81027678D01*
X88196508Y-80992299D01*
X88124689Y-80970513D01*
X88050000Y-80963157D01*
X85450000Y-80963157D01*
X85375311Y-80970513D01*
X85303492Y-80992299D01*
X85237304Y-81027678D01*
X85179289Y-81075289D01*
X85131678Y-81133304D01*
X85096299Y-81199492D01*
X85074513Y-81271311D01*
X85067157Y-81346000D01*
X85067157Y-81503000D01*
X82174456Y-81503000D01*
X82118317Y-81497471D01*
X82062178Y-81503000D01*
X82062172Y-81503000D01*
X81916918Y-81517306D01*
X81894250Y-81519539D01*
X81839162Y-81536250D01*
X81678795Y-81584897D01*
X81480229Y-81691032D01*
X81480227Y-81691033D01*
X81480228Y-81691033D01*
X81349795Y-81798076D01*
X81349789Y-81798082D01*
X81306185Y-81833867D01*
X81270400Y-81877471D01*
X70021481Y-93126392D01*
X69977866Y-93162186D01*
X69835031Y-93336231D01*
X69728896Y-93534797D01*
X69689259Y-93665463D01*
X69682800Y-93686754D01*
X69455146Y-93914409D01*
X69356903Y-93955102D01*
X69155283Y-94089820D01*
X68983820Y-94261283D01*
X68886927Y-94406294D01*
X68888072Y-94196000D01*
X68875812Y-94071518D01*
X68839502Y-93951820D01*
X68780537Y-93841506D01*
X68701185Y-93744815D01*
X68604494Y-93665463D01*
X68494180Y-93606498D01*
X68374482Y-93570188D01*
X68250000Y-93557928D01*
X67685750Y-93561000D01*
X67527000Y-93719750D01*
X67527000Y-94919000D01*
X67547000Y-94919000D01*
X67547000Y-95173000D01*
X67527000Y-95173000D01*
X67527000Y-96372250D01*
X67685750Y-96531000D01*
X68250000Y-96534072D01*
X68374482Y-96521812D01*
X68494180Y-96485502D01*
X68604494Y-96426537D01*
X68701185Y-96347185D01*
X68780537Y-96250494D01*
X68839502Y-96140180D01*
X68875812Y-96020482D01*
X68888072Y-95896000D01*
X68886927Y-95685706D01*
X68983820Y-95830717D01*
X69155283Y-96002180D01*
X69356903Y-96136898D01*
X69580931Y-96229693D01*
X69818757Y-96277000D01*
X70061243Y-96277000D01*
X70299069Y-96229693D01*
X70523097Y-96136898D01*
X70724717Y-96002180D01*
X70896180Y-95830717D01*
X71030898Y-95629097D01*
X71071591Y-95530854D01*
X71279893Y-95322552D01*
X71296307Y-95405069D01*
X71389102Y-95629097D01*
X71523820Y-95830717D01*
X71695283Y-96002180D01*
X71896903Y-96136898D01*
X72120931Y-96229693D01*
X72358757Y-96277000D01*
X72601243Y-96277000D01*
X72839069Y-96229693D01*
X73063097Y-96136898D01*
X73264717Y-96002180D01*
X73370897Y-95896000D01*
X101061928Y-95896000D01*
X101074188Y-96020482D01*
X101110498Y-96140180D01*
X101169463Y-96250494D01*
X101248815Y-96347185D01*
X101345506Y-96426537D01*
X101455820Y-96485502D01*
X101575518Y-96521812D01*
X101700000Y-96534072D01*
X102264250Y-96531000D01*
X102423000Y-96372250D01*
X102423000Y-95173000D01*
X101223750Y-95173000D01*
X101065000Y-95331750D01*
X101061928Y-95896000D01*
X73370897Y-95896000D01*
X73436180Y-95830717D01*
X73570898Y-95629097D01*
X73663693Y-95405069D01*
X73711000Y-95167243D01*
X73711000Y-94924757D01*
X73663693Y-94686931D01*
X73570898Y-94462903D01*
X73436180Y-94261283D01*
X73370897Y-94196000D01*
X101061928Y-94196000D01*
X101065000Y-94760250D01*
X101223750Y-94919000D01*
X102423000Y-94919000D01*
X102423000Y-93719750D01*
X102264250Y-93561000D01*
X101700000Y-93557928D01*
X101575518Y-93570188D01*
X101455820Y-93606498D01*
X101345506Y-93665463D01*
X101248815Y-93744815D01*
X101169463Y-93841506D01*
X101110498Y-93951820D01*
X101074188Y-94071518D01*
X101061928Y-94196000D01*
X73370897Y-94196000D01*
X73264717Y-94089820D01*
X73063097Y-93955102D01*
X72839069Y-93862307D01*
X72601243Y-93815000D01*
X72565763Y-93815000D01*
X76385539Y-89995224D01*
X85580381Y-89995224D01*
X85712317Y-90290312D01*
X86053045Y-90461159D01*
X86420557Y-90562250D01*
X86800729Y-90589701D01*
X87178951Y-90542457D01*
X87540690Y-90422333D01*
X87787683Y-90290312D01*
X87919619Y-89995224D01*
X86750000Y-88825605D01*
X85580381Y-89995224D01*
X76385539Y-89995224D01*
X77684035Y-88696729D01*
X84806299Y-88696729D01*
X84853543Y-89074951D01*
X84973667Y-89436690D01*
X85105688Y-89683683D01*
X85400776Y-89815619D01*
X86570395Y-88646000D01*
X86929605Y-88646000D01*
X88099224Y-89815619D01*
X88394312Y-89683683D01*
X88565159Y-89342955D01*
X88666250Y-88975443D01*
X88693701Y-88595271D01*
X88646457Y-88217049D01*
X88526333Y-87855310D01*
X88394312Y-87608317D01*
X88099224Y-87476381D01*
X86929605Y-88646000D01*
X86570395Y-88646000D01*
X85400776Y-87476381D01*
X85105688Y-87608317D01*
X84934841Y-87949045D01*
X84833750Y-88316557D01*
X84806299Y-88696729D01*
X77684035Y-88696729D01*
X79083988Y-87296776D01*
X85580381Y-87296776D01*
X86750000Y-88466395D01*
X87919619Y-87296776D01*
X87787683Y-87001688D01*
X87774792Y-86995224D01*
X90280381Y-86995224D01*
X90412317Y-87290312D01*
X90753045Y-87461159D01*
X91120557Y-87562250D01*
X91500729Y-87589701D01*
X91878951Y-87542457D01*
X92240690Y-87422333D01*
X92487683Y-87290312D01*
X92619619Y-86995224D01*
X91450000Y-85825605D01*
X90280381Y-86995224D01*
X87774792Y-86995224D01*
X87446955Y-86830841D01*
X87079443Y-86729750D01*
X86699271Y-86702299D01*
X86321049Y-86749543D01*
X85959310Y-86869667D01*
X85712317Y-87001688D01*
X85580381Y-87296776D01*
X79083988Y-87296776D01*
X80684035Y-85696729D01*
X89506299Y-85696729D01*
X89553543Y-86074951D01*
X89673667Y-86436690D01*
X89805688Y-86683683D01*
X90100776Y-86815619D01*
X91270395Y-85646000D01*
X91629605Y-85646000D01*
X92799224Y-86815619D01*
X93094312Y-86683683D01*
X93265159Y-86342955D01*
X93366250Y-85975443D01*
X93393701Y-85595271D01*
X93346457Y-85217049D01*
X93226333Y-84855310D01*
X93094312Y-84608317D01*
X92799224Y-84476381D01*
X91629605Y-85646000D01*
X91270395Y-85646000D01*
X90100776Y-84476381D01*
X89805688Y-84608317D01*
X89634841Y-84949045D01*
X89533750Y-85316557D01*
X89506299Y-85696729D01*
X80684035Y-85696729D01*
X82591765Y-83789000D01*
X85067157Y-83789000D01*
X85067157Y-83946000D01*
X85074513Y-84020689D01*
X85096299Y-84092508D01*
X85131678Y-84158696D01*
X85179289Y-84216711D01*
X85237304Y-84264322D01*
X85303492Y-84299701D01*
X85375311Y-84321487D01*
X85450000Y-84328843D01*
X88050000Y-84328843D01*
X88124689Y-84321487D01*
X88196508Y-84299701D01*
X88262696Y-84264322D01*
X88320711Y-84216711D01*
X88368322Y-84158696D01*
X88403701Y-84092508D01*
X88425487Y-84020689D01*
X88432843Y-83946000D01*
X88432843Y-83789000D01*
X90902229Y-83789000D01*
X90659310Y-83869667D01*
X90412317Y-84001688D01*
X90280381Y-84296776D01*
X91450000Y-85466395D01*
X92619619Y-84296776D01*
X92487683Y-84001688D01*
X92146955Y-83830841D01*
X91994844Y-83789000D01*
X93418636Y-83789000D01*
X100152115Y-90522481D01*
X100187907Y-90566093D01*
X100231523Y-90601888D01*
X103188713Y-93559078D01*
X102835750Y-93561000D01*
X102677000Y-93719750D01*
X102677000Y-94919000D01*
X102697000Y-94919000D01*
X102697000Y-95173000D01*
X102677000Y-95173000D01*
X102677000Y-96372250D01*
X102835750Y-96531000D01*
X103400000Y-96534072D01*
X103524482Y-96521812D01*
X103644180Y-96485502D01*
X103754494Y-96426537D01*
X103851185Y-96347185D01*
X103930537Y-96250494D01*
X103989502Y-96140180D01*
X104025812Y-96020482D01*
X104038072Y-95896000D01*
X104036927Y-95685706D01*
X104133820Y-95830717D01*
X104305283Y-96002180D01*
X104506903Y-96136898D01*
X104730931Y-96229693D01*
X104968757Y-96277000D01*
X105211243Y-96277000D01*
X105449069Y-96229693D01*
X105673097Y-96136898D01*
X105874717Y-96002180D01*
X106046180Y-95830717D01*
X106180898Y-95629097D01*
X106273693Y-95405069D01*
X106321000Y-95167243D01*
X106321000Y-94924757D01*
X106399000Y-94924757D01*
X106399000Y-95167243D01*
X106446307Y-95405069D01*
X106539102Y-95629097D01*
X106673820Y-95830717D01*
X106845283Y-96002180D01*
X107046903Y-96136898D01*
X107270931Y-96229693D01*
X107508757Y-96277000D01*
X107751243Y-96277000D01*
X107989069Y-96229693D01*
X108213097Y-96136898D01*
X108414717Y-96002180D01*
X108586180Y-95830717D01*
X108720898Y-95629097D01*
X108813693Y-95405069D01*
X108861000Y-95167243D01*
X108861000Y-94924757D01*
X108813693Y-94686931D01*
X108811557Y-94681774D01*
X116769000Y-94681774D01*
X116769000Y-95318226D01*
X116893166Y-95942448D01*
X117136725Y-96530452D01*
X117490319Y-97059642D01*
X117940358Y-97509681D01*
X118469548Y-97863275D01*
X119057552Y-98106834D01*
X119681774Y-98231000D01*
X120318226Y-98231000D01*
X120942448Y-98106834D01*
X121530452Y-97863275D01*
X122059642Y-97509681D01*
X122509681Y-97059642D01*
X122863275Y-96530452D01*
X123106834Y-95942448D01*
X123231000Y-95318226D01*
X123231000Y-94681774D01*
X123106834Y-94057552D01*
X122863275Y-93469548D01*
X122509681Y-92940358D01*
X122059642Y-92490319D01*
X121530452Y-92136725D01*
X120942448Y-91893166D01*
X120318226Y-91769000D01*
X119681774Y-91769000D01*
X119057552Y-91893166D01*
X118469548Y-92136725D01*
X117940358Y-92490319D01*
X117490319Y-92940358D01*
X117136725Y-93469548D01*
X116893166Y-94057552D01*
X116769000Y-94681774D01*
X108811557Y-94681774D01*
X108720898Y-94462903D01*
X108586180Y-94261283D01*
X108414717Y-94089820D01*
X108213097Y-93955102D01*
X107989069Y-93862307D01*
X107751243Y-93815000D01*
X107508757Y-93815000D01*
X107270931Y-93862307D01*
X107046903Y-93955102D01*
X106845283Y-94089820D01*
X106673820Y-94261283D01*
X106539102Y-94462903D01*
X106446307Y-94686931D01*
X106399000Y-94924757D01*
X106321000Y-94924757D01*
X106273693Y-94686931D01*
X106233000Y-94588689D01*
X106233000Y-93900057D01*
X106238529Y-93843918D01*
X106233000Y-93787779D01*
X106233000Y-93787773D01*
X106216461Y-93619852D01*
X106151103Y-93404396D01*
X106044968Y-93205830D01*
X106009150Y-93162186D01*
X105937924Y-93075396D01*
X105937918Y-93075390D01*
X105902133Y-93031786D01*
X105858529Y-92996001D01*
X103759486Y-90896960D01*
X119993901Y-90896960D01*
X120050040Y-90902489D01*
X120106179Y-90896960D01*
X120106186Y-90896960D01*
X120274107Y-90880421D01*
X120489563Y-90815063D01*
X120688129Y-90708928D01*
X120862173Y-90566093D01*
X120897967Y-90522478D01*
X123704524Y-87715922D01*
X123748133Y-87680133D01*
X123890968Y-87506089D01*
X123997103Y-87307523D01*
X124062461Y-87092067D01*
X124079000Y-86924146D01*
X124079000Y-86924139D01*
X124084529Y-86868000D01*
X124079000Y-86811861D01*
X124079000Y-84540058D01*
X124084529Y-84483919D01*
X124079000Y-84427780D01*
X124079000Y-71050058D01*
X124084529Y-70993919D01*
X124079000Y-70937780D01*
X124079000Y-57560058D01*
X124084529Y-57503919D01*
X124079000Y-57447780D01*
X124079000Y-44070058D01*
X124084529Y-44013919D01*
X124079000Y-43957780D01*
X124079000Y-38918138D01*
X124084529Y-38861999D01*
X124079000Y-38805860D01*
X124079000Y-38805854D01*
X124062461Y-38637933D01*
X123997103Y-38422477D01*
X123890968Y-38223911D01*
X123748133Y-38049867D01*
X123704523Y-38014077D01*
X118613239Y-32922794D01*
X119057552Y-33106834D01*
X119681774Y-33231000D01*
X120318226Y-33231000D01*
X120942448Y-33106834D01*
X121530452Y-32863275D01*
X122059642Y-32509681D01*
X122509681Y-32059642D01*
X122863275Y-31530452D01*
X123106834Y-30942448D01*
X123231000Y-30318226D01*
X123231000Y-29681774D01*
X123106834Y-29057552D01*
X122863275Y-28469548D01*
X122509681Y-27940358D01*
X122059642Y-27490319D01*
X121530452Y-27136725D01*
X120942448Y-26893166D01*
X120318226Y-26769000D01*
X119681774Y-26769000D01*
X119057552Y-26893166D01*
X118469548Y-27136725D01*
X117940358Y-27490319D01*
X117490319Y-27940358D01*
X117136725Y-28469548D01*
X116893166Y-29057552D01*
X116769000Y-29681774D01*
X116769000Y-30318226D01*
X116893166Y-30942448D01*
X117077206Y-31386761D01*
X111972928Y-26282483D01*
X111937133Y-26238867D01*
X111763089Y-26096032D01*
X111564523Y-25989897D01*
X111349067Y-25924539D01*
X111181146Y-25908000D01*
X111181139Y-25908000D01*
X111125000Y-25902471D01*
X111068861Y-25908000D01*
X109523058Y-25908000D01*
X109466919Y-25902471D01*
X109410780Y-25908000D01*
X96033058Y-25908000D01*
X95976919Y-25902471D01*
X95920780Y-25908000D01*
X82543058Y-25908000D01*
X82486919Y-25902471D01*
X82430780Y-25908000D01*
X69053058Y-25908000D01*
X68996919Y-25902471D01*
X68940780Y-25908000D01*
X68940773Y-25908000D01*
X68772852Y-25924539D01*
X68557395Y-25989897D01*
X68488230Y-26026867D01*
X68358830Y-26096032D01*
X68184786Y-26238867D01*
X68148996Y-26282477D01*
X66481482Y-27949992D01*
X66437867Y-27985786D01*
X66295032Y-28159831D01*
X66188897Y-28358397D01*
X66123539Y-28573853D01*
X66107000Y-28741774D01*
X66107000Y-28741780D01*
X66101471Y-28797919D01*
X66107000Y-28854058D01*
X66107000Y-29542689D01*
X66066307Y-29640931D01*
X66019000Y-29878757D01*
X65941000Y-29878757D01*
X65893693Y-29640931D01*
X65800898Y-29416903D01*
X65666180Y-29215283D01*
X65494717Y-29043820D01*
X65293097Y-28909102D01*
X65069069Y-28816307D01*
X64831243Y-28769000D01*
X64588757Y-28769000D01*
X64350931Y-28816307D01*
X64126903Y-28909102D01*
X63925283Y-29043820D01*
X63753820Y-29215283D01*
X63619102Y-29416903D01*
X63526307Y-29640931D01*
X63479000Y-29878757D01*
X58231000Y-29878757D01*
X58231000Y-29681774D01*
X58106834Y-29057552D01*
X57863275Y-28469548D01*
X57509681Y-27940358D01*
X57059642Y-27490319D01*
X56530452Y-27136725D01*
X55942448Y-26893166D01*
X55318226Y-26769000D01*
X54681774Y-26769000D01*
X54057552Y-26893166D01*
X53469548Y-27136725D01*
X52940358Y-27490319D01*
X52490319Y-27940358D01*
X52136725Y-28469548D01*
X51893166Y-29057552D01*
X51769000Y-29681774D01*
X50406000Y-29681774D01*
X50406000Y-25406000D01*
X124594000Y-25406000D01*
X124594001Y-99594000D01*
G04 #@! TA.AperFunction,Conductor*
D18*
G36*
X124594001Y-99594000D02*
G01*
X50406000Y-99594000D01*
X50406000Y-94681774D01*
X51769000Y-94681774D01*
X51769000Y-95318226D01*
X51893166Y-95942448D01*
X52136725Y-96530452D01*
X52490319Y-97059642D01*
X52940358Y-97509681D01*
X53469548Y-97863275D01*
X54057552Y-98106834D01*
X54681774Y-98231000D01*
X55318226Y-98231000D01*
X55942448Y-98106834D01*
X56530452Y-97863275D01*
X57059642Y-97509681D01*
X57509681Y-97059642D01*
X57863275Y-96530452D01*
X58106834Y-95942448D01*
X58116073Y-95896000D01*
X65911928Y-95896000D01*
X65924188Y-96020482D01*
X65960498Y-96140180D01*
X66019463Y-96250494D01*
X66098815Y-96347185D01*
X66195506Y-96426537D01*
X66305820Y-96485502D01*
X66425518Y-96521812D01*
X66550000Y-96534072D01*
X67114250Y-96531000D01*
X67273000Y-96372250D01*
X67273000Y-95173000D01*
X66073750Y-95173000D01*
X65915000Y-95331750D01*
X65911928Y-95896000D01*
X58116073Y-95896000D01*
X58231000Y-95318226D01*
X58231000Y-94681774D01*
X58134374Y-94196000D01*
X65911928Y-94196000D01*
X65915000Y-94760250D01*
X66073750Y-94919000D01*
X67273000Y-94919000D01*
X67273000Y-93719750D01*
X67114250Y-93561000D01*
X66550000Y-93557928D01*
X66425518Y-93570188D01*
X66305820Y-93606498D01*
X66195506Y-93665463D01*
X66098815Y-93744815D01*
X66019463Y-93841506D01*
X65960498Y-93951820D01*
X65924188Y-94071518D01*
X65911928Y-94196000D01*
X58134374Y-94196000D01*
X58106834Y-94057552D01*
X57863275Y-93469548D01*
X57509681Y-92940358D01*
X57059642Y-92490319D01*
X56530452Y-92136725D01*
X55942448Y-91893166D01*
X55318226Y-91769000D01*
X54681774Y-91769000D01*
X54057552Y-91893166D01*
X53469548Y-92136725D01*
X52940358Y-92490319D01*
X52490319Y-92940358D01*
X52136725Y-93469548D01*
X51893166Y-94057552D01*
X51769000Y-94681774D01*
X50406000Y-94681774D01*
X50406000Y-86991890D01*
X53152524Y-86991890D01*
X53197175Y-87139099D01*
X53322359Y-87401920D01*
X53496412Y-87635269D01*
X53712645Y-87830178D01*
X53962748Y-87979157D01*
X54237109Y-88076481D01*
X54467000Y-87955814D01*
X54467000Y-86762000D01*
X53273845Y-86762000D01*
X53152524Y-86991890D01*
X50406000Y-86991890D01*
X50406000Y-86278110D01*
X53152524Y-86278110D01*
X53273845Y-86508000D01*
X54467000Y-86508000D01*
X54467000Y-86488000D01*
X54721000Y-86488000D01*
X54721000Y-86508000D01*
X54741000Y-86508000D01*
X54741000Y-86762000D01*
X54721000Y-86762000D01*
X54721000Y-87955814D01*
X54950891Y-88076481D01*
X55225252Y-87979157D01*
X55475355Y-87830178D01*
X55691588Y-87635269D01*
X55865641Y-87401920D01*
X55990825Y-87139099D01*
X55999091Y-87111846D01*
X56043102Y-87218097D01*
X56177820Y-87419717D01*
X56349283Y-87591180D01*
X56550903Y-87725898D01*
X56774931Y-87818693D01*
X57012757Y-87866000D01*
X57255243Y-87866000D01*
X57493069Y-87818693D01*
X57717097Y-87725898D01*
X57918717Y-87591180D01*
X58090180Y-87419717D01*
X58224898Y-87218097D01*
X58317693Y-86994069D01*
X58365000Y-86756243D01*
X58365000Y-86513757D01*
X58317693Y-86275931D01*
X58224898Y-86051903D01*
X58090180Y-85850283D01*
X57918717Y-85678820D01*
X57717097Y-85544102D01*
X57493069Y-85451307D01*
X57255243Y-85404000D01*
X57012757Y-85404000D01*
X56774931Y-85451307D01*
X56550903Y-85544102D01*
X56349283Y-85678820D01*
X56177820Y-85850283D01*
X56043102Y-86051903D01*
X55999091Y-86158154D01*
X55990825Y-86130901D01*
X55865641Y-85868080D01*
X55691588Y-85634731D01*
X55475355Y-85439822D01*
X55225252Y-85290843D01*
X55062832Y-85233228D01*
X55177097Y-85185898D01*
X55378717Y-85051180D01*
X55550180Y-84879717D01*
X55684898Y-84678097D01*
X55777693Y-84454069D01*
X55825000Y-84216243D01*
X55825000Y-83973757D01*
X55903000Y-83973757D01*
X55903000Y-84216243D01*
X55950307Y-84454069D01*
X56043102Y-84678097D01*
X56177820Y-84879717D01*
X56349283Y-85051180D01*
X56550903Y-85185898D01*
X56774931Y-85278693D01*
X57012757Y-85326000D01*
X57255243Y-85326000D01*
X57493069Y-85278693D01*
X57717097Y-85185898D01*
X57918717Y-85051180D01*
X58090180Y-84879717D01*
X58224898Y-84678097D01*
X58317693Y-84454069D01*
X58365000Y-84216243D01*
X58365000Y-83973757D01*
X58317693Y-83735931D01*
X58224898Y-83511903D01*
X58090180Y-83310283D01*
X57918717Y-83138820D01*
X57717097Y-83004102D01*
X57493069Y-82911307D01*
X57255243Y-82864000D01*
X57012757Y-82864000D01*
X56774931Y-82911307D01*
X56550903Y-83004102D01*
X56349283Y-83138820D01*
X56177820Y-83310283D01*
X56043102Y-83511903D01*
X55950307Y-83735931D01*
X55903000Y-83973757D01*
X55825000Y-83973757D01*
X55777693Y-83735931D01*
X55684898Y-83511903D01*
X55550180Y-83310283D01*
X55378717Y-83138820D01*
X55177097Y-83004102D01*
X54953069Y-82911307D01*
X54715243Y-82864000D01*
X54472757Y-82864000D01*
X54234931Y-82911307D01*
X54010903Y-83004102D01*
X53809283Y-83138820D01*
X53637820Y-83310283D01*
X53503102Y-83511903D01*
X53410307Y-83735931D01*
X53363000Y-83973757D01*
X53363000Y-84216243D01*
X53410307Y-84454069D01*
X53503102Y-84678097D01*
X53637820Y-84879717D01*
X53809283Y-85051180D01*
X54010903Y-85185898D01*
X54125168Y-85233228D01*
X53962748Y-85290843D01*
X53712645Y-85439822D01*
X53496412Y-85634731D01*
X53322359Y-85868080D01*
X53197175Y-86130901D01*
X53152524Y-86278110D01*
X50406000Y-86278110D01*
X50406000Y-81433757D01*
X53363000Y-81433757D01*
X53363000Y-81676243D01*
X53410307Y-81914069D01*
X53503102Y-82138097D01*
X53637820Y-82339717D01*
X53809283Y-82511180D01*
X54010903Y-82645898D01*
X54234931Y-82738693D01*
X54472757Y-82786000D01*
X54715243Y-82786000D01*
X54953069Y-82738693D01*
X55177097Y-82645898D01*
X55378717Y-82511180D01*
X55550180Y-82339717D01*
X55684898Y-82138097D01*
X55777693Y-81914069D01*
X55825000Y-81676243D01*
X55825000Y-81433757D01*
X55777693Y-81195931D01*
X55684898Y-80971903D01*
X55550180Y-80770283D01*
X55378717Y-80598820D01*
X55177097Y-80464102D01*
X54953069Y-80371307D01*
X54715243Y-80324000D01*
X54472757Y-80324000D01*
X54234931Y-80371307D01*
X54010903Y-80464102D01*
X53809283Y-80598820D01*
X53637820Y-80770283D01*
X53503102Y-80971903D01*
X53410307Y-81195931D01*
X53363000Y-81433757D01*
X50406000Y-81433757D01*
X50406000Y-76353757D01*
X53363000Y-76353757D01*
X53363000Y-76596243D01*
X53410307Y-76834069D01*
X53503102Y-77058097D01*
X53637820Y-77259717D01*
X53809283Y-77431180D01*
X54010903Y-77565898D01*
X54234931Y-77658693D01*
X54472757Y-77706000D01*
X54715243Y-77706000D01*
X54953069Y-77658693D01*
X55177097Y-77565898D01*
X55378717Y-77431180D01*
X55550180Y-77259717D01*
X55684898Y-77058097D01*
X55777693Y-76834069D01*
X55825000Y-76596243D01*
X55825000Y-76353757D01*
X55777693Y-76115931D01*
X55684898Y-75891903D01*
X55550180Y-75690283D01*
X55378717Y-75518820D01*
X55177097Y-75384102D01*
X54953069Y-75291307D01*
X54715243Y-75244000D01*
X54472757Y-75244000D01*
X54234931Y-75291307D01*
X54010903Y-75384102D01*
X53809283Y-75518820D01*
X53637820Y-75690283D01*
X53503102Y-75891903D01*
X53410307Y-76115931D01*
X53363000Y-76353757D01*
X50406000Y-76353757D01*
X50406000Y-73813757D01*
X53363000Y-73813757D01*
X53363000Y-74056243D01*
X53410307Y-74294069D01*
X53503102Y-74518097D01*
X53637820Y-74719717D01*
X53809283Y-74891180D01*
X54010903Y-75025898D01*
X54234931Y-75118693D01*
X54472757Y-75166000D01*
X54715243Y-75166000D01*
X54953069Y-75118693D01*
X55177097Y-75025898D01*
X55378717Y-74891180D01*
X55550180Y-74719717D01*
X55684898Y-74518097D01*
X55728909Y-74411846D01*
X55737175Y-74439099D01*
X55862359Y-74701920D01*
X56036412Y-74935269D01*
X56252645Y-75130178D01*
X56502748Y-75279157D01*
X56665168Y-75336772D01*
X56550903Y-75384102D01*
X56349283Y-75518820D01*
X56177820Y-75690283D01*
X56043102Y-75891903D01*
X55950307Y-76115931D01*
X55903000Y-76353757D01*
X55903000Y-76596243D01*
X55950307Y-76834069D01*
X56043102Y-77058097D01*
X56177820Y-77259717D01*
X56349283Y-77431180D01*
X56550903Y-77565898D01*
X56665168Y-77613228D01*
X56502748Y-77670843D01*
X56252645Y-77819822D01*
X56036412Y-78014731D01*
X55862359Y-78248080D01*
X55737175Y-78510901D01*
X55728909Y-78538154D01*
X55684898Y-78431903D01*
X55550180Y-78230283D01*
X55378717Y-78058820D01*
X55177097Y-77924102D01*
X54953069Y-77831307D01*
X54715243Y-77784000D01*
X54472757Y-77784000D01*
X54234931Y-77831307D01*
X54010903Y-77924102D01*
X53809283Y-78058820D01*
X53637820Y-78230283D01*
X53503102Y-78431903D01*
X53410307Y-78655931D01*
X53363000Y-78893757D01*
X53363000Y-79136243D01*
X53410307Y-79374069D01*
X53503102Y-79598097D01*
X53637820Y-79799717D01*
X53809283Y-79971180D01*
X54010903Y-80105898D01*
X54234931Y-80198693D01*
X54472757Y-80246000D01*
X54715243Y-80246000D01*
X54953069Y-80198693D01*
X55177097Y-80105898D01*
X55378717Y-79971180D01*
X55550180Y-79799717D01*
X55684898Y-79598097D01*
X55728909Y-79491846D01*
X55737175Y-79519099D01*
X55862359Y-79781920D01*
X56036412Y-80015269D01*
X56252645Y-80210178D01*
X56502748Y-80359157D01*
X56665168Y-80416772D01*
X56550903Y-80464102D01*
X56349283Y-80598820D01*
X56177820Y-80770283D01*
X56043102Y-80971903D01*
X55950307Y-81195931D01*
X55903000Y-81433757D01*
X55903000Y-81676243D01*
X55950307Y-81914069D01*
X56043102Y-82138097D01*
X56177820Y-82339717D01*
X56349283Y-82511180D01*
X56550903Y-82645898D01*
X56774931Y-82738693D01*
X57012757Y-82786000D01*
X57255243Y-82786000D01*
X57493069Y-82738693D01*
X57717097Y-82645898D01*
X57918717Y-82511180D01*
X58090180Y-82339717D01*
X58224898Y-82138097D01*
X58317693Y-81914069D01*
X58365000Y-81676243D01*
X58365000Y-81433757D01*
X58317693Y-81195931D01*
X58224898Y-80971903D01*
X58090180Y-80770283D01*
X57918717Y-80598820D01*
X57717097Y-80464102D01*
X57602832Y-80416772D01*
X57765252Y-80359157D01*
X58015355Y-80210178D01*
X58231588Y-80015269D01*
X58405641Y-79781920D01*
X58530825Y-79519099D01*
X58575476Y-79371890D01*
X58569202Y-79360000D01*
X118511928Y-79360000D01*
X118515000Y-79924250D01*
X118673750Y-80083000D01*
X119873000Y-80083000D01*
X119873000Y-78883750D01*
X120127000Y-78883750D01*
X120127000Y-80083000D01*
X121326250Y-80083000D01*
X121485000Y-79924250D01*
X121488072Y-79360000D01*
X121475812Y-79235518D01*
X121439502Y-79115820D01*
X121380537Y-79005506D01*
X121301185Y-78908815D01*
X121204494Y-78829463D01*
X121094180Y-78770498D01*
X120974482Y-78734188D01*
X120850000Y-78721928D01*
X120285750Y-78725000D01*
X120127000Y-78883750D01*
X119873000Y-78883750D01*
X119714250Y-78725000D01*
X119150000Y-78721928D01*
X119025518Y-78734188D01*
X118905820Y-78770498D01*
X118795506Y-78829463D01*
X118698815Y-78908815D01*
X118619463Y-79005506D01*
X118560498Y-79115820D01*
X118524188Y-79235518D01*
X118511928Y-79360000D01*
X58569202Y-79360000D01*
X58454155Y-79142000D01*
X57261000Y-79142000D01*
X57261000Y-79162000D01*
X57007000Y-79162000D01*
X57007000Y-79142000D01*
X56987000Y-79142000D01*
X56987000Y-78888000D01*
X57007000Y-78888000D01*
X57007000Y-78868000D01*
X57261000Y-78868000D01*
X57261000Y-78888000D01*
X58454155Y-78888000D01*
X58575476Y-78658110D01*
X58530825Y-78510901D01*
X58405641Y-78248080D01*
X58231588Y-78014731D01*
X58015355Y-77819822D01*
X57765252Y-77670843D01*
X57602832Y-77613228D01*
X57717097Y-77565898D01*
X57918717Y-77431180D01*
X58090180Y-77259717D01*
X58224898Y-77058097D01*
X58317693Y-76834069D01*
X58365000Y-76596243D01*
X58365000Y-76353757D01*
X58317693Y-76115931D01*
X58224898Y-75891903D01*
X58090180Y-75690283D01*
X57918717Y-75518820D01*
X57717097Y-75384102D01*
X57602832Y-75336772D01*
X57765252Y-75279157D01*
X58015355Y-75130178D01*
X58231588Y-74935269D01*
X58405641Y-74701920D01*
X58530825Y-74439099D01*
X58575476Y-74291890D01*
X58454155Y-74062000D01*
X57261000Y-74062000D01*
X57261000Y-74082000D01*
X57007000Y-74082000D01*
X57007000Y-74062000D01*
X56987000Y-74062000D01*
X56987000Y-73808000D01*
X57007000Y-73808000D01*
X57007000Y-73788000D01*
X57261000Y-73788000D01*
X57261000Y-73808000D01*
X58454155Y-73808000D01*
X58575476Y-73578110D01*
X58530825Y-73430901D01*
X58405641Y-73168080D01*
X58231588Y-72934731D01*
X58015355Y-72739822D01*
X57765252Y-72590843D01*
X57602832Y-72533228D01*
X57717097Y-72485898D01*
X57918717Y-72351180D01*
X58090180Y-72179717D01*
X58224898Y-71978097D01*
X58317693Y-71754069D01*
X58332673Y-71678757D01*
X118769000Y-71678757D01*
X118769000Y-71921243D01*
X118816307Y-72159069D01*
X118909102Y-72383097D01*
X119043820Y-72584717D01*
X119215283Y-72756180D01*
X119416903Y-72890898D01*
X119640931Y-72983693D01*
X119878757Y-73031000D01*
X120121243Y-73031000D01*
X120359069Y-72983693D01*
X120583097Y-72890898D01*
X120784717Y-72756180D01*
X120956180Y-72584717D01*
X121090898Y-72383097D01*
X121183693Y-72159069D01*
X121231000Y-71921243D01*
X121231000Y-71678757D01*
X121183693Y-71440931D01*
X121090898Y-71216903D01*
X120956180Y-71015283D01*
X120784717Y-70843820D01*
X120583097Y-70709102D01*
X120359069Y-70616307D01*
X120121243Y-70569000D01*
X119878757Y-70569000D01*
X119640931Y-70616307D01*
X119416903Y-70709102D01*
X119215283Y-70843820D01*
X119043820Y-71015283D01*
X118909102Y-71216903D01*
X118816307Y-71440931D01*
X118769000Y-71678757D01*
X58332673Y-71678757D01*
X58365000Y-71516243D01*
X58365000Y-71273757D01*
X58317693Y-71035931D01*
X58224898Y-70811903D01*
X58090180Y-70610283D01*
X57918717Y-70438820D01*
X57717097Y-70304102D01*
X57493069Y-70211307D01*
X57255243Y-70164000D01*
X57012757Y-70164000D01*
X56774931Y-70211307D01*
X56550903Y-70304102D01*
X56349283Y-70438820D01*
X56177820Y-70610283D01*
X56043102Y-70811903D01*
X55950307Y-71035931D01*
X55903000Y-71273757D01*
X55903000Y-71516243D01*
X55950307Y-71754069D01*
X56043102Y-71978097D01*
X56177820Y-72179717D01*
X56349283Y-72351180D01*
X56550903Y-72485898D01*
X56665168Y-72533228D01*
X56502748Y-72590843D01*
X56252645Y-72739822D01*
X56036412Y-72934731D01*
X55862359Y-73168080D01*
X55737175Y-73430901D01*
X55728909Y-73458154D01*
X55684898Y-73351903D01*
X55550180Y-73150283D01*
X55378717Y-72978820D01*
X55177097Y-72844102D01*
X54953069Y-72751307D01*
X54715243Y-72704000D01*
X54472757Y-72704000D01*
X54234931Y-72751307D01*
X54010903Y-72844102D01*
X53809283Y-72978820D01*
X53637820Y-73150283D01*
X53503102Y-73351903D01*
X53410307Y-73575931D01*
X53363000Y-73813757D01*
X50406000Y-73813757D01*
X50406000Y-68498110D01*
X53152524Y-68498110D01*
X53273845Y-68728000D01*
X54467000Y-68728000D01*
X54467000Y-68708000D01*
X54721000Y-68708000D01*
X54721000Y-68728000D01*
X54741000Y-68728000D01*
X54741000Y-68982000D01*
X54721000Y-68982000D01*
X54721000Y-69002000D01*
X54467000Y-69002000D01*
X54467000Y-68982000D01*
X53273845Y-68982000D01*
X53152524Y-69211890D01*
X53197175Y-69359099D01*
X53322359Y-69621920D01*
X53496412Y-69855269D01*
X53712645Y-70050178D01*
X53962748Y-70199157D01*
X54125168Y-70256772D01*
X54010903Y-70304102D01*
X53809283Y-70438820D01*
X53637820Y-70610283D01*
X53503102Y-70811903D01*
X53410307Y-71035931D01*
X53363000Y-71273757D01*
X53363000Y-71516243D01*
X53410307Y-71754069D01*
X53503102Y-71978097D01*
X53637820Y-72179717D01*
X53809283Y-72351180D01*
X54010903Y-72485898D01*
X54234931Y-72578693D01*
X54472757Y-72626000D01*
X54715243Y-72626000D01*
X54953069Y-72578693D01*
X55177097Y-72485898D01*
X55378717Y-72351180D01*
X55550180Y-72179717D01*
X55684898Y-71978097D01*
X55777693Y-71754069D01*
X55825000Y-71516243D01*
X55825000Y-71273757D01*
X55777693Y-71035931D01*
X55684898Y-70811903D01*
X55550180Y-70610283D01*
X55378717Y-70438820D01*
X55177097Y-70304102D01*
X55062832Y-70256772D01*
X55225252Y-70199157D01*
X55475355Y-70050178D01*
X55691588Y-69855269D01*
X55865641Y-69621920D01*
X55990825Y-69359099D01*
X55999091Y-69331846D01*
X56043102Y-69438097D01*
X56177820Y-69639717D01*
X56349283Y-69811180D01*
X56550903Y-69945898D01*
X56774931Y-70038693D01*
X57012757Y-70086000D01*
X57255243Y-70086000D01*
X57493069Y-70038693D01*
X57717097Y-69945898D01*
X57918717Y-69811180D01*
X58090180Y-69639717D01*
X58224898Y-69438097D01*
X58317693Y-69214069D01*
X58365000Y-68976243D01*
X58365000Y-68733757D01*
X58317693Y-68495931D01*
X58224898Y-68271903D01*
X58090180Y-68070283D01*
X57918717Y-67898820D01*
X57717097Y-67764102D01*
X57493069Y-67671307D01*
X57255243Y-67624000D01*
X57012757Y-67624000D01*
X56774931Y-67671307D01*
X56550903Y-67764102D01*
X56349283Y-67898820D01*
X56177820Y-68070283D01*
X56043102Y-68271903D01*
X55999091Y-68378154D01*
X55990825Y-68350901D01*
X55865641Y-68088080D01*
X55691588Y-67854731D01*
X55475355Y-67659822D01*
X55225252Y-67510843D01*
X55062832Y-67453228D01*
X55177097Y-67405898D01*
X55378717Y-67271180D01*
X55550180Y-67099717D01*
X55684898Y-66898097D01*
X55777693Y-66674069D01*
X55825000Y-66436243D01*
X55825000Y-66193757D01*
X55903000Y-66193757D01*
X55903000Y-66436243D01*
X55950307Y-66674069D01*
X56043102Y-66898097D01*
X56177820Y-67099717D01*
X56349283Y-67271180D01*
X56550903Y-67405898D01*
X56774931Y-67498693D01*
X57012757Y-67546000D01*
X57255243Y-67546000D01*
X57493069Y-67498693D01*
X57717097Y-67405898D01*
X57918717Y-67271180D01*
X58090180Y-67099717D01*
X58224898Y-66898097D01*
X58317693Y-66674069D01*
X58365000Y-66436243D01*
X58365000Y-66193757D01*
X58317693Y-65955931D01*
X58282100Y-65870000D01*
X118511928Y-65870000D01*
X118515000Y-66434250D01*
X118673750Y-66593000D01*
X119873000Y-66593000D01*
X119873000Y-65393750D01*
X120127000Y-65393750D01*
X120127000Y-66593000D01*
X121326250Y-66593000D01*
X121485000Y-66434250D01*
X121488072Y-65870000D01*
X121475812Y-65745518D01*
X121439502Y-65625820D01*
X121380537Y-65515506D01*
X121301185Y-65418815D01*
X121204494Y-65339463D01*
X121094180Y-65280498D01*
X120974482Y-65244188D01*
X120850000Y-65231928D01*
X120285750Y-65235000D01*
X120127000Y-65393750D01*
X119873000Y-65393750D01*
X119714250Y-65235000D01*
X119150000Y-65231928D01*
X119025518Y-65244188D01*
X118905820Y-65280498D01*
X118795506Y-65339463D01*
X118698815Y-65418815D01*
X118619463Y-65515506D01*
X118560498Y-65625820D01*
X118524188Y-65745518D01*
X118511928Y-65870000D01*
X58282100Y-65870000D01*
X58224898Y-65731903D01*
X58090180Y-65530283D01*
X57918717Y-65358820D01*
X57717097Y-65224102D01*
X57493069Y-65131307D01*
X57255243Y-65084000D01*
X57012757Y-65084000D01*
X56774931Y-65131307D01*
X56550903Y-65224102D01*
X56349283Y-65358820D01*
X56177820Y-65530283D01*
X56043102Y-65731903D01*
X55950307Y-65955931D01*
X55903000Y-66193757D01*
X55825000Y-66193757D01*
X55777693Y-65955931D01*
X55684898Y-65731903D01*
X55550180Y-65530283D01*
X55378717Y-65358820D01*
X55177097Y-65224102D01*
X54953069Y-65131307D01*
X54715243Y-65084000D01*
X54472757Y-65084000D01*
X54234931Y-65131307D01*
X54010903Y-65224102D01*
X53809283Y-65358820D01*
X53637820Y-65530283D01*
X53503102Y-65731903D01*
X53410307Y-65955931D01*
X53363000Y-66193757D01*
X53363000Y-66436243D01*
X53410307Y-66674069D01*
X53503102Y-66898097D01*
X53637820Y-67099717D01*
X53809283Y-67271180D01*
X54010903Y-67405898D01*
X54125168Y-67453228D01*
X53962748Y-67510843D01*
X53712645Y-67659822D01*
X53496412Y-67854731D01*
X53322359Y-68088080D01*
X53197175Y-68350901D01*
X53152524Y-68498110D01*
X50406000Y-68498110D01*
X50406000Y-63653757D01*
X53363000Y-63653757D01*
X53363000Y-63896243D01*
X53410307Y-64134069D01*
X53503102Y-64358097D01*
X53637820Y-64559717D01*
X53809283Y-64731180D01*
X54010903Y-64865898D01*
X54234931Y-64958693D01*
X54472757Y-65006000D01*
X54715243Y-65006000D01*
X54953069Y-64958693D01*
X55177097Y-64865898D01*
X55378717Y-64731180D01*
X55550180Y-64559717D01*
X55684898Y-64358097D01*
X55777693Y-64134069D01*
X55825000Y-63896243D01*
X55825000Y-63653757D01*
X55777693Y-63415931D01*
X55684898Y-63191903D01*
X55550180Y-62990283D01*
X55378717Y-62818820D01*
X55177097Y-62684102D01*
X54953069Y-62591307D01*
X54715243Y-62544000D01*
X54472757Y-62544000D01*
X54234931Y-62591307D01*
X54010903Y-62684102D01*
X53809283Y-62818820D01*
X53637820Y-62990283D01*
X53503102Y-63191903D01*
X53410307Y-63415931D01*
X53363000Y-63653757D01*
X50406000Y-63653757D01*
X50406000Y-61113757D01*
X53363000Y-61113757D01*
X53363000Y-61356243D01*
X53410307Y-61594069D01*
X53503102Y-61818097D01*
X53637820Y-62019717D01*
X53809283Y-62191180D01*
X54010903Y-62325898D01*
X54234931Y-62418693D01*
X54472757Y-62466000D01*
X54715243Y-62466000D01*
X54953069Y-62418693D01*
X55177097Y-62325898D01*
X55378717Y-62191180D01*
X55550180Y-62019717D01*
X55684898Y-61818097D01*
X55728909Y-61711846D01*
X55737175Y-61739099D01*
X55862359Y-62001920D01*
X56036412Y-62235269D01*
X56252645Y-62430178D01*
X56502748Y-62579157D01*
X56665168Y-62636772D01*
X56550903Y-62684102D01*
X56349283Y-62818820D01*
X56177820Y-62990283D01*
X56043102Y-63191903D01*
X55950307Y-63415931D01*
X55903000Y-63653757D01*
X55903000Y-63896243D01*
X55950307Y-64134069D01*
X56043102Y-64358097D01*
X56177820Y-64559717D01*
X56349283Y-64731180D01*
X56550903Y-64865898D01*
X56774931Y-64958693D01*
X57012757Y-65006000D01*
X57255243Y-65006000D01*
X57493069Y-64958693D01*
X57717097Y-64865898D01*
X57918717Y-64731180D01*
X58090180Y-64559717D01*
X58224898Y-64358097D01*
X58317693Y-64134069D01*
X58365000Y-63896243D01*
X58365000Y-63653757D01*
X58317693Y-63415931D01*
X58224898Y-63191903D01*
X58090180Y-62990283D01*
X57918717Y-62818820D01*
X57717097Y-62684102D01*
X57602832Y-62636772D01*
X57765252Y-62579157D01*
X58015355Y-62430178D01*
X58231588Y-62235269D01*
X58405641Y-62001920D01*
X58530825Y-61739099D01*
X58575476Y-61591890D01*
X58454155Y-61362000D01*
X57261000Y-61362000D01*
X57261000Y-61382000D01*
X57007000Y-61382000D01*
X57007000Y-61362000D01*
X56987000Y-61362000D01*
X56987000Y-61108000D01*
X57007000Y-61108000D01*
X57007000Y-61088000D01*
X57261000Y-61088000D01*
X57261000Y-61108000D01*
X58454155Y-61108000D01*
X58575476Y-60878110D01*
X58530825Y-60730901D01*
X58405641Y-60468080D01*
X58231588Y-60234731D01*
X58015355Y-60039822D01*
X57765252Y-59890843D01*
X57602832Y-59833228D01*
X57717097Y-59785898D01*
X57918717Y-59651180D01*
X58090180Y-59479717D01*
X58224898Y-59278097D01*
X58317693Y-59054069D01*
X58365000Y-58816243D01*
X58365000Y-58573757D01*
X58317693Y-58335931D01*
X58256732Y-58188757D01*
X118769000Y-58188757D01*
X118769000Y-58431243D01*
X118816307Y-58669069D01*
X118909102Y-58893097D01*
X119043820Y-59094717D01*
X119215283Y-59266180D01*
X119416903Y-59400898D01*
X119640931Y-59493693D01*
X119878757Y-59541000D01*
X120121243Y-59541000D01*
X120359069Y-59493693D01*
X120583097Y-59400898D01*
X120784717Y-59266180D01*
X120956180Y-59094717D01*
X121090898Y-58893097D01*
X121183693Y-58669069D01*
X121231000Y-58431243D01*
X121231000Y-58188757D01*
X121183693Y-57950931D01*
X121090898Y-57726903D01*
X120956180Y-57525283D01*
X120784717Y-57353820D01*
X120583097Y-57219102D01*
X120359069Y-57126307D01*
X120121243Y-57079000D01*
X119878757Y-57079000D01*
X119640931Y-57126307D01*
X119416903Y-57219102D01*
X119215283Y-57353820D01*
X119043820Y-57525283D01*
X118909102Y-57726903D01*
X118816307Y-57950931D01*
X118769000Y-58188757D01*
X58256732Y-58188757D01*
X58224898Y-58111903D01*
X58090180Y-57910283D01*
X57918717Y-57738820D01*
X57717097Y-57604102D01*
X57493069Y-57511307D01*
X57255243Y-57464000D01*
X57012757Y-57464000D01*
X56774931Y-57511307D01*
X56550903Y-57604102D01*
X56349283Y-57738820D01*
X56177820Y-57910283D01*
X56043102Y-58111903D01*
X55950307Y-58335931D01*
X55903000Y-58573757D01*
X55903000Y-58816243D01*
X55950307Y-59054069D01*
X56043102Y-59278097D01*
X56177820Y-59479717D01*
X56349283Y-59651180D01*
X56550903Y-59785898D01*
X56665168Y-59833228D01*
X56502748Y-59890843D01*
X56252645Y-60039822D01*
X56036412Y-60234731D01*
X55862359Y-60468080D01*
X55737175Y-60730901D01*
X55728909Y-60758154D01*
X55684898Y-60651903D01*
X55550180Y-60450283D01*
X55378717Y-60278820D01*
X55177097Y-60144102D01*
X54953069Y-60051307D01*
X54715243Y-60004000D01*
X54472757Y-60004000D01*
X54234931Y-60051307D01*
X54010903Y-60144102D01*
X53809283Y-60278820D01*
X53637820Y-60450283D01*
X53503102Y-60651903D01*
X53410307Y-60875931D01*
X53363000Y-61113757D01*
X50406000Y-61113757D01*
X50406000Y-39414000D01*
X51940543Y-39414000D01*
X51943000Y-39438944D01*
X51943001Y-56527046D01*
X51940543Y-56552000D01*
X51950352Y-56651584D01*
X51979400Y-56747343D01*
X52026571Y-56835595D01*
X52074150Y-56893570D01*
X52090053Y-56912948D01*
X52109430Y-56928850D01*
X53441413Y-58260833D01*
X53410307Y-58335931D01*
X53363000Y-58573757D01*
X53363000Y-58816243D01*
X53410307Y-59054069D01*
X53503102Y-59278097D01*
X53637820Y-59479717D01*
X53809283Y-59651180D01*
X54010903Y-59785898D01*
X54234931Y-59878693D01*
X54472757Y-59926000D01*
X54715243Y-59926000D01*
X54953069Y-59878693D01*
X55177097Y-59785898D01*
X55378717Y-59651180D01*
X55550180Y-59479717D01*
X55684898Y-59278097D01*
X55777693Y-59054069D01*
X55825000Y-58816243D01*
X55825000Y-58573757D01*
X55777693Y-58335931D01*
X55684898Y-58111903D01*
X55550180Y-57910283D01*
X55378717Y-57738820D01*
X55177097Y-57604102D01*
X54953069Y-57511307D01*
X54715243Y-57464000D01*
X54472757Y-57464000D01*
X54234931Y-57511307D01*
X54159833Y-57542413D01*
X52959000Y-56341580D01*
X52959000Y-56033757D01*
X53363000Y-56033757D01*
X53363000Y-56276243D01*
X53410307Y-56514069D01*
X53503102Y-56738097D01*
X53637820Y-56939717D01*
X53809283Y-57111180D01*
X54010903Y-57245898D01*
X54234931Y-57338693D01*
X54472757Y-57386000D01*
X54715243Y-57386000D01*
X54953069Y-57338693D01*
X55177097Y-57245898D01*
X55378717Y-57111180D01*
X55550180Y-56939717D01*
X55684898Y-56738097D01*
X55777693Y-56514069D01*
X55825000Y-56276243D01*
X55825000Y-56033757D01*
X55777693Y-55795931D01*
X55684898Y-55571903D01*
X55550180Y-55370283D01*
X55378717Y-55198820D01*
X55177097Y-55064102D01*
X54953069Y-54971307D01*
X54715243Y-54924000D01*
X54472757Y-54924000D01*
X54234931Y-54971307D01*
X54010903Y-55064102D01*
X53809283Y-55198820D01*
X53637820Y-55370283D01*
X53503102Y-55571903D01*
X53410307Y-55795931D01*
X53363000Y-56033757D01*
X52959000Y-56033757D01*
X52959000Y-53493757D01*
X53363000Y-53493757D01*
X53363000Y-53736243D01*
X53410307Y-53974069D01*
X53503102Y-54198097D01*
X53637820Y-54399717D01*
X53809283Y-54571180D01*
X54010903Y-54705898D01*
X54234931Y-54798693D01*
X54472757Y-54846000D01*
X54715243Y-54846000D01*
X54953069Y-54798693D01*
X55177097Y-54705898D01*
X55378717Y-54571180D01*
X55550180Y-54399717D01*
X55684898Y-54198097D01*
X55728909Y-54091846D01*
X55737175Y-54119099D01*
X55862359Y-54381920D01*
X56036412Y-54615269D01*
X56252645Y-54810178D01*
X56502748Y-54959157D01*
X56665168Y-55016772D01*
X56550903Y-55064102D01*
X56349283Y-55198820D01*
X56177820Y-55370283D01*
X56043102Y-55571903D01*
X55950307Y-55795931D01*
X55903000Y-56033757D01*
X55903000Y-56276243D01*
X55950307Y-56514069D01*
X56043102Y-56738097D01*
X56177820Y-56939717D01*
X56349283Y-57111180D01*
X56550903Y-57245898D01*
X56774931Y-57338693D01*
X57012757Y-57386000D01*
X57255243Y-57386000D01*
X57493069Y-57338693D01*
X57717097Y-57245898D01*
X57918717Y-57111180D01*
X58090180Y-56939717D01*
X58224898Y-56738097D01*
X58317693Y-56514069D01*
X58365000Y-56276243D01*
X58365000Y-56033757D01*
X58317693Y-55795931D01*
X58224898Y-55571903D01*
X58090180Y-55370283D01*
X57918717Y-55198820D01*
X57717097Y-55064102D01*
X57602832Y-55016772D01*
X57765252Y-54959157D01*
X58015355Y-54810178D01*
X58231588Y-54615269D01*
X58405641Y-54381920D01*
X58530825Y-54119099D01*
X58575476Y-53971890D01*
X58454155Y-53742000D01*
X57261000Y-53742000D01*
X57261000Y-53762000D01*
X57007000Y-53762000D01*
X57007000Y-53742000D01*
X56987000Y-53742000D01*
X56987000Y-53488000D01*
X57007000Y-53488000D01*
X57007000Y-53468000D01*
X57261000Y-53468000D01*
X57261000Y-53488000D01*
X58454155Y-53488000D01*
X58575476Y-53258110D01*
X58530825Y-53110901D01*
X58405641Y-52848080D01*
X58231588Y-52614731D01*
X58015355Y-52419822D01*
X57948503Y-52380000D01*
X118511928Y-52380000D01*
X118515000Y-52944250D01*
X118673750Y-53103000D01*
X119873000Y-53103000D01*
X119873000Y-51903750D01*
X120127000Y-51903750D01*
X120127000Y-53103000D01*
X121326250Y-53103000D01*
X121485000Y-52944250D01*
X121488072Y-52380000D01*
X121475812Y-52255518D01*
X121439502Y-52135820D01*
X121380537Y-52025506D01*
X121301185Y-51928815D01*
X121204494Y-51849463D01*
X121094180Y-51790498D01*
X120974482Y-51754188D01*
X120850000Y-51741928D01*
X120285750Y-51745000D01*
X120127000Y-51903750D01*
X119873000Y-51903750D01*
X119714250Y-51745000D01*
X119150000Y-51741928D01*
X119025518Y-51754188D01*
X118905820Y-51790498D01*
X118795506Y-51849463D01*
X118698815Y-51928815D01*
X118619463Y-52025506D01*
X118560498Y-52135820D01*
X118524188Y-52255518D01*
X118511928Y-52380000D01*
X57948503Y-52380000D01*
X57765252Y-52270843D01*
X57602832Y-52213228D01*
X57717097Y-52165898D01*
X57918717Y-52031180D01*
X58090180Y-51859717D01*
X58224898Y-51658097D01*
X58317693Y-51434069D01*
X58365000Y-51196243D01*
X58365000Y-50953757D01*
X58317693Y-50715931D01*
X58224898Y-50491903D01*
X58090180Y-50290283D01*
X57918717Y-50118820D01*
X57717097Y-49984102D01*
X57493069Y-49891307D01*
X57255243Y-49844000D01*
X57012757Y-49844000D01*
X56774931Y-49891307D01*
X56550903Y-49984102D01*
X56349283Y-50118820D01*
X56177820Y-50290283D01*
X56043102Y-50491903D01*
X55950307Y-50715931D01*
X55903000Y-50953757D01*
X55903000Y-51196243D01*
X55950307Y-51434069D01*
X56043102Y-51658097D01*
X56177820Y-51859717D01*
X56349283Y-52031180D01*
X56550903Y-52165898D01*
X56665168Y-52213228D01*
X56502748Y-52270843D01*
X56252645Y-52419822D01*
X56036412Y-52614731D01*
X55862359Y-52848080D01*
X55737175Y-53110901D01*
X55728909Y-53138154D01*
X55684898Y-53031903D01*
X55550180Y-52830283D01*
X55378717Y-52658820D01*
X55177097Y-52524102D01*
X54953069Y-52431307D01*
X54715243Y-52384000D01*
X54472757Y-52384000D01*
X54234931Y-52431307D01*
X54010903Y-52524102D01*
X53809283Y-52658820D01*
X53637820Y-52830283D01*
X53503102Y-53031903D01*
X53410307Y-53255931D01*
X53363000Y-53493757D01*
X52959000Y-53493757D01*
X52959000Y-48178110D01*
X53152524Y-48178110D01*
X53273845Y-48408000D01*
X54467000Y-48408000D01*
X54467000Y-48388000D01*
X54721000Y-48388000D01*
X54721000Y-48408000D01*
X54741000Y-48408000D01*
X54741000Y-48662000D01*
X54721000Y-48662000D01*
X54721000Y-48682000D01*
X54467000Y-48682000D01*
X54467000Y-48662000D01*
X53273845Y-48662000D01*
X53152524Y-48891890D01*
X53197175Y-49039099D01*
X53322359Y-49301920D01*
X53496412Y-49535269D01*
X53712645Y-49730178D01*
X53962748Y-49879157D01*
X54125168Y-49936772D01*
X54010903Y-49984102D01*
X53809283Y-50118820D01*
X53637820Y-50290283D01*
X53503102Y-50491903D01*
X53410307Y-50715931D01*
X53363000Y-50953757D01*
X53363000Y-51196243D01*
X53410307Y-51434069D01*
X53503102Y-51658097D01*
X53637820Y-51859717D01*
X53809283Y-52031180D01*
X54010903Y-52165898D01*
X54234931Y-52258693D01*
X54472757Y-52306000D01*
X54715243Y-52306000D01*
X54953069Y-52258693D01*
X55177097Y-52165898D01*
X55378717Y-52031180D01*
X55550180Y-51859717D01*
X55684898Y-51658097D01*
X55777693Y-51434069D01*
X55825000Y-51196243D01*
X55825000Y-50953757D01*
X55777693Y-50715931D01*
X55684898Y-50491903D01*
X55550180Y-50290283D01*
X55378717Y-50118820D01*
X55177097Y-49984102D01*
X55062832Y-49936772D01*
X55225252Y-49879157D01*
X55475355Y-49730178D01*
X55691588Y-49535269D01*
X55865641Y-49301920D01*
X55990825Y-49039099D01*
X55999091Y-49011846D01*
X56043102Y-49118097D01*
X56177820Y-49319717D01*
X56349283Y-49491180D01*
X56550903Y-49625898D01*
X56774931Y-49718693D01*
X57012757Y-49766000D01*
X57255243Y-49766000D01*
X57493069Y-49718693D01*
X57717097Y-49625898D01*
X57918717Y-49491180D01*
X58090180Y-49319717D01*
X58224898Y-49118097D01*
X58317693Y-48894069D01*
X58365000Y-48656243D01*
X58365000Y-48413757D01*
X58317693Y-48175931D01*
X58224898Y-47951903D01*
X58090180Y-47750283D01*
X57918717Y-47578820D01*
X57717097Y-47444102D01*
X57493069Y-47351307D01*
X57255243Y-47304000D01*
X57012757Y-47304000D01*
X56774931Y-47351307D01*
X56550903Y-47444102D01*
X56349283Y-47578820D01*
X56177820Y-47750283D01*
X56043102Y-47951903D01*
X55999091Y-48058154D01*
X55990825Y-48030901D01*
X55865641Y-47768080D01*
X55691588Y-47534731D01*
X55475355Y-47339822D01*
X55225252Y-47190843D01*
X55062832Y-47133228D01*
X55177097Y-47085898D01*
X55378717Y-46951180D01*
X55550180Y-46779717D01*
X55684898Y-46578097D01*
X55777693Y-46354069D01*
X55825000Y-46116243D01*
X55825000Y-45873757D01*
X55777693Y-45635931D01*
X55684898Y-45411903D01*
X55550180Y-45210283D01*
X55378717Y-45038820D01*
X55177097Y-44904102D01*
X54953069Y-44811307D01*
X54715243Y-44764000D01*
X54472757Y-44764000D01*
X54234931Y-44811307D01*
X54010903Y-44904102D01*
X53809283Y-45038820D01*
X53637820Y-45210283D01*
X53503102Y-45411903D01*
X53410307Y-45635931D01*
X53363000Y-45873757D01*
X53363000Y-46116243D01*
X53410307Y-46354069D01*
X53503102Y-46578097D01*
X53637820Y-46779717D01*
X53809283Y-46951180D01*
X54010903Y-47085898D01*
X54125168Y-47133228D01*
X53962748Y-47190843D01*
X53712645Y-47339822D01*
X53496412Y-47534731D01*
X53322359Y-47768080D01*
X53197175Y-48030901D01*
X53152524Y-48178110D01*
X52959000Y-48178110D01*
X52959000Y-43333757D01*
X53363000Y-43333757D01*
X53363000Y-43576243D01*
X53410307Y-43814069D01*
X53503102Y-44038097D01*
X53637820Y-44239717D01*
X53809283Y-44411180D01*
X54010903Y-44545898D01*
X54234931Y-44638693D01*
X54472757Y-44686000D01*
X54715243Y-44686000D01*
X54953069Y-44638693D01*
X55177097Y-44545898D01*
X55378717Y-44411180D01*
X55550180Y-44239717D01*
X55684898Y-44038097D01*
X55728909Y-43931846D01*
X55737175Y-43959099D01*
X55862359Y-44221920D01*
X56036412Y-44455269D01*
X56252645Y-44650178D01*
X56502748Y-44799157D01*
X56665168Y-44856772D01*
X56550903Y-44904102D01*
X56349283Y-45038820D01*
X56177820Y-45210283D01*
X56043102Y-45411903D01*
X55950307Y-45635931D01*
X55903000Y-45873757D01*
X55903000Y-46116243D01*
X55950307Y-46354069D01*
X56043102Y-46578097D01*
X56177820Y-46779717D01*
X56349283Y-46951180D01*
X56550903Y-47085898D01*
X56774931Y-47178693D01*
X57012757Y-47226000D01*
X57255243Y-47226000D01*
X57493069Y-47178693D01*
X57717097Y-47085898D01*
X57918717Y-46951180D01*
X58090180Y-46779717D01*
X58224898Y-46578097D01*
X58317693Y-46354069D01*
X58365000Y-46116243D01*
X58365000Y-45873757D01*
X58317693Y-45635931D01*
X58224898Y-45411903D01*
X58090180Y-45210283D01*
X57918717Y-45038820D01*
X57717097Y-44904102D01*
X57602832Y-44856772D01*
X57765252Y-44799157D01*
X58015355Y-44650178D01*
X58231588Y-44455269D01*
X58405641Y-44221920D01*
X58530825Y-43959099D01*
X58575476Y-43811890D01*
X58454155Y-43582000D01*
X57261000Y-43582000D01*
X57261000Y-43602000D01*
X57007000Y-43602000D01*
X57007000Y-43582000D01*
X56987000Y-43582000D01*
X56987000Y-43328000D01*
X57007000Y-43328000D01*
X57007000Y-43308000D01*
X57261000Y-43308000D01*
X57261000Y-43328000D01*
X58454155Y-43328000D01*
X58575476Y-43098110D01*
X58530825Y-42950901D01*
X58405641Y-42688080D01*
X58231588Y-42454731D01*
X58015355Y-42259822D01*
X57765252Y-42110843D01*
X57602832Y-42053228D01*
X57717097Y-42005898D01*
X57918717Y-41871180D01*
X58090180Y-41699717D01*
X58224898Y-41498097D01*
X58317693Y-41274069D01*
X58365000Y-41036243D01*
X58365000Y-40793757D01*
X58317693Y-40555931D01*
X58224898Y-40331903D01*
X58090180Y-40130283D01*
X57918717Y-39958820D01*
X57717097Y-39824102D01*
X57642000Y-39792996D01*
X57642000Y-39497004D01*
X57717097Y-39465898D01*
X57918717Y-39331180D01*
X58090180Y-39159717D01*
X58224898Y-38958097D01*
X58317693Y-38734069D01*
X58365000Y-38496243D01*
X58365000Y-38253757D01*
X58317693Y-38015931D01*
X58224898Y-37791903D01*
X58090180Y-37590283D01*
X57918717Y-37418820D01*
X57717097Y-37284102D01*
X57493069Y-37191307D01*
X57255243Y-37144000D01*
X57012757Y-37144000D01*
X56774931Y-37191307D01*
X56550903Y-37284102D01*
X56349283Y-37418820D01*
X56177820Y-37590283D01*
X56043102Y-37791903D01*
X55950307Y-38015931D01*
X55903000Y-38253757D01*
X55903000Y-38496243D01*
X55950307Y-38734069D01*
X56043102Y-38958097D01*
X56177820Y-39159717D01*
X56349283Y-39331180D01*
X56550903Y-39465898D01*
X56626000Y-39497004D01*
X56626001Y-39792996D01*
X56550903Y-39824102D01*
X56349283Y-39958820D01*
X56177820Y-40130283D01*
X56043102Y-40331903D01*
X55950307Y-40555931D01*
X55903000Y-40793757D01*
X55903000Y-41036243D01*
X55950307Y-41274069D01*
X56043102Y-41498097D01*
X56177820Y-41699717D01*
X56349283Y-41871180D01*
X56550903Y-42005898D01*
X56665168Y-42053228D01*
X56502748Y-42110843D01*
X56252645Y-42259822D01*
X56036412Y-42454731D01*
X55862359Y-42688080D01*
X55737175Y-42950901D01*
X55728909Y-42978154D01*
X55684898Y-42871903D01*
X55550180Y-42670283D01*
X55378717Y-42498820D01*
X55177097Y-42364102D01*
X54953069Y-42271307D01*
X54715243Y-42224000D01*
X54472757Y-42224000D01*
X54234931Y-42271307D01*
X54010903Y-42364102D01*
X53809283Y-42498820D01*
X53637820Y-42670283D01*
X53503102Y-42871903D01*
X53410307Y-43095931D01*
X53363000Y-43333757D01*
X52959000Y-43333757D01*
X52959000Y-40793757D01*
X53363000Y-40793757D01*
X53363000Y-41036243D01*
X53410307Y-41274069D01*
X53503102Y-41498097D01*
X53637820Y-41699717D01*
X53809283Y-41871180D01*
X54010903Y-42005898D01*
X54234931Y-42098693D01*
X54472757Y-42146000D01*
X54715243Y-42146000D01*
X54953069Y-42098693D01*
X55177097Y-42005898D01*
X55378717Y-41871180D01*
X55550180Y-41699717D01*
X55684898Y-41498097D01*
X55777693Y-41274069D01*
X55825000Y-41036243D01*
X55825000Y-40793757D01*
X55777693Y-40555931D01*
X55684898Y-40331903D01*
X55550180Y-40130283D01*
X55378717Y-39958820D01*
X55177097Y-39824102D01*
X54953069Y-39731307D01*
X54715243Y-39684000D01*
X54472757Y-39684000D01*
X54234931Y-39731307D01*
X54010903Y-39824102D01*
X53809283Y-39958820D01*
X53637820Y-40130283D01*
X53503102Y-40331903D01*
X53410307Y-40555931D01*
X53363000Y-40793757D01*
X52959000Y-40793757D01*
X52959000Y-39624420D01*
X53361157Y-39222263D01*
X53361157Y-39225000D01*
X53368513Y-39299689D01*
X53390299Y-39371508D01*
X53425678Y-39437696D01*
X53473289Y-39495711D01*
X53531304Y-39543322D01*
X53597492Y-39578701D01*
X53669311Y-39600487D01*
X53744000Y-39607843D01*
X55444000Y-39607843D01*
X55518689Y-39600487D01*
X55590508Y-39578701D01*
X55656696Y-39543322D01*
X55714711Y-39495711D01*
X55762322Y-39437696D01*
X55797701Y-39371508D01*
X55819487Y-39299689D01*
X55826843Y-39225000D01*
X55826843Y-37525000D01*
X55819487Y-37450311D01*
X55797701Y-37378492D01*
X55762322Y-37312304D01*
X55714711Y-37254289D01*
X55656696Y-37206678D01*
X55590508Y-37171299D01*
X55518689Y-37149513D01*
X55444000Y-37142157D01*
X55441264Y-37142157D01*
X55499421Y-37084000D01*
X69004580Y-37084000D01*
X76562000Y-44641420D01*
X76562000Y-44780922D01*
X76592013Y-44931809D01*
X76650887Y-45073942D01*
X76736358Y-45201859D01*
X76845141Y-45310642D01*
X76973058Y-45396113D01*
X77115191Y-45454987D01*
X77266078Y-45485000D01*
X77419922Y-45485000D01*
X77570809Y-45454987D01*
X77712942Y-45396113D01*
X77840859Y-45310642D01*
X77949642Y-45201859D01*
X78035113Y-45073942D01*
X78093987Y-44931809D01*
X78124000Y-44780922D01*
X78124000Y-44698757D01*
X118769000Y-44698757D01*
X118769000Y-44941243D01*
X118816307Y-45179069D01*
X118909102Y-45403097D01*
X119043820Y-45604717D01*
X119215283Y-45776180D01*
X119416903Y-45910898D01*
X119640931Y-46003693D01*
X119878757Y-46051000D01*
X120121243Y-46051000D01*
X120359069Y-46003693D01*
X120583097Y-45910898D01*
X120784717Y-45776180D01*
X120956180Y-45604717D01*
X121090898Y-45403097D01*
X121183693Y-45179069D01*
X121231000Y-44941243D01*
X121231000Y-44698757D01*
X121183693Y-44460931D01*
X121090898Y-44236903D01*
X120956180Y-44035283D01*
X120784717Y-43863820D01*
X120583097Y-43729102D01*
X120359069Y-43636307D01*
X120121243Y-43589000D01*
X119878757Y-43589000D01*
X119640931Y-43636307D01*
X119416903Y-43729102D01*
X119215283Y-43863820D01*
X119043820Y-44035283D01*
X118909102Y-44236903D01*
X118816307Y-44460931D01*
X118769000Y-44698757D01*
X78124000Y-44698757D01*
X78124000Y-44627078D01*
X78093987Y-44476191D01*
X78035113Y-44334058D01*
X77949642Y-44206141D01*
X77840859Y-44097358D01*
X77712942Y-44011887D01*
X77570809Y-43953013D01*
X77419922Y-43923000D01*
X77280420Y-43923000D01*
X72247420Y-38890000D01*
X118511928Y-38890000D01*
X118515000Y-39454250D01*
X118673750Y-39613000D01*
X119873000Y-39613000D01*
X119873000Y-38413750D01*
X119714250Y-38255000D01*
X119150000Y-38251928D01*
X119025518Y-38264188D01*
X118905820Y-38300498D01*
X118795506Y-38359463D01*
X118698815Y-38438815D01*
X118619463Y-38535506D01*
X118560498Y-38645820D01*
X118524188Y-38765518D01*
X118511928Y-38890000D01*
X72247420Y-38890000D01*
X69591855Y-36234435D01*
X69575948Y-36215052D01*
X69498595Y-36151571D01*
X69410343Y-36104399D01*
X69314585Y-36075351D01*
X69239947Y-36068000D01*
X69239944Y-36068000D01*
X69215000Y-36065543D01*
X69190056Y-36068000D01*
X55313943Y-36068000D01*
X55288999Y-36065543D01*
X55264055Y-36068000D01*
X55264053Y-36068000D01*
X55189415Y-36075351D01*
X55093657Y-36104399D01*
X55093655Y-36104400D01*
X55005404Y-36151571D01*
X54950810Y-36196376D01*
X54928052Y-36215052D01*
X54912149Y-36234430D01*
X54252430Y-36894150D01*
X54233053Y-36910052D01*
X54217151Y-36929429D01*
X54217150Y-36929430D01*
X54169571Y-36987405D01*
X54162610Y-37000429D01*
X54122400Y-37075657D01*
X54102227Y-37142157D01*
X53744000Y-37142157D01*
X53669311Y-37149513D01*
X53597492Y-37171299D01*
X53531304Y-37206678D01*
X53473289Y-37254289D01*
X53425678Y-37312304D01*
X53390299Y-37378492D01*
X53368513Y-37450311D01*
X53361157Y-37525000D01*
X53361157Y-37883226D01*
X53294657Y-37903399D01*
X53206405Y-37950571D01*
X53129052Y-38014052D01*
X53113145Y-38033435D01*
X52109435Y-39037145D01*
X52090052Y-39053052D01*
X52026571Y-39130405D01*
X51979399Y-39218658D01*
X51950351Y-39314416D01*
X51944728Y-39371508D01*
X51940543Y-39414000D01*
X50406000Y-39414000D01*
X50406000Y-29681774D01*
X51769000Y-29681774D01*
X51769000Y-30318226D01*
X51893166Y-30942448D01*
X52136725Y-31530452D01*
X52490319Y-32059642D01*
X52940358Y-32509681D01*
X53469548Y-32863275D01*
X54057552Y-33106834D01*
X54681774Y-33231000D01*
X55318226Y-33231000D01*
X55942448Y-33106834D01*
X56530452Y-32863275D01*
X57059642Y-32509681D01*
X57509681Y-32059642D01*
X57863275Y-31530452D01*
X58106834Y-30942448D01*
X58231000Y-30318226D01*
X58231000Y-29878757D01*
X63479000Y-29878757D01*
X63479000Y-30121243D01*
X63526307Y-30359069D01*
X63619102Y-30583097D01*
X63753820Y-30784717D01*
X63925283Y-30956180D01*
X64126903Y-31090898D01*
X64350931Y-31183693D01*
X64588757Y-31231000D01*
X64831243Y-31231000D01*
X65069069Y-31183693D01*
X65293097Y-31090898D01*
X65494717Y-30956180D01*
X65666180Y-30784717D01*
X65800898Y-30583097D01*
X65893693Y-30359069D01*
X65941000Y-30121243D01*
X65941000Y-29878757D01*
X66019000Y-29878757D01*
X66019000Y-30121243D01*
X66066307Y-30359069D01*
X66159102Y-30583097D01*
X66293820Y-30784717D01*
X66465283Y-30956180D01*
X66666903Y-31090898D01*
X66890931Y-31183693D01*
X67128757Y-31231000D01*
X67371243Y-31231000D01*
X67609069Y-31183693D01*
X67833097Y-31090898D01*
X68034717Y-30956180D01*
X68206180Y-30784717D01*
X68303073Y-30639706D01*
X68301928Y-30850000D01*
X68314188Y-30974482D01*
X68350498Y-31094180D01*
X68409463Y-31204494D01*
X68488815Y-31301185D01*
X68585506Y-31380537D01*
X68695820Y-31439502D01*
X68815518Y-31475812D01*
X68940000Y-31488072D01*
X69504250Y-31485000D01*
X69663000Y-31326250D01*
X69663000Y-30127000D01*
X69917000Y-30127000D01*
X69917000Y-31326250D01*
X70075750Y-31485000D01*
X70640000Y-31488072D01*
X70764482Y-31475812D01*
X70884180Y-31439502D01*
X70994494Y-31380537D01*
X71091185Y-31301185D01*
X71170537Y-31204494D01*
X71229502Y-31094180D01*
X71265812Y-30974482D01*
X71278072Y-30850000D01*
X71275000Y-30285750D01*
X71116250Y-30127000D01*
X69917000Y-30127000D01*
X69663000Y-30127000D01*
X69643000Y-30127000D01*
X69643000Y-29878757D01*
X76969000Y-29878757D01*
X76969000Y-30121243D01*
X77016307Y-30359069D01*
X77109102Y-30583097D01*
X77243820Y-30784717D01*
X77415283Y-30956180D01*
X77616903Y-31090898D01*
X77840931Y-31183693D01*
X78078757Y-31231000D01*
X78321243Y-31231000D01*
X78559069Y-31183693D01*
X78783097Y-31090898D01*
X78984717Y-30956180D01*
X79156180Y-30784717D01*
X79290898Y-30583097D01*
X79383693Y-30359069D01*
X79431000Y-30121243D01*
X79431000Y-29878757D01*
X79383693Y-29640931D01*
X79290898Y-29416903D01*
X79156180Y-29215283D01*
X78984717Y-29043820D01*
X78783097Y-28909102D01*
X78559069Y-28816307D01*
X78321243Y-28769000D01*
X78078757Y-28769000D01*
X77840931Y-28816307D01*
X77616903Y-28909102D01*
X77415283Y-29043820D01*
X77243820Y-29215283D01*
X77109102Y-29416903D01*
X77016307Y-29640931D01*
X76969000Y-29878757D01*
X69643000Y-29878757D01*
X69643000Y-29873000D01*
X69663000Y-29873000D01*
X69663000Y-28673750D01*
X69917000Y-28673750D01*
X69917000Y-29873000D01*
X71116250Y-29873000D01*
X71275000Y-29714250D01*
X71278072Y-29150000D01*
X71265812Y-29025518D01*
X71229502Y-28905820D01*
X71170537Y-28795506D01*
X71091185Y-28698815D01*
X70994494Y-28619463D01*
X70884180Y-28560498D01*
X70764482Y-28524188D01*
X70640000Y-28511928D01*
X70075750Y-28515000D01*
X69917000Y-28673750D01*
X69663000Y-28673750D01*
X69504250Y-28515000D01*
X69151286Y-28513078D01*
X69470365Y-28194000D01*
X79766769Y-28194000D01*
X79678897Y-28358396D01*
X79613539Y-28573852D01*
X79597000Y-28741773D01*
X79597000Y-28741780D01*
X79591471Y-28797919D01*
X79597000Y-28854058D01*
X79597000Y-29542689D01*
X79556307Y-29640931D01*
X79509000Y-29878757D01*
X79509000Y-30121243D01*
X79556307Y-30359069D01*
X79649102Y-30583097D01*
X79783820Y-30784717D01*
X79955283Y-30956180D01*
X80156903Y-31090898D01*
X80380931Y-31183693D01*
X80618757Y-31231000D01*
X80861243Y-31231000D01*
X81099069Y-31183693D01*
X81323097Y-31090898D01*
X81524717Y-30956180D01*
X81696180Y-30784717D01*
X81793073Y-30639706D01*
X81791928Y-30850000D01*
X81804188Y-30974482D01*
X81840498Y-31094180D01*
X81899463Y-31204494D01*
X81978815Y-31301185D01*
X82075506Y-31380537D01*
X82185820Y-31439502D01*
X82305518Y-31475812D01*
X82430000Y-31488072D01*
X82994250Y-31485000D01*
X83153000Y-31326250D01*
X83153000Y-30127000D01*
X83407000Y-30127000D01*
X83407000Y-31326250D01*
X83565750Y-31485000D01*
X84130000Y-31488072D01*
X84254482Y-31475812D01*
X84374180Y-31439502D01*
X84484494Y-31380537D01*
X84581185Y-31301185D01*
X84660537Y-31204494D01*
X84719502Y-31094180D01*
X84755812Y-30974482D01*
X84768072Y-30850000D01*
X84765000Y-30285750D01*
X84606250Y-30127000D01*
X83407000Y-30127000D01*
X83153000Y-30127000D01*
X83133000Y-30127000D01*
X83133000Y-29878757D01*
X90459000Y-29878757D01*
X90459000Y-30121243D01*
X90506307Y-30359069D01*
X90599102Y-30583097D01*
X90733820Y-30784717D01*
X90905283Y-30956180D01*
X91106903Y-31090898D01*
X91330931Y-31183693D01*
X91568757Y-31231000D01*
X91811243Y-31231000D01*
X92049069Y-31183693D01*
X92273097Y-31090898D01*
X92474717Y-30956180D01*
X92646180Y-30784717D01*
X92780898Y-30583097D01*
X92873693Y-30359069D01*
X92921000Y-30121243D01*
X92921000Y-29878757D01*
X92873693Y-29640931D01*
X92780898Y-29416903D01*
X92646180Y-29215283D01*
X92474717Y-29043820D01*
X92273097Y-28909102D01*
X92049069Y-28816307D01*
X91811243Y-28769000D01*
X91568757Y-28769000D01*
X91330931Y-28816307D01*
X91106903Y-28909102D01*
X90905283Y-29043820D01*
X90733820Y-29215283D01*
X90599102Y-29416903D01*
X90506307Y-29640931D01*
X90459000Y-29878757D01*
X83133000Y-29878757D01*
X83133000Y-29873000D01*
X83153000Y-29873000D01*
X83153000Y-28673750D01*
X83407000Y-28673750D01*
X83407000Y-29873000D01*
X84606250Y-29873000D01*
X84765000Y-29714250D01*
X84768072Y-29150000D01*
X84755812Y-29025518D01*
X84719502Y-28905820D01*
X84660537Y-28795506D01*
X84581185Y-28698815D01*
X84484494Y-28619463D01*
X84374180Y-28560498D01*
X84254482Y-28524188D01*
X84130000Y-28511928D01*
X83565750Y-28515000D01*
X83407000Y-28673750D01*
X83153000Y-28673750D01*
X82994250Y-28515000D01*
X82641286Y-28513078D01*
X82960365Y-28194000D01*
X93256769Y-28194000D01*
X93168897Y-28358396D01*
X93103539Y-28573852D01*
X93087000Y-28741773D01*
X93087000Y-28741780D01*
X93081471Y-28797919D01*
X93087000Y-28854058D01*
X93087000Y-29542689D01*
X93046307Y-29640931D01*
X92999000Y-29878757D01*
X92999000Y-30121243D01*
X93046307Y-30359069D01*
X93139102Y-30583097D01*
X93273820Y-30784717D01*
X93445283Y-30956180D01*
X93646903Y-31090898D01*
X93870931Y-31183693D01*
X94108757Y-31231000D01*
X94351243Y-31231000D01*
X94589069Y-31183693D01*
X94813097Y-31090898D01*
X95014717Y-30956180D01*
X95186180Y-30784717D01*
X95283073Y-30639706D01*
X95281928Y-30850000D01*
X95294188Y-30974482D01*
X95330498Y-31094180D01*
X95389463Y-31204494D01*
X95468815Y-31301185D01*
X95565506Y-31380537D01*
X95675820Y-31439502D01*
X95795518Y-31475812D01*
X95920000Y-31488072D01*
X96484250Y-31485000D01*
X96643000Y-31326250D01*
X96643000Y-30127000D01*
X96897000Y-30127000D01*
X96897000Y-31326250D01*
X97055750Y-31485000D01*
X97620000Y-31488072D01*
X97744482Y-31475812D01*
X97864180Y-31439502D01*
X97974494Y-31380537D01*
X98071185Y-31301185D01*
X98150537Y-31204494D01*
X98209502Y-31094180D01*
X98245812Y-30974482D01*
X98258072Y-30850000D01*
X98255000Y-30285750D01*
X98096250Y-30127000D01*
X96897000Y-30127000D01*
X96643000Y-30127000D01*
X96623000Y-30127000D01*
X96623000Y-29878757D01*
X103949000Y-29878757D01*
X103949000Y-30121243D01*
X103996307Y-30359069D01*
X104089102Y-30583097D01*
X104223820Y-30784717D01*
X104395283Y-30956180D01*
X104596903Y-31090898D01*
X104820931Y-31183693D01*
X105058757Y-31231000D01*
X105301243Y-31231000D01*
X105539069Y-31183693D01*
X105763097Y-31090898D01*
X105964717Y-30956180D01*
X106136180Y-30784717D01*
X106270898Y-30583097D01*
X106363693Y-30359069D01*
X106411000Y-30121243D01*
X106411000Y-29878757D01*
X106363693Y-29640931D01*
X106270898Y-29416903D01*
X106136180Y-29215283D01*
X105964717Y-29043820D01*
X105763097Y-28909102D01*
X105539069Y-28816307D01*
X105301243Y-28769000D01*
X105058757Y-28769000D01*
X104820931Y-28816307D01*
X104596903Y-28909102D01*
X104395283Y-29043820D01*
X104223820Y-29215283D01*
X104089102Y-29416903D01*
X103996307Y-29640931D01*
X103949000Y-29878757D01*
X96623000Y-29878757D01*
X96623000Y-29873000D01*
X96643000Y-29873000D01*
X96643000Y-28673750D01*
X96897000Y-28673750D01*
X96897000Y-29873000D01*
X98096250Y-29873000D01*
X98255000Y-29714250D01*
X98258072Y-29150000D01*
X98245812Y-29025518D01*
X98209502Y-28905820D01*
X98150537Y-28795506D01*
X98071185Y-28698815D01*
X97974494Y-28619463D01*
X97864180Y-28560498D01*
X97744482Y-28524188D01*
X97620000Y-28511928D01*
X97055750Y-28515000D01*
X96897000Y-28673750D01*
X96643000Y-28673750D01*
X96484250Y-28515000D01*
X96131286Y-28513078D01*
X96450365Y-28194000D01*
X106746769Y-28194000D01*
X106658897Y-28358396D01*
X106593539Y-28573852D01*
X106577000Y-28741773D01*
X106577000Y-28741780D01*
X106571471Y-28797919D01*
X106577000Y-28854058D01*
X106577000Y-29542689D01*
X106536307Y-29640931D01*
X106489000Y-29878757D01*
X106489000Y-30121243D01*
X106536307Y-30359069D01*
X106629102Y-30583097D01*
X106763820Y-30784717D01*
X106935283Y-30956180D01*
X107136903Y-31090898D01*
X107360931Y-31183693D01*
X107598757Y-31231000D01*
X107841243Y-31231000D01*
X108079069Y-31183693D01*
X108303097Y-31090898D01*
X108504717Y-30956180D01*
X108676180Y-30784717D01*
X108773073Y-30639706D01*
X108771928Y-30850000D01*
X108784188Y-30974482D01*
X108820498Y-31094180D01*
X108879463Y-31204494D01*
X108958815Y-31301185D01*
X109055506Y-31380537D01*
X109165820Y-31439502D01*
X109285518Y-31475812D01*
X109410000Y-31488072D01*
X109974250Y-31485000D01*
X110133000Y-31326250D01*
X110133000Y-30127000D01*
X110387000Y-30127000D01*
X110387000Y-31326250D01*
X110545750Y-31485000D01*
X111110000Y-31488072D01*
X111234482Y-31475812D01*
X111354180Y-31439502D01*
X111464494Y-31380537D01*
X111561185Y-31301185D01*
X111640537Y-31204494D01*
X111699502Y-31094180D01*
X111735812Y-30974482D01*
X111748072Y-30850000D01*
X111745000Y-30285750D01*
X111586250Y-30127000D01*
X110387000Y-30127000D01*
X110133000Y-30127000D01*
X110113000Y-30127000D01*
X110113000Y-29873000D01*
X110133000Y-29873000D01*
X110133000Y-28673750D01*
X109974250Y-28515000D01*
X109621286Y-28513078D01*
X109940365Y-28194000D01*
X110651555Y-28194000D01*
X110970244Y-28512689D01*
X110545750Y-28515000D01*
X110387000Y-28673750D01*
X110387000Y-29873000D01*
X111586250Y-29873000D01*
X111745000Y-29714250D01*
X111747311Y-29289756D01*
X120710243Y-38252689D01*
X120285750Y-38255000D01*
X120127000Y-38413750D01*
X120127000Y-39613000D01*
X121326250Y-39613000D01*
X121485000Y-39454250D01*
X121487311Y-39029757D01*
X121793001Y-39335447D01*
X121793000Y-41299820D01*
X121641604Y-41218897D01*
X121426148Y-41153539D01*
X121258227Y-41137000D01*
X121258220Y-41137000D01*
X121202081Y-41131471D01*
X121179963Y-41133649D01*
X121204494Y-41120537D01*
X121301185Y-41041185D01*
X121380537Y-40944494D01*
X121439502Y-40834180D01*
X121475812Y-40714482D01*
X121488072Y-40590000D01*
X121485000Y-40025750D01*
X121326250Y-39867000D01*
X120127000Y-39867000D01*
X120127000Y-39887000D01*
X119873000Y-39887000D01*
X119873000Y-39867000D01*
X118673750Y-39867000D01*
X118515000Y-40025750D01*
X118511928Y-40590000D01*
X118524188Y-40714482D01*
X118560498Y-40834180D01*
X118619463Y-40944494D01*
X118698815Y-41041185D01*
X118795506Y-41120537D01*
X118905820Y-41179502D01*
X119025518Y-41215812D01*
X119150000Y-41228072D01*
X119360294Y-41226927D01*
X119215283Y-41323820D01*
X119043820Y-41495283D01*
X118909102Y-41696903D01*
X118816307Y-41920931D01*
X118769000Y-42158757D01*
X118769000Y-42401243D01*
X118816307Y-42639069D01*
X118909102Y-42863097D01*
X119043820Y-43064717D01*
X119215283Y-43236180D01*
X119416903Y-43370898D01*
X119640931Y-43463693D01*
X119878757Y-43511000D01*
X120121243Y-43511000D01*
X120359069Y-43463693D01*
X120457311Y-43423000D01*
X120728636Y-43423000D01*
X121793000Y-44487365D01*
X121793000Y-46157145D01*
X121793001Y-46157155D01*
X121793000Y-54789819D01*
X121641604Y-54708897D01*
X121426148Y-54643539D01*
X121258227Y-54627000D01*
X121258220Y-54627000D01*
X121202081Y-54621471D01*
X121179963Y-54623649D01*
X121204494Y-54610537D01*
X121301185Y-54531185D01*
X121380537Y-54434494D01*
X121439502Y-54324180D01*
X121475812Y-54204482D01*
X121488072Y-54080000D01*
X121485000Y-53515750D01*
X121326250Y-53357000D01*
X120127000Y-53357000D01*
X120127000Y-53377000D01*
X119873000Y-53377000D01*
X119873000Y-53357000D01*
X118673750Y-53357000D01*
X118515000Y-53515750D01*
X118511928Y-54080000D01*
X118524188Y-54204482D01*
X118560498Y-54324180D01*
X118619463Y-54434494D01*
X118698815Y-54531185D01*
X118795506Y-54610537D01*
X118905820Y-54669502D01*
X119025518Y-54705812D01*
X119150000Y-54718072D01*
X119360294Y-54716927D01*
X119215283Y-54813820D01*
X119043820Y-54985283D01*
X118909102Y-55186903D01*
X118816307Y-55410931D01*
X118769000Y-55648757D01*
X118769000Y-55891243D01*
X118816307Y-56129069D01*
X118909102Y-56353097D01*
X119043820Y-56554717D01*
X119215283Y-56726180D01*
X119416903Y-56860898D01*
X119640931Y-56953693D01*
X119878757Y-57001000D01*
X120121243Y-57001000D01*
X120359069Y-56953693D01*
X120457311Y-56913000D01*
X120728636Y-56913000D01*
X121793000Y-57977365D01*
X121793000Y-59365145D01*
X121793001Y-59365155D01*
X121793000Y-68279819D01*
X121641604Y-68198897D01*
X121426148Y-68133539D01*
X121258227Y-68117000D01*
X121258220Y-68117000D01*
X121202081Y-68111471D01*
X121179963Y-68113649D01*
X121204494Y-68100537D01*
X121301185Y-68021185D01*
X121380537Y-67924494D01*
X121439502Y-67814180D01*
X121475812Y-67694482D01*
X121488072Y-67570000D01*
X121485000Y-67005750D01*
X121326250Y-66847000D01*
X120127000Y-66847000D01*
X120127000Y-66867000D01*
X119873000Y-66867000D01*
X119873000Y-66847000D01*
X118673750Y-66847000D01*
X118515000Y-67005750D01*
X118511928Y-67570000D01*
X118524188Y-67694482D01*
X118560498Y-67814180D01*
X118619463Y-67924494D01*
X118698815Y-68021185D01*
X118795506Y-68100537D01*
X118905820Y-68159502D01*
X119025518Y-68195812D01*
X119150000Y-68208072D01*
X119360294Y-68206927D01*
X119215283Y-68303820D01*
X119043820Y-68475283D01*
X118909102Y-68676903D01*
X118816307Y-68900931D01*
X118769000Y-69138757D01*
X118769000Y-69381243D01*
X118816307Y-69619069D01*
X118909102Y-69843097D01*
X119043820Y-70044717D01*
X119215283Y-70216180D01*
X119416903Y-70350898D01*
X119640931Y-70443693D01*
X119878757Y-70491000D01*
X120121243Y-70491000D01*
X120359069Y-70443693D01*
X120457311Y-70403000D01*
X120728636Y-70403000D01*
X121793001Y-71467366D01*
X121793000Y-81769819D01*
X121641604Y-81688897D01*
X121426148Y-81623539D01*
X121258227Y-81607000D01*
X121258220Y-81607000D01*
X121202081Y-81601471D01*
X121179963Y-81603649D01*
X121204494Y-81590537D01*
X121301185Y-81511185D01*
X121380537Y-81414494D01*
X121439502Y-81304180D01*
X121475812Y-81184482D01*
X121488072Y-81060000D01*
X121485000Y-80495750D01*
X121326250Y-80337000D01*
X120127000Y-80337000D01*
X120127000Y-80357000D01*
X119873000Y-80357000D01*
X119873000Y-80337000D01*
X118673750Y-80337000D01*
X118515000Y-80495750D01*
X118511928Y-81060000D01*
X118524188Y-81184482D01*
X118560498Y-81304180D01*
X118619463Y-81414494D01*
X118698815Y-81511185D01*
X118795506Y-81590537D01*
X118905820Y-81649502D01*
X119025518Y-81685812D01*
X119150000Y-81698072D01*
X119360294Y-81696927D01*
X119215283Y-81793820D01*
X119043820Y-81965283D01*
X118909102Y-82166903D01*
X118816307Y-82390931D01*
X118769000Y-82628757D01*
X118769000Y-82871243D01*
X118816307Y-83109069D01*
X118909102Y-83333097D01*
X119043820Y-83534717D01*
X119215283Y-83706180D01*
X119416903Y-83840898D01*
X119640931Y-83933693D01*
X119878757Y-83981000D01*
X120121243Y-83981000D01*
X120359069Y-83933693D01*
X120457311Y-83893000D01*
X120728636Y-83893000D01*
X121793000Y-84957365D01*
X121793000Y-86394554D01*
X119576595Y-88610960D01*
X101473486Y-88610960D01*
X98031283Y-85168757D01*
X118769000Y-85168757D01*
X118769000Y-85411243D01*
X118816307Y-85649069D01*
X118909102Y-85873097D01*
X119043820Y-86074717D01*
X119215283Y-86246180D01*
X119416903Y-86380898D01*
X119640931Y-86473693D01*
X119878757Y-86521000D01*
X120121243Y-86521000D01*
X120359069Y-86473693D01*
X120583097Y-86380898D01*
X120784717Y-86246180D01*
X120956180Y-86074717D01*
X121090898Y-85873097D01*
X121183693Y-85649069D01*
X121231000Y-85411243D01*
X121231000Y-85168757D01*
X121183693Y-84930931D01*
X121090898Y-84706903D01*
X120956180Y-84505283D01*
X120784717Y-84333820D01*
X120583097Y-84199102D01*
X120359069Y-84106307D01*
X120121243Y-84059000D01*
X119878757Y-84059000D01*
X119640931Y-84106307D01*
X119416903Y-84199102D01*
X119215283Y-84333820D01*
X119043820Y-84505283D01*
X118909102Y-84706903D01*
X118816307Y-84930931D01*
X118769000Y-85168757D01*
X98031283Y-85168757D01*
X94740009Y-81877483D01*
X94704214Y-81833867D01*
X94530170Y-81691032D01*
X94331604Y-81584897D01*
X94116148Y-81519539D01*
X93948227Y-81503000D01*
X93948220Y-81503000D01*
X93892081Y-81497471D01*
X93835942Y-81503000D01*
X88432843Y-81503000D01*
X88432843Y-81346000D01*
X88425487Y-81271311D01*
X88403701Y-81199492D01*
X88368322Y-81133304D01*
X88320711Y-81075289D01*
X88262696Y-81027678D01*
X88196508Y-80992299D01*
X88124689Y-80970513D01*
X88050000Y-80963157D01*
X85450000Y-80963157D01*
X85375311Y-80970513D01*
X85303492Y-80992299D01*
X85237304Y-81027678D01*
X85179289Y-81075289D01*
X85131678Y-81133304D01*
X85096299Y-81199492D01*
X85074513Y-81271311D01*
X85067157Y-81346000D01*
X85067157Y-81503000D01*
X82174456Y-81503000D01*
X82118317Y-81497471D01*
X82062178Y-81503000D01*
X82062172Y-81503000D01*
X81916918Y-81517306D01*
X81894250Y-81519539D01*
X81839162Y-81536250D01*
X81678795Y-81584897D01*
X81480229Y-81691032D01*
X81480227Y-81691033D01*
X81480228Y-81691033D01*
X81349795Y-81798076D01*
X81349789Y-81798082D01*
X81306185Y-81833867D01*
X81270400Y-81877471D01*
X70021481Y-93126392D01*
X69977866Y-93162186D01*
X69835031Y-93336231D01*
X69728896Y-93534797D01*
X69689259Y-93665463D01*
X69682800Y-93686754D01*
X69455146Y-93914409D01*
X69356903Y-93955102D01*
X69155283Y-94089820D01*
X68983820Y-94261283D01*
X68886927Y-94406294D01*
X68888072Y-94196000D01*
X68875812Y-94071518D01*
X68839502Y-93951820D01*
X68780537Y-93841506D01*
X68701185Y-93744815D01*
X68604494Y-93665463D01*
X68494180Y-93606498D01*
X68374482Y-93570188D01*
X68250000Y-93557928D01*
X67685750Y-93561000D01*
X67527000Y-93719750D01*
X67527000Y-94919000D01*
X67547000Y-94919000D01*
X67547000Y-95173000D01*
X67527000Y-95173000D01*
X67527000Y-96372250D01*
X67685750Y-96531000D01*
X68250000Y-96534072D01*
X68374482Y-96521812D01*
X68494180Y-96485502D01*
X68604494Y-96426537D01*
X68701185Y-96347185D01*
X68780537Y-96250494D01*
X68839502Y-96140180D01*
X68875812Y-96020482D01*
X68888072Y-95896000D01*
X68886927Y-95685706D01*
X68983820Y-95830717D01*
X69155283Y-96002180D01*
X69356903Y-96136898D01*
X69580931Y-96229693D01*
X69818757Y-96277000D01*
X70061243Y-96277000D01*
X70299069Y-96229693D01*
X70523097Y-96136898D01*
X70724717Y-96002180D01*
X70896180Y-95830717D01*
X71030898Y-95629097D01*
X71071591Y-95530854D01*
X71279893Y-95322552D01*
X71296307Y-95405069D01*
X71389102Y-95629097D01*
X71523820Y-95830717D01*
X71695283Y-96002180D01*
X71896903Y-96136898D01*
X72120931Y-96229693D01*
X72358757Y-96277000D01*
X72601243Y-96277000D01*
X72839069Y-96229693D01*
X73063097Y-96136898D01*
X73264717Y-96002180D01*
X73370897Y-95896000D01*
X101061928Y-95896000D01*
X101074188Y-96020482D01*
X101110498Y-96140180D01*
X101169463Y-96250494D01*
X101248815Y-96347185D01*
X101345506Y-96426537D01*
X101455820Y-96485502D01*
X101575518Y-96521812D01*
X101700000Y-96534072D01*
X102264250Y-96531000D01*
X102423000Y-96372250D01*
X102423000Y-95173000D01*
X101223750Y-95173000D01*
X101065000Y-95331750D01*
X101061928Y-95896000D01*
X73370897Y-95896000D01*
X73436180Y-95830717D01*
X73570898Y-95629097D01*
X73663693Y-95405069D01*
X73711000Y-95167243D01*
X73711000Y-94924757D01*
X73663693Y-94686931D01*
X73570898Y-94462903D01*
X73436180Y-94261283D01*
X73370897Y-94196000D01*
X101061928Y-94196000D01*
X101065000Y-94760250D01*
X101223750Y-94919000D01*
X102423000Y-94919000D01*
X102423000Y-93719750D01*
X102264250Y-93561000D01*
X101700000Y-93557928D01*
X101575518Y-93570188D01*
X101455820Y-93606498D01*
X101345506Y-93665463D01*
X101248815Y-93744815D01*
X101169463Y-93841506D01*
X101110498Y-93951820D01*
X101074188Y-94071518D01*
X101061928Y-94196000D01*
X73370897Y-94196000D01*
X73264717Y-94089820D01*
X73063097Y-93955102D01*
X72839069Y-93862307D01*
X72601243Y-93815000D01*
X72565763Y-93815000D01*
X76385539Y-89995224D01*
X85580381Y-89995224D01*
X85712317Y-90290312D01*
X86053045Y-90461159D01*
X86420557Y-90562250D01*
X86800729Y-90589701D01*
X87178951Y-90542457D01*
X87540690Y-90422333D01*
X87787683Y-90290312D01*
X87919619Y-89995224D01*
X86750000Y-88825605D01*
X85580381Y-89995224D01*
X76385539Y-89995224D01*
X77684035Y-88696729D01*
X84806299Y-88696729D01*
X84853543Y-89074951D01*
X84973667Y-89436690D01*
X85105688Y-89683683D01*
X85400776Y-89815619D01*
X86570395Y-88646000D01*
X86929605Y-88646000D01*
X88099224Y-89815619D01*
X88394312Y-89683683D01*
X88565159Y-89342955D01*
X88666250Y-88975443D01*
X88693701Y-88595271D01*
X88646457Y-88217049D01*
X88526333Y-87855310D01*
X88394312Y-87608317D01*
X88099224Y-87476381D01*
X86929605Y-88646000D01*
X86570395Y-88646000D01*
X85400776Y-87476381D01*
X85105688Y-87608317D01*
X84934841Y-87949045D01*
X84833750Y-88316557D01*
X84806299Y-88696729D01*
X77684035Y-88696729D01*
X79083988Y-87296776D01*
X85580381Y-87296776D01*
X86750000Y-88466395D01*
X87919619Y-87296776D01*
X87787683Y-87001688D01*
X87774792Y-86995224D01*
X90280381Y-86995224D01*
X90412317Y-87290312D01*
X90753045Y-87461159D01*
X91120557Y-87562250D01*
X91500729Y-87589701D01*
X91878951Y-87542457D01*
X92240690Y-87422333D01*
X92487683Y-87290312D01*
X92619619Y-86995224D01*
X91450000Y-85825605D01*
X90280381Y-86995224D01*
X87774792Y-86995224D01*
X87446955Y-86830841D01*
X87079443Y-86729750D01*
X86699271Y-86702299D01*
X86321049Y-86749543D01*
X85959310Y-86869667D01*
X85712317Y-87001688D01*
X85580381Y-87296776D01*
X79083988Y-87296776D01*
X80684035Y-85696729D01*
X89506299Y-85696729D01*
X89553543Y-86074951D01*
X89673667Y-86436690D01*
X89805688Y-86683683D01*
X90100776Y-86815619D01*
X91270395Y-85646000D01*
X91629605Y-85646000D01*
X92799224Y-86815619D01*
X93094312Y-86683683D01*
X93265159Y-86342955D01*
X93366250Y-85975443D01*
X93393701Y-85595271D01*
X93346457Y-85217049D01*
X93226333Y-84855310D01*
X93094312Y-84608317D01*
X92799224Y-84476381D01*
X91629605Y-85646000D01*
X91270395Y-85646000D01*
X90100776Y-84476381D01*
X89805688Y-84608317D01*
X89634841Y-84949045D01*
X89533750Y-85316557D01*
X89506299Y-85696729D01*
X80684035Y-85696729D01*
X82591765Y-83789000D01*
X85067157Y-83789000D01*
X85067157Y-83946000D01*
X85074513Y-84020689D01*
X85096299Y-84092508D01*
X85131678Y-84158696D01*
X85179289Y-84216711D01*
X85237304Y-84264322D01*
X85303492Y-84299701D01*
X85375311Y-84321487D01*
X85450000Y-84328843D01*
X88050000Y-84328843D01*
X88124689Y-84321487D01*
X88196508Y-84299701D01*
X88262696Y-84264322D01*
X88320711Y-84216711D01*
X88368322Y-84158696D01*
X88403701Y-84092508D01*
X88425487Y-84020689D01*
X88432843Y-83946000D01*
X88432843Y-83789000D01*
X90902229Y-83789000D01*
X90659310Y-83869667D01*
X90412317Y-84001688D01*
X90280381Y-84296776D01*
X91450000Y-85466395D01*
X92619619Y-84296776D01*
X92487683Y-84001688D01*
X92146955Y-83830841D01*
X91994844Y-83789000D01*
X93418636Y-83789000D01*
X100152115Y-90522481D01*
X100187907Y-90566093D01*
X100231523Y-90601888D01*
X103188713Y-93559078D01*
X102835750Y-93561000D01*
X102677000Y-93719750D01*
X102677000Y-94919000D01*
X102697000Y-94919000D01*
X102697000Y-95173000D01*
X102677000Y-95173000D01*
X102677000Y-96372250D01*
X102835750Y-96531000D01*
X103400000Y-96534072D01*
X103524482Y-96521812D01*
X103644180Y-96485502D01*
X103754494Y-96426537D01*
X103851185Y-96347185D01*
X103930537Y-96250494D01*
X103989502Y-96140180D01*
X104025812Y-96020482D01*
X104038072Y-95896000D01*
X104036927Y-95685706D01*
X104133820Y-95830717D01*
X104305283Y-96002180D01*
X104506903Y-96136898D01*
X104730931Y-96229693D01*
X104968757Y-96277000D01*
X105211243Y-96277000D01*
X105449069Y-96229693D01*
X105673097Y-96136898D01*
X105874717Y-96002180D01*
X106046180Y-95830717D01*
X106180898Y-95629097D01*
X106273693Y-95405069D01*
X106321000Y-95167243D01*
X106321000Y-94924757D01*
X106399000Y-94924757D01*
X106399000Y-95167243D01*
X106446307Y-95405069D01*
X106539102Y-95629097D01*
X106673820Y-95830717D01*
X106845283Y-96002180D01*
X107046903Y-96136898D01*
X107270931Y-96229693D01*
X107508757Y-96277000D01*
X107751243Y-96277000D01*
X107989069Y-96229693D01*
X108213097Y-96136898D01*
X108414717Y-96002180D01*
X108586180Y-95830717D01*
X108720898Y-95629097D01*
X108813693Y-95405069D01*
X108861000Y-95167243D01*
X108861000Y-94924757D01*
X108813693Y-94686931D01*
X108811557Y-94681774D01*
X116769000Y-94681774D01*
X116769000Y-95318226D01*
X116893166Y-95942448D01*
X117136725Y-96530452D01*
X117490319Y-97059642D01*
X117940358Y-97509681D01*
X118469548Y-97863275D01*
X119057552Y-98106834D01*
X119681774Y-98231000D01*
X120318226Y-98231000D01*
X120942448Y-98106834D01*
X121530452Y-97863275D01*
X122059642Y-97509681D01*
X122509681Y-97059642D01*
X122863275Y-96530452D01*
X123106834Y-95942448D01*
X123231000Y-95318226D01*
X123231000Y-94681774D01*
X123106834Y-94057552D01*
X122863275Y-93469548D01*
X122509681Y-92940358D01*
X122059642Y-92490319D01*
X121530452Y-92136725D01*
X120942448Y-91893166D01*
X120318226Y-91769000D01*
X119681774Y-91769000D01*
X119057552Y-91893166D01*
X118469548Y-92136725D01*
X117940358Y-92490319D01*
X117490319Y-92940358D01*
X117136725Y-93469548D01*
X116893166Y-94057552D01*
X116769000Y-94681774D01*
X108811557Y-94681774D01*
X108720898Y-94462903D01*
X108586180Y-94261283D01*
X108414717Y-94089820D01*
X108213097Y-93955102D01*
X107989069Y-93862307D01*
X107751243Y-93815000D01*
X107508757Y-93815000D01*
X107270931Y-93862307D01*
X107046903Y-93955102D01*
X106845283Y-94089820D01*
X106673820Y-94261283D01*
X106539102Y-94462903D01*
X106446307Y-94686931D01*
X106399000Y-94924757D01*
X106321000Y-94924757D01*
X106273693Y-94686931D01*
X106233000Y-94588689D01*
X106233000Y-93900057D01*
X106238529Y-93843918D01*
X106233000Y-93787779D01*
X106233000Y-93787773D01*
X106216461Y-93619852D01*
X106151103Y-93404396D01*
X106044968Y-93205830D01*
X106009150Y-93162186D01*
X105937924Y-93075396D01*
X105937918Y-93075390D01*
X105902133Y-93031786D01*
X105858529Y-92996001D01*
X103759486Y-90896960D01*
X119993901Y-90896960D01*
X120050040Y-90902489D01*
X120106179Y-90896960D01*
X120106186Y-90896960D01*
X120274107Y-90880421D01*
X120489563Y-90815063D01*
X120688129Y-90708928D01*
X120862173Y-90566093D01*
X120897967Y-90522478D01*
X123704524Y-87715922D01*
X123748133Y-87680133D01*
X123890968Y-87506089D01*
X123997103Y-87307523D01*
X124062461Y-87092067D01*
X124079000Y-86924146D01*
X124079000Y-86924139D01*
X124084529Y-86868000D01*
X124079000Y-86811861D01*
X124079000Y-84540058D01*
X124084529Y-84483919D01*
X124079000Y-84427780D01*
X124079000Y-71050058D01*
X124084529Y-70993919D01*
X124079000Y-70937780D01*
X124079000Y-57560058D01*
X124084529Y-57503919D01*
X124079000Y-57447780D01*
X124079000Y-44070058D01*
X124084529Y-44013919D01*
X124079000Y-43957780D01*
X124079000Y-38918138D01*
X124084529Y-38861999D01*
X124079000Y-38805860D01*
X124079000Y-38805854D01*
X124062461Y-38637933D01*
X123997103Y-38422477D01*
X123890968Y-38223911D01*
X123748133Y-38049867D01*
X123704523Y-38014077D01*
X118613239Y-32922794D01*
X119057552Y-33106834D01*
X119681774Y-33231000D01*
X120318226Y-33231000D01*
X120942448Y-33106834D01*
X121530452Y-32863275D01*
X122059642Y-32509681D01*
X122509681Y-32059642D01*
X122863275Y-31530452D01*
X123106834Y-30942448D01*
X123231000Y-30318226D01*
X123231000Y-29681774D01*
X123106834Y-29057552D01*
X122863275Y-28469548D01*
X122509681Y-27940358D01*
X122059642Y-27490319D01*
X121530452Y-27136725D01*
X120942448Y-26893166D01*
X120318226Y-26769000D01*
X119681774Y-26769000D01*
X119057552Y-26893166D01*
X118469548Y-27136725D01*
X117940358Y-27490319D01*
X117490319Y-27940358D01*
X117136725Y-28469548D01*
X116893166Y-29057552D01*
X116769000Y-29681774D01*
X116769000Y-30318226D01*
X116893166Y-30942448D01*
X117077206Y-31386761D01*
X111972928Y-26282483D01*
X111937133Y-26238867D01*
X111763089Y-26096032D01*
X111564523Y-25989897D01*
X111349067Y-25924539D01*
X111181146Y-25908000D01*
X111181139Y-25908000D01*
X111125000Y-25902471D01*
X111068861Y-25908000D01*
X109523058Y-25908000D01*
X109466919Y-25902471D01*
X109410780Y-25908000D01*
X96033058Y-25908000D01*
X95976919Y-25902471D01*
X95920780Y-25908000D01*
X82543058Y-25908000D01*
X82486919Y-25902471D01*
X82430780Y-25908000D01*
X69053058Y-25908000D01*
X68996919Y-25902471D01*
X68940780Y-25908000D01*
X68940773Y-25908000D01*
X68772852Y-25924539D01*
X68557395Y-25989897D01*
X68488230Y-26026867D01*
X68358830Y-26096032D01*
X68184786Y-26238867D01*
X68148996Y-26282477D01*
X66481482Y-27949992D01*
X66437867Y-27985786D01*
X66295032Y-28159831D01*
X66188897Y-28358397D01*
X66123539Y-28573853D01*
X66107000Y-28741774D01*
X66107000Y-28741780D01*
X66101471Y-28797919D01*
X66107000Y-28854058D01*
X66107000Y-29542689D01*
X66066307Y-29640931D01*
X66019000Y-29878757D01*
X65941000Y-29878757D01*
X65893693Y-29640931D01*
X65800898Y-29416903D01*
X65666180Y-29215283D01*
X65494717Y-29043820D01*
X65293097Y-28909102D01*
X65069069Y-28816307D01*
X64831243Y-28769000D01*
X64588757Y-28769000D01*
X64350931Y-28816307D01*
X64126903Y-28909102D01*
X63925283Y-29043820D01*
X63753820Y-29215283D01*
X63619102Y-29416903D01*
X63526307Y-29640931D01*
X63479000Y-29878757D01*
X58231000Y-29878757D01*
X58231000Y-29681774D01*
X58106834Y-29057552D01*
X57863275Y-28469548D01*
X57509681Y-27940358D01*
X57059642Y-27490319D01*
X56530452Y-27136725D01*
X55942448Y-26893166D01*
X55318226Y-26769000D01*
X54681774Y-26769000D01*
X54057552Y-26893166D01*
X53469548Y-27136725D01*
X52940358Y-27490319D01*
X52490319Y-27940358D01*
X52136725Y-28469548D01*
X51893166Y-29057552D01*
X51769000Y-29681774D01*
X50406000Y-29681774D01*
X50406000Y-25406000D01*
X124594000Y-25406000D01*
X124594001Y-99594000D01*
G37*
G04 #@! TD.AperFunction*
M02*
