G04 #@! TF.GenerationSoftware,KiCad,Pcbnew,(5.1.8)-1*
G04 #@! TF.CreationDate,2020-12-28T13:17:20-07:00*
G04 #@! TF.ProjectId,Moisture-Sensor,4d6f6973-7475-4726-952d-53656e736f72,rev?*
G04 #@! TF.SameCoordinates,Original*
G04 #@! TF.FileFunction,Paste,Top*
G04 #@! TF.FilePolarity,Positive*
%FSLAX46Y46*%
G04 Gerber Fmt 4.6, Leading zero omitted, Abs format (unit mm)*
G04 Created by KiCad (PCBNEW (5.1.8)-1) date 2020-12-28 13:17:20*
%MOMM*%
%LPD*%
G01*
G04 APERTURE LIST*
%ADD10R,0.900000X1.200000*%
G04 APERTURE END LIST*
G36*
G01*
X114974000Y-63668900D02*
X114974000Y-64143900D01*
G75*
G02*
X114736500Y-64381400I-237500J0D01*
G01*
X114161500Y-64381400D01*
G75*
G02*
X113924000Y-64143900I0J237500D01*
G01*
X113924000Y-63668900D01*
G75*
G02*
X114161500Y-63431400I237500J0D01*
G01*
X114736500Y-63431400D01*
G75*
G02*
X114974000Y-63668900I0J-237500D01*
G01*
G37*
G36*
G01*
X116724000Y-63668900D02*
X116724000Y-64143900D01*
G75*
G02*
X116486500Y-64381400I-237500J0D01*
G01*
X115911500Y-64381400D01*
G75*
G02*
X115674000Y-64143900I0J237500D01*
G01*
X115674000Y-63668900D01*
G75*
G02*
X115911500Y-63431400I237500J0D01*
G01*
X116486500Y-63431400D01*
G75*
G02*
X116724000Y-63668900I0J-237500D01*
G01*
G37*
G36*
G01*
X116724000Y-65497700D02*
X116724000Y-65972700D01*
G75*
G02*
X116486500Y-66210200I-237500J0D01*
G01*
X115911500Y-66210200D01*
G75*
G02*
X115674000Y-65972700I0J237500D01*
G01*
X115674000Y-65497700D01*
G75*
G02*
X115911500Y-65260200I237500J0D01*
G01*
X116486500Y-65260200D01*
G75*
G02*
X116724000Y-65497700I0J-237500D01*
G01*
G37*
G36*
G01*
X114974000Y-65497700D02*
X114974000Y-65972700D01*
G75*
G02*
X114736500Y-66210200I-237500J0D01*
G01*
X114161500Y-66210200D01*
G75*
G02*
X113924000Y-65972700I0J237500D01*
G01*
X113924000Y-65497700D01*
G75*
G02*
X114161500Y-65260200I237500J0D01*
G01*
X114736500Y-65260200D01*
G75*
G02*
X114974000Y-65497700I0J-237500D01*
G01*
G37*
G36*
G01*
X103764000Y-67801500D02*
X103764000Y-67326500D01*
G75*
G02*
X104001500Y-67089000I237500J0D01*
G01*
X104576500Y-67089000D01*
G75*
G02*
X104814000Y-67326500I0J-237500D01*
G01*
X104814000Y-67801500D01*
G75*
G02*
X104576500Y-68039000I-237500J0D01*
G01*
X104001500Y-68039000D01*
G75*
G02*
X103764000Y-67801500I0J237500D01*
G01*
G37*
G36*
G01*
X105514000Y-67801500D02*
X105514000Y-67326500D01*
G75*
G02*
X105751500Y-67089000I237500J0D01*
G01*
X106326500Y-67089000D01*
G75*
G02*
X106564000Y-67326500I0J-237500D01*
G01*
X106564000Y-67801500D01*
G75*
G02*
X106326500Y-68039000I-237500J0D01*
G01*
X105751500Y-68039000D01*
G75*
G02*
X105514000Y-67801500I0J237500D01*
G01*
G37*
G36*
G01*
X111102000Y-67326500D02*
X111102000Y-67801500D01*
G75*
G02*
X110864500Y-68039000I-237500J0D01*
G01*
X110289500Y-68039000D01*
G75*
G02*
X110052000Y-67801500I0J237500D01*
G01*
X110052000Y-67326500D01*
G75*
G02*
X110289500Y-67089000I237500J0D01*
G01*
X110864500Y-67089000D01*
G75*
G02*
X111102000Y-67326500I0J-237500D01*
G01*
G37*
G36*
G01*
X109352000Y-67326500D02*
X109352000Y-67801500D01*
G75*
G02*
X109114500Y-68039000I-237500J0D01*
G01*
X108539500Y-68039000D01*
G75*
G02*
X108302000Y-67801500I0J237500D01*
G01*
X108302000Y-67326500D01*
G75*
G02*
X108539500Y-67089000I237500J0D01*
G01*
X109114500Y-67089000D01*
G75*
G02*
X109352000Y-67326500I0J-237500D01*
G01*
G37*
G36*
G01*
X108624000Y-56150500D02*
X108624000Y-56625500D01*
G75*
G02*
X108386500Y-56863000I-237500J0D01*
G01*
X107811500Y-56863000D01*
G75*
G02*
X107574000Y-56625500I0J237500D01*
G01*
X107574000Y-56150500D01*
G75*
G02*
X107811500Y-55913000I237500J0D01*
G01*
X108386500Y-55913000D01*
G75*
G02*
X108624000Y-56150500I0J-237500D01*
G01*
G37*
G36*
G01*
X110374000Y-56150500D02*
X110374000Y-56625500D01*
G75*
G02*
X110136500Y-56863000I-237500J0D01*
G01*
X109561500Y-56863000D01*
G75*
G02*
X109324000Y-56625500I0J237500D01*
G01*
X109324000Y-56150500D01*
G75*
G02*
X109561500Y-55913000I237500J0D01*
G01*
X110136500Y-55913000D01*
G75*
G02*
X110374000Y-56150500I0J-237500D01*
G01*
G37*
G36*
G01*
X114832000Y-52412500D02*
X114832000Y-51937500D01*
G75*
G02*
X115069500Y-51700000I237500J0D01*
G01*
X115644500Y-51700000D01*
G75*
G02*
X115882000Y-51937500I0J-237500D01*
G01*
X115882000Y-52412500D01*
G75*
G02*
X115644500Y-52650000I-237500J0D01*
G01*
X115069500Y-52650000D01*
G75*
G02*
X114832000Y-52412500I0J237500D01*
G01*
G37*
G36*
G01*
X116582000Y-52412500D02*
X116582000Y-51937500D01*
G75*
G02*
X116819500Y-51700000I237500J0D01*
G01*
X117394500Y-51700000D01*
G75*
G02*
X117632000Y-51937500I0J-237500D01*
G01*
X117632000Y-52412500D01*
G75*
G02*
X117394500Y-52650000I-237500J0D01*
G01*
X116819500Y-52650000D01*
G75*
G02*
X116582000Y-52412500I0J237500D01*
G01*
G37*
D10*
X108752000Y-69850000D03*
X112052000Y-69850000D03*
G36*
G01*
X114832000Y-54512500D02*
X114832000Y-54037500D01*
G75*
G02*
X115069500Y-53800000I237500J0D01*
G01*
X115644500Y-53800000D01*
G75*
G02*
X115882000Y-54037500I0J-237500D01*
G01*
X115882000Y-54512500D01*
G75*
G02*
X115644500Y-54750000I-237500J0D01*
G01*
X115069500Y-54750000D01*
G75*
G02*
X114832000Y-54512500I0J237500D01*
G01*
G37*
G36*
G01*
X116582000Y-54512500D02*
X116582000Y-54037500D01*
G75*
G02*
X116819500Y-53800000I237500J0D01*
G01*
X117394500Y-53800000D01*
G75*
G02*
X117632000Y-54037500I0J-237500D01*
G01*
X117632000Y-54512500D01*
G75*
G02*
X117394500Y-54750000I-237500J0D01*
G01*
X116819500Y-54750000D01*
G75*
G02*
X116582000Y-54512500I0J237500D01*
G01*
G37*
G36*
G01*
X105548000Y-56625500D02*
X105548000Y-56150500D01*
G75*
G02*
X105785500Y-55913000I237500J0D01*
G01*
X106360500Y-55913000D01*
G75*
G02*
X106598000Y-56150500I0J-237500D01*
G01*
X106598000Y-56625500D01*
G75*
G02*
X106360500Y-56863000I-237500J0D01*
G01*
X105785500Y-56863000D01*
G75*
G02*
X105548000Y-56625500I0J237500D01*
G01*
G37*
G36*
G01*
X103798000Y-56625500D02*
X103798000Y-56150500D01*
G75*
G02*
X104035500Y-55913000I237500J0D01*
G01*
X104610500Y-55913000D01*
G75*
G02*
X104848000Y-56150500I0J-237500D01*
G01*
X104848000Y-56625500D01*
G75*
G02*
X104610500Y-56863000I-237500J0D01*
G01*
X104035500Y-56863000D01*
G75*
G02*
X103798000Y-56625500I0J237500D01*
G01*
G37*
G36*
G01*
X103798000Y-58442500D02*
X103798000Y-57967500D01*
G75*
G02*
X104035500Y-57730000I237500J0D01*
G01*
X104610500Y-57730000D01*
G75*
G02*
X104848000Y-57967500I0J-237500D01*
G01*
X104848000Y-58442500D01*
G75*
G02*
X104610500Y-58680000I-237500J0D01*
G01*
X104035500Y-58680000D01*
G75*
G02*
X103798000Y-58442500I0J237500D01*
G01*
G37*
G36*
G01*
X105548000Y-58442500D02*
X105548000Y-57967500D01*
G75*
G02*
X105785500Y-57730000I237500J0D01*
G01*
X106360500Y-57730000D01*
G75*
G02*
X106598000Y-57967500I0J-237500D01*
G01*
X106598000Y-58442500D01*
G75*
G02*
X106360500Y-58680000I-237500J0D01*
G01*
X105785500Y-58680000D01*
G75*
G02*
X105548000Y-58442500I0J237500D01*
G01*
G37*
G36*
G01*
X114974000Y-60011300D02*
X114974000Y-60486300D01*
G75*
G02*
X114736500Y-60723800I-237500J0D01*
G01*
X114161500Y-60723800D01*
G75*
G02*
X113924000Y-60486300I0J237500D01*
G01*
X113924000Y-60011300D01*
G75*
G02*
X114161500Y-59773800I237500J0D01*
G01*
X114736500Y-59773800D01*
G75*
G02*
X114974000Y-60011300I0J-237500D01*
G01*
G37*
G36*
G01*
X116724000Y-60011300D02*
X116724000Y-60486300D01*
G75*
G02*
X116486500Y-60723800I-237500J0D01*
G01*
X115911500Y-60723800D01*
G75*
G02*
X115674000Y-60486300I0J237500D01*
G01*
X115674000Y-60011300D01*
G75*
G02*
X115911500Y-59773800I237500J0D01*
G01*
X116486500Y-59773800D01*
G75*
G02*
X116724000Y-60011300I0J-237500D01*
G01*
G37*
G36*
G01*
X116724000Y-61840100D02*
X116724000Y-62315100D01*
G75*
G02*
X116486500Y-62552600I-237500J0D01*
G01*
X115911500Y-62552600D01*
G75*
G02*
X115674000Y-62315100I0J237500D01*
G01*
X115674000Y-61840100D01*
G75*
G02*
X115911500Y-61602600I237500J0D01*
G01*
X116486500Y-61602600D01*
G75*
G02*
X116724000Y-61840100I0J-237500D01*
G01*
G37*
G36*
G01*
X114974000Y-61840100D02*
X114974000Y-62315100D01*
G75*
G02*
X114736500Y-62552600I-237500J0D01*
G01*
X114161500Y-62552600D01*
G75*
G02*
X113924000Y-62315100I0J237500D01*
G01*
X113924000Y-61840100D01*
G75*
G02*
X114161500Y-61602600I237500J0D01*
G01*
X114736500Y-61602600D01*
G75*
G02*
X114974000Y-61840100I0J-237500D01*
G01*
G37*
G36*
G01*
X109324000Y-58442500D02*
X109324000Y-57967500D01*
G75*
G02*
X109561500Y-57730000I237500J0D01*
G01*
X110136500Y-57730000D01*
G75*
G02*
X110374000Y-57967500I0J-237500D01*
G01*
X110374000Y-58442500D01*
G75*
G02*
X110136500Y-58680000I-237500J0D01*
G01*
X109561500Y-58680000D01*
G75*
G02*
X109324000Y-58442500I0J237500D01*
G01*
G37*
G36*
G01*
X107574000Y-58442500D02*
X107574000Y-57967500D01*
G75*
G02*
X107811500Y-57730000I237500J0D01*
G01*
X108386500Y-57730000D01*
G75*
G02*
X108624000Y-57967500I0J-237500D01*
G01*
X108624000Y-58442500D01*
G75*
G02*
X108386500Y-58680000I-237500J0D01*
G01*
X107811500Y-58680000D01*
G75*
G02*
X107574000Y-58442500I0J237500D01*
G01*
G37*
G36*
G01*
X115674000Y-58657500D02*
X115674000Y-58182500D01*
G75*
G02*
X115911500Y-57945000I237500J0D01*
G01*
X116486500Y-57945000D01*
G75*
G02*
X116724000Y-58182500I0J-237500D01*
G01*
X116724000Y-58657500D01*
G75*
G02*
X116486500Y-58895000I-237500J0D01*
G01*
X115911500Y-58895000D01*
G75*
G02*
X115674000Y-58657500I0J237500D01*
G01*
G37*
G36*
G01*
X113924000Y-58657500D02*
X113924000Y-58182500D01*
G75*
G02*
X114161500Y-57945000I237500J0D01*
G01*
X114736500Y-57945000D01*
G75*
G02*
X114974000Y-58182500I0J-237500D01*
G01*
X114974000Y-58657500D01*
G75*
G02*
X114736500Y-58895000I-237500J0D01*
G01*
X114161500Y-58895000D01*
G75*
G02*
X113924000Y-58657500I0J237500D01*
G01*
G37*
G36*
G01*
X106564000Y-69612500D02*
X106564000Y-70087500D01*
G75*
G02*
X106326500Y-70325000I-237500J0D01*
G01*
X105751500Y-70325000D01*
G75*
G02*
X105514000Y-70087500I0J237500D01*
G01*
X105514000Y-69612500D01*
G75*
G02*
X105751500Y-69375000I237500J0D01*
G01*
X106326500Y-69375000D01*
G75*
G02*
X106564000Y-69612500I0J-237500D01*
G01*
G37*
G36*
G01*
X104814000Y-69612500D02*
X104814000Y-70087500D01*
G75*
G02*
X104576500Y-70325000I-237500J0D01*
G01*
X104001500Y-70325000D01*
G75*
G02*
X103764000Y-70087500I0J237500D01*
G01*
X103764000Y-69612500D01*
G75*
G02*
X104001500Y-69375000I237500J0D01*
G01*
X104576500Y-69375000D01*
G75*
G02*
X104814000Y-69612500I0J-237500D01*
G01*
G37*
G36*
G01*
X105903000Y-59542000D02*
X106203000Y-59542000D01*
G75*
G02*
X106353000Y-59692000I0J-150000D01*
G01*
X106353000Y-61342000D01*
G75*
G02*
X106203000Y-61492000I-150000J0D01*
G01*
X105903000Y-61492000D01*
G75*
G02*
X105753000Y-61342000I0J150000D01*
G01*
X105753000Y-59692000D01*
G75*
G02*
X105903000Y-59542000I150000J0D01*
G01*
G37*
G36*
G01*
X104633000Y-59542000D02*
X104933000Y-59542000D01*
G75*
G02*
X105083000Y-59692000I0J-150000D01*
G01*
X105083000Y-61342000D01*
G75*
G02*
X104933000Y-61492000I-150000J0D01*
G01*
X104633000Y-61492000D01*
G75*
G02*
X104483000Y-61342000I0J150000D01*
G01*
X104483000Y-59692000D01*
G75*
G02*
X104633000Y-59542000I150000J0D01*
G01*
G37*
G36*
G01*
X103363000Y-59542000D02*
X103663000Y-59542000D01*
G75*
G02*
X103813000Y-59692000I0J-150000D01*
G01*
X103813000Y-61342000D01*
G75*
G02*
X103663000Y-61492000I-150000J0D01*
G01*
X103363000Y-61492000D01*
G75*
G02*
X103213000Y-61342000I0J150000D01*
G01*
X103213000Y-59692000D01*
G75*
G02*
X103363000Y-59542000I150000J0D01*
G01*
G37*
G36*
G01*
X102093000Y-59542000D02*
X102393000Y-59542000D01*
G75*
G02*
X102543000Y-59692000I0J-150000D01*
G01*
X102543000Y-61342000D01*
G75*
G02*
X102393000Y-61492000I-150000J0D01*
G01*
X102093000Y-61492000D01*
G75*
G02*
X101943000Y-61342000I0J150000D01*
G01*
X101943000Y-59692000D01*
G75*
G02*
X102093000Y-59542000I150000J0D01*
G01*
G37*
G36*
G01*
X102093000Y-64492000D02*
X102393000Y-64492000D01*
G75*
G02*
X102543000Y-64642000I0J-150000D01*
G01*
X102543000Y-66292000D01*
G75*
G02*
X102393000Y-66442000I-150000J0D01*
G01*
X102093000Y-66442000D01*
G75*
G02*
X101943000Y-66292000I0J150000D01*
G01*
X101943000Y-64642000D01*
G75*
G02*
X102093000Y-64492000I150000J0D01*
G01*
G37*
G36*
G01*
X103363000Y-64492000D02*
X103663000Y-64492000D01*
G75*
G02*
X103813000Y-64642000I0J-150000D01*
G01*
X103813000Y-66292000D01*
G75*
G02*
X103663000Y-66442000I-150000J0D01*
G01*
X103363000Y-66442000D01*
G75*
G02*
X103213000Y-66292000I0J150000D01*
G01*
X103213000Y-64642000D01*
G75*
G02*
X103363000Y-64492000I150000J0D01*
G01*
G37*
G36*
G01*
X104633000Y-64492000D02*
X104933000Y-64492000D01*
G75*
G02*
X105083000Y-64642000I0J-150000D01*
G01*
X105083000Y-66292000D01*
G75*
G02*
X104933000Y-66442000I-150000J0D01*
G01*
X104633000Y-66442000D01*
G75*
G02*
X104483000Y-66292000I0J150000D01*
G01*
X104483000Y-64642000D01*
G75*
G02*
X104633000Y-64492000I150000J0D01*
G01*
G37*
G36*
G01*
X105903000Y-64492000D02*
X106203000Y-64492000D01*
G75*
G02*
X106353000Y-64642000I0J-150000D01*
G01*
X106353000Y-66292000D01*
G75*
G02*
X106203000Y-66442000I-150000J0D01*
G01*
X105903000Y-66442000D01*
G75*
G02*
X105753000Y-66292000I0J150000D01*
G01*
X105753000Y-64642000D01*
G75*
G02*
X105903000Y-64492000I150000J0D01*
G01*
G37*
G36*
G01*
X112507000Y-64492000D02*
X112807000Y-64492000D01*
G75*
G02*
X112957000Y-64642000I0J-150000D01*
G01*
X112957000Y-66292000D01*
G75*
G02*
X112807000Y-66442000I-150000J0D01*
G01*
X112507000Y-66442000D01*
G75*
G02*
X112357000Y-66292000I0J150000D01*
G01*
X112357000Y-64642000D01*
G75*
G02*
X112507000Y-64492000I150000J0D01*
G01*
G37*
G36*
G01*
X111237000Y-64492000D02*
X111537000Y-64492000D01*
G75*
G02*
X111687000Y-64642000I0J-150000D01*
G01*
X111687000Y-66292000D01*
G75*
G02*
X111537000Y-66442000I-150000J0D01*
G01*
X111237000Y-66442000D01*
G75*
G02*
X111087000Y-66292000I0J150000D01*
G01*
X111087000Y-64642000D01*
G75*
G02*
X111237000Y-64492000I150000J0D01*
G01*
G37*
G36*
G01*
X109967000Y-64492000D02*
X110267000Y-64492000D01*
G75*
G02*
X110417000Y-64642000I0J-150000D01*
G01*
X110417000Y-66292000D01*
G75*
G02*
X110267000Y-66442000I-150000J0D01*
G01*
X109967000Y-66442000D01*
G75*
G02*
X109817000Y-66292000I0J150000D01*
G01*
X109817000Y-64642000D01*
G75*
G02*
X109967000Y-64492000I150000J0D01*
G01*
G37*
G36*
G01*
X108697000Y-64492000D02*
X108997000Y-64492000D01*
G75*
G02*
X109147000Y-64642000I0J-150000D01*
G01*
X109147000Y-66292000D01*
G75*
G02*
X108997000Y-66442000I-150000J0D01*
G01*
X108697000Y-66442000D01*
G75*
G02*
X108547000Y-66292000I0J150000D01*
G01*
X108547000Y-64642000D01*
G75*
G02*
X108697000Y-64492000I150000J0D01*
G01*
G37*
G36*
G01*
X108697000Y-59542000D02*
X108997000Y-59542000D01*
G75*
G02*
X109147000Y-59692000I0J-150000D01*
G01*
X109147000Y-61342000D01*
G75*
G02*
X108997000Y-61492000I-150000J0D01*
G01*
X108697000Y-61492000D01*
G75*
G02*
X108547000Y-61342000I0J150000D01*
G01*
X108547000Y-59692000D01*
G75*
G02*
X108697000Y-59542000I150000J0D01*
G01*
G37*
G36*
G01*
X109967000Y-59542000D02*
X110267000Y-59542000D01*
G75*
G02*
X110417000Y-59692000I0J-150000D01*
G01*
X110417000Y-61342000D01*
G75*
G02*
X110267000Y-61492000I-150000J0D01*
G01*
X109967000Y-61492000D01*
G75*
G02*
X109817000Y-61342000I0J150000D01*
G01*
X109817000Y-59692000D01*
G75*
G02*
X109967000Y-59542000I150000J0D01*
G01*
G37*
G36*
G01*
X111237000Y-59542000D02*
X111537000Y-59542000D01*
G75*
G02*
X111687000Y-59692000I0J-150000D01*
G01*
X111687000Y-61342000D01*
G75*
G02*
X111537000Y-61492000I-150000J0D01*
G01*
X111237000Y-61492000D01*
G75*
G02*
X111087000Y-61342000I0J150000D01*
G01*
X111087000Y-59692000D01*
G75*
G02*
X111237000Y-59542000I150000J0D01*
G01*
G37*
G36*
G01*
X112507000Y-59542000D02*
X112807000Y-59542000D01*
G75*
G02*
X112957000Y-59692000I0J-150000D01*
G01*
X112957000Y-61342000D01*
G75*
G02*
X112807000Y-61492000I-150000J0D01*
G01*
X112507000Y-61492000D01*
G75*
G02*
X112357000Y-61342000I0J150000D01*
G01*
X112357000Y-59692000D01*
G75*
G02*
X112507000Y-59542000I150000J0D01*
G01*
G37*
M02*
