G04 #@! TF.GenerationSoftware,KiCad,Pcbnew,(5.1.4-0-10_14)*
G04 #@! TF.CreationDate,2020-12-31T20:51:25-07:00*
G04 #@! TF.ProjectId,Moisture-Sensor,4d6f6973-7475-4726-952d-53656e736f72,rev?*
G04 #@! TF.SameCoordinates,Original*
G04 #@! TF.FileFunction,Copper,L2,Bot*
G04 #@! TF.FilePolarity,Positive*
%FSLAX46Y46*%
G04 Gerber Fmt 4.6, Leading zero omitted, Abs format (unit mm)*
G04 Created by KiCad (PCBNEW (5.1.4-0-10_14)) date 2020-12-31 20:51:25*
%MOMM*%
%LPD*%
G04 APERTURE LIST*
%ADD10R,1.700000X1.700000*%
%ADD11O,1.700000X1.700000*%
%ADD12C,3.800000*%
%ADD13C,0.800000*%
%ADD14C,0.254000*%
G04 APERTURE END LIST*
D10*
X112525000Y-53205000D03*
D11*
X109985000Y-53205000D03*
X107445000Y-53205000D03*
D12*
X103000000Y-73000000D03*
X117000000Y-73000000D03*
D13*
X102751000Y-67564000D03*
X105672000Y-62992000D03*
X117356000Y-64770000D03*
X113157000Y-58801000D03*
X118086201Y-59713799D03*
X118086201Y-63523799D03*
D14*
X118086201Y-58007201D02*
X116340000Y-56261000D01*
X118086201Y-59713799D02*
X118086201Y-58007201D01*
X118086201Y-63523799D02*
X118086201Y-59713799D01*
X113041000Y-56261000D02*
X116340000Y-56261000D01*
X109985000Y-53205000D02*
X113041000Y-56261000D01*
G36*
X119594000Y-71501000D02*
G01*
X118726822Y-71501000D01*
X118454053Y-71228231D01*
X118080459Y-70978604D01*
X117665343Y-70806657D01*
X117224659Y-70719000D01*
X116775341Y-70719000D01*
X116334657Y-70806657D01*
X115919541Y-70978604D01*
X115545947Y-71228231D01*
X115273178Y-71501000D01*
X104726822Y-71501000D01*
X104454053Y-71228231D01*
X104080459Y-70978604D01*
X103665343Y-70806657D01*
X103224659Y-70719000D01*
X102775341Y-70719000D01*
X102334657Y-70806657D01*
X101919541Y-70978604D01*
X101545947Y-71228231D01*
X101273178Y-71501000D01*
X100406000Y-71501000D01*
X100406000Y-53205000D01*
X106208044Y-53205000D01*
X106231812Y-53446318D01*
X106302202Y-53678363D01*
X106416509Y-53892216D01*
X106570340Y-54079660D01*
X106757784Y-54233491D01*
X106971637Y-54347798D01*
X107203682Y-54418188D01*
X107384528Y-54436000D01*
X107505472Y-54436000D01*
X107686318Y-54418188D01*
X107918363Y-54347798D01*
X108132216Y-54233491D01*
X108319660Y-54079660D01*
X108473491Y-53892216D01*
X108587798Y-53678363D01*
X108658188Y-53446318D01*
X108681956Y-53205000D01*
X108748044Y-53205000D01*
X108771812Y-53446318D01*
X108842202Y-53678363D01*
X108956509Y-53892216D01*
X109110340Y-54079660D01*
X109297784Y-54233491D01*
X109511637Y-54347798D01*
X109743682Y-54418188D01*
X109924528Y-54436000D01*
X110045472Y-54436000D01*
X110226318Y-54418188D01*
X110420779Y-54359199D01*
X112664145Y-56602565D01*
X112680052Y-56621948D01*
X112757405Y-56685429D01*
X112845657Y-56732601D01*
X112941415Y-56761649D01*
X113016053Y-56769000D01*
X113016056Y-56769000D01*
X113041000Y-56771457D01*
X113065944Y-56769000D01*
X116129580Y-56769000D01*
X117578202Y-58217623D01*
X117578201Y-59117298D01*
X117479559Y-59215940D01*
X117394088Y-59343857D01*
X117335214Y-59485990D01*
X117305201Y-59636877D01*
X117305201Y-59790721D01*
X117335214Y-59941608D01*
X117394088Y-60083741D01*
X117479559Y-60211658D01*
X117578202Y-60310301D01*
X117578201Y-62927298D01*
X117479559Y-63025940D01*
X117394088Y-63153857D01*
X117335214Y-63295990D01*
X117305201Y-63446877D01*
X117305201Y-63600721D01*
X117335214Y-63751608D01*
X117394088Y-63893741D01*
X117479559Y-64021658D01*
X117588342Y-64130441D01*
X117716259Y-64215912D01*
X117858392Y-64274786D01*
X118009279Y-64304799D01*
X118163123Y-64304799D01*
X118314010Y-64274786D01*
X118456143Y-64215912D01*
X118584060Y-64130441D01*
X118692843Y-64021658D01*
X118778314Y-63893741D01*
X118837188Y-63751608D01*
X118867201Y-63600721D01*
X118867201Y-63446877D01*
X118837188Y-63295990D01*
X118778314Y-63153857D01*
X118692843Y-63025940D01*
X118594201Y-62927298D01*
X118594201Y-60310300D01*
X118692843Y-60211658D01*
X118778314Y-60083741D01*
X118837188Y-59941608D01*
X118867201Y-59790721D01*
X118867201Y-59636877D01*
X118837188Y-59485990D01*
X118778314Y-59343857D01*
X118692843Y-59215940D01*
X118594201Y-59117298D01*
X118594201Y-58032144D01*
X118596658Y-58007200D01*
X118594201Y-57982254D01*
X118586850Y-57907616D01*
X118557802Y-57811858D01*
X118557801Y-57811856D01*
X118510630Y-57723605D01*
X118463051Y-57665630D01*
X118447149Y-57646253D01*
X118427772Y-57630351D01*
X116716855Y-55919435D01*
X116700948Y-55900052D01*
X116623595Y-55836571D01*
X116535343Y-55789399D01*
X116439585Y-55760351D01*
X116364947Y-55753000D01*
X116364944Y-55753000D01*
X116340000Y-55750543D01*
X116315056Y-55753000D01*
X113251420Y-55753000D01*
X112188695Y-54690275D01*
X112239250Y-54690000D01*
X112398000Y-54531250D01*
X112398000Y-53332000D01*
X112652000Y-53332000D01*
X112652000Y-54531250D01*
X112810750Y-54690000D01*
X113375000Y-54693072D01*
X113499482Y-54680812D01*
X113619180Y-54644502D01*
X113729494Y-54585537D01*
X113826185Y-54506185D01*
X113905537Y-54409494D01*
X113964502Y-54299180D01*
X114000812Y-54179482D01*
X114013072Y-54055000D01*
X114010000Y-53490750D01*
X113851250Y-53332000D01*
X112652000Y-53332000D01*
X112398000Y-53332000D01*
X112378000Y-53332000D01*
X112378000Y-53078000D01*
X112398000Y-53078000D01*
X112398000Y-51878750D01*
X112652000Y-51878750D01*
X112652000Y-53078000D01*
X113851250Y-53078000D01*
X114010000Y-52919250D01*
X114013072Y-52355000D01*
X114000812Y-52230518D01*
X113964502Y-52110820D01*
X113905537Y-52000506D01*
X113826185Y-51903815D01*
X113729494Y-51824463D01*
X113619180Y-51765498D01*
X113499482Y-51729188D01*
X113375000Y-51716928D01*
X112810750Y-51720000D01*
X112652000Y-51878750D01*
X112398000Y-51878750D01*
X112239250Y-51720000D01*
X111675000Y-51716928D01*
X111550518Y-51729188D01*
X111430820Y-51765498D01*
X111320506Y-51824463D01*
X111223815Y-51903815D01*
X111144463Y-52000506D01*
X111085498Y-52110820D01*
X111049188Y-52230518D01*
X111036928Y-52355000D01*
X111038065Y-52563758D01*
X111013491Y-52517784D01*
X110859660Y-52330340D01*
X110672216Y-52176509D01*
X110458363Y-52062202D01*
X110226318Y-51991812D01*
X110045472Y-51974000D01*
X109924528Y-51974000D01*
X109743682Y-51991812D01*
X109511637Y-52062202D01*
X109297784Y-52176509D01*
X109110340Y-52330340D01*
X108956509Y-52517784D01*
X108842202Y-52731637D01*
X108771812Y-52963682D01*
X108748044Y-53205000D01*
X108681956Y-53205000D01*
X108658188Y-52963682D01*
X108587798Y-52731637D01*
X108473491Y-52517784D01*
X108319660Y-52330340D01*
X108132216Y-52176509D01*
X107918363Y-52062202D01*
X107686318Y-51991812D01*
X107505472Y-51974000D01*
X107384528Y-51974000D01*
X107203682Y-51991812D01*
X106971637Y-52062202D01*
X106757784Y-52176509D01*
X106570340Y-52330340D01*
X106416509Y-52517784D01*
X106302202Y-52731637D01*
X106231812Y-52963682D01*
X106208044Y-53205000D01*
X100406000Y-53205000D01*
X100406000Y-50406000D01*
X119594000Y-50406000D01*
X119594000Y-71501000D01*
X119594000Y-71501000D01*
G37*
X119594000Y-71501000D02*
X118726822Y-71501000D01*
X118454053Y-71228231D01*
X118080459Y-70978604D01*
X117665343Y-70806657D01*
X117224659Y-70719000D01*
X116775341Y-70719000D01*
X116334657Y-70806657D01*
X115919541Y-70978604D01*
X115545947Y-71228231D01*
X115273178Y-71501000D01*
X104726822Y-71501000D01*
X104454053Y-71228231D01*
X104080459Y-70978604D01*
X103665343Y-70806657D01*
X103224659Y-70719000D01*
X102775341Y-70719000D01*
X102334657Y-70806657D01*
X101919541Y-70978604D01*
X101545947Y-71228231D01*
X101273178Y-71501000D01*
X100406000Y-71501000D01*
X100406000Y-53205000D01*
X106208044Y-53205000D01*
X106231812Y-53446318D01*
X106302202Y-53678363D01*
X106416509Y-53892216D01*
X106570340Y-54079660D01*
X106757784Y-54233491D01*
X106971637Y-54347798D01*
X107203682Y-54418188D01*
X107384528Y-54436000D01*
X107505472Y-54436000D01*
X107686318Y-54418188D01*
X107918363Y-54347798D01*
X108132216Y-54233491D01*
X108319660Y-54079660D01*
X108473491Y-53892216D01*
X108587798Y-53678363D01*
X108658188Y-53446318D01*
X108681956Y-53205000D01*
X108748044Y-53205000D01*
X108771812Y-53446318D01*
X108842202Y-53678363D01*
X108956509Y-53892216D01*
X109110340Y-54079660D01*
X109297784Y-54233491D01*
X109511637Y-54347798D01*
X109743682Y-54418188D01*
X109924528Y-54436000D01*
X110045472Y-54436000D01*
X110226318Y-54418188D01*
X110420779Y-54359199D01*
X112664145Y-56602565D01*
X112680052Y-56621948D01*
X112757405Y-56685429D01*
X112845657Y-56732601D01*
X112941415Y-56761649D01*
X113016053Y-56769000D01*
X113016056Y-56769000D01*
X113041000Y-56771457D01*
X113065944Y-56769000D01*
X116129580Y-56769000D01*
X117578202Y-58217623D01*
X117578201Y-59117298D01*
X117479559Y-59215940D01*
X117394088Y-59343857D01*
X117335214Y-59485990D01*
X117305201Y-59636877D01*
X117305201Y-59790721D01*
X117335214Y-59941608D01*
X117394088Y-60083741D01*
X117479559Y-60211658D01*
X117578202Y-60310301D01*
X117578201Y-62927298D01*
X117479559Y-63025940D01*
X117394088Y-63153857D01*
X117335214Y-63295990D01*
X117305201Y-63446877D01*
X117305201Y-63600721D01*
X117335214Y-63751608D01*
X117394088Y-63893741D01*
X117479559Y-64021658D01*
X117588342Y-64130441D01*
X117716259Y-64215912D01*
X117858392Y-64274786D01*
X118009279Y-64304799D01*
X118163123Y-64304799D01*
X118314010Y-64274786D01*
X118456143Y-64215912D01*
X118584060Y-64130441D01*
X118692843Y-64021658D01*
X118778314Y-63893741D01*
X118837188Y-63751608D01*
X118867201Y-63600721D01*
X118867201Y-63446877D01*
X118837188Y-63295990D01*
X118778314Y-63153857D01*
X118692843Y-63025940D01*
X118594201Y-62927298D01*
X118594201Y-60310300D01*
X118692843Y-60211658D01*
X118778314Y-60083741D01*
X118837188Y-59941608D01*
X118867201Y-59790721D01*
X118867201Y-59636877D01*
X118837188Y-59485990D01*
X118778314Y-59343857D01*
X118692843Y-59215940D01*
X118594201Y-59117298D01*
X118594201Y-58032144D01*
X118596658Y-58007200D01*
X118594201Y-57982254D01*
X118586850Y-57907616D01*
X118557802Y-57811858D01*
X118557801Y-57811856D01*
X118510630Y-57723605D01*
X118463051Y-57665630D01*
X118447149Y-57646253D01*
X118427772Y-57630351D01*
X116716855Y-55919435D01*
X116700948Y-55900052D01*
X116623595Y-55836571D01*
X116535343Y-55789399D01*
X116439585Y-55760351D01*
X116364947Y-55753000D01*
X116364944Y-55753000D01*
X116340000Y-55750543D01*
X116315056Y-55753000D01*
X113251420Y-55753000D01*
X112188695Y-54690275D01*
X112239250Y-54690000D01*
X112398000Y-54531250D01*
X112398000Y-53332000D01*
X112652000Y-53332000D01*
X112652000Y-54531250D01*
X112810750Y-54690000D01*
X113375000Y-54693072D01*
X113499482Y-54680812D01*
X113619180Y-54644502D01*
X113729494Y-54585537D01*
X113826185Y-54506185D01*
X113905537Y-54409494D01*
X113964502Y-54299180D01*
X114000812Y-54179482D01*
X114013072Y-54055000D01*
X114010000Y-53490750D01*
X113851250Y-53332000D01*
X112652000Y-53332000D01*
X112398000Y-53332000D01*
X112378000Y-53332000D01*
X112378000Y-53078000D01*
X112398000Y-53078000D01*
X112398000Y-51878750D01*
X112652000Y-51878750D01*
X112652000Y-53078000D01*
X113851250Y-53078000D01*
X114010000Y-52919250D01*
X114013072Y-52355000D01*
X114000812Y-52230518D01*
X113964502Y-52110820D01*
X113905537Y-52000506D01*
X113826185Y-51903815D01*
X113729494Y-51824463D01*
X113619180Y-51765498D01*
X113499482Y-51729188D01*
X113375000Y-51716928D01*
X112810750Y-51720000D01*
X112652000Y-51878750D01*
X112398000Y-51878750D01*
X112239250Y-51720000D01*
X111675000Y-51716928D01*
X111550518Y-51729188D01*
X111430820Y-51765498D01*
X111320506Y-51824463D01*
X111223815Y-51903815D01*
X111144463Y-52000506D01*
X111085498Y-52110820D01*
X111049188Y-52230518D01*
X111036928Y-52355000D01*
X111038065Y-52563758D01*
X111013491Y-52517784D01*
X110859660Y-52330340D01*
X110672216Y-52176509D01*
X110458363Y-52062202D01*
X110226318Y-51991812D01*
X110045472Y-51974000D01*
X109924528Y-51974000D01*
X109743682Y-51991812D01*
X109511637Y-52062202D01*
X109297784Y-52176509D01*
X109110340Y-52330340D01*
X108956509Y-52517784D01*
X108842202Y-52731637D01*
X108771812Y-52963682D01*
X108748044Y-53205000D01*
X108681956Y-53205000D01*
X108658188Y-52963682D01*
X108587798Y-52731637D01*
X108473491Y-52517784D01*
X108319660Y-52330340D01*
X108132216Y-52176509D01*
X107918363Y-52062202D01*
X107686318Y-51991812D01*
X107505472Y-51974000D01*
X107384528Y-51974000D01*
X107203682Y-51991812D01*
X106971637Y-52062202D01*
X106757784Y-52176509D01*
X106570340Y-52330340D01*
X106416509Y-52517784D01*
X106302202Y-52731637D01*
X106231812Y-52963682D01*
X106208044Y-53205000D01*
X100406000Y-53205000D01*
X100406000Y-50406000D01*
X119594000Y-50406000D01*
X119594000Y-71501000D01*
M02*
