G04 #@! TF.GenerationSoftware,KiCad,Pcbnew,(5.1.4-0-10_14)*
G04 #@! TF.CreationDate,2020-12-31T20:51:25-07:00*
G04 #@! TF.ProjectId,Moisture-Sensor,4d6f6973-7475-4726-952d-53656e736f72,rev?*
G04 #@! TF.SameCoordinates,Original*
G04 #@! TF.FileFunction,Paste,Top*
G04 #@! TF.FilePolarity,Positive*
%FSLAX46Y46*%
G04 Gerber Fmt 4.6, Leading zero omitted, Abs format (unit mm)*
G04 Created by KiCad (PCBNEW (5.1.4-0-10_14)) date 2020-12-31 20:51:25*
%MOMM*%
%LPD*%
G04 APERTURE LIST*
%ADD10C,0.100000*%
%ADD11C,0.950000*%
%ADD12R,0.900000X1.200000*%
%ADD13C,0.600000*%
G04 APERTURE END LIST*
D10*
G36*
X114759779Y-63432544D02*
G01*
X114782834Y-63435963D01*
X114805443Y-63441627D01*
X114827387Y-63449479D01*
X114848457Y-63459444D01*
X114868448Y-63471426D01*
X114887168Y-63485310D01*
X114904438Y-63500962D01*
X114920090Y-63518232D01*
X114933974Y-63536952D01*
X114945956Y-63556943D01*
X114955921Y-63578013D01*
X114963773Y-63599957D01*
X114969437Y-63622566D01*
X114972856Y-63645621D01*
X114974000Y-63668900D01*
X114974000Y-64143900D01*
X114972856Y-64167179D01*
X114969437Y-64190234D01*
X114963773Y-64212843D01*
X114955921Y-64234787D01*
X114945956Y-64255857D01*
X114933974Y-64275848D01*
X114920090Y-64294568D01*
X114904438Y-64311838D01*
X114887168Y-64327490D01*
X114868448Y-64341374D01*
X114848457Y-64353356D01*
X114827387Y-64363321D01*
X114805443Y-64371173D01*
X114782834Y-64376837D01*
X114759779Y-64380256D01*
X114736500Y-64381400D01*
X114161500Y-64381400D01*
X114138221Y-64380256D01*
X114115166Y-64376837D01*
X114092557Y-64371173D01*
X114070613Y-64363321D01*
X114049543Y-64353356D01*
X114029552Y-64341374D01*
X114010832Y-64327490D01*
X113993562Y-64311838D01*
X113977910Y-64294568D01*
X113964026Y-64275848D01*
X113952044Y-64255857D01*
X113942079Y-64234787D01*
X113934227Y-64212843D01*
X113928563Y-64190234D01*
X113925144Y-64167179D01*
X113924000Y-64143900D01*
X113924000Y-63668900D01*
X113925144Y-63645621D01*
X113928563Y-63622566D01*
X113934227Y-63599957D01*
X113942079Y-63578013D01*
X113952044Y-63556943D01*
X113964026Y-63536952D01*
X113977910Y-63518232D01*
X113993562Y-63500962D01*
X114010832Y-63485310D01*
X114029552Y-63471426D01*
X114049543Y-63459444D01*
X114070613Y-63449479D01*
X114092557Y-63441627D01*
X114115166Y-63435963D01*
X114138221Y-63432544D01*
X114161500Y-63431400D01*
X114736500Y-63431400D01*
X114759779Y-63432544D01*
X114759779Y-63432544D01*
G37*
D11*
X114449000Y-63906400D03*
D10*
G36*
X116509779Y-63432544D02*
G01*
X116532834Y-63435963D01*
X116555443Y-63441627D01*
X116577387Y-63449479D01*
X116598457Y-63459444D01*
X116618448Y-63471426D01*
X116637168Y-63485310D01*
X116654438Y-63500962D01*
X116670090Y-63518232D01*
X116683974Y-63536952D01*
X116695956Y-63556943D01*
X116705921Y-63578013D01*
X116713773Y-63599957D01*
X116719437Y-63622566D01*
X116722856Y-63645621D01*
X116724000Y-63668900D01*
X116724000Y-64143900D01*
X116722856Y-64167179D01*
X116719437Y-64190234D01*
X116713773Y-64212843D01*
X116705921Y-64234787D01*
X116695956Y-64255857D01*
X116683974Y-64275848D01*
X116670090Y-64294568D01*
X116654438Y-64311838D01*
X116637168Y-64327490D01*
X116618448Y-64341374D01*
X116598457Y-64353356D01*
X116577387Y-64363321D01*
X116555443Y-64371173D01*
X116532834Y-64376837D01*
X116509779Y-64380256D01*
X116486500Y-64381400D01*
X115911500Y-64381400D01*
X115888221Y-64380256D01*
X115865166Y-64376837D01*
X115842557Y-64371173D01*
X115820613Y-64363321D01*
X115799543Y-64353356D01*
X115779552Y-64341374D01*
X115760832Y-64327490D01*
X115743562Y-64311838D01*
X115727910Y-64294568D01*
X115714026Y-64275848D01*
X115702044Y-64255857D01*
X115692079Y-64234787D01*
X115684227Y-64212843D01*
X115678563Y-64190234D01*
X115675144Y-64167179D01*
X115674000Y-64143900D01*
X115674000Y-63668900D01*
X115675144Y-63645621D01*
X115678563Y-63622566D01*
X115684227Y-63599957D01*
X115692079Y-63578013D01*
X115702044Y-63556943D01*
X115714026Y-63536952D01*
X115727910Y-63518232D01*
X115743562Y-63500962D01*
X115760832Y-63485310D01*
X115779552Y-63471426D01*
X115799543Y-63459444D01*
X115820613Y-63449479D01*
X115842557Y-63441627D01*
X115865166Y-63435963D01*
X115888221Y-63432544D01*
X115911500Y-63431400D01*
X116486500Y-63431400D01*
X116509779Y-63432544D01*
X116509779Y-63432544D01*
G37*
D11*
X116199000Y-63906400D03*
D10*
G36*
X116509779Y-65261344D02*
G01*
X116532834Y-65264763D01*
X116555443Y-65270427D01*
X116577387Y-65278279D01*
X116598457Y-65288244D01*
X116618448Y-65300226D01*
X116637168Y-65314110D01*
X116654438Y-65329762D01*
X116670090Y-65347032D01*
X116683974Y-65365752D01*
X116695956Y-65385743D01*
X116705921Y-65406813D01*
X116713773Y-65428757D01*
X116719437Y-65451366D01*
X116722856Y-65474421D01*
X116724000Y-65497700D01*
X116724000Y-65972700D01*
X116722856Y-65995979D01*
X116719437Y-66019034D01*
X116713773Y-66041643D01*
X116705921Y-66063587D01*
X116695956Y-66084657D01*
X116683974Y-66104648D01*
X116670090Y-66123368D01*
X116654438Y-66140638D01*
X116637168Y-66156290D01*
X116618448Y-66170174D01*
X116598457Y-66182156D01*
X116577387Y-66192121D01*
X116555443Y-66199973D01*
X116532834Y-66205637D01*
X116509779Y-66209056D01*
X116486500Y-66210200D01*
X115911500Y-66210200D01*
X115888221Y-66209056D01*
X115865166Y-66205637D01*
X115842557Y-66199973D01*
X115820613Y-66192121D01*
X115799543Y-66182156D01*
X115779552Y-66170174D01*
X115760832Y-66156290D01*
X115743562Y-66140638D01*
X115727910Y-66123368D01*
X115714026Y-66104648D01*
X115702044Y-66084657D01*
X115692079Y-66063587D01*
X115684227Y-66041643D01*
X115678563Y-66019034D01*
X115675144Y-65995979D01*
X115674000Y-65972700D01*
X115674000Y-65497700D01*
X115675144Y-65474421D01*
X115678563Y-65451366D01*
X115684227Y-65428757D01*
X115692079Y-65406813D01*
X115702044Y-65385743D01*
X115714026Y-65365752D01*
X115727910Y-65347032D01*
X115743562Y-65329762D01*
X115760832Y-65314110D01*
X115779552Y-65300226D01*
X115799543Y-65288244D01*
X115820613Y-65278279D01*
X115842557Y-65270427D01*
X115865166Y-65264763D01*
X115888221Y-65261344D01*
X115911500Y-65260200D01*
X116486500Y-65260200D01*
X116509779Y-65261344D01*
X116509779Y-65261344D01*
G37*
D11*
X116199000Y-65735200D03*
D10*
G36*
X114759779Y-65261344D02*
G01*
X114782834Y-65264763D01*
X114805443Y-65270427D01*
X114827387Y-65278279D01*
X114848457Y-65288244D01*
X114868448Y-65300226D01*
X114887168Y-65314110D01*
X114904438Y-65329762D01*
X114920090Y-65347032D01*
X114933974Y-65365752D01*
X114945956Y-65385743D01*
X114955921Y-65406813D01*
X114963773Y-65428757D01*
X114969437Y-65451366D01*
X114972856Y-65474421D01*
X114974000Y-65497700D01*
X114974000Y-65972700D01*
X114972856Y-65995979D01*
X114969437Y-66019034D01*
X114963773Y-66041643D01*
X114955921Y-66063587D01*
X114945956Y-66084657D01*
X114933974Y-66104648D01*
X114920090Y-66123368D01*
X114904438Y-66140638D01*
X114887168Y-66156290D01*
X114868448Y-66170174D01*
X114848457Y-66182156D01*
X114827387Y-66192121D01*
X114805443Y-66199973D01*
X114782834Y-66205637D01*
X114759779Y-66209056D01*
X114736500Y-66210200D01*
X114161500Y-66210200D01*
X114138221Y-66209056D01*
X114115166Y-66205637D01*
X114092557Y-66199973D01*
X114070613Y-66192121D01*
X114049543Y-66182156D01*
X114029552Y-66170174D01*
X114010832Y-66156290D01*
X113993562Y-66140638D01*
X113977910Y-66123368D01*
X113964026Y-66104648D01*
X113952044Y-66084657D01*
X113942079Y-66063587D01*
X113934227Y-66041643D01*
X113928563Y-66019034D01*
X113925144Y-65995979D01*
X113924000Y-65972700D01*
X113924000Y-65497700D01*
X113925144Y-65474421D01*
X113928563Y-65451366D01*
X113934227Y-65428757D01*
X113942079Y-65406813D01*
X113952044Y-65385743D01*
X113964026Y-65365752D01*
X113977910Y-65347032D01*
X113993562Y-65329762D01*
X114010832Y-65314110D01*
X114029552Y-65300226D01*
X114049543Y-65288244D01*
X114070613Y-65278279D01*
X114092557Y-65270427D01*
X114115166Y-65264763D01*
X114138221Y-65261344D01*
X114161500Y-65260200D01*
X114736500Y-65260200D01*
X114759779Y-65261344D01*
X114759779Y-65261344D01*
G37*
D11*
X114449000Y-65735200D03*
D10*
G36*
X104599779Y-67090144D02*
G01*
X104622834Y-67093563D01*
X104645443Y-67099227D01*
X104667387Y-67107079D01*
X104688457Y-67117044D01*
X104708448Y-67129026D01*
X104727168Y-67142910D01*
X104744438Y-67158562D01*
X104760090Y-67175832D01*
X104773974Y-67194552D01*
X104785956Y-67214543D01*
X104795921Y-67235613D01*
X104803773Y-67257557D01*
X104809437Y-67280166D01*
X104812856Y-67303221D01*
X104814000Y-67326500D01*
X104814000Y-67801500D01*
X104812856Y-67824779D01*
X104809437Y-67847834D01*
X104803773Y-67870443D01*
X104795921Y-67892387D01*
X104785956Y-67913457D01*
X104773974Y-67933448D01*
X104760090Y-67952168D01*
X104744438Y-67969438D01*
X104727168Y-67985090D01*
X104708448Y-67998974D01*
X104688457Y-68010956D01*
X104667387Y-68020921D01*
X104645443Y-68028773D01*
X104622834Y-68034437D01*
X104599779Y-68037856D01*
X104576500Y-68039000D01*
X104001500Y-68039000D01*
X103978221Y-68037856D01*
X103955166Y-68034437D01*
X103932557Y-68028773D01*
X103910613Y-68020921D01*
X103889543Y-68010956D01*
X103869552Y-67998974D01*
X103850832Y-67985090D01*
X103833562Y-67969438D01*
X103817910Y-67952168D01*
X103804026Y-67933448D01*
X103792044Y-67913457D01*
X103782079Y-67892387D01*
X103774227Y-67870443D01*
X103768563Y-67847834D01*
X103765144Y-67824779D01*
X103764000Y-67801500D01*
X103764000Y-67326500D01*
X103765144Y-67303221D01*
X103768563Y-67280166D01*
X103774227Y-67257557D01*
X103782079Y-67235613D01*
X103792044Y-67214543D01*
X103804026Y-67194552D01*
X103817910Y-67175832D01*
X103833562Y-67158562D01*
X103850832Y-67142910D01*
X103869552Y-67129026D01*
X103889543Y-67117044D01*
X103910613Y-67107079D01*
X103932557Y-67099227D01*
X103955166Y-67093563D01*
X103978221Y-67090144D01*
X104001500Y-67089000D01*
X104576500Y-67089000D01*
X104599779Y-67090144D01*
X104599779Y-67090144D01*
G37*
D11*
X104289000Y-67564000D03*
D10*
G36*
X106349779Y-67090144D02*
G01*
X106372834Y-67093563D01*
X106395443Y-67099227D01*
X106417387Y-67107079D01*
X106438457Y-67117044D01*
X106458448Y-67129026D01*
X106477168Y-67142910D01*
X106494438Y-67158562D01*
X106510090Y-67175832D01*
X106523974Y-67194552D01*
X106535956Y-67214543D01*
X106545921Y-67235613D01*
X106553773Y-67257557D01*
X106559437Y-67280166D01*
X106562856Y-67303221D01*
X106564000Y-67326500D01*
X106564000Y-67801500D01*
X106562856Y-67824779D01*
X106559437Y-67847834D01*
X106553773Y-67870443D01*
X106545921Y-67892387D01*
X106535956Y-67913457D01*
X106523974Y-67933448D01*
X106510090Y-67952168D01*
X106494438Y-67969438D01*
X106477168Y-67985090D01*
X106458448Y-67998974D01*
X106438457Y-68010956D01*
X106417387Y-68020921D01*
X106395443Y-68028773D01*
X106372834Y-68034437D01*
X106349779Y-68037856D01*
X106326500Y-68039000D01*
X105751500Y-68039000D01*
X105728221Y-68037856D01*
X105705166Y-68034437D01*
X105682557Y-68028773D01*
X105660613Y-68020921D01*
X105639543Y-68010956D01*
X105619552Y-67998974D01*
X105600832Y-67985090D01*
X105583562Y-67969438D01*
X105567910Y-67952168D01*
X105554026Y-67933448D01*
X105542044Y-67913457D01*
X105532079Y-67892387D01*
X105524227Y-67870443D01*
X105518563Y-67847834D01*
X105515144Y-67824779D01*
X105514000Y-67801500D01*
X105514000Y-67326500D01*
X105515144Y-67303221D01*
X105518563Y-67280166D01*
X105524227Y-67257557D01*
X105532079Y-67235613D01*
X105542044Y-67214543D01*
X105554026Y-67194552D01*
X105567910Y-67175832D01*
X105583562Y-67158562D01*
X105600832Y-67142910D01*
X105619552Y-67129026D01*
X105639543Y-67117044D01*
X105660613Y-67107079D01*
X105682557Y-67099227D01*
X105705166Y-67093563D01*
X105728221Y-67090144D01*
X105751500Y-67089000D01*
X106326500Y-67089000D01*
X106349779Y-67090144D01*
X106349779Y-67090144D01*
G37*
D11*
X106039000Y-67564000D03*
D10*
G36*
X110887779Y-67090144D02*
G01*
X110910834Y-67093563D01*
X110933443Y-67099227D01*
X110955387Y-67107079D01*
X110976457Y-67117044D01*
X110996448Y-67129026D01*
X111015168Y-67142910D01*
X111032438Y-67158562D01*
X111048090Y-67175832D01*
X111061974Y-67194552D01*
X111073956Y-67214543D01*
X111083921Y-67235613D01*
X111091773Y-67257557D01*
X111097437Y-67280166D01*
X111100856Y-67303221D01*
X111102000Y-67326500D01*
X111102000Y-67801500D01*
X111100856Y-67824779D01*
X111097437Y-67847834D01*
X111091773Y-67870443D01*
X111083921Y-67892387D01*
X111073956Y-67913457D01*
X111061974Y-67933448D01*
X111048090Y-67952168D01*
X111032438Y-67969438D01*
X111015168Y-67985090D01*
X110996448Y-67998974D01*
X110976457Y-68010956D01*
X110955387Y-68020921D01*
X110933443Y-68028773D01*
X110910834Y-68034437D01*
X110887779Y-68037856D01*
X110864500Y-68039000D01*
X110289500Y-68039000D01*
X110266221Y-68037856D01*
X110243166Y-68034437D01*
X110220557Y-68028773D01*
X110198613Y-68020921D01*
X110177543Y-68010956D01*
X110157552Y-67998974D01*
X110138832Y-67985090D01*
X110121562Y-67969438D01*
X110105910Y-67952168D01*
X110092026Y-67933448D01*
X110080044Y-67913457D01*
X110070079Y-67892387D01*
X110062227Y-67870443D01*
X110056563Y-67847834D01*
X110053144Y-67824779D01*
X110052000Y-67801500D01*
X110052000Y-67326500D01*
X110053144Y-67303221D01*
X110056563Y-67280166D01*
X110062227Y-67257557D01*
X110070079Y-67235613D01*
X110080044Y-67214543D01*
X110092026Y-67194552D01*
X110105910Y-67175832D01*
X110121562Y-67158562D01*
X110138832Y-67142910D01*
X110157552Y-67129026D01*
X110177543Y-67117044D01*
X110198613Y-67107079D01*
X110220557Y-67099227D01*
X110243166Y-67093563D01*
X110266221Y-67090144D01*
X110289500Y-67089000D01*
X110864500Y-67089000D01*
X110887779Y-67090144D01*
X110887779Y-67090144D01*
G37*
D11*
X110577000Y-67564000D03*
D10*
G36*
X109137779Y-67090144D02*
G01*
X109160834Y-67093563D01*
X109183443Y-67099227D01*
X109205387Y-67107079D01*
X109226457Y-67117044D01*
X109246448Y-67129026D01*
X109265168Y-67142910D01*
X109282438Y-67158562D01*
X109298090Y-67175832D01*
X109311974Y-67194552D01*
X109323956Y-67214543D01*
X109333921Y-67235613D01*
X109341773Y-67257557D01*
X109347437Y-67280166D01*
X109350856Y-67303221D01*
X109352000Y-67326500D01*
X109352000Y-67801500D01*
X109350856Y-67824779D01*
X109347437Y-67847834D01*
X109341773Y-67870443D01*
X109333921Y-67892387D01*
X109323956Y-67913457D01*
X109311974Y-67933448D01*
X109298090Y-67952168D01*
X109282438Y-67969438D01*
X109265168Y-67985090D01*
X109246448Y-67998974D01*
X109226457Y-68010956D01*
X109205387Y-68020921D01*
X109183443Y-68028773D01*
X109160834Y-68034437D01*
X109137779Y-68037856D01*
X109114500Y-68039000D01*
X108539500Y-68039000D01*
X108516221Y-68037856D01*
X108493166Y-68034437D01*
X108470557Y-68028773D01*
X108448613Y-68020921D01*
X108427543Y-68010956D01*
X108407552Y-67998974D01*
X108388832Y-67985090D01*
X108371562Y-67969438D01*
X108355910Y-67952168D01*
X108342026Y-67933448D01*
X108330044Y-67913457D01*
X108320079Y-67892387D01*
X108312227Y-67870443D01*
X108306563Y-67847834D01*
X108303144Y-67824779D01*
X108302000Y-67801500D01*
X108302000Y-67326500D01*
X108303144Y-67303221D01*
X108306563Y-67280166D01*
X108312227Y-67257557D01*
X108320079Y-67235613D01*
X108330044Y-67214543D01*
X108342026Y-67194552D01*
X108355910Y-67175832D01*
X108371562Y-67158562D01*
X108388832Y-67142910D01*
X108407552Y-67129026D01*
X108427543Y-67117044D01*
X108448613Y-67107079D01*
X108470557Y-67099227D01*
X108493166Y-67093563D01*
X108516221Y-67090144D01*
X108539500Y-67089000D01*
X109114500Y-67089000D01*
X109137779Y-67090144D01*
X109137779Y-67090144D01*
G37*
D11*
X108827000Y-67564000D03*
D10*
G36*
X108409779Y-55914144D02*
G01*
X108432834Y-55917563D01*
X108455443Y-55923227D01*
X108477387Y-55931079D01*
X108498457Y-55941044D01*
X108518448Y-55953026D01*
X108537168Y-55966910D01*
X108554438Y-55982562D01*
X108570090Y-55999832D01*
X108583974Y-56018552D01*
X108595956Y-56038543D01*
X108605921Y-56059613D01*
X108613773Y-56081557D01*
X108619437Y-56104166D01*
X108622856Y-56127221D01*
X108624000Y-56150500D01*
X108624000Y-56625500D01*
X108622856Y-56648779D01*
X108619437Y-56671834D01*
X108613773Y-56694443D01*
X108605921Y-56716387D01*
X108595956Y-56737457D01*
X108583974Y-56757448D01*
X108570090Y-56776168D01*
X108554438Y-56793438D01*
X108537168Y-56809090D01*
X108518448Y-56822974D01*
X108498457Y-56834956D01*
X108477387Y-56844921D01*
X108455443Y-56852773D01*
X108432834Y-56858437D01*
X108409779Y-56861856D01*
X108386500Y-56863000D01*
X107811500Y-56863000D01*
X107788221Y-56861856D01*
X107765166Y-56858437D01*
X107742557Y-56852773D01*
X107720613Y-56844921D01*
X107699543Y-56834956D01*
X107679552Y-56822974D01*
X107660832Y-56809090D01*
X107643562Y-56793438D01*
X107627910Y-56776168D01*
X107614026Y-56757448D01*
X107602044Y-56737457D01*
X107592079Y-56716387D01*
X107584227Y-56694443D01*
X107578563Y-56671834D01*
X107575144Y-56648779D01*
X107574000Y-56625500D01*
X107574000Y-56150500D01*
X107575144Y-56127221D01*
X107578563Y-56104166D01*
X107584227Y-56081557D01*
X107592079Y-56059613D01*
X107602044Y-56038543D01*
X107614026Y-56018552D01*
X107627910Y-55999832D01*
X107643562Y-55982562D01*
X107660832Y-55966910D01*
X107679552Y-55953026D01*
X107699543Y-55941044D01*
X107720613Y-55931079D01*
X107742557Y-55923227D01*
X107765166Y-55917563D01*
X107788221Y-55914144D01*
X107811500Y-55913000D01*
X108386500Y-55913000D01*
X108409779Y-55914144D01*
X108409779Y-55914144D01*
G37*
D11*
X108099000Y-56388000D03*
D10*
G36*
X110159779Y-55914144D02*
G01*
X110182834Y-55917563D01*
X110205443Y-55923227D01*
X110227387Y-55931079D01*
X110248457Y-55941044D01*
X110268448Y-55953026D01*
X110287168Y-55966910D01*
X110304438Y-55982562D01*
X110320090Y-55999832D01*
X110333974Y-56018552D01*
X110345956Y-56038543D01*
X110355921Y-56059613D01*
X110363773Y-56081557D01*
X110369437Y-56104166D01*
X110372856Y-56127221D01*
X110374000Y-56150500D01*
X110374000Y-56625500D01*
X110372856Y-56648779D01*
X110369437Y-56671834D01*
X110363773Y-56694443D01*
X110355921Y-56716387D01*
X110345956Y-56737457D01*
X110333974Y-56757448D01*
X110320090Y-56776168D01*
X110304438Y-56793438D01*
X110287168Y-56809090D01*
X110268448Y-56822974D01*
X110248457Y-56834956D01*
X110227387Y-56844921D01*
X110205443Y-56852773D01*
X110182834Y-56858437D01*
X110159779Y-56861856D01*
X110136500Y-56863000D01*
X109561500Y-56863000D01*
X109538221Y-56861856D01*
X109515166Y-56858437D01*
X109492557Y-56852773D01*
X109470613Y-56844921D01*
X109449543Y-56834956D01*
X109429552Y-56822974D01*
X109410832Y-56809090D01*
X109393562Y-56793438D01*
X109377910Y-56776168D01*
X109364026Y-56757448D01*
X109352044Y-56737457D01*
X109342079Y-56716387D01*
X109334227Y-56694443D01*
X109328563Y-56671834D01*
X109325144Y-56648779D01*
X109324000Y-56625500D01*
X109324000Y-56150500D01*
X109325144Y-56127221D01*
X109328563Y-56104166D01*
X109334227Y-56081557D01*
X109342079Y-56059613D01*
X109352044Y-56038543D01*
X109364026Y-56018552D01*
X109377910Y-55999832D01*
X109393562Y-55982562D01*
X109410832Y-55966910D01*
X109429552Y-55953026D01*
X109449543Y-55941044D01*
X109470613Y-55931079D01*
X109492557Y-55923227D01*
X109515166Y-55917563D01*
X109538221Y-55914144D01*
X109561500Y-55913000D01*
X110136500Y-55913000D01*
X110159779Y-55914144D01*
X110159779Y-55914144D01*
G37*
D11*
X109849000Y-56388000D03*
D10*
G36*
X115667779Y-51701144D02*
G01*
X115690834Y-51704563D01*
X115713443Y-51710227D01*
X115735387Y-51718079D01*
X115756457Y-51728044D01*
X115776448Y-51740026D01*
X115795168Y-51753910D01*
X115812438Y-51769562D01*
X115828090Y-51786832D01*
X115841974Y-51805552D01*
X115853956Y-51825543D01*
X115863921Y-51846613D01*
X115871773Y-51868557D01*
X115877437Y-51891166D01*
X115880856Y-51914221D01*
X115882000Y-51937500D01*
X115882000Y-52412500D01*
X115880856Y-52435779D01*
X115877437Y-52458834D01*
X115871773Y-52481443D01*
X115863921Y-52503387D01*
X115853956Y-52524457D01*
X115841974Y-52544448D01*
X115828090Y-52563168D01*
X115812438Y-52580438D01*
X115795168Y-52596090D01*
X115776448Y-52609974D01*
X115756457Y-52621956D01*
X115735387Y-52631921D01*
X115713443Y-52639773D01*
X115690834Y-52645437D01*
X115667779Y-52648856D01*
X115644500Y-52650000D01*
X115069500Y-52650000D01*
X115046221Y-52648856D01*
X115023166Y-52645437D01*
X115000557Y-52639773D01*
X114978613Y-52631921D01*
X114957543Y-52621956D01*
X114937552Y-52609974D01*
X114918832Y-52596090D01*
X114901562Y-52580438D01*
X114885910Y-52563168D01*
X114872026Y-52544448D01*
X114860044Y-52524457D01*
X114850079Y-52503387D01*
X114842227Y-52481443D01*
X114836563Y-52458834D01*
X114833144Y-52435779D01*
X114832000Y-52412500D01*
X114832000Y-51937500D01*
X114833144Y-51914221D01*
X114836563Y-51891166D01*
X114842227Y-51868557D01*
X114850079Y-51846613D01*
X114860044Y-51825543D01*
X114872026Y-51805552D01*
X114885910Y-51786832D01*
X114901562Y-51769562D01*
X114918832Y-51753910D01*
X114937552Y-51740026D01*
X114957543Y-51728044D01*
X114978613Y-51718079D01*
X115000557Y-51710227D01*
X115023166Y-51704563D01*
X115046221Y-51701144D01*
X115069500Y-51700000D01*
X115644500Y-51700000D01*
X115667779Y-51701144D01*
X115667779Y-51701144D01*
G37*
D11*
X115357000Y-52175000D03*
D10*
G36*
X117417779Y-51701144D02*
G01*
X117440834Y-51704563D01*
X117463443Y-51710227D01*
X117485387Y-51718079D01*
X117506457Y-51728044D01*
X117526448Y-51740026D01*
X117545168Y-51753910D01*
X117562438Y-51769562D01*
X117578090Y-51786832D01*
X117591974Y-51805552D01*
X117603956Y-51825543D01*
X117613921Y-51846613D01*
X117621773Y-51868557D01*
X117627437Y-51891166D01*
X117630856Y-51914221D01*
X117632000Y-51937500D01*
X117632000Y-52412500D01*
X117630856Y-52435779D01*
X117627437Y-52458834D01*
X117621773Y-52481443D01*
X117613921Y-52503387D01*
X117603956Y-52524457D01*
X117591974Y-52544448D01*
X117578090Y-52563168D01*
X117562438Y-52580438D01*
X117545168Y-52596090D01*
X117526448Y-52609974D01*
X117506457Y-52621956D01*
X117485387Y-52631921D01*
X117463443Y-52639773D01*
X117440834Y-52645437D01*
X117417779Y-52648856D01*
X117394500Y-52650000D01*
X116819500Y-52650000D01*
X116796221Y-52648856D01*
X116773166Y-52645437D01*
X116750557Y-52639773D01*
X116728613Y-52631921D01*
X116707543Y-52621956D01*
X116687552Y-52609974D01*
X116668832Y-52596090D01*
X116651562Y-52580438D01*
X116635910Y-52563168D01*
X116622026Y-52544448D01*
X116610044Y-52524457D01*
X116600079Y-52503387D01*
X116592227Y-52481443D01*
X116586563Y-52458834D01*
X116583144Y-52435779D01*
X116582000Y-52412500D01*
X116582000Y-51937500D01*
X116583144Y-51914221D01*
X116586563Y-51891166D01*
X116592227Y-51868557D01*
X116600079Y-51846613D01*
X116610044Y-51825543D01*
X116622026Y-51805552D01*
X116635910Y-51786832D01*
X116651562Y-51769562D01*
X116668832Y-51753910D01*
X116687552Y-51740026D01*
X116707543Y-51728044D01*
X116728613Y-51718079D01*
X116750557Y-51710227D01*
X116773166Y-51704563D01*
X116796221Y-51701144D01*
X116819500Y-51700000D01*
X117394500Y-51700000D01*
X117417779Y-51701144D01*
X117417779Y-51701144D01*
G37*
D11*
X117107000Y-52175000D03*
D12*
X108752000Y-69850000D03*
X112052000Y-69850000D03*
D10*
G36*
X115667779Y-53801144D02*
G01*
X115690834Y-53804563D01*
X115713443Y-53810227D01*
X115735387Y-53818079D01*
X115756457Y-53828044D01*
X115776448Y-53840026D01*
X115795168Y-53853910D01*
X115812438Y-53869562D01*
X115828090Y-53886832D01*
X115841974Y-53905552D01*
X115853956Y-53925543D01*
X115863921Y-53946613D01*
X115871773Y-53968557D01*
X115877437Y-53991166D01*
X115880856Y-54014221D01*
X115882000Y-54037500D01*
X115882000Y-54512500D01*
X115880856Y-54535779D01*
X115877437Y-54558834D01*
X115871773Y-54581443D01*
X115863921Y-54603387D01*
X115853956Y-54624457D01*
X115841974Y-54644448D01*
X115828090Y-54663168D01*
X115812438Y-54680438D01*
X115795168Y-54696090D01*
X115776448Y-54709974D01*
X115756457Y-54721956D01*
X115735387Y-54731921D01*
X115713443Y-54739773D01*
X115690834Y-54745437D01*
X115667779Y-54748856D01*
X115644500Y-54750000D01*
X115069500Y-54750000D01*
X115046221Y-54748856D01*
X115023166Y-54745437D01*
X115000557Y-54739773D01*
X114978613Y-54731921D01*
X114957543Y-54721956D01*
X114937552Y-54709974D01*
X114918832Y-54696090D01*
X114901562Y-54680438D01*
X114885910Y-54663168D01*
X114872026Y-54644448D01*
X114860044Y-54624457D01*
X114850079Y-54603387D01*
X114842227Y-54581443D01*
X114836563Y-54558834D01*
X114833144Y-54535779D01*
X114832000Y-54512500D01*
X114832000Y-54037500D01*
X114833144Y-54014221D01*
X114836563Y-53991166D01*
X114842227Y-53968557D01*
X114850079Y-53946613D01*
X114860044Y-53925543D01*
X114872026Y-53905552D01*
X114885910Y-53886832D01*
X114901562Y-53869562D01*
X114918832Y-53853910D01*
X114937552Y-53840026D01*
X114957543Y-53828044D01*
X114978613Y-53818079D01*
X115000557Y-53810227D01*
X115023166Y-53804563D01*
X115046221Y-53801144D01*
X115069500Y-53800000D01*
X115644500Y-53800000D01*
X115667779Y-53801144D01*
X115667779Y-53801144D01*
G37*
D11*
X115357000Y-54275000D03*
D10*
G36*
X117417779Y-53801144D02*
G01*
X117440834Y-53804563D01*
X117463443Y-53810227D01*
X117485387Y-53818079D01*
X117506457Y-53828044D01*
X117526448Y-53840026D01*
X117545168Y-53853910D01*
X117562438Y-53869562D01*
X117578090Y-53886832D01*
X117591974Y-53905552D01*
X117603956Y-53925543D01*
X117613921Y-53946613D01*
X117621773Y-53968557D01*
X117627437Y-53991166D01*
X117630856Y-54014221D01*
X117632000Y-54037500D01*
X117632000Y-54512500D01*
X117630856Y-54535779D01*
X117627437Y-54558834D01*
X117621773Y-54581443D01*
X117613921Y-54603387D01*
X117603956Y-54624457D01*
X117591974Y-54644448D01*
X117578090Y-54663168D01*
X117562438Y-54680438D01*
X117545168Y-54696090D01*
X117526448Y-54709974D01*
X117506457Y-54721956D01*
X117485387Y-54731921D01*
X117463443Y-54739773D01*
X117440834Y-54745437D01*
X117417779Y-54748856D01*
X117394500Y-54750000D01*
X116819500Y-54750000D01*
X116796221Y-54748856D01*
X116773166Y-54745437D01*
X116750557Y-54739773D01*
X116728613Y-54731921D01*
X116707543Y-54721956D01*
X116687552Y-54709974D01*
X116668832Y-54696090D01*
X116651562Y-54680438D01*
X116635910Y-54663168D01*
X116622026Y-54644448D01*
X116610044Y-54624457D01*
X116600079Y-54603387D01*
X116592227Y-54581443D01*
X116586563Y-54558834D01*
X116583144Y-54535779D01*
X116582000Y-54512500D01*
X116582000Y-54037500D01*
X116583144Y-54014221D01*
X116586563Y-53991166D01*
X116592227Y-53968557D01*
X116600079Y-53946613D01*
X116610044Y-53925543D01*
X116622026Y-53905552D01*
X116635910Y-53886832D01*
X116651562Y-53869562D01*
X116668832Y-53853910D01*
X116687552Y-53840026D01*
X116707543Y-53828044D01*
X116728613Y-53818079D01*
X116750557Y-53810227D01*
X116773166Y-53804563D01*
X116796221Y-53801144D01*
X116819500Y-53800000D01*
X117394500Y-53800000D01*
X117417779Y-53801144D01*
X117417779Y-53801144D01*
G37*
D11*
X117107000Y-54275000D03*
D10*
G36*
X106383779Y-55914144D02*
G01*
X106406834Y-55917563D01*
X106429443Y-55923227D01*
X106451387Y-55931079D01*
X106472457Y-55941044D01*
X106492448Y-55953026D01*
X106511168Y-55966910D01*
X106528438Y-55982562D01*
X106544090Y-55999832D01*
X106557974Y-56018552D01*
X106569956Y-56038543D01*
X106579921Y-56059613D01*
X106587773Y-56081557D01*
X106593437Y-56104166D01*
X106596856Y-56127221D01*
X106598000Y-56150500D01*
X106598000Y-56625500D01*
X106596856Y-56648779D01*
X106593437Y-56671834D01*
X106587773Y-56694443D01*
X106579921Y-56716387D01*
X106569956Y-56737457D01*
X106557974Y-56757448D01*
X106544090Y-56776168D01*
X106528438Y-56793438D01*
X106511168Y-56809090D01*
X106492448Y-56822974D01*
X106472457Y-56834956D01*
X106451387Y-56844921D01*
X106429443Y-56852773D01*
X106406834Y-56858437D01*
X106383779Y-56861856D01*
X106360500Y-56863000D01*
X105785500Y-56863000D01*
X105762221Y-56861856D01*
X105739166Y-56858437D01*
X105716557Y-56852773D01*
X105694613Y-56844921D01*
X105673543Y-56834956D01*
X105653552Y-56822974D01*
X105634832Y-56809090D01*
X105617562Y-56793438D01*
X105601910Y-56776168D01*
X105588026Y-56757448D01*
X105576044Y-56737457D01*
X105566079Y-56716387D01*
X105558227Y-56694443D01*
X105552563Y-56671834D01*
X105549144Y-56648779D01*
X105548000Y-56625500D01*
X105548000Y-56150500D01*
X105549144Y-56127221D01*
X105552563Y-56104166D01*
X105558227Y-56081557D01*
X105566079Y-56059613D01*
X105576044Y-56038543D01*
X105588026Y-56018552D01*
X105601910Y-55999832D01*
X105617562Y-55982562D01*
X105634832Y-55966910D01*
X105653552Y-55953026D01*
X105673543Y-55941044D01*
X105694613Y-55931079D01*
X105716557Y-55923227D01*
X105739166Y-55917563D01*
X105762221Y-55914144D01*
X105785500Y-55913000D01*
X106360500Y-55913000D01*
X106383779Y-55914144D01*
X106383779Y-55914144D01*
G37*
D11*
X106073000Y-56388000D03*
D10*
G36*
X104633779Y-55914144D02*
G01*
X104656834Y-55917563D01*
X104679443Y-55923227D01*
X104701387Y-55931079D01*
X104722457Y-55941044D01*
X104742448Y-55953026D01*
X104761168Y-55966910D01*
X104778438Y-55982562D01*
X104794090Y-55999832D01*
X104807974Y-56018552D01*
X104819956Y-56038543D01*
X104829921Y-56059613D01*
X104837773Y-56081557D01*
X104843437Y-56104166D01*
X104846856Y-56127221D01*
X104848000Y-56150500D01*
X104848000Y-56625500D01*
X104846856Y-56648779D01*
X104843437Y-56671834D01*
X104837773Y-56694443D01*
X104829921Y-56716387D01*
X104819956Y-56737457D01*
X104807974Y-56757448D01*
X104794090Y-56776168D01*
X104778438Y-56793438D01*
X104761168Y-56809090D01*
X104742448Y-56822974D01*
X104722457Y-56834956D01*
X104701387Y-56844921D01*
X104679443Y-56852773D01*
X104656834Y-56858437D01*
X104633779Y-56861856D01*
X104610500Y-56863000D01*
X104035500Y-56863000D01*
X104012221Y-56861856D01*
X103989166Y-56858437D01*
X103966557Y-56852773D01*
X103944613Y-56844921D01*
X103923543Y-56834956D01*
X103903552Y-56822974D01*
X103884832Y-56809090D01*
X103867562Y-56793438D01*
X103851910Y-56776168D01*
X103838026Y-56757448D01*
X103826044Y-56737457D01*
X103816079Y-56716387D01*
X103808227Y-56694443D01*
X103802563Y-56671834D01*
X103799144Y-56648779D01*
X103798000Y-56625500D01*
X103798000Y-56150500D01*
X103799144Y-56127221D01*
X103802563Y-56104166D01*
X103808227Y-56081557D01*
X103816079Y-56059613D01*
X103826044Y-56038543D01*
X103838026Y-56018552D01*
X103851910Y-55999832D01*
X103867562Y-55982562D01*
X103884832Y-55966910D01*
X103903552Y-55953026D01*
X103923543Y-55941044D01*
X103944613Y-55931079D01*
X103966557Y-55923227D01*
X103989166Y-55917563D01*
X104012221Y-55914144D01*
X104035500Y-55913000D01*
X104610500Y-55913000D01*
X104633779Y-55914144D01*
X104633779Y-55914144D01*
G37*
D11*
X104323000Y-56388000D03*
D10*
G36*
X104633779Y-57731144D02*
G01*
X104656834Y-57734563D01*
X104679443Y-57740227D01*
X104701387Y-57748079D01*
X104722457Y-57758044D01*
X104742448Y-57770026D01*
X104761168Y-57783910D01*
X104778438Y-57799562D01*
X104794090Y-57816832D01*
X104807974Y-57835552D01*
X104819956Y-57855543D01*
X104829921Y-57876613D01*
X104837773Y-57898557D01*
X104843437Y-57921166D01*
X104846856Y-57944221D01*
X104848000Y-57967500D01*
X104848000Y-58442500D01*
X104846856Y-58465779D01*
X104843437Y-58488834D01*
X104837773Y-58511443D01*
X104829921Y-58533387D01*
X104819956Y-58554457D01*
X104807974Y-58574448D01*
X104794090Y-58593168D01*
X104778438Y-58610438D01*
X104761168Y-58626090D01*
X104742448Y-58639974D01*
X104722457Y-58651956D01*
X104701387Y-58661921D01*
X104679443Y-58669773D01*
X104656834Y-58675437D01*
X104633779Y-58678856D01*
X104610500Y-58680000D01*
X104035500Y-58680000D01*
X104012221Y-58678856D01*
X103989166Y-58675437D01*
X103966557Y-58669773D01*
X103944613Y-58661921D01*
X103923543Y-58651956D01*
X103903552Y-58639974D01*
X103884832Y-58626090D01*
X103867562Y-58610438D01*
X103851910Y-58593168D01*
X103838026Y-58574448D01*
X103826044Y-58554457D01*
X103816079Y-58533387D01*
X103808227Y-58511443D01*
X103802563Y-58488834D01*
X103799144Y-58465779D01*
X103798000Y-58442500D01*
X103798000Y-57967500D01*
X103799144Y-57944221D01*
X103802563Y-57921166D01*
X103808227Y-57898557D01*
X103816079Y-57876613D01*
X103826044Y-57855543D01*
X103838026Y-57835552D01*
X103851910Y-57816832D01*
X103867562Y-57799562D01*
X103884832Y-57783910D01*
X103903552Y-57770026D01*
X103923543Y-57758044D01*
X103944613Y-57748079D01*
X103966557Y-57740227D01*
X103989166Y-57734563D01*
X104012221Y-57731144D01*
X104035500Y-57730000D01*
X104610500Y-57730000D01*
X104633779Y-57731144D01*
X104633779Y-57731144D01*
G37*
D11*
X104323000Y-58205000D03*
D10*
G36*
X106383779Y-57731144D02*
G01*
X106406834Y-57734563D01*
X106429443Y-57740227D01*
X106451387Y-57748079D01*
X106472457Y-57758044D01*
X106492448Y-57770026D01*
X106511168Y-57783910D01*
X106528438Y-57799562D01*
X106544090Y-57816832D01*
X106557974Y-57835552D01*
X106569956Y-57855543D01*
X106579921Y-57876613D01*
X106587773Y-57898557D01*
X106593437Y-57921166D01*
X106596856Y-57944221D01*
X106598000Y-57967500D01*
X106598000Y-58442500D01*
X106596856Y-58465779D01*
X106593437Y-58488834D01*
X106587773Y-58511443D01*
X106579921Y-58533387D01*
X106569956Y-58554457D01*
X106557974Y-58574448D01*
X106544090Y-58593168D01*
X106528438Y-58610438D01*
X106511168Y-58626090D01*
X106492448Y-58639974D01*
X106472457Y-58651956D01*
X106451387Y-58661921D01*
X106429443Y-58669773D01*
X106406834Y-58675437D01*
X106383779Y-58678856D01*
X106360500Y-58680000D01*
X105785500Y-58680000D01*
X105762221Y-58678856D01*
X105739166Y-58675437D01*
X105716557Y-58669773D01*
X105694613Y-58661921D01*
X105673543Y-58651956D01*
X105653552Y-58639974D01*
X105634832Y-58626090D01*
X105617562Y-58610438D01*
X105601910Y-58593168D01*
X105588026Y-58574448D01*
X105576044Y-58554457D01*
X105566079Y-58533387D01*
X105558227Y-58511443D01*
X105552563Y-58488834D01*
X105549144Y-58465779D01*
X105548000Y-58442500D01*
X105548000Y-57967500D01*
X105549144Y-57944221D01*
X105552563Y-57921166D01*
X105558227Y-57898557D01*
X105566079Y-57876613D01*
X105576044Y-57855543D01*
X105588026Y-57835552D01*
X105601910Y-57816832D01*
X105617562Y-57799562D01*
X105634832Y-57783910D01*
X105653552Y-57770026D01*
X105673543Y-57758044D01*
X105694613Y-57748079D01*
X105716557Y-57740227D01*
X105739166Y-57734563D01*
X105762221Y-57731144D01*
X105785500Y-57730000D01*
X106360500Y-57730000D01*
X106383779Y-57731144D01*
X106383779Y-57731144D01*
G37*
D11*
X106073000Y-58205000D03*
D10*
G36*
X114759779Y-59774944D02*
G01*
X114782834Y-59778363D01*
X114805443Y-59784027D01*
X114827387Y-59791879D01*
X114848457Y-59801844D01*
X114868448Y-59813826D01*
X114887168Y-59827710D01*
X114904438Y-59843362D01*
X114920090Y-59860632D01*
X114933974Y-59879352D01*
X114945956Y-59899343D01*
X114955921Y-59920413D01*
X114963773Y-59942357D01*
X114969437Y-59964966D01*
X114972856Y-59988021D01*
X114974000Y-60011300D01*
X114974000Y-60486300D01*
X114972856Y-60509579D01*
X114969437Y-60532634D01*
X114963773Y-60555243D01*
X114955921Y-60577187D01*
X114945956Y-60598257D01*
X114933974Y-60618248D01*
X114920090Y-60636968D01*
X114904438Y-60654238D01*
X114887168Y-60669890D01*
X114868448Y-60683774D01*
X114848457Y-60695756D01*
X114827387Y-60705721D01*
X114805443Y-60713573D01*
X114782834Y-60719237D01*
X114759779Y-60722656D01*
X114736500Y-60723800D01*
X114161500Y-60723800D01*
X114138221Y-60722656D01*
X114115166Y-60719237D01*
X114092557Y-60713573D01*
X114070613Y-60705721D01*
X114049543Y-60695756D01*
X114029552Y-60683774D01*
X114010832Y-60669890D01*
X113993562Y-60654238D01*
X113977910Y-60636968D01*
X113964026Y-60618248D01*
X113952044Y-60598257D01*
X113942079Y-60577187D01*
X113934227Y-60555243D01*
X113928563Y-60532634D01*
X113925144Y-60509579D01*
X113924000Y-60486300D01*
X113924000Y-60011300D01*
X113925144Y-59988021D01*
X113928563Y-59964966D01*
X113934227Y-59942357D01*
X113942079Y-59920413D01*
X113952044Y-59899343D01*
X113964026Y-59879352D01*
X113977910Y-59860632D01*
X113993562Y-59843362D01*
X114010832Y-59827710D01*
X114029552Y-59813826D01*
X114049543Y-59801844D01*
X114070613Y-59791879D01*
X114092557Y-59784027D01*
X114115166Y-59778363D01*
X114138221Y-59774944D01*
X114161500Y-59773800D01*
X114736500Y-59773800D01*
X114759779Y-59774944D01*
X114759779Y-59774944D01*
G37*
D11*
X114449000Y-60248800D03*
D10*
G36*
X116509779Y-59774944D02*
G01*
X116532834Y-59778363D01*
X116555443Y-59784027D01*
X116577387Y-59791879D01*
X116598457Y-59801844D01*
X116618448Y-59813826D01*
X116637168Y-59827710D01*
X116654438Y-59843362D01*
X116670090Y-59860632D01*
X116683974Y-59879352D01*
X116695956Y-59899343D01*
X116705921Y-59920413D01*
X116713773Y-59942357D01*
X116719437Y-59964966D01*
X116722856Y-59988021D01*
X116724000Y-60011300D01*
X116724000Y-60486300D01*
X116722856Y-60509579D01*
X116719437Y-60532634D01*
X116713773Y-60555243D01*
X116705921Y-60577187D01*
X116695956Y-60598257D01*
X116683974Y-60618248D01*
X116670090Y-60636968D01*
X116654438Y-60654238D01*
X116637168Y-60669890D01*
X116618448Y-60683774D01*
X116598457Y-60695756D01*
X116577387Y-60705721D01*
X116555443Y-60713573D01*
X116532834Y-60719237D01*
X116509779Y-60722656D01*
X116486500Y-60723800D01*
X115911500Y-60723800D01*
X115888221Y-60722656D01*
X115865166Y-60719237D01*
X115842557Y-60713573D01*
X115820613Y-60705721D01*
X115799543Y-60695756D01*
X115779552Y-60683774D01*
X115760832Y-60669890D01*
X115743562Y-60654238D01*
X115727910Y-60636968D01*
X115714026Y-60618248D01*
X115702044Y-60598257D01*
X115692079Y-60577187D01*
X115684227Y-60555243D01*
X115678563Y-60532634D01*
X115675144Y-60509579D01*
X115674000Y-60486300D01*
X115674000Y-60011300D01*
X115675144Y-59988021D01*
X115678563Y-59964966D01*
X115684227Y-59942357D01*
X115692079Y-59920413D01*
X115702044Y-59899343D01*
X115714026Y-59879352D01*
X115727910Y-59860632D01*
X115743562Y-59843362D01*
X115760832Y-59827710D01*
X115779552Y-59813826D01*
X115799543Y-59801844D01*
X115820613Y-59791879D01*
X115842557Y-59784027D01*
X115865166Y-59778363D01*
X115888221Y-59774944D01*
X115911500Y-59773800D01*
X116486500Y-59773800D01*
X116509779Y-59774944D01*
X116509779Y-59774944D01*
G37*
D11*
X116199000Y-60248800D03*
D10*
G36*
X116509779Y-61603744D02*
G01*
X116532834Y-61607163D01*
X116555443Y-61612827D01*
X116577387Y-61620679D01*
X116598457Y-61630644D01*
X116618448Y-61642626D01*
X116637168Y-61656510D01*
X116654438Y-61672162D01*
X116670090Y-61689432D01*
X116683974Y-61708152D01*
X116695956Y-61728143D01*
X116705921Y-61749213D01*
X116713773Y-61771157D01*
X116719437Y-61793766D01*
X116722856Y-61816821D01*
X116724000Y-61840100D01*
X116724000Y-62315100D01*
X116722856Y-62338379D01*
X116719437Y-62361434D01*
X116713773Y-62384043D01*
X116705921Y-62405987D01*
X116695956Y-62427057D01*
X116683974Y-62447048D01*
X116670090Y-62465768D01*
X116654438Y-62483038D01*
X116637168Y-62498690D01*
X116618448Y-62512574D01*
X116598457Y-62524556D01*
X116577387Y-62534521D01*
X116555443Y-62542373D01*
X116532834Y-62548037D01*
X116509779Y-62551456D01*
X116486500Y-62552600D01*
X115911500Y-62552600D01*
X115888221Y-62551456D01*
X115865166Y-62548037D01*
X115842557Y-62542373D01*
X115820613Y-62534521D01*
X115799543Y-62524556D01*
X115779552Y-62512574D01*
X115760832Y-62498690D01*
X115743562Y-62483038D01*
X115727910Y-62465768D01*
X115714026Y-62447048D01*
X115702044Y-62427057D01*
X115692079Y-62405987D01*
X115684227Y-62384043D01*
X115678563Y-62361434D01*
X115675144Y-62338379D01*
X115674000Y-62315100D01*
X115674000Y-61840100D01*
X115675144Y-61816821D01*
X115678563Y-61793766D01*
X115684227Y-61771157D01*
X115692079Y-61749213D01*
X115702044Y-61728143D01*
X115714026Y-61708152D01*
X115727910Y-61689432D01*
X115743562Y-61672162D01*
X115760832Y-61656510D01*
X115779552Y-61642626D01*
X115799543Y-61630644D01*
X115820613Y-61620679D01*
X115842557Y-61612827D01*
X115865166Y-61607163D01*
X115888221Y-61603744D01*
X115911500Y-61602600D01*
X116486500Y-61602600D01*
X116509779Y-61603744D01*
X116509779Y-61603744D01*
G37*
D11*
X116199000Y-62077600D03*
D10*
G36*
X114759779Y-61603744D02*
G01*
X114782834Y-61607163D01*
X114805443Y-61612827D01*
X114827387Y-61620679D01*
X114848457Y-61630644D01*
X114868448Y-61642626D01*
X114887168Y-61656510D01*
X114904438Y-61672162D01*
X114920090Y-61689432D01*
X114933974Y-61708152D01*
X114945956Y-61728143D01*
X114955921Y-61749213D01*
X114963773Y-61771157D01*
X114969437Y-61793766D01*
X114972856Y-61816821D01*
X114974000Y-61840100D01*
X114974000Y-62315100D01*
X114972856Y-62338379D01*
X114969437Y-62361434D01*
X114963773Y-62384043D01*
X114955921Y-62405987D01*
X114945956Y-62427057D01*
X114933974Y-62447048D01*
X114920090Y-62465768D01*
X114904438Y-62483038D01*
X114887168Y-62498690D01*
X114868448Y-62512574D01*
X114848457Y-62524556D01*
X114827387Y-62534521D01*
X114805443Y-62542373D01*
X114782834Y-62548037D01*
X114759779Y-62551456D01*
X114736500Y-62552600D01*
X114161500Y-62552600D01*
X114138221Y-62551456D01*
X114115166Y-62548037D01*
X114092557Y-62542373D01*
X114070613Y-62534521D01*
X114049543Y-62524556D01*
X114029552Y-62512574D01*
X114010832Y-62498690D01*
X113993562Y-62483038D01*
X113977910Y-62465768D01*
X113964026Y-62447048D01*
X113952044Y-62427057D01*
X113942079Y-62405987D01*
X113934227Y-62384043D01*
X113928563Y-62361434D01*
X113925144Y-62338379D01*
X113924000Y-62315100D01*
X113924000Y-61840100D01*
X113925144Y-61816821D01*
X113928563Y-61793766D01*
X113934227Y-61771157D01*
X113942079Y-61749213D01*
X113952044Y-61728143D01*
X113964026Y-61708152D01*
X113977910Y-61689432D01*
X113993562Y-61672162D01*
X114010832Y-61656510D01*
X114029552Y-61642626D01*
X114049543Y-61630644D01*
X114070613Y-61620679D01*
X114092557Y-61612827D01*
X114115166Y-61607163D01*
X114138221Y-61603744D01*
X114161500Y-61602600D01*
X114736500Y-61602600D01*
X114759779Y-61603744D01*
X114759779Y-61603744D01*
G37*
D11*
X114449000Y-62077600D03*
D10*
G36*
X110159779Y-57731144D02*
G01*
X110182834Y-57734563D01*
X110205443Y-57740227D01*
X110227387Y-57748079D01*
X110248457Y-57758044D01*
X110268448Y-57770026D01*
X110287168Y-57783910D01*
X110304438Y-57799562D01*
X110320090Y-57816832D01*
X110333974Y-57835552D01*
X110345956Y-57855543D01*
X110355921Y-57876613D01*
X110363773Y-57898557D01*
X110369437Y-57921166D01*
X110372856Y-57944221D01*
X110374000Y-57967500D01*
X110374000Y-58442500D01*
X110372856Y-58465779D01*
X110369437Y-58488834D01*
X110363773Y-58511443D01*
X110355921Y-58533387D01*
X110345956Y-58554457D01*
X110333974Y-58574448D01*
X110320090Y-58593168D01*
X110304438Y-58610438D01*
X110287168Y-58626090D01*
X110268448Y-58639974D01*
X110248457Y-58651956D01*
X110227387Y-58661921D01*
X110205443Y-58669773D01*
X110182834Y-58675437D01*
X110159779Y-58678856D01*
X110136500Y-58680000D01*
X109561500Y-58680000D01*
X109538221Y-58678856D01*
X109515166Y-58675437D01*
X109492557Y-58669773D01*
X109470613Y-58661921D01*
X109449543Y-58651956D01*
X109429552Y-58639974D01*
X109410832Y-58626090D01*
X109393562Y-58610438D01*
X109377910Y-58593168D01*
X109364026Y-58574448D01*
X109352044Y-58554457D01*
X109342079Y-58533387D01*
X109334227Y-58511443D01*
X109328563Y-58488834D01*
X109325144Y-58465779D01*
X109324000Y-58442500D01*
X109324000Y-57967500D01*
X109325144Y-57944221D01*
X109328563Y-57921166D01*
X109334227Y-57898557D01*
X109342079Y-57876613D01*
X109352044Y-57855543D01*
X109364026Y-57835552D01*
X109377910Y-57816832D01*
X109393562Y-57799562D01*
X109410832Y-57783910D01*
X109429552Y-57770026D01*
X109449543Y-57758044D01*
X109470613Y-57748079D01*
X109492557Y-57740227D01*
X109515166Y-57734563D01*
X109538221Y-57731144D01*
X109561500Y-57730000D01*
X110136500Y-57730000D01*
X110159779Y-57731144D01*
X110159779Y-57731144D01*
G37*
D11*
X109849000Y-58205000D03*
D10*
G36*
X108409779Y-57731144D02*
G01*
X108432834Y-57734563D01*
X108455443Y-57740227D01*
X108477387Y-57748079D01*
X108498457Y-57758044D01*
X108518448Y-57770026D01*
X108537168Y-57783910D01*
X108554438Y-57799562D01*
X108570090Y-57816832D01*
X108583974Y-57835552D01*
X108595956Y-57855543D01*
X108605921Y-57876613D01*
X108613773Y-57898557D01*
X108619437Y-57921166D01*
X108622856Y-57944221D01*
X108624000Y-57967500D01*
X108624000Y-58442500D01*
X108622856Y-58465779D01*
X108619437Y-58488834D01*
X108613773Y-58511443D01*
X108605921Y-58533387D01*
X108595956Y-58554457D01*
X108583974Y-58574448D01*
X108570090Y-58593168D01*
X108554438Y-58610438D01*
X108537168Y-58626090D01*
X108518448Y-58639974D01*
X108498457Y-58651956D01*
X108477387Y-58661921D01*
X108455443Y-58669773D01*
X108432834Y-58675437D01*
X108409779Y-58678856D01*
X108386500Y-58680000D01*
X107811500Y-58680000D01*
X107788221Y-58678856D01*
X107765166Y-58675437D01*
X107742557Y-58669773D01*
X107720613Y-58661921D01*
X107699543Y-58651956D01*
X107679552Y-58639974D01*
X107660832Y-58626090D01*
X107643562Y-58610438D01*
X107627910Y-58593168D01*
X107614026Y-58574448D01*
X107602044Y-58554457D01*
X107592079Y-58533387D01*
X107584227Y-58511443D01*
X107578563Y-58488834D01*
X107575144Y-58465779D01*
X107574000Y-58442500D01*
X107574000Y-57967500D01*
X107575144Y-57944221D01*
X107578563Y-57921166D01*
X107584227Y-57898557D01*
X107592079Y-57876613D01*
X107602044Y-57855543D01*
X107614026Y-57835552D01*
X107627910Y-57816832D01*
X107643562Y-57799562D01*
X107660832Y-57783910D01*
X107679552Y-57770026D01*
X107699543Y-57758044D01*
X107720613Y-57748079D01*
X107742557Y-57740227D01*
X107765166Y-57734563D01*
X107788221Y-57731144D01*
X107811500Y-57730000D01*
X108386500Y-57730000D01*
X108409779Y-57731144D01*
X108409779Y-57731144D01*
G37*
D11*
X108099000Y-58205000D03*
D10*
G36*
X116509779Y-57946144D02*
G01*
X116532834Y-57949563D01*
X116555443Y-57955227D01*
X116577387Y-57963079D01*
X116598457Y-57973044D01*
X116618448Y-57985026D01*
X116637168Y-57998910D01*
X116654438Y-58014562D01*
X116670090Y-58031832D01*
X116683974Y-58050552D01*
X116695956Y-58070543D01*
X116705921Y-58091613D01*
X116713773Y-58113557D01*
X116719437Y-58136166D01*
X116722856Y-58159221D01*
X116724000Y-58182500D01*
X116724000Y-58657500D01*
X116722856Y-58680779D01*
X116719437Y-58703834D01*
X116713773Y-58726443D01*
X116705921Y-58748387D01*
X116695956Y-58769457D01*
X116683974Y-58789448D01*
X116670090Y-58808168D01*
X116654438Y-58825438D01*
X116637168Y-58841090D01*
X116618448Y-58854974D01*
X116598457Y-58866956D01*
X116577387Y-58876921D01*
X116555443Y-58884773D01*
X116532834Y-58890437D01*
X116509779Y-58893856D01*
X116486500Y-58895000D01*
X115911500Y-58895000D01*
X115888221Y-58893856D01*
X115865166Y-58890437D01*
X115842557Y-58884773D01*
X115820613Y-58876921D01*
X115799543Y-58866956D01*
X115779552Y-58854974D01*
X115760832Y-58841090D01*
X115743562Y-58825438D01*
X115727910Y-58808168D01*
X115714026Y-58789448D01*
X115702044Y-58769457D01*
X115692079Y-58748387D01*
X115684227Y-58726443D01*
X115678563Y-58703834D01*
X115675144Y-58680779D01*
X115674000Y-58657500D01*
X115674000Y-58182500D01*
X115675144Y-58159221D01*
X115678563Y-58136166D01*
X115684227Y-58113557D01*
X115692079Y-58091613D01*
X115702044Y-58070543D01*
X115714026Y-58050552D01*
X115727910Y-58031832D01*
X115743562Y-58014562D01*
X115760832Y-57998910D01*
X115779552Y-57985026D01*
X115799543Y-57973044D01*
X115820613Y-57963079D01*
X115842557Y-57955227D01*
X115865166Y-57949563D01*
X115888221Y-57946144D01*
X115911500Y-57945000D01*
X116486500Y-57945000D01*
X116509779Y-57946144D01*
X116509779Y-57946144D01*
G37*
D11*
X116199000Y-58420000D03*
D10*
G36*
X114759779Y-57946144D02*
G01*
X114782834Y-57949563D01*
X114805443Y-57955227D01*
X114827387Y-57963079D01*
X114848457Y-57973044D01*
X114868448Y-57985026D01*
X114887168Y-57998910D01*
X114904438Y-58014562D01*
X114920090Y-58031832D01*
X114933974Y-58050552D01*
X114945956Y-58070543D01*
X114955921Y-58091613D01*
X114963773Y-58113557D01*
X114969437Y-58136166D01*
X114972856Y-58159221D01*
X114974000Y-58182500D01*
X114974000Y-58657500D01*
X114972856Y-58680779D01*
X114969437Y-58703834D01*
X114963773Y-58726443D01*
X114955921Y-58748387D01*
X114945956Y-58769457D01*
X114933974Y-58789448D01*
X114920090Y-58808168D01*
X114904438Y-58825438D01*
X114887168Y-58841090D01*
X114868448Y-58854974D01*
X114848457Y-58866956D01*
X114827387Y-58876921D01*
X114805443Y-58884773D01*
X114782834Y-58890437D01*
X114759779Y-58893856D01*
X114736500Y-58895000D01*
X114161500Y-58895000D01*
X114138221Y-58893856D01*
X114115166Y-58890437D01*
X114092557Y-58884773D01*
X114070613Y-58876921D01*
X114049543Y-58866956D01*
X114029552Y-58854974D01*
X114010832Y-58841090D01*
X113993562Y-58825438D01*
X113977910Y-58808168D01*
X113964026Y-58789448D01*
X113952044Y-58769457D01*
X113942079Y-58748387D01*
X113934227Y-58726443D01*
X113928563Y-58703834D01*
X113925144Y-58680779D01*
X113924000Y-58657500D01*
X113924000Y-58182500D01*
X113925144Y-58159221D01*
X113928563Y-58136166D01*
X113934227Y-58113557D01*
X113942079Y-58091613D01*
X113952044Y-58070543D01*
X113964026Y-58050552D01*
X113977910Y-58031832D01*
X113993562Y-58014562D01*
X114010832Y-57998910D01*
X114029552Y-57985026D01*
X114049543Y-57973044D01*
X114070613Y-57963079D01*
X114092557Y-57955227D01*
X114115166Y-57949563D01*
X114138221Y-57946144D01*
X114161500Y-57945000D01*
X114736500Y-57945000D01*
X114759779Y-57946144D01*
X114759779Y-57946144D01*
G37*
D11*
X114449000Y-58420000D03*
D10*
G36*
X106349779Y-69376144D02*
G01*
X106372834Y-69379563D01*
X106395443Y-69385227D01*
X106417387Y-69393079D01*
X106438457Y-69403044D01*
X106458448Y-69415026D01*
X106477168Y-69428910D01*
X106494438Y-69444562D01*
X106510090Y-69461832D01*
X106523974Y-69480552D01*
X106535956Y-69500543D01*
X106545921Y-69521613D01*
X106553773Y-69543557D01*
X106559437Y-69566166D01*
X106562856Y-69589221D01*
X106564000Y-69612500D01*
X106564000Y-70087500D01*
X106562856Y-70110779D01*
X106559437Y-70133834D01*
X106553773Y-70156443D01*
X106545921Y-70178387D01*
X106535956Y-70199457D01*
X106523974Y-70219448D01*
X106510090Y-70238168D01*
X106494438Y-70255438D01*
X106477168Y-70271090D01*
X106458448Y-70284974D01*
X106438457Y-70296956D01*
X106417387Y-70306921D01*
X106395443Y-70314773D01*
X106372834Y-70320437D01*
X106349779Y-70323856D01*
X106326500Y-70325000D01*
X105751500Y-70325000D01*
X105728221Y-70323856D01*
X105705166Y-70320437D01*
X105682557Y-70314773D01*
X105660613Y-70306921D01*
X105639543Y-70296956D01*
X105619552Y-70284974D01*
X105600832Y-70271090D01*
X105583562Y-70255438D01*
X105567910Y-70238168D01*
X105554026Y-70219448D01*
X105542044Y-70199457D01*
X105532079Y-70178387D01*
X105524227Y-70156443D01*
X105518563Y-70133834D01*
X105515144Y-70110779D01*
X105514000Y-70087500D01*
X105514000Y-69612500D01*
X105515144Y-69589221D01*
X105518563Y-69566166D01*
X105524227Y-69543557D01*
X105532079Y-69521613D01*
X105542044Y-69500543D01*
X105554026Y-69480552D01*
X105567910Y-69461832D01*
X105583562Y-69444562D01*
X105600832Y-69428910D01*
X105619552Y-69415026D01*
X105639543Y-69403044D01*
X105660613Y-69393079D01*
X105682557Y-69385227D01*
X105705166Y-69379563D01*
X105728221Y-69376144D01*
X105751500Y-69375000D01*
X106326500Y-69375000D01*
X106349779Y-69376144D01*
X106349779Y-69376144D01*
G37*
D11*
X106039000Y-69850000D03*
D10*
G36*
X104599779Y-69376144D02*
G01*
X104622834Y-69379563D01*
X104645443Y-69385227D01*
X104667387Y-69393079D01*
X104688457Y-69403044D01*
X104708448Y-69415026D01*
X104727168Y-69428910D01*
X104744438Y-69444562D01*
X104760090Y-69461832D01*
X104773974Y-69480552D01*
X104785956Y-69500543D01*
X104795921Y-69521613D01*
X104803773Y-69543557D01*
X104809437Y-69566166D01*
X104812856Y-69589221D01*
X104814000Y-69612500D01*
X104814000Y-70087500D01*
X104812856Y-70110779D01*
X104809437Y-70133834D01*
X104803773Y-70156443D01*
X104795921Y-70178387D01*
X104785956Y-70199457D01*
X104773974Y-70219448D01*
X104760090Y-70238168D01*
X104744438Y-70255438D01*
X104727168Y-70271090D01*
X104708448Y-70284974D01*
X104688457Y-70296956D01*
X104667387Y-70306921D01*
X104645443Y-70314773D01*
X104622834Y-70320437D01*
X104599779Y-70323856D01*
X104576500Y-70325000D01*
X104001500Y-70325000D01*
X103978221Y-70323856D01*
X103955166Y-70320437D01*
X103932557Y-70314773D01*
X103910613Y-70306921D01*
X103889543Y-70296956D01*
X103869552Y-70284974D01*
X103850832Y-70271090D01*
X103833562Y-70255438D01*
X103817910Y-70238168D01*
X103804026Y-70219448D01*
X103792044Y-70199457D01*
X103782079Y-70178387D01*
X103774227Y-70156443D01*
X103768563Y-70133834D01*
X103765144Y-70110779D01*
X103764000Y-70087500D01*
X103764000Y-69612500D01*
X103765144Y-69589221D01*
X103768563Y-69566166D01*
X103774227Y-69543557D01*
X103782079Y-69521613D01*
X103792044Y-69500543D01*
X103804026Y-69480552D01*
X103817910Y-69461832D01*
X103833562Y-69444562D01*
X103850832Y-69428910D01*
X103869552Y-69415026D01*
X103889543Y-69403044D01*
X103910613Y-69393079D01*
X103932557Y-69385227D01*
X103955166Y-69379563D01*
X103978221Y-69376144D01*
X104001500Y-69375000D01*
X104576500Y-69375000D01*
X104599779Y-69376144D01*
X104599779Y-69376144D01*
G37*
D11*
X104289000Y-69850000D03*
D10*
G36*
X106217703Y-59542722D02*
G01*
X106232264Y-59544882D01*
X106246543Y-59548459D01*
X106260403Y-59553418D01*
X106273710Y-59559712D01*
X106286336Y-59567280D01*
X106298159Y-59576048D01*
X106309066Y-59585934D01*
X106318952Y-59596841D01*
X106327720Y-59608664D01*
X106335288Y-59621290D01*
X106341582Y-59634597D01*
X106346541Y-59648457D01*
X106350118Y-59662736D01*
X106352278Y-59677297D01*
X106353000Y-59692000D01*
X106353000Y-61342000D01*
X106352278Y-61356703D01*
X106350118Y-61371264D01*
X106346541Y-61385543D01*
X106341582Y-61399403D01*
X106335288Y-61412710D01*
X106327720Y-61425336D01*
X106318952Y-61437159D01*
X106309066Y-61448066D01*
X106298159Y-61457952D01*
X106286336Y-61466720D01*
X106273710Y-61474288D01*
X106260403Y-61480582D01*
X106246543Y-61485541D01*
X106232264Y-61489118D01*
X106217703Y-61491278D01*
X106203000Y-61492000D01*
X105903000Y-61492000D01*
X105888297Y-61491278D01*
X105873736Y-61489118D01*
X105859457Y-61485541D01*
X105845597Y-61480582D01*
X105832290Y-61474288D01*
X105819664Y-61466720D01*
X105807841Y-61457952D01*
X105796934Y-61448066D01*
X105787048Y-61437159D01*
X105778280Y-61425336D01*
X105770712Y-61412710D01*
X105764418Y-61399403D01*
X105759459Y-61385543D01*
X105755882Y-61371264D01*
X105753722Y-61356703D01*
X105753000Y-61342000D01*
X105753000Y-59692000D01*
X105753722Y-59677297D01*
X105755882Y-59662736D01*
X105759459Y-59648457D01*
X105764418Y-59634597D01*
X105770712Y-59621290D01*
X105778280Y-59608664D01*
X105787048Y-59596841D01*
X105796934Y-59585934D01*
X105807841Y-59576048D01*
X105819664Y-59567280D01*
X105832290Y-59559712D01*
X105845597Y-59553418D01*
X105859457Y-59548459D01*
X105873736Y-59544882D01*
X105888297Y-59542722D01*
X105903000Y-59542000D01*
X106203000Y-59542000D01*
X106217703Y-59542722D01*
X106217703Y-59542722D01*
G37*
D13*
X106053000Y-60517000D03*
D10*
G36*
X104947703Y-59542722D02*
G01*
X104962264Y-59544882D01*
X104976543Y-59548459D01*
X104990403Y-59553418D01*
X105003710Y-59559712D01*
X105016336Y-59567280D01*
X105028159Y-59576048D01*
X105039066Y-59585934D01*
X105048952Y-59596841D01*
X105057720Y-59608664D01*
X105065288Y-59621290D01*
X105071582Y-59634597D01*
X105076541Y-59648457D01*
X105080118Y-59662736D01*
X105082278Y-59677297D01*
X105083000Y-59692000D01*
X105083000Y-61342000D01*
X105082278Y-61356703D01*
X105080118Y-61371264D01*
X105076541Y-61385543D01*
X105071582Y-61399403D01*
X105065288Y-61412710D01*
X105057720Y-61425336D01*
X105048952Y-61437159D01*
X105039066Y-61448066D01*
X105028159Y-61457952D01*
X105016336Y-61466720D01*
X105003710Y-61474288D01*
X104990403Y-61480582D01*
X104976543Y-61485541D01*
X104962264Y-61489118D01*
X104947703Y-61491278D01*
X104933000Y-61492000D01*
X104633000Y-61492000D01*
X104618297Y-61491278D01*
X104603736Y-61489118D01*
X104589457Y-61485541D01*
X104575597Y-61480582D01*
X104562290Y-61474288D01*
X104549664Y-61466720D01*
X104537841Y-61457952D01*
X104526934Y-61448066D01*
X104517048Y-61437159D01*
X104508280Y-61425336D01*
X104500712Y-61412710D01*
X104494418Y-61399403D01*
X104489459Y-61385543D01*
X104485882Y-61371264D01*
X104483722Y-61356703D01*
X104483000Y-61342000D01*
X104483000Y-59692000D01*
X104483722Y-59677297D01*
X104485882Y-59662736D01*
X104489459Y-59648457D01*
X104494418Y-59634597D01*
X104500712Y-59621290D01*
X104508280Y-59608664D01*
X104517048Y-59596841D01*
X104526934Y-59585934D01*
X104537841Y-59576048D01*
X104549664Y-59567280D01*
X104562290Y-59559712D01*
X104575597Y-59553418D01*
X104589457Y-59548459D01*
X104603736Y-59544882D01*
X104618297Y-59542722D01*
X104633000Y-59542000D01*
X104933000Y-59542000D01*
X104947703Y-59542722D01*
X104947703Y-59542722D01*
G37*
D13*
X104783000Y-60517000D03*
D10*
G36*
X103677703Y-59542722D02*
G01*
X103692264Y-59544882D01*
X103706543Y-59548459D01*
X103720403Y-59553418D01*
X103733710Y-59559712D01*
X103746336Y-59567280D01*
X103758159Y-59576048D01*
X103769066Y-59585934D01*
X103778952Y-59596841D01*
X103787720Y-59608664D01*
X103795288Y-59621290D01*
X103801582Y-59634597D01*
X103806541Y-59648457D01*
X103810118Y-59662736D01*
X103812278Y-59677297D01*
X103813000Y-59692000D01*
X103813000Y-61342000D01*
X103812278Y-61356703D01*
X103810118Y-61371264D01*
X103806541Y-61385543D01*
X103801582Y-61399403D01*
X103795288Y-61412710D01*
X103787720Y-61425336D01*
X103778952Y-61437159D01*
X103769066Y-61448066D01*
X103758159Y-61457952D01*
X103746336Y-61466720D01*
X103733710Y-61474288D01*
X103720403Y-61480582D01*
X103706543Y-61485541D01*
X103692264Y-61489118D01*
X103677703Y-61491278D01*
X103663000Y-61492000D01*
X103363000Y-61492000D01*
X103348297Y-61491278D01*
X103333736Y-61489118D01*
X103319457Y-61485541D01*
X103305597Y-61480582D01*
X103292290Y-61474288D01*
X103279664Y-61466720D01*
X103267841Y-61457952D01*
X103256934Y-61448066D01*
X103247048Y-61437159D01*
X103238280Y-61425336D01*
X103230712Y-61412710D01*
X103224418Y-61399403D01*
X103219459Y-61385543D01*
X103215882Y-61371264D01*
X103213722Y-61356703D01*
X103213000Y-61342000D01*
X103213000Y-59692000D01*
X103213722Y-59677297D01*
X103215882Y-59662736D01*
X103219459Y-59648457D01*
X103224418Y-59634597D01*
X103230712Y-59621290D01*
X103238280Y-59608664D01*
X103247048Y-59596841D01*
X103256934Y-59585934D01*
X103267841Y-59576048D01*
X103279664Y-59567280D01*
X103292290Y-59559712D01*
X103305597Y-59553418D01*
X103319457Y-59548459D01*
X103333736Y-59544882D01*
X103348297Y-59542722D01*
X103363000Y-59542000D01*
X103663000Y-59542000D01*
X103677703Y-59542722D01*
X103677703Y-59542722D01*
G37*
D13*
X103513000Y-60517000D03*
D10*
G36*
X102407703Y-59542722D02*
G01*
X102422264Y-59544882D01*
X102436543Y-59548459D01*
X102450403Y-59553418D01*
X102463710Y-59559712D01*
X102476336Y-59567280D01*
X102488159Y-59576048D01*
X102499066Y-59585934D01*
X102508952Y-59596841D01*
X102517720Y-59608664D01*
X102525288Y-59621290D01*
X102531582Y-59634597D01*
X102536541Y-59648457D01*
X102540118Y-59662736D01*
X102542278Y-59677297D01*
X102543000Y-59692000D01*
X102543000Y-61342000D01*
X102542278Y-61356703D01*
X102540118Y-61371264D01*
X102536541Y-61385543D01*
X102531582Y-61399403D01*
X102525288Y-61412710D01*
X102517720Y-61425336D01*
X102508952Y-61437159D01*
X102499066Y-61448066D01*
X102488159Y-61457952D01*
X102476336Y-61466720D01*
X102463710Y-61474288D01*
X102450403Y-61480582D01*
X102436543Y-61485541D01*
X102422264Y-61489118D01*
X102407703Y-61491278D01*
X102393000Y-61492000D01*
X102093000Y-61492000D01*
X102078297Y-61491278D01*
X102063736Y-61489118D01*
X102049457Y-61485541D01*
X102035597Y-61480582D01*
X102022290Y-61474288D01*
X102009664Y-61466720D01*
X101997841Y-61457952D01*
X101986934Y-61448066D01*
X101977048Y-61437159D01*
X101968280Y-61425336D01*
X101960712Y-61412710D01*
X101954418Y-61399403D01*
X101949459Y-61385543D01*
X101945882Y-61371264D01*
X101943722Y-61356703D01*
X101943000Y-61342000D01*
X101943000Y-59692000D01*
X101943722Y-59677297D01*
X101945882Y-59662736D01*
X101949459Y-59648457D01*
X101954418Y-59634597D01*
X101960712Y-59621290D01*
X101968280Y-59608664D01*
X101977048Y-59596841D01*
X101986934Y-59585934D01*
X101997841Y-59576048D01*
X102009664Y-59567280D01*
X102022290Y-59559712D01*
X102035597Y-59553418D01*
X102049457Y-59548459D01*
X102063736Y-59544882D01*
X102078297Y-59542722D01*
X102093000Y-59542000D01*
X102393000Y-59542000D01*
X102407703Y-59542722D01*
X102407703Y-59542722D01*
G37*
D13*
X102243000Y-60517000D03*
D10*
G36*
X102407703Y-64492722D02*
G01*
X102422264Y-64494882D01*
X102436543Y-64498459D01*
X102450403Y-64503418D01*
X102463710Y-64509712D01*
X102476336Y-64517280D01*
X102488159Y-64526048D01*
X102499066Y-64535934D01*
X102508952Y-64546841D01*
X102517720Y-64558664D01*
X102525288Y-64571290D01*
X102531582Y-64584597D01*
X102536541Y-64598457D01*
X102540118Y-64612736D01*
X102542278Y-64627297D01*
X102543000Y-64642000D01*
X102543000Y-66292000D01*
X102542278Y-66306703D01*
X102540118Y-66321264D01*
X102536541Y-66335543D01*
X102531582Y-66349403D01*
X102525288Y-66362710D01*
X102517720Y-66375336D01*
X102508952Y-66387159D01*
X102499066Y-66398066D01*
X102488159Y-66407952D01*
X102476336Y-66416720D01*
X102463710Y-66424288D01*
X102450403Y-66430582D01*
X102436543Y-66435541D01*
X102422264Y-66439118D01*
X102407703Y-66441278D01*
X102393000Y-66442000D01*
X102093000Y-66442000D01*
X102078297Y-66441278D01*
X102063736Y-66439118D01*
X102049457Y-66435541D01*
X102035597Y-66430582D01*
X102022290Y-66424288D01*
X102009664Y-66416720D01*
X101997841Y-66407952D01*
X101986934Y-66398066D01*
X101977048Y-66387159D01*
X101968280Y-66375336D01*
X101960712Y-66362710D01*
X101954418Y-66349403D01*
X101949459Y-66335543D01*
X101945882Y-66321264D01*
X101943722Y-66306703D01*
X101943000Y-66292000D01*
X101943000Y-64642000D01*
X101943722Y-64627297D01*
X101945882Y-64612736D01*
X101949459Y-64598457D01*
X101954418Y-64584597D01*
X101960712Y-64571290D01*
X101968280Y-64558664D01*
X101977048Y-64546841D01*
X101986934Y-64535934D01*
X101997841Y-64526048D01*
X102009664Y-64517280D01*
X102022290Y-64509712D01*
X102035597Y-64503418D01*
X102049457Y-64498459D01*
X102063736Y-64494882D01*
X102078297Y-64492722D01*
X102093000Y-64492000D01*
X102393000Y-64492000D01*
X102407703Y-64492722D01*
X102407703Y-64492722D01*
G37*
D13*
X102243000Y-65467000D03*
D10*
G36*
X103677703Y-64492722D02*
G01*
X103692264Y-64494882D01*
X103706543Y-64498459D01*
X103720403Y-64503418D01*
X103733710Y-64509712D01*
X103746336Y-64517280D01*
X103758159Y-64526048D01*
X103769066Y-64535934D01*
X103778952Y-64546841D01*
X103787720Y-64558664D01*
X103795288Y-64571290D01*
X103801582Y-64584597D01*
X103806541Y-64598457D01*
X103810118Y-64612736D01*
X103812278Y-64627297D01*
X103813000Y-64642000D01*
X103813000Y-66292000D01*
X103812278Y-66306703D01*
X103810118Y-66321264D01*
X103806541Y-66335543D01*
X103801582Y-66349403D01*
X103795288Y-66362710D01*
X103787720Y-66375336D01*
X103778952Y-66387159D01*
X103769066Y-66398066D01*
X103758159Y-66407952D01*
X103746336Y-66416720D01*
X103733710Y-66424288D01*
X103720403Y-66430582D01*
X103706543Y-66435541D01*
X103692264Y-66439118D01*
X103677703Y-66441278D01*
X103663000Y-66442000D01*
X103363000Y-66442000D01*
X103348297Y-66441278D01*
X103333736Y-66439118D01*
X103319457Y-66435541D01*
X103305597Y-66430582D01*
X103292290Y-66424288D01*
X103279664Y-66416720D01*
X103267841Y-66407952D01*
X103256934Y-66398066D01*
X103247048Y-66387159D01*
X103238280Y-66375336D01*
X103230712Y-66362710D01*
X103224418Y-66349403D01*
X103219459Y-66335543D01*
X103215882Y-66321264D01*
X103213722Y-66306703D01*
X103213000Y-66292000D01*
X103213000Y-64642000D01*
X103213722Y-64627297D01*
X103215882Y-64612736D01*
X103219459Y-64598457D01*
X103224418Y-64584597D01*
X103230712Y-64571290D01*
X103238280Y-64558664D01*
X103247048Y-64546841D01*
X103256934Y-64535934D01*
X103267841Y-64526048D01*
X103279664Y-64517280D01*
X103292290Y-64509712D01*
X103305597Y-64503418D01*
X103319457Y-64498459D01*
X103333736Y-64494882D01*
X103348297Y-64492722D01*
X103363000Y-64492000D01*
X103663000Y-64492000D01*
X103677703Y-64492722D01*
X103677703Y-64492722D01*
G37*
D13*
X103513000Y-65467000D03*
D10*
G36*
X104947703Y-64492722D02*
G01*
X104962264Y-64494882D01*
X104976543Y-64498459D01*
X104990403Y-64503418D01*
X105003710Y-64509712D01*
X105016336Y-64517280D01*
X105028159Y-64526048D01*
X105039066Y-64535934D01*
X105048952Y-64546841D01*
X105057720Y-64558664D01*
X105065288Y-64571290D01*
X105071582Y-64584597D01*
X105076541Y-64598457D01*
X105080118Y-64612736D01*
X105082278Y-64627297D01*
X105083000Y-64642000D01*
X105083000Y-66292000D01*
X105082278Y-66306703D01*
X105080118Y-66321264D01*
X105076541Y-66335543D01*
X105071582Y-66349403D01*
X105065288Y-66362710D01*
X105057720Y-66375336D01*
X105048952Y-66387159D01*
X105039066Y-66398066D01*
X105028159Y-66407952D01*
X105016336Y-66416720D01*
X105003710Y-66424288D01*
X104990403Y-66430582D01*
X104976543Y-66435541D01*
X104962264Y-66439118D01*
X104947703Y-66441278D01*
X104933000Y-66442000D01*
X104633000Y-66442000D01*
X104618297Y-66441278D01*
X104603736Y-66439118D01*
X104589457Y-66435541D01*
X104575597Y-66430582D01*
X104562290Y-66424288D01*
X104549664Y-66416720D01*
X104537841Y-66407952D01*
X104526934Y-66398066D01*
X104517048Y-66387159D01*
X104508280Y-66375336D01*
X104500712Y-66362710D01*
X104494418Y-66349403D01*
X104489459Y-66335543D01*
X104485882Y-66321264D01*
X104483722Y-66306703D01*
X104483000Y-66292000D01*
X104483000Y-64642000D01*
X104483722Y-64627297D01*
X104485882Y-64612736D01*
X104489459Y-64598457D01*
X104494418Y-64584597D01*
X104500712Y-64571290D01*
X104508280Y-64558664D01*
X104517048Y-64546841D01*
X104526934Y-64535934D01*
X104537841Y-64526048D01*
X104549664Y-64517280D01*
X104562290Y-64509712D01*
X104575597Y-64503418D01*
X104589457Y-64498459D01*
X104603736Y-64494882D01*
X104618297Y-64492722D01*
X104633000Y-64492000D01*
X104933000Y-64492000D01*
X104947703Y-64492722D01*
X104947703Y-64492722D01*
G37*
D13*
X104783000Y-65467000D03*
D10*
G36*
X106217703Y-64492722D02*
G01*
X106232264Y-64494882D01*
X106246543Y-64498459D01*
X106260403Y-64503418D01*
X106273710Y-64509712D01*
X106286336Y-64517280D01*
X106298159Y-64526048D01*
X106309066Y-64535934D01*
X106318952Y-64546841D01*
X106327720Y-64558664D01*
X106335288Y-64571290D01*
X106341582Y-64584597D01*
X106346541Y-64598457D01*
X106350118Y-64612736D01*
X106352278Y-64627297D01*
X106353000Y-64642000D01*
X106353000Y-66292000D01*
X106352278Y-66306703D01*
X106350118Y-66321264D01*
X106346541Y-66335543D01*
X106341582Y-66349403D01*
X106335288Y-66362710D01*
X106327720Y-66375336D01*
X106318952Y-66387159D01*
X106309066Y-66398066D01*
X106298159Y-66407952D01*
X106286336Y-66416720D01*
X106273710Y-66424288D01*
X106260403Y-66430582D01*
X106246543Y-66435541D01*
X106232264Y-66439118D01*
X106217703Y-66441278D01*
X106203000Y-66442000D01*
X105903000Y-66442000D01*
X105888297Y-66441278D01*
X105873736Y-66439118D01*
X105859457Y-66435541D01*
X105845597Y-66430582D01*
X105832290Y-66424288D01*
X105819664Y-66416720D01*
X105807841Y-66407952D01*
X105796934Y-66398066D01*
X105787048Y-66387159D01*
X105778280Y-66375336D01*
X105770712Y-66362710D01*
X105764418Y-66349403D01*
X105759459Y-66335543D01*
X105755882Y-66321264D01*
X105753722Y-66306703D01*
X105753000Y-66292000D01*
X105753000Y-64642000D01*
X105753722Y-64627297D01*
X105755882Y-64612736D01*
X105759459Y-64598457D01*
X105764418Y-64584597D01*
X105770712Y-64571290D01*
X105778280Y-64558664D01*
X105787048Y-64546841D01*
X105796934Y-64535934D01*
X105807841Y-64526048D01*
X105819664Y-64517280D01*
X105832290Y-64509712D01*
X105845597Y-64503418D01*
X105859457Y-64498459D01*
X105873736Y-64494882D01*
X105888297Y-64492722D01*
X105903000Y-64492000D01*
X106203000Y-64492000D01*
X106217703Y-64492722D01*
X106217703Y-64492722D01*
G37*
D13*
X106053000Y-65467000D03*
D10*
G36*
X112821703Y-64492722D02*
G01*
X112836264Y-64494882D01*
X112850543Y-64498459D01*
X112864403Y-64503418D01*
X112877710Y-64509712D01*
X112890336Y-64517280D01*
X112902159Y-64526048D01*
X112913066Y-64535934D01*
X112922952Y-64546841D01*
X112931720Y-64558664D01*
X112939288Y-64571290D01*
X112945582Y-64584597D01*
X112950541Y-64598457D01*
X112954118Y-64612736D01*
X112956278Y-64627297D01*
X112957000Y-64642000D01*
X112957000Y-66292000D01*
X112956278Y-66306703D01*
X112954118Y-66321264D01*
X112950541Y-66335543D01*
X112945582Y-66349403D01*
X112939288Y-66362710D01*
X112931720Y-66375336D01*
X112922952Y-66387159D01*
X112913066Y-66398066D01*
X112902159Y-66407952D01*
X112890336Y-66416720D01*
X112877710Y-66424288D01*
X112864403Y-66430582D01*
X112850543Y-66435541D01*
X112836264Y-66439118D01*
X112821703Y-66441278D01*
X112807000Y-66442000D01*
X112507000Y-66442000D01*
X112492297Y-66441278D01*
X112477736Y-66439118D01*
X112463457Y-66435541D01*
X112449597Y-66430582D01*
X112436290Y-66424288D01*
X112423664Y-66416720D01*
X112411841Y-66407952D01*
X112400934Y-66398066D01*
X112391048Y-66387159D01*
X112382280Y-66375336D01*
X112374712Y-66362710D01*
X112368418Y-66349403D01*
X112363459Y-66335543D01*
X112359882Y-66321264D01*
X112357722Y-66306703D01*
X112357000Y-66292000D01*
X112357000Y-64642000D01*
X112357722Y-64627297D01*
X112359882Y-64612736D01*
X112363459Y-64598457D01*
X112368418Y-64584597D01*
X112374712Y-64571290D01*
X112382280Y-64558664D01*
X112391048Y-64546841D01*
X112400934Y-64535934D01*
X112411841Y-64526048D01*
X112423664Y-64517280D01*
X112436290Y-64509712D01*
X112449597Y-64503418D01*
X112463457Y-64498459D01*
X112477736Y-64494882D01*
X112492297Y-64492722D01*
X112507000Y-64492000D01*
X112807000Y-64492000D01*
X112821703Y-64492722D01*
X112821703Y-64492722D01*
G37*
D13*
X112657000Y-65467000D03*
D10*
G36*
X111551703Y-64492722D02*
G01*
X111566264Y-64494882D01*
X111580543Y-64498459D01*
X111594403Y-64503418D01*
X111607710Y-64509712D01*
X111620336Y-64517280D01*
X111632159Y-64526048D01*
X111643066Y-64535934D01*
X111652952Y-64546841D01*
X111661720Y-64558664D01*
X111669288Y-64571290D01*
X111675582Y-64584597D01*
X111680541Y-64598457D01*
X111684118Y-64612736D01*
X111686278Y-64627297D01*
X111687000Y-64642000D01*
X111687000Y-66292000D01*
X111686278Y-66306703D01*
X111684118Y-66321264D01*
X111680541Y-66335543D01*
X111675582Y-66349403D01*
X111669288Y-66362710D01*
X111661720Y-66375336D01*
X111652952Y-66387159D01*
X111643066Y-66398066D01*
X111632159Y-66407952D01*
X111620336Y-66416720D01*
X111607710Y-66424288D01*
X111594403Y-66430582D01*
X111580543Y-66435541D01*
X111566264Y-66439118D01*
X111551703Y-66441278D01*
X111537000Y-66442000D01*
X111237000Y-66442000D01*
X111222297Y-66441278D01*
X111207736Y-66439118D01*
X111193457Y-66435541D01*
X111179597Y-66430582D01*
X111166290Y-66424288D01*
X111153664Y-66416720D01*
X111141841Y-66407952D01*
X111130934Y-66398066D01*
X111121048Y-66387159D01*
X111112280Y-66375336D01*
X111104712Y-66362710D01*
X111098418Y-66349403D01*
X111093459Y-66335543D01*
X111089882Y-66321264D01*
X111087722Y-66306703D01*
X111087000Y-66292000D01*
X111087000Y-64642000D01*
X111087722Y-64627297D01*
X111089882Y-64612736D01*
X111093459Y-64598457D01*
X111098418Y-64584597D01*
X111104712Y-64571290D01*
X111112280Y-64558664D01*
X111121048Y-64546841D01*
X111130934Y-64535934D01*
X111141841Y-64526048D01*
X111153664Y-64517280D01*
X111166290Y-64509712D01*
X111179597Y-64503418D01*
X111193457Y-64498459D01*
X111207736Y-64494882D01*
X111222297Y-64492722D01*
X111237000Y-64492000D01*
X111537000Y-64492000D01*
X111551703Y-64492722D01*
X111551703Y-64492722D01*
G37*
D13*
X111387000Y-65467000D03*
D10*
G36*
X110281703Y-64492722D02*
G01*
X110296264Y-64494882D01*
X110310543Y-64498459D01*
X110324403Y-64503418D01*
X110337710Y-64509712D01*
X110350336Y-64517280D01*
X110362159Y-64526048D01*
X110373066Y-64535934D01*
X110382952Y-64546841D01*
X110391720Y-64558664D01*
X110399288Y-64571290D01*
X110405582Y-64584597D01*
X110410541Y-64598457D01*
X110414118Y-64612736D01*
X110416278Y-64627297D01*
X110417000Y-64642000D01*
X110417000Y-66292000D01*
X110416278Y-66306703D01*
X110414118Y-66321264D01*
X110410541Y-66335543D01*
X110405582Y-66349403D01*
X110399288Y-66362710D01*
X110391720Y-66375336D01*
X110382952Y-66387159D01*
X110373066Y-66398066D01*
X110362159Y-66407952D01*
X110350336Y-66416720D01*
X110337710Y-66424288D01*
X110324403Y-66430582D01*
X110310543Y-66435541D01*
X110296264Y-66439118D01*
X110281703Y-66441278D01*
X110267000Y-66442000D01*
X109967000Y-66442000D01*
X109952297Y-66441278D01*
X109937736Y-66439118D01*
X109923457Y-66435541D01*
X109909597Y-66430582D01*
X109896290Y-66424288D01*
X109883664Y-66416720D01*
X109871841Y-66407952D01*
X109860934Y-66398066D01*
X109851048Y-66387159D01*
X109842280Y-66375336D01*
X109834712Y-66362710D01*
X109828418Y-66349403D01*
X109823459Y-66335543D01*
X109819882Y-66321264D01*
X109817722Y-66306703D01*
X109817000Y-66292000D01*
X109817000Y-64642000D01*
X109817722Y-64627297D01*
X109819882Y-64612736D01*
X109823459Y-64598457D01*
X109828418Y-64584597D01*
X109834712Y-64571290D01*
X109842280Y-64558664D01*
X109851048Y-64546841D01*
X109860934Y-64535934D01*
X109871841Y-64526048D01*
X109883664Y-64517280D01*
X109896290Y-64509712D01*
X109909597Y-64503418D01*
X109923457Y-64498459D01*
X109937736Y-64494882D01*
X109952297Y-64492722D01*
X109967000Y-64492000D01*
X110267000Y-64492000D01*
X110281703Y-64492722D01*
X110281703Y-64492722D01*
G37*
D13*
X110117000Y-65467000D03*
D10*
G36*
X109011703Y-64492722D02*
G01*
X109026264Y-64494882D01*
X109040543Y-64498459D01*
X109054403Y-64503418D01*
X109067710Y-64509712D01*
X109080336Y-64517280D01*
X109092159Y-64526048D01*
X109103066Y-64535934D01*
X109112952Y-64546841D01*
X109121720Y-64558664D01*
X109129288Y-64571290D01*
X109135582Y-64584597D01*
X109140541Y-64598457D01*
X109144118Y-64612736D01*
X109146278Y-64627297D01*
X109147000Y-64642000D01*
X109147000Y-66292000D01*
X109146278Y-66306703D01*
X109144118Y-66321264D01*
X109140541Y-66335543D01*
X109135582Y-66349403D01*
X109129288Y-66362710D01*
X109121720Y-66375336D01*
X109112952Y-66387159D01*
X109103066Y-66398066D01*
X109092159Y-66407952D01*
X109080336Y-66416720D01*
X109067710Y-66424288D01*
X109054403Y-66430582D01*
X109040543Y-66435541D01*
X109026264Y-66439118D01*
X109011703Y-66441278D01*
X108997000Y-66442000D01*
X108697000Y-66442000D01*
X108682297Y-66441278D01*
X108667736Y-66439118D01*
X108653457Y-66435541D01*
X108639597Y-66430582D01*
X108626290Y-66424288D01*
X108613664Y-66416720D01*
X108601841Y-66407952D01*
X108590934Y-66398066D01*
X108581048Y-66387159D01*
X108572280Y-66375336D01*
X108564712Y-66362710D01*
X108558418Y-66349403D01*
X108553459Y-66335543D01*
X108549882Y-66321264D01*
X108547722Y-66306703D01*
X108547000Y-66292000D01*
X108547000Y-64642000D01*
X108547722Y-64627297D01*
X108549882Y-64612736D01*
X108553459Y-64598457D01*
X108558418Y-64584597D01*
X108564712Y-64571290D01*
X108572280Y-64558664D01*
X108581048Y-64546841D01*
X108590934Y-64535934D01*
X108601841Y-64526048D01*
X108613664Y-64517280D01*
X108626290Y-64509712D01*
X108639597Y-64503418D01*
X108653457Y-64498459D01*
X108667736Y-64494882D01*
X108682297Y-64492722D01*
X108697000Y-64492000D01*
X108997000Y-64492000D01*
X109011703Y-64492722D01*
X109011703Y-64492722D01*
G37*
D13*
X108847000Y-65467000D03*
D10*
G36*
X109011703Y-59542722D02*
G01*
X109026264Y-59544882D01*
X109040543Y-59548459D01*
X109054403Y-59553418D01*
X109067710Y-59559712D01*
X109080336Y-59567280D01*
X109092159Y-59576048D01*
X109103066Y-59585934D01*
X109112952Y-59596841D01*
X109121720Y-59608664D01*
X109129288Y-59621290D01*
X109135582Y-59634597D01*
X109140541Y-59648457D01*
X109144118Y-59662736D01*
X109146278Y-59677297D01*
X109147000Y-59692000D01*
X109147000Y-61342000D01*
X109146278Y-61356703D01*
X109144118Y-61371264D01*
X109140541Y-61385543D01*
X109135582Y-61399403D01*
X109129288Y-61412710D01*
X109121720Y-61425336D01*
X109112952Y-61437159D01*
X109103066Y-61448066D01*
X109092159Y-61457952D01*
X109080336Y-61466720D01*
X109067710Y-61474288D01*
X109054403Y-61480582D01*
X109040543Y-61485541D01*
X109026264Y-61489118D01*
X109011703Y-61491278D01*
X108997000Y-61492000D01*
X108697000Y-61492000D01*
X108682297Y-61491278D01*
X108667736Y-61489118D01*
X108653457Y-61485541D01*
X108639597Y-61480582D01*
X108626290Y-61474288D01*
X108613664Y-61466720D01*
X108601841Y-61457952D01*
X108590934Y-61448066D01*
X108581048Y-61437159D01*
X108572280Y-61425336D01*
X108564712Y-61412710D01*
X108558418Y-61399403D01*
X108553459Y-61385543D01*
X108549882Y-61371264D01*
X108547722Y-61356703D01*
X108547000Y-61342000D01*
X108547000Y-59692000D01*
X108547722Y-59677297D01*
X108549882Y-59662736D01*
X108553459Y-59648457D01*
X108558418Y-59634597D01*
X108564712Y-59621290D01*
X108572280Y-59608664D01*
X108581048Y-59596841D01*
X108590934Y-59585934D01*
X108601841Y-59576048D01*
X108613664Y-59567280D01*
X108626290Y-59559712D01*
X108639597Y-59553418D01*
X108653457Y-59548459D01*
X108667736Y-59544882D01*
X108682297Y-59542722D01*
X108697000Y-59542000D01*
X108997000Y-59542000D01*
X109011703Y-59542722D01*
X109011703Y-59542722D01*
G37*
D13*
X108847000Y-60517000D03*
D10*
G36*
X110281703Y-59542722D02*
G01*
X110296264Y-59544882D01*
X110310543Y-59548459D01*
X110324403Y-59553418D01*
X110337710Y-59559712D01*
X110350336Y-59567280D01*
X110362159Y-59576048D01*
X110373066Y-59585934D01*
X110382952Y-59596841D01*
X110391720Y-59608664D01*
X110399288Y-59621290D01*
X110405582Y-59634597D01*
X110410541Y-59648457D01*
X110414118Y-59662736D01*
X110416278Y-59677297D01*
X110417000Y-59692000D01*
X110417000Y-61342000D01*
X110416278Y-61356703D01*
X110414118Y-61371264D01*
X110410541Y-61385543D01*
X110405582Y-61399403D01*
X110399288Y-61412710D01*
X110391720Y-61425336D01*
X110382952Y-61437159D01*
X110373066Y-61448066D01*
X110362159Y-61457952D01*
X110350336Y-61466720D01*
X110337710Y-61474288D01*
X110324403Y-61480582D01*
X110310543Y-61485541D01*
X110296264Y-61489118D01*
X110281703Y-61491278D01*
X110267000Y-61492000D01*
X109967000Y-61492000D01*
X109952297Y-61491278D01*
X109937736Y-61489118D01*
X109923457Y-61485541D01*
X109909597Y-61480582D01*
X109896290Y-61474288D01*
X109883664Y-61466720D01*
X109871841Y-61457952D01*
X109860934Y-61448066D01*
X109851048Y-61437159D01*
X109842280Y-61425336D01*
X109834712Y-61412710D01*
X109828418Y-61399403D01*
X109823459Y-61385543D01*
X109819882Y-61371264D01*
X109817722Y-61356703D01*
X109817000Y-61342000D01*
X109817000Y-59692000D01*
X109817722Y-59677297D01*
X109819882Y-59662736D01*
X109823459Y-59648457D01*
X109828418Y-59634597D01*
X109834712Y-59621290D01*
X109842280Y-59608664D01*
X109851048Y-59596841D01*
X109860934Y-59585934D01*
X109871841Y-59576048D01*
X109883664Y-59567280D01*
X109896290Y-59559712D01*
X109909597Y-59553418D01*
X109923457Y-59548459D01*
X109937736Y-59544882D01*
X109952297Y-59542722D01*
X109967000Y-59542000D01*
X110267000Y-59542000D01*
X110281703Y-59542722D01*
X110281703Y-59542722D01*
G37*
D13*
X110117000Y-60517000D03*
D10*
G36*
X111551703Y-59542722D02*
G01*
X111566264Y-59544882D01*
X111580543Y-59548459D01*
X111594403Y-59553418D01*
X111607710Y-59559712D01*
X111620336Y-59567280D01*
X111632159Y-59576048D01*
X111643066Y-59585934D01*
X111652952Y-59596841D01*
X111661720Y-59608664D01*
X111669288Y-59621290D01*
X111675582Y-59634597D01*
X111680541Y-59648457D01*
X111684118Y-59662736D01*
X111686278Y-59677297D01*
X111687000Y-59692000D01*
X111687000Y-61342000D01*
X111686278Y-61356703D01*
X111684118Y-61371264D01*
X111680541Y-61385543D01*
X111675582Y-61399403D01*
X111669288Y-61412710D01*
X111661720Y-61425336D01*
X111652952Y-61437159D01*
X111643066Y-61448066D01*
X111632159Y-61457952D01*
X111620336Y-61466720D01*
X111607710Y-61474288D01*
X111594403Y-61480582D01*
X111580543Y-61485541D01*
X111566264Y-61489118D01*
X111551703Y-61491278D01*
X111537000Y-61492000D01*
X111237000Y-61492000D01*
X111222297Y-61491278D01*
X111207736Y-61489118D01*
X111193457Y-61485541D01*
X111179597Y-61480582D01*
X111166290Y-61474288D01*
X111153664Y-61466720D01*
X111141841Y-61457952D01*
X111130934Y-61448066D01*
X111121048Y-61437159D01*
X111112280Y-61425336D01*
X111104712Y-61412710D01*
X111098418Y-61399403D01*
X111093459Y-61385543D01*
X111089882Y-61371264D01*
X111087722Y-61356703D01*
X111087000Y-61342000D01*
X111087000Y-59692000D01*
X111087722Y-59677297D01*
X111089882Y-59662736D01*
X111093459Y-59648457D01*
X111098418Y-59634597D01*
X111104712Y-59621290D01*
X111112280Y-59608664D01*
X111121048Y-59596841D01*
X111130934Y-59585934D01*
X111141841Y-59576048D01*
X111153664Y-59567280D01*
X111166290Y-59559712D01*
X111179597Y-59553418D01*
X111193457Y-59548459D01*
X111207736Y-59544882D01*
X111222297Y-59542722D01*
X111237000Y-59542000D01*
X111537000Y-59542000D01*
X111551703Y-59542722D01*
X111551703Y-59542722D01*
G37*
D13*
X111387000Y-60517000D03*
D10*
G36*
X112821703Y-59542722D02*
G01*
X112836264Y-59544882D01*
X112850543Y-59548459D01*
X112864403Y-59553418D01*
X112877710Y-59559712D01*
X112890336Y-59567280D01*
X112902159Y-59576048D01*
X112913066Y-59585934D01*
X112922952Y-59596841D01*
X112931720Y-59608664D01*
X112939288Y-59621290D01*
X112945582Y-59634597D01*
X112950541Y-59648457D01*
X112954118Y-59662736D01*
X112956278Y-59677297D01*
X112957000Y-59692000D01*
X112957000Y-61342000D01*
X112956278Y-61356703D01*
X112954118Y-61371264D01*
X112950541Y-61385543D01*
X112945582Y-61399403D01*
X112939288Y-61412710D01*
X112931720Y-61425336D01*
X112922952Y-61437159D01*
X112913066Y-61448066D01*
X112902159Y-61457952D01*
X112890336Y-61466720D01*
X112877710Y-61474288D01*
X112864403Y-61480582D01*
X112850543Y-61485541D01*
X112836264Y-61489118D01*
X112821703Y-61491278D01*
X112807000Y-61492000D01*
X112507000Y-61492000D01*
X112492297Y-61491278D01*
X112477736Y-61489118D01*
X112463457Y-61485541D01*
X112449597Y-61480582D01*
X112436290Y-61474288D01*
X112423664Y-61466720D01*
X112411841Y-61457952D01*
X112400934Y-61448066D01*
X112391048Y-61437159D01*
X112382280Y-61425336D01*
X112374712Y-61412710D01*
X112368418Y-61399403D01*
X112363459Y-61385543D01*
X112359882Y-61371264D01*
X112357722Y-61356703D01*
X112357000Y-61342000D01*
X112357000Y-59692000D01*
X112357722Y-59677297D01*
X112359882Y-59662736D01*
X112363459Y-59648457D01*
X112368418Y-59634597D01*
X112374712Y-59621290D01*
X112382280Y-59608664D01*
X112391048Y-59596841D01*
X112400934Y-59585934D01*
X112411841Y-59576048D01*
X112423664Y-59567280D01*
X112436290Y-59559712D01*
X112449597Y-59553418D01*
X112463457Y-59548459D01*
X112477736Y-59544882D01*
X112492297Y-59542722D01*
X112507000Y-59542000D01*
X112807000Y-59542000D01*
X112821703Y-59542722D01*
X112821703Y-59542722D01*
G37*
D13*
X112657000Y-60517000D03*
M02*
