G04 #@! TF.GenerationSoftware,KiCad,Pcbnew,(5.1.4-0-10_14)*
G04 #@! TF.CreationDate,2020-12-31T20:51:25-07:00*
G04 #@! TF.ProjectId,Moisture-Sensor,4d6f6973-7475-4726-952d-53656e736f72,rev?*
G04 #@! TF.SameCoordinates,Original*
G04 #@! TF.FileFunction,Soldermask,Top*
G04 #@! TF.FilePolarity,Negative*
%FSLAX46Y46*%
G04 Gerber Fmt 4.6, Leading zero omitted, Abs format (unit mm)*
G04 Created by KiCad (PCBNEW (5.1.4-0-10_14)) date 2020-12-31 20:51:25*
%MOMM*%
%LPD*%
G04 APERTURE LIST*
%ADD10C,0.100000*%
G04 APERTURE END LIST*
D10*
G36*
X117569085Y-71123975D02*
G01*
X117924143Y-71271045D01*
X117924145Y-71271046D01*
X118243690Y-71484559D01*
X118515441Y-71756310D01*
X118728954Y-72075855D01*
X118728955Y-72075857D01*
X118876025Y-72430915D01*
X118951000Y-72807842D01*
X118951000Y-73192158D01*
X118876025Y-73569085D01*
X118728955Y-73924143D01*
X118728954Y-73924145D01*
X118515441Y-74243690D01*
X118243690Y-74515441D01*
X117924145Y-74728954D01*
X117924144Y-74728955D01*
X117924143Y-74728955D01*
X117569085Y-74876025D01*
X117192158Y-74951000D01*
X116807842Y-74951000D01*
X116430915Y-74876025D01*
X116075857Y-74728955D01*
X116075856Y-74728955D01*
X116075855Y-74728954D01*
X115756310Y-74515441D01*
X115484559Y-74243690D01*
X115271046Y-73924145D01*
X115271045Y-73924143D01*
X115123975Y-73569085D01*
X115049000Y-73192158D01*
X115049000Y-72807842D01*
X115123975Y-72430915D01*
X115271045Y-72075857D01*
X115271046Y-72075855D01*
X115484559Y-71756310D01*
X115756310Y-71484559D01*
X116075855Y-71271046D01*
X116075857Y-71271045D01*
X116430915Y-71123975D01*
X116807842Y-71049000D01*
X117192158Y-71049000D01*
X117569085Y-71123975D01*
X117569085Y-71123975D01*
G37*
G36*
X103569085Y-71123975D02*
G01*
X103924143Y-71271045D01*
X103924145Y-71271046D01*
X104243690Y-71484559D01*
X104515441Y-71756310D01*
X104728954Y-72075855D01*
X104728955Y-72075857D01*
X104876025Y-72430915D01*
X104951000Y-72807842D01*
X104951000Y-73192158D01*
X104876025Y-73569085D01*
X104728955Y-73924143D01*
X104728954Y-73924145D01*
X104515441Y-74243690D01*
X104243690Y-74515441D01*
X103924145Y-74728954D01*
X103924144Y-74728955D01*
X103924143Y-74728955D01*
X103569085Y-74876025D01*
X103192158Y-74951000D01*
X102807842Y-74951000D01*
X102430915Y-74876025D01*
X102075857Y-74728955D01*
X102075856Y-74728955D01*
X102075855Y-74728954D01*
X101756310Y-74515441D01*
X101484559Y-74243690D01*
X101271046Y-73924145D01*
X101271045Y-73924143D01*
X101123975Y-73569085D01*
X101049000Y-73192158D01*
X101049000Y-72807842D01*
X101123975Y-72430915D01*
X101271045Y-72075857D01*
X101271046Y-72075855D01*
X101484559Y-71756310D01*
X101756310Y-71484559D01*
X102075855Y-71271046D01*
X102075857Y-71271045D01*
X102430915Y-71123975D01*
X102807842Y-71049000D01*
X103192158Y-71049000D01*
X103569085Y-71123975D01*
X103569085Y-71123975D01*
G37*
G36*
X109253000Y-70501000D02*
G01*
X108251000Y-70501000D01*
X108251000Y-69199000D01*
X109253000Y-69199000D01*
X109253000Y-70501000D01*
X109253000Y-70501000D01*
G37*
G36*
X112553000Y-70501000D02*
G01*
X111551000Y-70501000D01*
X111551000Y-69199000D01*
X112553000Y-69199000D01*
X112553000Y-70501000D01*
X112553000Y-70501000D01*
G37*
G36*
X106453499Y-69328445D02*
G01*
X106490995Y-69339820D01*
X106525554Y-69358292D01*
X106555847Y-69383153D01*
X106580708Y-69413446D01*
X106599180Y-69448005D01*
X106610555Y-69485501D01*
X106615000Y-69530638D01*
X106615000Y-70169362D01*
X106610555Y-70214499D01*
X106599180Y-70251995D01*
X106580708Y-70286554D01*
X106555847Y-70316847D01*
X106525554Y-70341708D01*
X106490995Y-70360180D01*
X106453499Y-70371555D01*
X106408362Y-70376000D01*
X105669638Y-70376000D01*
X105624501Y-70371555D01*
X105587005Y-70360180D01*
X105552446Y-70341708D01*
X105522153Y-70316847D01*
X105497292Y-70286554D01*
X105478820Y-70251995D01*
X105467445Y-70214499D01*
X105463000Y-70169362D01*
X105463000Y-69530638D01*
X105467445Y-69485501D01*
X105478820Y-69448005D01*
X105497292Y-69413446D01*
X105522153Y-69383153D01*
X105552446Y-69358292D01*
X105587005Y-69339820D01*
X105624501Y-69328445D01*
X105669638Y-69324000D01*
X106408362Y-69324000D01*
X106453499Y-69328445D01*
X106453499Y-69328445D01*
G37*
G36*
X104703499Y-69328445D02*
G01*
X104740995Y-69339820D01*
X104775554Y-69358292D01*
X104805847Y-69383153D01*
X104830708Y-69413446D01*
X104849180Y-69448005D01*
X104860555Y-69485501D01*
X104865000Y-69530638D01*
X104865000Y-70169362D01*
X104860555Y-70214499D01*
X104849180Y-70251995D01*
X104830708Y-70286554D01*
X104805847Y-70316847D01*
X104775554Y-70341708D01*
X104740995Y-70360180D01*
X104703499Y-70371555D01*
X104658362Y-70376000D01*
X103919638Y-70376000D01*
X103874501Y-70371555D01*
X103837005Y-70360180D01*
X103802446Y-70341708D01*
X103772153Y-70316847D01*
X103747292Y-70286554D01*
X103728820Y-70251995D01*
X103717445Y-70214499D01*
X103713000Y-70169362D01*
X103713000Y-69530638D01*
X103717445Y-69485501D01*
X103728820Y-69448005D01*
X103747292Y-69413446D01*
X103772153Y-69383153D01*
X103802446Y-69358292D01*
X103837005Y-69339820D01*
X103874501Y-69328445D01*
X103919638Y-69324000D01*
X104658362Y-69324000D01*
X104703499Y-69328445D01*
X104703499Y-69328445D01*
G37*
G36*
X104703499Y-67042445D02*
G01*
X104740995Y-67053820D01*
X104775554Y-67072292D01*
X104805847Y-67097153D01*
X104830708Y-67127446D01*
X104849180Y-67162005D01*
X104860555Y-67199501D01*
X104865000Y-67244638D01*
X104865000Y-67883362D01*
X104860555Y-67928499D01*
X104849180Y-67965995D01*
X104830708Y-68000554D01*
X104805847Y-68030847D01*
X104775554Y-68055708D01*
X104740995Y-68074180D01*
X104703499Y-68085555D01*
X104658362Y-68090000D01*
X103919638Y-68090000D01*
X103874501Y-68085555D01*
X103837005Y-68074180D01*
X103802446Y-68055708D01*
X103772153Y-68030847D01*
X103747292Y-68000554D01*
X103728820Y-67965995D01*
X103717445Y-67928499D01*
X103713000Y-67883362D01*
X103713000Y-67244638D01*
X103717445Y-67199501D01*
X103728820Y-67162005D01*
X103747292Y-67127446D01*
X103772153Y-67097153D01*
X103802446Y-67072292D01*
X103837005Y-67053820D01*
X103874501Y-67042445D01*
X103919638Y-67038000D01*
X104658362Y-67038000D01*
X104703499Y-67042445D01*
X104703499Y-67042445D01*
G37*
G36*
X109241499Y-67042445D02*
G01*
X109278995Y-67053820D01*
X109313554Y-67072292D01*
X109343847Y-67097153D01*
X109368708Y-67127446D01*
X109387180Y-67162005D01*
X109398555Y-67199501D01*
X109403000Y-67244638D01*
X109403000Y-67883362D01*
X109398555Y-67928499D01*
X109387180Y-67965995D01*
X109368708Y-68000554D01*
X109343847Y-68030847D01*
X109313554Y-68055708D01*
X109278995Y-68074180D01*
X109241499Y-68085555D01*
X109196362Y-68090000D01*
X108457638Y-68090000D01*
X108412501Y-68085555D01*
X108375005Y-68074180D01*
X108340446Y-68055708D01*
X108310153Y-68030847D01*
X108285292Y-68000554D01*
X108266820Y-67965995D01*
X108255445Y-67928499D01*
X108251000Y-67883362D01*
X108251000Y-67244638D01*
X108255445Y-67199501D01*
X108266820Y-67162005D01*
X108285292Y-67127446D01*
X108310153Y-67097153D01*
X108340446Y-67072292D01*
X108375005Y-67053820D01*
X108412501Y-67042445D01*
X108457638Y-67038000D01*
X109196362Y-67038000D01*
X109241499Y-67042445D01*
X109241499Y-67042445D01*
G37*
G36*
X106453499Y-67042445D02*
G01*
X106490995Y-67053820D01*
X106525554Y-67072292D01*
X106555847Y-67097153D01*
X106580708Y-67127446D01*
X106599180Y-67162005D01*
X106610555Y-67199501D01*
X106615000Y-67244638D01*
X106615000Y-67883362D01*
X106610555Y-67928499D01*
X106599180Y-67965995D01*
X106580708Y-68000554D01*
X106555847Y-68030847D01*
X106525554Y-68055708D01*
X106490995Y-68074180D01*
X106453499Y-68085555D01*
X106408362Y-68090000D01*
X105669638Y-68090000D01*
X105624501Y-68085555D01*
X105587005Y-68074180D01*
X105552446Y-68055708D01*
X105522153Y-68030847D01*
X105497292Y-68000554D01*
X105478820Y-67965995D01*
X105467445Y-67928499D01*
X105463000Y-67883362D01*
X105463000Y-67244638D01*
X105467445Y-67199501D01*
X105478820Y-67162005D01*
X105497292Y-67127446D01*
X105522153Y-67097153D01*
X105552446Y-67072292D01*
X105587005Y-67053820D01*
X105624501Y-67042445D01*
X105669638Y-67038000D01*
X106408362Y-67038000D01*
X106453499Y-67042445D01*
X106453499Y-67042445D01*
G37*
G36*
X110991499Y-67042445D02*
G01*
X111028995Y-67053820D01*
X111063554Y-67072292D01*
X111093847Y-67097153D01*
X111118708Y-67127446D01*
X111137180Y-67162005D01*
X111148555Y-67199501D01*
X111153000Y-67244638D01*
X111153000Y-67883362D01*
X111148555Y-67928499D01*
X111137180Y-67965995D01*
X111118708Y-68000554D01*
X111093847Y-68030847D01*
X111063554Y-68055708D01*
X111028995Y-68074180D01*
X110991499Y-68085555D01*
X110946362Y-68090000D01*
X110207638Y-68090000D01*
X110162501Y-68085555D01*
X110125005Y-68074180D01*
X110090446Y-68055708D01*
X110060153Y-68030847D01*
X110035292Y-68000554D01*
X110016820Y-67965995D01*
X110005445Y-67928499D01*
X110001000Y-67883362D01*
X110001000Y-67244638D01*
X110005445Y-67199501D01*
X110016820Y-67162005D01*
X110035292Y-67127446D01*
X110060153Y-67097153D01*
X110090446Y-67072292D01*
X110125005Y-67053820D01*
X110162501Y-67042445D01*
X110207638Y-67038000D01*
X110946362Y-67038000D01*
X110991499Y-67042445D01*
X110991499Y-67042445D01*
G37*
G36*
X112916928Y-64443764D02*
G01*
X112938009Y-64450160D01*
X112957445Y-64460548D01*
X112974476Y-64474524D01*
X112988452Y-64491555D01*
X112998840Y-64510991D01*
X113005236Y-64532072D01*
X113008000Y-64560140D01*
X113008000Y-66373860D01*
X113005236Y-66401928D01*
X112998840Y-66423009D01*
X112988452Y-66442445D01*
X112974476Y-66459476D01*
X112957445Y-66473452D01*
X112938009Y-66483840D01*
X112916928Y-66490236D01*
X112888860Y-66493000D01*
X112425140Y-66493000D01*
X112397072Y-66490236D01*
X112375991Y-66483840D01*
X112356555Y-66473452D01*
X112339524Y-66459476D01*
X112325548Y-66442445D01*
X112315160Y-66423009D01*
X112308764Y-66401928D01*
X112306000Y-66373860D01*
X112306000Y-64560140D01*
X112308764Y-64532072D01*
X112315160Y-64510991D01*
X112325548Y-64491555D01*
X112339524Y-64474524D01*
X112356555Y-64460548D01*
X112375991Y-64450160D01*
X112397072Y-64443764D01*
X112425140Y-64441000D01*
X112888860Y-64441000D01*
X112916928Y-64443764D01*
X112916928Y-64443764D01*
G37*
G36*
X111646928Y-64443764D02*
G01*
X111668009Y-64450160D01*
X111687445Y-64460548D01*
X111704476Y-64474524D01*
X111718452Y-64491555D01*
X111728840Y-64510991D01*
X111735236Y-64532072D01*
X111738000Y-64560140D01*
X111738000Y-66373860D01*
X111735236Y-66401928D01*
X111728840Y-66423009D01*
X111718452Y-66442445D01*
X111704476Y-66459476D01*
X111687445Y-66473452D01*
X111668009Y-66483840D01*
X111646928Y-66490236D01*
X111618860Y-66493000D01*
X111155140Y-66493000D01*
X111127072Y-66490236D01*
X111105991Y-66483840D01*
X111086555Y-66473452D01*
X111069524Y-66459476D01*
X111055548Y-66442445D01*
X111045160Y-66423009D01*
X111038764Y-66401928D01*
X111036000Y-66373860D01*
X111036000Y-64560140D01*
X111038764Y-64532072D01*
X111045160Y-64510991D01*
X111055548Y-64491555D01*
X111069524Y-64474524D01*
X111086555Y-64460548D01*
X111105991Y-64450160D01*
X111127072Y-64443764D01*
X111155140Y-64441000D01*
X111618860Y-64441000D01*
X111646928Y-64443764D01*
X111646928Y-64443764D01*
G37*
G36*
X110376928Y-64443764D02*
G01*
X110398009Y-64450160D01*
X110417445Y-64460548D01*
X110434476Y-64474524D01*
X110448452Y-64491555D01*
X110458840Y-64510991D01*
X110465236Y-64532072D01*
X110468000Y-64560140D01*
X110468000Y-66373860D01*
X110465236Y-66401928D01*
X110458840Y-66423009D01*
X110448452Y-66442445D01*
X110434476Y-66459476D01*
X110417445Y-66473452D01*
X110398009Y-66483840D01*
X110376928Y-66490236D01*
X110348860Y-66493000D01*
X109885140Y-66493000D01*
X109857072Y-66490236D01*
X109835991Y-66483840D01*
X109816555Y-66473452D01*
X109799524Y-66459476D01*
X109785548Y-66442445D01*
X109775160Y-66423009D01*
X109768764Y-66401928D01*
X109766000Y-66373860D01*
X109766000Y-64560140D01*
X109768764Y-64532072D01*
X109775160Y-64510991D01*
X109785548Y-64491555D01*
X109799524Y-64474524D01*
X109816555Y-64460548D01*
X109835991Y-64450160D01*
X109857072Y-64443764D01*
X109885140Y-64441000D01*
X110348860Y-64441000D01*
X110376928Y-64443764D01*
X110376928Y-64443764D01*
G37*
G36*
X109106928Y-64443764D02*
G01*
X109128009Y-64450160D01*
X109147445Y-64460548D01*
X109164476Y-64474524D01*
X109178452Y-64491555D01*
X109188840Y-64510991D01*
X109195236Y-64532072D01*
X109198000Y-64560140D01*
X109198000Y-66373860D01*
X109195236Y-66401928D01*
X109188840Y-66423009D01*
X109178452Y-66442445D01*
X109164476Y-66459476D01*
X109147445Y-66473452D01*
X109128009Y-66483840D01*
X109106928Y-66490236D01*
X109078860Y-66493000D01*
X108615140Y-66493000D01*
X108587072Y-66490236D01*
X108565991Y-66483840D01*
X108546555Y-66473452D01*
X108529524Y-66459476D01*
X108515548Y-66442445D01*
X108505160Y-66423009D01*
X108498764Y-66401928D01*
X108496000Y-66373860D01*
X108496000Y-64560140D01*
X108498764Y-64532072D01*
X108505160Y-64510991D01*
X108515548Y-64491555D01*
X108529524Y-64474524D01*
X108546555Y-64460548D01*
X108565991Y-64450160D01*
X108587072Y-64443764D01*
X108615140Y-64441000D01*
X109078860Y-64441000D01*
X109106928Y-64443764D01*
X109106928Y-64443764D01*
G37*
G36*
X106312928Y-64443764D02*
G01*
X106334009Y-64450160D01*
X106353445Y-64460548D01*
X106370476Y-64474524D01*
X106384452Y-64491555D01*
X106394840Y-64510991D01*
X106401236Y-64532072D01*
X106404000Y-64560140D01*
X106404000Y-66373860D01*
X106401236Y-66401928D01*
X106394840Y-66423009D01*
X106384452Y-66442445D01*
X106370476Y-66459476D01*
X106353445Y-66473452D01*
X106334009Y-66483840D01*
X106312928Y-66490236D01*
X106284860Y-66493000D01*
X105821140Y-66493000D01*
X105793072Y-66490236D01*
X105771991Y-66483840D01*
X105752555Y-66473452D01*
X105735524Y-66459476D01*
X105721548Y-66442445D01*
X105711160Y-66423009D01*
X105704764Y-66401928D01*
X105702000Y-66373860D01*
X105702000Y-64560140D01*
X105704764Y-64532072D01*
X105711160Y-64510991D01*
X105721548Y-64491555D01*
X105735524Y-64474524D01*
X105752555Y-64460548D01*
X105771991Y-64450160D01*
X105793072Y-64443764D01*
X105821140Y-64441000D01*
X106284860Y-64441000D01*
X106312928Y-64443764D01*
X106312928Y-64443764D01*
G37*
G36*
X105042928Y-64443764D02*
G01*
X105064009Y-64450160D01*
X105083445Y-64460548D01*
X105100476Y-64474524D01*
X105114452Y-64491555D01*
X105124840Y-64510991D01*
X105131236Y-64532072D01*
X105134000Y-64560140D01*
X105134000Y-66373860D01*
X105131236Y-66401928D01*
X105124840Y-66423009D01*
X105114452Y-66442445D01*
X105100476Y-66459476D01*
X105083445Y-66473452D01*
X105064009Y-66483840D01*
X105042928Y-66490236D01*
X105014860Y-66493000D01*
X104551140Y-66493000D01*
X104523072Y-66490236D01*
X104501991Y-66483840D01*
X104482555Y-66473452D01*
X104465524Y-66459476D01*
X104451548Y-66442445D01*
X104441160Y-66423009D01*
X104434764Y-66401928D01*
X104432000Y-66373860D01*
X104432000Y-64560140D01*
X104434764Y-64532072D01*
X104441160Y-64510991D01*
X104451548Y-64491555D01*
X104465524Y-64474524D01*
X104482555Y-64460548D01*
X104501991Y-64450160D01*
X104523072Y-64443764D01*
X104551140Y-64441000D01*
X105014860Y-64441000D01*
X105042928Y-64443764D01*
X105042928Y-64443764D01*
G37*
G36*
X103772928Y-64443764D02*
G01*
X103794009Y-64450160D01*
X103813445Y-64460548D01*
X103830476Y-64474524D01*
X103844452Y-64491555D01*
X103854840Y-64510991D01*
X103861236Y-64532072D01*
X103864000Y-64560140D01*
X103864000Y-66373860D01*
X103861236Y-66401928D01*
X103854840Y-66423009D01*
X103844452Y-66442445D01*
X103830476Y-66459476D01*
X103813445Y-66473452D01*
X103794009Y-66483840D01*
X103772928Y-66490236D01*
X103744860Y-66493000D01*
X103281140Y-66493000D01*
X103253072Y-66490236D01*
X103231991Y-66483840D01*
X103212555Y-66473452D01*
X103195524Y-66459476D01*
X103181548Y-66442445D01*
X103171160Y-66423009D01*
X103164764Y-66401928D01*
X103162000Y-66373860D01*
X103162000Y-64560140D01*
X103164764Y-64532072D01*
X103171160Y-64510991D01*
X103181548Y-64491555D01*
X103195524Y-64474524D01*
X103212555Y-64460548D01*
X103231991Y-64450160D01*
X103253072Y-64443764D01*
X103281140Y-64441000D01*
X103744860Y-64441000D01*
X103772928Y-64443764D01*
X103772928Y-64443764D01*
G37*
G36*
X102502928Y-64443764D02*
G01*
X102524009Y-64450160D01*
X102543445Y-64460548D01*
X102560476Y-64474524D01*
X102574452Y-64491555D01*
X102584840Y-64510991D01*
X102591236Y-64532072D01*
X102594000Y-64560140D01*
X102594000Y-66373860D01*
X102591236Y-66401928D01*
X102584840Y-66423009D01*
X102574452Y-66442445D01*
X102560476Y-66459476D01*
X102543445Y-66473452D01*
X102524009Y-66483840D01*
X102502928Y-66490236D01*
X102474860Y-66493000D01*
X102011140Y-66493000D01*
X101983072Y-66490236D01*
X101961991Y-66483840D01*
X101942555Y-66473452D01*
X101925524Y-66459476D01*
X101911548Y-66442445D01*
X101901160Y-66423009D01*
X101894764Y-66401928D01*
X101892000Y-66373860D01*
X101892000Y-64560140D01*
X101894764Y-64532072D01*
X101901160Y-64510991D01*
X101911548Y-64491555D01*
X101925524Y-64474524D01*
X101942555Y-64460548D01*
X101961991Y-64450160D01*
X101983072Y-64443764D01*
X102011140Y-64441000D01*
X102474860Y-64441000D01*
X102502928Y-64443764D01*
X102502928Y-64443764D01*
G37*
G36*
X116613499Y-65213645D02*
G01*
X116650995Y-65225020D01*
X116685554Y-65243492D01*
X116715847Y-65268353D01*
X116740708Y-65298646D01*
X116759180Y-65333205D01*
X116770555Y-65370701D01*
X116775000Y-65415838D01*
X116775000Y-66054562D01*
X116770555Y-66099699D01*
X116759180Y-66137195D01*
X116740708Y-66171754D01*
X116715847Y-66202047D01*
X116685554Y-66226908D01*
X116650995Y-66245380D01*
X116613499Y-66256755D01*
X116568362Y-66261200D01*
X115829638Y-66261200D01*
X115784501Y-66256755D01*
X115747005Y-66245380D01*
X115712446Y-66226908D01*
X115682153Y-66202047D01*
X115657292Y-66171754D01*
X115638820Y-66137195D01*
X115627445Y-66099699D01*
X115623000Y-66054562D01*
X115623000Y-65415838D01*
X115627445Y-65370701D01*
X115638820Y-65333205D01*
X115657292Y-65298646D01*
X115682153Y-65268353D01*
X115712446Y-65243492D01*
X115747005Y-65225020D01*
X115784501Y-65213645D01*
X115829638Y-65209200D01*
X116568362Y-65209200D01*
X116613499Y-65213645D01*
X116613499Y-65213645D01*
G37*
G36*
X114863499Y-65213645D02*
G01*
X114900995Y-65225020D01*
X114935554Y-65243492D01*
X114965847Y-65268353D01*
X114990708Y-65298646D01*
X115009180Y-65333205D01*
X115020555Y-65370701D01*
X115025000Y-65415838D01*
X115025000Y-66054562D01*
X115020555Y-66099699D01*
X115009180Y-66137195D01*
X114990708Y-66171754D01*
X114965847Y-66202047D01*
X114935554Y-66226908D01*
X114900995Y-66245380D01*
X114863499Y-66256755D01*
X114818362Y-66261200D01*
X114079638Y-66261200D01*
X114034501Y-66256755D01*
X113997005Y-66245380D01*
X113962446Y-66226908D01*
X113932153Y-66202047D01*
X113907292Y-66171754D01*
X113888820Y-66137195D01*
X113877445Y-66099699D01*
X113873000Y-66054562D01*
X113873000Y-65415838D01*
X113877445Y-65370701D01*
X113888820Y-65333205D01*
X113907292Y-65298646D01*
X113932153Y-65268353D01*
X113962446Y-65243492D01*
X113997005Y-65225020D01*
X114034501Y-65213645D01*
X114079638Y-65209200D01*
X114818362Y-65209200D01*
X114863499Y-65213645D01*
X114863499Y-65213645D01*
G37*
G36*
X114863499Y-63384845D02*
G01*
X114900995Y-63396220D01*
X114935554Y-63414692D01*
X114965847Y-63439553D01*
X114990708Y-63469846D01*
X115009180Y-63504405D01*
X115020555Y-63541901D01*
X115025000Y-63587038D01*
X115025000Y-64225762D01*
X115020555Y-64270899D01*
X115009180Y-64308395D01*
X114990708Y-64342954D01*
X114965847Y-64373247D01*
X114935554Y-64398108D01*
X114900995Y-64416580D01*
X114863499Y-64427955D01*
X114818362Y-64432400D01*
X114079638Y-64432400D01*
X114034501Y-64427955D01*
X113997005Y-64416580D01*
X113962446Y-64398108D01*
X113932153Y-64373247D01*
X113907292Y-64342954D01*
X113888820Y-64308395D01*
X113877445Y-64270899D01*
X113873000Y-64225762D01*
X113873000Y-63587038D01*
X113877445Y-63541901D01*
X113888820Y-63504405D01*
X113907292Y-63469846D01*
X113932153Y-63439553D01*
X113962446Y-63414692D01*
X113997005Y-63396220D01*
X114034501Y-63384845D01*
X114079638Y-63380400D01*
X114818362Y-63380400D01*
X114863499Y-63384845D01*
X114863499Y-63384845D01*
G37*
G36*
X116613499Y-63384845D02*
G01*
X116650995Y-63396220D01*
X116685554Y-63414692D01*
X116715847Y-63439553D01*
X116740708Y-63469846D01*
X116759180Y-63504405D01*
X116770555Y-63541901D01*
X116775000Y-63587038D01*
X116775000Y-64225762D01*
X116770555Y-64270899D01*
X116759180Y-64308395D01*
X116740708Y-64342954D01*
X116715847Y-64373247D01*
X116685554Y-64398108D01*
X116650995Y-64416580D01*
X116613499Y-64427955D01*
X116568362Y-64432400D01*
X115829638Y-64432400D01*
X115784501Y-64427955D01*
X115747005Y-64416580D01*
X115712446Y-64398108D01*
X115682153Y-64373247D01*
X115657292Y-64342954D01*
X115638820Y-64308395D01*
X115627445Y-64270899D01*
X115623000Y-64225762D01*
X115623000Y-63587038D01*
X115627445Y-63541901D01*
X115638820Y-63504405D01*
X115657292Y-63469846D01*
X115682153Y-63439553D01*
X115712446Y-63414692D01*
X115747005Y-63396220D01*
X115784501Y-63384845D01*
X115829638Y-63380400D01*
X116568362Y-63380400D01*
X116613499Y-63384845D01*
X116613499Y-63384845D01*
G37*
G36*
X116613499Y-61556045D02*
G01*
X116650995Y-61567420D01*
X116685554Y-61585892D01*
X116715847Y-61610753D01*
X116740708Y-61641046D01*
X116759180Y-61675605D01*
X116770555Y-61713101D01*
X116775000Y-61758238D01*
X116775000Y-62396962D01*
X116770555Y-62442099D01*
X116759180Y-62479595D01*
X116740708Y-62514154D01*
X116715847Y-62544447D01*
X116685554Y-62569308D01*
X116650995Y-62587780D01*
X116613499Y-62599155D01*
X116568362Y-62603600D01*
X115829638Y-62603600D01*
X115784501Y-62599155D01*
X115747005Y-62587780D01*
X115712446Y-62569308D01*
X115682153Y-62544447D01*
X115657292Y-62514154D01*
X115638820Y-62479595D01*
X115627445Y-62442099D01*
X115623000Y-62396962D01*
X115623000Y-61758238D01*
X115627445Y-61713101D01*
X115638820Y-61675605D01*
X115657292Y-61641046D01*
X115682153Y-61610753D01*
X115712446Y-61585892D01*
X115747005Y-61567420D01*
X115784501Y-61556045D01*
X115829638Y-61551600D01*
X116568362Y-61551600D01*
X116613499Y-61556045D01*
X116613499Y-61556045D01*
G37*
G36*
X114863499Y-61556045D02*
G01*
X114900995Y-61567420D01*
X114935554Y-61585892D01*
X114965847Y-61610753D01*
X114990708Y-61641046D01*
X115009180Y-61675605D01*
X115020555Y-61713101D01*
X115025000Y-61758238D01*
X115025000Y-62396962D01*
X115020555Y-62442099D01*
X115009180Y-62479595D01*
X114990708Y-62514154D01*
X114965847Y-62544447D01*
X114935554Y-62569308D01*
X114900995Y-62587780D01*
X114863499Y-62599155D01*
X114818362Y-62603600D01*
X114079638Y-62603600D01*
X114034501Y-62599155D01*
X113997005Y-62587780D01*
X113962446Y-62569308D01*
X113932153Y-62544447D01*
X113907292Y-62514154D01*
X113888820Y-62479595D01*
X113877445Y-62442099D01*
X113873000Y-62396962D01*
X113873000Y-61758238D01*
X113877445Y-61713101D01*
X113888820Y-61675605D01*
X113907292Y-61641046D01*
X113932153Y-61610753D01*
X113962446Y-61585892D01*
X113997005Y-61567420D01*
X114034501Y-61556045D01*
X114079638Y-61551600D01*
X114818362Y-61551600D01*
X114863499Y-61556045D01*
X114863499Y-61556045D01*
G37*
G36*
X110376928Y-59493764D02*
G01*
X110398009Y-59500160D01*
X110417445Y-59510548D01*
X110434476Y-59524524D01*
X110448452Y-59541555D01*
X110458840Y-59560991D01*
X110465236Y-59582072D01*
X110468000Y-59610140D01*
X110468000Y-61423860D01*
X110465236Y-61451928D01*
X110458840Y-61473009D01*
X110448452Y-61492445D01*
X110434476Y-61509476D01*
X110417445Y-61523452D01*
X110398009Y-61533840D01*
X110376928Y-61540236D01*
X110348860Y-61543000D01*
X109885140Y-61543000D01*
X109857072Y-61540236D01*
X109835991Y-61533840D01*
X109816555Y-61523452D01*
X109799524Y-61509476D01*
X109785548Y-61492445D01*
X109775160Y-61473009D01*
X109768764Y-61451928D01*
X109766000Y-61423860D01*
X109766000Y-59610140D01*
X109768764Y-59582072D01*
X109775160Y-59560991D01*
X109785548Y-59541555D01*
X109799524Y-59524524D01*
X109816555Y-59510548D01*
X109835991Y-59500160D01*
X109857072Y-59493764D01*
X109885140Y-59491000D01*
X110348860Y-59491000D01*
X110376928Y-59493764D01*
X110376928Y-59493764D01*
G37*
G36*
X109106928Y-59493764D02*
G01*
X109128009Y-59500160D01*
X109147445Y-59510548D01*
X109164476Y-59524524D01*
X109178452Y-59541555D01*
X109188840Y-59560991D01*
X109195236Y-59582072D01*
X109198000Y-59610140D01*
X109198000Y-61423860D01*
X109195236Y-61451928D01*
X109188840Y-61473009D01*
X109178452Y-61492445D01*
X109164476Y-61509476D01*
X109147445Y-61523452D01*
X109128009Y-61533840D01*
X109106928Y-61540236D01*
X109078860Y-61543000D01*
X108615140Y-61543000D01*
X108587072Y-61540236D01*
X108565991Y-61533840D01*
X108546555Y-61523452D01*
X108529524Y-61509476D01*
X108515548Y-61492445D01*
X108505160Y-61473009D01*
X108498764Y-61451928D01*
X108496000Y-61423860D01*
X108496000Y-59610140D01*
X108498764Y-59582072D01*
X108505160Y-59560991D01*
X108515548Y-59541555D01*
X108529524Y-59524524D01*
X108546555Y-59510548D01*
X108565991Y-59500160D01*
X108587072Y-59493764D01*
X108615140Y-59491000D01*
X109078860Y-59491000D01*
X109106928Y-59493764D01*
X109106928Y-59493764D01*
G37*
G36*
X112916928Y-59493764D02*
G01*
X112938009Y-59500160D01*
X112957445Y-59510548D01*
X112974476Y-59524524D01*
X112988452Y-59541555D01*
X112998840Y-59560991D01*
X113005236Y-59582072D01*
X113008000Y-59610140D01*
X113008000Y-61423860D01*
X113005236Y-61451928D01*
X112998840Y-61473009D01*
X112988452Y-61492445D01*
X112974476Y-61509476D01*
X112957445Y-61523452D01*
X112938009Y-61533840D01*
X112916928Y-61540236D01*
X112888860Y-61543000D01*
X112425140Y-61543000D01*
X112397072Y-61540236D01*
X112375991Y-61533840D01*
X112356555Y-61523452D01*
X112339524Y-61509476D01*
X112325548Y-61492445D01*
X112315160Y-61473009D01*
X112308764Y-61451928D01*
X112306000Y-61423860D01*
X112306000Y-59610140D01*
X112308764Y-59582072D01*
X112315160Y-59560991D01*
X112325548Y-59541555D01*
X112339524Y-59524524D01*
X112356555Y-59510548D01*
X112375991Y-59500160D01*
X112397072Y-59493764D01*
X112425140Y-59491000D01*
X112888860Y-59491000D01*
X112916928Y-59493764D01*
X112916928Y-59493764D01*
G37*
G36*
X111646928Y-59493764D02*
G01*
X111668009Y-59500160D01*
X111687445Y-59510548D01*
X111704476Y-59524524D01*
X111718452Y-59541555D01*
X111728840Y-59560991D01*
X111735236Y-59582072D01*
X111738000Y-59610140D01*
X111738000Y-61423860D01*
X111735236Y-61451928D01*
X111728840Y-61473009D01*
X111718452Y-61492445D01*
X111704476Y-61509476D01*
X111687445Y-61523452D01*
X111668009Y-61533840D01*
X111646928Y-61540236D01*
X111618860Y-61543000D01*
X111155140Y-61543000D01*
X111127072Y-61540236D01*
X111105991Y-61533840D01*
X111086555Y-61523452D01*
X111069524Y-61509476D01*
X111055548Y-61492445D01*
X111045160Y-61473009D01*
X111038764Y-61451928D01*
X111036000Y-61423860D01*
X111036000Y-59610140D01*
X111038764Y-59582072D01*
X111045160Y-59560991D01*
X111055548Y-59541555D01*
X111069524Y-59524524D01*
X111086555Y-59510548D01*
X111105991Y-59500160D01*
X111127072Y-59493764D01*
X111155140Y-59491000D01*
X111618860Y-59491000D01*
X111646928Y-59493764D01*
X111646928Y-59493764D01*
G37*
G36*
X102502928Y-59493764D02*
G01*
X102524009Y-59500160D01*
X102543445Y-59510548D01*
X102560476Y-59524524D01*
X102574452Y-59541555D01*
X102584840Y-59560991D01*
X102591236Y-59582072D01*
X102594000Y-59610140D01*
X102594000Y-61423860D01*
X102591236Y-61451928D01*
X102584840Y-61473009D01*
X102574452Y-61492445D01*
X102560476Y-61509476D01*
X102543445Y-61523452D01*
X102524009Y-61533840D01*
X102502928Y-61540236D01*
X102474860Y-61543000D01*
X102011140Y-61543000D01*
X101983072Y-61540236D01*
X101961991Y-61533840D01*
X101942555Y-61523452D01*
X101925524Y-61509476D01*
X101911548Y-61492445D01*
X101901160Y-61473009D01*
X101894764Y-61451928D01*
X101892000Y-61423860D01*
X101892000Y-59610140D01*
X101894764Y-59582072D01*
X101901160Y-59560991D01*
X101911548Y-59541555D01*
X101925524Y-59524524D01*
X101942555Y-59510548D01*
X101961991Y-59500160D01*
X101983072Y-59493764D01*
X102011140Y-59491000D01*
X102474860Y-59491000D01*
X102502928Y-59493764D01*
X102502928Y-59493764D01*
G37*
G36*
X106312928Y-59493764D02*
G01*
X106334009Y-59500160D01*
X106353445Y-59510548D01*
X106370476Y-59524524D01*
X106384452Y-59541555D01*
X106394840Y-59560991D01*
X106401236Y-59582072D01*
X106404000Y-59610140D01*
X106404000Y-61423860D01*
X106401236Y-61451928D01*
X106394840Y-61473009D01*
X106384452Y-61492445D01*
X106370476Y-61509476D01*
X106353445Y-61523452D01*
X106334009Y-61533840D01*
X106312928Y-61540236D01*
X106284860Y-61543000D01*
X105821140Y-61543000D01*
X105793072Y-61540236D01*
X105771991Y-61533840D01*
X105752555Y-61523452D01*
X105735524Y-61509476D01*
X105721548Y-61492445D01*
X105711160Y-61473009D01*
X105704764Y-61451928D01*
X105702000Y-61423860D01*
X105702000Y-59610140D01*
X105704764Y-59582072D01*
X105711160Y-59560991D01*
X105721548Y-59541555D01*
X105735524Y-59524524D01*
X105752555Y-59510548D01*
X105771991Y-59500160D01*
X105793072Y-59493764D01*
X105821140Y-59491000D01*
X106284860Y-59491000D01*
X106312928Y-59493764D01*
X106312928Y-59493764D01*
G37*
G36*
X105042928Y-59493764D02*
G01*
X105064009Y-59500160D01*
X105083445Y-59510548D01*
X105100476Y-59524524D01*
X105114452Y-59541555D01*
X105124840Y-59560991D01*
X105131236Y-59582072D01*
X105134000Y-59610140D01*
X105134000Y-61423860D01*
X105131236Y-61451928D01*
X105124840Y-61473009D01*
X105114452Y-61492445D01*
X105100476Y-61509476D01*
X105083445Y-61523452D01*
X105064009Y-61533840D01*
X105042928Y-61540236D01*
X105014860Y-61543000D01*
X104551140Y-61543000D01*
X104523072Y-61540236D01*
X104501991Y-61533840D01*
X104482555Y-61523452D01*
X104465524Y-61509476D01*
X104451548Y-61492445D01*
X104441160Y-61473009D01*
X104434764Y-61451928D01*
X104432000Y-61423860D01*
X104432000Y-59610140D01*
X104434764Y-59582072D01*
X104441160Y-59560991D01*
X104451548Y-59541555D01*
X104465524Y-59524524D01*
X104482555Y-59510548D01*
X104501991Y-59500160D01*
X104523072Y-59493764D01*
X104551140Y-59491000D01*
X105014860Y-59491000D01*
X105042928Y-59493764D01*
X105042928Y-59493764D01*
G37*
G36*
X103772928Y-59493764D02*
G01*
X103794009Y-59500160D01*
X103813445Y-59510548D01*
X103830476Y-59524524D01*
X103844452Y-59541555D01*
X103854840Y-59560991D01*
X103861236Y-59582072D01*
X103864000Y-59610140D01*
X103864000Y-61423860D01*
X103861236Y-61451928D01*
X103854840Y-61473009D01*
X103844452Y-61492445D01*
X103830476Y-61509476D01*
X103813445Y-61523452D01*
X103794009Y-61533840D01*
X103772928Y-61540236D01*
X103744860Y-61543000D01*
X103281140Y-61543000D01*
X103253072Y-61540236D01*
X103231991Y-61533840D01*
X103212555Y-61523452D01*
X103195524Y-61509476D01*
X103181548Y-61492445D01*
X103171160Y-61473009D01*
X103164764Y-61451928D01*
X103162000Y-61423860D01*
X103162000Y-59610140D01*
X103164764Y-59582072D01*
X103171160Y-59560991D01*
X103181548Y-59541555D01*
X103195524Y-59524524D01*
X103212555Y-59510548D01*
X103231991Y-59500160D01*
X103253072Y-59493764D01*
X103281140Y-59491000D01*
X103744860Y-59491000D01*
X103772928Y-59493764D01*
X103772928Y-59493764D01*
G37*
G36*
X116613499Y-59727245D02*
G01*
X116650995Y-59738620D01*
X116685554Y-59757092D01*
X116715847Y-59781953D01*
X116740708Y-59812246D01*
X116759180Y-59846805D01*
X116770555Y-59884301D01*
X116775000Y-59929438D01*
X116775000Y-60568162D01*
X116770555Y-60613299D01*
X116759180Y-60650795D01*
X116740708Y-60685354D01*
X116715847Y-60715647D01*
X116685554Y-60740508D01*
X116650995Y-60758980D01*
X116613499Y-60770355D01*
X116568362Y-60774800D01*
X115829638Y-60774800D01*
X115784501Y-60770355D01*
X115747005Y-60758980D01*
X115712446Y-60740508D01*
X115682153Y-60715647D01*
X115657292Y-60685354D01*
X115638820Y-60650795D01*
X115627445Y-60613299D01*
X115623000Y-60568162D01*
X115623000Y-59929438D01*
X115627445Y-59884301D01*
X115638820Y-59846805D01*
X115657292Y-59812246D01*
X115682153Y-59781953D01*
X115712446Y-59757092D01*
X115747005Y-59738620D01*
X115784501Y-59727245D01*
X115829638Y-59722800D01*
X116568362Y-59722800D01*
X116613499Y-59727245D01*
X116613499Y-59727245D01*
G37*
G36*
X114863499Y-59727245D02*
G01*
X114900995Y-59738620D01*
X114935554Y-59757092D01*
X114965847Y-59781953D01*
X114990708Y-59812246D01*
X115009180Y-59846805D01*
X115020555Y-59884301D01*
X115025000Y-59929438D01*
X115025000Y-60568162D01*
X115020555Y-60613299D01*
X115009180Y-60650795D01*
X114990708Y-60685354D01*
X114965847Y-60715647D01*
X114935554Y-60740508D01*
X114900995Y-60758980D01*
X114863499Y-60770355D01*
X114818362Y-60774800D01*
X114079638Y-60774800D01*
X114034501Y-60770355D01*
X113997005Y-60758980D01*
X113962446Y-60740508D01*
X113932153Y-60715647D01*
X113907292Y-60685354D01*
X113888820Y-60650795D01*
X113877445Y-60613299D01*
X113873000Y-60568162D01*
X113873000Y-59929438D01*
X113877445Y-59884301D01*
X113888820Y-59846805D01*
X113907292Y-59812246D01*
X113932153Y-59781953D01*
X113962446Y-59757092D01*
X113997005Y-59738620D01*
X114034501Y-59727245D01*
X114079638Y-59722800D01*
X114818362Y-59722800D01*
X114863499Y-59727245D01*
X114863499Y-59727245D01*
G37*
G36*
X114863499Y-57898445D02*
G01*
X114900995Y-57909820D01*
X114935554Y-57928292D01*
X114965847Y-57953153D01*
X114990708Y-57983446D01*
X115009180Y-58018005D01*
X115020555Y-58055501D01*
X115025000Y-58100638D01*
X115025000Y-58739362D01*
X115020555Y-58784499D01*
X115009180Y-58821995D01*
X114990708Y-58856554D01*
X114965847Y-58886847D01*
X114935554Y-58911708D01*
X114900995Y-58930180D01*
X114863499Y-58941555D01*
X114818362Y-58946000D01*
X114079638Y-58946000D01*
X114034501Y-58941555D01*
X113997005Y-58930180D01*
X113962446Y-58911708D01*
X113932153Y-58886847D01*
X113907292Y-58856554D01*
X113888820Y-58821995D01*
X113877445Y-58784499D01*
X113873000Y-58739362D01*
X113873000Y-58100638D01*
X113877445Y-58055501D01*
X113888820Y-58018005D01*
X113907292Y-57983446D01*
X113932153Y-57953153D01*
X113962446Y-57928292D01*
X113997005Y-57909820D01*
X114034501Y-57898445D01*
X114079638Y-57894000D01*
X114818362Y-57894000D01*
X114863499Y-57898445D01*
X114863499Y-57898445D01*
G37*
G36*
X116613499Y-57898445D02*
G01*
X116650995Y-57909820D01*
X116685554Y-57928292D01*
X116715847Y-57953153D01*
X116740708Y-57983446D01*
X116759180Y-58018005D01*
X116770555Y-58055501D01*
X116775000Y-58100638D01*
X116775000Y-58739362D01*
X116770555Y-58784499D01*
X116759180Y-58821995D01*
X116740708Y-58856554D01*
X116715847Y-58886847D01*
X116685554Y-58911708D01*
X116650995Y-58930180D01*
X116613499Y-58941555D01*
X116568362Y-58946000D01*
X115829638Y-58946000D01*
X115784501Y-58941555D01*
X115747005Y-58930180D01*
X115712446Y-58911708D01*
X115682153Y-58886847D01*
X115657292Y-58856554D01*
X115638820Y-58821995D01*
X115627445Y-58784499D01*
X115623000Y-58739362D01*
X115623000Y-58100638D01*
X115627445Y-58055501D01*
X115638820Y-58018005D01*
X115657292Y-57983446D01*
X115682153Y-57953153D01*
X115712446Y-57928292D01*
X115747005Y-57909820D01*
X115784501Y-57898445D01*
X115829638Y-57894000D01*
X116568362Y-57894000D01*
X116613499Y-57898445D01*
X116613499Y-57898445D01*
G37*
G36*
X106487499Y-57683445D02*
G01*
X106524995Y-57694820D01*
X106559554Y-57713292D01*
X106589847Y-57738153D01*
X106614708Y-57768446D01*
X106633180Y-57803005D01*
X106644555Y-57840501D01*
X106649000Y-57885638D01*
X106649000Y-58524362D01*
X106644555Y-58569499D01*
X106633180Y-58606995D01*
X106614708Y-58641554D01*
X106589847Y-58671847D01*
X106559554Y-58696708D01*
X106524995Y-58715180D01*
X106487499Y-58726555D01*
X106442362Y-58731000D01*
X105703638Y-58731000D01*
X105658501Y-58726555D01*
X105621005Y-58715180D01*
X105586446Y-58696708D01*
X105556153Y-58671847D01*
X105531292Y-58641554D01*
X105512820Y-58606995D01*
X105501445Y-58569499D01*
X105497000Y-58524362D01*
X105497000Y-57885638D01*
X105501445Y-57840501D01*
X105512820Y-57803005D01*
X105531292Y-57768446D01*
X105556153Y-57738153D01*
X105586446Y-57713292D01*
X105621005Y-57694820D01*
X105658501Y-57683445D01*
X105703638Y-57679000D01*
X106442362Y-57679000D01*
X106487499Y-57683445D01*
X106487499Y-57683445D01*
G37*
G36*
X108513499Y-57683445D02*
G01*
X108550995Y-57694820D01*
X108585554Y-57713292D01*
X108615847Y-57738153D01*
X108640708Y-57768446D01*
X108659180Y-57803005D01*
X108670555Y-57840501D01*
X108675000Y-57885638D01*
X108675000Y-58524362D01*
X108670555Y-58569499D01*
X108659180Y-58606995D01*
X108640708Y-58641554D01*
X108615847Y-58671847D01*
X108585554Y-58696708D01*
X108550995Y-58715180D01*
X108513499Y-58726555D01*
X108468362Y-58731000D01*
X107729638Y-58731000D01*
X107684501Y-58726555D01*
X107647005Y-58715180D01*
X107612446Y-58696708D01*
X107582153Y-58671847D01*
X107557292Y-58641554D01*
X107538820Y-58606995D01*
X107527445Y-58569499D01*
X107523000Y-58524362D01*
X107523000Y-57885638D01*
X107527445Y-57840501D01*
X107538820Y-57803005D01*
X107557292Y-57768446D01*
X107582153Y-57738153D01*
X107612446Y-57713292D01*
X107647005Y-57694820D01*
X107684501Y-57683445D01*
X107729638Y-57679000D01*
X108468362Y-57679000D01*
X108513499Y-57683445D01*
X108513499Y-57683445D01*
G37*
G36*
X110263499Y-57683445D02*
G01*
X110300995Y-57694820D01*
X110335554Y-57713292D01*
X110365847Y-57738153D01*
X110390708Y-57768446D01*
X110409180Y-57803005D01*
X110420555Y-57840501D01*
X110425000Y-57885638D01*
X110425000Y-58524362D01*
X110420555Y-58569499D01*
X110409180Y-58606995D01*
X110390708Y-58641554D01*
X110365847Y-58671847D01*
X110335554Y-58696708D01*
X110300995Y-58715180D01*
X110263499Y-58726555D01*
X110218362Y-58731000D01*
X109479638Y-58731000D01*
X109434501Y-58726555D01*
X109397005Y-58715180D01*
X109362446Y-58696708D01*
X109332153Y-58671847D01*
X109307292Y-58641554D01*
X109288820Y-58606995D01*
X109277445Y-58569499D01*
X109273000Y-58524362D01*
X109273000Y-57885638D01*
X109277445Y-57840501D01*
X109288820Y-57803005D01*
X109307292Y-57768446D01*
X109332153Y-57738153D01*
X109362446Y-57713292D01*
X109397005Y-57694820D01*
X109434501Y-57683445D01*
X109479638Y-57679000D01*
X110218362Y-57679000D01*
X110263499Y-57683445D01*
X110263499Y-57683445D01*
G37*
G36*
X104737499Y-57683445D02*
G01*
X104774995Y-57694820D01*
X104809554Y-57713292D01*
X104839847Y-57738153D01*
X104864708Y-57768446D01*
X104883180Y-57803005D01*
X104894555Y-57840501D01*
X104899000Y-57885638D01*
X104899000Y-58524362D01*
X104894555Y-58569499D01*
X104883180Y-58606995D01*
X104864708Y-58641554D01*
X104839847Y-58671847D01*
X104809554Y-58696708D01*
X104774995Y-58715180D01*
X104737499Y-58726555D01*
X104692362Y-58731000D01*
X103953638Y-58731000D01*
X103908501Y-58726555D01*
X103871005Y-58715180D01*
X103836446Y-58696708D01*
X103806153Y-58671847D01*
X103781292Y-58641554D01*
X103762820Y-58606995D01*
X103751445Y-58569499D01*
X103747000Y-58524362D01*
X103747000Y-57885638D01*
X103751445Y-57840501D01*
X103762820Y-57803005D01*
X103781292Y-57768446D01*
X103806153Y-57738153D01*
X103836446Y-57713292D01*
X103871005Y-57694820D01*
X103908501Y-57683445D01*
X103953638Y-57679000D01*
X104692362Y-57679000D01*
X104737499Y-57683445D01*
X104737499Y-57683445D01*
G37*
G36*
X104737499Y-55866445D02*
G01*
X104774995Y-55877820D01*
X104809554Y-55896292D01*
X104839847Y-55921153D01*
X104864708Y-55951446D01*
X104883180Y-55986005D01*
X104894555Y-56023501D01*
X104899000Y-56068638D01*
X104899000Y-56707362D01*
X104894555Y-56752499D01*
X104883180Y-56789995D01*
X104864708Y-56824554D01*
X104839847Y-56854847D01*
X104809554Y-56879708D01*
X104774995Y-56898180D01*
X104737499Y-56909555D01*
X104692362Y-56914000D01*
X103953638Y-56914000D01*
X103908501Y-56909555D01*
X103871005Y-56898180D01*
X103836446Y-56879708D01*
X103806153Y-56854847D01*
X103781292Y-56824554D01*
X103762820Y-56789995D01*
X103751445Y-56752499D01*
X103747000Y-56707362D01*
X103747000Y-56068638D01*
X103751445Y-56023501D01*
X103762820Y-55986005D01*
X103781292Y-55951446D01*
X103806153Y-55921153D01*
X103836446Y-55896292D01*
X103871005Y-55877820D01*
X103908501Y-55866445D01*
X103953638Y-55862000D01*
X104692362Y-55862000D01*
X104737499Y-55866445D01*
X104737499Y-55866445D01*
G37*
G36*
X106487499Y-55866445D02*
G01*
X106524995Y-55877820D01*
X106559554Y-55896292D01*
X106589847Y-55921153D01*
X106614708Y-55951446D01*
X106633180Y-55986005D01*
X106644555Y-56023501D01*
X106649000Y-56068638D01*
X106649000Y-56707362D01*
X106644555Y-56752499D01*
X106633180Y-56789995D01*
X106614708Y-56824554D01*
X106589847Y-56854847D01*
X106559554Y-56879708D01*
X106524995Y-56898180D01*
X106487499Y-56909555D01*
X106442362Y-56914000D01*
X105703638Y-56914000D01*
X105658501Y-56909555D01*
X105621005Y-56898180D01*
X105586446Y-56879708D01*
X105556153Y-56854847D01*
X105531292Y-56824554D01*
X105512820Y-56789995D01*
X105501445Y-56752499D01*
X105497000Y-56707362D01*
X105497000Y-56068638D01*
X105501445Y-56023501D01*
X105512820Y-55986005D01*
X105531292Y-55951446D01*
X105556153Y-55921153D01*
X105586446Y-55896292D01*
X105621005Y-55877820D01*
X105658501Y-55866445D01*
X105703638Y-55862000D01*
X106442362Y-55862000D01*
X106487499Y-55866445D01*
X106487499Y-55866445D01*
G37*
G36*
X110263499Y-55866445D02*
G01*
X110300995Y-55877820D01*
X110335554Y-55896292D01*
X110365847Y-55921153D01*
X110390708Y-55951446D01*
X110409180Y-55986005D01*
X110420555Y-56023501D01*
X110425000Y-56068638D01*
X110425000Y-56707362D01*
X110420555Y-56752499D01*
X110409180Y-56789995D01*
X110390708Y-56824554D01*
X110365847Y-56854847D01*
X110335554Y-56879708D01*
X110300995Y-56898180D01*
X110263499Y-56909555D01*
X110218362Y-56914000D01*
X109479638Y-56914000D01*
X109434501Y-56909555D01*
X109397005Y-56898180D01*
X109362446Y-56879708D01*
X109332153Y-56854847D01*
X109307292Y-56824554D01*
X109288820Y-56789995D01*
X109277445Y-56752499D01*
X109273000Y-56707362D01*
X109273000Y-56068638D01*
X109277445Y-56023501D01*
X109288820Y-55986005D01*
X109307292Y-55951446D01*
X109332153Y-55921153D01*
X109362446Y-55896292D01*
X109397005Y-55877820D01*
X109434501Y-55866445D01*
X109479638Y-55862000D01*
X110218362Y-55862000D01*
X110263499Y-55866445D01*
X110263499Y-55866445D01*
G37*
G36*
X108513499Y-55866445D02*
G01*
X108550995Y-55877820D01*
X108585554Y-55896292D01*
X108615847Y-55921153D01*
X108640708Y-55951446D01*
X108659180Y-55986005D01*
X108670555Y-56023501D01*
X108675000Y-56068638D01*
X108675000Y-56707362D01*
X108670555Y-56752499D01*
X108659180Y-56789995D01*
X108640708Y-56824554D01*
X108615847Y-56854847D01*
X108585554Y-56879708D01*
X108550995Y-56898180D01*
X108513499Y-56909555D01*
X108468362Y-56914000D01*
X107729638Y-56914000D01*
X107684501Y-56909555D01*
X107647005Y-56898180D01*
X107612446Y-56879708D01*
X107582153Y-56854847D01*
X107557292Y-56824554D01*
X107538820Y-56789995D01*
X107527445Y-56752499D01*
X107523000Y-56707362D01*
X107523000Y-56068638D01*
X107527445Y-56023501D01*
X107538820Y-55986005D01*
X107557292Y-55951446D01*
X107582153Y-55921153D01*
X107612446Y-55896292D01*
X107647005Y-55877820D01*
X107684501Y-55866445D01*
X107729638Y-55862000D01*
X108468362Y-55862000D01*
X108513499Y-55866445D01*
X108513499Y-55866445D01*
G37*
G36*
X117521499Y-53753445D02*
G01*
X117558995Y-53764820D01*
X117593554Y-53783292D01*
X117623847Y-53808153D01*
X117648708Y-53838446D01*
X117667180Y-53873005D01*
X117678555Y-53910501D01*
X117683000Y-53955638D01*
X117683000Y-54594362D01*
X117678555Y-54639499D01*
X117667180Y-54676995D01*
X117648708Y-54711554D01*
X117623847Y-54741847D01*
X117593554Y-54766708D01*
X117558995Y-54785180D01*
X117521499Y-54796555D01*
X117476362Y-54801000D01*
X116737638Y-54801000D01*
X116692501Y-54796555D01*
X116655005Y-54785180D01*
X116620446Y-54766708D01*
X116590153Y-54741847D01*
X116565292Y-54711554D01*
X116546820Y-54676995D01*
X116535445Y-54639499D01*
X116531000Y-54594362D01*
X116531000Y-53955638D01*
X116535445Y-53910501D01*
X116546820Y-53873005D01*
X116565292Y-53838446D01*
X116590153Y-53808153D01*
X116620446Y-53783292D01*
X116655005Y-53764820D01*
X116692501Y-53753445D01*
X116737638Y-53749000D01*
X117476362Y-53749000D01*
X117521499Y-53753445D01*
X117521499Y-53753445D01*
G37*
G36*
X115771499Y-53753445D02*
G01*
X115808995Y-53764820D01*
X115843554Y-53783292D01*
X115873847Y-53808153D01*
X115898708Y-53838446D01*
X115917180Y-53873005D01*
X115928555Y-53910501D01*
X115933000Y-53955638D01*
X115933000Y-54594362D01*
X115928555Y-54639499D01*
X115917180Y-54676995D01*
X115898708Y-54711554D01*
X115873847Y-54741847D01*
X115843554Y-54766708D01*
X115808995Y-54785180D01*
X115771499Y-54796555D01*
X115726362Y-54801000D01*
X114987638Y-54801000D01*
X114942501Y-54796555D01*
X114905005Y-54785180D01*
X114870446Y-54766708D01*
X114840153Y-54741847D01*
X114815292Y-54711554D01*
X114796820Y-54676995D01*
X114785445Y-54639499D01*
X114781000Y-54594362D01*
X114781000Y-53955638D01*
X114785445Y-53910501D01*
X114796820Y-53873005D01*
X114815292Y-53838446D01*
X114840153Y-53808153D01*
X114870446Y-53783292D01*
X114905005Y-53764820D01*
X114942501Y-53753445D01*
X114987638Y-53749000D01*
X115726362Y-53749000D01*
X115771499Y-53753445D01*
X115771499Y-53753445D01*
G37*
G36*
X107555442Y-52310518D02*
G01*
X107621627Y-52317037D01*
X107791466Y-52368557D01*
X107947991Y-52452222D01*
X107983729Y-52481552D01*
X108085186Y-52564814D01*
X108148404Y-52641847D01*
X108197778Y-52702009D01*
X108281443Y-52858534D01*
X108332963Y-53028373D01*
X108350359Y-53205000D01*
X108332963Y-53381627D01*
X108281443Y-53551466D01*
X108197778Y-53707991D01*
X108168448Y-53743729D01*
X108085186Y-53845186D01*
X107983729Y-53928448D01*
X107947991Y-53957778D01*
X107791466Y-54041443D01*
X107621627Y-54092963D01*
X107555442Y-54099482D01*
X107489260Y-54106000D01*
X107400740Y-54106000D01*
X107334558Y-54099482D01*
X107268373Y-54092963D01*
X107098534Y-54041443D01*
X106942009Y-53957778D01*
X106906271Y-53928448D01*
X106804814Y-53845186D01*
X106721552Y-53743729D01*
X106692222Y-53707991D01*
X106608557Y-53551466D01*
X106557037Y-53381627D01*
X106539641Y-53205000D01*
X106557037Y-53028373D01*
X106608557Y-52858534D01*
X106692222Y-52702009D01*
X106741596Y-52641847D01*
X106804814Y-52564814D01*
X106906271Y-52481552D01*
X106942009Y-52452222D01*
X107098534Y-52368557D01*
X107268373Y-52317037D01*
X107334557Y-52310519D01*
X107400740Y-52304000D01*
X107489260Y-52304000D01*
X107555442Y-52310518D01*
X107555442Y-52310518D01*
G37*
G36*
X110095442Y-52310518D02*
G01*
X110161627Y-52317037D01*
X110331466Y-52368557D01*
X110487991Y-52452222D01*
X110523729Y-52481552D01*
X110625186Y-52564814D01*
X110688404Y-52641847D01*
X110737778Y-52702009D01*
X110821443Y-52858534D01*
X110872963Y-53028373D01*
X110890359Y-53205000D01*
X110872963Y-53381627D01*
X110821443Y-53551466D01*
X110737778Y-53707991D01*
X110708448Y-53743729D01*
X110625186Y-53845186D01*
X110523729Y-53928448D01*
X110487991Y-53957778D01*
X110331466Y-54041443D01*
X110161627Y-54092963D01*
X110095442Y-54099482D01*
X110029260Y-54106000D01*
X109940740Y-54106000D01*
X109874558Y-54099482D01*
X109808373Y-54092963D01*
X109638534Y-54041443D01*
X109482009Y-53957778D01*
X109446271Y-53928448D01*
X109344814Y-53845186D01*
X109261552Y-53743729D01*
X109232222Y-53707991D01*
X109148557Y-53551466D01*
X109097037Y-53381627D01*
X109079641Y-53205000D01*
X109097037Y-53028373D01*
X109148557Y-52858534D01*
X109232222Y-52702009D01*
X109281596Y-52641847D01*
X109344814Y-52564814D01*
X109446271Y-52481552D01*
X109482009Y-52452222D01*
X109638534Y-52368557D01*
X109808373Y-52317037D01*
X109874557Y-52310519D01*
X109940740Y-52304000D01*
X110029260Y-52304000D01*
X110095442Y-52310518D01*
X110095442Y-52310518D01*
G37*
G36*
X113426000Y-54106000D02*
G01*
X111624000Y-54106000D01*
X111624000Y-52304000D01*
X113426000Y-52304000D01*
X113426000Y-54106000D01*
X113426000Y-54106000D01*
G37*
G36*
X117521499Y-51653445D02*
G01*
X117558995Y-51664820D01*
X117593554Y-51683292D01*
X117623847Y-51708153D01*
X117648708Y-51738446D01*
X117667180Y-51773005D01*
X117678555Y-51810501D01*
X117683000Y-51855638D01*
X117683000Y-52494362D01*
X117678555Y-52539499D01*
X117667180Y-52576995D01*
X117648708Y-52611554D01*
X117623847Y-52641847D01*
X117593554Y-52666708D01*
X117558995Y-52685180D01*
X117521499Y-52696555D01*
X117476362Y-52701000D01*
X116737638Y-52701000D01*
X116692501Y-52696555D01*
X116655005Y-52685180D01*
X116620446Y-52666708D01*
X116590153Y-52641847D01*
X116565292Y-52611554D01*
X116546820Y-52576995D01*
X116535445Y-52539499D01*
X116531000Y-52494362D01*
X116531000Y-51855638D01*
X116535445Y-51810501D01*
X116546820Y-51773005D01*
X116565292Y-51738446D01*
X116590153Y-51708153D01*
X116620446Y-51683292D01*
X116655005Y-51664820D01*
X116692501Y-51653445D01*
X116737638Y-51649000D01*
X117476362Y-51649000D01*
X117521499Y-51653445D01*
X117521499Y-51653445D01*
G37*
G36*
X115771499Y-51653445D02*
G01*
X115808995Y-51664820D01*
X115843554Y-51683292D01*
X115873847Y-51708153D01*
X115898708Y-51738446D01*
X115917180Y-51773005D01*
X115928555Y-51810501D01*
X115933000Y-51855638D01*
X115933000Y-52494362D01*
X115928555Y-52539499D01*
X115917180Y-52576995D01*
X115898708Y-52611554D01*
X115873847Y-52641847D01*
X115843554Y-52666708D01*
X115808995Y-52685180D01*
X115771499Y-52696555D01*
X115726362Y-52701000D01*
X114987638Y-52701000D01*
X114942501Y-52696555D01*
X114905005Y-52685180D01*
X114870446Y-52666708D01*
X114840153Y-52641847D01*
X114815292Y-52611554D01*
X114796820Y-52576995D01*
X114785445Y-52539499D01*
X114781000Y-52494362D01*
X114781000Y-51855638D01*
X114785445Y-51810501D01*
X114796820Y-51773005D01*
X114815292Y-51738446D01*
X114840153Y-51708153D01*
X114870446Y-51683292D01*
X114905005Y-51664820D01*
X114942501Y-51653445D01*
X114987638Y-51649000D01*
X115726362Y-51649000D01*
X115771499Y-51653445D01*
X115771499Y-51653445D01*
G37*
M02*
