G04 #@! TF.GenerationSoftware,KiCad,Pcbnew,(5.1.4-0-10_14)*
G04 #@! TF.CreationDate,2020-12-31T20:51:25-07:00*
G04 #@! TF.ProjectId,Moisture-Sensor,4d6f6973-7475-4726-952d-53656e736f72,rev?*
G04 #@! TF.SameCoordinates,Original*
G04 #@! TF.FileFunction,Soldermask,Bot*
G04 #@! TF.FilePolarity,Negative*
%FSLAX46Y46*%
G04 Gerber Fmt 4.6, Leading zero omitted, Abs format (unit mm)*
G04 Created by KiCad (PCBNEW (5.1.4-0-10_14)) date 2020-12-31 20:51:25*
%MOMM*%
%LPD*%
G04 APERTURE LIST*
%ADD10C,0.100000*%
G04 APERTURE END LIST*
D10*
G36*
X117569085Y-71123975D02*
G01*
X117924143Y-71271045D01*
X117924145Y-71271046D01*
X118243690Y-71484559D01*
X118515441Y-71756310D01*
X118728954Y-72075855D01*
X118728955Y-72075857D01*
X118876025Y-72430915D01*
X118951000Y-72807842D01*
X118951000Y-73192158D01*
X118876025Y-73569085D01*
X118728955Y-73924143D01*
X118728954Y-73924145D01*
X118515441Y-74243690D01*
X118243690Y-74515441D01*
X117924145Y-74728954D01*
X117924144Y-74728955D01*
X117924143Y-74728955D01*
X117569085Y-74876025D01*
X117192158Y-74951000D01*
X116807842Y-74951000D01*
X116430915Y-74876025D01*
X116075857Y-74728955D01*
X116075856Y-74728955D01*
X116075855Y-74728954D01*
X115756310Y-74515441D01*
X115484559Y-74243690D01*
X115271046Y-73924145D01*
X115271045Y-73924143D01*
X115123975Y-73569085D01*
X115049000Y-73192158D01*
X115049000Y-72807842D01*
X115123975Y-72430915D01*
X115271045Y-72075857D01*
X115271046Y-72075855D01*
X115484559Y-71756310D01*
X115756310Y-71484559D01*
X116075855Y-71271046D01*
X116075857Y-71271045D01*
X116430915Y-71123975D01*
X116807842Y-71049000D01*
X117192158Y-71049000D01*
X117569085Y-71123975D01*
X117569085Y-71123975D01*
G37*
G36*
X103569085Y-71123975D02*
G01*
X103924143Y-71271045D01*
X103924145Y-71271046D01*
X104243690Y-71484559D01*
X104515441Y-71756310D01*
X104728954Y-72075855D01*
X104728955Y-72075857D01*
X104876025Y-72430915D01*
X104951000Y-72807842D01*
X104951000Y-73192158D01*
X104876025Y-73569085D01*
X104728955Y-73924143D01*
X104728954Y-73924145D01*
X104515441Y-74243690D01*
X104243690Y-74515441D01*
X103924145Y-74728954D01*
X103924144Y-74728955D01*
X103924143Y-74728955D01*
X103569085Y-74876025D01*
X103192158Y-74951000D01*
X102807842Y-74951000D01*
X102430915Y-74876025D01*
X102075857Y-74728955D01*
X102075856Y-74728955D01*
X102075855Y-74728954D01*
X101756310Y-74515441D01*
X101484559Y-74243690D01*
X101271046Y-73924145D01*
X101271045Y-73924143D01*
X101123975Y-73569085D01*
X101049000Y-73192158D01*
X101049000Y-72807842D01*
X101123975Y-72430915D01*
X101271045Y-72075857D01*
X101271046Y-72075855D01*
X101484559Y-71756310D01*
X101756310Y-71484559D01*
X102075855Y-71271046D01*
X102075857Y-71271045D01*
X102430915Y-71123975D01*
X102807842Y-71049000D01*
X103192158Y-71049000D01*
X103569085Y-71123975D01*
X103569085Y-71123975D01*
G37*
G36*
X113426000Y-54106000D02*
G01*
X111624000Y-54106000D01*
X111624000Y-52304000D01*
X113426000Y-52304000D01*
X113426000Y-54106000D01*
X113426000Y-54106000D01*
G37*
G36*
X110095442Y-52310518D02*
G01*
X110161627Y-52317037D01*
X110331466Y-52368557D01*
X110487991Y-52452222D01*
X110523729Y-52481552D01*
X110625186Y-52564814D01*
X110708448Y-52666271D01*
X110737778Y-52702009D01*
X110821443Y-52858534D01*
X110872963Y-53028373D01*
X110890359Y-53205000D01*
X110872963Y-53381627D01*
X110821443Y-53551466D01*
X110737778Y-53707991D01*
X110708448Y-53743729D01*
X110625186Y-53845186D01*
X110523729Y-53928448D01*
X110487991Y-53957778D01*
X110331466Y-54041443D01*
X110161627Y-54092963D01*
X110095442Y-54099482D01*
X110029260Y-54106000D01*
X109940740Y-54106000D01*
X109874558Y-54099482D01*
X109808373Y-54092963D01*
X109638534Y-54041443D01*
X109482009Y-53957778D01*
X109446271Y-53928448D01*
X109344814Y-53845186D01*
X109261552Y-53743729D01*
X109232222Y-53707991D01*
X109148557Y-53551466D01*
X109097037Y-53381627D01*
X109079641Y-53205000D01*
X109097037Y-53028373D01*
X109148557Y-52858534D01*
X109232222Y-52702009D01*
X109261552Y-52666271D01*
X109344814Y-52564814D01*
X109446271Y-52481552D01*
X109482009Y-52452222D01*
X109638534Y-52368557D01*
X109808373Y-52317037D01*
X109874557Y-52310519D01*
X109940740Y-52304000D01*
X110029260Y-52304000D01*
X110095442Y-52310518D01*
X110095442Y-52310518D01*
G37*
G36*
X107555442Y-52310518D02*
G01*
X107621627Y-52317037D01*
X107791466Y-52368557D01*
X107947991Y-52452222D01*
X107983729Y-52481552D01*
X108085186Y-52564814D01*
X108168448Y-52666271D01*
X108197778Y-52702009D01*
X108281443Y-52858534D01*
X108332963Y-53028373D01*
X108350359Y-53205000D01*
X108332963Y-53381627D01*
X108281443Y-53551466D01*
X108197778Y-53707991D01*
X108168448Y-53743729D01*
X108085186Y-53845186D01*
X107983729Y-53928448D01*
X107947991Y-53957778D01*
X107791466Y-54041443D01*
X107621627Y-54092963D01*
X107555442Y-54099482D01*
X107489260Y-54106000D01*
X107400740Y-54106000D01*
X107334558Y-54099482D01*
X107268373Y-54092963D01*
X107098534Y-54041443D01*
X106942009Y-53957778D01*
X106906271Y-53928448D01*
X106804814Y-53845186D01*
X106721552Y-53743729D01*
X106692222Y-53707991D01*
X106608557Y-53551466D01*
X106557037Y-53381627D01*
X106539641Y-53205000D01*
X106557037Y-53028373D01*
X106608557Y-52858534D01*
X106692222Y-52702009D01*
X106721552Y-52666271D01*
X106804814Y-52564814D01*
X106906271Y-52481552D01*
X106942009Y-52452222D01*
X107098534Y-52368557D01*
X107268373Y-52317037D01*
X107334557Y-52310519D01*
X107400740Y-52304000D01*
X107489260Y-52304000D01*
X107555442Y-52310518D01*
X107555442Y-52310518D01*
G37*
M02*
